<?xml version="1.0" encoding="UTF-8" standalone="no"?>
<svg
   width="792.16345"
   height="172.89542"
   version="1.1"
   id="svg19"
   sodipodi:docname="amiga600.svg"
   inkscape:version="1.3.2 (091e20ef0f, 2023-11-25)"
   xmlns:inkscape="http://www.inkscape.org/namespaces/inkscape"
   xmlns:sodipodi="http://sodipodi.sourceforge.net/DTD/sodipodi-0.dtd"
   xmlns="http://www.w3.org/2000/svg"
   xmlns:svg="http://www.w3.org/2000/svg">
  <defs
     id="defs19" />
  <sodipodi:namedview
     id="namedview19"
     pagecolor="#505050"
     bordercolor="#eeeeee"
     borderopacity="1"
     inkscape:showpageshadow="0"
     inkscape:pageopacity="0"
     inkscape:pagecheckerboard="0"
     inkscape:deskcolor="#505050"
     inkscape:zoom="0.295"
     inkscape:cx="396.61017"
     inkscape:cy="115.25424"
     inkscape:window-width="841"
     inkscape:window-height="1389"
     inkscape:window-x="2778"
     inkscape:window-y="8"
     inkscape:window-maximized="1"
     inkscape:current-layer="svg19" />
  <g
     id="Layer_1"
     transform="translate(-4.00002,-181.75603)">
    <title
       id="title1">Layer 1</title>
    <g
       stroke="null"
       id="svg_1">
      <path
         stroke="null"
         d="m 90.44773,181.75603 c -47.82562,0 -86.44771,38.78642 -86.44771,86.44771 0,47.82564 38.78642,86.44771 86.44771,86.44771 9.20357,0 18.07842,-1.47915 26.29588,-4.10873 v -43.22384 c -7.23136,4.10871 -15.61318,6.57397 -24.48803,6.57397 -26.29588,0 -47.49695,-20.54367 -47.49695,-45.6891 0,-25.14545 21.36542,-45.6891 47.49695,-45.6891 9.0392,0 17.42102,2.46523 24.48803,6.57397 v -43.22386 c -8.21747,-2.62959 -17.09231,-4.10871 -26.29588,-4.10871 z m 27.11764,53.57785 h 64.42491 l -28.92547,30.07591 h -35.49944"
         fill="#306230"
         id="path1" />
      <path
         stroke="null"
         d="m 117.56536,301.40228 h 64.42491 L 153.0648,271.49072 h -35.49944"
         fill="#306230"
         id="path2" />
      <path
         stroke="null"
         d="m 290.95384,257.84972 c 8.21745,0 14.79143,-2.30088 20.05061,-6.57397 5.25917,-4.43742 7.88876,-10.51835 8.05311,-18.57146 -0.16437,-8.05311 -2.79394,-14.29839 -8.05311,-18.73581 -5.25917,-4.43744 -11.83316,-6.57399 -20.05061,-6.57399 -8.21747,0 -14.79143,2.3009 -20.05063,6.57399 -5.25917,4.27307 -7.88876,10.6827 -8.05311,18.73581 0.16435,8.05311 2.79394,14.29837 8.05311,18.57146 5.25919,4.27309 11.83316,6.57397 20.05063,6.57397 z m 0,-11.66879 c -3.78005,-0.16437 -6.57399,-1.47915 -8.38182,-4.10873 -1.80784,-2.62959 -2.62959,-5.75224 -2.46523,-9.53226 0,-3.78003 0.82175,-6.90267 2.46523,-9.53226 1.6435,-2.62959 4.43742,-3.94438 8.38182,-4.10873 3.78003,0.16437 6.57397,1.47915 8.3818,4.10873 1.80786,2.62959 2.62959,5.75224 2.46523,9.53226 0,3.61569 -0.82173,6.90267 -2.46523,9.53226 -1.80784,2.62959 -4.60178,3.94438 -8.3818,4.10873 z m 34.84204,10.51835 h 16.76362 v -20.37932 c 0,-5.09482 0.82173,-9.0392 2.46523,-11.50445 1.6435,-2.46523 3.94438,-3.61567 6.90267,-3.61567 2.30088,0 4.10873,0.98609 5.09482,2.79394 0.9861,1.80784 1.6435,4.10873 1.6435,6.90265 v 25.9672 h 16.76362 v -20.37932 c 0,-5.09482 0.82173,-9.03922 2.46523,-11.50445 1.6435,-2.46523 3.94438,-3.61567 6.90267,-3.61567 2.30088,0 4.10873,0.98609 5.09482,2.79392 0.9861,1.80786 1.6435,4.10873 1.6435,6.90267 v 25.96718 h 16.76362 v -28.43241 c 0.16437,-6.57397 -0.9861,-11.6688 -3.28698,-15.44883 -2.3009,-3.61569 -6.90267,-5.58788 -13.80535,-5.58788 -3.45134,0 -6.73832,0.6574 -9.6966,2.13654 -2.95829,1.47915 -5.42353,3.78003 -7.39572,7.06701 -1.31479,-3.12263 -3.28698,-5.42353 -5.91659,-7.06701 -2.62959,-1.47915 -5.75222,-2.3009 -9.20355,-2.3009 -3.78003,0 -7.39572,0.82175 -10.35399,2.46525 -3.12265,1.64348 -5.42353,4.10873 -7.23138,7.56005 h -0.16437 v -8.87484 h -15.2845 l -0.16437,48.15433 h 8e-5 z m 91.54252,0 h 16.76362 v -20.37932 c 0,-5.09482 0.82175,-9.0392 2.46525,-11.50445 1.64348,-2.46523 3.94438,-3.61567 6.90265,-3.61567 2.3009,0 4.10873,0.98609 5.09484,2.79394 0.98609,1.80784 1.64348,4.10873 1.64348,6.90265 v 25.9672 h 16.76362 v -20.37932 c 0,-5.09482 0.82175,-9.03922 2.46525,-11.50445 1.64348,-2.46523 3.94438,-3.61567 6.90265,-3.61567 2.3009,0 4.10873,0.98609 5.09484,2.79392 0.98609,1.80786 1.64348,4.10873 1.64348,6.90267 v 25.96718 h 16.76362 v -28.43241 c 0.16437,-6.57397 -0.98609,-11.6688 -3.28698,-15.44883 -2.30088,-3.61569 -6.90265,-5.58788 -13.80533,-5.58788 -3.45134,0 -6.73832,0.6574 -9.69662,2.13654 -2.95827,1.47915 -5.42353,3.78003 -7.39572,7.06701 -1.31479,-3.12263 -3.28698,-5.42353 -5.91657,-7.06701 -2.62959,-1.47915 -5.75222,-2.3009 -9.20355,-2.3009 -3.94438,0 -7.39572,0.82175 -10.35401,2.46525 -3.12263,1.64348 -5.42353,4.10873 -7.23136,7.56005 h -0.16437 v -8.87484 h -15.28448 l -0.16437,48.15433 h 4e-5 z m 117.18103,1.15044 c 8.21747,0 14.79143,-2.30088 20.05061,-6.57397 5.25917,-4.43742 7.88876,-10.51835 8.05311,-18.57146 -0.16437,-8.05311 -2.79394,-14.29839 -8.05311,-18.73581 -5.25917,-4.43744 -11.83314,-6.57399 -20.05061,-6.57399 -8.21747,0 -14.79143,2.3009 -20.05061,6.57399 -5.25919,4.27307 -7.88878,10.6827 -8.05311,18.73581 0.16437,8.05311 2.79392,14.29837 8.05311,18.57146 5.25917,4.27309 11.99749,6.57397 20.05061,6.57397 z m 0,-11.66879 c -3.78005,-0.16437 -6.57397,-1.47915 -8.38182,-4.10873 -1.80784,-2.62959 -2.62959,-5.75224 -2.46523,-9.53226 0,-3.78003 0.82175,-6.90267 2.46523,-9.53226 1.6435,-2.62959 4.43744,-3.94438 8.38182,-4.10873 3.78003,0.16437 6.57397,1.47915 8.3818,4.10873 1.80786,2.62959 2.62959,5.75224 2.62959,9.53226 0,3.61569 -0.82173,6.90267 -2.62959,9.53226 -1.80784,2.62959 -4.43742,3.94438 -8.3818,4.10873 z m 86.94075,-59.0014 h -16.76362 v 27.44634 h -0.16437 c -2.13652,-2.79394 -4.60178,-4.6018 -7.39572,-5.75224 -2.79392,-1.15044 -5.91657,-1.64348 -9.20355,-1.64348 -6.73832,0.32869 -11.83314,2.79392 -15.28448,7.72441 -3.45134,4.93048 -5.25917,10.51835 -5.25917,16.59927 0,7.39572 1.97219,13.47664 5.58786,18.40713 3.78005,4.93048 9.20357,7.56007 16.43494,7.72441 3.94438,0 7.39572,-0.98609 10.35401,-2.79392 2.95827,-1.80786 5.09482,-4.10873 6.24526,-6.90267 h 0.16437 v 8.71051 h 15.44883 l -0.16437,-69.51975 h 2e-5 z m -37.14292,44.86736 c 0,-3.28698 0.82173,-6.08092 2.62959,-8.38182 1.80784,-2.30088 4.27307,-3.45134 7.56005,-3.61567 3.12265,0 5.58788,1.31479 7.39572,3.61567 1.80786,2.3009 2.79394,5.25917 2.79394,9.03922 0,3.61567 -1.15044,6.57397 -2.95827,8.87484 -1.97219,2.3009 -4.27309,3.45134 -7.23138,3.45134 -3.12263,0 -5.58786,-1.31479 -7.39572,-3.61567 -1.80784,-2.3009 -2.79392,-5.42353 -2.79392,-9.36791 z m 71.49192,25.80282 c 8.21747,0 14.79143,-2.30088 20.05061,-6.57397 5.25917,-4.43742 7.88876,-10.51835 8.05311,-18.57146 -0.16437,-8.05311 -2.79394,-14.29839 -8.05311,-18.73581 -5.25917,-4.43744 -11.83314,-6.57399 -20.05061,-6.57399 -8.21747,0 -14.79143,2.3009 -20.05061,6.57399 -5.25917,4.43742 -7.88876,10.6827 -8.05311,18.73581 0.16437,8.05311 2.79394,14.29837 8.05311,18.57146 5.25917,4.27309 11.99749,6.57397 20.05061,6.57397 z m 0,-11.66879 c -3.78003,-0.16437 -6.57397,-1.47915 -8.3818,-4.10873 -1.6435,-2.62959 -2.62961,-5.75224 -2.46525,-9.53226 0,-3.78003 0.82175,-6.90267 2.46525,-9.53226 1.64348,-2.62959 4.43742,-3.94438 8.3818,-4.10873 3.78003,0.16437 6.57397,1.47915 8.38182,4.10873 1.64348,2.62959 2.62959,5.75224 2.46523,9.53226 0,3.61569 -0.82175,6.90267 -2.46523,9.53226 -1.6435,2.62959 -4.43744,3.94438 -8.38182,4.10873 z m 70.34148,-38.29338 c -0.82173,-0.16437 -1.80784,-0.32871 -2.79394,-0.32871 -0.98609,-0.16437 -1.97219,-0.16437 -2.95827,-0.16437 -3.61569,0 -6.57397,0.9861 -8.71051,2.79394 -2.3009,1.80784 -4.10873,4.27309 -5.58788,7.23136 h -0.16437 v -8.87484 h -15.28448 v 48.31868 h 16.76362 v -20.37932 c 0,-4.76613 0.9861,-8.54616 3.12265,-11.17574 2.13652,-2.62959 5.09482,-3.94438 9.0392,-3.94438 h 2.79394 c 0.98609,0 1.80784,0.16437 2.79394,0.49304 l 0.98609,-13.96968 2e-5,2e-5 z m 52.42742,29.58287 v -3.12265 c 0.16437,-7.39572 -1.80784,-13.80533 -5.42353,-18.90017 -3.78003,-5.25917 -10.0253,-7.88876 -18.90017,-8.21745 -7.72441,0 -13.80533,2.30088 -18.57146,6.57397 -4.76613,4.43742 -7.23136,10.51835 -7.23136,18.57146 0.16437,8.05311 2.79394,14.29839 8.05311,18.57146 5.25917,4.43744 11.83314,6.57399 20.05061,6.73832 3.12263,0 6.24528,-0.16437 9.20355,-0.6574 2.95829,-0.49304 5.91657,-1.31479 8.54618,-2.30088 v -11.83316 c -2.46525,1.31481 -5.09484,2.3009 -7.56007,2.79394 -2.46525,0.6574 -4.93048,0.82175 -7.23136,0.82175 -4.10873,0 -7.39572,-0.6574 -9.86097,-2.13654 -2.46523,-1.47915 -3.94438,-3.78003 -4.43742,-7.06701 l 33.36289,0.16437 v -2e-5 z m -33.6916,-9.53226 c 0.16437,-2.79394 0.9861,-5.25917 2.46525,-7.06703 1.47915,-1.97219 3.78003,-2.95827 6.73832,-2.95827 3.28698,0 5.75222,0.98609 7.06701,2.95827 1.47915,1.97219 2.13654,4.27309 2.13654,7.06703 h -18.40713 z m -517.70015,29.25416 c -7.23138,-1.97219 -12.81924,-5.25917 -17.42102,-10.35399 -4.6018,-5.09484 -6.73832,-9.69662 -8.05311,-17.91408 -2.46525,-16.10623 4.43742,-30.89766 17.74971,-37.30727 6.73832,-3.28698 15.77754,-4.93048 24.81674,-4.93048 5.58788,0 10.51835,0.9861 15.12014,1.80786 l -1.47915,14.46273 c 0,0 -1.15044,-0.32871 -4.43744,-1.15044 -3.12263,-0.82175 -6.24526,-1.15046 -9.36791,-1.15046 -6.24526,0 -12.32618,1.6435 -16.27056,4.76613 -9.36791,7.23138 -9.36791,26.13153 0.32869,34.02031 5.91657,4.93046 16.59927,6.57397 26.13153,4.10871 l 4.43744,-1.15044 1.31479,14.62708 c -2.79394,0.6574 -8.71051,1.80786 -15.94189,1.80786 -9.53224,0 -12.49054,-0.32871 -16.92796,-1.6435 z m -37.47165,8.38182 h 606.44877 v 4.93046 H 189.71468 Z"
         fill="#306230"
         id="path3" />
      <path
         stroke="null"
         d="m 289.47469,344.62614 c 0,-0.82175 -0.16435,-1.47915 -0.6574,-1.6435 -0.49304,-0.32869 -0.9861,-0.49304 -1.80786,-0.49304 -2.62959,-0.49304 -4.10871,-1.47915 -4.60178,-2.95827 -0.49304,-1.6435 -0.6574,-3.61569 -0.6574,-6.08092 l -2.62959,-50.61958 c 0,-1.80784 -0.16435,-3.28698 -0.49304,-4.60178 -0.32871,-1.15044 -1.47915,-1.80784 -3.61569,-1.97219 -1.80784,0 -3.12263,0.6574 -3.94438,1.64348 -0.82175,0.9861 -1.64348,2.3009 -2.62959,3.61569 l -32.54114,45.6891 -5.42353,7.72441 c -1.15046,1.6435 -2.3009,3.12265 -3.45134,4.6018 -1.31479,1.47913 -2.95829,2.30088 -4.93048,2.62959 -1.15044,0.16437 -2.13654,0.32869 -3.12263,0.6574 -0.9861,0.32869 -1.47915,1.15044 -1.6435,2.46523 0,0.82175 0.32871,1.31479 0.82175,1.47915 0.49304,0.16437 1.15044,0.32869 1.80784,0.32869 1.80786,0 3.78005,-0.16437 5.75224,-0.32869 1.97219,-0.16437 3.78003,-0.32871 5.75222,-0.32871 1.80786,0 3.45134,0.16437 5.09484,0.32871 1.64348,0.16437 3.45132,0.16437 5.09482,0.32869 0.82175,0 1.47915,-0.16437 2.13654,-0.49304 0.6574,-0.32871 0.98609,-0.9861 0.98609,-1.80784 -0.16435,-1.31479 -0.82173,-1.97219 -2.30088,-2.13654 -1.47915,-0.16437 -2.79394,-0.49304 -4.27309,-0.82175 -1.47915,-0.32869 -2.13654,-1.31479 -2.30088,-3.12263 0.32869,-1.80786 1.47913,-4.43744 3.61567,-7.72443 2.13654,-3.28698 3.61569,-5.75222 4.60178,-7.06701 h 20.21496 c 0.16435,2.13654 0.16435,4.27307 0.32871,6.40961 0.16435,2.13654 0.16435,4.27309 0.16435,6.40963 -0.16435,2.95827 -0.82175,4.76613 -2.3009,5.25917 -1.47915,0.49304 -2.95827,0.82175 -4.27307,0.82175 -1.47915,0 -2.3009,0.98609 -2.3009,2.46523 0,0.6574 0.16435,1.15044 0.6574,1.47915 0.49304,0.32869 0.9861,0.32869 1.6435,0.32869 2.79392,0 5.58786,-0.16437 8.3818,-0.32869 2.79394,-0.16437 5.58788,-0.32871 8.38182,-0.32871 1.80784,0 3.78003,0.16437 5.58786,0.16437 1.80786,0.16437 3.78005,0.16437 5.58788,0.16437 0.82175,0 1.6435,-0.16437 2.13654,-0.32871 0.82175,-0.32869 1.15044,-0.98609 1.15044,-1.80784 v -4e-5 z M 264.4936,318.65896 h -16.92798 l 16.10623,-23.50194 z m 171.90933,-38.45773 c 0,-0.6574 -0.16437,-0.9861 -0.6574,-1.31479 -0.32871,-0.32871 -0.82175,-0.49304 -1.47915,-0.49304 -0.98609,0 -1.80784,0 -2.62959,0.16437 -0.82175,0 -1.80784,0.16437 -2.62959,0.32871 -2.3009,0.16437 -4.43742,0.32869 -6.73832,0.49304 -2.3009,0 -4.60178,0.16437 -6.90267,0 -1.64348,0 -3.28698,-0.16437 -5.09482,-0.16437 -1.6435,-0.16437 -3.28698,-0.16437 -5.09484,-0.16437 -0.82173,0 -1.47913,0.16437 -2.13652,0.6574 -0.6574,0.49304 -0.9861,1.15044 -0.9861,1.97219 0.32871,1.47913 1.47915,2.30088 3.45134,2.13654 1.97219,-0.16437 3.12263,0.82173 3.45134,2.62959 0,0.49304 0,0.98609 -0.16437,1.64348 -0.16437,0.49304 -0.32869,0.9861 -0.49304,1.6435 l -12.81924,44.3743 c -0.49304,2.13652 -0.9861,3.94438 -1.6435,5.42353 -0.6574,1.47913 -1.97219,2.46523 -4.10873,2.95827 -0.98609,0.16437 -2.13652,0.32871 -3.45132,0.6574 -1.31479,0.32871 -2.13654,1.15044 -2.13654,2.3009 0,0.6574 0.32869,1.15044 0.82175,1.47915 0.49304,0.32869 1.15044,0.49304 1.80784,0.49304 2.13654,0 4.43742,-0.16437 6.57397,-0.32871 2.3009,-0.16437 4.43742,-0.32869 6.73832,-0.32869 2.46523,0 4.76613,0.16437 7.23136,0.32869 2.46525,0.16437 4.76613,0.16437 7.23136,0.16437 0.9861,0 2.13654,0 3.45134,-0.16437 1.31479,-0.16437 1.97219,-0.82175 2.13654,-2.13654 -0.16437,-1.31479 -0.82175,-1.97219 -1.97219,-2.13652 -1.15044,-0.16437 -2.46523,-0.32871 -3.61569,-0.6574 -1.15044,-0.32871 -1.80784,-1.47915 -1.97219,-3.45134 0,-0.82175 0.16437,-1.6435 0.32871,-2.46525 0.16437,-0.82173 0.49304,-1.64348 0.6574,-2.46523 l 12.81924,-44.53866 c 0.49304,-1.80784 0.98609,-3.12263 1.64348,-3.94438 0.6574,-0.82173 1.97219,-1.47913 3.78005,-1.80784 0.98609,-0.16437 1.97219,-0.32871 3.12263,-0.82175 0.82175,-0.6574 1.31479,-1.47915 1.47915,-2.46523 l 2e-5,2e-5 z m 66.72581,0.49304 c -0.16437,-1.15044 -1.31481,-1.80784 -3.287,-2.30088 -2.13652,-0.49306 -4.27307,-0.6574 -6.57397,-0.82175 -2.30088,-0.16437 -3.78003,-0.16437 -4.60178,-0.16437 -8.54616,0 -17.42102,1.80784 -26.62457,5.09482 -9.20357,3.45134 -17.09233,8.38182 -23.6663,14.95579 -6.57397,6.57397 -10.0253,14.62708 -10.18966,24.15934 0.16437,6.08092 1.80784,11.01141 5.25917,14.95579 3.45134,3.94438 7.56007,6.90267 12.81924,8.87486 5.09484,1.97219 10.35401,2.95827 15.94187,2.95827 3.287,0 6.57399,-0.16437 10.02532,-0.6574 3.28698,-0.32869 6.57397,-0.98609 9.86095,-1.80784 1.15044,-0.16437 2.30088,-0.49304 3.12263,-0.9861 0.82175,-0.32869 1.47915,-1.15044 1.97219,-2.46523 0.82175,-2.46523 1.6435,-5.09482 2.46525,-7.72441 0.6574,-2.62959 1.47913,-5.25919 2.13652,-7.72443 1.15046,-3.61567 2.62959,-5.91657 4.27309,-6.57397 1.6435,-0.6574 3.12263,-0.9861 4.43742,-0.9861 1.31479,0 1.97219,-0.82173 1.97219,-2.46523 0,-0.6574 -0.32869,-1.15044 -0.82173,-1.47915 -0.49306,-0.32869 -1.15046,-0.49304 -1.6435,-0.49304 -2.46523,0 -5.09482,0.16437 -7.56007,0.32871 -2.62959,0.16437 -5.09482,0.32869 -7.72441,0.32869 -2.46523,0 -4.93048,-0.16437 -7.23136,-0.32869 -2.46525,-0.16437 -4.93048,-0.32871 -7.23138,-0.32871 -0.82173,0 -1.64348,0.16437 -2.30088,0.49304 -0.82175,0.32871 -1.15044,0.9861 -1.15044,1.80786 0.16437,1.15044 0.82173,1.80784 1.97219,1.97219 1.31479,0.16437 2.46523,0.32869 3.78003,0.82173 1.31479,0.32871 1.97219,1.47915 1.97219,3.287 -0.16437,1.97219 -0.6574,4.43742 -1.80784,7.88876 -0.9861,3.28698 -1.97219,5.91657 -2.62959,8.05311 -0.32871,1.47915 -0.9861,2.62959 -1.6435,3.28698 -0.6574,0.6574 -1.80784,0.98609 -3.45134,0.98609 -5.91657,-0.16437 -10.51835,-1.97219 -13.47664,-5.75222 -3.12263,-3.78003 -4.60178,-8.38182 -4.60178,-14.13404 0,-5.25917 1.15046,-10.51835 3.28698,-15.44883 2.13654,-4.93048 5.09484,-9.36791 8.71051,-13.14793 3.61569,-3.61569 8.21747,-6.73832 13.47664,-9.36791 5.42353,-2.62961 10.6827,-3.9444 15.94189,-4.10873 2.46523,0 3.94438,0.49304 4.60178,1.47913 0.49304,0.9861 0.82173,2.62961 0.6574,4.93048 0,0.6574 0,1.15044 -0.16437,1.80784 0,0.6574 -0.16437,1.15046 -0.16437,1.80786 0,0.98609 0.16437,1.97219 0.49304,2.79394 0.32871,0.82173 1.15046,1.31479 2.3009,1.31479 1.31479,-0.16437 2.13654,-0.6574 2.79394,-1.80786 0.6574,-1.15044 0.98609,-2.30088 1.31479,-3.28698 0.32869,-0.82175 0.82175,-2.46523 1.64348,-5.09482 0.6574,-2.62959 1.15046,-4.27309 1.31481,-4.93048 l 4e-5,2e-5 z m 58.17963,63.93187 c 0,-0.82175 -0.16437,-1.47915 -0.6574,-1.6435 -0.49304,-0.32869 -0.9861,-0.49304 -1.80784,-0.49304 -2.62961,-0.49304 -4.10873,-1.47915 -4.6018,-2.95827 -0.49304,-1.6435 -0.6574,-3.61569 -0.6574,-6.08092 l -2.62959,-50.61958 c 0,-1.80784 -0.16437,-3.28698 -0.49304,-4.60178 -0.32871,-1.15044 -1.47915,-1.80784 -3.61569,-1.97219 -1.80784,0 -3.12263,0.6574 -3.94438,1.64348 -0.82175,0.9861 -1.64348,2.3009 -2.62959,3.61569 l -32.54114,45.6891 -5.42353,7.72441 c -1.15046,1.6435 -2.3009,3.12265 -3.45134,4.6018 -1.31479,1.47913 -2.95829,2.30088 -4.93048,2.62959 -1.15044,0.16437 -2.13654,0.32869 -3.12263,0.6574 -0.9861,0.32869 -1.47915,1.15044 -1.6435,2.46523 0,0.82175 0.32871,1.31479 0.82175,1.47915 0.49304,0.16437 1.15044,0.32869 1.80784,0.32869 1.80786,0 3.78005,-0.16437 5.75224,-0.32869 1.97219,-0.16437 3.78003,-0.32871 5.75222,-0.32871 1.80786,0 3.45134,0.16437 5.09484,0.32871 1.80784,0.16437 3.45134,0.16437 5.09482,0.32869 0.82175,0 1.47915,-0.16437 2.13654,-0.49304 0.6574,-0.32871 0.98609,-0.9861 0.98609,-1.80784 -0.16437,-1.31479 -0.82173,-1.97219 -2.30088,-2.13654 -1.47915,-0.16437 -2.79394,-0.49304 -4.27309,-0.82175 -1.47915,-0.32869 -2.13654,-1.31479 -2.30088,-3.12263 0.32869,-1.80786 1.47913,-4.43744 3.61567,-7.72443 2.13654,-3.28698 3.61569,-5.75222 4.60178,-7.06701 h 20.37932 c 0.16437,2.13654 0.16437,4.27307 0.32871,6.40961 0.16437,2.13654 0.16437,4.27309 0.16437,6.40963 -0.16437,2.95827 -0.82173,4.76613 -2.30088,5.25917 -1.47915,0.49304 -2.95829,0.82175 -4.27309,0.82175 -1.47915,0 -2.30088,0.98609 -2.30088,2.46523 0,0.6574 0.16437,1.15044 0.6574,1.47915 0.49304,0.32869 0.98609,0.32869 1.64348,0.32869 2.79394,0 5.58788,-0.16437 8.38182,-0.32869 2.79392,-0.16437 5.58786,-0.32871 8.3818,-0.32871 1.80784,0 3.78005,0.16437 5.58788,0.16437 1.80784,0.16437 3.78003,0.16437 5.58786,0.16437 0.82175,0 1.6435,-0.16437 2.13654,-0.32871 0.6574,-0.32869 0.9861,-0.98609 0.9861,-1.80784 l -4e-5,-4e-5 z m -25.14545,-25.96718 h -16.92796 l 16.10623,-23.50194 z m -142.8195,-38.12904 c 0,-0.6574 -0.16437,-1.15044 -0.6574,-1.47913 -0.32869,-0.32871 -0.82175,-0.49306 -1.47915,-0.49306 -2.13654,0 -4.27307,0 -6.40961,0.16437 -2.13654,0.16437 -4.27309,0.16437 -6.40963,0.16437 -1.15044,0 -2.79394,-0.16437 -5.09482,-0.16437 -2.3009,0 -3.78003,0.16437 -4.60178,0.82175 -0.16437,0.16437 -0.32871,0.49304 -0.32871,0.6574 -0.16437,0.32869 -0.32869,0.49304 -0.32869,0.6574 l -27.93939,42.23776 -1.15044,-41.58036 c 0,-0.82175 0,-1.47915 -0.16437,-1.97219 -0.16437,-0.6574 -0.6574,-0.82175 -1.47913,-0.9861 -2.3009,0 -4.76613,0 -7.06703,0.16437 h -7.06701 c -1.31479,0 -2.62961,-0.16437 -3.9444,-0.16437 -1.31479,-0.16437 -2.62959,-0.16437 -3.94438,-0.16437 -0.82173,0 -1.64348,0.16437 -2.46523,0.32869 -0.82175,0.32871 -1.15044,0.82175 -1.31479,1.80784 0.32869,1.6435 1.6435,2.46525 3.78003,2.3009 2.3009,0 3.45134,0.82175 3.78005,2.3009 0,1.15044 -0.32871,2.30088 -0.6574,3.45132 -0.49306,1.15046 -0.82175,2.3009 -1.15046,3.287 -2.46523,6.90265 -4.93046,13.64098 -7.39572,20.54365 -2.46523,6.90267 -4.93046,13.64099 -7.56005,20.54365 -0.9861,2.95829 -1.97219,4.93048 -2.95829,6.08092 -0.98609,1.15046 -2.95827,1.97219 -6.08092,2.46525 -0.82175,0.16437 -1.64348,0.32869 -2.30088,0.82173 -0.6574,0.32871 -0.9861,0.9861 -0.9861,1.97219 0,0.82175 0.32871,1.31479 0.82175,1.6435 0.49304,0.16437 1.15044,0.32869 1.97219,0.32869 1.80784,0 3.61569,0 5.42353,-0.16437 1.80784,-0.16437 3.61569,-0.16437 5.42353,-0.16437 1.64348,0 3.28698,0.16437 4.93048,0.32869 1.64348,0.16437 3.28696,0.16437 4.93046,0.32871 0.82175,0 1.47915,-0.16437 2.13654,-0.6574 0.6574,-0.32871 0.98609,-0.9861 1.15044,-1.80784 -0.16437,-1.47915 -0.82175,-2.13654 -2.30088,-2.3009 -1.47915,-0.16437 -2.95829,-0.32869 -4.43744,-0.6574 -1.47913,-0.32869 -2.30088,-1.64348 -2.30088,-3.94438 0.16435,-3.12263 1.31479,-7.88876 3.45132,-14.29839 2.13654,-6.24526 4.27309,-12.49054 6.73832,-18.40711 2.3009,-5.91659 3.9444,-9.86097 4.76613,-11.99749 l 1.15046,48.31868 c 0,1.47913 0.16437,2.62959 0.49304,3.61567 0.32869,0.82175 1.31479,1.31479 2.95827,1.31479 1.6435,0 2.95829,-0.6574 3.9444,-1.80784 0.98609,-1.15044 1.80784,-2.3009 2.62959,-3.61569 l 32.54114,-47.82562 -10.6827,40.4299 c -0.32869,1.80786 -0.82175,3.45134 -1.47915,5.25917 -0.6574,1.80786 -1.97219,2.79394 -3.78003,3.287 -1.15044,0 -2.3009,0.32869 -3.61569,0.49304 -1.31479,0.32869 -2.13652,1.15044 -2.30088,2.46523 0,0.82175 0.32869,1.31479 0.82175,1.6435 0.49304,0.32869 1.15044,0.49304 1.80784,0.49304 2.30088,0 4.76613,-0.16437 7.06701,-0.32871 2.3009,-0.16437 4.76613,-0.32869 7.06703,-0.32869 2.46523,0 4.93046,0.16437 7.23136,0.32869 2.46523,0.16437 4.93048,0.32871 7.23136,0.32871 0.9861,0 1.6435,-0.16437 2.46525,-0.49304 0.6574,-0.32871 1.15044,-0.9861 1.15044,-1.97219 -0.16437,-1.15046 -0.6574,-1.97219 -1.80784,-2.13654 -1.15046,-0.16437 -2.3009,-0.49304 -3.45134,-0.82175 -1.15046,-0.32869 -1.80786,-1.31479 -1.80786,-3.12263 0,-1.15046 0.16437,-2.46525 0.49306,-3.78005 0.32869,-1.31479 0.49304,-2.46523 0.82173,-3.61567 l 10.35401,-41.58036 c 0.32871,-1.80786 0.82175,-3.28698 1.47915,-4.27309 0.6574,-0.98609 1.80784,-1.6435 3.78003,-1.97219 0.9861,0 1.97219,-0.32871 2.95829,-0.6574 0.49304,0.32869 1.15044,-0.49304 1.15044,-1.6435 l 2e-5,8e-5 z"
         fill="#306230"
         id="path4" />
      <path
         stroke="null"
         d="m 726.31501,288.58303 c -16.76362,-0.49304 -13.96968,32.37681 -9.36791,41.08732 1.97219,3.78005 4.76613,5.75224 9.36791,5.75224 4.60178,0 7.88876,-1.80786 10.0253,-5.58788 4.76613,-8.38182 6.90267,-40.75861 -10.0253,-41.25167 z m 10.84705,32.54116 c -0.32871,2.3009 -1.15044,5.58788 -2.3009,7.72441 -1.80784,3.287 -4.60178,4.6018 -8.3818,4.6018 -3.78005,0 -5.91657,-1.47915 -7.72443,-4.76613 -1.15044,-2.13654 -1.80784,-5.25917 -2.30088,-7.56007 -0.6574,-3.61569 -0.9861,-7.39572 -0.9861,-11.01141 0,-5.58786 0.9861,-14.79143 6.08092,-18.24275 1.47915,-0.9861 3.12263,-1.31481 4.93048,-1.31481 9.20355,0.16437 11.17574,12.16185 11.50445,19.39323 0,3.61567 -0.32871,7.39572 -0.82175,11.17574 z"
         fill="#306230"
         id="path5" />
      <path
         stroke="null"
         d="m 744.88647,287.1039 c -4.43742,-6.40963 -10.6827,-9.53226 -18.40711,-9.53226 -7.72443,0 -13.80535,3.12263 -18.24277,9.53226 -5.09482,7.06701 -6.40961,16.27056 -6.40961,24.98107 0,8.54618 1.47913,17.74973 6.40961,24.98109 4.43742,6.24528 10.6827,9.53226 18.24277,9.53226 7.72441,0 13.80533,-3.12263 18.24277,-9.36791 5.09482,-7.06703 6.40961,-16.10623 6.40961,-24.48805 0.16437,-8.87484 -1.15044,-18.40711 -6.24528,-25.63847 z m -1.64348,48.81172 c -4.10873,5.75222 -9.69662,8.54616 -16.76362,8.54616 -7.06703,0 -12.65489,-2.95827 -16.76362,-8.71051 -4.10873,-5.75222 -6.08092,-13.80533 -6.08092,-23.83063 0,-10.0253 1.97219,-18.07842 6.08092,-23.83065 4.10873,-5.75222 9.6966,-8.71051 16.76362,-8.71051 7.23136,0 12.81924,2.95829 16.76362,8.71051 3.94438,5.75224 5.91657,13.96968 5.91657,24.32369 0.16437,10.0253 -1.80784,17.91406 -5.91657,23.50194 z"
         fill="#306230"
         id="path6" />
      <path
         stroke="null"
         d="m 746.52998,285.95345 c -4.76613,-6.90265 -11.50445,-10.35399 -19.88625,-10.35399 -8.38182,0 -15.12014,3.45134 -19.88627,10.18966 -5.25917,7.39572 -6.73832,17.09231 -6.73832,25.96718 0,9.0392 1.47915,18.57146 6.73832,26.13153 4.76613,6.73832 11.50445,10.35401 19.88627,10.35401 8.21745,0 14.95577,-3.45134 19.7219,-10.18966 5.25917,-7.39572 6.73832,-16.76362 6.73832,-25.63849 0,-8.87487 -1.31479,-18.90017 -6.57397,-26.46024 z m -1.80784,51.11262 c -4.43744,6.24528 -10.6827,9.36791 -18.24277,9.36791 -7.72443,0 -13.80535,-3.12263 -18.24277,-9.53226 -5.09482,-7.23136 -6.40961,-16.43492 -6.40961,-24.98107 0,-8.54618 1.47913,-17.74973 6.40961,-24.98109 4.43742,-6.24528 10.6827,-9.53226 18.24277,-9.53226 7.72441,0 13.96968,3.12263 18.40711,9.53226 5.09484,7.23136 6.40963,16.76362 6.40963,25.47413 0,8.54616 -1.47915,17.58537 -6.57397,24.65238 z"
         fill="#306230"
         id="path7" />
      <path
         stroke="null"
         d="m 726.31501,290.39089 c -1.80784,0 -3.45134,0.32869 -4.93048,1.31479 -5.09482,3.45134 -6.08092,12.65489 -6.08092,18.24277 0,3.61567 0.32871,7.39572 0.9861,11.01139 0.49304,2.3009 1.15044,5.42353 2.3009,7.56007 1.80784,3.28698 3.94438,4.76613 7.72441,4.76613 3.78003,0 6.57397,-1.31479 8.38182,-4.60178 1.15044,-2.13654 1.97219,-5.25917 2.30088,-7.72443 0.6574,-3.78003 0.82175,-7.56007 0.6574,-11.3401 -0.16437,-7.06701 -2.13654,-18.90017 -11.3401,-19.22886 z m 6.90267,36.32119 c -1.6435,3.45132 -4.27309,4.43742 -6.73832,4.43742 -2.62959,0 -4.93048,-0.49304 -6.57397,-4.27309 -1.47915,-3.45132 -2.46525,-9.86095 -2.46525,-14.95577 0,-6.24528 0.6574,-12.3262 2.79394,-15.77754 1.47915,-2.46523 4.10873,-3.45134 6.08092,-3.45134 2.13654,0 4.60178,1.47915 6.08092,4.10873 1.97219,3.45134 2.79394,9.03922 2.79394,15.12014 0.16437,5.42353 -0.32871,11.3401 -1.97219,14.79143 z"
         fill="#306230"
         id="path8" />
      <path
         stroke="null"
         d="m 743.40735,288.08999 c -3.9444,-5.75222 -9.53226,-8.71051 -16.76362,-8.71051 -7.06703,0 -12.65491,2.95829 -16.76362,8.71051 -4.10873,5.75224 -6.08092,13.64099 -6.08092,23.83065 0,10.18964 1.97219,18.07842 6.08092,23.83063 4.10871,5.75224 9.6966,8.71051 16.76362,8.71051 7.06701,0 12.65489,-2.79394 16.76362,-8.54616 4.10871,-5.75224 6.08092,-13.47664 6.08092,-23.50194 -0.16437,-10.35401 -2.13654,-18.57146 -6.08092,-24.32369 z m -6.90267,41.58036 c -2.13654,3.78005 -5.42353,5.58788 -10.0253,5.58788 -4.60177,0 -7.39572,-1.97219 -9.36791,-5.75224 -4.60178,-8.54616 -7.39572,-41.41601 9.36791,-41.0873 16.76362,0.6574 14.62708,33.03419 10.0253,41.25165 z"
         fill="#306230"
         id="path9" />
      <path
         stroke="null"
         d="m 666.32753,288.58303 c -16.76362,-0.49304 -13.96968,32.37681 -9.36791,41.08732 1.97219,3.78005 4.76613,5.75224 9.36791,5.75224 4.6018,0 7.88878,-1.80786 10.0253,-5.58788 4.76613,-8.38182 6.73832,-40.75861 -10.0253,-41.25167 z m 10.6827,32.54116 c -0.32869,2.3009 -1.15044,5.58788 -2.30088,7.72441 -1.80784,3.287 -4.60178,4.6018 -8.38182,4.6018 h -0.6574 c -3.28698,-0.16437 -5.25917,-1.6435 -6.90265,-4.76613 -1.15046,-2.13654 -1.80786,-5.25917 -2.3009,-7.56007 -0.6574,-3.61569 -0.98609,-7.39572 -0.98609,-11.01141 0,-5.58786 0.98609,-14.79143 6.08092,-18.24275 1.47913,-0.9861 3.12263,-1.31481 4.93046,-1.31481 9.20355,0.32871 11.17576,12.16185 11.50445,19.39323 0,3.61567 -0.32869,7.39572 -0.9861,11.17574 z"
         fill="#306230"
         id="path10" />
      <path
         stroke="null"
         d="m 684.89901,287.1039 c -4.43744,-6.40963 -10.6827,-9.53226 -18.40713,-9.53226 -7.72441,0 -13.80533,3.12263 -18.24277,9.53226 -5.09482,7.06701 -6.40961,16.27056 -6.40961,24.98107 0,8.54618 1.47915,17.74973 6.40961,24.98109 4.43744,6.24528 10.6827,9.53226 18.24277,9.53226 7.72443,0 13.80535,-3.12263 18.24277,-9.36791 5.09482,-7.06703 6.40961,-16.10623 6.40961,-24.48805 0,-8.87484 -1.31479,-18.40711 -6.24526,-25.63847 z m -1.6435,48.81172 c -4.10873,5.75222 -9.6966,8.54616 -16.76362,8.54616 -7.06701,0 -12.65489,-2.95827 -16.76362,-8.71051 -4.10873,-5.75222 -6.08092,-13.80533 -6.08092,-23.83063 0,-10.0253 1.97219,-18.07842 6.08092,-23.83065 4.10873,-5.75222 9.69662,-8.71051 16.76362,-8.71051 7.23136,0 12.81924,2.95829 16.76362,8.71051 3.94438,5.75224 5.91657,13.96968 5.91657,24.32369 0.16437,10.0253 -1.97219,17.91406 -5.91657,23.50194 z"
         fill="#306230"
         id="path11" />
      <path
         stroke="null"
         d="m 666.32753,290.39089 c -1.80784,0 -3.45132,0.32869 -4.93046,1.31479 -5.09484,3.45134 -6.08092,12.65489 -6.08092,18.24277 0,3.61567 0.32869,7.39572 0.98609,11.01139 0.49306,2.3009 1.15046,5.42353 2.3009,7.56007 1.64348,3.12263 3.61569,4.60178 6.90267,4.76613 h 0.6574 c 3.78003,0 6.57397,-1.31479 8.3818,-4.60178 1.15044,-2.13654 1.97219,-5.25917 2.3009,-7.72443 0.6574,-3.78003 0.82175,-7.56007 0.6574,-11.3401 0,-7.06701 -1.97219,-18.90017 -11.17576,-19.22886 z m 7.06703,36.32119 c -1.6435,3.45132 -4.27309,4.43742 -6.73832,4.43742 -2.62959,0 -4.93048,-0.49304 -6.57397,-4.27309 -1.47915,-3.45132 -2.46525,-9.86095 -2.46525,-14.95577 0,-6.24528 0.6574,-12.3262 2.79394,-15.77754 1.47915,-2.46523 4.10873,-3.45134 6.08092,-3.45134 2.13654,0 4.60178,1.47915 6.08092,4.10873 1.97219,3.45134 2.79394,9.03922 2.79394,15.12014 0.16437,5.42353 -0.32871,11.3401 -1.97219,14.79143 z"
         fill="#306230"
         id="path12" />
      <path
         stroke="null"
         d="m 686.37815,285.95345 c -4.76613,-6.90265 -11.50445,-10.35399 -19.88627,-10.35399 -8.3818,0 -15.12012,3.45134 -19.88625,10.18966 -5.25917,7.39572 -6.73832,17.09231 -6.73832,25.96718 0,9.0392 1.47915,18.57146 6.73832,26.13153 4.76613,6.73832 11.50445,10.35401 19.88625,10.35401 8.21747,0 14.95579,-3.45134 19.72192,-10.18966 5.25917,-7.39572 6.73832,-16.76362 6.73832,-25.63849 0.16437,-8.87486 -1.31479,-18.90017 -6.57397,-26.46024 z m -1.6435,51.11262 c -4.43742,6.24528 -10.6827,9.36791 -18.24277,9.36791 -7.72441,0 -13.80533,-3.12263 -18.24277,-9.53226 -5.09482,-7.23136 -6.40961,-16.43492 -6.40961,-24.98107 0,-8.54618 1.47915,-17.74973 6.40961,-24.98109 4.43744,-6.24528 10.6827,-9.53226 18.24277,-9.53226 7.72443,0 13.96968,3.12263 18.40713,9.53226 5.09482,7.23136 6.40961,16.76362 6.40961,25.47413 -0.16437,8.54616 -1.47915,17.58537 -6.57397,24.65238 z"
         fill="#306230"
         id="path13" />
      <path
         stroke="null"
         d="m 683.25551,288.08999 c -3.94438,-5.75222 -9.53226,-8.71051 -16.76362,-8.71051 -7.06701,0 -12.65489,2.95829 -16.76362,8.71051 -4.10873,5.75224 -6.08092,13.64099 -6.08092,23.83065 0,10.18964 1.97219,18.07842 6.08092,23.83063 4.10873,5.75224 9.69662,8.71051 16.76362,8.71051 7.06703,0 12.65489,-2.79394 16.76362,-8.54616 4.10873,-5.75224 6.08092,-13.47664 6.08092,-23.50194 0,-10.35401 -1.97219,-18.57146 -6.08092,-24.32369 z m -6.90267,41.58036 c -2.13652,3.78005 -5.42351,5.58788 -10.0253,5.58788 -4.60178,0 -7.39572,-1.97219 -9.36791,-5.75224 -4.60178,-8.54616 -7.39572,-41.41601 9.36791,-41.0873 16.76362,0.6574 14.79143,33.03419 10.0253,41.25165 z"
         fill="#306230"
         id="path14" />
      <path
         stroke="null"
         d="m 607.98354,310.93454 c -6.90265,-0.32869 -12.65489,5.09484 -12.98358,11.99749 -0.32871,6.90267 5.09482,12.65489 11.99749,12.9836 6.90265,0.32869 12.65489,-5.09484 12.98358,-11.99749 0.16437,-6.90267 -5.09482,-12.65489 -11.99749,-12.9836 z m -0.98609,23.33759 c -5.91657,-0.16437 -10.51837,-5.25917 -10.35401,-11.17574 0.16437,-5.91657 5.25917,-10.51835 11.17576,-10.35401 5.91657,0.16437 10.51835,5.25919 10.35399,11.17576 -0.16437,5.91657 -5.25917,10.51835 -11.17574,10.35399 z"
         fill="#306230"
         id="path15" />
      <path
         stroke="null"
         d="m 623.43237,306.49711 c -2.62959,-2.3009 -5.75222,-4.10873 -9.0392,-5.09484 -1.97219,-0.6574 -4.10873,-0.98609 -6.24528,-1.15044 h -3.28698 c 1.15044,-2.46523 2.62959,-4.93048 3.94438,-7.23136 1.31479,-2.13654 2.62959,-4.10873 3.94438,-6.08092 1.15044,-1.6435 2.3009,-3.12263 3.61569,-4.60178 l 2.13654,-2.3009 -12.9836,-2.13654 -0.6574,0.6574 c -2.46523,2.62959 -4.76613,5.75224 -6.73832,8.71051 -2.62959,3.94438 -4.93048,8.05311 -7.06701,12.3262 -3.287,6.57397 -7.72443,17.09233 -7.06703,24.48805 0.32871,12.16183 10.0253,22.0228 22.18715,22.51584 3.12263,0.16437 6.24528,-0.32871 9.03922,-1.47915 2.79392,-0.98609 5.42351,-2.62959 7.56005,-4.60178 4.43744,-4.10873 7.06703,-9.69662 7.39572,-15.77752 0,-0.6574 0.16437,-1.15046 0.16437,-1.80786 0.16437,-3.45134 -0.49304,-6.73832 -1.97219,-9.6966 -0.9861,-2.46525 -2.79394,-4.76613 -4.93048,-6.73832 h -2e-5 z m 5.25917,18.07842 c -0.6574,11.66879 -10.51835,20.87236 -22.35149,20.3793 -11.3401,-0.49304 -20.37932,-9.6966 -20.54367,-20.87234 -1.15044,-12.16185 12.9836,-36.6499 20.37932,-44.20997 l 9.03922,1.47915 c -4.10873,4.60178 -10.51837,14.95579 -13.31231,21.3654 1.15046,-0.32869 2.3009,-0.49304 3.45134,-0.6574 0.9861,-0.16437 1.80786,-0.16437 2.79394,0 1.97219,0.16437 3.94438,0.49306 5.75222,0.9861 3.12265,0.98609 6.08092,2.62959 8.38182,4.76613 4.27309,3.78003 6.73832,9.20355 6.57397,15.12012 0,0.6574 0,1.15046 -0.16437,1.6435 h 2e-5 z"
         fill="#306230"
         id="path16" />
      <path
         stroke="null"
         d="m 630.17069,312.41368 c -1.31479,-2.79394 -3.28698,-5.25917 -5.58786,-7.39572 -2.79394,-2.46523 -6.08092,-4.43742 -9.69662,-5.58788 -2.13654,-0.6574 -4.43742,-1.15044 -6.73832,-1.15044 h -0.32869 c 0.82173,-1.47915 1.64348,-2.95829 2.46523,-4.27309 1.15044,-1.97219 2.46523,-3.94438 3.94438,-5.91657 1.15044,-1.47915 2.13654,-3.12263 3.45134,-4.43742 l 4.27309,-4.93048 -17.42104,-2.79394 -1.31479,1.31479 c -2.62959,2.62959 -4.93046,5.91657 -6.90265,9.03922 -2.62959,3.94438 -5.09484,8.21747 -7.23138,12.49054 -3.45132,7.06703 -7.88876,17.58537 -7.23136,25.47413 0.49306,13.14795 10.84705,23.6663 23.99499,24.15934 3.287,0.16437 6.73832,-0.32869 9.86097,-1.64348 2.95827,-1.15046 5.75222,-2.79394 8.21747,-5.09484 4.76611,-4.43742 7.72441,-10.51835 8.05311,-16.92796 0,-0.6574 0.16437,-1.31479 0.16437,-1.80786 0.49306,-3.45134 -0.32869,-7.06701 -1.97219,-10.51835 h -4e-5 z m 0.32871,12.3262 c -0.32871,6.0809 -2.95829,11.66879 -7.39572,15.77752 -2.13654,1.97219 -4.76613,3.61569 -7.56007,4.60178 -2.95829,1.15044 -5.91657,1.6435 -9.0392,1.47915 -12.16185,-0.49304 -21.85846,-10.35401 -22.18715,-22.51584 -0.6574,-7.56007 3.78003,-17.91408 7.06701,-24.48805 2.13654,-4.27309 4.43742,-8.38182 7.06703,-12.3262 1.97219,-2.95827 4.27307,-6.24526 6.7383,-8.71051 l 0.6574,-0.6574 12.9836,2.13654 -2.13654,2.3009 c -1.31479,1.47915 -2.46523,3.12263 -3.61567,4.60178 -1.31479,1.97219 -2.62959,3.94438 -3.94438,6.08092 -1.47915,2.30088 -2.79394,4.76613 -3.9444,7.23136 h 0.32871 c 0.9861,-0.16437 1.97219,-0.16437 2.95829,0 2.13652,0.16437 4.27307,0.49304 6.24526,1.15044 3.28698,0.9861 6.40963,2.79394 9.03922,5.09484 2.13654,1.97219 3.78003,4.27307 5.09482,6.73832 1.47915,2.95827 2.13654,6.40961 1.97219,9.6966 -0.32869,0.6574 -0.32869,1.31479 -0.32869,1.80786 z"
         fill="#306230"
         id="path17" />
      <path
         stroke="null"
         d="m 613.90011,303.04578 c -1.80784,-0.6574 -3.78003,-0.9861 -5.75222,-0.9861 h -2.79394 c -1.15044,0.16437 -2.30088,0.32871 -3.45134,0.6574 2.62959,-6.57397 9.20357,-16.76362 13.31231,-21.3654 l -9.03922,-1.47915 c -7.39572,7.72443 -21.52975,32.04812 -20.37932,44.20997 0.32871,11.17574 9.20357,20.3793 20.54367,20.87234 11.83314,0.49306 21.69409,-8.54616 22.35149,-20.3793 0,-0.49304 0.16437,-1.15044 0.16437,-1.6435 0.16437,-5.91657 -2.30088,-11.3401 -6.57397,-15.12012 -2.3009,-2.13654 -5.09482,-3.78005 -8.38182,-4.76613 h -2e-5 z m -7.06701,32.86985 c -6.90267,-0.32871 -12.3262,-6.08092 -11.99749,-12.9836 0.32869,-6.90265 6.08092,-12.32618 12.9836,-11.99749 6.90265,0.32871 12.32618,6.08092 11.99749,12.9836 -0.16437,6.90265 -6.08092,12.32618 -12.9836,11.99749 z"
         fill="#306230"
         id="path18" />
      <path
         stroke="null"
         d="m 607.81921,312.74237 c -5.91659,-0.16437 -11.01141,4.43744 -11.17576,10.35401 -0.16437,5.91657 4.43744,11.01141 10.35401,11.17574 5.91657,0.16437 11.01139,-4.43742 11.17574,-10.35399 0.32871,-5.91657 -4.43742,-11.01141 -10.35399,-11.17576 z m -0.49306,19.39323 c -4.76613,0 -8.54616,-3.78005 -8.54616,-8.54618 0,-4.76613 3.78003,-8.54616 8.54616,-8.54616 4.76613,0 8.54618,3.78003 8.54618,8.54616 0,4.76613 -3.9444,8.54618 -8.54618,8.54618 z"
         fill="#306230"
         id="path19" />
    </g>
  </g>
</svg>
