<?xml version="1.0" encoding="UTF-8" standalone="no"?>
<!-- Created with Inkscape (http://www.inkscape.org/) -->

<svg
   version="1.1"
   id="svg1"
   width="361.76083"
   height="79.573975"
   viewBox="0 0 361.76083 79.573975"
   sodipodi:docname="logo.png"
   xmlns:inkscape="http://www.inkscape.org/namespaces/inkscape"
   xmlns:sodipodi="http://sodipodi.sourceforge.net/DTD/sodipodi-0.dtd"
   xmlns="http://www.w3.org/2000/svg"
   xmlns:svg="http://www.w3.org/2000/svg">
  <defs
     id="defs1" />
  <sodipodi:namedview
     id="namedview1"
     pagecolor="#306230"
     bordercolor="#000000"
     borderopacity="0.25"
     inkscape:showpageshadow="2"
     inkscape:pageopacity="0.0"
     inkscape:pagecheckerboard="0"
     inkscape:deskcolor="#d1d1d1" />
  <g
     inkscape:groupmode="layer"
     inkscape:label="Image"
     id="g1"
     transform="translate(-6.1313248,-5.1988482)">
    <g
       id="g6"
       style="fill:#306230">
      <path
         style="fill:#306230"
         d="m 27.128606,83.65496 c -1.451066,-1.74843 -0.79567,-4.856456 1.41012,-6.6871 2.521158,-2.092375 1.663899,-6.218089 -5.637849,-27.133173 -9.14702,-26.200672 -9.353221,-26.672399 -13.5350384,-30.96424 -2.4556718,-2.520281 -3.4340222,-4.354015 -3.2011733,-6 C 6.4938586,10.543413 6.7014582,10.499253 17.5,10.459219 23.55,10.436789 31.532593,9.824261 35.239095,9.098046 38.945598,8.37183 42.658098,8.038558 43.489095,8.357442 45.714277,9.211324 45.332576,12.160659 42.5,16 40.76252,18.355022 40,20.677183 40,23.613446 40,29.110698 51.679224,63 53.573735,63 c 1.465659,0 1.644347,-0.56828 6.917605,-22 4.172189,-16.956728 4.035386,-19.964707 -1.158425,-25.471123 -3.050413,-3.23401 -3.343515,-3.946848 -2.124208,-5.166155 1.165585,-1.165585 2.302062,-1.209603 6.458624,-0.250153 4.271902,0.986073 5.901705,0.894591 10.645584,-0.597542 9.947324,-3.128817 12.032398,-0.07923 5.318781,7.779142 -3.981759,4.660699 -5.257131,7.438003 -9.998863,21.773961 -2.989235,9.037529 -5.752814,18.991141 -6.141288,22.119138 -0.633598,5.101744 -0.376584,6.40263 2.496411,12.635673 4.438332,9.629079 4.032784,10.803369 -3.524086,10.204179 -9.253637,-0.73372 -24.484887,-0.54585 -29.502646,0.36391 -3.610129,0.65454 -4.8035,0.50394 -5.832618,-0.73607 z"
         id="path1" />
      <path
         style="fill:#306230"
         d="M 313.5,82.65203 C 289.18331,74.612149 277.62806,50.350634 287.7815,28.653221 299.76287,3.049624 335.98583,-2.918927 356.27254,17.367776 c 19.62915,19.629154 13.60167,50.86893 -12.14916,62.967754 -5.82487,2.73676 -7.82897,3.14371 -16.62338,3.37548 -6.30273,0.16611 -11.47891,-0.22543 -14,-1.05898 z m 20.29357,-10.131782 c 5.01505,-4.219886 5.34436,-6.220009 5.01179,-30.439739 L 338.5,19.842526 334.76469,16.421263 c -3.03363,-2.778573 -4.53645,-3.420561 -8,-3.417525 -5.47484,0.0048 -10.46558,3.036138 -12.32487,7.48604 -2.10423,5.036141 -2.07176,43.387512 0.0402,47.471586 3.76743,7.285404 13.37742,9.553804 19.31355,4.558884 z"
         id="path5" />
      <path
         style="fill:#306230"
         d="m 88.368306,82.51741 c -0.338532,-0.8822 1.100763,-3.379461 3.554164,-6.166671 2.267698,-2.576242 4.36386,-5.643388 4.658137,-6.81588 0.294277,-1.172492 0.396526,-11.599992 0.227221,-23.172222 L 96.5,25.322219 93.699863,21.41111 C 92.159787,19.259999 90.001788,16.352726 88.904308,14.950502 84.71699,9.600464 89.42386,6.789678 97.917843,9.56792 c 6.294587,2.058853 18.259647,1.507952 24.808237,-1.142233 3.43949,-1.391944 4.50973,-1.474872 5.75,-0.445537 2.52866,2.098597 1.74233,5.292322 -2.59459,10.538181 -2.26518,2.739918 -4.51518,6.023464 -5,7.296769 C 120.39667,27.088404 120,36.218832 120,46.104938 c 0,19.46068 0.42165,21.315926 6.72675,29.597576 1.34101,1.761382 2.27732,4.011382 2.08071,4.999996 -0.42127,2.11825 -2.8686,2.18607 -13.54314,0.37531 -6.51524,-1.105203 -8.0526,-1.02083 -15.440392,0.84738 -9.775185,2.47194 -10.715644,2.52056 -11.455622,0.59221 z"
         id="path4" />
      <path
         style="fill:#306230"
         d="M 240,83.90202 C 226.78469,81.61228 215.24979,73.315398 209.74993,62.143605 206.6297,55.805519 206.5,55.062302 206.5,43.521027 c 0,-10.9499 0.2389,-12.530735 2.6811,-17.741365 3.52535,-7.521624 10.36203,-14.073338 17.59792,-16.864411 8.58717,-3.312294 21.1338,-3.744014 30.05534,-1.034181 9.3702,2.846111 13.67032,2.734192 18.30317,-0.476378 2.05977,-1.427419 4.22145,-2.300862 4.80375,-1.940983 1.55678,0.962145 1.28903,7.504103 -0.52504,12.828106 C 277.12902,25.004415 272.23467,29 266.29934,29 c -4.47319,0 -4.89659,-0.272746 -12.41895,-8 -6.37132,-6.544865 -8.34196,-8 -10.83413,-8 -7.24151,0 -10.55276,9.117114 -10.53252,29 0.0208,20.43148 3.84709,30.55306 12.83372,33.948683 7.03129,2.656797 14.92527,-3.195554 14.92527,-11.065138 0,-5.554258 -2.55479,-8.103586 -7.7151,-7.69861 -2.952,0.231671 -4.08927,-0.08197 -4.29664,-1.184935 -0.46788,-2.48859 3.39953,-7.746968 7.87694,-10.709978 5.4184,-3.585724 14.746,-3.971587 19.09754,-0.790022 6.37184,4.658685 8.52824,15.225218 4.71478,23.102777 C 273.99256,79.909723 256.99135,86.84602 240,83.90202 Z"
         id="path3" />
      <path
         style="fill:#306230"
         d="M 151.5,83.58051 C 136.49655,80.0938 130,74.504938 130,65.084456 c 0,-8.131573 9.90899,-14.445217 19.77702,-12.601192 7.01606,1.311081 7.9042,3.837897 3.22298,9.169517 -3.36798,3.835914 -3.69252,6.107358 -1.48307,10.379952 C 153.49764,75.863005 157.78901,78 163.5,78 c 14.65638,0 21.25587,-16.443617 8.70428,-21.688007 -2.00209,-0.836525 -8.81484,-3.089661 -15.13944,-5.006968 -13.5949,-4.1213 -17.4738,-5.987756 -21.75351,-10.467396 C 131.40802,36.751962 130,33.216204 130,27.5 c 0,-5.716204 1.40802,-9.251962 5.31133,-13.337629 C 141.15219,8.048651 145.3291,6.504486 156,6.51397 c 7.89936,0.007 10.41165,0.418056 14.91078,2.439544 6.4266,2.887523 13.68717,3.195164 17.43607,0.738794 4.83525,-3.168182 5.95737,-2.374392 5.44127,3.849163 C 193.02746,22.714033 187.24932,28.5 178.84983,28.5 c -4.59711,0 -5.28308,-0.324895 -8.44544,-4 -9.94692,-11.559701 -9.87614,-11.501699 -13.99471,-11.468197 -6.94777,0.05652 -9.7391,4.253012 -6.43873,9.680027 2.0784,3.417658 0.0121,2.62214 31.84757,12.260896 14.74357,4.463875 20.1918,10.607044 20.1721,22.745155 -0.0174,10.720201 -7.25636,19.600056 -19.8458,24.344369 -7.27269,2.7407 -22.20187,3.48035 -30.64482,1.51826 z"
         id="path2" />
    </g>
  </g>
</svg>
