<?xml version="1.0" encoding="UTF-8" standalone="no"?>
<!-- Created with Inkscape (http://www.inkscape.org/) -->

<svg
   version="1.1"
   id="svg1"
   width="599.53687"
   height="127.00377"
   viewBox="0 0 599.53687 127.00377"
   sodipodi:docname="logo.png"
   xmlns:inkscape="http://www.inkscape.org/namespaces/inkscape"
   xmlns:sodipodi="http://sodipodi.sourceforge.net/DTD/sodipodi-0.dtd"
   xmlns="http://www.w3.org/2000/svg"
   xmlns:svg="http://www.w3.org/2000/svg">
  <defs
     id="defs1" />
  <sodipodi:namedview
     id="namedview1"
     pagecolor="#306230"
     bordercolor="#000000"
     borderopacity="0.25"
     inkscape:showpageshadow="2"
     inkscape:pageopacity="0.0"
     inkscape:pagecheckerboard="0"
     inkscape:deskcolor="#d1d1d1" />
  <g
     inkscape:groupmode="layer"
     inkscape:label="Image"
     id="g1"
     transform="translate(0.03686085,0.003295)">
    <path
       style="fill:#306230"
       d="M 0.23156957,103.82139 0.5,80.64278 3.3956776,79.868913 C 7.0923035,78.880994 11.85352,74.418038 13.623161,70.282119 17.810711,60.495179 12.243639,47.856142 2.6890051,45.458081 L 0,44.783184 V 22.389945 -0.003295 L 299.48884,0.248353 598.97767,0.5 599.23884,63.750236 599.5,127.00047 299.73157,127.00024 -0.03686085,127 Z M 545.14466,109.03587 C 562.22038,103.7586 575.20657,88.67685 578.19294,70.654655 582.81354,42.770265 559.66616,15.980848 531,16.036315 c -12.94326,0.02504 -22.75695,3.998422 -32.58684,13.193797 -19.47411,18.217074 -20.28161,48.47412 -1.795,67.258458 9.68911,9.84516 20.33193,14.36723 34.0265,14.45765 5.40605,0.0357 10.28164,-0.60665 14.5,-1.91035 z M 520.16838,86.39662 c -14.23987,-7.096029 -17.95832,-26.494701 -7.6654,-39.989412 5.697,-7.469159 19.09617,-10.589451 28.03573,-6.528736 5.08775,2.311065 11.74693,9.793846 13.28527,14.928371 2.8206,9.414326 0.90133,18.951518 -5.21129,25.895827 -7.56401,8.59317 -18.30971,10.74423 -28.44431,5.69395 z M 57.5,63.5 v -45 L 46.75,18.216168 36,17.932337 V 63.5 109.06766 L 46.75,108.78383 57.5,108.5 Z M 126,108.39111 C 126,107.88384 111.86096,92.76397 86.809044,66.481452 L 82.025475,61.462905 102.01274,40.284278 C 113.00573,28.636033 122,18.856879 122,18.552825 122,18.248771 116.26706,18 109.26014,18 H 96.520282 L 78.760141,35.739581 61,53.479163 v 9.000798 9.000798 L 79.74013,90.24038 98.48026,109 h 13.75987 C 119.80806,109 126,108.726 126,108.39111 Z m 100,-0.29874 c 0,-0.4992 -9.86954,-20.9742 -21.9323,-45.500004 L 182.13539,18 H 170.5677 c -6.36224,0 -11.54602,0.3375 -11.51953,0.75 0.0265,0.4125 7.80278,16.1625 17.28064,35 L 193.56128,88 h -18.22346 -18.22347 l 4.53639,-10.25 c 2.49501,-5.6375 6.06928,-13.575874 7.94282,-17.640832 C 171.4671,56.044211 173,52.539824 173,52.321643 c 0,-0.218182 -4.09307,-0.267308 -9.0957,-0.109169 L 154.8086,52.5 l -12.3862,24 c -10.08472,19.54056 -12.38956,24.78969 -12.4043,28.25 L 130,109 h 48 c 28.07683,0 48,-0.37673 48,-0.90763 z M 256,73.399576 V 37.799152 l 12.92795,0.350424 c 14.38983,0.39005 16.62535,1.254497 20.57205,7.954954 1.85526,3.149732 2.02528,5.550925 2.34924,33.178295 l 0.34924,29.782825 10.65076,-0.28282 L 313.5,108.5 V 74.975939 41.451879 l -3.31022,-6.720981 C 306.64367,27.530968 303.3692,24.433051 295.44495,20.781075 290.72525,18.605953 289.1904,18.487051 261.75,18.170811 L 233,17.839478 V 63.419739 109 H 244.5 256 Z M 410,99 V 89 H 380.5 351 l -5.1e-4,-8.25 -5.2e-4,-8.25 H 380.24949 409.5 l 0.28621,-9.75 0.28621,-9.75 H 369.03621 328 v 28 28 h 41 41 z m 72.92431,7.2666 c -1.33337,-1.50336 -10.05276,-10.84086 -19.37642,-20.75 -9.32367,-9.909129 -18.2062,-19.382895 -19.73896,-21.052812 l -2.78684,-3.036212 19.48895,-20.824459 C 471.22997,29.149664 480,19.37846 480,18.889329 480,18.400198 474.49206,18 467.76014,18 H 455.52028 L 437.76014,35.739581 420,53.479163 v 9.545881 9.545882 L 438.31142,90.78546 456.62284,109 h 14.36289 14.3629 z M 410,28 V 18 h -41 -41 v 10 10 h 41 41 z"
       id="path1" />
  </g>
</svg>
