<?xml version="1.0" encoding="UTF-8" standalone="no"?>
<svg
   id="Calque_2"
   data-name="Calque 2"
   viewBox="0 0 226.09 48.220935"
   version="1.1"
   sodipodi:docname="auto-arcade-taito-f3.svg"
   width="226.09"
   height="48.220936"
   inkscape:version="1.3.2 (091e20ef0f, 2023-11-25)"
   xmlns:inkscape="http://www.inkscape.org/namespaces/inkscape"
   xmlns:sodipodi="http://sodipodi.sourceforge.net/DTD/sodipodi-0.dtd"
   xmlns="http://www.w3.org/2000/svg"
   xmlns:svg="http://www.w3.org/2000/svg">
  <defs
     id="defs11" />
  <sodipodi:namedview
     id="namedview11"
     pagecolor="#505050"
     bordercolor="#eeeeee"
     borderopacity="1"
     inkscape:showpageshadow="0"
     inkscape:pageopacity="0"
     inkscape:pagecheckerboard="true"
     inkscape:deskcolor="#505050"
     inkscape:zoom="7.4534297"
     inkscape:cx="78.688607"
     inkscape:cy="46.891165"
     inkscape:window-width="1920"
     inkscape:window-height="1080"
     inkscape:window-x="0"
     inkscape:window-y="0"
     inkscape:window-maximized="1"
     inkscape:current-layer="Calque_2" />
  <g
     id="Calque_1-2"
     data-name="Calque 1"
     style="fill:#306230;fill-opacity:1">
    <g
       id="g11"
       style="fill:#306230;fill-opacity:1">
      <path
         d="m 0,14.53 c 10.59,0 21.17,0 31.76,0.01 0.07,0 0.14,0.05 0.28,0.1 v 6.49 H 20 V 46.57 H 12.28 V 20.99 H 0 v -6.45 z"
         style="fill:#306230;stroke-width:0px;fill-opacity:1"
         id="path1" />
      <path
         d="m 193.98,15.89 c -0.05,0.27 -0.09,0.46 -0.13,0.64 -0.03,0.15 -0.08,0.3 -0.14,0.57 h 8.04 c 0.04,0.31 0.08,0.52 0.11,0.76 h 3.18 c 0.25,-0.85 0.48,-1.68 0.74,-2.58 h 9.86 c -0.36,1.39 -0.71,2.72 -1.07,4.09 0.92,0.54 1.83,1.08 2.91,1.72 h 5.68 c -0.33,1.35 -0.63,2.6 -0.96,3.95 h 3.89 c -0.93,3.46 -1.83,6.81 -2.75,10.22 h -3.12 c -0.39,1.42 -0.77,2.79 -1.17,4.22 h -3.27 c -2.6,2.43 -5.8,3.58 -9.23,4.22 -0.27,0.96 -0.53,1.87 -0.79,2.82 h -10.24 c 0.19,-0.78 0.36,-1.5 0.54,-2.26 -0.67,-0.09 -1.3,-0.17 -1.78,-0.23 -0.46,0.13 -0.79,0.31 -1.12,0.31 -3,0.02 -5.99,0 -8.99,0 -0.07,0 -0.15,-0.05 -0.3,-0.11 0.38,-1.44 0.75,-2.89 1.1,-4.2 -0.61,-1.16 -1.15,-2.21 -1.73,-3.32 h -1.94 c -0.16,0.52 -0.33,1.07 -0.52,1.72 h -9.82 c -0.5,1.8 -0.97,3.51 -1.46,5.29 h -4.96 c -0.25,0.9 -0.49,1.73 -0.74,2.63 h -9.99 c 0.21,-0.88 0.4,-1.71 0.62,-2.63 h -2.36 c 0.64,-2.42 1.24,-4.73 1.88,-7.15 h -3.4 c 0.32,-1.25 0.62,-2.39 0.95,-3.64 h -3.39 c 0.8,-3.47 1.58,-6.82 2.36,-10.23 h 7.02 c 0.42,-1.51 0.82,-2.96 1.24,-4.46 h 5.63 c 0.36,-1.23 0.7,-2.44 1.05,-3.66 h 9.9 c -0.32,1.25 -0.62,2.43 -0.95,3.71 h 8.84 c 0.22,-0.74 0.45,-1.53 0.71,-2.38 h 10.07 z m -7.56,17.33 c -0.98,2.54 -0.82,3.21 1.39,5.83 -0.17,0.8 -0.37,1.68 -0.57,2.65 h 4.52 c 0.15,-0.19 0.33,-0.43 0.41,-0.55 2.44,0.27 4.75,0.52 7.12,0.78 -0.11,0.64 -0.22,1.26 -0.34,1.96 h 4.88 c 0.27,-0.87 0.53,-1.72 0.77,-2.51 3.89,-0.51 7.4,-1.51 10.13,-4.43 h 2.38 c 0.41,-1.47 0.79,-2.87 1.19,-4.3 h 3.12 c 0.44,-1.66 0.87,-3.26 1.33,-5.01 h -3.82 c 0.33,-1.4 0.63,-2.64 0.94,-3.99 h -3.48 c -1.36,-1.42 -3.13,-2 -4.88,-2.54 0.27,-1.18 0.52,-2.23 0.78,-3.38 h -4.51 c -0.27,0.91 -0.52,1.77 -0.8,2.69 -2.9,0.14 -5.77,-0.17 -8.65,0.52 0.06,-0.4 0.11,-0.73 0.17,-1.14 -1.51,-0.38 -2.96,-0.17 -4.44,-0.16 -0.32,1.04 -0.6,1.98 -0.88,2.89 -2.11,1.22 -3.88,2.67 -4.77,5.1 h 10.87 c 0.87,-1.96 2.55,-2.13 4.32,-2.11 0.91,0.01 1.73,0.23 2.07,1.22 -0.73,1.35 -1.97,1.58 -3.28,1.63 -1.11,0.04 -2.22,0 -3.42,0 -0.37,1.44 -0.72,2.8 -1.12,4.34 1.25,0 2.29,-0.1 3.31,0.03 1.04,0.14 2.18,0.22 2.81,1.25 0.24,0.89 -0.23,1.4 -0.88,1.79 -1.03,0.61 -2.16,0.77 -3.34,0.72 -1.52,-0.07 -2.55,-0.89 -2.9,-2.36 -0.07,-0.3 -0.1,-0.6 -0.15,-0.92 h -10.29 z m -32.5,0.82 h 3.41 c -0.34,1.28 -0.64,2.39 -0.93,3.5 -0.29,1.13 -0.58,2.26 -0.91,3.57 h 2.34 c -0.22,0.97 -0.41,1.8 -0.62,2.7 h 4.56 c 0.28,-0.92 0.54,-1.79 0.83,-2.75 h 4.94 c 0.65,-2.37 1.27,-4.65 1.89,-6.88 h 4.94 c -0.09,0.57 -0.17,1.06 -0.26,1.6 h 4.67 c 0.2,-0.57 0.39,-1.11 0.6,-1.72 h 3.84 c 0.35,-1.66 0.98,-3.18 1.19,-4.94 h -13.82 c 0.26,-1.03 0.49,-1.93 0.74,-2.91 h 16.1 c 0.27,-0.92 0.52,-1.74 0.76,-2.58 0.23,-0.03 0.39,-0.04 0.54,-0.06 0.19,-0.03 0.37,-0.08 0.58,-0.13 0.44,-1.67 0.87,-3.29 1.32,-4.97 h -4.69 c -0.26,0.85 -0.49,1.64 -0.74,2.45 h -14.23 c 0.32,-1.26 0.63,-2.47 0.95,-3.75 h -4.5 c -0.33,1.18 -0.67,2.35 -1.03,3.61 h -5.65 c -0.75,2.76 -1.48,5.43 -2.19,8.04 h -2.07 c 0.3,-1.2 0.58,-2.3 0.87,-3.47 h -4.82 c -0.37,1.63 -0.73,3.21 -1.13,4.95 h 3.5 c -0.33,1.26 -0.62,2.37 -0.98,3.74 z"
         style="fill:#306230;stroke-width:0px;fill-opacity:1"
         id="path2" />
      <path
         d="m 125.39,13.49 c 4.95,0.09 10.04,2.03 14.05,6.38 6.06,6.57 5.86,16.18 -0.48,22.48 -4.69,4.65 -10.44,6.41 -16.96,5.73 -4.73,-0.49 -8.85,-2.38 -12.16,-5.79 -7.07,-7.28 -6.23,-18.25 1.85,-24.52 3.76,-2.91 8.05,-4.27 13.7,-4.27 z m -0.97,5.77 c -6.58,0 -11.71,5.11 -11.7,11.64 0.01,6.52 5.18,11.64 11.74,11.62 6.58,-0.02 11.7,-5.12 11.69,-11.66 -0.01,-6.55 -5.12,-11.61 -11.72,-11.61 z"
         style="fill:#306230;stroke-width:0px;fill-opacity:1"
         id="path3" />
      <path
         d="m 73.37,21.1 v -6.51 h 31.92 v 6.54 H 93.27 V 46.57 H 85.56 V 21.09 H 73.37 Z"
         style="fill:#306230;stroke-width:0px;fill-opacity:1"
         id="path4" />
      <path
         d="m 41.66,46.34 c 0.03,-9.11 1.2,-17.75 7.52,-25.16 4.63,8.5 9.15,16.77 13.73,25.16 H 41.67 Z"
         style="fill:#306230;stroke-width:0px;fill-opacity:1"
         id="path5" />
      <path
         d="m 47.56,18.4 c 3.39,-2.63 6.51,-5.54 10.85,-6.45 -3.54,2.65 -6.53,5.83 -9.41,9.28 -0.47,-0.85 -0.9,-1.64 -1.38,-2.52 -1.43,1.09 -2.63,2.3 -3.7,3.62 -5.27,6.51 -8.51,13.94 -9.9,22.18 -0.11,0.66 -0.21,1.32 -0.32,2.04 H 23.01 c 6.57,-12.08 13.11,-24.1 19.74,-36.29 1.66,2.8 3.23,5.44 4.82,8.14 z"
         style="fill:#306230;stroke-width:0px;fill-opacity:1"
         id="path6" />
      <path
         d="M 63.57,14.79 H 71.3 V 46.28 H 63.57 Z"
         style="fill:#306230;stroke-width:0px;fill-opacity:1"
         id="path7" />
      <path
         d="M 61.09,5.86 C 61.1,2.64 63.8,0 67.08,0 c 3.35,0 6.06,2.67 6.05,5.94 -0.02,3.2 -2.74,5.86 -6.01,5.87 -3.34,0 -6.04,-2.65 -6.03,-5.95 z"
         style="fill:#306230;stroke-width:0px;fill-opacity:1"
         id="path8" />
      <path
         d="m 216.83,31.92 h -1.48 c -0.78,-0.55 -1.51,-1.07 -2.21,-1.56 0.89,-0.51 1.89,-1.08 2.92,-1.66 h 1.61 c -0.28,1.08 -0.55,2.1 -0.84,3.22 z"
         style="fill:#306230;stroke-width:0px;fill-opacity:1"
         id="path11" />
    </g>
  </g>
</svg>
