<?xml version="1.0" encoding="UTF-8" standalone="no"?>
<svg
   viewBox="0 0 239.5 119.68778"
   overflow="visible"
   xml:space="preserve"
   version="1.1"
   id="svg4"
   sodipodi:docname="auto-arcade-psikyo.svg"
   width="239.5"
   height="119.68778"
   inkscape:version="1.3.2 (091e20ef0f, 2023-11-25)"
   xmlns:inkscape="http://www.inkscape.org/namespaces/inkscape"
   xmlns:sodipodi="http://sodipodi.sourceforge.net/DTD/sodipodi-0.dtd"
   xmlns="http://www.w3.org/2000/svg"
   xmlns:svg="http://www.w3.org/2000/svg"><defs
     id="defs4" /><sodipodi:namedview
     id="namedview4"
     pagecolor="#505050"
     bordercolor="#eeeeee"
     borderopacity="1"
     inkscape:showpageshadow="0"
     inkscape:pageopacity="0"
     inkscape:pagecheckerboard="true"
     inkscape:deskcolor="#505050"
     inkscape:zoom="0.39643878"
     inkscape:cx="119.81673"
     inkscape:cy="64.322668"
     inkscape:window-width="1920"
     inkscape:window-height="1080"
     inkscape:window-x="0"
     inkscape:window-y="0"
     inkscape:window-maximized="1"
     inkscape:current-layer="svg4" /><path
     fill="#020202"
     d="m 46.5,119.48778 c 0,-1.6 0.1,-3.3 0,-4.9 -0.1,-1.2 0.2,-1.5 1.5,-1.5 10.3,0.1 20.5,0 30.8,0 0.5,0 1.1,0.2 1.1,-0.7 0,-0.9 -0.3,-1 -1.1,-1 H 54.2 c -1.3,-0.2 -2.7,0.5 -3.9,-0.5 -1.8,-1.5 -3,-3.3 -3.6,-5.6 -0.7,-3.2 0.9,-6.799996 4,-9.099996 0.3,-0.2 0.7,-0.2 1,-0.2 h 35.1 c 0.8,0 0.9,0.2 0.9,0.9 -0.1,1.5 -0.1,3 0,4.399996 0.1,0.9 -0.3,1.1 -1.1,1.1 H 58.3 c -0.5,0 -1.1,-0.4 -1.2,0.7 0,0.8 0.2,1.1 1,1.1 h 26.7 c 0.8,0 1.4,0.2 2,0.8 4.6,4.2 4.6,9.7 0.1,13.9 -0.3,0.3 -0.7,0.4 -0.8,0.8 -13.1,-0.2 -26.4,-0.2 -39.6,-0.2 z m 151.1,0 c -2.4,-0.9 -2.8,-2.8 -2.8,-5 v -14 c 0.3,-3.399996 1.6,-4.599996 5.1,-4.599996 h 33.8 c 2.7,0 4.9,0.5 5.8,3.3 v 17.699996 c -0.6,1.3 -1.7,2.2 -3.1,2.6 z m 19.9,-7.3 h 10.3 c 1,0 1.5,-0.3 1.5,-1.5 -0.1,-2 -0.1,-4.1 0,-6.1 0,-1.1 -0.4,-1.5 -1.5,-1.5 h -20.7 c -1.1,0 -1.5,0.5 -1.5,1.5 v 5.9 c 0,1.5 0.2,1.7 1.6,1.7 z"
     id="path1"
     style="fill:#306230;fill-opacity:1" /><path
     fill="#FE2403"
     d="M 0,119.48778 V 96.987784 c 0,-0.9 0.2,-1.2 1.2,-1.2 h 38.9 c 0.6,0 1.1,0.1 1.6,0.6 4.7,4.799996 4.6,12.099996 -0.1,16.899996 -0.5,0.5 -1,0.7 -1.8,0.7 H 12.3 c -1,0 -1.3,0.2 -1.3,1.2 0.1,1.4 0,2.9 0,4.3 z m 23,-16.5 h -9.1 c -2.9,0 -2.9,0 -2.9,2.9 0,0.8 0.2,1 1,1 h 21.8 c 1.2,0 2.1,-0.9 2.1,-2 0,-1.1 -0.9,-1.9 -2.1,-1.9 z"
     id="path2"
     style="fill:#306230;fill-opacity:1" /><path
     fill="#020202"
     d="m 149.7,119.48778 c -0.2,-2 0,-4 -0.1,-6 0,-0.4 0.1,-0.6 0.5,-0.6 h 30.3 c 2.7,0 2.4,-0.6 2.4,-2.8 0,-0.4 -0.2,-0.5 -0.5,-0.5 h -28.7 c -2.7,0 -3.9,-1 -3.9,-3.7 -0.1,-3.1 0,-6.299996 -0.1,-9.399996 0,-0.6 0.2,-0.7 0.8,-0.7 h 8.9 c 0.6,0 0.8,0.2 0.8,0.8 v 5.699996 c 0,0.6 0.2,0.8 0.8,0.8 h 21.2 c 0.7,0 0.9,-0.3 0.8,-0.9 v -5.499996 c 0,-0.7 0.1,-1 0.9,-1 h 8.5 c 0.7,0 0.8,0.3 0.8,0.9 v 18.399996 c 0,2 -0.7,3.5 -2.6,4.4 -13.6,0.1 -27.2,0.1 -40.8,0.1 z m -45.5,0 c 0,-1.2 -0.1,-2.3 -0.1,-3.5 V 96.987784 c 0,-0.9 0.1,-1.2 1.1,-1.2 3,0.1 5.9,0.1 8.9,0 0.9,0 1.1,0.3 1.1,1.1 -0.1,3.499996 0,6.999996 0,10.499996 0.5,0.1 0.7,-0.2 1,-0.4 6,-3.5 12.1,-7.099996 18.1,-10.599996 0.7,-0.4 1.4,-0.6 2.2,-0.6 4.2,0 8.4,0 12.8,0.2 -6.3,3.9 -12.5,7.699996 -18.8,11.599996 0.3,0.5 0.7,0.6 1.1,0.8 5.6,3.4 11.1,6.8 16.7,10.2 0.3,0.2 0.9,0.1 0.7,0.8 h -13.9 l -0.4,-0.4 c -6.3,-3.7 -12.6,-7.3 -18.8,-11 -0.2,-0.1 -0.3,-0.2 -0.6,-0.3 v 11.6 c -3.7,0.2 -7.4,0.2 -11.1,0.2 z m -12.4,0 v -14.4 c 0,-0.8 0.1,-1.2 1.1,-1.1 3.1,0.1 6.1,0 9.2,0 0.6,0 0.8,0.1 0.8,0.8 0,4.9 0,9.9 -0.1,14.8 -3.7,-0.1 -7.4,-0.1 -11,-0.1 z"
     id="path3"
     style="fill:#306230;fill-opacity:1" /><path
     fill="#FE2403"
     d="m 118.3,51.887784 c 0,1.9 -0.7,4.5 -2.1,6.8 -4.3,7.5 -8.6,14.9 -14.3,21.4 -3,3.5 -6.6,6.2 -10.8,8.1 -0.9,0.4 -2.1,1.3 -2.7,0.4 -0.5,-0.7 0.8,-1.5 1.4,-2.1 9.1,-8.1 14.9,-18.4 19.8,-29.2 1,-2.3 2.1,-4.6 2.7,-7 0.8,-3.2 -0.2,-4.3 -3.4,-3.6 -3.1,0.7 -5.8,2.2 -8.1,4.4 -0.4,0.4 -0.8,0.9 -1.3,1.2 -1.1,0.9 -1.8,0.6 -2.1,-0.8 -0.4,-2 -0.1,-4.1 0.4,-6 1.3,-4.9 3.8,-9.1 6.9,-12.9 1.6,-2 3.2,-4 4.6,-6.1 0.5,-0.8 1,-1.7 1.3,-2.7 0.5,-1.8 -0.1,-2.7 -2,-2.7 -2.5,-0.1 -4.7,0.9 -6.7,2.4 -1,0.8 -1.8,1.8 -2.7,2.7 -0.7,0.8 -1.5,1.2 -2.6,0.7 -1,-0.4 -1.2,-1.4 -1.1,-2.3 0.2,-2.2 1,-4.2 1.8,-6.2 2.1,-5 4.6,-9.8999999 7.3,-14.5999999 0.9,-1.6 2.1,-1.8 3.6,-0.6 1,0.8 1.9,1.8 2.8,2.8 0.7,0.8 0.4,1.6 -0.2,2.3 -1.4,1.7999999 -2.9,3.4999999 -4.3,5.2999999 -1.2,1.5 -2.4,3.1 -3.6,4.6 -0.4,0.5 -0.7,1 -1,1.5 -0.2,0.5 -0.9,1.2 -0.4,1.6 0.4,0.3 1,-0.3 1.4,-0.7 2.6,-2.1 5.7,-2.4 8.8,-1.9 1.3,0.2 2.3,1 3.2,2 1.4,1.7 1.3,3.5 0,5.2 -3.3,4.1 -6.3,8.4 -9.1,12.9 -0.9,1.4 -1.6,2.9 -2.1,4.5 -0.1,0.4 -0.3,0.9 0,1.3 0.4,0.4 0.8,0.1 1.2,0 2.3,-0.8 4.6,-0.9 7,-0.7 4.1,0.2 6.5,2.9 6.4,8 z m 37.5,-2.8 c -0.1,-0.1 -0.1,-0.1 -0.2,-0.1 -3.5,-0.6 -3.7,-0.5 -4.5,3 -0.2,0.8 -0.5,1.7 -1.5,1.9 -0.9,0.2 -1.5,-0.5 -1.9,-1.2 -3.2,-4.9 -5.6,-10 -5,-16.1 0,-0.4 0.1,-0.8 0.2,-1.2 0.1,-0.5 0.2,-1.2 0.9,-1.3 0.6,-0.1 1,0.4 1.3,0.9 1.9,3.2 3.8,6.5 4.6,10.3 0.3,1.6 0.3,1.6 1.8,1.1 1.5,-0.5 3.2,-0.8 4.8,-1 1.7,-0.2 3.1,-0.9 4.3,-2.1 2.6,-2.4 4.4,-5.4 6.6,-8 0.5,-0.6 0.3,-1.2 -0.3,-1.7 -1.6,-1.4 -3.3,-1.7 -5.3,-1 -2,0.7 -4,1.7 -5.9,2.7 -1.7,0.9 -3.4,1.2 -5.2,0.5 -0.4,-0.1 -0.8,-0.3 -1.1,-0.5 -0.6,-0.4 -0.5,-1.1 0.2,-1.1 3.8,-0.2 6.5,-2.8 9.6,-4.5 4.8,-2.6 11.5,-1.2 14.8,3.1 1.5,1.9 1.5,3.3 0,5.1 -0.7,0.9 -1.6,1.8 -2.4,2.7 -1.4,1.4 -2.6,3 -3.4,4.9 -0.9,2.3 -2.7,3.5 -5.2,3.6 -1.3,0 -2.6,0.2 -3.9,0.1 -1.2,-0.1 -1.2,0.3 -1.3,1.3 -0.1,3.1 0.6,6.1 1.1,9.1 1.1,6.2 1.3,12.4 1.1,18.7 -0.1,2.1 -0.9,3.8 -2.9,4.9 -0.6,0.3 -1.2,0.8 -1.8,1.2 -1.2,0.7 -1.7,0.5 -1.7,-0.9 0,-0.9 0.1,-1.8 0.1,-2.7 0.1,-2.5 -0.6,-4.9 -2,-7 -0.5,-0.8 -1.1,-1.5 -1.9,-1.9 -0.3,-0.1 -0.7,-0.2 -0.7,-0.6 0,-0.4 0.4,-0.6 0.8,-0.7 1.2,-0.5 2.4,-1 3.5,-1.5 2.1,-0.9 2.4,-1.4 1.8,-3.7 -0.7,-2.7 -1.2,-5.4 -1.1,-8.1 0.4,-2.9 0.9,-5.6 1.7,-8.2 z m -80.2,-6.9 c -1.1,0.9 -2.1,1.8 -3.1,2.6 -3.7,3.2 -7.5,6.4 -11.1,9.6 -1.2,1.1 -2.6,1.6 -4.1,1.6 -1.4,0 -2.7,-0.1 -4.1,-0.2 -0.4,0 -0.9,0 -1.1,-0.5 -0.2,-0.5 0.2,-0.8 0.5,-1.1 1.7,-1.9 3.8,-3.4 5.8,-5 5.5,-4.4 11,-8.7 16.7,-12.8 0.5,-0.3 0.7,-0.7 0.8,-1.2 0.1,-0.9 0.3,-1.7 0.8,-2.5 0.8,-1.1 2,-1.1 2.5,0.2 0.3,0.7 0.7,0.9 1.4,1 1,0.1 2,0.5 2.9,1 1.7,0.8 1.8,1.2 0.7,2.7 -0.7,1 -1.4,2 -2.2,2.8 -1.8,1.9 -2.6,4.1 -2.4,6.8 0.2,2.3 0,4.7 0,7.2 2.4,-1.2 4.2,-3.1 6.7,-4.1 -0.1,1 -0.7,1.4 -1.2,1.9 -1.5,1.5 -3,2.9 -4.5,4.3 -0.7,0.6 -1,1.2 -1,2.2 v 16.7 c 0,1.2 0,2.4 -0.5,3.5 -0.3,0.7 -0.8,1.3 -1.6,1.3 -0.7,0 -1,-0.6 -1.3,-1.1 -1.1,-2 -1.8,-4.2 -2.2,-6.4 -0.1,-0.5 -0.1,-1.2 0.5,-1.5 0.6,-0.3 1,0.2 1.4,0.5 0.3,0.2 0.4,0.7 0.9,0.4 0.3,-0.2 0.2,-0.6 0.2,-0.9 -0.2,-3.5 -0.4,-7.1 -0.6,-10.8 -0.5,0.4 -0.8,0.7 -1.1,0.9 -3.4,3.1 -6.7,6.2 -10.1,9.3 -0.6,0.5 -1.2,1.3 -2.1,0.9 -0.9,-0.4 -0.8,-1.3 -0.8,-2.1 -0.2,-3 0.2,-5.7 2.1,-8.3 3.8,-5.4 7.3,-11 10.9,-16.6 0.5,-0.6 0.7,-1.2 0.3,-2.3 z m 0.5,7.5 c -2,3 -3.9,6 -5.2,9.2 -0.1,0.2 -0.3,0.5 -0.1,0.7 0.2,0.2 0.5,0 0.8,-0.1 1.5,-0.7 2.9,-1.6 4.3,-2.5 0.2,-0.2 0.4,-0.3 0.4,-0.7 -0.1,-2.2 -0.2,-4.4 -0.2,-6.6 z m 91.9,-31.1 c -5.3,0.4 -10.5,2 -15.4,4.4 -3.3,1.6 -6.5,3.4 -9.3,5.8 -3.4,2.9 -7.2,3.3 -11.3,2.6 -1.7,-0.3 -3.4,-0.6 -5,-1.3 -0.4,-0.2 -1,-0.4 -1,-0.9 0,-0.6 0.5,-0.8 1,-1 13.2,-5.3 26.2,-11.1 40,-14.5 3.7,-0.9 7.3,-1.6 11.1,-0.4 3.5,1.1 6.3,3.3 8.7,5.9 0.9,1 0.7,2 -0.3,2.9 -1.9,1.6 -3.8,2 -6,0.6 -1.9,-1.3 -4,-1.2 -6.1,-0.4 -1.5,0.6 -3.1,1.3 -4.7,1.9 -0.4,0.2 -1,0.6 -1.3,0.2 -0.4,-0.5 0.3,-0.9 0.6,-1.3 0.6,-0.8 1.3,-1.4 2.1,-1.9 0.9,-0.6 0.8,-1.5 -0.2,-2 -0.8,-0.6 -1.8,-0.6 -2.9,-0.6 z m 4.9,39.8 c 5.4,0.1 9.9,2.4 13.7,6.1 2.1,2.1 1,6.2 -1.7,7.4 -0.7,0.3 -1.3,0.2 -2,0 -0.8,-0.3 -1.7,-0.5 -2.5,-0.9 -2.9,-1.2 -5.7,-1.2 -8.6,0.2 -1.2,0.6 -2.5,1 -3.9,0.7 -0.3,0 -0.6,0 -0.7,-0.3 -0.1,-0.4 0.2,-0.6 0.5,-0.7 2.5,-1.3 4.7,-3.5 7.9,-3.5 0.4,0 1,0 1.1,-0.5 0.2,-0.5 -0.2,-0.8 -0.6,-1.1 -2,-1.4 -3.8,-3.1 -5.3,-5 -0.5,-0.6 -1.3,-0.7 -2.1,-0.8 -0.4,0 -0.9,-0.1 -0.9,-0.5 0,-0.4 0.5,-0.5 0.8,-0.6 1.4,-0.4 2.9,-0.4 4.3,-0.5 z m -91.4,-39.8 c -0.1,0.2 -0.1,0.4 -0.2,0.5 -1.8,1.9 -2.1,4.4 -2.3,6.9 0,0.7 -0.2,1.4 -0.4,2.1 -0.3,1.2 -0.6,1.3 -1.7,0.7 -1.2,-0.7 -2,-1.8 -2.9,-2.8 -1.7,-2.1 -2.7,-2 -3.7,0.5 -0.8,2 -1.6,4.1 -2.4,6.1 -0.3,0.8 -0.7,1.6 -1.2,2.3 -0.9,1.3 -1.6,1.3 -2.8,0.3 -2.1,-1.8 -2.7,-4.2 -2.5,-6.8 0.2,-2.1 0.9,-4.1 2.1,-5.9 0.2,-0.3 0.5,-0.8 0.9,-0.7 0.5,0.1 0.3,0.7 0.3,1 0,1 -0.4,2.2 0.6,2.8 1.1,0.6 1.9,-0.5 2.7,-1.1 1.6,-1.1 3.3,-1.7 5.2,-2.1 1.4,-0.3 2.4,-0.9 2.9,-2.3 0.5,-1.2 1.3,-2.4 2.2,-3.4 0.2,-0.3 0.4,-0.7 0.8,-0.5 0.4,0.1 0.2,0.6 0.2,0.9 0,0.7 -0.3,1.5 0.1,2 0.7,0.5 1.2,-0.7 2.1,-0.5 z m 52.9,57.4 c -0.8,0 -1.5,-0.3 -2,-1 -1.2,-1.6 -2.4,-3.3 -3.3,-5.1 -0.9,-1.7 -0.8,-3.3 0.5,-4.7 1.3,-1.4 2.1,-3.1 2.2,-5 0,-0.5 0.1,-1.2 0.7,-1.3 0.6,-0.2 0.8,0.5 1.1,0.9 2.1,3.3 4.3,3.8 7.6,1.5 0.6,-0.4 1.2,-0.9 1.8,-1.3 0.3,-0.2 0.7,-0.5 1,-0.1 0.2,0.3 0.1,0.6 -0.1,0.9 -0.2,0.4 -0.5,0.8 -0.7,1.2 -2,2.9 -3.8,6 -5.5,9.1 -0.6,1.2 -1,2.4 -1.5,3.6 -0.4,0.8 -0.9,1.4 -1.8,1.3 z M 85.6,7.7877841 c -0.4,-0.1 -0.9,-0.1 -1.3,-0.2 -2.5,-0.3 -4.7,0 -6.9,1.5 -4,2.6999999 -8.1,5.1999999 -12.2,7.7999999 -0.6,0.4 -1.4,1.1 -1.9,0.6 -0.5,-0.6 0.5,-1.2 0.9,-1.7 3.9,-4.5 7.8,-8.8999999 11.8,-13.3999999 0.3,-0.4 0.7,-0.8 1,-1.1 1.6,-1.69999997 2.5,-1.69999997 4.2,-0.1 1.7,1.6 3.4,3.1 5.1,4.7 0.4,0.4 1,0.8 0.8,1.5 -0.2,0.7 -0.9,0.3 -1.5,0.4 z m 70.5,-6.6 c 1.7,-0.1 3.2,0.3 4.4,1.5 1.4,1.4 2.8,2.7 4.2,4.1 1.4,1.5 1.3,3.1 -0.4,4.2999999 -1.1,0.8 -2.2,1.4 -3.4,2 -1.5,0.7 -2.3,0.5 -3.3,-0.8 -1.1,-1.3 -2,-2.7999999 -3.1,-4.0999999 -1.3,-1.5 -2.6,-3 -4.7,-3.4 -0.4,-0.1 -0.8,-0.4 -0.8,-0.9 0,-0.5 0.3,-0.8 0.7,-1 1.6,-1 3.5,-1.3 5.3,-1.6 0.3,0 0.7,0 1.1,-0.1 z M 88.8,103.08778 c 1,-2.4 2,-4.599996 2.9,-6.799996 0.2,-0.4 0.5,-0.4 0.9,-0.4 h 9.6 c 0.7,0 0.7,0.2 0.5,0.8 -0.9,2 -1.7,3.899996 -2.6,5.899996 -0.2,0.4 -0.4,0.6 -0.8,0.6 -3.4,-0.1 -6.9,-0.1 -10.5,-0.1 z m -4,-87.499996 c 2.4,0.4 4.9,1.1 7,2.7 1.4,1.1 1.4,1.6 0,2.7 -2.8,2.3 -5.5,4.6 -8.1,7.1 -0.3,0.3 -0.8,1 -1.2,0.7 -0.4,-0.3 0,-0.9 0.2,-1.4 1.1,-2.6 2.4,-5.1 3.9,-7.5 0.4,-0.6 0.3,-1 -0.2,-1.4 -0.7,-0.7 -1.5,-1.3 -2.2,-2 -0.2,-0.2 -0.6,-0.4 -0.4,-0.7 0.2,-0.3 0.6,-0.2 1,-0.2 z"
     id="path4"
     style="fill:#306230;fill-opacity:1" /></svg>
