<?xml version="1.0" encoding="UTF-8" standalone="no"?>
<!-- Created with Inkscape (http://www.inkscape.org/) -->

<svg
   width="200mm"
   height="40mm"
   viewBox="0 0 200 40"
   version="1.1"
   id="svg1"
   sodipodi:docname="auto-adventuregraphics.svg"
   inkscape:version="1.3.2 (091e20ef0f, 2023-11-25)"
   xmlns:inkscape="http://www.inkscape.org/namespaces/inkscape"
   xmlns:sodipodi="http://sodipodi.sourceforge.net/DTD/sodipodi-0.dtd"
   xmlns="http://www.w3.org/2000/svg"
   xmlns:svg="http://www.w3.org/2000/svg">
  <sodipodi:namedview
     id="namedview1"
     pagecolor="#505050"
     bordercolor="#eeeeee"
     borderopacity="1"
     inkscape:showpageshadow="0"
     inkscape:pageopacity="0"
     inkscape:pagecheckerboard="0"
     inkscape:deskcolor="#505050"
     inkscape:document-units="mm"
     inkscape:zoom="0.65926485"
     inkscape:cx="-152.44253"
     inkscape:cy="516.48438"
     inkscape:window-width="2560"
     inkscape:window-height="1440"
     inkscape:window-x="1920"
     inkscape:window-y="0"
     inkscape:window-maximized="1"
     inkscape:current-layer="layer1"
     showgrid="true">
    <inkscape:grid
       id="grid6"
       units="mm"
       originx="-68.269081"
       originy="-90.007568"
       spacingx="0.99999998"
       spacingy="1"
       empcolor="#0099e5"
       empopacity="0.30196078"
       color="#0099e5"
       opacity="0.14901961"
       empspacing="5"
       dotted="false"
       gridanglex="30"
       gridanglez="30"
       visible="true" />
  </sodipodi:namedview>
  <defs
     id="defs1" />
  <g
     inkscape:label="Calque 1"
     inkscape:groupmode="layer"
     id="layer1"
     transform="translate(-68.269079,-90.007571)">
    <!--!Font Awesome Free 6.5.1 by @fontawesome - https://fontawesome.com License - https://fontawesome.com/license/free Copyright 2024 Fonticons, Inc.-->
    <g
       id="g2"
       transform="matrix(4.6838779,0,0,4.6838779,-247.76729,-331.04657)">
      <g
         id="g6"
         transform="matrix(0.73719863,0,0,0.73719863,24.182826,20.048253)">
        <path
           d="m 53.72958,103.64006 h 4.012413 v -4.377177 h -0.364765 c -2.015325,0 -3.647648,1.632317 -3.647648,3.647647 z m 0,0.72952 v 2.91813 c 0,2.01532 1.632323,3.64765 3.647648,3.64765 h 1.459062 c 2.015324,0 3.647648,-1.63233 3.647648,-3.64765 v -2.91813 h -4.37718 z m 8.754358,-0.72952 v -0.72953 c 0,-2.01533 -1.632324,-3.647647 -3.647648,-3.647647 h -0.364765 v 4.377177 z"
           id="path1"
           style="fill:#306230;stroke-width:0.0227978"
           transform="matrix(0.92969916,0,0,0.92969916,9.8500628,2.8268689)" />
      </g>
      <g
         id="g1">
        <path
           d="m 78.467461,91.632004 -0.514805,2.100763 q -0.34737,0.146565 -0.73484,0.207633 -0.38288,0.06717 -0.895865,0.06717 -0.64122,0 -0.9398,-0.177099 -0.29859,-0.1771 -0.341885,-0.598473 -0.0357,-0.427481 0.158845,-1.221374 0.19454,-0.793893 0.45659,-1.215267 0.263535,-0.42748 0.691665,-0.60458 0.42963,-0.183206 1.138025,-0.183206 0.311455,0 0.65979,0.04885 0.354436,0.04885 0.498246,0.109924 l -0.389116,0.964885 q -0.20788,-0.04886 -0.4752,-0.07939 -0.259735,-0.03664 -0.44905,-0.03664 -0.32977,0 -0.47435,0.0916 -0.14458,0.0916 -0.20444,0.335878 l -0.387605,1.581679 h 0.70229 l 0.12421,-0.50687 h -0.311455 l 0.217,-0.885497 z m 1.962436,2.283969 -0.2482,-1.105343 h -0.32367 l -0.270875,1.105343 h -1.221371 l 0.935336,-3.816793 h 1.770985 q 0.781685,0 1.04286,0.329772 0.261165,0.32977 0.07709,1.080915 -0.193055,0.787786 -0.736605,1.087022 l 0.299645,1.319084 z m -0.35487,-1.990839 h 0.494655 q 0.134355,0 0.19667,-0.05496 0.06844,-0.05496 0.10435,-0.201526 l 0.07483,-0.305344 q 0.0359,-0.146565 -0.0053,-0.201527 -0.03535,-0.05496 -0.16974,-0.05496 h -0.494655 z m 4.460286,1.386259 h -1.105345 l -0.30083,0.60458 h -1.221371 l 1.912436,-3.816793 h 1.89923 l 0.04175,3.816793 h -1.221375 z m -0.01505,-0.885495 -0.0103,-1.154199 h -0.05497 l -0.57598,1.154199 z m 2.798206,1.490075 h -1.221371 l 0.935336,-3.816793 h 1.74046 q 0.781675,0 1.042855,0.329772 0.261165,0.32977 0.07709,1.080915 -0.185575,0.757252 -0.611245,1.123664 -0.42417,0.360305 -1.126466,0.360305 h -0.61069 z m 0.907104,-1.807633 q 0.134355,0 0.19667,-0.05496 0.06844,-0.05496 0.104356,-0.201527 l 0.11972,-0.48855 q 0.0359,-0.146565 -0.0053,-0.201527 -0.03535,-0.05496 -0.169741,-0.05496 h -0.464125 l -0.24543,1.001526 z m 5.768687,-2.00916 -0.935335,3.816793 h -1.221371 l 0.359175,-1.465648 h -0.91603 l -0.359175,1.465648 h -1.22137 l 0.935335,-3.816793 h 1.22137 l -0.35917,1.465649 h 0.91603 L 92.77289,90.09918 Z m 1.83206,0 -0.935335,3.816793 h -1.22137 L 94.60495,90.09918 Z m 2.378841,3.749618 q -0.259115,0.08549 -0.5368,0.122137 -0.271575,0.03664 -0.63799,0.03664 -0.647331,0 -0.962736,-0.183206 -0.309305,-0.183206 -0.363325,-0.610687 -0.0464,-0.433588 0.14215,-1.203053 0.19006,-0.775572 0.459695,-1.203053 0.269646,-0.427481 0.699271,-0.610687 0.43113,-0.189313 1.12731,-0.189313 0.2626,0 0.55597,0.04886 0.299475,0.04886 0.418865,0.109924 l -0.38913,0.964885 q -0.16513,-0.04886 -0.3836,-0.07939 -0.210865,-0.03664 -0.35743,-0.03664 -0.32977,0 -0.47435,0.0916 -0.144595,0.0916 -0.204455,0.335878 l -0.362165,1.477862 q 0.262845,0.04886 0.47048,0.04886 0.25038,0 0.50363,-0.03664 0.260855,-0.04275 0.454425,-0.109924 z m 2.763759,-0.537405 h -1.105349 l -0.300835,0.60458 h -1.22137 l 1.912444,-3.816793 h 1.89923 l 0.0417,3.816793 h -1.22138 z m -0.0151,-0.885495 -0.0103,-1.154199 h -0.055 l -0.57598,1.154199 z m 2.51217,-2.326718 h 1.22137 l -0.68841,2.80916 h 1.16031 l -0.24693,1.007633 h -2.38168 z"
           id="text1"
           style="font-weight:800;font-size:8.46667px;font-family:Changa;-inkscape-font-specification:'Changa, Ultra-Bold';fill:#306230;stroke-width:0.19084"
           aria-label="GRAPHICAL" />
        <path
           d="m 77.71952,97.608605 h -1.131249 l -0.303535,0.618747 h -1.250005 l 1.929845,-3.906237 h 1.943744 l 0.07016,3.906237 h -1.25 z m -0.0218,-0.906244 -0.0188,-1.181244 h -0.05625 l -0.581185,1.181244 z m 4.298084,-2.381246 q 0.7375,0 1.089595,0.175 0.353575,0.16875 0.41639,0.587501 0.06432,0.412501 -0.12165,1.193748 -0.185965,0.781244 -0.446665,1.193741 -0.260685,0.412497 -0.69609,0.587497 -0.433925,0.16875 -1.171425,0.16875 H 79.32221 l 0.929845,-3.906237 z m -1.191499,2.931243 h 0.512494 q 0.275,0 0.40059,-0.0812 0.127075,-0.0875 0.18063,-0.3125 l 0.278215,-1.168741 q 0.05356,-0.225 -0.03335,-0.30625 -0.08543,-0.0875 -0.360425,-0.0875 h -0.512495 z m 4.510248,-2.931243 -0.01295,2.706243 h 0.05625 l 1.27544,-2.706243 h 1.25 l -1.867345,3.906237 h -1.943744 l -0.0076,-3.906237 z m 3.47814,2.874993 h 1.46874 l -0.24548,1.031244 h -2.718745 l 0.929845,-3.906237 h 2.75 l -0.40173,1.031252 h -1.343745 l -0.11158,0.468747 h 1.249995 l -0.215725,0.906247 h -1.249995 z m 2.715614,-2.874993 h 1.2375 l 0.524185,1.368752 q 0.09376,0.262497 0.05061,0.443747 h 0.0375 l 0.43145,-1.812499 h 1.249999 l -0.929844,3.906237 h -1.237495 l -0.52419,-1.368744 q -0.09376,-0.262497 -0.05061,-0.443747 h -0.0375 l -0.43145,1.812491 h -1.249994 z m 5.101399,3.906237 h -1.25001 l 0.684365,-2.874985 h -0.874995 l 0.24548,-1.031252 h 2.999995 l -0.24548,1.031252 h -0.874995 z m 2.858924,0.0937 q -0.700004,0 -1.031254,-0.13125 -0.329775,-0.1375 -0.40241,-0.462497 -0.07115,-0.33125 0.0791,-0.962494 l 0.58171,-2.443746 h 1.249994 l -0.697755,2.931243 h 0.500005 q 0.28124,0 0.38363,-0.0625 0.11012,-0.0687 0.15772,-0.26875 l 0.61891,-2.599983 h 1.25 l -0.58171,2.443736 q -0.14878,0.624994 -0.37763,0.956244 -0.22885,0.331247 -0.63033,0.468747 -0.39999,0.13125 -1.099995,0.13125 z m 4.43482,-0.0937 -0.26197,-1.131244 h -0.33125 l -0.26928,1.131244 h -1.25 l 0.92984,-3.906237 h 1.8125 q 0.8,0 1.06965,0.3375 0.26967,0.337501 0.0867,1.106252 -0.19192,0.806244 -0.74607,1.112491 l 0.31614,1.349994 z m -0.37749,-2.037488 h 0.50625 q 0.13749,0 0.20088,-0.0563 0.0696,-0.0562 0.10535,-0.20625 l 0.0744,-0.312497 q 0.0357,-0.15 -0.007,-0.20625 -0.0367,-0.0563 -0.17411,-0.0563 h -0.50625 z m 3.66671,1.006244 h 1.46875 l -0.24548,1.031244 h -2.71874 l 0.92984,-3.906237 h 2.75 l -0.40173,1.031252 h -1.34375 l -0.11158,0.468747 h 1.25 l -0.21573,0.906247 h -1.25 z"
           id="text2"
           style="font-weight:800;font-size:8.46667px;font-family:Changa;-inkscape-font-specification:'Changa, Ultra-Bold';fill:#306230;stroke-width:0.195312"
           aria-label="ADVENTURE" />
      </g>
    </g>
  </g>
</svg>
