<?xml version="1.0" encoding="UTF-8" standalone="no"?>
<svg
   class="svg-icon"
   style="overflow:hidden;fill:currentColor"
   viewBox="0 0 39.997177 8.064248"
   version="1.1"
   id="svg5"
   sodipodi:docname="auto-sportsimulation.svg"
   inkscape:version="1.3.2 (091e20ef0f, 2023-11-25)"
   width="39.997177"
   height="8.0642481"
   xmlns:inkscape="http://www.inkscape.org/namespaces/inkscape"
   xmlns:sodipodi="http://sodipodi.sourceforge.net/DTD/sodipodi-0.dtd"
   xmlns="http://www.w3.org/2000/svg"
   xmlns:svg="http://www.w3.org/2000/svg">
  <defs
     id="defs5" />
  <sodipodi:namedview
     id="namedview5"
     pagecolor="#505050"
     bordercolor="#eeeeee"
     borderopacity="1"
     inkscape:showpageshadow="0"
     inkscape:pageopacity="0"
     inkscape:pagecheckerboard="0"
     inkscape:deskcolor="#505050"
     inkscape:zoom="18.8125"
     inkscape:cx="-0.55813953"
     inkscape:cy="6.0863787"
     inkscape:window-width="1920"
     inkscape:window-height="1080"
     inkscape:window-x="0"
     inkscape:window-y="0"
     inkscape:window-maximized="1"
     inkscape:current-layer="svg5" />
  <!--!Font Awesome Free 6.5.1 by @fontawesome - https://fontawesome.com License - https://fontawesome.com/license/free Copyright 2024 Fonticons, Inc.-->
  <!--!Font Awesome Free 6.5.1 by @fontawesome - https://fontawesome.com License - https://fontawesome.com/license/free Copyright 2024 Fonticons, Inc.-->
  <path
     d="M 0.0641,0.62900415 C 0.0219,0.56650415 0,0.49150415 0,0.41650415 c 0,-0.2125 0.17188,-0.38438 0.38438,-0.38438 h 1.70781 c 0.175,0 0.33906,0.0922 0.42812,0.24219 L 3.59063,2.0571242 c -0.75313,0.0953 -1.42657,0.44688 -1.92813,0.96719 z m 7.87032,0 -1.59688,2.39531005 c -0.50156,-0.52031 -1.175,-0.87188 -1.92812,-0.96719 L 5.47973,0.27431415 c 0.0906,-0.15 0.25312,-0.24219 0.42812,-0.24219 h 1.70782 c 0.2125,0 0.38437,0.17188 0.38437,0.38438 0,0.075 -0.0219,0.15 -0.0641,0.2125 z M 1.25004,5.2821242 a 2.75,2.75 0 1 1 5.5,0 2.75,2.75 0 1 1 -5.5,0 z m 2.88125,-1.48281 c -0.0531,-0.10938 -0.20781,-0.10938 -0.2625,0 l -0.35,0.70937 c -0.0219,0.0437 -0.0625,0.0734 -0.10937,0.0797 l -0.78438,0.11406 c -0.12031,0.0172 -0.16719,0.16407 -0.0813,0.25 l 0.56719,0.55313 c 0.0344,0.0344 0.05,0.0812 0.0422,0.12969 l -0.13438,0.77968 c -0.0203,0.11875 0.10469,0.21094 0.2125,0.15469 l 0.7,-0.36875 c 0.0422,-0.0219 0.0937,-0.0219 0.13594,0 l 0.7,0.36875 C 4.875,6.6259342 5,6.5352342 4.97969,6.4149442 l -0.13438,-0.77968 c -0.008,-0.0469 0.008,-0.0953 0.0422,-0.12969 l 0.56719,-0.55313 c 0.0875,-0.0844 0.0391,-0.23125 -0.0813,-0.25 l -0.78281,-0.11406 c -0.0469,-0.006 -0.0891,-0.0375 -0.10938,-0.0797 z"
     id="path1"
     style="fill:#306230;stroke-width:0.015625" />
  <g
     id="g7"
     transform="translate(-0.49012407,-0.08111959)">
    <path
       d="m 9.3317535,2.8184603 q 0.582878,0.186521 1.1832425,0.186521 0.297268,0 0.472131,-0.029144 v -0.320583 l -0.52459,-0.04663 Q 10.007892,2.5678227 9.7339393,2.4454184 9.4658154,2.3171852 9.343411,2.084034 9.2210066,1.8508828 9.2210066,1.4778408 q 0,-0.48961749 0.1398908,-0.76939893 0.1398907,-0.28561023 0.448816,-0.40801462 0.3147546,-0.12823316 0.8626596,-0.12823316 0.71694,0 1.369763,0.17486341 l -0.145719,0.9326048 q -0.303097,-0.064117 -0.512933,-0.087432 -0.209836,-0.029144 -0.43133,-0.029144 -0.297267,0 -0.47796,0.029144 v 0.3147541 l 0.419673,0.040801 q 0.711111,0.069945 1.025865,0.3555556 0.320583,0.2797815 0.320583,0.8393443 0,0.6469946 -0.373042,0.9500912 -0.373042,0.2972678 -1.177414,0.2972678 -0.8276866,0 -1.5213114,-0.2098361 z M 13.843227,3.9026134 H 12.677471 V 0.25962579 h 1.661203 q 0.746084,0 1.072495,0.31475413 0.326412,0.31475413 0.326412,1.03169408 0,0.7227688 -0.320583,1.0724956 -0.320583,0.343898 -0.990893,0.343898 h -0.582878 z m 0.442988,-1.7253189 q 0.128233,0 0.174863,-0.052459 0.05246,-0.052459 0.05246,-0.1923497 V 1.4661833 q 0,-0.1398907 -0.05246,-0.1923498 -0.04663,-0.052459 -0.174863,-0.052459 h -0.442988 v 0.95592 z m 1.713662,-0.09326 q 0,-0.7344263 0.163206,-1.14244093 0.163206,-0.41384339 0.536248,-0.58870679 0.37887,-0.18069219 1.04918,-0.18069219 0.67031,0 1.043352,0.18069219 0.37887,0.1748634 0.542076,0.58870679 0.163206,0.40801463 0.163206,1.14244093 0,0.7344263 -0.163206,1.1424409 -0.163206,0.4080146 -0.542076,0.5887068 -0.373042,0.1748634 -1.043352,0.1748634 -0.67031,0 -1.04918,-0.1748634 Q 16.326289,3.6344895 16.163083,3.2264749 15.999877,2.8184603 15.999877,2.084034 Z m 1.783607,0.9092897 q 0.262295,0 0.361384,-0.064117 0.09909,-0.069945 0.09909,-0.2448088 V 1.1689155 H 17.70771 q -0.256467,0 -0.355556,0.069945 -0.09909,0.064117 -0.09909,0.2389799 v 1.5154829 z m 4.15009,0.9092897 -0.495446,-1.0550092 H 21.129203 V 3.9026134 H 19.963447 V 0.25962579 h 1.690346 q 0.746084,0 1.072495,0.31475413 0.326412,0.31475413 0.326412,1.03169408 0,0.7519127 -0.448816,1.0375229 L 23.19842,3.9026134 Z M 21.129203,2.0024311 h 0.472131 q 0.128233,0 0.174863,-0.052459 0.05246,-0.052459 0.05246,-0.1923497 v -0.291439 q 0,-0.1398907 -0.05246,-0.1923498 -0.04663,-0.052459 -0.174863,-0.052459 h -0.472131 z m 4.196722,1.9001823 H 24.160169 V 1.2213745 H 23.34414 V 0.25962579 h 2.797814 V 1.2213745 h -0.816029 z"
       id="text5"
       style="font-weight:800;font-size:5.82878px;font-family:Changa;-inkscape-font-specification:'Changa, Ultra-Bold';fill:#306230;stroke:#8bac0f;stroke-width:0.182149;stroke-opacity:1"
       transform="skewX(-10.423218)"
       aria-label="SPORT" />
    <path
       d="m 10.088087,6.8827086 q 0.582878,0.186521 1.183242,0.186521 0.297268,0 0.472131,-0.029144 V 6.7195028 l -0.52459,-0.04663 Q 10.764225,6.6320711 10.490273,6.5096667 10.222149,6.3814335 10.099744,6.1482823 9.97734,5.9151311 9.97734,5.5420892 q 0,-0.4896176 0.139891,-0.769399 0.13989,-0.2856102 0.448816,-0.4080146 0.314754,-0.1282332 0.862659,-0.1282332 0.71694,0 1.369764,0.1748634 l -0.14572,0.9326048 q -0.303096,-0.064116 -0.512933,-0.087432 -0.209836,-0.029144 -0.431329,-0.029144 -0.297268,0 -0.47796,0.029144 v 0.3147542 l 0.419672,0.040801 q 0.711111,0.069945 1.025865,0.3555556 0.320583,0.2797815 0.320583,0.8393444 0,0.6469946 -0.373042,0.9500911 -0.373042,0.2972678 -1.177413,0.2972678 -0.827687,0 -1.521312,-0.2098361 z M 14.599561,4.3238741 V 7.9668617 H 13.433805 V 4.3238741 Z m 0.716935,0 h 1.463024 l 0.454645,1.8535521 h 0.0408 l 0.454645,-1.8535521 h 1.463024 l 0.221493,3.6429876 h -1.159927 l -0.09326,-1.7661204 h -0.0408 L 17.700467,7.9668617 H 16.808664 L 16.383163,6.2007413 h -0.03497 l -0.09326,1.7661204 h -1.159928 z m 6.14354,3.7304193 q -0.652824,0 -0.990893,-0.1224044 Q 20.131074,7.8036559 19.991183,7.5005593 19.851292,7.191634 19.851292,6.6029272 V 4.3238741 h 1.165756 V 7.057572 h 0.466303 q 0.262295,0 0.343898,-0.058288 0.08743,-0.064117 0.08743,-0.2506375 V 4.3238741 h 1.165756 v 2.2790531 q 0,0.582878 -0.139891,0.8918033 -0.139891,0.3089254 -0.483789,0.4371585 -0.343898,0.1224044 -0.996721,0.1224044 z m 2.144995,-3.7304193 h 1.165756 V 7.005113 h 1.107468 v 0.9617487 h -2.273224 z m 4.389073,3.0659384 h -1.055009 l -0.14572,0.5770492 h -1.165756 l 0.932605,-3.6429876 h 1.812751 L 29.30558,7.9668617 H 28.139824 Z M 27.77261,6.5446394 27.492829,5.4429999 h -0.05246 l -0.279781,1.1016395 z m 3.369041,1.4222223 H 29.975895 V 5.2856228 H 29.159866 V 4.3238741 H 31.95768 V 5.2856228 H 31.141651 Z M 33.444017,4.3238741 V 7.9668617 H 32.278261 V 4.3238741 Z m 0.466299,1.8244082 q 0,-0.7344263 0.163206,-1.1424409 0.163206,-0.4138434 0.536248,-0.5887068 0.37887,-0.1806922 1.04918,-0.1806922 0.67031,0 1.043352,0.1806922 0.37887,0.1748634 0.542076,0.5887068 0.163206,0.4080146 0.163206,1.1424409 0,0.7344263 -0.163206,1.1424409 -0.163206,0.4080146 -0.542076,0.5887068 -0.373042,0.1748634 -1.043352,0.1748634 -0.67031,0 -1.04918,-0.1748634 Q 34.236728,7.6987378 34.073522,7.2907232 33.910316,6.8827086 33.910316,6.1482823 Z m 1.783607,0.9092897 q 0.262295,0 0.361384,-0.064117 0.09909,-0.069945 0.09909,-0.2448087 V 5.2331638 h -0.536247 q -0.256467,0 -0.355556,0.069945 -0.09909,0.064117 -0.09909,0.23898 V 7.057572 Z m 2.209105,-2.7336979 h 1.154099 l 0.792714,1.2765029 q 0.145719,0.2448087 0.145719,0.4138434 h 0.03497 V 4.3238741 h 1.165756 V 7.9668617 H 40.04219 L 39.249476,6.6903589 Q 39.103757,6.4455501 39.103757,6.2765155 h -0.03497 v 1.6903462 h -1.165756 z"
       id="text6"
       style="font-weight:800;font-size:5.82878px;font-family:Changa;-inkscape-font-specification:'Changa, Ultra-Bold';fill:#306230;stroke:#8bac0f;stroke-width:0.182149;stroke-opacity:1"
       transform="skewX(-10.483081)"
       aria-label="SIMULATION&#10;" />
  </g>
</svg>
