<?xml version="1.0" encoding="UTF-8" standalone="no"?>
<!-- Created with Inkscape (http://www.inkscape.org/) -->

<svg
   version="1.1"
   id="svg1"
   width="570.8349"
   height="165.03114"
   viewBox="0 0 570.8349 165.03114"
   sodipodi:docname="logo.png"
   xmlns:inkscape="http://www.inkscape.org/namespaces/inkscape"
   xmlns:sodipodi="http://sodipodi.sourceforge.net/DTD/sodipodi-0.dtd"
   xmlns="http://www.w3.org/2000/svg"
   xmlns:svg="http://www.w3.org/2000/svg">
  <defs
     id="defs1" />
  <sodipodi:namedview
     id="namedview1"
     pagecolor="#306230"
     bordercolor="#000000"
     borderopacity="0.25"
     inkscape:showpageshadow="2"
     inkscape:pageopacity="0.0"
     inkscape:pagecheckerboard="0"
     inkscape:deskcolor="#d1d1d1" />
  <g
     inkscape:groupmode="layer"
     inkscape:label="Image"
     id="g1"
     transform="translate(-7,-6.968853)">
    <path
       style="fill:#306230"
       d="M 7.0071134,154.75 7,138 l 9.25,0.0123 9.25,0.0123 7.763933,16.2377 c 4.270163,8.93073 7.757663,16.51755 7.75,16.85959 -0.0077,0.34205 -7.660732,0.56705 -17.00682,0.5 L 7.0142268,171.5 Z m 61.8720826,0.93987 C 64.545638,146.9943 61,139.4568 61,138.93987 61,138.37237 74.071932,138 93.994111,138 h 32.994109 l 8.00589,15.98824 c 4.40324,8.79353 8.00599,16.33103 8.0061,16.75 1.2e-4,0.41897 -14.90424,0.76176 -33.1208,0.76176 H 76.758392 Z m 125.747844,15.59017 c -0.1285,-0.12098 1.34101,-7.65848 3.26557,-16.75 L 201.39182,138 h 7.78504 c 7.25305,0 7.82047,0.15375 8.30361,2.25 0.79442,3.44682 6.51953,30.7787 6.51953,31.12446 0,0.34238 -29.00805,0.24913 -29.37296,-0.0944 z M 258.44954,170.5 c -0.16687,-0.55 -1.66331,-6.90516 -3.32543,-14.12257 -1.66212,-7.21741 -3.31879,-14.30491 -3.68148,-15.75 L 250.78318,138 h 23.54102 c 21.55471,0 23.58502,0.14766 24.06248,1.75 0.2868,0.9625 1.90422,7.825 3.59426,15.25 1.69004,7.425 3.2804,14.175 3.53414,15 0.40107,1.30401 -2.6238,1.5 -23.15039,1.5 -14.87223,0 -23.72405,-0.37013 -23.91515,-1 z M 340.5686,170 c -0.22809,-0.825 -1.38901,-6 -2.57981,-11.5 -1.1908,-5.5 -2.80042,-12.21918 -3.57694,-14.9315 C 333.63533,140.85617 333,138.48553 333,138.3004 c 0,-0.18513 10.66245,-0.21595 23.69434,-0.0685 l 23.69434,0.2681 3.77136,16 c 2.07425,8.8 3.78687,16.225 3.80582,16.5 0.0189,0.275 -10.54437,0.5 -23.47404,0.5 -20.04546,0 -23.56959,-0.22097 -23.92322,-1.5 z M 453.75,171.25104 432,170.961 V 154.4805 138 h 24 24 v 17 17 l -2.25,-0.22945 c -1.2375,-0.1262 -12.0375,-0.35998 -24,-0.51951 z m 54.03548,-27.50167 c -0.15701,-15.26284 -0.0605,-27.7374 0.21452,-27.72124 0.58108,0.0341 41.34615,53.51032 41.77746,54.80424 0.15889,0.47667 -9.16008,0.82188 -20.70881,0.76715 L 508.07096,171.5 Z M 7.0451875,105.75 7.0903749,100.5 9.5,105 c 3.0397,5.67667 3.0397,6 0,6 -2.3549444,0 -2.4973781,-0.30462 -2.4548125,-5.25 z M 39.300281,95.25 C 35.010403,86.5875 31.350389,79.1625 31.166917,78.75 30.983446,78.3375 45.83966,78 64.180727,78 H 97.52812 l 8.23205,16.5 8.23206,16.5 H 80.546145 47.100061 Z M 141,95.35226 C 136.875,86.75548 133.35,79.334365 133.16667,78.860881 132.98333,78.387396 136.92083,78 141.91667,78 H 151 v 16.5 c 0,12.53793 -0.30016,16.49793 -1.25,16.49138 -0.6875,-0.005 -4.625,-7.04235 -8.75,-15.63912 z M 207.65724,107.75 c 0.72008,-3.85399 2.33646,-6.04902 2.35641,-3.2 0.008,1.0725 0.285,2.9625 0.61664,4.2 0.48462,1.80838 0.19243,2.25 -1.48866,2.25 -1.81768,0 -2.0121,-0.42566 -1.48439,-3.25 z m 36.83372,1 c -0.30094,-1.2375 -2.03414,-8.67047 -3.85156,-16.5177 L 237.33499,77.964593 260.87333,78.232297 284.41166,78.5 287.52165,92 c 1.71049,7.425 3.42644,14.7375 3.81322,16.25 l 0.70323,2.75 h -23.5 -23.5 z m 82.50523,1.5 c -0.002,-0.4125 -1.57709,-7.48295 -3.5,-15.7121 C 321.57329,86.30874 320,79.22124 320,78.787896 320,78.354553 330.48297,78 343.29549,78 h 23.29548 l 3.22452,14.25 c 1.77348,7.8375 3.493,15.2625 3.82114,16.5 l 0.59663,2.25 h -23.61663 c -12.98915,0 -23.61834,-0.3375 -23.62044,-0.75 z M 432,94.5 V 78 h 24 24 V 94.5 111 h -24 -24 z m 75.82357,-8.41558 0.32357,-7.92028 6.42876,-0.33207 c 3.53582,-0.182638 6.31521,-0.07157 6.17643,0.246809 C 520.24423,79.244527 508.48452,93.86554 508,93.93402 c -0.275,0.0389 -0.35439,-3.49345 -0.17643,-7.8496 z M 15.495841,46.346171 7,28.692342 V 17.830598 6.968853 L 35.094267,7.234427 63.188533,7.5 77.018262,35.75 90.847991,64 H 57.419836 23.991681 Z M 124.63702,61.25 C 121.76846,55.672465 99,7.898328 99,7.456887 99,7.205599 110.7,7 125,7 h 26 V 35.5 64 H 138.52568 126.05136 Z M 230.55084,47.263084 226.73768,30.526167 229.59907,18.763084 232.46046,7 h 17.75072 c 17.58813,0 17.75546,0.02061 18.26829,2.25 0.28467,1.2375 2.98683,13.05 6.0048,26.25 3.01798,13.2 5.72722,25.0125 6.02053,26.25 L 281.0381,64 H 257.70105 234.36399 Z M 316.67028,63.25 c -0.24627,-0.4125 -2.0594,-7.989838 -4.02919,-16.838528 L 309.05966,30.322944 311.93597,18.911472 314.81227,7.5 h 17.77817 17.77816 l 6.2572,27 c 3.44147,14.85 6.28353,27.5625 6.3157,28.25 0.0452,0.965375 -5.16517,1.25 -22.88248,1.25 -12.61754,0 -23.14248,-0.3375 -23.38874,-0.75 z M 432,35.5 V 7 h 24 24 V 35.5 64 h -24 -24 z m 76,0 V 7 h 35.08333 c 19.29584,0 34.93334,0.356529 34.75,0.792287 C 577.65,8.228045 567.375,21.043488 555,36.271048 L 532.5,63.957521 520.25,63.97876 508,64 Z"
       id="path1" />
  </g>
</svg>
