<?xml version="1.0" encoding="UTF-8" standalone="no"?>
<!-- Created with Inkscape (http://www.inkscape.org/) -->

<svg
   width="35.180344mm"
   height="8mm"
   viewBox="0 0 35.180343 8"
   version="1.1"
   id="svg1"
   inkscape:version="1.3.2 (091e20ef0f, 2023-11-25)"
   sodipodi:docname="auto-rpgjapanese.svg"
   xmlns:inkscape="http://www.inkscape.org/namespaces/inkscape"
   xmlns:sodipodi="http://sodipodi.sourceforge.net/DTD/sodipodi-0.dtd"
   xmlns="http://www.w3.org/2000/svg"
   xmlns:svg="http://www.w3.org/2000/svg">
  <sodipodi:namedview
     id="namedview1"
     pagecolor="#505050"
     bordercolor="#eeeeee"
     borderopacity="1"
     inkscape:showpageshadow="0"
     inkscape:pageopacity="0"
     inkscape:pagecheckerboard="0"
     inkscape:deskcolor="#505050"
     inkscape:document-units="mm"
     showgrid="true"
     inkscape:zoom="2.2829762"
     inkscape:cx="65.703707"
     inkscape:cy="142.79606"
     inkscape:window-width="1264"
     inkscape:window-height="1389"
     inkscape:window-x="3204"
     inkscape:window-y="8"
     inkscape:window-maximized="1"
     inkscape:current-layer="layer1">
    <inkscape:grid
       id="grid1"
       units="mm"
       originx="8.6265004"
       originy="-1.0995882"
       spacingx="0.99999998"
       spacingy="1"
       empcolor="#0099e5"
       empopacity="0.30196078"
       color="#0099e5"
       opacity="0.14901961"
       empspacing="5"
       dotted="false"
       gridanglex="30"
       gridanglez="30"
       visible="true" />
  </sodipodi:namedview>
  <defs
     id="defs1" />
  <g
     inkscape:label="Calque 1"
     inkscape:groupmode="layer"
     id="layer1"
     transform="translate(8.6265003,-1.0995882)">
    <path
       d="m 0.6665662,6.9011091 q 0.2931288,0 0.4514618,-0.061069 0.1606866,-0.073282 0.2054069,-0.3053425 L 1.9471656,3.2980675 H 0.72579563 L 1.1141563,1.2828069 H 4.7782664 L 3.6955639,6.9011091 Q 3.5049141,7.8904188 2.9175107,8.4033942 2.3301072,8.9163696 1.4140797,8.9163696 H -0.49125757 L -0.3471709,6.9011091 Z M 8.6568132,8.9163696 8.0446686,6.7056899 H 7.3973425 L 6.9713226,8.9163696 H 4.5285825 L 5.9996457,1.2828069 h 3.5419731 q 1.5633532,0 2.1202212,0.6595398 0.556867,0.6595399 0.267361,2.161825 -0.303627,1.5755673 -1.359412,2.1740386 l 0.737397,2.6381593 z M 7.7386292,4.9347033 h 0.9893097 q 0.2687014,0 0.3875942,-0.1099233 Q 9.2466394,4.7148567 9.3031282,4.4217279 L 9.4208133,3.8110429 Q 9.4773021,3.5179141 9.3885624,3.4079908 9.3120362,3.2980675 9.0433348,3.2980675 H 8.0540251 Z m 6.8662548,3.9816663 h -2.44274 l 1.471063,-7.6335627 h 3.480905 q 1.563354,0 2.120222,0.6595398 0.556867,0.6595399 0.267361,2.161825 -0.291858,1.5144988 -1.104834,2.2473208 -0.810622,0.7206084 -2.215198,0.7206084 h -1.22137 z m 1.624938,-3.6152553 q 0.268701,0 0.387594,-0.1099233 0.131106,-0.1099233 0.187595,-0.4030521 l 0.188296,-0.977096 Q 17.049796,3.5179141 16.961056,3.4079908 16.88453,3.2980675 16.615829,3.2980675 H 15.687587 L 15.30158,5.3011143 Z M 26.355364,4.3484457 25.545691,8.5499586 q -0.679388,0.2931288 -1.447961,0.4152658 -0.758712,0.1343507 -1.784663,0.1343507 -1.282438,0 -1.898148,-0.3541973 -0.61571,-0.3541973 -0.746433,-1.1969426 -0.116156,-0.854959 0.189825,-2.4427401 0.305981,-1.587781 0.785942,-2.4305263 0.482316,-0.8549591 1.320036,-1.2091564 0.840074,-0.366411 2.256863,-0.366411 0.622899,0 1.324678,0.09771 0.713993,0.09771 1.008012,0.2198466 l -0.677228,1.9297647 q -0.420863,-0.09771 -0.958711,-0.1587781 -0.523281,-0.073282 -0.901906,-0.073282 -0.65954,0 -0.939119,0.1832055 -0.27958,0.1832055 -0.373728,0.6717535 L 22.093541,7.13317 h 1.404576 l 0.195358,-1.0137378 h -0.622899 l 0.341286,-1.7709865 z"
       id="text1"
       style="font-weight:800;font-size:12.2137px;font-family:Changa;-inkscape-font-specification:'Changa, Ultra-Bold';fill:#306230;stroke-width:0.381679"
       aria-label="JRPG&#10;" />
    <!--!Font Awesome Free 6.5.1 by @fontawesome - https://fontawesome.com License - https://fontawesome.com/license/free Copyright 2024 Fonticons, Inc.-->
    <!--!Font Awesome Free 6.5.1 by @fontawesome - https://fontawesome.com License - https://fontawesome.com/license/free Copyright 2024 Fonticons, Inc.-->
    <path
       d="m -8.6264903,2.3495882 c 0,0.414062 0.335938,0.75 0.75,0.75 h 0.25 v 1 h 1 v -1 h 1.5 v 1 h 1 v -1 h 1.5 v 1 h 1 v -1 h 0.25 c 0.414062,0 0.75,-0.335938 0.75,-0.75 v -1.040625 c 0,-0.115625 -0.09375,-0.209375 -0.209375,-0.209375 -0.02656,0 -0.05312,0.0047 -0.07813,0.01563 l -0.765625,0.30625 c -0.295313,0.117187 -0.610938,0.178125 -0.928125,0.178125 h -4.0375 c -0.31875,0 -0.632812,-0.06094 -0.928125,-0.178125 l -0.765625,-0.30625 c -0.025,-0.0094 -0.05156,-0.01563 -0.07813,-0.01563 -0.115625,0 -0.209375,0.09375 -0.209375,0.209375 z m 1,3.25 v 3 c 0,0.276563 0.223437,0.5 0.5,0.5 0.276562,0 0.5,-0.223437 0.5,-0.5 v -3 h 4 v 3 c 0,0.276563 0.223437,0.5 0.5,0.5 0.276562,0 0.5,-0.223437 0.5,-0.5 v -3 h 0.5 c 0.276562,0 0.5,-0.223438 0.5,-0.5 0,-0.276563 -0.223438,-0.5 -0.5,-0.5 h -7 c -0.276562,0 -0.5,0.223437 -0.5,0.5 0,0.276562 0.223438,0.5 0.5,0.5 z"
       id="path1-5"
       style="fill:#306230;stroke-width:0.015625" />
  </g>
</svg>
