<?xml version="1.0" encoding="UTF-8" standalone="no"?>
<!-- Created with Inkscape (http://www.inkscape.org/) -->

<svg
   version="1.1"
   id="svg1"
   width="596.92334"
   height="207.97957"
   viewBox="0 0 596.92334 207.97957"
   sodipodi:docname="auto-arcade-nintendo.svg"
   xmlns:inkscape="http://www.inkscape.org/namespaces/inkscape"
   xmlns:sodipodi="http://sodipodi.sourceforge.net/DTD/sodipodi-0.dtd"
   xmlns="http://www.w3.org/2000/svg"
   xmlns:svg="http://www.w3.org/2000/svg">
  <defs
     id="defs1" />
  <sodipodi:namedview
     id="namedview1"
     pagecolor="#306230"
     bordercolor="#000000"
     borderopacity="0.25"
     inkscape:showpageshadow="2"
     inkscape:pageopacity="0.0"
     inkscape:pagecheckerboard="0"
     inkscape:deskcolor="#d1d1d1" />
  <g
     inkscape:groupmode="layer"
     inkscape:label="Image"
     id="g1"
     transform="translate(-1.5383412,-45.827404)">
    <path
       style="fill:#306230"
       d="M 28.204958,252.10959 C 5.9121626,244.39346 -0.97835251,216.95029 15.019383,199.5948 c 6.697138,-7.26554 13.268587,-9.91304 26.437814,-10.65127 6.073542,-0.34046 10.301046,-0.69204 9.394453,-0.78128 -0.906592,-0.0892 -5.856592,-2.26673 -11,-4.83888 -7.651966,-3.82664 -10.901704,-6.23486 -17.880035,-13.25 C 12.574636,160.62682 7.819745,152.73948 3.8418631,140 1.8423253,133.59632 1.5059433,130.45353 1.5406585,118.5 1.5773655,105.86076 1.8502726,103.72242 4.3484248,96.5 8.3014554,85.07137 14.245029,75.554975 22.460703,67.5 33.546663,56.630883 45.405962,50.581677 61.837968,47.414398 c 10.977877,-2.115993 465.346192,-2.115993 476.324062,0 16.43201,3.167279 28.29131,9.216485 39.37727,20.085602 8.21567,8.054975 14.15924,17.57137 18.11228,29 2.49815,7.22242 2.77105,9.36076 2.80776,22 0.0347,11.95353 -0.30167,15.09632 -2.3012,21.5 -3.97788,12.73948 -8.73278,20.62682 -18.12976,30.07337 -6.97833,7.01514 -10.22806,9.42336 -17.88003,13.25 -5.14341,2.57215 -10.09341,4.75077 -11,4.84137 -0.90659,0.0906 3.53719,0.43792 9.87507,0.7718 9.79326,0.51591 12.36695,1.01975 17.14151,3.35572 6.56628,3.21258 13.12646,9.92413 16.15923,16.53207 3.0093,6.55683 3.0093,18.79451 0,25.35134 -3.03326,6.609 -9.59028,13.31644 -16.18265,16.55386 L 570.5,253.5 302,253.72117 c -258.058373,0.21257 -268.705918,0.1499 -273.795042,-1.61158 z m 52.381423,-7.23566 c 2.459611,-0.61934 5.80888,-2.37488 7.44282,-3.90121 C 90.572318,238.5971 91,237.46355 91,233.09879 V 228 h -7 -7 v 3.87756 c 0,2.13265 -0.634847,4.40443 -1.41077,5.04839 -2.121184,1.76042 -7.73575,2.37146 -10.83923,1.17963 L 62,237.0495 V 222 206.9505 l 2.75,-1.05608 c 3.10348,-1.19183 8.718046,-0.58079 10.83923,1.17963 C 76.365153,207.71801 77,209.53979 77,211.12244 V 214 h 7 7 v -3.86514 c 0,-8.73596 -8.193872,-12.6659 -24.887058,-11.93634 -10.874541,0.47527 -16.870491,2.77918 -18.915881,7.26832 -1.790729,3.93023 -1.60923,29.83543 0.234008,33.39986 1.236711,2.39154 4.89624,4.63751 10.568931,6.48649 2.925875,0.95367 18.181236,0.62997 22.586381,-0.47926 z M 291.76356,244.47758 C 297.76584,242.69509 301,239.18106 301,234.44187 c 0,-5.12418 -3.97762,-8.84705 -15.45767,-14.46769 -11.31812,-5.54136 -13.86823,-7.65967 -13.37269,-11.10834 0.42284,-2.94271 5.44304,-4.55065 10.08036,-3.22867 2.50402,0.71382 3.32263,1.55039 3.56642,3.64466 0.31261,2.68541 0.40602,2.71817 7.75,2.71817 H 301 v -2.92308 c 0,-3.99462 -4.72537,-8.51853 -10.38696,-9.94414 -5.65004,-1.42269 -18.89823,-1.45897 -23.91634,-0.0655 -4.92594,1.36789 -9.55939,5.63689 -10.23799,9.4327 -0.98539,5.51185 2.14438,8.62904 15.50084,15.43857 12.91759,6.58578 15.9626,9.56785 12.89854,12.63191 -2.03222,2.03222 -7.75442,2.82301 -11.10809,1.5351 -2.16113,-0.82993 -2.75,-1.70379 -2.75,-4.08083 V 231 h -7.5 c -7.37229,0 -7.5,0.0434 -7.5,2.54966 0,5.58094 4.33727,10.0071 11.5,11.73568 4.65509,1.12341 19.41525,0.63203 24.26356,-0.80776 z m 69,0 C 366.76584,242.69509 370,239.18106 370,234.44187 c 0,-5.12418 -3.97762,-8.84705 -15.45767,-14.46769 -11.31812,-5.54136 -13.86823,-7.65967 -13.37269,-11.10834 0.42284,-2.94271 5.44304,-4.55065 10.08036,-3.22867 2.50402,0.71382 3.32263,1.55039 3.56642,3.64466 0.31261,2.68541 0.40602,2.71817 7.75,2.71817 H 370 v -2.92308 c 0,-3.99462 -4.72537,-8.51853 -10.38696,-9.94414 -5.65004,-1.42269 -18.89823,-1.45897 -23.91634,-0.0655 -4.92594,1.36789 -9.55939,5.63689 -10.23799,9.4327 -0.98539,5.51185 2.14438,8.62904 15.50084,15.43857 12.91759,6.58578 15.9626,9.56785 12.89854,12.63191 -2.03222,2.03222 -7.75442,2.82301 -11.10809,1.5351 -2.16113,-0.82993 -2.75,-1.70379 -2.75,-4.08083 V 231 h -7.5 c -7.37229,0 -7.5,0.0434 -7.5,2.54966 0,5.58094 4.33727,10.0071 11.5,11.73568 4.65509,1.12341 19.41525,0.63203 24.26356,-0.80776 z m 112.82282,0.39635 c 2.45961,-0.61934 5.80888,-2.37488 7.44282,-3.90121 C 483.57232,238.5971 484,237.46355 484,233.09879 V 228 h -7 -7 v 3.87756 c 0,2.13265 -0.63485,4.40443 -1.41077,5.04839 -2.12118,1.76042 -7.73575,2.37146 -10.83923,1.17963 L 455,237.0495 V 222 206.9505 l 2.75,-1.05608 c 3.10348,-1.19183 8.71805,-0.58079 10.83923,1.17963 0.77592,0.64396 1.41077,2.46574 1.41077,4.04839 V 214 h 7 7 v -3.86514 c 0,-8.73596 -8.19387,-12.6659 -24.88706,-11.93634 -10.87454,0.47527 -16.87049,2.77918 -18.91588,7.26832 -1.79073,3.93023 -1.60923,29.83543 0.23401,33.39986 1.23671,2.39154 4.89624,4.63751 10.56893,6.48649 2.92587,0.95367 18.18124,0.62997 22.58638,-0.47926 z m 73.17718,-0.39635 C 552.76584,242.69509 556,239.18106 556,234.44187 c 0,-5.12418 -3.97762,-8.84705 -15.45767,-14.46769 -11.31812,-5.54136 -13.86823,-7.65967 -13.37269,-11.10834 0.42284,-2.94271 5.44304,-4.55065 10.08036,-3.22867 2.50402,0.71382 3.32263,1.55039 3.56642,3.64466 0.31261,2.68541 0.40602,2.71817 7.75,2.71817 H 556 v -2.92308 c 0,-3.99462 -4.72537,-8.51853 -10.38696,-9.94414 -5.65004,-1.42269 -18.89823,-1.45897 -23.91634,-0.0655 -4.92594,1.36789 -9.55939,5.63689 -10.23799,9.4327 -0.98539,5.51185 2.14438,8.62904 15.50084,15.43857 12.91759,6.58578 15.9626,9.56785 12.89854,12.63191 -2.03222,2.03222 -7.75442,2.82301 -11.10809,1.5351 -2.16113,-0.82993 -2.75,-1.70379 -2.75,-4.08083 V 231 h -7.5 c -7.37229,0 -7.5,0.0434 -7.5,2.54966 0,5.58094 4.33727,10.0071 11.5,11.73568 4.65509,1.12341 19.41525,0.63203 24.26356,-0.80776 z M 161,241.5 V 238 H 148.5 136 v -20 -20 h -8 -8 v 23.5 23.5 h 20.5 20.5 z m 35.90505,-1.03721 1.14249,-4.53721 9.19655,0.28721 9.19656,0.28721 1.11693,4 1.11693,4 7.66275,0.29206 c 4.2145,0.16064 7.6537,-0.0644 7.64265,-0.5 C 233.96886,243.85643 230.6831,233.375 226.67822,221 L 219.39663,198.5 207.94831,198.23795 196.5,197.9759 188.87632,221.48795 181.25265,245 h 7.25496 7.25496 z M 201.55898,225.25 c 0.80483,-2.6125 2.18841,-7.225 3.07464,-10.25 0.88622,-3.025 1.84971,-5.90538 2.14109,-6.40085 0.38348,-0.65206 7.18768,19.27836 7.22086,21.15085 0.002,0.1375 -3.12405,0.25 -6.94774,0.25 h -6.95217 z M 412,221.5 V 198 h -8 -8 v 23.5 23.5 h 8 8 z m 131.97377,-49.72638 c 23.5015,-8.5732 37.42242,-28.07608 37.31226,-52.27362 -0.0225,-4.95 -0.57005,-11.23583 -1.21671,-13.96852 C 576.5563,90.68586 564.93299,76.367886 551,69.722937 535.91894,62.53045 553.44954,63 300,63 96.486635,63 71.085337,63.169457 64.207842,64.573011 41.885474,69.128545 24.883288,85.03852 19.936897,106 c -2.795068,11.84475 -0.923852,28.18741 4.435072,38.73465 7.484951,14.7316 22.582517,25.74118 40.117937,29.25514 C 66.695458,174.43177 173.8,174.72737 302.5,174.64669 L 536.5,174.5 Z M 302.5,155.3239 c -13.27497,-2.9477 -22.47145,-12.94935 -22.49062,-24.45971 -0.0393,-23.60633 33.9412,-34.68108 52.35983,-17.06484 4.12936,3.94947 7.57283,10.26302 7.60883,13.95065 L 340,130 h -19.60589 -19.60588 l 0.36769,8.09674 c 0.33621,7.40333 0.60697,8.30256 3.16165,10.5 3.86823,3.32731 8.09926,3.14028 11.75935,-0.51982 2.14117,-2.14116 2.92308,-3.87989 2.92308,-6.5 V 138 h 10.10154 10.10154 l -2.46252,4.25 c -5.62664,9.71084 -21.71734,15.85467 -34.24056,13.0739 z M 319,119.92308 c 0,-3.17274 -0.64828,-4.72521 -2.92308,-7 -5.85596,-5.85596 -13.81375,-2.43754 -14.80535,6.35992 L 300.7399,124 H 309.86995 319 Z m 184.14677,35.06263 c -5.58668,-1.17639 -12.0585,-4.98221 -15.88676,-9.34236 -14.23814,-16.21634 -2.32691,-38.91261 21.21459,-40.42341 13.60665,-0.87323 24.39636,4.44767 29.73266,14.66253 8.46938,16.21225 -3.90327,34.24323 -24.43099,35.60389 -3.45195,0.22881 -8.23523,0.004 -10.6295,-0.50065 z m 11.76204,-5.43855 c 4.47446,-2.31384 5.28837,-5.76567 4.92055,-20.86839 -0.30951,-12.70897 -0.47543,-13.67912 -2.75367,-16.10129 -3.58137,-3.80764 -9.04666,-3.58912 -12.4868,0.49925 -2.51087,2.984 -2.58845,3.48876 -2.57415,16.75 0.0159,14.74325 0.77176,17.74693 5.00497,19.88882 3.20954,1.62395 4.47534,1.59693 7.8891,-0.16839 z m -82.08826,4.06921 c -9.04244,-2.45675 -14.96258,-9.02253 -17.03225,-18.88977 -2.83729,-13.52683 7.30813,-26.97814 21.41454,-28.39248 4.85881,-0.48715 8.07674,0.18397 15.04716,3.13817 1.61335,0.68377 1.75,-0.24277 1.75,-11.8653 V 85 h 9.5 9.5 v 34 34 h -9.41667 c -6.43871,0 -9.54325,-0.37975 -9.81693,-1.20081 -0.29708,-0.89122 -1.28539,-0.79194 -3.83334,0.38505 -5.0138,2.31606 -11.77606,2.88199 -17.11251,1.43213 z m 17.87369,-8.02979 c 2.79613,-2.40513 2.80576,-2.45636 2.80576,-14.91943 0,-11.85934 -0.12536,-12.63946 -2.42431,-15.08659 C 449.32803,113.72027 447.63223,113 445,113 c -2.63223,0 -4.32803,0.72027 -6.07569,2.58056 -2.29895,2.44713 -2.42431,3.22725 -2.42431,15.08659 0,12.46307 0.01,12.5143 2.80576,14.91943 C 440.87131,146.93321 443.38831,148 445,148 c 1.61169,0 4.12869,-1.06679 5.69424,-2.41342 z M 60,119 V 85 l 10.75,0.01 10.75,0.01 15,24.2403 15,24.24031 0.26778,-24.25 0.26778,-24.25 H 122.01778 132 v 34 34 H 121.72253 111.44507 L 96.472535,128.85348 81.5,104.70697 81.232221,128.85348 80.964443,153 H 70.482221 60 Z m 85,11.5 V 108 h 10 10 v 22.5 22.5 h -10 -10 z m 33,0 V 108 h 10.11663 c 9.6243,0 10.09118,0.0973 9.59362,2 -0.68834,2.63221 0.43042,2.52288 4.84592,-0.47356 10.26295,-6.96462 26.42467,-3.2213 32.44383,7.51453 2.31899,4.13619 2.52446,5.59937 2.83786,20.20903 L 238.17572,153 H 228.08786 218 v -15.77749 c 0,-17.47852 -0.53285,-19.29372 -6.38095,-21.73721 -3.94721,-1.64925 -7.86272,-0.91558 -11.09356,2.07866 C 198.02088,119.88515 198,120.04129 198,136.45225 V 153 h -10 -10 z m 72,-0.5 v -23 h -5.5 c -5.44444,0 -5.5,-0.0303 -5.5,-3 0,-2.9697 0.0556,-3 5.5,-3 H 250 V 96.5 92 h 10 10 v 4.5 4.5 h 5.5 c 5.44444,0 5.5,0.0303 5.5,3 0,2.9697 -0.0556,3 -5.5,3 H 270 v 23 23 h -10 -10 z m 98,0.5 V 108 h 9.5 c 8.83333,0 9.5,0.14035 9.5,2 0,1.1 0.1793,2 0.39845,2 0.21915,0 3.03165,-1.39481 6.25,-3.09957 5.29317,-2.8038 6.49748,-3.05497 12.62057,-2.63216 9.03675,0.624 15.0975,4.26164 18.67622,11.20941 2.35149,4.5652 2.58179,6.17567 2.89451,20.24107 L 408.1795,153 H 398.08975 388 l -0.0147,-15.25 c -0.0167,-17.25252 -0.60054,-19.31936 -6.2372,-22.07952 -3.17344,-1.55396 -4.27586,-1.65139 -7.3195,-0.6469 -6.41552,2.11731 -7.42052,5.19351 -7.42482,22.72642 L 367,153 H 357.5 348 Z M 540.41844,105.08551 C 536.24644,103.2888 533,98.16347 533,93.37362 533,84.87332 537.73718,80 546,80 c 8.29608,0 13,4.87219 13,13.46502 0,3.77293 -0.57428,5.191 -3.31203,8.1784 -2.7943,3.04911 -4.08391,3.67067 -8.25,3.97629 -2.71588,0.19923 -5.87467,-0.0412 -7.01953,-0.5342 z M 553,102.14294 c 3.47114,-2.54638 5.35932,-8.52417 3.99666,-12.65306 C 555.23756,84.15975 551.57688,81.5 546,81.5 c -5.77291,0 -9.41201,2.80542 -11.14584,8.59244 -0.93437,3.11865 -0.81176,4.32743 0.76682,7.55988 3.39474,6.95143 11.25566,8.98263 17.37902,4.49062 z m -4.09273,-4.33536 C 544.9708,92.17336 543,91.92362 543,97.05902 543,98.67656 542.55,100 542,100 c -0.57778,0 -1,-3.16667 -1,-7.5 V 85 h 3.92857 C 548.57516,85 552,86.93227 552,88.98964 552,90.9757 550.68407,93 549.39301,93 c -1.94918,0 -1.73846,1.29111 0.72099,4.4178 1.16271,1.47814 1.8868,2.91474 1.6091,3.19244 -0.27771,0.2777 -1.54483,-0.9835 -2.81583,-2.80266 z M 549.5,89.5 c 0,-1.52546 -0.77112,-2.07435 -3.25,-2.31336 C 543.32866,86.90497 543,87.13894 543,89.5 c 0,2.36109 0.32866,2.59503 3.25,2.31336 2.47888,-0.23901 3.25,-0.7879 3.25,-2.31336 z M 145,91.5 V 85 h 10 10 v 6.5 6.5 h -10 -10 z"
       id="path1" />
  </g>
</svg>
