<?xml version="1.0" encoding="UTF-8" standalone="no"?>
<!-- Created with Inkscape (http://www.inkscape.org/) -->

<svg
   width="200mm"
   height="40mm"
   viewBox="0 0 200 40"
   version="1.1"
   id="svg1"
   inkscape:version="1.3.2 (091e20ef0f, 2023-11-25)"
   sodipodi:docname="auto-rpgdungeoncrawler.svg"
   xmlns:inkscape="http://www.inkscape.org/namespaces/inkscape"
   xmlns:sodipodi="http://sodipodi.sourceforge.net/DTD/sodipodi-0.dtd"
   xmlns="http://www.w3.org/2000/svg"
   xmlns:svg="http://www.w3.org/2000/svg">
  <sodipodi:namedview
     id="namedview1"
     pagecolor="#505050"
     bordercolor="#eeeeee"
     borderopacity="1"
     inkscape:showpageshadow="0"
     inkscape:pageopacity="0"
     inkscape:pagecheckerboard="0"
     inkscape:deskcolor="#505050"
     inkscape:document-units="mm"
     showgrid="true"
     inkscape:zoom="0.57074403"
     inkscape:cx="-487.95955"
     inkscape:cy="503.72844"
     inkscape:window-width="2560"
     inkscape:window-height="1440"
     inkscape:window-x="1920"
     inkscape:window-y="0"
     inkscape:window-maximized="1"
     inkscape:current-layer="layer1">
    <inkscape:grid
       id="grid1"
       units="mm"
       originx="-4.233336"
       originy="-0.89679497"
       spacingx="0.99999995"
       spacingy="0.99999997"
       empcolor="#0099e5"
       empopacity="0.30196078"
       color="#0099e5"
       opacity="0.14901961"
       empspacing="5"
       dotted="false"
       gridanglex="30"
       gridanglez="30"
       visible="true" />
  </sodipodi:namedview>
  <defs
     id="defs1" />
  <g
     inkscape:label="Calque 1"
     inkscape:groupmode="layer"
     id="layer1"
     transform="translate(-15.804614,-115.16002)">
    <!--!Font Awesome Free 6.5.1 by @fontawesome - https://fontawesome.com License - https://fontawesome.com/license/free Copyright 2024 Fonticons, Inc.-->
    <g
       id="g1"
       transform="matrix(4.635738,0,0,4.635738,-39.373795,-418.19164)">
      <path
         d="m 21.063989,117.81176 c 0.02031,0.0172 0.04219,0.0344 0.06094,0.0515 0.145312,0.12812 0.359374,0.16406 0.521874,0.0563 l 1.05625,-0.70468 c 0.178125,-0.11876 0.221875,-0.3625 0.07969,-0.52188 -0.259376,-0.28594 -0.557813,-0.53594 -0.889063,-0.73906 -0.185937,-0.11406 -0.420312,-0.0219 -0.501562,0.18125 l -0.476563,1.19062 c -0.07031,0.17344 0.0031,0.36875 0.148438,0.4875 z m -0.134375,-1.87031 c 0.07969,-0.2 -0.025,-0.42813 -0.234375,-0.47657 -0.285938,-0.0641 -0.584375,-0.0984 -0.890625,-0.0984 -0.30625,0 -0.604687,0.0344 -0.890625,0.1 -0.210938,0.0469 -0.315625,0.275 -0.234375,0.475 l 0.473437,1.18437 c 0.07031,0.17657 0.2625,0.26876 0.453126,0.25 0.06563,-0.006 0.13125,-0.009 0.198437,-0.009 0.06719,0 0.134375,0.003 0.198437,0.009 0.189063,0.0187 0.38125,-0.0734 0.453126,-0.25 z m -4.101563,0.75313 c -0.142187,0.15936 -0.09844,0.40312 0.07969,0.52187 l 1.05625,0.70469 c 0.160938,0.10781 0.376562,0.0719 0.521875,-0.0563 0.02031,-0.0172 0.04063,-0.0359 0.0625,-0.0515 0.145313,-0.11719 0.217187,-0.31406 0.148437,-0.4875 l -0.479687,-1.19063 c -0.08125,-0.20156 -0.317187,-0.29375 -0.501563,-0.18125 -0.33125,0.20313 -0.629687,0.45313 -0.8875,0.74063 z m 4.90625,2.14217 c 0.01406,0.0515 0.02656,0.10313 0.03594,0.15625 0.03906,0.20313 0.203125,0.37345 0.409375,0.37345 h 1.25 c 0.207812,0 0.376562,-0.16876 0.357812,-0.375 -0.03906,-0.425 -0.145313,-0.83125 -0.307813,-1.20781 -0.08594,-0.20156 -0.334374,-0.25938 -0.517187,-0.13906 l -1.071875,0.71406 c -0.153125,0.10156 -0.20625,0.3 -0.15625,0.47656 z m -5.0875,-1.19217 c -0.18125,-0.12188 -0.43125,-0.0625 -0.517187,0.13906 -0.1625,0.37656 -0.26875,0.78281 -0.307813,1.20781 -0.01875,0.20624 0.15,0.375 0.357813,0.375 h 1.25 c 0.207813,0 0.371875,-0.16876 0.409375,-0.37345 0.0094,-0.0531 0.02187,-0.10469 0.03594,-0.15625 0.04844,-0.17812 -0.0031,-0.375 -0.15625,-0.47656 z m 0.782813,2.22187 h -1.25 c -0.207813,0 -0.375,0.16719 -0.375,0.375 v 0.75 c 0,0.2078 0.167187,0.375 0.375,0.375 h 1.25 c 0.207813,0 0.375,-0.1672 0.375,-0.375 v -0.75 c 0,-0.20781 -0.167187,-0.375 -0.375,-0.375 z m 4.75,0 c -0.207813,0 -0.375,0.16719 -0.375,0.375 v 0.75 c 0,0.2078 0.167187,0.375 0.375,0.375 h 1.25 c 0.207812,0 0.375,-0.1672 0.375,-0.375 v -0.75 c 0,-0.20781 -0.167188,-0.375 -0.375,-0.375 z m -6,2 c -0.207813,0 -0.375,0.16719 -0.375,0.375 v 0.75 c 0,0.2078 0.167187,0.375 0.375,0.375 h 1.25 c 0.207813,0 0.375,-0.1672 0.375,-0.375 v -0.75 c 0,-0.20781 -0.167187,-0.375 -0.375,-0.375 z m 6,0 c -0.207813,0 -0.375,0.16719 -0.375,0.375 v 0.75 c 0,0.2078 0.167187,0.375 0.375,0.375 h 1.25 c 0.207812,0 0.375,-0.1672 0.375,-0.375 v -0.75 c 0,-0.20781 -0.167188,-0.375 -0.375,-0.375 z m -2.125,-3.5 c 0,-0.13751 -0.1125,-0.25 -0.25,-0.25 -0.1375,0 -0.25,0.11249 -0.25,0.25 v 4.25 c 0,0.1375 0.1125,0.25 0.25,0.25 0.1375,0 0.25,-0.1125 0.25,-0.25 z m -1,0.5 c 0,-0.13751 -0.1125,-0.25 -0.25,-0.25 -0.1375,0 -0.25,0.11249 -0.25,0.25 v 3.75 c 0,0.1375 0.1125,0.25 0.25,0.25 0.1375,0 0.25,-0.1125 0.25,-0.25 z m 2,0 c 0,-0.13751 -0.1125,-0.25 -0.25,-0.25 -0.1375,0 -0.25,0.11249 -0.25,0.25 v 3.75 c 0,0.1375 0.1125,0.25 0.25,0.25 0.1375,0 0.25,-0.1125 0.25,-0.25 z"
         id="path1"
         style="fill:#306230;stroke-width:0.015625" />
      <g
         id="g2"
         transform="translate(0,6.785915)">
        <path
           d="m 46.919973,108.4657 q 0.72061,0 1.105343,0.17099 0.384733,0.16489 0.543512,0.57405 0.158778,0.40305 0.158778,1.16641 0,0.76336 -0.158778,1.16641 -0.158779,0.40306 -0.543512,0.57405 -0.384733,0.16488 -1.105343,0.16488 h -1.703817 v -3.81679 z m -0.482443,2.86412 h 0.500763 q 0.268703,0 0.372519,-0.0794 0.103817,-0.0855 0.103817,-0.30534 v -1.14199 q 0,-0.21984 -0.103817,-0.29923 -0.103816,-0.0855 -0.372519,-0.0855 H 46.43753 Z m 4.403058,1.04428 q -0.68397,0 -1.038168,-0.12825 -0.354199,-0.13435 -0.500764,-0.45191 -0.146565,-0.32366 -0.146565,-0.94045 v -2.38779 h 1.221375 v 2.86412 h 0.488549 q 0.274809,0 0.360305,-0.0611 0.0916,-0.0672 0.0916,-0.26259 v -2.54046 h 1.221374 v 2.38779 q 0,0.61068 -0.146565,0.93435 -0.146565,0.32366 -0.506871,0.45801 -0.360305,0.12825 -1.044274,0.12825 z m 2.277867,-3.9084 h 1.20916 l 0.830535,1.3374 q 0.152671,0.25649 0.152671,0.43359 h 0.03664 v -1.77099 h 1.221374 v 3.81679 h -1.209161 l -0.830534,-1.3374 q -0.15267,-0.25649 -0.15267,-0.43359 h -0.03664 v 1.77099 h -1.221374 z m 7.145033,1.53282 v 2.10077 q -0.31145,0.14656 -0.683969,0.20763 -0.366412,0.0672 -0.879389,0.0672 -0.641222,0 -0.983206,-0.1771 -0.341985,-0.1771 -0.48855,-0.59848 -0.140458,-0.42748 -0.140458,-1.22137 0,-0.79389 0.158779,-1.21527 0.158778,-0.42748 0.543511,-0.60458 0.384733,-0.1832 1.09313,-0.1832 0.31145,0 0.671755,0.0489 0.366413,0.0489 0.525191,0.10993 l -0.152671,0.96488 q -0.219848,-0.0489 -0.494657,-0.0794 -0.268702,-0.0366 -0.458015,-0.0366 -0.329771,0 -0.451909,0.0916 -0.122137,0.0916 -0.122137,0.33588 v 1.58168 h 0.70229 v -0.50687 h -0.31145 v -0.8855 z m 1.679394,1.27634 h 1.435114 v 1.00763 h -2.656488 v -3.81679 h 2.687023 l -0.152672,1.00763 h -1.312977 v 0.45802 h 1.221374 v 0.88549 h -1.221374 z m 1.832064,-0.89771 q 0,-0.76947 0.170992,-1.19695 0.170992,-0.43358 0.561832,-0.61679 0.396947,-0.18931 1.099237,-0.18931 0.70229,0 1.09313,0.18931 0.396946,0.18321 0.567938,0.61679 0.170993,0.42748 0.170993,1.19695 0,0.76947 -0.170993,1.19695 -0.170992,0.42748 -0.567938,0.61679 -0.39084,0.18321 -1.09313,0.18321 -0.70229,0 -1.099237,-0.18321 -0.39084,-0.18931 -0.561832,-0.61679 -0.170992,-0.42748 -0.170992,-1.19695 z m 1.868702,0.95267 q 0.274809,0 0.378626,-0.0672 0.103817,-0.0733 0.103817,-0.25649 v -1.58779 h -0.561832 q -0.268703,0 -0.372519,0.0733 -0.103817,0.0672 -0.103817,0.25039 v 1.58778 z m 2.314502,-2.86412 h 1.209161 l 0.830534,1.3374 q 0.152672,0.25649 0.152672,0.43359 h 0.03664 v -1.77099 h 1.221374 v 3.81679 h -1.20916 l -0.830535,-1.3374 q -0.152671,-0.25649 -0.152671,-0.43359 h -0.03664 v 1.77099 H 67.95815 Z"
           id="text1"
           style="font-weight:800;font-size:6.10687px;font-family:Changa;-inkscape-font-specification:'Changa, Ultra-Bold';fill:#306230;stroke-width:0.112207"
           transform="skewX(-10.582443)"
           aria-label="DUNGEON" />
        <path
           d="m 47.703239,116.62827 q -0.238168,0.0855 -0.50687,0.12213 -0.262596,0.0366 -0.629008,0.0366 -0.647328,0 -1.007633,-0.18321 -0.354199,-0.18321 -0.512977,-0.61069 -0.152672,-0.43359 -0.152672,-1.20305 0,-0.77557 0.164885,-1.20305 0.164886,-0.42749 0.549619,-0.61069 0.384732,-0.18931 1.080916,-0.18931 0.262595,0 0.567939,0.0489 0.31145,0.0489 0.445801,0.10992 l -0.152672,0.96489 q -0.177099,-0.0489 -0.403053,-0.0794 -0.219847,-0.0366 -0.366412,-0.0366 -0.329771,0 -0.451909,0.0916 -0.122137,0.0916 -0.122137,0.33588 v 1.47786 q 0.274809,0.0489 0.482443,0.0489 0.250381,0 0.494656,-0.0366 0.250382,-0.0427 0.427481,-0.10993 z m 2.491605,0.0672 -0.519084,-1.10534 h -0.323665 v 1.10534 h -1.221374 v -3.81679 h 1.770993 q 0.781679,0 1.123664,0.32977 0.341985,0.32977 0.341985,1.08092 0,0.78778 -0.470229,1.08702 l 0.6229,1.31908 z m -0.842749,-1.99084 h 0.494657 q 0.134351,0 0.183206,-0.055 0.05496,-0.055 0.05496,-0.20153 v -0.30534 q 0,-0.14656 -0.05496,-0.20153 -0.04886,-0.055 -0.183206,-0.055 h -0.494657 z m 4.800001,1.38626 h -1.105344 l -0.152672,0.60458 h -1.221374 l 0.977099,-3.81679 h 1.899237 l 0.977099,3.81679 h -1.221374 z m -0.232062,-0.88549 -0.293129,-1.1542 h -0.05496 l -0.29313,1.1542 z m 7.065658,-2.32672 -0.50687,3.81679 h -1.819848 l -0.354198,-2.30229 -0.360305,2.30229 h -1.819848 l -0.50687,-3.81679 h 1.221374 l 0.323664,2.64427 h 0.05496 l 0.421374,-2.64427 h 1.325191 l 0.421374,2.64427 h 0.05496 l 0.323664,-2.64427 z m 0.45802,0 h 1.221374 v 2.80916 h 1.160305 v 1.00763 h -2.381679 z m 3.938928,2.80916 h 1.435115 v 1.00763 h -2.656489 v -3.81679 h 2.687023 l -0.152672,1.00763 H 65.38264 v 0.45802 h 1.221374 v 0.88549 H 65.38264 Z m 4.018324,1.00763 -0.519084,-1.10534 h -0.323665 v 1.10534 h -1.221374 v -3.81679 h 1.770993 q 0.781679,0 1.123664,0.32977 0.341985,0.32977 0.341985,1.08092 0,0.78778 -0.470229,1.08702 l 0.6229,1.31908 z m -0.842749,-1.99084 h 0.494657 q 0.134351,0 0.183206,-0.055 0.05496,-0.055 0.05496,-0.20153 v -0.30534 q 0,-0.14656 -0.05496,-0.20153 -0.04886,-0.055 -0.183206,-0.055 h -0.494657 z"
           id="text2"
           style="font-weight:800;font-size:6.10687px;font-family:Changa;-inkscape-font-specification:'Changa, Ultra-Bold';fill:#306230;stroke-width:0.112207"
           transform="skewX(-10.029848)"
           aria-label="CRAWLER" />
      </g>
    </g>
  </g>
</svg>
