<?xml version="1.0" encoding="UTF-8" standalone="no"?>
<!-- Created with Inkscape (http://www.inkscape.org/) -->

<svg
   width="84.115501mm"
   height="8mm"
   viewBox="0 0 84.1155 8"
   version="1.1"
   id="svg1"
   inkscape:version="1.3.2 (091e20ef0f, 2023-11-25)"
   sodipodi:docname="auto-rpgtactical.svg"
   xmlns:inkscape="http://www.inkscape.org/namespaces/inkscape"
   xmlns:sodipodi="http://sodipodi.sourceforge.net/DTD/sodipodi-0.dtd"
   xmlns="http://www.w3.org/2000/svg"
   xmlns:svg="http://www.w3.org/2000/svg">
  <sodipodi:namedview
     id="namedview1"
     pagecolor="#505050"
     bordercolor="#eeeeee"
     borderopacity="1"
     inkscape:showpageshadow="0"
     inkscape:pageopacity="0"
     inkscape:pagecheckerboard="0"
     inkscape:deskcolor="#505050"
     inkscape:document-units="mm"
     showgrid="true"
     inkscape:zoom="2.2829762"
     inkscape:cx="66.141732"
     inkscape:cy="63.513584"
     inkscape:window-width="1264"
     inkscape:window-height="1389"
     inkscape:window-x="3204"
     inkscape:window-y="8"
     inkscape:window-maximized="1"
     inkscape:current-layer="layer1">
    <inkscape:grid
       id="grid1"
       units="mm"
       originx="18.681957"
       originy="-0.58345867"
       spacingx="0.99999998"
       spacingy="1"
       empcolor="#0099e5"
       empopacity="0.30196078"
       color="#0099e5"
       opacity="0.14901961"
       empspacing="5"
       dotted="false"
       gridanglex="30"
       gridanglez="30"
       visible="true" />
  </sodipodi:namedview>
  <defs
     id="defs1">
    <rect
       x="-431.92465"
       y="-190.7057"
       width="85.893265"
       height="121.50705"
       id="rect3" />
  </defs>
  <g
     inkscape:label="Calque 1"
     inkscape:groupmode="layer"
     id="layer1"
     transform="translate(18.681958,-0.5834587)">
    <!--!Font Awesome Free 6.5.1 by @fontawesome - https://fontawesome.com License - https://fontawesome.com/license/free Copyright 2024 Fonticons, Inc.-->
    <!--!Font Awesome Free 6.5.1 by @fontawesome - https://fontawesome.com License - https://fontawesome.com/license/free Copyright 2024 Fonticons, Inc.-->
    <!--!Font Awesome Free 6.5.1 by @fontawesome - https://fontawesome.com License - https://fontawesome.com/license/free Copyright 2024 Fonticons, Inc.-->
    <path
       d="m -18.534004,0.7299292 c 0.195294,-0.195294 0.510888,-0.195294 0.706181,0 l 1.646714,1.645152 v -0.292159 c 0,-0.276536 0.223416,-0.499951 0.499952,-0.499951 0.276535,0 0.499951,0.223415 0.499951,0.499951 v 1.499853 c 0,0.06718 -0.01406,0.1328 -0.0375,0.190607 -0.025,0.05781 -0.05937,0.114051 -0.107802,0.160921 l -0.0016,0.0016 c -0.04843,0.04687 -0.103115,0.0828 -0.160922,0.107802 -0.05937,0.025 -0.123425,0.0375 -0.190606,0.0375 h -1.501416 c -0.276535,0 -0.499951,-0.223416 -0.499951,-0.499951 0,-0.276536 0.223416,-0.499951 0.499951,-0.499951 h 0.292159 l -1.645152,-1.645152 c -0.195293,-0.195294 -0.195293,-0.510888 0,-0.706181 z m 3.852749,3.852749 a 0.9999025,0.9999025 0 1 1 1.999805,0 0.9999025,0.9999025 0 1 1 -1.999805,0 z m -2.207597,1.499853 h -0.292159 c -0.276535,0 -0.499951,-0.223416 -0.499951,-0.499951 0,-0.276536 0.223416,-0.499951 0.499951,-0.499951 h 1.499854 v 0 h 0.0016 c 0.137487,0 0.260912,0.05624 0.351528,0.145298 l 0.0016,0.0016 c 0.04687,0.04843 0.0828,0.103114 0.107802,0.160921 0.025,0.05937 0.0375,0.123426 0.0375,0.190607 v 1.499853 c 0,0.276536 -0.223416,0.499951 -0.499951,0.499951 -0.276536,0 -0.499951,-0.223415 -0.499951,-0.499951 v -0.290596 l -1.646715,1.645151 c -0.195293,0.195294 -0.51245,0.195294 -0.707743,0 -0.195294,-0.195293 -0.195294,-0.512449 0,-0.707743 z m 4.707353,-3.999609 c 0,-0.276536 0.223416,-0.499951 0.499951,-0.499951 0.276536,0 0.499951,0.223415 0.499951,0.499951 v 0.292159 l 1.6467137,-1.645152 c 0.1952937,-0.195294 0.5124507,-0.195294 0.7077432,0 0.195293,0.195293 0.195293,0.51245 0,0.707743 l -1.6467139,1.645152 h 0.292159 c 0.2765357,0 0.4999517,0.223416 0.4999517,0.499951 0,0.276536 -0.223416,0.499951 -0.4999517,0.499951 h -1.499853 c -0.137487,0 -0.262474,-0.05624 -0.35309,-0.145298 l -0.0016,-0.0016 c -0.04687,-0.04843 -0.0828,-0.103115 -0.107802,-0.160922 -0.025,-0.05781 -0.0375,-0.121863 -0.0375,-0.190606 v -0.0016 0 z m 1.707645,3.999609 1.6451509,1.646714 c 0.195294,0.195294 0.195294,0.51245 0,0.707744 -0.1952925,0.195293 -0.5124485,0.195293 -0.7077422,0 l -1.6451517,-1.646714 v 0.292158 c 0,0.276536 -0.223415,0.499952 -0.499951,0.499952 -0.276535,0 -0.499951,-0.223416 -0.499951,-0.499952 v -1.499853 0 c 0,0 0,-0.0016 0,-0.0016 0,-0.06718 0.01406,-0.131238 0.0375,-0.190607 0.025,-0.05937 0.06093,-0.114051 0.107802,-0.162484 0.09062,-0.09062 0.214042,-0.145298 0.351529,-0.146861 0,0 0.0016,0 0.0016,0 v 0 h 1.499854 c 0.2765357,0 0.4999507,0.223416 0.4999507,0.499952 0,0.276535 -0.223415,0.499951 -0.4999507,0.499951 h -0.290597 z"
       id="path1"
       style="fill:#306230;stroke-width:0.0156235" />
    <path
       d="M -2.9558424,8.4002399 H -5.3985825 V 2.7819378 h -1.709918 V 0.76667726 h 5.8625761 V 2.7819378 h -1.709918 z M 3.4074947,7.1910836 H 1.1968149 L 0.8914724,8.4002399 H -1.5512677 L 0.40292439,0.76667726 H 4.2013852 l 1.954192,7.63356264 h -2.44274 z M 2.9433741,5.4200971 2.3571164,3.1117077 H 2.2471931 L 1.6609355,5.4200971 Z m 9.2579939,2.8457921 q -0.476334,0.1709918 -1.013737,0.244274 -0.525189,0.073282 -1.2580113,0.073282 -1.2946523,0 -2.0152606,-0.366411 Q 7.2059645,7.8506234 6.8884083,6.9956644 6.5830658,6.1284917 6.5830658,4.5895655 q 0,-1.55114 0.3297699,-2.406099 0.3297699,-0.854959 1.099233,-1.22137003 0.7694631,-0.37862471 2.1618253,-0.37862471 0.525189,0 1.135874,0.0977096 0.622899,0.0977096 0.8916,0.2198466 L 11.896025,2.8307926 q -0.354197,-0.09771 -0.806104,-0.1587781 -0.439693,-0.073282 -0.732822,-0.073282 -0.6595396,0 -0.9038136,0.1832055 -0.2442741,0.1832055 -0.2442741,0.6717535 v 2.9557155 q 0.5496166,0.09771 0.9648827,0.09771 0.500761,0 0.989309,-0.073282 0.500762,-0.085496 0.854959,-0.2198466 z m 4.458003,0.1343507 h -2.44274 V 2.7819378 H 12.506713 V 0.76667726 h 5.862576 V 2.7819378 H 16.659371 Z M 21.48378,0.76667726 V 8.4002399 H 19.04104 V 0.76667726 Z m 6.595389,7.49921194 q -0.476334,0.1709918 -1.013737,0.244274 -0.525189,0.073282 -1.258011,0.073282 -1.294653,0 -2.015261,-0.366411 -0.708395,-0.366411 -1.025951,-1.22137 -0.305342,-0.8671727 -0.305342,-2.4060989 0,-1.55114 0.32977,-2.406099 0.32977,-0.854959 1.099233,-1.22137003 0.769463,-0.37862471 2.161825,-0.37862471 0.525189,0 1.135874,0.0977096 0.622898,0.0977096 0.8916,0.2198466 L 27.773826,2.8307926 Q 27.419629,2.733083 26.967722,2.6720145 26.528029,2.5987323 26.2349,2.5987323 q -0.65954,0 -0.903814,0.1832055 -0.244274,0.1832055 -0.244274,0.6717535 v 2.9557155 q 0.549617,0.09771 0.964883,0.09771 0.500761,0 0.989309,-0.073282 0.500762,-0.085496 0.854959,-0.2198466 z m 5.264108,-1.0748056 h -2.21068 l -0.305342,1.2091563 h -2.44274 l 1.954192,-7.63356264 h 3.798461 L 36.09136,8.4002399 H 33.64862 Z M 32.879156,5.4200971 32.292899,3.1117077 h -0.109923 l -0.586258,2.3083894 z m 3.883966,-4.65341984 h 2.44274 V 6.3849794 h 2.320603 V 8.4002399 H 36.763122 Z M 48.769195,8.4002399 47.73103,6.1895602 h -0.647326 v 2.2106797 h -2.44274 V 0.76667726 h 3.541973 q 1.563354,0 2.247321,0.65953984 0.683967,0.6595398 0.683967,2.1618249 0,1.5755674 -0.940455,2.1740387 l 1.245798,2.6381592 z M 47.083704,4.4185736 h 0.98931 q 0.268701,0 0.366411,-0.1099233 0.109923,-0.1099233 0.109923,-0.4030521 v -0.610685 q 0,-0.2931288 -0.109923,-0.4030521 -0.09771,-0.1099233 -0.366411,-0.1099233 h -0.98931 z m 7.633564,3.9816663 h -2.44274 V 0.76667726 h 3.480905 q 1.563353,0 2.247321,0.65953984 0.683967,0.6595398 0.683967,2.1618249 0,1.5144989 -0.671754,2.2473209 -0.671753,0.7206083 -2.076329,0.7206083 h -1.22137 z m 0.928241,-3.6152552 q 0.268702,0 0.366411,-0.1099233 0.109924,-0.1099233 0.109924,-0.4030522 v -0.977096 q 0,-0.2931288 -0.109924,-0.4030521 -0.09771,-0.1099233 -0.366411,-0.1099233 H 54.717268 V 4.7849847 Z M 65.587464,3.832316 v 4.2015129 q -0.622899,0.2931288 -1.367935,0.4152658 -0.732822,0.1343507 -1.758773,0.1343507 -1.282438,0 -1.966406,-0.3541973 -0.683967,-0.3541973 -0.977096,-1.1969426 -0.280915,-0.854959 -0.280915,-2.44274 0,-1.5877811 0.317557,-2.4305264 0.317556,-0.854959 1.087019,-1.20915634 0.769463,-0.366411 2.186252,-0.366411 0.622899,0 1.343507,0.0977096 0.732822,0.0977096 1.050379,0.2198466 L 64.91571,2.8307926 q -0.439693,-0.09771 -0.98931,-0.1587781 -0.537403,-0.073282 -0.916027,-0.073282 -0.65954,0 -0.903814,0.1832055 -0.244274,0.1832055 -0.244274,0.6717535 V 6.6170397 H 63.26686 V 5.6033026 H 62.643962 V 3.832316 Z"
       id="text2"
       style="font-weight:800;font-size:12.2137px;font-family:Changa;-inkscape-font-specification:'Changa, Ultra-Bold';fill:#306230;stroke-width:0.381679"
       transform="skewX(-14.777853)"
       aria-label="TACTICAL RPG" />
  </g>
</svg>
