<?xml version="1.0" encoding="UTF-8" standalone="no"?>
<!-- Created with Inkscape (http://www.inkscape.org/) -->

<svg
   version="1.1"
   id="svg1"
   width="597.89667"
   height="221.70941"
   viewBox="0 0 597.89667 221.70941"
   sodipodi:docname="logo.png"
   xmlns:inkscape="http://www.inkscape.org/namespaces/inkscape"
   xmlns:sodipodi="http://sodipodi.sourceforge.net/DTD/sodipodi-0.dtd"
   xmlns="http://www.w3.org/2000/svg"
   xmlns:svg="http://www.w3.org/2000/svg">
  <defs
     id="defs1" />
  <sodipodi:namedview
     id="namedview1"
     pagecolor="#306230"
     bordercolor="#000000"
     borderopacity="0.25"
     inkscape:showpageshadow="2"
     inkscape:pageopacity="0.0"
     inkscape:pagecheckerboard="0"
     inkscape:deskcolor="#d1d1d1" />
  <g
     inkscape:groupmode="layer"
     inkscape:label="Image"
     id="g1"
     transform="translate(-1.6491674,-39.097565)">
    <path
       style="fill:#306230"
       d="M 28.204958,259.10959 C 14.380895,254.32472 4.9854709,240.12503 6.2700492,225.95847 7.2971378,214.63156 14.428862,204.39232 24.858493,199.27047 L 30.5,196.5 h 270 270 l 5.64151,2.77047 c 6.59237,3.23742 13.14939,9.94486 16.18265,16.55386 3.0093,6.55683 3.0093,18.79451 0,25.35134 -3.03326,6.609 -9.59028,13.31644 -16.18265,16.55386 L 570.5,260.5 302,260.72117 c -258.058373,0.21257 -268.705918,0.1499 -273.795042,-1.61158 z m 56.511606,-8.94976 C 89.81433,247.54073 91,245.54165 91,239.56574 V 235 h -7 -7 v 3.9433 c 0,2.94127 -0.564757,4.33886 -2.222506,5.5 C 71.59197,246.67452 65.443084,246.44308 63,244 c -1.794872,-1.79487 -2,-3.33333 -2,-15 0,-11.66667 0.205128,-13.20513 2,-15 2.443084,-2.44308 8.59197,-2.67452 11.777494,-0.4433 C 76.218165,214.56579 77,216.1488 77,218.0567 V 221 h 7 7 v -4.07692 C 91,208.94953 83.425038,205 68.13228,205 59.027287,205 51.810076,207.24857 48.575049,211.09318 46.061364,214.08052 46,214.50725 46,229 c 0,14.50615 0.05925,14.91696 2.584055,17.91752 3.810754,4.52883 9.937438,6.13297 21.915945,5.73823 7.837833,-0.25829 10.911692,-0.79795 14.216564,-2.49592 z m 209.999996,0 C 299.45568,247.72499 301,245.50874 301,241.14247 301,236.46134 296.92823,232.7001 286.27795,227.54318 275.2252,222.19139 272,219.66545 272,216.36087 272,213.57032 274.67703,212 279.43426,212 c 3.75481,0 7.56574,2.77039 7.56574,5.5 0,1.19048 1.44444,1.5 7,1.5 6.27712,0 7,-0.20168 7,-1.95295 0,-7.15224 -6.57506,-11.1466 -19.45748,-11.82043 C 265.82711,204.4046 256.8,208.52191 256.8,216.5118 c 0,5.28496 3.79956,8.77588 16.16167,14.84884 7.47662,3.67294 10.9006,5.94132 12,7.94999 1.45697,2.66198 1.41347,2.91321 -0.82245,4.75 C 279.22327,248.09905 270,245.45022 270,240 c 0,-1.80952 -0.66667,-2 -7,-2 -6.76419,0 -7,0.0826 -7,2.45295 0,3.81339 1.88207,7.04617 5.26586,9.04502 4.82783,2.85187 8.46266,3.44221 19.23414,3.12382 7.88746,-0.23314 10.89077,-0.75324 14.21656,-2.46196 z m 69,0 C 368.45568,247.72499 370,245.50874 370,241.14247 370,236.46134 365.92823,232.7001 355.27795,227.54318 344.2252,222.19139 341,219.66545 341,216.36087 341,213.57032 343.67703,212 348.43426,212 c 3.75481,0 7.56574,2.77039 7.56574,5.5 0,1.19048 1.44444,1.5 7,1.5 6.27712,0 7,-0.20168 7,-1.95295 0,-7.15224 -6.57506,-11.1466 -19.45748,-11.82043 C 334.82711,204.4046 325.8,208.52191 325.8,216.5118 c 0,5.28496 3.79956,8.77588 16.16167,14.84884 7.47662,3.67294 10.9006,5.94132 12,7.94999 1.45697,2.66198 1.41347,2.91321 -0.82245,4.75 C 348.22327,248.09905 339,245.45022 339,240 c 0,-1.80952 -0.66667,-2 -7,-2 -6.76419,0 -7,0.0826 -7,2.45295 0,3.81339 1.88207,7.04617 5.26586,9.04502 4.82783,2.85187 8.46266,3.44221 19.23414,3.12382 7.88746,-0.23314 10.89077,-0.75324 14.21656,-2.46196 z m 114,0 C 482.81433,247.54073 484,245.54165 484,239.56574 V 235 h -7 -7 v 3.9433 c 0,2.94127 -0.56476,4.33886 -2.22251,5.5 -3.18552,2.23122 -9.33441,1.99978 -11.77749,-0.4433 -1.79487,-1.79487 -2,-3.33333 -2,-15 0,-11.66667 0.20513,-13.20513 2,-15 2.44308,-2.44308 8.59197,-2.67452 11.77749,-0.4433 1.44067,1.00909 2.22251,2.5921 2.22251,4.5 V 221 h 7 7 v -4.07692 C 484,208.94953 476.42504,205 461.13228,205 c -9.10499,0 -16.3222,2.24857 -19.55723,6.09318 C 439.06136,214.08052 439,214.50725 439,229 c 0,14.50615 0.0593,14.91696 2.58405,17.91752 3.81076,4.52883 9.93744,6.13297 21.91595,5.73823 7.83783,-0.25829 10.91169,-0.79795 14.21656,-2.49592 z m 72,0 C 554.45568,247.72499 556,245.50874 556,241.14247 556,236.46134 551.92823,232.7001 541.27795,227.54318 530.2252,222.19139 527,219.66545 527,216.36087 527,213.57032 529.67703,212 534.43426,212 c 3.75481,0 7.56574,2.77039 7.56574,5.5 0,1.19048 1.44444,1.5 7,1.5 6.27712,0 7,-0.20168 7,-1.95295 0,-7.15224 -6.57506,-11.1466 -19.45748,-11.82043 C 520.82711,204.4046 511.8,208.52191 511.8,216.5118 c 0,5.28496 3.79956,8.77588 16.16167,14.84884 7.47662,3.67294 10.9006,5.94132 12,7.94999 1.45697,2.66198 1.41347,2.91321 -0.82245,4.75 C 534.22327,248.09905 525,245.45022 525,240 c 0,-1.80952 -0.66667,-2 -7,-2 -6.76419,0 -7,0.0826 -7,2.45295 0,3.81339 1.88207,7.04617 5.26586,9.04502 4.82783,2.85187 8.46266,3.44221 19.23414,3.12382 7.88746,-0.23314 10.89077,-0.75324 14.21656,-2.46196 z M 160,248.5 V 245 h -12 -12 v -20 -20 h -8 -8 v 23.5 23.5 h 20 20 z m 36.79877,-1.03744 1.21358,-4.53745 9.16294,0.28745 9.16293,0.28744 1.41422,4.25 1.41423,4.25 h 7.41666 C 230.6625,252 234,251.6627 234,251.25045 c 0,-0.41225 -3.41721,-11.00159 -7.5938,-23.53187 l -7.59381,-22.78233 -11.1199,0.28188 -11.1199,0.28187 -7.23374,22 c -3.97855,12.1 -7.25738,22.5625 -7.28629,23.25 -0.0371,0.88248 1.94459,1.25 6.74004,1.25 h 6.79259 z m 3.51391,-11.835 c 0.28966,-0.75484 1.51048,-4.67594 2.71293,-8.71356 4.11616,-13.8213 3.80474,-13.74269 7.58196,-1.914 1.84412,5.775 3.36183,10.8375 3.37269,11.25 0.0109,0.4125 -3.1784,0.75 -7.08725,0.75 -5.6129,0 -6.99627,-0.28853 -6.58033,-1.37244 z M 412,228.5 V 205 h -8 -8 v 23.5 23.5 h 8 8 z m 130.95455,-34 c -0.025,-0.275 -0.0575,-4.4375 -0.0722,-9.25 l -0.0267,-8.75 3.65511,0.30363 C 551.15156,177.18914 553,175.6428 553,171.37496 553,168.84506 538.29161,100.16443 534.34164,84.25 533.78422,82.00418 533.80711,82 546.66946,82 h 12.88628 l 2.86334,22.07292 c 4.10977,31.68133 3.74153,31.13356 7.00955,10.42708 1.56248,-9.9 3.35586,-21.15 3.98529,-25 l 1.14442,-7 12.70085,-0.27973 c 9.97523,-0.2197 12.60557,-0.005 12.25683,1 -0.24422,0.70385 -4.7103,20.62973 -9.92463,44.27973 -5.21433,23.65 -10.13632,44.84376 -10.93774,47.09724 -3.56451,10.02282 -9.04916,17.10965 -14.96875,19.34143 -2.77804,1.04736 -20.6422,1.53108 -20.73035,0.56133 z M 53,173.50883 C 31.623978,168.67675 13.370067,155.35455 5.0979626,138.54862 c -5.85669273,-11.89869 -6.5803547,-10.56325 16.8285104,-31.0551 18.259983,-15.98457 20.540335,-17.68507 21.5,-16.03297 2.67306,4.60176 7.466017,9.04592 12.066248,11.18814 5.67333,2.64194 15.994139,3.18455 22.648836,1.19075 8.809266,-2.63932 15.821446,-12.51772 14.530904,-20.4704 -1.324515,-8.162027 -7.55918,-13.800902 -18.229882,-16.487816 l -4.82621,-1.215253 4.441816,-3.902718 c 2.442998,-2.146494 5.860209,-5.016106 7.593802,-6.376915 l 3.151986,-2.474199 8.323996,2.75111 C 112.59035,62.095634 129.30153,78.544867 135.12299,97 c 2.84243,9.01104 2.83795,24.01508 -0.01,33 -6.14511,19.38807 -23.00081,35.25023 -44.61315,41.9835 -9.214394,2.87072 -28.142401,3.64062 -37.5,1.52533 z m 133.82696,-4.5852 c -3.12017,-0.45786 -7.23298,-1.48426 -9.13957,-2.28088 -4.80256,-2.00665 -11.4335,-8.22477 -13.87569,-13.01185 -1.98914,-3.89904 -4.7066,-16.34677 -4.77681,-21.8809 L 159,129 h 12.36111 12.36111 l 0.53254,5.87286 C 185.05623,143.71167 188.83581,148 195.82455,148 c 6.04408,0 8.86633,-4.93963 7.17688,-12.56127 -1.0844,-4.89209 -6.0757,-9.53969 -17.91731,-16.68354 -9.63825,-5.81461 -16.91761,-12.54832 -19.91356,-18.42086 -6.09638,-11.94989 -4.18511,-30.09333 4.21718,-40.03324 6.10072,-7.21715 19.05793,-10.589432 32.17153,-8.373057 16.5971,2.805133 24.59133,11.941932 26.96763,30.821967 L 229.18768,88 H 216.59384 204 V 83.95034 C 204,76.501267 200.25812,72 194.06574,72 189.56773,72 187,75.061065 187,80.42328 c 0,6.02483 2.75555,9.05656 16.41081,18.05566 18.15818,11.96661 23.34494,18.6084 25.13537,32.18655 0.95159,7.21658 -1.13234,19.95478 -4.30823,26.33451 -2.21289,4.44526 -3.70101,6.01614 -7.75988,8.19143 -7.82764,4.19511 -17.87681,5.46001 -29.65111,3.7322 z m 64.39483,-0.34048 c -10.1902,-3.30797 -15.16218,-10.39039 -15.19983,-21.65165 -0.0414,-12.38588 4.5938,-21.6887 12.88336,-25.85677 1.97707,-0.99409 7.64468,-3.2748 12.59468,-5.06823 11.39446,-4.12834 14.14474,-5.73462 15.52522,-9.06739 1.59146,-3.84212 -0.93114,-9.62641 -4.59975,-10.54717 -4.76009,-1.19471 -7.77493,0.63719 -9.25854,5.62572 -0.73319,2.46529 -1.51191,5.05876 -1.73048,5.76328 -0.30113,0.97055 -3.37041,1.21286 -12.66694,1 L 236.5,108.5 l 0.24712,-3.9833 c 0.63879,-10.29636 6.25914,-18.77429 15.18301,-22.90261 4.01096,-1.855528 6.40736,-2.11409 19.59382,-2.11409 14.14858,0 15.31336,0.148853 19.99108,2.55476 3.5279,1.81452 5.83896,3.964 7.97605,7.41841 l 3.00892,4.86365 0.54208,35.08159 c 0.29814,19.29487 0.90878,35.86909 1.35698,36.83159 0.75189,1.61466 -0.11205,1.75 -11.17075,1.75 H 281.24264 L 280,165 c -0.68345,-1.65 -1.41997,-3 -1.6367,-3 -0.21674,0 -2.89608,1.66124 -5.95409,3.69164 -4.49198,2.98251 -6.65006,3.74819 -11.23461,3.98598 -3.12103,0.16188 -7.59979,-0.33063 -9.95281,-1.09447 z m 23.29053,-19.23833 c 0.91035,-0.91035 2.06749,-2.73964 2.57143,-4.0651 C 278.01241,142.83715 278.39673,127 277.52734,127 c -2.05751,0 -12.05533,5.83877 -14.04332,8.20136 -3.15476,3.74922 -3.33293,9.4497 -0.41144,13.16378 2.4769,3.14887 8.73465,3.68477 11.43974,0.97968 z M 318,124.53078 V 82 h 11.5 11.5 v 3.60359 3.60359 l 3.67727,-3.22868 c 2.0225,-1.77578 5.15805,-3.8474 6.96788,-4.6036 7.43577,-3.106858 18.67116,-0.60211 23.21592,5.17561 l 2.20388,2.80178 1.51363,-2.16101 c 0.83249,-1.18856 3.50781,-3.32968 5.94515,-4.75805 8.18917,-4.79918 19.81951,-2.903276 26.78408,4.36617 4.17632,4.35914 4.74766,10.35339 4.45611,46.75173 L 415.5,166.5 h -12 -12 L 391,134.6683 c -0.47189,-30.04209 -0.60913,-31.91144 -2.44113,-33.25 -2.58772,-1.89073 -4.89028,-1.78824 -7.45192,0.3317 -2.06092,1.70556 -2.12087,2.54994 -2.36078,33.25 L 378.5,166.5 h -12 -12 l -0.26448,-31.41498 c -0.17801,-21.14467 -0.6267,-31.85143 -1.37244,-32.75 -1.43311,-1.72679 -7.29305,-1.72679 -8.72616,0 -0.74574,0.89857 -1.19443,11.60533 -1.37244,32.75 L 342.5,166.5 330.25,166.78078 318,167.06156 Z M 429,125 V 83 h 11.5 11.5 v 3.18709 3.18709 l 2.75,-2.57293 c 4.76987,-4.46274 9.26694,-6.22789 15.75,-6.18204 6.50705,0.046 10.58316,1.67402 14.3872,5.74626 l 2.38719,2.55551 4.04745,-3.46447 c 7.20471,-6.166963 16.03713,-7.134865 24.69777,-2.70651 9.90562,5.06494 9.43883,2.85058 9.76478,46.32194 L 526.06877,167 h -11.95904 -11.95905 l -0.32534,-31.34792 C 501.47321,101.72276 501.35314,101 496.06868,101 c -1.47753,0 -3.55993,0.63837 -4.62755,1.41859 -1.83767,1.34298 -1.95903,3.10191 -2.27688,33 L 488.82851,167 H 476.91425 465 V 135.57143 C 465,101.10175 464.98249,101 459.05102,101 c -5.41969,0 -5.52305,0.60951 -5.87636,34.65208 L 452.84932,167 H 440.92466 429 Z M 35.312834,84.00627 C 29.002133,80.38694 25.537866,76.041578 23.960736,69.766896 22.148717,62.557698 23.360881,58.543881 29.076021,52.828741 40.393026,41.511735 61.871377,36.491638 82.162032,40.42104 c 4.035882,0.781571 8.356501,1.806236 9.601374,2.277031 2.178713,0.823962 2.092241,0.999068 -2.310926,4.67966 -2.828173,2.36406 -5.219101,3.619452 -6.263406,3.288694 C 82.260084,50.37219 79.7,49.446627 77.5,48.609619 69.850611,45.699346 58.357062,46.988221 53.539296,51.296549 47.251175,56.919755 50.774975,63.687258 61.206629,66.02176 l 5.589617,1.250901 -11.148123,9.831272 C 49.516655,82.51113 43.6,86.94556 42.5,86.95822 41.4,86.97092 38.165775,85.6425 35.312834,84.00627 Z"
       id="path1" />
  </g>
</svg>
