<?xml version="1.0" encoding="UTF-8" standalone="no"?>
<!-- Created with Inkscape (http://www.inkscape.org/) -->

<svg
   version="1.1"
   id="svg1"
   width="588.26447"
   height="198.72777"
   viewBox="0 0 588.26447 198.72777"
   sodipodi:docname="auto-arcade-atari.svg"
   inkscape:version="1.3 (0e150ed6c4, 2023-07-21)"
   xmlns:inkscape="http://www.inkscape.org/namespaces/inkscape"
   xmlns:sodipodi="http://sodipodi.sourceforge.net/DTD/sodipodi-0.dtd"
   xmlns="http://www.w3.org/2000/svg"
   xmlns:svg="http://www.w3.org/2000/svg">
  <defs
     id="defs1" />
  <sodipodi:namedview
     id="namedview1"
     pagecolor="#306230"
     bordercolor="#000000"
     borderopacity="0.25"
     inkscape:showpageshadow="2"
     inkscape:pageopacity="0.0"
     inkscape:pagecheckerboard="0"
     inkscape:deskcolor="#d1d1d1"
     inkscape:zoom="3.8566667"
     inkscape:cx="299.87035"
     inkscape:cy="150"
     inkscape:window-width="5104"
     inkscape:window-height="1353"
     inkscape:window-x="1433"
     inkscape:window-y="0"
     inkscape:window-maximized="0"
     inkscape:current-layer="g1" />
  <g
     inkscape:groupmode="layer"
     inkscape:label="Image"
     id="g1"
     transform="translate(-3.8299379,-41.702679)">
    <path
       style="fill:#306230"
       d="m 27.357648,239.34536 c -27.22771876,-7.37129 -32.0700241,-43.2538 -7.950561,-58.91534 2.475,-1.60709 3.6,-2.66992 2.5,-2.36182 -1.1,0.30809 -3.9125,0.97905 -6.25,1.49102 l -4.25,0.93087 v -11.64703 -11.64703 l 6.75,-2.34242 c 18.197332,-6.31495 34.2278,-20.80671 42.754797,-38.65093 6.231502,-13.0405 6.7231,-16.221223 7.225483,-46.750003 l 0.456654,-27.75 h 6.906533 6.906533 v 32.04216 c 0,57.192353 -11.153197,80.362743 -47.73402,99.165833 -5.782746,2.97242 -6.904091,3.83863 -4.39098,3.39192 1.85625,-0.32995 15.24375,-0.59991 29.75,-0.59991 h 26.375 v -67 -67.000003 h 10.5 10.499993 v 67.000003 67 l 28.75,-0.0263 28.75,-0.0263 -7.05791,-3.74751 C 122.85083,153.3196 112.30878,131.42947 111.64076,75.952677 l -0.41243,-34.25 h 7.52072 7.52072 l 0.35392,28.75 c 0.34583,28.09322 0.41535,28.93276 3.04307,36.750003 7.50727,22.33355 29.86201,44.27339 49.99032,49.06251 2.75,0.65431 2.75,0.65431 2.75,10.0459 v 9.39159 l 14.75,-0.002 14.75,-0.002 16.5,-60.20936 c 9.48865,-34.624583 17.34986,-61.461663 18.5,-63.156413 6.70393,-9.8784 20.601,-10.07322 27.83046,-0.39015 1.07472,1.43947 10.12535,29.76166 20.11252,62.938213 l 18.15848,60.32099 6.19927,0.29772 6.19927,0.29771 V 122.39641 68.995427 l -7.65088,-0.64673 c -4.20798,-0.35499 -10.73298,-0.64602 -14.5,-0.64602 h -6.84912 v -11 -11 h 40.5 40.5 v 11 11 h -14.5 -14.5 v 54.000003 54 h 6.34171 c 6.34171,0 6.34171,0 7.44831,-3.75 0.60863,-2.0625 8.14689,-29.4 16.7517,-60.75 18.21296,-66.355523 18.28118,-66.500003 31.39925,-66.500003 12.67938,0 12.80347,0.25368 33.01944,67.500003 9.42461,31.35 17.59894,58.4625 18.16518,60.25 0.95715,3.02155 1.34038,3.25 5.45196,3.25 h 4.42245 l 0.006,-56.25 c 0.007,-66.925713 0.11886,-67.576883 12.45883,-72.289563 8.27519,-3.16032 35.31009,-1.74507 43.60925,2.2829 29.89915,14.51146 30.54231,59.385283 1.04914,73.199153 -7.10381,3.32724 -7.4001,2.3424 8.69554,28.9033 l 14.6368,24.15421 h 5.27222 5.27222 v -65 -65.000003 h 11.5 11.5 v 67.500003 67.5 h -3.97766 -3.97765 l 4.45719,4.10849 c 16.59766,15.2992 12.27831,42.48566 -8.36037,52.62104 l -5.64151,2.77047 -268,0.18717 c -209.624642,0.1464 -268.990945,-0.0811 -272.549432,-1.04449 z m 52.946377,-8.44706 c 5.791335,-2.23335 8.206319,-5.61012 8.42726,-11.78348 l 0.175802,-4.91214 -7.25,-0.29381 -7.25,-0.29381 v 3.85268 c 0,6.65238 -5.484326,9.93873 -12.25,7.34052 -2.75,-1.05608 -2.75,-1.05608 -2.75,-16.10558 0,-15.0495 0,-15.0495 2.75,-16.10558 5.919023,-2.27308 12.25,0.42884 12.25,5.22802 0,2.87756 0,2.87756 7.587898,2.87756 h 7.587898 l -0.657802,-4.25 c -2.074664,-13.40423 -37.597922,-17.16505 -44.062045,-4.66481 -2.064527,3.99235 -2.064527,29.83727 0,33.82962 3.401175,6.57715 24.086842,9.65937 35.440989,5.28081 z m 208.524255,0.70453 c 15.65498,-4.34651 12.59339,-16.20593 -6.54795,-25.36428 -10.65494,-5.09796 -13.19458,-7.2375 -12.70361,-10.70228 0.73879,-5.21365 13.83036,-4.60627 13.83036,0.64166 0,2.47524 0.14706,2.52475 7.5,2.52475 7.5,0 7.5,0 7.5,-3.09879 0,-11.59946 -31.433,-15.66821 -41.70308,-5.39813 -7.36121,7.36121 -3.42259,12.85955 16.00928,22.34902 12.28533,5.99949 14.18335,11.2374 4.62455,12.76227 -5.39292,0.86031 -8.93075,-0.95783 -8.93075,-4.58962 0,-3.02475 0,-3.02475 -7.5,-3.02475 h -7.5 v 3.59879 c 0,9.07506 19.45716,14.73368 35.4212,10.30136 z m 69,0 c 15.65498,-4.34651 12.59339,-16.20593 -6.54795,-25.36428 -10.65494,-5.09796 -13.19458,-7.2375 -12.70361,-10.70228 0.73879,-5.21365 13.83036,-4.60627 13.83036,0.64166 0,2.47524 0.14706,2.52475 7.5,2.52475 7.5,0 7.5,0 7.5,-3.09879 0,-11.59946 -31.433,-15.66821 -41.70308,-5.39813 -7.36121,7.36121 -3.42259,12.85955 16.00928,22.34902 12.28533,5.99949 14.18335,11.2374 4.62455,12.76227 -5.39292,0.86031 -8.93075,-0.95783 -8.93075,-4.58962 0,-3.02475 0,-3.02475 -7.5,-3.02475 h -7.5 v 3.59879 c 0,9.07506 19.45716,14.73368 35.4212,10.30136 z m 115.47574,-0.70453 c 5.79133,-2.23335 8.20632,-5.61012 8.42726,-11.78348 l 0.1758,-4.91214 -7.25,-0.29381 -7.25,-0.29381 v 3.85268 c 0,6.65238 -5.48433,9.93873 -12.25,7.34052 -2.75,-1.05608 -2.75,-1.05608 -2.75,-16.10558 0,-15.0495 0,-15.0495 2.75,-16.10558 5.91902,-2.27308 12.25,0.42884 12.25,5.22802 0,2.87756 0,2.87756 7.5879,2.87756 h 7.5879 l -0.65781,-4.25 c -1.36255,-8.80332 -8.73553,-12.21018 -25.01245,-11.55758 -18.53355,0.74308 -20.50554,3.03262 -20.50554,23.80758 0,17.97708 1.42024,20.85279 11.5,23.28534 5.11972,1.23554 21.15096,0.54768 25.39694,-1.08972 z m 70.52426,0.70453 c 15.65498,-4.34651 12.59339,-16.20593 -6.54795,-25.36428 -10.65494,-5.09796 -13.19458,-7.2375 -12.70361,-10.70228 0.73879,-5.21365 13.83036,-4.60627 13.83036,0.64166 0,2.47524 0.14706,2.52475 7.5,2.52475 7.5,0 7.5,0 7.5,-3.09879 0,-11.59946 -31.433,-15.66821 -41.70308,-5.39813 -7.36121,7.36121 -3.42259,12.85955 16.00928,22.34902 12.28533,5.99949 14.18335,11.2374 4.62455,12.76227 -5.39292,0.86031 -8.93075,-0.95783 -8.93075,-4.58962 0,-3.02475 0,-3.02475 -7.5,-3.02475 h -7.5 v 3.59879 c 0,9.07506 19.45716,14.73368 35.4212,10.30136 z m -385.4212,-3.40015 v -3.5 h -12.5 -12.5 v -20 -20 h -8 -8 v 23.5 23.5 h 20.5 20.5 z m 36.00999,-1.03567 1.26991,-4.53568 9.02218,0.28568 9.02217,0.28567 1.11694,4 c 1.11695,4 1.11695,4 8.83788,4.29206 9.35963,0.35406 9.31899,2.98792 0.37478,-24.29206 l -7.21309,-22 -11.49942,-0.27982 -11.49942,-0.27983 -7.58596,23.52983 -7.58596,23.52982 h 7.23504 7.23504 z m 5.59058,-18.21433 c 1.34516,-4.2625 2.71657,-8.9875 3.04759,-10.5 0.97997,-4.47777 1.88996,-3.25828 4.79712,6.42868 1.51504,5.04827 2.98279,9.77327 3.26166,10.5 0.39059,1.01787 -1.10735,1.32132 -6.52253,1.32132 h -7.02957 z m 209.39943,-0.75 v -23.5 h -8 -8 v 23.5 23.5 h 8 8 z m -120.24984,-33.75 c -0.2551,-0.6875 -1.92585,-6.2 -3.71279,-12.25 -4.76376,-16.12861 -2.11929,-14.5 -23.54462,-14.5 h -18.43688 l -1.48348,5.25 c -0.81592,2.8875 -2.57326,9.1875 -3.9052,14 l -2.42172,8.75 h 26.98425 c 21.16811,0 26.88429,-0.26942 26.52044,-1.25 z m 148.79523,-1.5 c -0.36929,-1.5125 -2.24308,-7.8125 -4.16398,-14 l -3.49255,-11.25 h -18.78486 -18.78485 l -3.65958,13.38215 c -2.01276,7.36018 -3.65957,13.66018 -3.65957,14 0,0.33982 11.97378,0.61785 26.60841,0.61785 h 26.60841 z m 89.45461,2.28841 c 0,-0.25387 -6.13962,-10.58892 -13.6436,-22.96678 -15.38656,-25.38021 -16.46471,-28.51867 -12.48007,-36.32921 2.4903,-4.8814 4.81598,-6.66018 11.57863,-8.85583 25.97775,-8.434303 18.97173,-39.386593 -8.91512,-39.386593 h -9.53984 v 54.000003 54 h 16.5 c 9.075,0 16.5,-0.20772 16.5,-0.46159 z M 274.0403,124.95268 c -3.42333,-11.94447 -12.12071,-39.921313 -12.58372,-40.478003 -0.33303,-0.40039 -3.01768,8.1496 -5.96591,19.000003 -2.94823,10.8504 -5.57561,20.5155 -5.83863,21.478 -0.43718,1.59982 0.61027,1.75 12.2058,1.75 11.60442,0 12.64133,-0.14895 12.18246,-1.75 z m 149.39512,1 c 0.0761,-2.01391 -12.59127,-42.072403 -13.11013,-41.458643 -0.32949,0.38975 -2.98122,9.48364 -5.89273,20.208643 -2.91151,10.725 -5.50646,20.0625 -5.76656,20.75 -0.36277,0.95891 2.46295,1.25 12.13409,1.25 6.93385,0 12.61974,-0.3375 12.63533,-0.75 z"
       id="path1" />
  </g>
</svg>
