<?xml version="1.0" encoding="UTF-8" standalone="no"?>
<!-- Created with Inkscape (http://www.inkscape.org/) -->

<svg
   width="73.648697mm"
   height="8.1060829mm"
   viewBox="0 0 73.648697 8.1060829"
   version="1.1"
   id="svg1"
   inkscape:version="1.3.2 (091e20ef0f, 2023-11-25)"
   sodipodi:docname="auto-rpgaction.svg"
   xmlns:inkscape="http://www.inkscape.org/namespaces/inkscape"
   xmlns:sodipodi="http://sodipodi.sourceforge.net/DTD/sodipodi-0.dtd"
   xmlns="http://www.w3.org/2000/svg"
   xmlns:svg="http://www.w3.org/2000/svg">
  <sodipodi:namedview
     id="namedview1"
     pagecolor="#505050"
     bordercolor="#eeeeee"
     borderopacity="1"
     inkscape:showpageshadow="0"
     inkscape:pageopacity="0"
     inkscape:pagecheckerboard="0"
     inkscape:deskcolor="#505050"
     inkscape:document-units="mm"
     showgrid="false"
     inkscape:zoom="0.59720238"
     inkscape:cx="196.75072"
     inkscape:cy="-158.23782"
     inkscape:window-width="2560"
     inkscape:window-height="1440"
     inkscape:window-x="1920"
     inkscape:window-y="0"
     inkscape:window-maximized="1"
     inkscape:current-layer="layer1" />
  <defs
     id="defs1" />
  <g
     inkscape:label="Calque 1"
     inkscape:groupmode="layer"
     id="layer1"
     transform="translate(-0.88255716,3.2913567)">
    <!--!Font Awesome Free 6.5.1 by @fontawesome - https://fontawesome.com License - https://fontawesome.com/license/free Copyright 2024 Fonticons, Inc.-->
    <!--!Font Awesome Free 6.5.1 by @fontawesome - https://fontawesome.com License - https://fontawesome.com/license/free Copyright 2024 Fonticons, Inc.-->
    <path
       d="m 4.7031847,-3.2913567 c 0.073228,0 0.1464571,0.015919 0.213318,0.046166 l 2.9975948,1.2719482 c 0.3502232,0.1480491 0.6112992,0.4934968 0.6097072,0.9105812 -0.00796,1.57918973 -0.657465,4.4685342 -3.4003518,5.7818722 -0.2658515,0.127354 -0.5746849,0.127354 -0.8405364,0 C 1.5400294,3.4058729 0.89052408,0.51652843 0.88256438,-1.0626613 0.88097438,-1.4797457 1.1420481,-1.8251934 1.4922716,-1.9732425 l 2.9991871,-1.2719486 c 0.065269,-0.030247 0.1384975,-0.046166 0.211726,-0.046166 z"
       id="path1-7"
       style="fill:#306230;stroke-width:0.0159192" />
    <path
       d="M 14.915713,3.3693101 H 12.705034 L 12.399691,4.5784664 H 9.9569511 l 1.9541919,-7.6335627 h 3.798461 l 1.954192,7.6335627 h -2.44274 z M 14.451593,1.5983235 13.865335,-0.71006581 H 13.755412 L 13.169154,1.5983235 Z m 9.257994,2.8457922 q -0.476335,0.1709918 -1.013737,0.244274 -0.52519,0.073282 -1.258012,0.073282 -1.294652,0 -2.01526,-0.366411 -0.708395,-0.366411 -1.025951,-1.22137 -0.305342,-0.8671727 -0.305342,-2.40609898 0,-1.55113993 0.329769,-2.40609892 0.32977,-0.8549591 1.099233,-1.2213701 0.769464,-0.3786247 2.161825,-0.3786247 0.52519,0 1.135875,0.09771 0.622898,0.09771 0.8916,0.2198466 l -0.305343,1.92976468 Q 23.050047,-1.0886905 22.59814,-1.149759 q -0.439693,-0.073282 -0.732822,-0.073282 -0.65954,0 -0.903814,0.1832055 -0.244274,0.18320548 -0.244274,0.6717535 v 2.9557155 q 0.549617,0.09771 0.964882,0.09771 0.500762,0 0.98931,-0.073282 0.500762,-0.085496 0.854959,-0.2198466 z m 4.458004,0.1343507 h -2.44274 v -5.6183021 h -1.709918 v -2.0152606 h 5.862576 v 2.0152606 h -1.709918 z m 4.824407,-7.6335627 v 7.6335627 h -2.44274 v -7.6335627 z m 0.977088,3.82288822 q 0,-1.53892623 0.341984,-2.39388522 0.341984,-0.8671728 1.12366,-1.2335838 0.793891,-0.3786247 2.198467,-0.3786247 1.404575,0 2.186252,0.3786247 0.79389,0.366411 1.135874,1.2335838 0.341984,0.85495899 0.341984,2.39388522 0,1.53892628 -0.341984,2.39388528 -0.341984,0.854959 -1.135874,1.2335837 -0.781677,0.366411 -2.186252,0.366411 -1.404576,0 -2.198467,-0.366411 Q 34.653054,4.0166362 34.31107,3.1616772 33.969086,2.3067182 33.969086,0.76779192 Z m 3.737393,1.90533728 q 0.549616,0 0.757249,-0.1343507 0.207633,-0.1465644 0.207633,-0.5129754 V -1.149759 h -1.12366 q -0.537403,0 -0.745036,0.1465644 -0.207633,0.13435068 -0.207633,0.50076169 V 2.6731292 Z m 4.628989,-5.7282255 h 2.418313 l 1.661063,2.6748004 q 0.305342,0.51297541 0.305342,0.86717272 h 0.07328 V -3.0550963 h 2.44274 V 4.5784664 H 46.817896 L 45.156833,1.9036661 Q 44.85149,1.3906906 44.85149,1.0364933 h -0.07328 v 3.5419731 h -2.44274 z M 57.089617,4.5784664 56.051453,2.3677867 h -0.647327 v 2.2106797 h -2.44274 v -7.6335627 h 3.541973 q 1.563354,0 2.247321,0.6595398 0.683968,0.6595399 0.683968,2.161825 0,1.5755673 -0.940455,2.1740387 L 59.73999,4.5784664 Z M 55.404126,0.59680012 h 0.98931 q 0.268702,0 0.366411,-0.1099233 0.109923,-0.10992331 0.109923,-0.40305211 v -0.61068502 q 0,-0.2931288 -0.109923,-0.40305211 -0.09771,-0.10992328 -0.366411,-0.10992328 h -0.98931 z M 63.03769,4.5784664 h -2.44274 v -7.6335627 h 3.480905 q 1.563354,0 2.247321,0.6595398 0.683967,0.6595399 0.683967,2.161825 0,1.5144988 -0.671754,2.2473209 -0.671753,0.7206083 -2.076329,0.7206083 h -1.22137 z m 0.928242,-3.61525527 q 0.268701,0 0.366411,-0.1099233 0.109923,-0.10992331 0.109923,-0.40305211 v -0.97709603 q 0,-0.2931288 -0.109923,-0.40305211 -0.09771,-0.10992328 -0.366411,-0.10992328 H 63.03769 V 0.96321113 Z M 73.907886,0.01054251 V 4.2120554 q -0.622899,0.2931288 -1.367935,0.4152658 -0.732822,0.1343507 -1.758773,0.1343507 -1.282438,0 -1.966405,-0.3541973 Q 68.130805,4.0532773 67.837677,3.210532 67.556762,2.355573 67.556762,0.76779192 q 0,-1.58778103 0.317556,-2.43052632 0.317556,-0.8549591 1.087019,-1.2091564 0.769463,-0.366411 2.186252,-0.366411 0.622899,0 1.343507,0.09771 0.732822,0.09771 1.050379,0.2198466 l -0.305343,1.92976468 q -0.439693,-0.0977096 -0.98931,-0.15877808 -0.537402,-0.073282 -0.916027,-0.073282 -0.65954,0 -0.903814,0.1832055 -0.244274,0.18320548 -0.244274,0.6717535 v 3.1633484 h 1.404576 V 1.781529 H 70.964384 V 0.01054251 Z"
       id="text1"
       style="font-weight:800;font-size:12.2137px;font-family:Changa;-inkscape-font-specification:'Changa, Ultra-Bold';fill:#306230;stroke-width:0.224413"
       inkscape:label="text1"
       transform="skewX(-10.896041)"
       aria-label="ACTION RPG" />
  </g>
</svg>
