<?xml version="1.0" encoding="UTF-8" standalone="no"?>
<svg
   width="41.613152"
   height="8.3439274"
   viewBox="0 0 41.613151 8.3439273"
   version="1.1"
   id="svg1"
   sodipodi:docname="auto-simulationlife.svg"
   inkscape:version="1.3.2 (091e20ef0f, 2023-11-25)"
   xmlns:inkscape="http://www.inkscape.org/namespaces/inkscape"
   xmlns:sodipodi="http://sodipodi.sourceforge.net/DTD/sodipodi-0.dtd"
   xmlns="http://www.w3.org/2000/svg"
   xmlns:svg="http://www.w3.org/2000/svg">
  <defs
     id="defs1" />
  <sodipodi:namedview
     id="namedview1"
     pagecolor="#505050"
     bordercolor="#eeeeee"
     borderopacity="1"
     inkscape:showpageshadow="0"
     inkscape:pageopacity="0"
     inkscape:pagecheckerboard="0"
     inkscape:deskcolor="#505050"
     showgrid="true"
     inkscape:zoom="14.7417"
     inkscape:cx="50.265574"
     inkscape:cy="24.04743"
     inkscape:window-width="2560"
     inkscape:window-height="1440"
     inkscape:window-x="1920"
     inkscape:window-y="0"
     inkscape:window-maximized="1"
     inkscape:current-layer="svg1">
    <inkscape:grid
       id="grid1"
       units="px"
       originx="13.058277"
       originy="7.8727956"
       spacingx="0.99999999"
       spacingy="1"
       empcolor="#0099e5"
       empopacity="0.30196078"
       color="#0099e5"
       opacity="0.14901961"
       empspacing="5"
       dotted="false"
       gridanglex="30"
       gridanglez="30"
       visible="true" />
  </sodipodi:namedview>
  <!--!Font Awesome Free 6.5.1 by @fontawesome - https://fontawesome.com License - https://fontawesome.com/license/free Copyright 2024 Fonticons, Inc.-->
  <!--!Font Awesome Free 6.5.1 by @fontawesome - https://fontawesome.com License - https://fontawesome.com/license/free Copyright 2024 Fonticons, Inc.-->
  <path
     d="m 5.2422777,0.2352538 4.49956,2.49975 c 0.2406,0.13436 0.3280903,0.43902 0.19373,0.67962 -0.13436,0.2406 -0.43902,0.3281 -0.67962,0.19373 l -4.25584,-2.36383 -4.25739,2.3654 c -0.2406,0.13436 -0.54526,0.0469 -0.67962,-0.19374 -0.13437,-0.2406 -0.0469,-0.54525 0.19373,-0.67962 l 4.50112,-2.50131 c 0.15155,-0.0844 0.33434,-0.0844 0.48589,0 z m -0.24217,2.43726 a 0.62493897,0.62493897 0 1 1 0,1.24987 0.62493897,0.62493897 0 1 1 0,-1.24987 z m -2.74973,1.49985 a 0.62494005,0.62494005 0 1 1 0,1.2498801 0.62494005,0.62494005 0 1 1 0,-1.2498801 z m 4.87453,0.62494 a 0.62493897,0.62493897 0 1 1 1.24987,0 0.62493897,0.62493897 0 1 1 -1.24987,0 z m -3.57934,3.0528301 -0.42027,-0.77961 v 0.6015 c 0,0.27653 -0.22342,0.49995 -0.49995,0.49995 h -0.74993 c -0.27654,0 -0.49995,-0.22342 -0.49995,-0.49995 v -0.6015 l -0.42027,0.77961 c -0.0984,0.18279 -0.32497,0.24997 -0.50777,0.15311 -0.18279,-0.0969 -0.24997,-0.32497 -0.15311,-0.50777 l 0.59213,-1.09833 c 0.23904,-0.44527 0.70462,-0.72336 1.21082,-0.72336 h 0.30466 c 0.25466,0 0.49839,0.0703 0.70931,0.19685 l 0.52495,-0.9733401 c 0.23903,-0.44527 0.70461,-0.72337 1.21081,-0.72337 h 0.30466 c 0.5062,0 0.97022,0.2781 1.21082,0.72337 l 0.52495,0.9733401 c 0.21092,-0.12655 0.45464,-0.19685 0.70931,-0.19685 h 0.30465 c 0.5062,0 0.97022,0.27809 1.21082,0.72336 l 0.59213,1.09833 c 0.0984,0.1828 0.0297,0.40934 -0.15311,0.50777 -0.18279,0.0984 -0.40933,0.0297 -0.50776,-0.15311 l -0.41871,-0.77961 v 0.6015 c 0,0.27653 -0.22342,0.49995 -0.49995,0.49995 h -0.74993 c -0.27653,0 -0.49995,-0.22342 -0.49995,-0.49995 v -0.6015 l -0.42027,0.77961 c -0.0984,0.18279 -0.32497,0.24997 -0.50776,0.15311 -0.1828,-0.0969 -0.24998,-0.32497 -0.15311,-0.50777 l 0.56713,-1.05458 c -0.0266,-0.0266 -0.05,-0.0563 -0.0672,-0.0906 l -0.41871,-0.77961 v 0.85148 c 0,0.27654 -0.22342,0.49995 -0.49995,0.49995 h -0.74993 c -0.27653,0 -0.49995,-0.22341 -0.49995,-0.49995 v -0.85148 l -0.42027,0.77961 c -0.0188,0.0344 -0.0406,0.0641 -0.0672,0.0906 l 0.56713,1.05458 c 0.0984,0.1828 0.0297,0.40934 -0.15311,0.50777 -0.1828,0.0984 -0.40934,0.0297 -0.50776,-0.15311 z"
     id="path1"
     style="fill:#306230;stroke-width:0.0156235" />
  <g
     id="g3"
     transform="translate(11.975266,1.3507596)">
    <path
       d="M -1.0408398,-1.3507596 H 0.23916018 V 1.5932405 H 1.4551602 v 1.056 h -2.496 z m 4.1279981,0 v 4.0000001 h -1.28 v -4.0000001 z m 1.9199953,4.0000001 h -1.28 v -4.0000001 h 2.6240001 l -0.1600001,1.05600005 h -1.184 v 0.60800001 h 1.088 V 1.2412405 h -1.088 z m 3.0079956,-1.056 h 1.5040001 v 1.056 H 6.7351492 v -4.0000001 h 2.8160001 l -0.16,1.05600005 H 8.0151492 V 0.18524046 H 9.2951493 V 1.1132405 H 8.0151492 Z"
       id="text2"
       style="font-weight:800;font-size:6.4px;font-family:Changa;-inkscape-font-specification:'Changa, Ultra-Bold';fill:#306230;stroke-width:0.2"
       transform="skewX(-10.677853)"
       aria-label="LIFE" />
    <path
       d="m -0.11564852,5.7656872 q 0.61068702,0.1954199 1.23969462,0.1954199 0.3114504,0 0.4946565,-0.030534 V 5.5946949 L 1.0690843,5.5458399 Q 0.59274842,5.5030918 0.30572552,5.3748475 0.0248095,5.2404964 -0.10343478,4.9962216 -0.23167905,4.7519468 -0.23167905,4.3611071 q 0,-0.5129771 0.14656488,-0.8061069 Q 0.06145072,3.2557636 0.38511484,3.1275193 0.71488583,2.9931682 1.2889316,2.9931682 q 0.7511451,0 1.4351145,0.1832061 L 2.5713744,4.1534735 Q 2.2538171,4.0862979 2.0339698,4.0618704 1.8141225,4.0313361 1.5820614,4.0313361 q -0.3114504,0 -0.5007634,0.030534 v 0.329771 l 0.4396947,0.042748 q 0.7450382,0.073283 1.0748091,0.3725191 0.3358779,0.2931298 0.3358779,0.8793893 0,0.6778626 -0.3908397,0.9954198 -0.3908397,0.3114504 -1.2335878,0.3114504 -0.86717553,0 -1.59389308,-0.2198473 z M 4.611067,3.0847712 V 6.9015651 H 3.389693 V 3.0847712 Z m 0.7511405,0 h 1.5328244 l 0.4763359,1.9419847 h 0.042748 l 0.476336,-1.9419847 h 1.5328244 l 0.232061,3.8167939 H 8.4400701 L 8.3423601,5.0511834 H 8.2996121 L 7.8599174,6.9015651 H 6.9255663 L 6.4797647,5.0511834 h -0.036641 l -0.09771,1.8503817 H 5.1301464 Z m 6.4366465,3.9083969 q -0.68397,0 -1.038168,-0.1282442 Q 10.406487,6.7305727 10.259922,6.4130155 10.113358,6.0893513 10.113358,5.4725575 V 3.0847712 h 1.221374 v 2.8641221 h 0.488549 q 0.274809,0 0.360306,-0.061069 0.0916,-0.067176 0.0916,-0.2625954 v -2.540458 h 1.221374 v 2.3877863 q 0,0.610687 -0.146565,0.9343511 -0.146565,0.3236641 -0.50687,0.4580153 -0.360306,0.1282442 -1.044275,0.1282442 z m 2.247333,-3.9083969 h 1.221374 v 2.8091603 h 1.160305 v 1.0076336 h -2.381679 z m 4.598475,3.2122137 h -1.105344 l -0.152671,0.6045802 h -1.221374 l 0.977099,-3.8167939 h 1.899236 l 0.9771,3.8167939 H 18.797334 Z M 18.412601,5.4114888 18.119471,4.2572903 h -0.05496 l -0.29313,1.1541985 z m 3.529775,1.4900763 H 20.721002 V 4.0924048 H 19.86604 V 3.0847712 h 2.931298 v 1.0076336 h -0.854962 z m 1.068701,-1.9053435 q 0,-0.7694657 0.170992,-1.1969466 0.170993,-0.4335878 0.561832,-0.6167939 0.396947,-0.1893129 1.099237,-0.1893129 0.70229,0 1.09313,0.1893129 0.396946,0.1832061 0.567939,0.6167939 0.170992,0.4274809 0.170992,1.1969466 0,0.7694656 -0.170992,1.1969465 -0.170993,0.4274809 -0.567939,0.6167939 -0.39084,0.1832061 -1.09313,0.1832061 -0.70229,0 -1.099237,-0.1832061 Q 23.353062,6.620649 23.182069,6.1931681 23.011077,5.7656872 23.011077,4.9962216 Z m 1.868702,0.9526717 q 0.274809,0 0.378626,-0.067176 0.103817,-0.073282 0.103817,-0.2564886 V 4.037443 H 24.80039 q -0.268703,0 -0.372519,0.073282 -0.103817,0.067176 -0.103817,0.2503817 v 1.5877862 z m 4.34809,0.9526718 -0.519084,-1.1053435 H 28.385121 V 6.9015651 H 27.163747 V 3.0847712 h 1.770992 q 0.78168,0 1.123664,0.329771 0.341985,0.329771 0.341985,1.080916 0,0.7877863 -0.470229,1.0870229 l 0.622901,1.319084 z M 28.385121,4.9107254 h 0.494657 q 0.134351,0 0.183206,-0.054962 0.05496,-0.054962 0.05496,-0.2015267 V 4.3488933 q 0,-0.1465648 -0.05496,-0.2015267 -0.04885,-0.054962 -0.183206,-0.054962 h -0.494657 z"
       id="text3"
       style="font-weight:800;font-size:6.10687px;font-family:Changa;-inkscape-font-specification:'Changa, Ultra-Bold';fill:#306230;stroke-width:0.19084"
       transform="skewX(-10.163871)"
       aria-label="SIMULATOR" />
  </g>
</svg>
