<?xml version="1.0" encoding="UTF-8" standalone="no"?>
<!-- Created with Inkscape (http://www.inkscape.org/) -->

<svg
   version="1.1"
   id="svg1"
   width="588.00159"
   height="288.7294"
   viewBox="0 0 588.00159 288.7294"
   sodipodi:docname="logo.png"
   xmlns:inkscape="http://www.inkscape.org/namespaces/inkscape"
   xmlns:sodipodi="http://sodipodi.sourceforge.net/DTD/sodipodi-0.dtd"
   xmlns="http://www.w3.org/2000/svg"
   xmlns:svg="http://www.w3.org/2000/svg">
  <defs
     id="defs1" />
  <sodipodi:namedview
     id="namedview1"
     pagecolor="#306230"
     bordercolor="#000000"
     borderopacity="0.25"
     inkscape:showpageshadow="2"
     inkscape:pageopacity="0.0"
     inkscape:pagecheckerboard="0"
     inkscape:deskcolor="#d1d1d1" />
  <g
     inkscape:groupmode="layer"
     inkscape:label="Image"
     id="g1"
     transform="translate(-6.4988613,-5)">
    <path
       style="fill:#306230"
       d="M 29.5,292.60495 C 27.3,291.90711 24.135834,290.6248 22.468521,289.75539 17.725311,287.28207 10.525731,278.93861 8.4174269,273.47183 5.85559,266.82906 5.859883,256.15989 8.4270713,249.50291 10.951435,242.95699 18.72384,234.82553 25.298205,231.85241 30.276274,229.60118 31.650503,229.48668 57.25,229.19035 L 84,228.88071 v -59.9045 -59.90449 l 23.00084,-0.28586 23.00085,-0.28586 -8.5e-4,60.25 L 130,229 h 24.94043 24.94042 l -2.33702,-6.75 c -1.28537,-3.7125 -8.27572,-24.06508 -15.53413,-45.22795 -7.2584,-21.16286 -14.50195,-42.05334 -16.09678,-46.42328 -1.59483,-4.36993 -2.72696,-8.11806 -2.51585,-8.32917 C 143.99489,121.67178 181.21496,105 181.95178,105 c 0.36003,0 2.18173,4.725 4.04822,10.5 1.86649,5.775 3.69345,10.5 4.0599,10.5 0.36645,0 0.8931,-2.82574 1.17033,-6.27941 1.07699,-13.41708 9.76132,-22.44234 26.12726,-27.15298 3.22161,-0.92729 5.96396,-1.54684 6.09409,-1.37679 0.13014,0.17005 1.09635,10.52665 2.14713,23.01466 l 1.91052,22.70548 -5.73188,2.08995 c -7.12631,2.59838 -11.51814,6.21915 -13.89769,11.45772 -3.43294,7.55761 -2.66361,11.79404 7.62034,41.9627 5.225,15.32788 9.5,28.25925 9.5,28.73638 0,0.47713 -2.5875,1.99008 -5.75,3.36211 -3.1625,1.37203 -6.65,2.91089 -7.75,3.41971 -1.283,0.59346 8.03799,0.93982 26,0.96614 l 28,0.041 -5.79088,-3.14163 c -20.77849,-11.27263 -32.70792,-36.09648 -29.65736,-61.71372 3.292,-27.64466 18.14071,-46.83329 42.36983,-54.75347 6.78012,-2.21634 9.92659,-2.64731 19.57841,-2.68164 19.46976,-0.0693 32.99123,5.22134 45.5,17.80298 6.71208,6.75118 14.95995,18.98756 13.92606,20.66042 -0.40671,0.65807 -58.38261,44.81086 -61.81427,47.07599 -1.87158,1.23537 0.21599,2.09207 6.62224,2.71763 11.98607,1.17042 22.30231,-1.65225 31.41255,-8.59494 l 3.14658,-2.39793 10.13751,16.75979 10.13751,16.75979 -2.28409,1.74708 c -1.25625,0.96089 -5.80659,3.5619 -10.11187,5.78001 L 330.84445,229 H 348.42222 366 v -59.5 c 0,-32.725 0.28188,-59.5 0.62639,-59.5 1.4098,0 34.11727,-3.02445 37.12361,-3.4328 l 3.25,-0.44146 v 9.43713 c 0,5.19042 0.26366,9.43713 0.58591,9.43713 0.32225,0 3.18152,-2.63623 6.35394,-5.85828 6.82835,-6.93519 14.67672,-10.96101 24.26054,-12.44445 11.35577,-1.75771 23.12001,1.42197 30.61133,8.27374 1.82144,1.66594 3.55648,3.02899 3.85564,3.02899 0.29916,0 1.95889,-1.19452 3.68828,-2.65448 4.70994,-3.97614 14.2307,-8.14992 20.32864,-8.91181 11.18471,-1.39744 25.69759,3.81905 32.94585,11.84201 4.7547,5.26288 9.03796,14.69611 10.31821,22.72428 0.59078,3.70468 1.0398,23.98509 1.04411,47.15828 l 0.008,40.65829 14.75,0.36935 c 17.6794,0.44271 22.30844,2.01057 30.02472,10.1694 6.19267,6.54783 8.72528,12.97558 8.72528,22.14468 0,4.5163 -0.68375,8.77304 -1.92707,11.99709 -2.52437,6.54592 -10.29677,14.67738 -16.87114,17.6505 L 570.5,293.5 302,293.68688 c -214.567155,0.14934 -269.303469,-0.068 -272.5,-1.08193 z m 51.086381,-7.73102 c 2.459611,-0.61934 5.80888,-2.37488 7.44282,-3.90121 C 90.572318,278.5971 91,277.46355 91,273.09879 V 268 h -7 -7 v 3.9433 c 0,6.10127 -5.415996,8.75003 -12.4349,6.08145 L 62,277.0495 V 262 246.9505 l 2.5651,-0.97525 C 70.990699,243.53224 77,245.98791 77,251.0567 V 254 h 7 7 v -3.86514 c 0,-8.77231 -8.294767,-12.72513 -25.013551,-11.92007 -10.68682,0.51461 -16.824085,2.93868 -18.883461,7.45852 -1.439609,3.1596 -1.453944,29.46232 -0.01778,32.61437 1.228751,2.69681 5.790383,5.68333 10.345432,6.7732 4.839436,1.15792 18.244607,1.04969 23.155737,-0.18695 z m 209.999999,0 C 296.79534,283.3105 301,279.19273 301,274.67552 c 0,-5.42674 -3.81654,-9.04827 -15.356,-14.57136 -11.09337,-5.30958 -13.97713,-7.72193 -13.47436,-11.27169 0.24633,-1.73918 1.24931,-2.55957 3.94315,-3.22532 5.28343,-1.30572 8.81963,-0.0994 10.04932,3.42804 1.01102,2.90022 1.1839,2.96481 7.93572,2.96481 6.18007,0 6.90217,-0.20432 6.90217,-1.95295 0,-6.74348 -6.50802,-11.10249 -17.6639,-11.83112 -14.29609,-0.93372 -23.11225,1.77444 -26.11736,8.02277 -3.00502,6.24815 1.01409,10.85216 16.06398,18.40179 12.37867,6.20963 14.92889,9.15024 10.82054,12.47698 -2.55444,2.06845 -6.57386,2.41451 -10.53816,0.90728 -1.97316,-0.75019 -2.5651,-1.67326 -2.5651,-4 V 271 h -7.5 c -7.37229,0 -7.5,0.0434 -7.5,2.54966 0,5.59737 3.48925,9.0295 12,11.80353 2.92587,0.95367 18.18124,0.62997 22.58638,-0.47926 z m 69,0 C 365.79534,283.3105 370,279.19273 370,274.67552 c 0,-5.42674 -3.81654,-9.04827 -15.356,-14.57136 -11.09337,-5.30958 -13.97713,-7.72193 -13.47436,-11.27169 0.24633,-1.73918 1.24931,-2.55957 3.94315,-3.22532 5.28343,-1.30572 8.81963,-0.0994 10.04932,3.42804 1.01102,2.90022 1.1839,2.96481 7.93572,2.96481 6.18007,0 6.90217,-0.20432 6.90217,-1.95295 0,-6.74348 -6.50802,-11.10249 -17.6639,-11.83112 -14.29609,-0.93372 -23.11225,1.77444 -26.11736,8.02277 -3.00502,6.24815 1.01409,10.85216 16.06398,18.40179 12.37867,6.20963 14.92889,9.15024 10.82054,12.47698 -2.55444,2.06845 -6.57386,2.41451 -10.53816,0.90728 -1.97316,-0.75019 -2.5651,-1.67326 -2.5651,-4 V 271 h -7.5 c -7.37229,0 -7.5,0.0434 -7.5,2.54966 0,5.59737 3.48925,9.0295 12,11.80353 2.92587,0.95367 18.18124,0.62997 22.58638,-0.47926 z m 114,0 c 2.45961,-0.61934 5.80888,-2.37488 7.44282,-3.90121 C 483.57232,278.5971 484,277.46355 484,273.09879 V 268 h -7 -7 v 3.9433 c 0,6.10127 -5.416,8.75003 -12.4349,6.08145 L 455,277.0495 V 262 246.9505 l 2.5651,-0.97525 C 463.9907,243.53224 470,245.98791 470,251.0567 V 254 h 7 7 v -3.86514 c 0,-8.77231 -8.29477,-12.72513 -25.01355,-11.92007 -10.68682,0.51461 -16.82409,2.93868 -18.88346,7.45852 -1.43961,3.1596 -1.45395,29.46232 -0.0178,32.61437 1.22875,2.69681 5.79038,5.68333 10.34543,6.7732 4.83944,1.15792 18.24461,1.04969 23.15574,-0.18695 z m 72,0 C 551.79534,283.3105 556,279.19273 556,274.67552 c 0,-5.42674 -3.81654,-9.04827 -15.356,-14.57136 -11.09337,-5.30958 -13.97713,-7.72193 -13.47436,-11.27169 0.24633,-1.73918 1.24931,-2.55957 3.94315,-3.22532 5.28343,-1.30572 8.81963,-0.0994 10.04932,3.42804 1.01102,2.90022 1.1839,2.96481 7.93572,2.96481 6.18007,0 6.90217,-0.20432 6.90217,-1.95295 0,-6.74348 -6.50802,-11.10249 -17.6639,-11.83112 -14.29609,-0.93372 -23.11225,1.77444 -26.11736,8.02277 -3.00502,6.24815 1.01409,10.85216 16.06398,18.40179 12.37867,6.20963 14.92889,9.15024 10.82054,12.47698 -2.55444,2.06845 -6.57386,2.41451 -10.53816,0.90728 -1.97316,-0.75019 -2.5651,-1.67326 -2.5651,-4 V 271 h -7.5 c -7.37229,0 -7.5,0.0434 -7.5,2.54966 0,5.59737 3.48925,9.0295 12,11.80353 2.92587,0.95367 18.18124,0.62997 22.58638,-0.47926 z M 161,281.5 V 278 H 148.5 136 v -20 -20 h -8 -8 v 23.5 23.5 h 20.5 20.5 z m 35.90505,-1.03721 1.14249,-4.53721 9.19655,0.28721 9.19656,0.28721 1.11693,4 1.11693,4 7.66275,0.29206 c 4.2145,0.16064 7.65262,-0.0644 7.64025,-0.5 -0.0124,-0.43563 -3.3263,-10.91706 -7.3643,-23.29206 l -7.34181,-22.5 h -11.29968 -11.29969 l -7.75797,23.25 -7.75797,23.25 h 7.30324 7.30324 z m 3.45287,-11.95314 c 0.31455,-0.81969 1.76604,-5.43219 3.22553,-10.25 1.4595,-4.81781 2.90294,-9.17982 3.20764,-9.69336 0.30471,-0.51353 1.80008,3.06361 3.32306,7.94922 4.66846,14.97617 5.02268,13.48449 -3.20209,13.48449 -5.9029,0 -7.02787,-0.25581 -6.55414,-1.49035 z M 412,261.5 V 238 h -8 -8 v 23.5 23.5 h 8 8 z m 19,-69.54966 c 0,-41.91565 -0.009,-41.97399 -6.95404,-44.05472 -3.10356,-0.92985 -4.60175,-0.90805 -7.04133,0.10246 C 411.10101,150.44344 411,151.18279 411,191.95034 V 229 h 10 10 z m 65,0 c 0,-40.18769 -0.14253,-41.32736 -5.47206,-43.75565 -5.13104,-2.33786 -10.72299,-0.65198 -13.10294,3.95034 -1.15811,2.23954 -1.425,9.69474 -1.425,39.80531 V 229 h 10 10 z m -204.27894,-31.9167 15.22105,-11.46636 -2.1181,-2.25462 c -4.82338,-5.13424 -15.72549,-5.62894 -22.67652,-1.02896 C 276.9093,148.75017 273,156.5841 273,163.61456 c 0,5.98601 0.76277,8.61369 2.37583,8.18453 0.61829,-0.1645 7.97364,-5.45895 16.34523,-11.76545 z M 83.065303,72.565351 60.647274,50.130702 82.447909,27.565351 C 94.438258,15.154408 104.53387,5 104.88261,5 c 0.34873,0 10.74396,10.117399 23.10051,22.483108 l 22.46645,22.483108 -4.45856,4.766892 C 137.58779,63.717447 106.52118,95 106.00208,95 105.71677,95 95.395218,84.90441 83.065303,72.565351 Z"
       id="path1" />
  </g>
</svg>
