<?xml version="1.0" encoding="UTF-8" standalone="no"?>
<!-- Created with Inkscape (http://www.inkscape.org/) -->

<svg
   version="1.1"
   id="svg1"
   width="590.58112"
   height="240.58272"
   viewBox="0 0 590.58112 240.58272"
   sodipodi:docname="logo.png"
   xmlns:inkscape="http://www.inkscape.org/namespaces/inkscape"
   xmlns:sodipodi="http://sodipodi.sourceforge.net/DTD/sodipodi-0.dtd"
   xmlns="http://www.w3.org/2000/svg"
   xmlns:svg="http://www.w3.org/2000/svg">
  <defs
     id="defs1" />
  <sodipodi:namedview
     id="namedview1"
     pagecolor="#306230"
     bordercolor="#000000"
     borderopacity="0.25"
     inkscape:showpageshadow="2"
     inkscape:pageopacity="0.0"
     inkscape:pagecheckerboard="0"
     inkscape:deskcolor="#d1d1d1" />
  <g
     inkscape:groupmode="layer"
     inkscape:label="Image"
     id="g1"
     transform="translate(-4,-26.224255)">
    <path
       style="fill:#306230"
       d="M 28.204958,265.10959 C 14.380895,260.32472 4.9854709,246.12503 6.2700492,231.95847 7.2500306,221.15106 13.558418,211.5891 23.45265,205.91387 L 28.5,203.01877 16.25,203.00938 4,203 V 191.56787 180.13573 L 46.25,179.81787 88.5,179.5 l 6.234312,-2.87952 c 7.243418,-3.34562 14.345478,-10.37761 17.576648,-17.40325 1.68208,-3.6574 2.1717,-6.62694 2.17927,-13.21723 0.009,-7.7943 -0.27499,-9.02521 -3.42007,-14.82601 -3.77292,-6.95879 -8.9857,-11.97695 -15.994591,-15.39742 C 91.04463,113.80939 88.357458,113.47214 72.5,112.94321 52.73303,112.28387 50.071059,111.63532 43.518813,105.88237 35.13863,98.52448 32.472517,84.88766 37.383291,74.5 40.279151,68.374443 43.949758,64.82146 50.5,61.803614 55.43049,59.532025 56.081147,59.495948 97.303139,59.208537 L 139.10628,58.917074 138.80314,70.708537 138.5,82.5 l -40,0.5 -40,0.5 v 2.5 2.5 l 16,0.58698 c 8.8,0.32283 18.25,1.17969 21,1.90413 29.28481,7.71451 48.04434,36.85078 42.17822,65.50889 -4.1456,20.25278 -18.21698,36.79952 -37.06662,43.58719 -5.09575,1.83495 -4.968968,1.84066 40.8884,1.84066 h 46 l -5.17115,-1.86164 c -14.34767,-5.16521 -25.80303,-17.8941 -29.87621,-33.19763 -2.23424,-8.39435 -2.1003,-94.322679 0.15888,-101.937079 5.23931,-17.658638 18.33214,-30.349314 35.48155,-34.391718 C 193.28983,29.31482 202.7637,29.02677 238.25,29.014781 L 282,29 v 12 12 l -44.25,0.02196 c -40.66447,0.02018 -44.57412,0.169712 -48.25,1.845379 -5.86698,2.674487 -9.72408,6.302978 -12.52084,11.778725 L 174.5,71.5 V 116 c 0,44.4618 0.002,44.50402 2.30843,49.18643 1.26964,2.57753 4.05532,6.26463 6.19041,8.19356 7.03128,6.35233 9.31589,6.62025 56.43266,6.61797 l 42.0685,-0.002 -0.31238,11.00204 -0.31239,11.00204 23.81239,-0.0361 23.81238,-0.0361 -5.02795,-1.8112 C 308.77209,194.82132 297.43897,182.46143 293.53291,167.46504 292.2642,162.59412 292,153.72411 292,116 c 0,-49.503867 0.24332,-52.164416 5.68512,-62.162785 5.96011,-10.950703 20.55234,-21.416848 33.2057,-23.81651 C 334.01406,29.428396 353.84333,29 378.13649,29 H 420 v 12 12 h -42.53212 c -45.82507,0 -45.84912,0.0025 -52.93968,5.410691 -1.69369,1.291846 -4.41792,4.765423 -6.05382,7.71906 L 315.5,71.5 v 44.5 44.5 l 2.33791,4.74733 c 1.28585,2.61103 4.19877,6.34015 6.47315,8.28693 7.03661,6.02308 10.56461,6.5314 43.24868,6.23139 L 396.5,179.5 396.76348,146.25 397.02696,113 H 374.51348 352 V 101 89 h 34 34 v 48.5 c 0,26.675 0.3375,48.49802 0.75,48.49559 0.4125,-0.002 4.41828,-10.91493 8.90173,-24.25 21.78002,-64.78001 38.39196,-112.910033 40.17212,-116.391216 4.71113,-9.212838 15.59441,-16.577684 27.51474,-18.61955 15.63635,-2.678392 33.09589,5.430545 39.77662,18.473911 1.20887,2.360196 10.4071,28.591265 20.44051,58.291265 10.03341,29.7 21.66295,64.06818 25.84342,76.37373 4.18047,12.30555 7.60086,22.54305 7.60086,22.75 0,0.20695 -4.36335,0.37627 -9.69634,0.37627 h -9.69635 l 5.11328,2.54805 c 6.1304,3.05491 12.66293,9.86907 15.60357,16.27628 3.0093,6.55683 3.0093,18.79451 0,25.35134 -3.03326,6.609 -9.59028,13.31644 -16.18265,16.55386 L 570.5,266.5 302,266.72117 c -258.058373,0.21257 -268.705918,0.1499 -273.795042,-1.61158 z m 52.381423,-7.23566 c 2.459611,-0.61934 5.80888,-2.37488 7.44282,-3.90121 C 90.572318,251.5971 91,250.46355 91,246.09879 V 241 h -7 -7 v 3.87756 c 0,2.13265 -0.634847,4.40443 -1.41077,5.04839 -2.121184,1.76042 -7.73575,2.37146 -10.83923,1.17963 L 62,250.0495 V 235 219.9505 l 2.75,-1.05608 c 3.10348,-1.19183 8.718046,-0.58079 10.83923,1.17963 C 76.365153,220.71801 77,222.53979 77,224.12244 V 227 h 7 7 v -3.86514 c 0,-8.73596 -8.193872,-12.6659 -24.887058,-11.93634 -10.874541,0.47527 -16.870491,2.77918 -18.915881,7.26832 -1.790729,3.93023 -1.60923,29.83543 0.234008,33.39986 1.236711,2.39154 4.89624,4.63751 10.568931,6.48649 2.925875,0.95367 18.181236,0.62997 22.586381,-0.47926 z M 291.76356,257.47758 C 297.76584,255.69509 301,252.18106 301,247.44187 c 0,-5.12418 -3.97762,-8.84705 -15.45767,-14.46769 -11.31812,-5.54136 -13.86823,-7.65967 -13.37269,-11.10834 0.42284,-2.94271 5.44304,-4.55065 10.08036,-3.22867 2.50402,0.71382 3.32263,1.55039 3.56642,3.64466 0.31261,2.68541 0.40602,2.71817 7.75,2.71817 H 301 v -2.92308 c 0,-3.99462 -4.72537,-8.51853 -10.38696,-9.94414 -5.65004,-1.42269 -18.89823,-1.45897 -23.91634,-0.0655 -5.80929,1.61319 -10.0967,5.93439 -10.0967,10.17628 0,5.76254 2.47282,8.12494 15.40733,14.71935 12.86902,6.56102 15.91195,9.54636 12.85076,12.60755 -2.03222,2.03222 -7.75442,2.82301 -11.10809,1.5351 -2.16113,-0.82993 -2.75,-1.70379 -2.75,-4.08083 V 244 h -7.5 c -7.37229,0 -7.5,0.0434 -7.5,2.54966 0,5.58094 4.33727,10.0071 11.5,11.73568 4.65509,1.12341 19.41525,0.63203 24.26356,-0.80776 z m 69,0 C 366.76584,255.69509 370,252.18106 370,247.44187 c 0,-5.12418 -3.97762,-8.84705 -15.45767,-14.46769 -11.31812,-5.54136 -13.86823,-7.65967 -13.37269,-11.10834 0.42284,-2.94271 5.44304,-4.55065 10.08036,-3.22867 2.50402,0.71382 3.32263,1.55039 3.56642,3.64466 0.31261,2.68541 0.40602,2.71817 7.75,2.71817 H 370 v -2.92308 c 0,-3.99462 -4.72537,-8.51853 -10.38696,-9.94414 -5.65004,-1.42269 -18.89823,-1.45897 -23.91634,-0.0655 -5.80929,1.61319 -10.0967,5.93439 -10.0967,10.17628 0,5.76254 2.47282,8.12494 15.40733,14.71935 12.86902,6.56102 15.91195,9.54636 12.85076,12.60755 -2.03222,2.03222 -7.75442,2.82301 -11.10809,1.5351 -2.16113,-0.82993 -2.75,-1.70379 -2.75,-4.08083 V 244 h -7.5 c -7.37229,0 -7.5,0.0434 -7.5,2.54966 0,5.58094 4.33727,10.0071 11.5,11.73568 4.65509,1.12341 19.41525,0.63203 24.26356,-0.80776 z m 112.82282,0.39635 c 2.45961,-0.61934 5.80888,-2.37488 7.44282,-3.90121 C 483.57232,251.5971 484,250.46355 484,246.09879 V 241 h -7 -7 v 3.87756 c 0,2.13265 -0.63485,4.40443 -1.41077,5.04839 -2.12118,1.76042 -7.73575,2.37146 -10.83923,1.17963 L 455,250.0495 V 235 219.9505 l 2.75,-1.05608 c 3.10348,-1.19183 8.71805,-0.58079 10.83923,1.17963 0.77592,0.64396 1.41077,2.46574 1.41077,4.04839 V 227 h 7 7 v -3.86514 c 0,-8.73596 -8.19387,-12.6659 -24.88706,-11.93634 -10.87454,0.47527 -16.87049,2.77918 -18.91588,7.26832 -1.79073,3.93023 -1.60923,29.83543 0.23401,33.39986 1.23671,2.39154 4.89624,4.63751 10.56893,6.48649 2.92587,0.95367 18.18124,0.62997 22.58638,-0.47926 z m 73.17718,-0.39635 C 552.76584,255.69509 556,252.18106 556,247.44187 c 0,-5.12418 -3.97762,-8.84705 -15.45767,-14.46769 -11.31812,-5.54136 -13.86823,-7.65967 -13.37269,-11.10834 0.42284,-2.94271 5.44304,-4.55065 10.08036,-3.22867 2.50402,0.71382 3.32263,1.55039 3.56642,3.64466 0.31261,2.68541 0.40602,2.71817 7.75,2.71817 H 556 v -2.92308 c 0,-3.99462 -4.72537,-8.51853 -10.38696,-9.94414 -5.65004,-1.42269 -18.89823,-1.45897 -23.91634,-0.0655 -5.80929,1.61319 -10.0967,5.93439 -10.0967,10.17628 0,5.76254 2.47282,8.12494 15.40733,14.71935 12.86902,6.56102 15.91195,9.54636 12.85076,12.60755 -2.03222,2.03222 -7.75442,2.82301 -11.10809,1.5351 -2.16113,-0.82993 -2.75,-1.70379 -2.75,-4.08083 V 244 h -7.5 c -7.37229,0 -7.5,0.0434 -7.5,2.54966 0,5.58094 4.33727,10.0071 11.5,11.73568 4.65509,1.12341 19.41525,0.63203 24.26356,-0.80776 z M 161,254.5 V 251 H 148.5 136 v -20 -20 h -8 -8 v 23.5 23.5 h 20.5 20.5 z m 35.90505,-1.03721 1.14249,-4.53721 9.19655,0.28721 9.19656,0.28721 1.11693,4 1.11693,4 7.66275,0.29206 c 4.2145,0.16064 7.6537,-0.0644 7.64265,-0.5 C 233.96886,256.85643 230.6831,246.375 226.67822,234 L 219.39663,211.5 207.94831,211.23795 196.5,210.9759 188.87632,234.48795 181.25265,258 h 7.25496 7.25496 z M 201.55898,238.25 c 0.80483,-2.6125 2.18841,-7.225 3.07464,-10.25 0.88622,-3.025 1.84971,-5.90538 2.14109,-6.40085 0.38348,-0.65206 7.18768,19.27836 7.22086,21.15085 0.002,0.1375 -3.12405,0.25 -6.94774,0.25 h -6.95217 z M 412,234.5 V 211 h -8 -8 v 23.5 23.5 h 8 8 z m 36,-32.84525 c 0,-0.18989 7.01561,-21.00239 15.59025,-46.25 C 472.16488,130.15714 483.19318,97.575 488.09758,83 c 5.07868,-15.09294 9.64188,-27.038069 10.60088,-27.75 2.67308,-1.984413 7.94122,-1.91586 10.0652,0.130976 0.93494,0.900986 36.64323,104.437474 39.96161,115.869024 0.47517,1.63692 -1.29271,1.75014 -27.35864,1.75218 L 493.5,173.00418 493.81641,163.002 C 493.99949,157.21477 493.73746,153 493.19458,153 492.44496,153 476,199.3149 476,201.42609 476,201.74174 480.07807,202 485.06238,202 h 9.06239 l -0.31239,-11.00204 -0.31238,-11.00204 32.25,0.002 c 17.7375,0.001 32.25,-0.37562 32.25,-0.83721 0,-0.46159 -7.24737,-22.17409 -16.10526,-48.25 -8.85789,-26.07591 -18.34942,-54.055156 -21.09227,-62.176097 -3.65709,-10.827786 -5.76157,-15.539902 -7.89149,-17.669832 -5.22005,-5.220044 -13.56197,-5.259982 -18.73227,-0.08968 -2.00849,2.008492 -4.14023,6.528078 -6.93915,14.711986 C 468.58912,120.22014 441,201.38127 441,201.71374 c 0,0.15744 1.575,0.28626 3.5,0.28626 1.925,0 3.5,-0.15536 3.5,-0.34525 z M 503.65281,147 C 509.32766,147 512,146.62792 512,145.83778 512,144.90735 508.93869,135.33242 504.37855,122 c -0.72397,-2.11668 -1.33537,-0.79058 -5.87842,12.75 -2.07599,6.1875 -4.16279,11.25 -4.63733,11.25 -0.47454,0 -0.83234,1.2375 -0.79512,2.75 0.0665,2.70054 0.0872,2.70953 1.15281,0.5 0.99686,-2.06697 1.76417,-2.25 9.43232,-2.25 z M 4,161.54047 V 150 h 38.928571 c 34.056277,0 39.125252,-0.19668 40.5,-1.57143 C 85.314605,146.54254 85.381457,145.78146 83.8,144.2 82.988652,143.38865 78.351924,143 69.483659,143 52.828351,143 46.532428,141.83795 36.12778,136.84343 21.82376,129.9771 11.049195,117.16918 6.3953863,101.5 4.278925,94.37396 4.0195352,78.762043 5.9052481,72 11.653705,51.386411 27.058123,36.228152 47.596011,30.975445 54.68365,29.162732 58.766595,29 97.159963,29 H 139 V 41 53 H 97.037513 C 57.157429,53 54.802624,53.101918 49.585881,55.053752 42.289566,57.783653 34.79403,64.662008 31.339596,71.797639 28.990425,76.650192 28.578592,78.766732 28.576125,86 c -0.0025,7.37972 0.378716,9.26317 2.892572,14.29048 4.554197,9.10767 14.097282,16.75201 22.577816,18.08563 1.899418,0.29869 10.396483,0.80081 18.882367,1.11582 11.775199,0.43711 16.392953,1.00124 19.5,2.38224 9.73735,4.32799 15.57112,13.11592 15.57112,23.45615 0,3.2657 -0.52921,7.70398 -1.17602,9.86284 -1.48892,4.96959 -7.835598,12.23148 -13.195767,15.09865 -4.046231,2.16434 -4.977182,2.21396 -46.878213,2.49866 L 4,173.08094 Z m 187.16827,9.3138 c -2.53255,-1.25358 -5.43998,-3.81743 -7,-6.17278 -2.63867,-3.98394 -2.67186,-4.25415 -2.99198,-24.35506 L 180.85258,120 H 222.42629 264 V 131.5 143 H 234.43045 204.8609 l 0.31955,2.22497 c 0.64097,4.46295 3.0562,4.74461 40.81955,4.76029 L 281.5,150 v 11.5 11.5 l -43,-7.9e-4 c -41.9493,-7.7e-4 -43.10585,-0.0532 -47.33173,-2.14494 z m 141.33173,0.265 c -4.75782,-2.1848 -6.88992,-4.41489 -8.96186,-9.37375 C 322.23638,158.62997 322,151.57653 322,115.84784 c 0,-40.976299 0.0623,-42.345102 2.12115,-46.598099 1.27706,-2.638054 3.73449,-5.449785 6.17538,-7.065725 L 334.35077,59.5 377.17539,59.209531 420,58.919061 V 70.959531 83 h -35.42857 c -30.87446,0 -35.63057,0.202 -37,1.57143 -1.3587,1.3587 -1.56936,5.58914 -1.55612,31.25 0.008,16.32321 0.3926,30.27361 0.85371,31.00089 1.09038,1.71973 7.27005,3.12378 13.88098,3.15382 L 366,150 v -3.5 -3.5 h -7 -7 v -12 -12 h 19 19 v 27 27 l -26.75,-0.022 c -23.81016,-0.0195 -27.1896,-0.22383 -30.75,-1.85877 z M 181.1776,92.1736 c 0.31935,-20.629504 0.34755,-20.864367 2.98316,-24.843707 5.21521,-7.874118 4.67843,-7.793633 54.08924,-8.110133 L 282,58.939521 V 70.96976 83 h -36.92857 c -32.2381,0 -37.12817,0.1996 -38.5,1.57143 C 205.70714,85.43571 205,86.78571 205,87.57143 205,88.77724 209.6,89 234.5,89 H 264 v 12 12 h -41.5724 -41.57241 z"
       id="path1"
       sodipodi:nodetypes="ssscccccccsscssssssscccccccssssscssssscccssscsssscccccsssssscccssscccssscccccccccscsssssssscsssscssssscccssscccssscccssssssssssssscsssssssscssssssssssscsssssssscssssssscccssscccssscccssssssssssssscsssssssscsssscccccccccccccccccccsssccccccccssscscscccccccccssssssccssssccccsssssssssssssssssccssssssssscccssssssssssssccssscccccccsscccssssssscccccsscssccccccccccccssssscccsssscccccs" />
  </g>
</svg>
