<?xml version="1.0" encoding="UTF-8" standalone="no"?>
<!-- Created with Inkscape (http://www.inkscape.org/) -->

<svg
   version="1.1"
   id="svg1"
   width="586.94287"
   height="223.61572"
   viewBox="0 0 586.94287 223.61572"
   sodipodi:docname="logo.png"
   xmlns:inkscape="http://www.inkscape.org/namespaces/inkscape"
   xmlns:sodipodi="http://sodipodi.sourceforge.net/DTD/sodipodi-0.dtd"
   xmlns="http://www.w3.org/2000/svg"
   xmlns:svg="http://www.w3.org/2000/svg">
  <defs
     id="defs1" />
  <sodipodi:namedview
     id="namedview1"
     pagecolor="#306230"
     bordercolor="#000000"
     borderopacity="0.25"
     inkscape:showpageshadow="2"
     inkscape:pageopacity="0.0"
     inkscape:pagecheckerboard="0"
     inkscape:deskcolor="#d1d1d1" />
  <g
     inkscape:groupmode="layer"
     inkscape:label="Image"
     id="g1"
     transform="translate(-3.5513172,-38.844143)">
    <path
       style="fill:#306230;stroke-width:1.04097"
       d="m 78.26571,261.92091 c -0.262338,-0.26235 -9.559211,-1.43955 -20.65972,-2.61602 -14.240671,-1.50927 -21.073525,-2.67136 -23.208362,-3.94713 -3.019133,-1.80424 -6.856838,-6.99201 -5.888638,-7.96021 0.281011,-0.281 8.224318,-0.0213 17.651796,0.57696 35.959295,2.28224 40.346371,0.34525 43.250606,-19.09609 1.894004,-12.67872 3.611649,-15.3706 11.557468,-18.11271 11.0903,-3.82728 15.82142,-8.87941 17.30799,-18.48236 2.24096,-14.47616 -7.18715,-25.78307 -18.998879,-22.78494 -5.601014,1.42169 -6.146669,0.0884 -1.523395,-3.72252 6.857084,-5.6522 18.593814,-6.84985 26.592464,-2.71358 16.13207,8.34221 19.63827,26.5419 8.96957,46.55843 -3.96187,7.43322 -12.67912,14.85464 -18.89142,16.08318 l -4.07533,0.80593 -1.85304,7.79457 c -1.01917,4.28702 -2.63638,9.66832 -3.59378,11.95845 -2.26466,5.41706 -8.183374,12.63414 -11.965015,14.58971 -2.729047,1.41124 -13.542076,2.19856 -14.672315,1.06833 z m 25.59341,-2.71115 c -0.27237,-0.44071 1.14389,-3.55287 3.14723,-6.91591 2.00335,-3.36303 4.52709,-9.60906 5.6083,-13.88006 l 1.96583,-7.76545 4.02819,-0.3431 c 2.2155,-0.18871 6.48747,-0.0379 9.49327,0.33514 6.36413,0.78983 6.60397,1.50402 3.48505,10.37789 -2.39049,6.80138 -7.49096,13.41017 -12.00141,15.55052 -4.01724,1.90631 -15.03681,3.75684 -15.72646,2.64097 z M 40.920833,243.51037 c -7.729191,-0.4896 -15.11646,-1.35302 -16.416154,-1.91871 -3.179011,-1.38367 -4.403215,-5.05247 -4.403215,-13.19594 0,-9.39561 -1.954246,-13.11914 -8.260967,-15.7401 -8.2980393,-3.44851 -9.4685032,-7.82168 -7.3957289,-27.63247 0.5493399,-5.25037 1.517021,-21.25703 2.1504024,-35.57035 0.6333824,-14.31331 1.622775,-27.53819 2.1986513,-29.38862 0.6662281,-2.14074 2.6290202,-4.41693 5.3966192,-6.25828 5.078951,-3.37915 7.630586,-8.02834 9.154543,-16.679987 C 25.253569,86.290701 24.948513,86.536297 61.57788,66.345542 79.948367,56.219407 96.140575,47.492667 97.560571,46.952786 c 1.962694,-0.746214 3.099519,-0.556119 4.740689,0.792723 1.93148,1.58745 2.30275,3.747786 3.52502,20.511757 0.88726,12.169088 1.02683,20.014607 0.39815,22.380822 -1.41172,5.313477 -5.41336,10.065052 -9.65558,11.465102 -7.21143,2.37999 -10.828202,-0.60828 -12.434835,-10.273995 -1.054996,-6.346993 -3.518704,-8.477886 -9.802005,-8.477886 -4.336747,0 -7.373931,1.187141 -20.189624,7.891477 -14.364377,7.514522 -15.162308,8.098797 -16.703995,12.231384 -1.367871,3.66666 -1.649503,11.84887 -1.815485,52.74493 -0.132255,32.58646 0.169567,49.30621 0.923579,51.16265 2.0032,4.93204 4.942513,6.09516 15.275896,6.0449 15.933378,-0.0776 23.999204,-1.412 28.84934,-4.77315 5.085643,-3.52435 6.583285,-6.7893 7.520502,-16.39513 0.384271,-3.9385 1.365262,-8.44995 2.17998,-10.02545 4.395449,-8.49986 14.567707,-11.19078 19.617457,-5.18951 3.04636,3.6204 4.34548,10.33502 3.25191,16.80778 -1.01462,6.00548 -5.96518,10.50967 -14.042057,12.77593 -4.3086,1.20893 -6.921243,2.68154 -8.873269,5.00139 -3.656856,4.34592 -4.531927,6.8766 -5.834515,16.87324 -2.175729,16.69751 -4.464237,17.48582 -43.570896,15.00862 z M 127.32121,225.241 c 0,-0.52281 1.68238,-2.56485 3.73863,-4.53789 7.36693,-7.06884 14.71855,-25.7852 13.69502,-34.86591 -0.26819,-2.3794 -1.47698,-5.68384 -2.68619,-7.34319 -3.22835,-4.43012 -4.67491,-16.18976 -4.10091,-33.33782 l 0.49227,-14.7063 -4.67695,2.06885 c -3.62316,1.60269 -5.8484,1.91344 -9.87601,1.37915 -5.00715,-0.66422 -14.54204,-4.71966 -15.77072,-6.70771 -0.32712,-0.5293 2.35496,-2.34269 5.96019,-4.02979 4.64789,-2.17501 7.9745,-4.72902 11.43419,-8.77863 8.81535,-10.31849 10.69111,-18.070051 9.01439,-37.252122 -0.62674,-7.169936 -0.98609,-15.266336 -0.79856,-17.992002 l 0.34095,-4.955756 7.38221,7.037693 c 8.89108,8.476146 9.38068,10.047083 10.38528,33.322146 0.37685,8.731121 0.98347,15.868611 1.34804,15.861081 0.36458,-0.007 3.94192,-2.8244 7.94965,-6.25971 4.00773,-3.4353 9.72249,-7.45428 12.69946,-8.93106 5.18626,-2.572733 6.37473,-2.709412 28.41119,-3.267527 34.53028,-0.874549 41.64634,1.072333 41.64634,11.394027 0,9.63864 -2.36283,10.43169 -32.77192,10.99943 -27.46912,0.51285 -26.7381,0.31392 -39.26995,10.68659 -11.15339,9.23172 -11.22366,9.39409 -11.23013,25.95112 l -0.005,14.01449 5.98557,5.67365 c 9.30798,8.8229 15.62503,13.49406 19.82693,14.66107 2.12031,0.58888 12.84943,1.07331 23.84251,1.07649 29.37871,0.008 33.62247,1.42406 33.62247,11.21492 0,10.15779 -7.86227,12.32856 -41.31792,11.40789 -12.73122,-0.35035 -23.16263,-1.11869 -25.30406,-1.86379 -2.00387,-0.69724 -6.36549,-3.09868 -9.6925,-5.33655 l -6.04912,-4.06883 -1.73717,4.47553 c -3.42954,8.83567 -7.32896,14.94371 -12.14741,19.02776 -4.59826,3.8974 -5.3766,4.17761 -12.62039,4.54341 -4.2479,0.21449 -7.72017,-0.0377 -7.72017,-0.56071 z M 42.482285,207.21995 c -2.028838,-2.25139 -2.07406,-3.54851 -1.773142,-50.8581 0.202066,-31.7685 0.699971,-49.54811 1.440593,-51.44205 0.900774,-2.30349 4.025021,-4.37044 15.305732,-10.126052 18.878498,-9.632133 20.892339,-9.538133 22.476733,1.049182 l 0.701015,4.68436 -12.30917,5.239 -12.309171,5.23901 -0.271821,43.62288 c -0.153808,24.68367 0.13255,44.02726 0.65957,44.55428 0.547877,0.54787 5.931034,0.41593 13.073348,-0.32045 6.678075,-0.68851 12.439563,-0.95423 12.803308,-0.59048 0.999795,0.99978 -3.181637,6.12371 -6.594817,8.08127 -2.172062,1.24575 -6.940025,1.93105 -17.067167,2.45308 -13.650662,0.70364 -14.11269,0.65823 -16.135011,-1.58593 z m 239.144695,0.99221 c -9.17557,-1.62933 -17.20646,-6.36858 -21.90096,-12.92438 -3.41393,-4.76749 -4.3287,-7.15603 -5.41497,-14.13882 -2.42347,-15.57884 -0.20098,-26.10745 7.28373,-34.50511 9.20694,-10.32995 10.41319,-10.63885 43.90833,-11.24412 15.84162,-0.28627 29.13158,-0.85039 29.53326,-1.25361 0.40166,-0.40322 0.40133,-3.36621 -7.6e-4,-6.58441 -0.53617,-4.29133 -1.51778,-6.73236 -3.68195,-9.15608 l -2.95089,-3.30478 -22.2079,-0.60051 c -27.98813,-0.75679 -30.9522,-1.80491 -31.02304,-10.97 -0.0798,-10.334041 7.21325,-12.500484 38.98153,-11.579623 20.09125,0.582391 20.43081,0.630359 25.80494,3.645222 5.1892,2.91112 11.47165,9.731061 14.95085,16.229931 1.7174,3.20796 2.82525,18.29189 4.40732,60.00776 1.01722,26.8223 0.34967,31.50883 -4.93258,34.62914 -1.68036,0.99261 -4.05557,1.80475 -5.27824,1.80475 -2.47828,0 -10.4589,-3.78011 -10.48378,-4.96575 -0.008,-0.41777 -0.39327,-1.35406 -0.85445,-2.08067 -0.63675,-1.00321 -3.07504,-0.2666 -10.13351,3.06134 l -9.29499,4.38243 -15.61453,0.26045 c -8.58799,0.14326 -18.08182,-0.17766 -21.09741,-0.71316 z m 42.45461,-27.539 11.43331,-5.73402 v -5.65858 c 0,-4.47878 -0.52334,-6.26755 -2.51004,-8.5793 l -2.51004,-2.92071 -19.09005,-0.33819 c -33.10121,-0.5864 -35.22507,0.2715 -35.22507,14.22862 0,13.22293 1.9485,14.39883 24.21986,14.61649 l 12.24871,0.11971 z m 87.80574,25.66928 c -3.68013,-2.66587 -6.0228,-6.94616 -23.14792,-42.29349 -18.24027,-37.64906 -19.07808,-39.65371 -19.63162,-46.97261 -0.73864,-9.76655 1.27977,-19.766811 4.67491,-23.16194 2.10697,-2.106972 3.2118,-2.406708 7.21007,-1.956042 2.61809,0.295094 5.58813,1.398531 6.66627,2.476662 2.21944,2.219438 4.07195,10.64495 4.06006,18.46573 -0.007,4.64099 1.89246,9.49093 14.82552,37.85326 8.1585,17.89165 15.07157,32.52992 15.36238,32.5295 0.29082,-4.2e-4 7.17096,-14.63904 15.28921,-32.53027 14.69577,-32.387 14.76236,-32.56824 15.2012,-41.37772 0.24242,-4.86653 1.06928,-10.171563 1.83747,-11.788968 2.56847,-5.407821 9.66282,-7.398152 15.53898,-4.359472 3.96883,2.052363 5.57915,9.17531 5.06449,22.40179 l -0.38451,9.88166 -16.5792,34.87244 c -18.591,39.10405 -20.52915,42.61907 -25.53681,46.3136 -2.8766,2.12229 -4.74147,2.61192 -9.94812,2.61192 -5.39256,0 -7.05663,-0.46997 -10.50238,-2.96605 z m 104.9707,1.9393 c -6.83394,-1.04033 -11.95909,-4.37117 -21.67359,-14.08568 -5.46125,-5.46124 -7.92037,-8.79559 -8.91589,-12.08915 -0.99535,-3.29299 -1.37468,-12.44723 -1.37468,-33.17459 0,-25.69334 0.19599,-29.02067 1.91274,-32.47218 2.23479,-4.49302 16.52684,-17.168669 24.08116,-21.357641 l 5.23515,-2.902959 21.33985,0.02488 c 24.17907,0.02821 21.87227,-0.60831 36.0475,9.94662 10.65998,7.93745 13.40535,10.95272 14.96252,16.4334 1.85199,6.51837 2.52101,29.23667 1.08509,36.84674 -2.13291,11.30401 0.65197,10.60802 -43.87528,10.96527 -36.85193,0.29568 -38.40791,0.38782 -38.40791,2.27442 0,3.24785 2.04467,7.64773 5.01083,10.78271 5.81912,6.15032 6.43383,6.25875 39.75081,7.01236 16.88972,0.38204 31.78131,1.04858 33.09244,1.48121 1.31112,0.43262 3.06776,2.10909 3.90363,3.72549 3.31628,6.41298 0.78347,13.61709 -5.50844,15.66771 -4.6012,1.49959 -58.01802,2.23786 -66.66593,0.92139 z m 50.79283,-73.18575 v -8.6315 l -4.42412,-4.33134 c -6.80376,-6.66107 -9.94045,-7.55279 -26.5677,-7.55279 -14.07271,0 -14.50937,0.0683 -19.03111,2.97623 -8.03531,5.16753 -9.51796,7.46404 -10.10364,15.64967 -0.28621,4.00022 -0.23994,8.00394 0.10285,8.89716 0.54446,1.41892 4.37469,1.62406 30.32345,1.62406 h 29.70027 z M 60.466963,181.61141 c -0.828396,-31.26575 -0.804816,-63.78767 0.04662,-64.31389 0.504314,-0.31169 4.616988,0.98484 9.139277,2.88115 8.192727,3.43544 8.225104,3.46437 8.988805,8.03325 1.409394,8.43177 2.461441,63.49695 1.232555,64.5132 -0.618138,0.51119 -5.157639,1.23949 -10.087779,1.61846 l -8.96389,0.68902 z m 32.90677,-60.68611 c -3.63931,-2.21919 -7.019256,-6.56429 -9.239322,-11.87766 -1.765897,-4.22639 -1.089259,-5.38403 1.91643,-3.27875 3.624945,2.539 9.965765,1.85937 15.588169,-1.6708 3.93616,-2.47141 5.61434,-4.44023 7.73722,-9.077223 l 2.71086,-5.921289 -1.28558,-19.68654 c -0.84013,-12.865191 -1.80776,-20.696339 -2.79262,-22.600839 -2.15024,-4.158094 -1.94474,-4.794248 2.18107,-6.752076 3.49865,-1.660214 3.8791,-1.649354 7.40559,0.211403 4.39554,2.319321 8.00325,6.797645 9.54685,11.85073 0.61214,2.003864 1.63558,12.075233 2.27431,22.380821 1.09004,17.587016 1.0355,19.138839 -0.88835,25.275442 -2.85519,9.107351 -7.90423,14.883011 -16.97965,19.423251 -8.39933,4.20202 -13.341802,4.6707 -18.174977,1.72353 z m -20.111409,-4.13418 c -3.682153,-1.5526 -6.862505,-3.32595 -7.067449,-3.94078 -0.345739,-1.03722 10.860431,-6.31183 11.541818,-5.4326 1.89119,2.44031 5.711739,10.73045 5.27262,11.44096 -0.846578,1.36979 -2.352485,1.05035 -9.746989,-2.06758 z"
       id="path1" />
  </g>
</svg>
