<?xml version="1.0" encoding="UTF-8" standalone="no"?>
<!-- Created with Inkscape (http://www.inkscape.org/) -->

<svg
   version="1.1"
   id="svg1"
   width="358.50308"
   height="299.96637"
   viewBox="0 0 358.50308 299.96637"
   sodipodi:docname="logo.png"
   xmlns:inkscape="http://www.inkscape.org/namespaces/inkscape"
   xmlns:sodipodi="http://sodipodi.sourceforge.net/DTD/sodipodi-0.dtd"
   xmlns="http://www.w3.org/2000/svg"
   xmlns:svg="http://www.w3.org/2000/svg">
  <defs
     id="defs1" />
  <sodipodi:namedview
     id="namedview1"
     pagecolor="#306230"
     bordercolor="#000000"
     borderopacity="0.25"
     inkscape:showpageshadow="2"
     inkscape:pageopacity="0.0"
     inkscape:pagecheckerboard="0"
     inkscape:deskcolor="#d1d1d1" />
  <g
     inkscape:groupmode="layer"
     inkscape:label="Image"
     id="g1"
     transform="translate(-120.06065,0.102)">
    <path
       style="fill:#306230"
       d="m 269.31979,297.99303 c -22.82901,-6.63582 -37.96216,-29.99044 -43.87783,-67.71561 l -1.6855,-10.74871 0.52419,-16.51435 c 1.35781,-42.77668 17.63451,-78.45602 40.4662,-88.7039 l 5.75315,-2.58227 8.80341,-0.28049 8.8034,-0.28048 6.1966,2.05558 c 3.40812,1.13058 8.85903,4.01086 12.11312,6.40063 6.52197,4.78967 7.97264,4.63932 9.09385,-0.94253 0.35141,-1.74949 0.868,-3.99152 1.14797,-4.98227 l 0.50904,-1.80138 4.6663,0.30138 L 326.5,112.5 v 33 33 h -4.89321 -4.89322 l -2.3462,-10.46149 c -7.01142,-31.26332 -24.78915,-45.21533 -40.52214,-31.80188 -6.1969,5.28327 -11.33921,18.8188 -14.34678,37.76337 -6.30961,39.74398 1.11144,88.96523 15.45386,102.5 l 3.17902,3 h 6.75736 6.75737 l 4.12169,-2.72761 c 8.62905,-5.71043 12.56037,-17.28495 12.51068,-36.83371 C 308.23814,224.09017 306.5378,220 299.98964,220 297.05467,220 295,217.17043 295,213.12857 295,206.95763 294.80503,207 323.2,207 H 349 v 5.89301 c 0,6.22681 -0.67209,7.10699 -5.4268,7.10699 -1.24477,0 -3.12047,0.94662 -4.16821,2.1036 L 337.5,224.20719 337,261.8536 336.5,299.5 l -6.26294,0.29805 c -4.46011,0.21226 -6.38735,-0.0756 -6.69512,-1 -0.2377,-0.71393 -1.4039,-5.00214 -2.59157,-9.52936 l -2.15939,-8.23132 -4.6366,3.73132 c -2.55013,2.05222 -5.74111,4.72536 -7.09105,5.94031 -1.34995,1.21495 -5.40395,3.68995 -9.00889,5.5 L 291.5,299.5 l -8,0.14473 c -5.13558,0.0929 -10.21284,-0.49849 -14.18021,-1.6517 z m 24.25207,-10.66118 4.92814,-1.66814 11.21626,-11.16538 11.21627,-11.16538 0.68586,-13.66648 c 0.63443,-12.64169 -0.24924,-18.01011 -1.91565,-11.63777 -0.29178,1.11579 -0.90676,1.9625 -1.36663,1.88158 -2.13609,-0.37587 -3.33611,0.22165 -3.33611,1.66115 0,0.86428 -0.675,2.24643 -1.5,3.07143 l -1.5,1.5 -0.14935,-6.82143 -0.14936,-6.82143 -0.74137,11.5 c -1.7993,27.91026 -16.01334,43.63318 -33.45197,37.00302 -1.69322,-0.64376 -2.40732,-0.64922 -2.0156,-0.0154 0.33365,0.53987 -0.85714,1.87175 -2.6462,2.95975 l -3.25285,1.97817 3.45335,1.49809 c 4.6224,2.00523 14.46007,1.96124 20.52521,-0.0918 z m 31.7733,-67.78155 c 4.31869,-3.29402 11.56527,-6.50139 14.74985,-6.52834 C 341.52227,213.00988 343.50451,212.1 344.5,211 l 1.80998,-2 H 322.15499 298 v 3.05902 c 0,1.81743 0.4125,2.80408 1.01631,2.4309 0.55897,-0.34546 0.79454,-0.98695 0.52349,-1.42553 -1.71726,-2.77858 13.86622,2.53358 18.769,6.39806 3.86619,3.04742 3.16761,3.03869 7.03636,0.0879 z M 227.53277,202.25 c 0.4471,-1.9907 2.64824,-3.3964 2.34881,-1.5 -0.0651,0.4125 -0.0651,1.5375 0,2.5 L 230,205 l 4.25,0.15019 4.25,0.1502 L 234,206 c -4.87968,0.75864 -4.81701,1.17913 0.20492,1.375 l 3.20491,0.125 0.63935,2.5 c 0.4232,1.6548 0.85945,-0.20463 1.2904,-5.5 2.175,-26.72609 4.54452,-39.25082 10.09441,-53.35669 9.17921,-23.33031 24.9442,-33.97886 42.6379,-28.8 5.2369,1.53282 6.56326,2.31586 15.93346,9.40669 6.7426,5.10241 9.54388,3.12403 12.59632,-8.89602 0.88746,-3.49469 2.07024,-6.91648 2.62839,-7.60398 0.7693,-0.94758 0.29125,-1.25 -1.97595,-1.25 h -2.99077 l -0.56868,4.23978 c -0.3489,2.60127 -1.38703,4.90245 -2.68625,5.9545 l -2.11759,1.71471 -2.59429,-0.98635 -2.59429,-0.98635 1.39888,1.72381 1.39888,1.72382 -1.5,-0.87111 c -3.90627,-2.2685 -7.92759,-5.82096 -7.45494,-6.58572 C 302.95358,117.64805 288.18816,113 279.53987,113 c -28.44775,0 -51.21659,37.86621 -52.91412,88 -0.21416,6.325 -0.2114,9.7 0.006,7.5 0.21754,-2.2 0.62294,-5.0125 0.90087,-6.25 z m -107.1195,22.38457 c -0.29309,-0.76378 -0.39348,-3.5591 -0.22308,-6.21182 l 0.30981,-4.82312 6.5,-1.85567 c 3.96317,-1.13143 7.37813,-2.83133 8.75,-4.35558 L 138,204.88847 137.996,134.19424 137.992,63.5 136.11401,60.420309 C 134.19355,57.270126 131.55262,55.893541 124.5,54.366235 L 120.5,53.5 120.20184,48.912412 c -0.47007,-7.232727 -2.09288,-6.968 40.91509,-6.674421 L 199.5,42.5 l 0.31049,4.889511 c 0.36586,5.761519 -0.18356,6.493715 -5.3711,7.157884 -5.20401,0.666278 -10.74207,4.463346 -12.7831,8.764496 L 180,66.802258 v 65.976752 65.97674 l 1.41268,3.37213 c 1.97012,4.70275 5.3755,7.59441 11.47194,9.74134 6.84688,2.41122 7.29215,2.9732 6.92587,8.74127 L 199.5,225.5 l -39.27692,0.26163 -39.27692,0.26163 z m 3.94872,-6.4166 c -0.35787,-1.1165 -0.24983,-1.30533 0.30858,-0.53935 l 0.85923,1.17862 7.30024,-1.391 c 8.41494,-1.60339 13.86335,-4.09683 20.64965,-9.45022 l 4.81019,-3.79452 -0.21273,-34.8452 c -0.117,-19.16487 -0.40722,-35.0397 -0.64494,-35.27742 C 157.1945,133.86116 157,148.0846 157,165.70651 v 32.03984 l -4.71525,0.0947 c -2.59339,0.052 -5.96839,0.36988 -7.5,0.70628 L 142,199.15891 v -38.60196 -38.60196 l 7.8812,5.52251 c 4.33466,3.03737 8.15966,5.5225 8.5,5.5225 0.34034,0 0.67469,-5.7375 0.74301,-12.75 0.12057,-12.37658 1.40143,-29.95842 1.71845,-23.58848 0.15385,3.0913 1.9713,3.96937 3.8784,1.87377 0.42851,-0.47087 0.14707,-0.48936 -0.62557,-0.0411 -0.85696,0.49717 -1.16585,0.42868 -0.79234,-0.17568 1.01825,-1.64755 4.51918,-0.83404 7.18389,1.66932 1.38213,1.29844 2.59063,1.94486 2.68556,1.43648 0.0949,-0.50837 0.46726,2.00069 0.8274,5.57569 0.41345,4.10418 0.71842,-1.63419 0.8274,-15.5685 0.23848,-30.492 2.82972,-37.207793 15.68273,-40.645449 C 192.97956,50.125576 195,49.040327 195,48.374383 c 0,-0.665945 0.27314,-1.922612 0.60699,-2.792596 L 196.21398,44 H 159.5396 122.86522 l 0.67979,2.25 c 0.98732,3.267924 4.28267,4.830601 13.10544,6.214678 6.92355,1.086139 7.97085,3.482442 2.97205,1.581896 l -2.65488,-1.009382 4.53238,6.146281 -0.34846,71.158267 -0.34847,71.15826 -1.85155,4.26411 -1.85154,4.26411 -4.33987,1.86028 c -2.38693,1.02316 -5.70384,2.15987 -7.37091,2.52602 l -3.03104,0.66572 0.43292,2.94968 c 0.23811,1.62232 0.81287,2.71485 1.27725,2.42785 0.46438,-0.287 0.59653,-1.29491 0.29366,-2.2398 z m 244.3496,-23.83972 c -1.00397,-1.00396 -0.86059,-75.59503 0.14837,-77.1859 0.55754,-0.8791 2.57084,-1.20682 6.14336,-1 l 5.31403,0.30765 2.11424,8 c 8.71533,32.97758 23.26464,50.35493 42.55884,50.83127 l 6.83456,0.16873 4.28286,-3.00915 c 2.59482,-1.82313 5.28975,-4.96565 6.83751,-7.97311 L 445.5,159.55377 v -7.02688 c 0,-8.55182 -2.55362,-14.41027 -9.09019,-20.8545 -4.72851,-4.66172 -4.64523,-4.61383 -22.8682,-13.15175 C 380.43377,103.00878 367.35029,86.95111 366.26751,60.5 364.93807,28.02321 379.99021,6.222269 407.07305,1.398834 L 415.5,-0.102 l 6,1.143129 c 6.21901,1.184856 18.10383,5.437176 24.92186,8.916904 4.58997,2.34259 6.0574,1.631266 7,-3.393179 0.84861,-4.52353 2.61184,-5.745963 7.75424,-5.375963 L 465.5,1.5 v 32 32 h -5.42019 -5.4202 l -2.16637,-7.094634 c -7.40643,-24.255302 -20.05263,-37.678875 -35.487,-37.668421 l -6.80938,0.0046 -4.25985,2.379221 c -2.34291,1.308572 -5.19971,3.651339 -6.34843,5.206149 L 397.5,31.153853 V 38.326927 45.5 l 2.76947,4.711287 c 4.2629,7.251844 11.21667,12.540977 23.94298,18.211365 46.22539,20.596358 63.60641,53.332458 49.67499,93.559808 -11.00303,31.77153 -48.37437,43.21214 -77.49171,23.7228 -12.25941,-8.20569 -13.21186,-8.034 -15.61051,2.81401 l -1.32243,5.98073 -5.01981,0.29492 c -2.76089,0.16221 -5.34002,-0.0253 -5.73139,-0.41667 z m 73.85311,-13.8633 c 6.57426,-3.85277 12.95449,-11.63489 15.34677,-18.7188 1.90039,-5.62739 2.94396,-14.50486 1.26824,-10.78883 -0.37384,0.82903 -1.80471,1.56726 -3.17971,1.64051 -1.375,0.0733 -3.2875,0.4556 -4.25,0.84967 -1.07575,0.44043 -1.75,0.26723 -1.75,-0.44953 0,-0.6413 -0.45,-0.88789 -1,-0.54797 -0.55,0.33992 -1.0044,1.82898 -1.00977,3.30902 -0.0627,17.27099 -19.88135,26.93204 -37.49023,18.27545 l -6,-2.94962 2.68191,2.18258 2.6819,2.18257 -1.22364,1.65631 c -0.91532,1.23897 -1.67295,1.40485 -3.0069,0.65833 -0.9808,-0.54888 -2.00266,-0.77858 -2.2708,-0.51044 -5.73332,5.73332 29.91565,8.65305 39.20223,3.21075 z M 432,98.57339 c 0,-0.23463 -2.46382,-1.83626 -5.47515,-3.55917 l -5.47516,-3.13257 2.97516,-5.27168 c 3.56765,-6.32154 3.59342,-6.56254 0.72515,-6.782569 -1.2375,-0.09493 0.675,-0.432429 4.25,-0.75 L 435.5,78.5 l -5,-2.703439 c -6.32494,-3.419818 -5.10327,-3.642692 1.53324,-0.279715 2.73172,1.384265 4.96676,2.252957 4.96676,1.930426 0,-1.169039 -21.23628,-10.570581 -22.65081,-10.027773 -0.79919,0.306676 -1.20728,0.1599 -0.90687,-0.326169 0.30041,-0.486068 -0.14959,-1.150759 -1,-1.477091 -0.8854,-0.339758 -1.28509,-0.170855 -0.93524,0.395215 2.34301,3.79107 -9.34015,-4.792742 -12.93105,-9.500661 -13.06539,-17.129606 -6.37092,-36.903207 13.67568,-40.394171 l 6.36176,-1.107853 5.7759,1.504432 c 13.7383,3.578371 27.5454,20.243147 32.59212,39.337741 3.53311,13.36774 1.54255,-2.976121 -2.29553,-18.847894 l -2.29653,-9.496952 -1.87862,-0.361789 c -1.03324,-0.198983 -2.46621,0.441795 -3.18438,1.423952 -0.71817,0.982156 -1.42291,1.588626 -1.5661,1.347709 C 445.61715,29.675051 443.925,27.73549 442,25.605832 l -3.5,-3.872106 2.6574,1.687474 c 5.08007,3.225892 3.68842,-0.05438 -1.46833,-3.461012 -20.87201,-13.788385 -46.28122,-8.539129 -53.16945,10.984209 -1.81341,5.139745 -1.88253,6.136815 -0.40246,5.805603 0.61444,-0.1375 1.25568,0.578734 1.42497,1.591631 0.43767,2.618658 1.45303,3.354481 1.48344,1.075036 0.0141,-1.054167 1.15642,1.403472 2.53858,5.461419 1.38216,4.057947 2.38315,7.432947 2.22443,7.5 -0.15872,0.06705 -2.24015,1.170339 -4.62541,2.451748 -5.6239,3.02127 -5.66881,2.940167 -5.63079,-10.167505 L 383.56476,33.5 l 2.7802,-5.728783 c 3.01468,-6.211937 7.52232,-10.512036 14.62434,-13.951003 l 4.5307,-2.193876 10.07373,-0.06317 10.07372,-0.06317 8.42628,4.212829 c 4.63445,2.317057 9.77627,5.365575 11.42627,6.774486 l 3,2.561656 -1.89626,-0.274486 c -1.04294,-0.150967 -2.11684,0.359722 -2.38645,1.134865 -0.36441,1.047728 -0.006,1.204074 1.39626,0.609327 1.03755,-0.440012 2.83,-0.849219 3.98322,-0.90935 2.93539,-0.153053 5.43489,-2.472986 7.40941,-6.877093 l 1.68922,-3.767765 0.20757,7.767765 c 0.45983,17.208017 1.81554,15.964437 2.20843,-2.025777 L 461.5,2.912913 459.15002,3.206457 c -1.72631,0.215638 -2.70367,1.327777 -3.68269,4.190518 -0.73299,2.143337 -2.02751,4.591772 -2.8767,5.440967 l -1.54399,1.543991 -7.47011,-3.28287 C 439.46797,9.293485 435.56295,8.152079 434.8987,8.562605 434.16481,9.016178 433.95081,8.88861 434.35325,8.237451 435.66562,6.113991 425.05149,3.521507 415,3.51045 393.20258,3.486473 378.74264,13.593718 371.89098,33.6429 l -2.34336,6.8571 0.0503,9 c 0.0276,4.95 0.61632,12.24022 1.30819,16.200489 l 1.25793,7.20049 4.168,1.956947 c 2.2924,1.076321 5.293,2.242373 6.668,2.591226 l 2.5,0.634278 -2.36734,-1.389698 -2.36734,-1.389698 1.69913,-0.652017 C 383.39897,74.293408 385.02677,74 386.08179,74 387.1368,74 388,73.488421 388,72.863158 c 0,-0.625263 2.21555,0.837237 4.92344,3.25 8.14517,7.257442 10.57697,8.815462 24.86486,15.930612 C 432.99192,99.61494 432,99.15919 432,98.57339 Z"
       id="path1"
       sodipodi:nodetypes="sscsscccsssscccccccsssscccssssscssscccssscssscssccccssssscccsssscsscssscccsssssscsscccsscsssssssscsscccccsssscccsscssccccscsscssscccssscccssscsscsssccccccsssssssssssssscccsssccccccsscsssssscsscsscssssscsssscccccsscsscccssssscssssssssssscccsssssscssscssssssssscssscsssscsssssssssscsscccsscssssscsscssscsssssccscsscccssssss" />
  </g>
</svg>
