<?xml version="1.0" encoding="UTF-8" standalone="no"?>
<!-- Created with Inkscape (http://www.inkscape.org/) -->

<svg
   version="1.1"
   id="svg1"
   width="461"
   height="289.84332"
   viewBox="0 0 461 289.84332"
   sodipodi:docname="logo.png"
   xmlns:inkscape="http://www.inkscape.org/namespaces/inkscape"
   xmlns:sodipodi="http://sodipodi.sourceforge.net/DTD/sodipodi-0.dtd"
   xmlns="http://www.w3.org/2000/svg"
   xmlns:svg="http://www.w3.org/2000/svg">
  <defs
     id="defs1" />
  <sodipodi:namedview
     id="namedview1"
     pagecolor="#306230"
     bordercolor="#000000"
     borderopacity="0.25"
     inkscape:showpageshadow="2"
     inkscape:pageopacity="0.0"
     inkscape:pagecheckerboard="0"
     inkscape:deskcolor="#d1d1d1" />
  <g
     inkscape:groupmode="layer"
     inkscape:label="Image"
     id="g1"
     transform="translate(-69,-4.1566868)">
    <path
       style="fill:#306230"
       d="M 69,268 V 242 H 81.328583 93.657166 L 89.4917,237.65268 c -8.097503,-8.45102 -8.328993,-9.50341 -9.113734,-41.43248 l -0.695051,-28.2798 2.681602,-2.79899 2.681602,-2.79899 -2.672512,-5.83753 -2.672512,-5.83754 -0.737377,-40.08367 C 78.273441,73.060356 78.3428,70.229595 80.049569,66.266665 82.999827,59.416485 86.827978,55.23194 92.849853,52.274695 98.382521,49.557692 98.957429,49.489604 120.5,49 c 12.1,-0.275 30.33572,-0.275 40.52383,0 18.441,0.497764 18.55339,0.514562 25.13648,3.756776 C 197.00212,58.096441 201,65.449889 201,80.05194 c 0,8.84981 0.71113,9.64148 7.11238,7.9178 5.00282,-1.34712 18.22447,-1.63025 28.13762,-0.60255 8.89536,0.92219 9.69993,0.0559 5.30247,-5.70951 -1.34614,-1.764881 -3.92409,-6.347356 -5.72877,-10.183277 -6.05541,-12.870979 -4.69497,-30.44922 3.28095,-42.393258 11.43632,-17.126022 29.22082,-25.812497 50.88285,-24.852682 8.96333,0.397153 11.62079,0.936665 18.03323,3.661075 14.19517,6.030999 24.52777,15.942309 28.95457,27.773997 6.47184,17.297543 5.28295,30.234304 -4.18484,45.536945 -1.67012,2.69938 -1.99083,3.99914 -1.1855,4.80448 0.6172,0.6172 6.68779,1.36783 13.76738,1.70234 7.74396,0.3659 13.33628,1.09089 14.39552,1.86623 1.49698,1.09577 1.73214,3.12933 1.73214,14.9789 0,11.96736 0.22255,13.85256 1.75,14.82417 1.28073,0.81467 2.21927,0.81625 3.5,0.006 2.08362,-1.31837 2.20911,-7.2305 0.9121,-42.973161 -0.74097,-20.419588 -0.65555,-23.273024 0.73849,-24.667059 1.39436,-1.394362 7.66343,-1.580597 54.29171,-1.612837 28.99343,-0.02005 54.98611,-0.312829 57.76151,-0.650625 9.28841,-1.1305 8.66753,-4.725387 8.57589,49.654552 -0.0687,40.74444 0.13134,47.7554 1.39218,48.80181 1.01234,0.84016 3.20166,1.00589 7.00712,0.53043 3.04411,-0.38033 6.61093,-0.42141 7.92628,-0.0913 4.81682,1.20895 5.06752,3.68002 5.10757,50.34426 l 0.0371,43.27663 9.75,0.002 L 530,242 v 26 26 H 299.5 69 Z m 257.1127,18.19061 c 2.52218,-2.25357 3.23904,-3.79585 3.62335,-7.79543 0.41638,-4.33339 0.12795,-5.40336 -2.20353,-8.17416 -1.7453,-2.07418 -4.46301,-3.71683 -7.77814,-4.70132 C 313.16079,263.56161 310,261.44151 310,258.97695 310,256.09802 313.5584,253 316.86514,253 c 3.20299,0 8.13486,3.37845 8.13486,5.57258 0,0.78508 0.9,1.42742 2,1.42742 2.39042,0 2.56059,-2.01525 0.50571,-5.98896 C 325.36662,249.8745 322.18195,248 317.29327,248 c -8.68985,0 -13.99897,9.35723 -9.43455,16.62822 1.47496,2.34957 3.51857,3.65329 8.21014,5.23766 3.43551,1.16019 7.07545,2.85973 8.08876,3.77676 4.52756,4.09739 -0.45575,11.04702 -7.15731,9.98144 C 313.41388,283.05383 309,279.09261 309,276.44424 309,275.64991 308.1,275 307,275 c -3.91982,0 -1.53405,7.86155 3.61488,11.9117 4.111,3.23372 11.45401,2.89205 15.49782,-0.72109 z m 32.01574,1.24297 C 363.02033,284.90388 364,280.99936 364,264.03212 364,249.66667 363.9113,249 362,249 c -1.90013,0 -2,0.66667 -2,13.35078 0,7.34292 -0.50522,14.80006 -1.12272,16.5714 -1.86545,5.35124 -8.32973,6.71628 -12.42273,2.62327 C 344.06601,279.15692 344,278.68631 344,264.04545 V 249 h -2.5 -2.5 l 0.0239,13.25 c 0.0131,7.2875 0.43923,15.05 0.94691,17.25 1.88656,8.17531 10.45258,11.91804 18.15767,7.93358 z m 104.98851,-0.16174 C 465.76598,285.70702 470,278.9584 470,276.30091 c 0,-0.58721 -0.88495,-1.29907 -1.96655,-1.58191 -1.50509,-0.39359 -2.38504,0.33836 -3.75,3.11932 -3.64047,7.41705 -10.46364,7.98582 -15.00251,1.2506 -1.84782,-2.74198 -2.27814,-4.73328 -2.2662,-10.4868 0.008,-3.90617 0.57061,-8.18374 1.25,-9.50572 3.6727,-7.14645 12.37577,-8.01513 15.46197,-1.5433 1.7073,3.58024 2.10972,3.83064 4.61272,2.87014 2.26866,-0.87056 0.22243,-5.72274 -3.96316,-9.39773 -4.30993,-3.78417 -9.52892,-4.05896 -14.47839,-0.76231 -6.75081,4.49645 -9.61345,16.32364 -6.52355,26.95252 2.97251,10.22507 11.82409,14.73372 19.74262,10.05612 z M 131,280.96482 C 131,274.30567 132.77969,269 135.01338,269 c 0.43084,0 3.19159,4.26553 6.13499,9.47895 4.71595,8.35302 5.67828,9.48145 8.10163,9.5 1.5125,0.0116 2.75,-0.20308 2.75,-0.47703 0,-0.27394 -2.925,-5.27559 -6.5,-11.11478 -3.575,-5.83919 -6.5,-11.03953 -6.5,-11.55631 0,-0.51679 2.79105,-4.17764 6.20233,-8.13522 l 6.20233,-7.19561 -2.79375,-0.32524 c -1.53657,-0.17889 -2.89746,-0.17889 -3.02421,0 -0.12675,0.17888 -3.57311,4.37301 -7.65858,9.32028 l -7.42812,8.99504 -0.28753,-9.24504 C 129.95055,249.82327 129.75019,249 127.96247,249 126.0796,249 126,249.79096 126,268.5 V 288 h 2.5 c 2.42976,0 2.5,-0.19765 2.5,-7.03518 z m 31.26276,1.03379 L 164.02552,276 h 6.48304 6.48304 l 1.66815,6 c 1.49719,5.3851 1.93707,6 4.29212,6 h 2.62396 l -6.53792,-19.49888 c -5.81011,-17.32829 -6.77939,-19.49901 -8.70718,-19.5 -1.93503,-10e-4 -2.82584,2.04073 -8.25,18.90898 -3.3444,10.40056 -6.08073,19.17556 -6.08073,19.5 0,0.32445 1.0125,0.58928 2.25,0.58851 1.88701,-10e-4 2.53438,-0.96913 4.01276,-6 z M 166,270.35781 c 0,-0.3532 0.97326,-3.8407 2.16279,-7.75 l 2.1628,-7.10781 1.86104,6 c 1.02357,3.3 2.10564,6.7875 2.40459,7.75 0.46298,1.49057 -0.13354,1.75 -4.02383,1.75 C 168.05532,271 166,270.71102 166,270.35781 Z M 198,268.5 c 0,-18.83333 -0.0684,-19.5 -2,-19.5 -1.93162,0 -2,0.66667 -2,19.5 0,18.83333 0.0684,19.5 2,19.5 1.93162,0 2,-0.66667 2,-19.5 z m 16,10.5 v -9 h 8 8 v 9 c 0,8.33333 0.14815,9 2,9 1.93162,0 2,-0.66667 2,-19.5 0,-18.83333 -0.0684,-19.5 -2,-19.5 -1.83333,0 -2,0.66667 -2,8 v 8 h -8 -8 v -8 c 0,-7.86667 -0.0417,-8 -2.5,-8 H 209 v 19.5 19.5 h 2.5 c 2.48148,0 2.5,-0.0667 2.5,-9 z m 34.26276,2.99861 L 250.02552,276 h 6.48304 6.48304 l 1.66815,6 c 1.49719,5.3851 1.93707,6 4.29212,6 h 2.62396 l -6.53792,-19.49888 c -5.81011,-17.32829 -6.77939,-19.49901 -8.70718,-19.5 -1.93503,-10e-4 -2.82584,2.04073 -8.25,18.90898 -3.3444,10.40056 -6.08073,19.17556 -6.08073,19.5 0,0.32445 1.0125,0.58928 2.25,0.58851 1.88701,-10e-4 2.53438,-0.96913 4.01276,-6 z M 252,270.35781 c 0,-0.3532 0.97326,-3.8407 2.16279,-7.75 l 2.1628,-7.10781 1.86104,6 c 1.02357,3.3 2.10564,6.7875 2.40459,7.75 0.46298,1.49057 -0.13354,1.75 -4.02383,1.75 C 254.05532,271 252,270.71102 252,270.35781 Z M 288,271 v -17 h 5 c 4.66667,0 5,-0.16667 5,-2.5 V 249 H 285.5 273 v 2.5 c 0,2.33333 0.33333,2.5 5,2.5 h 5 v 17 17 h 2.5 2.5 z m 108,-2.5 c 0,-18.83333 -0.0684,-19.5 -2,-19.5 -1.93162,0 -2,0.66667 -2,19.5 0,18.83333 0.0684,19.5 2,19.5 1.93162,0 2,-0.66667 2,-19.5 z m 15.51694,5 c -0.39867,-7.975 -0.34058,-14.49565 0.1291,-14.49033 0.46968,0.005 4.22896,6.52597 8.35396,14.49033 6.27175,12.1092 7.86848,14.48224 9.75,14.49033 L 432,288 v -19.5 c 0,-18.74527 -0.0764,-19.5 -1.97327,-19.5 -1.86156,0 -1.98893,0.82606 -2.25,14.59306 L 427.5,278.18612 419.56514,263.59306 C 412.87515,251.28945 411.26706,249 409.31514,249 H 407 v 19.5 19.5 h 2.62089 2.6209 z M 485,285.5 c 0,-2 -0.5,-2.5 -2.5,-2.5 -2,0 -2.5,0.5 -2.5,2.5 0,2 0.5,2.5 2.5,2.5 2,0 2.5,-0.5 2.5,-2.5 z M 191.25,241.33772 c -0.6875,-0.27741 -1.8125,-0.27741 -2.5,0 -0.6875,0.27741 -0.125,0.50439 1.25,0.50439 1.375,0 1.9375,-0.22698 1.25,-0.50439 z m 189.5,-0.41782 c -1.18874,-0.69237 -2.31126,-0.69237 -3.5,0 -1.4277,0.83156 -1.1054,1.01928 1.75,1.01928 2.8554,0 3.1777,-0.18772 1.75,-1.01928 z M 373,237.18016 c 4.40749,-2.73602 7.55948,-2.74616 12,-0.0386 3.48249,2.12341 3.73513,2.13097 50.5,1.51085 25.85,-0.34279 52.35146,-0.62981 58.89213,-0.63783 L 506.28426,238 505.57415,196.90462 c -0.39057,-22.60245 -0.93837,-41.69019 -1.21735,-42.41719 -0.38351,-0.99942 -2.26806,-1.18865 -7.72652,-0.77583 -6.66321,0.50394 -7.44294,0.35361 -10.1229,-1.95159 l -2.90362,-2.49759 0.0644,-47.38121 0.0644,-47.38121 -21.61627,0.682189 c -11.88896,0.375204 -37.09956,0.449176 -56.02357,0.164382 l -34.4073,-0.517808 0.63982,11.335618 c 0.35189,6.234591 0.92989,20.785619 1.28443,32.335619 0.63277,20.61423 0.60421,21.05052 -1.5551,23.75 -3.17277,3.96646 -9.56476,3.91445 -13.41966,-0.10919 -2.71772,-2.8367 -2.73795,-2.96064 -2.57013,-15.75 L 356.23392,93.5 343.62654,92.93332 C 332.17458,92.41857 330.78918,92.15057 328.50958,90.009 324.90004,86.61802 325.19489,82.18746 329.45951,75.734616 332.99273,70.388462 336,61.061689 336,55.449864 336,50.968466 332.49843,37.89732 329.97052,32.94222 323.45708,20.174811 303.35564,8.971249 287.0399,9.014781 c -14.31618,0.0382 -31.00306,7.424585 -39.30515,17.39829 -2.78672,3.347811 -5.8727,7.908083 -6.85775,10.133939 -2.46946,5.580073 -4.27097,17.340153 -3.47224,22.666449 0.76634,5.110323 5.36611,15.308507 9.13112,20.2447 3.42668,4.492601 3.13876,9.969991 -0.67302,12.803481 -2.44726,1.81919 -3.14087,1.87031 -9.63338,0.71003 C 229.65866,91.7974 217.8055,92.03957 205,93.6097 c -3.95485,0.48492 -4.80286,0.22907 -7,-2.11198 -2.26947,-2.41812 -2.5,-3.46295 -2.5,-11.33073 0,-14.1743 -4.70858,-21.072675 -16.84312,-24.676244 -7.46678,-2.217396 -71.98961,-2.175041 -79.489472,0.05218 -6.605777,1.961705 -11.377343,6.151137 -13.894992,12.199795 -1.910552,4.590103 -1.950031,6.107268 -1.123456,43.173559 0.846699,37.96869 0.885775,38.47984 3.35386,43.87085 3.150505,6.8816 3.130034,8.67205 -0.143633,12.56259 l -2.640814,3.13842 0.698331,26.00593 c 0.774247,28.8331 1.166233,30.68069 8.002689,37.71997 l 3.359793,3.45946 26.360404,0.6612 c 42.69715,1.07098 56.40628,0.88189 60.51465,-0.8347 4.27732,-1.78718 9.65863,-1.93811 12.6187,-0.35393 2.51833,1.34777 61.76127,2.39317 129.22706,2.28035 43.36126,-0.0725 44.05081,-0.10512 47.5,-2.24626 z m -110.36591,-4.45845 c -1.70777,-1.24875 -1.74092,-2.94354 -0.66067,-33.76822 0.66731,-19.04155 0.83678,-42.16525 0.41008,-55.95349 -0.39999,-12.925 -0.76241,-28 -0.80538,-33.5 l -0.0781,-10 h 22.89391 c 14.27642,0 23.4322,0.39172 24.32398,1.04068 1.20261,0.87516 1.2835,3.41997 0.50856,16 -0.76056,12.34676 -0.71299,51.68716 0.12997,107.45932 l 0.14358,9.5 -22.53395,0.26822 c -17.38265,0.20691 -22.94498,-0.0323 -24.33196,-1.04651 z m -57.30118,-0.78182 c -1.74189,-0.52476 -4.25653,-2.24884 -5.58807,-3.83129 l -2.421,-2.87718 -0.68509,-52.86571 c -0.59279,-45.74301 -0.47917,-53.64969 0.84329,-58.68451 3.1685,-12.06299 6.50993,-14.05578 24.36092,-14.52854 18.25688,-0.48351 23.74152,1.70327 27.2061,10.84734 1.70076,4.4888 2.32274,98.65218 0.65843,99.68078 -0.57084,0.3528 -8.43404,0.54037 -17.47377,0.41682 -14.33671,-0.19594 -16.6784,-0.005 -18.33479,1.49387 -2.52577,2.28579 -2.40023,4.944 0.32358,6.85183 1.74922,1.2252 5.14258,1.5567 15.9349,1.5567 17.50116,0 20.7923,1.1263 20.82728,7.12756 0.0288,4.94862 -1.6449,5.35593 -22.88584,5.56944 -10.77937,0.10835 -21.02404,-0.23235 -22.76594,-0.75711 z m 22.6014,-46.8742 c 1.82023,-1.82023 1.93636,-3.61616 1.96917,-30.45167 l 0.0349,-28.51736 -2.60404,-2.04833 c -3.22705,-2.5384 -4.4791,-2.56135 -7.47353,-0.13697 l -2.36078,1.91136 -0.28292,27.91193 c -0.27452,27.08406 -0.22046,27.99133 1.82258,30.58864 2.5034,3.18256 6.15012,3.48693 8.89465,0.7424 z M 392,230.79355 c -6.64652,-3.38758 -9.33846,-9.07085 -8.51262,-17.972 0.34079,-3.67314 0.0847,-30.22314 -0.56915,-59 -1.6072,-70.73759 -1.66717,-87.468107 -0.31839,-88.819366 1.24613,-1.248427 34.62353,-2.100203 36.51401,-0.931821 0.85631,0.52923 1.18611,19.703837 1.27122,73.908587 l 0.11493,73.19396 2.80576,2.41355 c 3.60189,3.09837 6.14716,3.05153 9.37116,-0.17247 l 2.586,-2.586 -0.45221,-72.97475 c -0.42647,-68.821801 -0.35233,-73.028192 1.3028,-73.91399 2.18597,-1.169896 32.89391,-1.220817 34.72925,-0.05759 1.08402,0.687046 1.41436,9.967814 1.7143,48.16327 0.3106,39.55174 0.60841,47.54911 1.81564,48.75634 1.03683,1.03684 3.6556,1.41058 9.2857,1.32523 4.31288,-0.0654 8.43903,0.26506 9.16922,0.73431 1.06228,0.68265 1.30812,7.3715 1.23005,33.46639 -0.0537,17.93728 -0.36174,33.30163 -0.68461,34.14301 -0.46337,1.20751 -2.38297,1.52979 -9.11201,1.52979 -6.93655,0 -9.16319,-0.39444 -11.9502,-2.1169 l -3.42521,-2.1169 -5.69282,2.33852 c -5.46852,2.24639 -6.89454,2.35121 -36.19282,2.66045 -30.13813,0.3181 -30.55339,0.29471 -35,-1.97162 z m -256.5,0.26588 c -25.72661,-0.47974 -30.44529,-0.80324 -33.12605,-2.27101 -4.418834,-2.41941 -6.373171,-7.95347 -6.377367,-18.05866 -0.0019,-4.52637 -0.487196,-13.39452 -1.078481,-19.707 C 93.472962,175.59462 92.980267,176 113.17653,176 c 9.02201,0 15.77561,0.4392 17.02357,1.10709 2.00591,1.07353 2.04707,1.58783 1.35794,16.96914 l -0.71066,15.86206 2.53085,2.53085 c 3.07229,3.07229 6.90223,3.2504 9.70146,0.45117 2.00979,-2.00979 2.06704,-2.85841 1.70344,-25.25 -0.20693,-12.74367 -0.76014,-24.00785 -1.22934,-25.03151 -1.69218,-3.69177 -5.80291,-4.36545 -23.51701,-3.85406 L 103.2641,159.26895 99.382051,155.70464 95.5,152.14032 95.4857,127.32016 C 95.4778,113.66907 95.311178,95.68611 95.11535,87.35803 94.803263,74.085709 94.984815,71.834288 96.585712,69.124186 c 3.386888,-5.733544 4.515768,-5.896117 43.584748,-6.276704 34.97297,-0.340687 35.72578,-0.306331 38.5,1.757048 5.8129,4.323464 6.27222,6.232607 6.98187,29.01939 0.47797,15.34751 0.33503,21.53118 -0.5353,23.15741 -1.16165,2.17055 -1.59437,2.21867 -19.95221,2.21867 -13.26153,0 -19.11675,-0.35193 -19.96482,-1.2 -1.49631,-1.49631 -1.51692,-5.56881 -0.0926,-18.3 1.26181,-11.27856 0.5177,-14.80243 -3.51358,-16.63921 -3.53966,-1.61277 -7.31671,-0.29734 -9.11141,3.17322 -1.34551,2.60194 -1.44649,6.10121 -0.75275,26.08637 1.02931,29.65201 -1.08184,27.31495 23.79269,26.33877 19.92085,-0.78177 22.3888,-0.29609 25.92584,5.10212 1.55183,2.3684 1.71938,5.22691 1.5123,25.80111 -0.12809,12.72569 -0.13421,30.32854 -0.0136,39.11744 l 0.21927,15.97982 -3.56839,3.27018 c -2.49319,2.28484 -4.55206,3.27429 -6.83306,3.28383 -1.79558,0.008 -4.16469,0.14676 -5.26469,0.30943 -1.1,0.16268 -15.5,0.044 -32,-0.26365 z m 186.12938,-0.34117 c -1.63323,-1.19424 -1.74901,-4.86327 -1.69614,-53.75 0.0334,-30.8955 -0.39074,-56.97669 -1.0316,-63.43345 C 317.4697,99.10796 317.5773,99 333.38828,99 c 16.19297,0 15.8332,-0.40169 14.974,16.71874 C 347.56926,131.52032 347.81025,132 356.54191,132 c 2.8378,0 6.59047,0.49879 8.33925,1.10842 5.6978,1.98626 6.11492,4.09362 6.15413,31.09192 0.0194,13.36481 0.4427,30.20244 0.94065,37.41695 1.12142,16.2476 -0.14377,23.35647 -4.91562,27.62012 L 363.96845,232 h -20.2931 c -14.92408,0 -20.75686,-0.33911 -22.04597,-1.28174 z M 351.71019,212 c 0.92214,-1.83521 1.24832,-10.03658 1.22664,-30.84181 l -0.0295,-28.3418 -2.4082,-2.4082 c -2.94781,-2.94781 -4.46126,-3.01239 -7.86424,-0.33561 L 340,152.14516 v 29.20491 c 0,33.26799 0.15216,34.01419 6.82202,33.45463 2.70094,-0.22659 3.95401,-0.94557 4.88817,-2.8047 z M 281.12042,89.84766 C 256.75807,85.91447 243.486,58.753849 255.1932,36.788895 c 13.47099,-25.274159 50.14261,-25.274159 63.6136,0 9.5022,17.827955 3.02587,39.645642 -14.53846,48.977645 -5.09783,2.70851 -7.43222,3.39678 -15.76834,4.64916 -1.1,0.16526 -4.42081,-0.0904 -7.37958,-0.56804 z"
       id="path1" />
  </g>
</svg>
