<?xml version="1.0" encoding="UTF-8" standalone="no"?>
<!-- Created with Inkscape (http://www.inkscape.org/) -->

<svg
   version="1.1"
   id="svg1"
   width="600"
   height="143"
   viewBox="0 0 600 143"
   sodipodi:docname="logo.png"
   xmlns:inkscape="http://www.inkscape.org/namespaces/inkscape"
   xmlns:sodipodi="http://sodipodi.sourceforge.net/DTD/sodipodi-0.dtd"
   xmlns="http://www.w3.org/2000/svg"
   xmlns:svg="http://www.w3.org/2000/svg">
  <defs
     id="defs1" />
  <sodipodi:namedview
     id="namedview1"
     pagecolor="#306230"
     bordercolor="#000000"
     borderopacity="0.25"
     inkscape:showpageshadow="2"
     inkscape:pageopacity="0.0"
     inkscape:pagecheckerboard="0"
     inkscape:deskcolor="#d1d1d1" />
  <g
     inkscape:groupmode="layer"
     inkscape:label="Image"
     id="g1">
    <path
       style="fill:#306230"
       d="M 59.32234,139.96922 C 7.1665116,130.58145 -13.131819,65.486463 24.563301,28.5 56.059272,-2.403857 109.02715,6.26246 128.78555,45.55228 152.77191,93.24945 111.49144,149.35939 59.32234,139.96922 Z m 26.217561,-2.50777 C 158.11081,118.72786 145.31869,11.662851 70.5,11.58345 l -12,-0.01273 -8.544169,3.024565 C -25.460382,41.291997 8.175787,157.43237 85.539901,137.46145 Z M 63.617739,131.94511 C 51.922234,129.02651 39.451948,118.72418 33.852344,107.35441 L 30.5,100.54761 30.2539,64.523807 30.0078,28.5 32.7539,31.759015 35.5,35.01803 68.452393,35.009015 101.40479,35 l 3.35499,-3.25 3.35499,-3.25 -0.30739,36.5 -0.30738,36.5 -3.20145,6.75853 c -8.078085,17.0535 -25.833539,27.39169 -40.680811,23.68658 z m 10.198262,-6.5415 C 77.920909,120.76704 78.122781,121 70,121 c -7.992028,0 -8.16014,0.20782 -3.803833,4.70239 3.940765,4.06584 3.749039,4.07336 7.619834,-0.29878 z m 9,-8 C 86.920909,112.76704 87.122781,113 79,113 c -8.12014,0 -7.956758,-0.18683 -3.75,4.28823 4.11046,4.37263 3.801099,4.36791 7.566001,0.11538 z m -19.113608,-0.59978 c 4.335496,-4.20213 4.24495,-4.36262 -2.233718,-3.95939 -8.439134,0.52527 -9.457379,-0.22914 -5.633833,-4.17404 C 57.575679,106.87431 59,105.08871 59,104.70239 59,103.83209 45.571528,103.7618 44.705757,104.62758 44.024868,105.30847 49.939883,112 51.222648,112 c 0.430407,0 2.408749,1.8 4.396317,4 4.341276,4.80527 3.990933,4.77044 8.083428,0.80383 z M 73,109 76.168059,105 H 68.881082 61.594104 L 65.5,109 c 2.148243,2.2 4.001756,4 4.118918,4 0.117163,0 1.63865,-1.8 3.381082,-4 z m 18,0 3.168059,-4 H 86.881082 79.594104 L 83.5,109 c 2.148243,2.2 4.001756,4 4.118918,4 0.117163,0 1.63865,-1.8 3.381082,-4 z M 46.816001,98.40361 C 50.937917,93.74783 51.196691,94 42.297052,94 H 34.594104 L 38.5,98 c 4.732844,4.84687 4.396683,4.83056 8.316001,0.40361 z m 17.886392,0.40022 C 69.262873,94.38364 68.967193,94 61,94 c -7.992028,0 -8.16014,0.20783 -3.803833,4.70239 3.885909,4.00924 3.480058,4.00376 7.506226,0.10144 z M 81.984783,98.75 C 86.094073,94.23291 85.898687,94 78,94 c -8.165996,0 -8.117795,-0.0661 -3.25,4.45948 4.536073,4.21722 3.693367,4.18338 7.234783,0.29052 z m 18.717607,0.0538 C 105.26287,94.38364 104.96719,94 97,94 c -7.992028,0 -8.16014,0.20783 -3.803833,4.70239 3.885909,4.00924 3.480058,4.00376 7.506223,0.10144 z M 85.137423,87.25311 C 92.915098,83.42417 100.18471,76.365726 103.65433,69.274081 l 2.58942,-5.292585 -0.43007,-8.995366 C 105.19544,42.055103 100.63302,37.00504 89.565724,37.001554 74.438632,36.99679 64.129809,54.437226 72.653914,65.612905 l 2.653914,3.47946 -2.153914,2.913325 C 71.784771,73.857555 71,76.391155 71,78.959507 71,81.88439 70.585839,83 69.5,83 68.414161,83 68,81.88439 68,78.959507 68,76.391155 67.215229,73.857555 65.846086,72.00569 l -2.153914,-2.913325 2.653914,-3.47946 C 76.286116,52.580853 62.031483,33.866728 45.277018,37.952482 23.089877,43.363052 29.49723,75.670748 55.220073,88.08819 L 61.5,91.11976 70.126832,90.75779 c 7.208839,-0.30247 9.676131,-0.87853 15.010591,-3.50468 z M 44.5,68.597485 C 35.590684,64.66482 33.724057,52.775756 41.048324,46.612792 49.921449,39.146549 63.009344,45.430723 62.996262,57.151129 62.986138,66.221216 53.048699,72.37097 44.5,68.597485 Z M 57.6,64.6 C 67.932867,54.267133 53.658109,38.337194 42.69309,47.964609 38.159154,51.945457 37.126414,56.356795 39.538423,61.439728 43.018316,68.773057 51.876932,70.323068 57.6,64.6 Z M 46,63.730156 C 38.520528,59.874682 41.322549,48 49.711782,48 52.926521,48 58,53.121896 58,56.367313 c 0,5.527533 -7.104237,9.886481 -12,7.362843 z m 37.5,4.8582 C 73.136261,63.982157 72.293858,50.065796 82.061664,44.827265 88.957482,41.128997 96.710173,43.875245 100.35313,51.306682 105.49426,61.794294 94.221591,73.353604 83.5,68.588356 Z M 93.960167,66.364459 C 104.62989,60.061701 100.04005,45 87.44966,45 82.292463,45 77,50.292463 77,55.44966 c 0,9.641438 9.148713,15.529138 16.960167,10.914799 z M 82.454545,61.545455 C 77.485562,56.576471 81.00958,48 88.020287,48 c 4.266325,0 6.479903,1.379138 7.963883,4.961783 3.441491,8.308495 -7.110344,15.002952 -13.529625,8.583672 z M 497.46331,123.34387 C 498.4165,118.26294 498.64061,118 502.01801,118 h 2.89998 l -1.79942,4.25 c -1.25781,2.97078 -2.48781,4.35121 -4.08647,4.58626 l -2.28705,0.33625 z M 154,109.44774 V 95.89548 l 5.08468,0.30226 5.08468,0.30226 3.71455,8.7159 C 172.83798,116.84023 173,116.8524 173,105.60024 v -9.73309 l 2.75,0.31643 2.75,0.31642 0.2794,13.30328 0.27939,13.30328 -5.09867,-0.30328 -5.09868,-0.30328 -4.18072,-9.49834 -4.18072,-9.49833 -0.28621,9.74833 L 159.92758,123 H 156.96379 154 Z M 184,114 v -9 h 3 3 v 9 9 h -3 -3 z m 12,-4.5 V 96 h 3 3 v 5.52305 5.52306 l 2.45936,-1.61144 C 210.80235,101.27859 215,105.45989 215,115.93426 V 123 h -3 -3 v -5.80887 c 0,-12.032 -6.26325,-12.80318 -6.79569,-0.83674 L 201.90862,123 H 198.95431 196 Z m 26.30576,11.08658 c -5.98155,-5.14511 -2.99274,-14.95173 4.94973,-16.24062 9.42725,-1.52983 15.43954,5.46733 12.12333,14.10924 -1.81768,4.73678 -12.49452,6.06967 -17.07306,2.13138 z m 10.50816,-3.88421 c 1.549,-3.23187 0.53739,-7.46506 -2.18201,-9.13093 -3.53718,-2.16682 -6.18178,5.66408 -3.56444,10.55463 1.42388,2.66054 4.1076,1.99564 5.74645,-1.4237 z m 12.00705,-2.70467 -0.32097,-9.00229 3.25,0.002 c 1.7875,0.001 3.25,0.47782 3.25,1.059 0,0.5923 0.97677,0.37255 2.22251,-0.5 C 259.64875,101.05559 264,105.09562 264,115.56336 v 7.56336 l -3.22201,-0.31336 -3.22201,-0.31336 0.28358,-4.52297 C 258.20218,112.19334 256.64379,108 254.13174,108 251.64101,108 251,109.85888 251,117.08179 V 123 h -2.92903 -2.92903 z m 36.66781,7.83366 c -0.30556,-0.79629 -0.42804,-6.8216 -0.27217,-13.38958 L 281.5,96.5 l 7,0.0652 c 8.90185,0.0828 12.1616,0.93404 13.55617,3.5398 1.48526,2.77524 0.41798,6.60979 -2.05849,7.39579 -2.60853,0.82791 -2.52774,1.79246 0.25232,3.01213 3.12446,1.37078 3.64056,7.37121 0.85112,9.89562 -2.72672,2.46764 -18.76492,3.63121 -19.61234,1.42287 z M 295.8,116.8 c 2.44444,-2.44444 -0.3739,-5.8 -4.87143,-5.8 H 288 v 3.5 3.5 h 3.3 c 1.815,0 3.84,-0.54 4.5,-1.2 z M 295.5,104 c 0,-2.16705 -0.49943,-2.54133 -3.75,-2.81037 L 288,100.87927 V 104 v 3.12073 l 3.75,-0.31036 c 3.25057,-0.26904 3.75,-0.64332 3.75,-2.81037 z m 14.15499,17.17126 c -1.21613,-1.3438 -1.65499,-3.73039 -1.65499,-9 V 105 h 3 3 v 5.41821 C 314,116.99019 314.6808,119 316.90699,119 319.878,119 321,116.75217 321,110.8 V 105 h 3 3 v 9 9 h -3 c -2.04857,0 -3,-0.4937 -3,-1.5567 v -1.55671 l -2.22251,1.55671 c -2.98304,2.0894 -7.09643,1.96674 -9.1225,-0.27204 z m 23.56752,0.27204 c -1.22238,-0.85619 -2.22251,-2.20619 -2.22251,-3 0,-2.05839 5.6543,-1.88346 6.82652,0.21119 0.5572,0.99566 1.57251,1.40636 2.54969,1.03139 3.01682,-1.15766 1.64997,-3.20714 -3.31497,-4.97053 -7.06218,-2.50827 -8.02081,-7.24681 -1.97287,-9.75196 5.15181,-2.13395 12.91163,0.4069 12.91163,4.22774 0,1.51069 -5.27307,0.81769 -6.49515,-0.85361 -0.72008,-0.98477 -1.88606,-1.40521 -2.86024,-1.03138 -2.55022,0.9786 -1.95581,2.33512 1.60539,3.66373 7.72097,2.88053 7.75,2.90283 7.75,5.95199 0,3.8178 -3.16098,6.07814 -8.5,6.07814 -2.23024,0 -5.05512,-0.70052 -6.27749,-1.5567 z M 353,121 c -1.1,-1.1 -2,-2.45 -2,-3 0,-1.64082 6.71514,-1.18473 7.36163,0.5 0.74843,1.95038 3.25887,1.93135 4.01167,-0.0304 0.39711,-1.03485 -0.29683,-1.8729 -2.14301,-2.58807 -6.36353,-2.46507 -7.73698,-3.50171 -8.03738,-6.06636 C 351.80143,106.47298 355.12152,104 360,104 c 3.92969,0 8,2.3184 8,4.5567 0,1.95252 -3.90505,1.83921 -6.13401,-0.17798 -0.99981,-0.90481 -2.5206,-1.3415 -3.44137,-0.98817 -2.43211,0.93329 -0.30676,3.02858 4.54719,4.48286 4.36126,1.30666 6.22227,3.66844 5.39209,6.84302 C 367.21862,123.09599 356.66465,124.66465 353,121 Z m 20.57143,0.42857 C 369.16069,117.01783 373.71736,111 381.46788,111 383.07505,111 384,110.44061 384,109.46862 c 0,-1.94029 -2.63559,-3.00046 -4.26273,-1.71469 -2.37896,1.87983 -6.86525,2.14912 -6.52681,0.39177 0.73071,-3.79429 10.39418,-5.51178 14.56703,-2.589 1.9795,1.38649 2.22251,2.42525 2.22251,9.5 V 123 h -2.44098 c -1.34254,0 -2.71985,-0.45122 -3.06069,-1.0027 -0.41425,-0.67028 -1.24086,-0.67028 -2.49328,0 -2.76676,1.48072 -6.64575,1.21914 -8.43362,-0.56873 z M 382.8,118.8 c 2.33137,-2.33137 1.45297,-4.96204 -1.54145,-4.61642 -3.02772,0.34946 -4.37204,3.49582 -2.10694,4.93128 1.79452,1.13724 2.23424,1.09929 3.64839,-0.31486 z m 12.86667,3.53333 C 395.3,121.96667 395,117.85814 395,113.20328 v -8.46338 l 4.5158,0.50899 c 2.48369,0.27995 4.76025,0.11347 5.05902,-0.36995 3.90914,-6.32512 10.98328,2.75154 10.24379,13.14357 L 414.5,122.5 l -3.20498,0.31 -3.20498,0.31 -0.29502,-7.31 L 407.5,108.5 h -2.5 -2.5 l -0.29381,7.25 -0.29381,7.25 h -2.78952 c -1.53424,0 -3.08953,-0.3 -3.45619,-0.66667 z m 42.42973,-0.59807 c -8.81252,-4.52893 -8.76332,-19.75342 0.0786,-24.32577 6.16444,-3.18774 17.825,0.25635 17.825,5.26482 0,1.85569 -6.43155,1.71555 -8,-0.17431 -1.87229,-2.25597 -6.71504,-1.90097 -8.04815,0.58997 -4.34902,8.12622 2.69396,19.86143 8.04815,13.41003 1.63184,-1.96625 8,-2.02311 8,-0.0714 0,5.07772 -11.63732,8.52706 -17.9036,5.30669 z m 26.4036,0.11001 c -7.14395,-3.90744 -5.76289,-15.48626 2.08196,-17.4552 7.77321,-1.95095 13.91804,2.12159 13.91804,9.22429 0,7.69083 -8.75399,12.19417 -16,8.23091 z m 8.46482,-3.77953 c 2.44957,-4.57706 0.12239,-12.08065 -3.33522,-10.75385 -0.91279,0.35027 -2.11432,1.83283 -2.67007,3.29457 -2.24776,5.91204 3.20714,12.68767 6.00529,7.45928 z M 522,109.53753 V 96 h 3.5 3.5 v 11 11 h 6.06955 6.06955 l -0.31955,2.25 -0.31955,2.25 -9.25,0.28753 -9.25,0.28752 z m 25.75,12.38237 c -1.36121,-0.79283 -1.75,-2.36205 -1.75,-7.06321 0,-5.20293 -0.2783,-6.11671 -2,-6.56694 C 541.62789,107.66943 541.29814,105 543.59362,105 c 0.87649,0 1.82157,-0.87169 2.10018,-1.9371 0.27861,-1.0654 1.81148,-2.39199 3.40638,-2.94798 L 552,99.10404 v 2.5416 c 0,1.7006 0.66179,2.71466 2,3.06461 1.1,0.28766 2,1.14553 2,1.90638 0,0.76085 -0.9,1.38337 -2,1.38337 -1.73823,0 -2,0.66667 -2,5.09362 0,4.25262 0.33022,5.17997 2,5.61663 1.10692,0.28947 2,1.36402 2,2.40638 0,2.13597 -5.10801,2.63332 -8.25,0.80327 z m 14.42431,-1.23435 c -7.25026,-7.71755 0.49799,-19.3003 10.15978,-15.18772 l 1.83409,0.78069 -0.3061,-4.88926 L 573.55598,96.5 576.77799,96.18664 580,95.87328 V 109.43664 123 h -2.91667 c -1.60416,0 -3.08817,-0.51453 -3.2978,-1.1434 -0.28595,-0.85786 -0.91465,-0.85786 -2.51759,0 -3.34132,1.78822 -6.7226,1.35279 -9.09363,-1.17105 z m 11.026,-4.22584 C 574.89375,112.74301 573.18779,108.5 570,108.5 c -1.76477,0 -2.71888,0.75933 -3.40479,2.70971 C 565.34638,114.76073 567.19918,119 570,119 c 1.21729,0 2.51063,-1.02661 3.20031,-2.54029 z M 184,98.5 c 0,-2.36109 0.32866,-2.59503 3.25,-2.31336 2.47888,0.23901 3.25,0.7879 3.25,2.31336 0,1.52546 -0.77112,2.07435 -3.25,2.31336 -2.92134,0.28167 -3.25,0.0477 -3.25,-2.31336 z m 68.5,-12.39004 c -9.22001,-4.25531 -13.53175,-16.955559 -9.43638,-27.79486 5.62455,-14.886616 35.50825,-14.705762 38.49599,0.232975 L 282.15,61.5 h -7.075 c -5.80953,0 -7.075,-0.285291 -7.075,-1.595012 0,-4.348068 -6.42743,-6.300135 -9.51402,-2.889491 -3.33758,3.687981 -3.25394,18.073691 0.12473,21.452357 C 261.74705,81.6042 268,79.075796 268,74.671259 268,73.259532 269.15385,73 275.43019,73 h 7.4302 l -0.90631,3.160128 C 279.91044,83.28586 272.20824,87.95608 262.5,87.95608 c -3.72215,0 -7.51856,-0.70087 -10,-1.84612 z M 385.59514,85.5 C 381.15238,82.48507 381,82.46849 381,85 v 2 h -7 -7 V 59 31 l 7.25,-0.0021 7.25,-0.0021 -0.31434,10.50211 c -0.34252,11.443699 -0.3511,11.423633 3.62783,8.48188 7.23881,-5.351882 19.5303,-2.478232 23.61173,5.52023 9.5311,18.678274 -7.17139,40.62628 -22.83008,30 z m 6.36542,-6.478891 c 6.0295,-3.226892 4.9934,-21.990623 -1.30152,-23.570549 -8.86146,-2.224084 -13.26601,14.696326 -5.93445,22.79761 1.76997,1.95579 4.48407,2.24571 7.23597,0.772939 z m 34.36042,7.365601 C 420.97063,83.74814 420,80.17215 420,63.098871 V 48 h 7 7 v 13.845012 c 0,15.10897 0.7322,17.173488 6.07874,17.139675 C 445.81136,78.948432 447,75.785203 447,60.565741 V 48 h 6.95903 6.95904 L 461.20903,67.501069 461.5,87.00214 454.25,87.00114 447,87 v -2.67431 -2.67432 l -2.25,2.04935 c -5.07685,4.62411 -12.34959,5.6841 -18.42902,2.68599 z m 53.99433,-0.003 C 475.99939,84.2556 475,80.77097 475,67.850777 V 57 H 471.5 468 V 52.5 48 h 3.43664 3.43664 L 475.18664,44.822078 475.5,41.644156 482.25,38.88437 489,36.124585 V 42.062292 48 h 4.5 4.5 v 4.5 4.5 h -4.5 -4.5 v 9.8 c 0,10.903765 0.60562,12.2 5.7,12.2 h 3.3 v 3.89301 c 0,2.62743 -0.51423,4.09034 -1.58179,4.5 -3.0438,1.16802 -12.94653,0.54749 -16.1029,-1.00905 z m 30.01537,-0.26079 c -4.28914,-2.00932 -5.57302,-3.61109 -6.7114,-8.37322 L 502.9619,75 l 6.76905,0.0063 6.76905,0.0063 1.70349,2.993678 C 520.5658,82.15779 527,81.48555 527,77.087261 c 0,-2.548402 -1.86018,-3.857008 -8.12139,-5.713278 -11.98793,-3.55408 -15.70128,-7.175263 -14.41095,-14.053296 2.22508,-11.860665 29.42765,-13.9955 34.15537,-2.680484 C 540.75757,59.748887 540.51755,60 533.5,60 c -4.77822,0 -6.5,-0.356279 -6.5,-1.345012 0,-4.058221 -7.16064,-5.966326 -9.33988,-2.488811 -1.69454,2.704053 0.77743,4.541235 9.82254,7.300163 12.60281,3.844093 15.77214,8.201391 12.19411,16.76483 -2.95921,7.08239 -19.65103,10.43372 -29.34609,5.892 z m 45.98403,0.41317 C 550.7577,84.11943 549.6279,80.43094 549.18204,63.25 L 548.7863,48 h 6.99102 6.99102 l 0.4133,13.25 c 0.47855,15.341936 1.31948,17.75 6.19856,17.75 6.08422,0 7.07425,-2.339955 7.44728,-17.601753 L 577.15496,48 H 584.07748 591 V 67.5 87 h -7 -7 v -2.67431 -2.67432 l -2.25,2.1077 c -4.56835,4.27944 -12.30253,5.44459 -18.43529,2.77727 z M 154,59 V 31 h 11.29359 11.29358 l 8.37395,19.25 c 4.60567,10.5875 8.74855,19.6775 9.20641,20.2 C 194.62539,70.9725 195,62.31 195,51.2 V 31 h 6.5 6.5 v 28 28 h -10.81517 -10.81517 l -8.93483,-20.412214 c -4.91416,-11.226717 -9.08274,-20.26631 -9.26351,-20.087985 -0.18078,0.178326 -0.27668,9.363822 -0.21312,20.412214 L 168.07376,87 H 161.03688 154 Z m 65,8.5 V 48 h 7 7 V 67.5 87 h -7 -7 z M 291,59 V 31 h 7 7 v 10.969863 10.969863 l 3.63955,-2.469863 C 322.80918,40.854088 332,49.305257 332,71.95034 V 87 h -7 -7 V 73.5 C 318,56.416949 314.4941,51.414993 307.45455,58.454545 L 305,60.909091 V 73.954545 87 h -7 -7 z m 52,8.5 V 48 h 7 7 V 67.5 87 h -7 -7 z M 218,36 v -5 h 7.5 7.5 v 5 5 h -7.5 -7.5 z m 125,0 v -5 h 7 7 v 5 5 h -7 -7 z"
       id="path85812" />
  </g>
</svg>
