<?xml version="1.0" encoding="UTF-8" standalone="no"?>
<!-- Created with Inkscape (http://www.inkscape.org/) -->

<svg
   width="54.201958mm"
   height="8mm"
   viewBox="0 0 54.201957 8"
   version="1.1"
   id="svg1"
   inkscape:version="1.3.2 (091e20ef0f, 2023-11-25)"
   sodipodi:docname="auto-actionstealth.svg"
   xmlns:inkscape="http://www.inkscape.org/namespaces/inkscape"
   xmlns:sodipodi="http://sodipodi.sourceforge.net/DTD/sodipodi-0.dtd"
   xmlns="http://www.w3.org/2000/svg"
   xmlns:svg="http://www.w3.org/2000/svg">
  <sodipodi:namedview
     id="namedview1"
     pagecolor="#505050"
     bordercolor="#eeeeee"
     borderopacity="1"
     inkscape:showpageshadow="0"
     inkscape:pageopacity="0"
     inkscape:pagecheckerboard="0"
     inkscape:deskcolor="#505050"
     inkscape:document-units="mm"
     showgrid="true"
     inkscape:zoom="2.4845635"
     inkscape:cx="59.165322"
     inkscape:cy="31.595087"
     inkscape:window-width="2560"
     inkscape:window-height="1440"
     inkscape:window-x="1920"
     inkscape:window-y="0"
     inkscape:window-maximized="1"
     inkscape:current-layer="layer1">
    <inkscape:grid
       id="grid1"
       units="mm"
       originx="8.4159093"
       originy="0.70037085"
       spacingx="0.99999998"
       spacingy="1"
       empcolor="#0099e5"
       empopacity="0.30196078"
       color="#0099e5"
       opacity="0.14901961"
       empspacing="5"
       dotted="false"
       gridanglex="30"
       gridanglez="30"
       visible="true" />
  </sodipodi:namedview>
  <defs
     id="defs1" />
  <g
     inkscape:label="Calque 1"
     inkscape:groupmode="layer"
     id="layer1"
     transform="translate(8.4159089,0.7003708)">
    <!--!Font Awesome Free 6.5.1 by @fontawesome - https://fontawesome.com License - https://fontawesome.com/license/free Copyright 2024 Fonticons, Inc.-->
    <path
       d="m 0.0663737,4.8446622 q 1.1516505,0.3908384 2.4096616,0.3908384 0.6228987,0 1.0002033,-0.061068 L 3.5960691,4.5026786 2.514266,4.4049686 Q 1.5768485,4.3194731 1.048558,4.0629854 0.53465999,3.794284 0.36532168,3.305736 0.19598332,2.817188 0.33542237,2.0355111 0.51843608,1.0095603 0.9161442,0.42330269 1.316031,-0.17516868 2.0091105,-0.43165638 q 0.707472,-0.26870141 1.8555598,-0.26870141 1.5022852,0 2.8048576,0.36641101 L 6.0155878,1.6202453 Q 5.4044415,1.4858946 4.9734632,1.4370398 4.5446636,1.3759713 4.080543,1.3759713 q -0.6228987,0 -1.0124172,0.061069 L 2.9504742,2.0965801 3.8146094,2.1820761 Q 5.2785361,2.3286405 5.8313179,2.9271118 6.3984921,3.5133694 6.1893336,4.6858846 5.947494,6.0416053 5.052523,6.6767178 4.1597307,7.2996165 2.47424,7.2996165 q -1.73434539,0 -3.10934129,-0.4396932 z M 10.274831,7.1164105 H 7.8320902 L 8.8343082,1.4981083 H 7.1243902 L 7.4838815,-0.51715228 H 13.346458 L 12.986967,1.4981083 H 11.277049 Z M 15.45873,5.1011499 h 2.87022 l -0.359491,2.0152606 h -5.31296 l 1.361709,-7.63356278 h 5.374028 L 18.727403,1.4981083 h -2.625946 l -0.163405,0.9160276 h 2.44274 l -0.315917,1.7709865 h -2.44274 z m 8.173739,0.8061042 h -2.21068 l -0.521037,1.2091564 h -2.44274 l 3.315901,-7.63356278 h 3.798461 l 0.592483,7.63356278 h -2.44274 z M 23.484265,4.1362676 23.309788,1.8278782 h -0.109923 l -0.998039,2.3083894 z m 4.714064,-4.65341988 h 2.44274 L 29.638851,5.1011499 h 2.320603 L 31.599963,7.1164105 H 26.83662 Z m 7.126807,7.63356278 h -2.44274 l 1.002218,-5.6183022 h -1.709918 l 0.359491,-2.01526058 h 5.862576 L 38.037272,1.4981083 H 36.327354 Z M 45.78605,-0.51715228 44.424341,7.1164105 h -2.44274 l 0.522896,-2.9312881 h -1.832055 l -0.522896,2.9312881 h -2.44274 l 1.361709,-7.63356278 h 2.44274 L 40.988359,2.4141359 h 1.832055 l 0.522896,-2.93128818 z"
       id="text2"
       style="font-weight:800;font-size:12.2137px;font-family:Changa;-inkscape-font-specification:'Changa, Ultra-Bold';fill:#306230;stroke-width:0.381679"
       aria-label="STEALTH&#10;" />
    <path
       d="m -4.9158917,-0.4503705 c -0.1046874,0 -0.16875,-0.043753 -0.2421874,-0.095313 -0.1031253,-0.070312 -0.2265626,-0.1546873 -0.5078126,-0.1546873 -0.4765627,0 -0.8125004,0.6828127 -1.0312504,1.39687534 -0.7390604,0.13593733 -1.2187481,0.35624936 -1.2187481,0.60312466 0,0.2234373 0.3906247,0.4234373 1.0093744,0.5609373 -0.0063,0.0625 -0.0094,0.125 -0.0094,0.1890627 0,0.2656253 0.05156,0.51875 0.1453117,0.75 h -0.9359354 c -0.115625,0 -0.2093747,0.09375 -0.2093747,0.2093753 0,0.02656 0.0047,0.053127 0.01563,0.078125 l 0.6062494,1.514062 c -0.6812494,0.5078133 -1.1218741,1.3203133 -1.1218741,2.2343753 0,0.25625 0.2078127,0.4640627 0.4640627,0.4640627 h 6.0718731 c 0.25625,0 0.4640627,-0.2078127 0.4640627,-0.4640627 0,-0.914062 -0.4406254,-1.725 -1.1203127,-2.2343753 l 0.6046873,-1.514062 c 0.00937,-0.025 0.015627,-0.05156 0.015627,-0.078125 0,-0.1156253 -0.093751,-0.2093753 -0.2093753,-0.2093753 h -0.9359373 c 0.093749,-0.23125 0.1453126,-0.4843747 0.1453126,-0.75 0,-0.06406 -0.00313,-0.1265627 -0.00937,-0.1890627 0.61875,-0.1375 1.0093753,-0.3375 1.0093753,-0.5609373 0,-0.2468753 -0.4796873,-0.46718733 -1.21875,-0.60312466 -0.21875,-0.71406264 -0.554688,-1.39687534 -1.0312506,-1.39687534 -0.2812494,0 -0.4046867,0.084375 -0.507812,0.1546873 -0.075,0.05156 -0.1375,0.095313 -0.2421874,0.095313 z m 0.875,3.25 h -0.19375 c -0.257812,0 -0.4859374,-0.1656254 -0.5671874,-0.4093754 -0.035933,-0.1093746 -0.1906246,-0.1093746 -0.2265626,0 -0.08125,0.24375 -0.3109374,0.4093754 -0.5671874,0.4093754 h -0.1953126 c -0.3453127,0 -0.6249994,-0.279688 -0.6249994,-0.625 v -0.225 c 0.4406247,0.06406 0.9531247,0.1 1.4999994,0.1 0.5468753,0 1.0593753,-0.035933 1.5,-0.1 v 0.225 c 0,0.345312 -0.2796874,0.625 -0.625,0.625 z m -1.375,1.5 0.25,0.4999993 -0.5,2.0000006 -0.7499994,-2.9999999 z m 2,-0.5 -0.75,2.9999999 -0.4999994,-2.0000006 0.2499994,-0.4999993 z"
       id="path1"
       style="fill:#306230;stroke-width:0.015625" />
  </g>
</svg>
