<?xml version="1.0" encoding="UTF-8" standalone="no"?>
<!-- Uploaded to: SVG Repo, www.svgrepo.com, Generator: SVG Repo Mixer Tools -->

<svg
   fill="#000000"
   height="8.0000334"
   width="85.622025"
   version="1.1"
   id="Capa_1"
   viewBox="0 0 51.295726 4.79278"
   xml:space="preserve"
   sodipodi:docname="auto-strategyautobattler.svg"
   inkscape:version="1.3.2 (091e20ef0f, 2023-11-25)"
   xmlns:inkscape="http://www.inkscape.org/namespaces/inkscape"
   xmlns:sodipodi="http://sodipodi.sourceforge.net/DTD/sodipodi-0.dtd"
   xmlns="http://www.w3.org/2000/svg"
   xmlns:svg="http://www.w3.org/2000/svg"><defs
   id="defs1" /><sodipodi:namedview
   id="namedview1"
   pagecolor="#505050"
   bordercolor="#eeeeee"
   borderopacity="1"
   inkscape:showpageshadow="0"
   inkscape:pageopacity="0"
   inkscape:pagecheckerboard="0"
   inkscape:deskcolor="#505050"
   showgrid="false"
   inkscape:zoom="5.6568543"
   inkscape:cx="8.5736697"
   inkscape:cy="38.714096"
   inkscape:window-width="2560"
   inkscape:window-height="1409"
   inkscape:window-x="1920"
   inkscape:window-y="0"
   inkscape:window-maximized="1"
   inkscape:current-layer="Capa_1" />
<path
   id="path1"
   style="fill:#306230;stroke-width:0.0132185"
   d="m 1.1204623,1.0904602e-4 c -0.01786,8.51e-4 -0.03502,0.008300004 -0.04796,0.021220004 -0.01725,0.01725 -0.0247,0.042 -0.01983,0.06592 l 0.178427,0.874954 c 0.0029,0.01397 0.0098,0.0268 0.01984,0.03689 l 0.871721,0.87172195 -0.681307,0.6813216 -0.06666,-0.06666 c -0.09344,-0.09344 -0.245489,-0.09344 -0.338928,0 -0.09344,0.09344 -0.09344,0.245474 0,0.338913 l 0.203437,0.203437 -0.93525902,0.93526 c -0.07621,-0.04973 -0.179604,-0.04124 -0.24645203,0.02561 -0.07665,0.07667 -0.07666,0.201404 0,0.278065 l 0.46852703,0.468527 c 0.07665,0.07665 0.201389,0.07666 0.278051,0 0.06685,-0.06685 0.07536,-0.170237 0.02561,-0.246451 l 0.93526002,-0.935259 0.203437,0.203437 c 0.09344,0.09344 0.245474,0.09341 0.338913,-1.3e-5 0.09344,-0.09344 0.09344,-0.245459 0,-0.338898 l -0.06662,-0.06662 0.681322,-0.681322 0.681337,0.681322 -0.06662,0.06662 c -0.09344,0.09344 -0.09344,0.245458 0,0.338898 0.09344,0.09344 0.245474,0.09347 0.338913,1.3e-5 l 0.203438,-0.203437 0.935259,0.935259 c -0.04974,0.07621 -0.04123,0.179604 0.02561,0.246451 0.07666,0.07666 0.201398,0.07665 0.278051,0 l 0.468526,-0.468527 c 0.07666,-0.07666 0.07665,-0.201394 0,-0.278065 -0.06685,-0.06685 -0.170246,-0.07535 -0.246451,-0.02561 l -0.935259,-0.93526 0.203437,-0.203437 c 0.09344,-0.09344 0.09344,-0.245474 0,-0.338913 -0.09344,-0.09344 -0.245489,-0.09344 -0.338929,0 l -0.06666,0.06666 -0.681306,-0.6813216 0.871721,-0.87172195 c 0.01008,-0.01008 0.01699,-0.02291 0.01984,-0.03689 l 0.178428,-0.874954 c 0.0049,-0.02392 -0.0026,-0.04867 -0.01983,-0.06592 -0.01725,-0.01725 -0.04202,-0.02471 -0.06594,-0.01984 l -0.874948,0.178424 c -0.01397,0.0029 -0.02679,0.0097 -0.03687,0.01983 L 2.9220013,1.071479 2.0502803,0.19974305 c -0.01008,-0.01009 -0.0229,-0.01698 -0.03687,-0.01983 l -0.874969,-0.178428 c -0.006,-0.001200004 -0.01202,-0.001700004 -0.01797,-0.001400004 z m 0.225818,0.19216200398 0.616639,0.125762 2.336927,2.33691155 -0.245446,0.245446 z m 3.151451,0 L 3.2702693,1.419733 3.0248233,1.174287 3.8810773,0.31803305 Z m -3.254275,0.102809 2.70812,2.70811955 -0.245447,0.245446 -2.336926,-2.33692655 z m 3.3571,0 -0.125762,0.616639 -0.85627,0.85626995 -0.245446,-0.245431 z m -2.375069,1.67854295 0.245431,0.2454606 -0.681306,0.681307 -0.245447,-0.245446 z m 0.348256,0.3482696 0.24543,0.245447 -0.681306,0.681306 -0.245431,-0.245446 z m -1.368522,0.238842 c 0.02414,0 0.04828,0.0092 0.06665,0.02755 l 0.932614,0.932615 c 0.03675,0.03675 0.03674,0.09657 0,0.13331 -0.03675,0.03675 -0.09653,0.03672 -0.133279,-1.3e-5 l -0.932615,-0.932615 c -0.03675,-0.03675 -0.03677,-0.09655 -1.3e-5,-0.133295 0.01837,-0.01837 0.04251,-0.02755 0.06665,-0.02755 z m 3.433569,0 c 0.02414,0 0.04828,0.0092 0.06665,0.02755 0.03674,0.03674 0.03672,0.09654 -1.3e-5,0.133295 l -0.932615,0.932615 c -0.03675,0.03675 -0.09654,0.03678 -0.133295,1.3e-5 -0.03674,-0.03674 -0.03675,-0.09656 0,-0.133311 l 0.93263,-0.932614 c 0.01837,-0.01837 0.04251,-0.02755 0.06665,-0.02755 z m -3.296794,0.569913 0.320121,0.320121 -0.10629,0.106289 -0.32012,-0.32012 z m 3.16002,0 0.106289,0.10629 -0.320121,0.32012 -0.106289,-0.106289 z m -3.369119,0.209099 0.320121,0.320121 -0.102809,0.102809 -0.320121,-0.320121 z m 3.578217,0 0.102809,0.102809 -0.32012,0.320121 -0.10281,-0.102809 z m -3.78383502,0.205618 0.32012102,0.320121 -0.10281,0.102809 -0.32012002,-0.32012 z m 3.98945402,0 0.102809,0.10281 -0.320121,0.32012 -0.102809,-0.102809 z m -4.19508802,0.205619 0.32013602,0.320121 -0.10280902,0.102809 -0.320121,-0.320121 z m 4.40070602,0 0.10281,0.102809 -0.320121,0.320121 -0.10281,-0.102809 z m -4.60632502,0.205634 0.320121,0.320121 -0.106289,0.106289 -0.320121,-0.320121 z m 4.81195902,0 0.106289,0.106289 -0.32012,0.320121 -0.10629,-0.106289 z m -5.13146102,0.119947 c 0.01311,0 0.02621,0.005 0.03619,0.01497 l 0.0228,0.02278 0.422931,0.422946 0.02278,0.02278 c 0.01997,0.01996 0.01999,0.05244 1.4e-5,0.0724 -0.01996,0.01996 -0.05245,0.01999 -0.07242,1.3e-5 l -0.468509,-0.468524 c -0.01996,-0.01996 -0.01996,-0.05244 0,-0.0724 0.01,-0.01 0.0231,-0.01497 0.03621,-0.01497 z m 5.45096302,0 c 0.01311,0 0.02623,0.005 0.03621,0.01497 0.01996,0.01996 0.01996,0.05244 0,0.0724 l -0.468512,0.468526 c -0.01996,0.01997 -0.05245,0.01994 -0.07242,-1.3e-5 -0.01996,-0.01996 -0.01994,-0.05244 1.3e-5,-0.0724 l 0.02277,-0.02278 0.422946,-0.422945 0.0228,-0.02278 c 0.01,-0.01 0.02308,-0.01497 0.03619,-0.01497 z"
   sodipodi:nodetypes="ssccsccssscccccsccscscccsscccscscccsssccsccscccccccscccccccccccccccccccccccccccccccssscsccccscccccccccccccccccccccccccccccccccccccccccccccccccccccccccscccscccsscsccccccccc" />
<path
   d="M 9.2562221,3.8874696 H 7.9921214 L 7.6814463,4.5788836 H 6.2846503 L 8.2611502,0.21389604 H 10.433168 L 10.691541,4.5788836 H 9.2947455 Z M 9.1901332,2.8747925 9.1146828,1.5548202 H 9.0518268 L 8.4568151,2.8747925 Z m 3.7226538,1.8088509 q -0.782206,0 -1.158412,-0.1466636 -0.374831,-0.1536476 -0.470973,-0.5168146 -0.09477,-0.3701509 0.04406,-1.0755329 l 0.53743,-2.73073626 h 1.396796 L 12.617045,3.4893827 h 0.558718 q 0.314279,0 0.4258,-0.06984 0.119879,-0.076824 0.163863,-0.3003111 l 0.571793,-2.90533556 h 1.396796 l -0.53743,2.73073626 q -0.13745,0.698398 -0.377915,1.068549 -0.240463,0.3701509 -0.682758,0.5237985 -0.440919,0.1466636 -1.223125,0.1466636 z m 4.651001,-0.1047598 h -1.396796 l 0.632271,-3.2126308 h -0.977757 l 0.226793,-1.15235676 h 3.35231 L 19.173816,1.3662528 h -0.977757 z m 1.651041,-2.1790018 q 0.173187,-0.8799815 0.464953,-1.3688601 0.293142,-0.49586258 0.781351,-0.70538198 0.496568,-0.21650339 1.299726,-0.21650339 0.803158,0 1.207523,0.21650339 0.412724,0.2095194 0.510685,0.70538198 0.09934,0.4888786 -0.07385,1.3688601 -0.173187,0.8799815 -0.464954,1.3688601 -0.291766,0.4888787 -0.788335,0.705382 -0.488209,0.2095195 -1.291367,0.2095195 -0.803158,0 -1.215882,-0.2095195 -0.404364,-0.2165033 -0.503701,-0.705382 -0.09934,-0.4888786 0.07385,-1.3688601 z m 1.922676,1.0895009 q 0.314279,0 0.448126,-0.076824 0.135221,-0.083808 0.176456,-0.2933272 l 0.35737,-1.8158346 h -0.642526 q -0.307295,0 -0.442517,0.083808 -0.133846,0.076824 -0.175081,0.286343 l -0.35737,1.8158348 z m 7.166236,-1.1034688 q 0.286566,0.06984 0.434121,0.349199 0.14893,0.2723752 0.08158,0.6145902 -0.116833,0.5936384 -0.550211,0.9149014 -0.42502,0.3142791 -1.10945,0.3142791 h -2.22789 l 0.859064,-4.36498756 h 1.98345 q 0.761254,0 1.049863,0.27237522 0.28861,0.27237523 0.169028,0.87998154 -0.06048,0.3072951 -0.253763,0.5796703 Q 28.553232,2.2182983 28.311988,2.34401 Z M 27.560763,1.5478363 q 0.03849,-0.1955515 -0.012,-0.2584073 -0.0435,-0.062856 -0.2181,-0.062856 h -0.342215 l -0.127829,0.6495101 h 0.342215 q 0.174599,0 0.242842,-0.062856 0.07661,-0.06984 0.115091,-0.2653908 z m -0.529926,2.0183702 q 0.174599,0 0.252575,-0.076824 0.08496,-0.076824 0.12482,-0.2793592 0.03986,-0.2025354 -0.0079,-0.2793592 -0.04774,-0.076824 -0.222336,-0.076824 h -0.509831 l -0.140199,0.712366 z m 4.692868,0.3212631 h -1.2641 l -0.310676,0.691414 h -1.396796 l 1.976501,-4.36498756 h 2.172018 l 0.258373,4.36498756 h -1.396796 z m -0.06609,-1.0126771 -0.07545,-1.3199723 h -0.06286 l -0.595007,1.3199723 z m 3.701369,1.7040911 H 33.96219 l 0.632271,-3.2126308 h -0.977757 l 0.226793,-1.15235676 h 3.352311 L 36.969015,1.3662528 h -0.977758 z m 3.422148,0 h -1.396796 l 0.632271,-3.2126308 h -0.977757 l 0.226793,-1.15235676 h 3.35231 L 40.391162,1.3662528 h -0.977757 z m 2.220938,-4.36498756 h 1.396796 L 41.766597,3.4265269 h 1.326956 L 42.86676,4.5788836 h -2.723752 z m 3.872397,3.21263086 h 1.641235 L 46.288911,4.5788836 H 43.25088 l 0.859064,-4.36498756 h 3.072951 L 46.781502,1.3662528 h -1.501555 l -0.103088,0.5237985 h 1.396796 l -0.199302,1.0126771 h -1.396796 z m 4.368668,1.1523567 -0.344853,-1.2641004 h -0.370151 l -0.248785,1.2641004 h -1.396796 l 0.859064,-4.36498756 h 2.025354 q 0.893949,0 1.210829,0.37713493 0.31688,0.37713493 0.147816,1.23616453 -0.177311,0.9009334 -0.782427,1.2431484 l 0.415473,1.5085397 z M 48.727436,2.3021061 h 0.565702 q 0.153648,0 0.221889,-0.062856 0.07523,-0.062856 0.108219,-0.2304714 l 0.06873,-0.349199 q 0.03299,-0.1676155 -0.0175,-0.2304713 -0.0435,-0.062856 -0.197148,-0.062856 h -0.565702 z"
   id="text30"
   style="font-weight:800;font-size:6.98398px;font-family:Changa;-inkscape-font-specification:'Changa, Ultra-Bold';fill:#306230;stroke:#fdfdfd;stroke-width:0.21825"
   aria-label="AUTO BATTLER" /></svg>
