<?xml version="1.0" encoding="UTF-8" standalone="no"?>
<!-- Created with Inkscape (http://www.inkscape.org/) -->

<svg
   version="1.1"
   id="svg1"
   width="600"
   height="282"
   viewBox="0 0 600 282"
   sodipodi:docname="auto-arcade-mitchell.svg"
   inkscape:version="1.3.2 (091e20ef0f, 2023-11-25)"
   xmlns:inkscape="http://www.inkscape.org/namespaces/inkscape"
   xmlns:sodipodi="http://sodipodi.sourceforge.net/DTD/sodipodi-0.dtd"
   xmlns="http://www.w3.org/2000/svg"
   xmlns:svg="http://www.w3.org/2000/svg">
  <defs
     id="defs1" />
  <sodipodi:namedview
     id="namedview1"
     pagecolor="#306230"
     bordercolor="#000000"
     borderopacity="0.25"
     inkscape:showpageshadow="2"
     inkscape:pageopacity="0.0"
     inkscape:pagecheckerboard="0"
     inkscape:deskcolor="#d1d1d1"
     inkscape:zoom="1.225"
     inkscape:cx="300"
     inkscape:cy="140.81633"
     inkscape:window-width="1920"
     inkscape:window-height="1080"
     inkscape:window-x="0"
     inkscape:window-y="0"
     inkscape:window-maximized="1"
     inkscape:current-layer="g1" />
  <g
     inkscape:groupmode="layer"
     inkscape:label="Image"
     id="g1">
    <g
       id="g2">
      <path
         style="fill:#8bac0f;fill-opacity:1"
         d="M 57.365745,280.42995 C 21.609933,274.42329 0.71248461,249.7774 0.61529589,213.5 l -0.0294695,-11 2.29645111,-5.79681 C 10.181131,178.27906 27.783742,171.45126 50.5,178.23293 c 11.810275,3.52582 19.781113,4.31786 27.947203,2.77703 L 85,179.77354 V 169.44347 159.11341 L 82.777494,157.5567 C 81.555115,156.70052 79.755115,156 78.777494,156 77.799872,156 77,155.55 77,155 c 0,-0.61078 4.642717,-1 11.928151,-1 H 100.8563 l 1.93533,5.25 c 1.06443,2.8875 2.94302,8.31625 4.17464,12.06388 1.23162,3.74763 2.43064,6.62254 2.6645,6.38869 0.23385,-0.23386 -0.0374,-1.6419 -0.60279,-3.12898 -1.60877,-4.23139 -1.28302,-5.08154 2.66918,-6.96622 9.46794,-4.51494 59.02974,-38.79928 78.80284,-54.5118 24.01311,-19.08181 51.90703,-47.183352 74,-74.550807 28.14262,-34.861404 34.68883,-39.837171 50.29184,-38.226798 29.72826,3.068227 38.61188,31.54374 20.1768,64.674574 -23.02746,41.384091 -23.94093,68.921321 -2.66235,80.258681 l 4.19371,2.23444 9.05186,0.007 9.05187,0.007 7.56775,-3.74019 c 11.8879,-5.87532 21.08551,-16.63647 36.37025,-42.55297 6.62243,-11.22886 13.28402,-18.48524 19.97561,-21.759126 l 5.46616,-2.67434 6.96515,0.393567 6.96516,0.393566 4.29309,3.008683 c 12.63814,8.85706 15.32434,25.41141 8.26433,50.93081 -1.36943,4.95 -2.7753,12.0375 -3.12415,15.75 l -0.63428,6.75 H 455.8564 465 v 10.41821 c 0,5.73002 0.27314,11.13002 0.60699,12 1.05332,2.74491 2.63927,1.71302 2.1797,-1.41821 l -0.4403,-3 h 2.13102 c 2.82691,0 10.08914,-4.7715 14.88332,-9.77878 l 3.86072,-4.03233 -2.04498,-1.09445 C 485.05173,156.4925 483.4269,156 482.56574,156 481.70458,156 481,155.55 481,155 c 0,-0.55 2.14989,-1 4.77754,-1 h 4.77754 l 5.29701,-6.01771 c 12.73272,-14.46512 29.27687,-13.88457 35.60018,1.24924 4.62756,11.0753 -3.08202,33.73527 -18.13012,53.28799 l -5.82215,7.565 -0.27768,-23.79226 -0.27767,-23.79226 2.13846,-1.75 c 1.17615,-0.9625 3.21361,-1.75 4.52767,-1.75 1.31407,0 2.38922,-0.45 2.38922,-1 0,-1.41871 -9.35452,-1.24548 -10.8,0.2 -0.87771,0.87771 -1.2,8.92551 -1.2,29.96482 v 28.76481 l 2.16529,1.15883 c 1.34362,0.71908 4.66401,0.95849 8.75,0.63089 l 6.58471,-0.52793 3.56878,-4.02012 c 2.17658,-2.45184 4.28641,-6.39024 5.40833,-10.0957 1.89692,-6.2651 5.24935,-8.95786 4.14029,-3.3256 -0.29782,1.5125 -0.84155,7.3625 -1.20827,13 L 532.74236,224 h -20.74618 c -11.4104,0 -22.15243,0.28125 -23.87118,0.625 -3.30677,0.66135 -4.31872,2.375 -1.40249,2.375 h 1.7225 l -1.9725,1.32662 c -1.08488,0.72964 -4.89751,2.41714 -8.47251,3.75 l -6.5,2.42338 -11,-0.0257 c -11.07925,-0.0259 -22.63426,-2.56639 -27.97251,-6.15011 L 430.55499,227 h 19.1141 19.11409 l 0.5326,-2.25 c 0.29293,-1.2375 0.82789,-5.4 1.1888,-9.25 0.36091,-3.85 0.87535,-7.7875 1.1432,-8.75 0.26785,-0.9625 0.0241,-1.75 -0.54165,-1.75 -1.22254,0 -4.10613,9.19948 -4.10613,13.09971 0,1.50519 -0.27314,3.44852 -0.60699,4.3185 L 465.78602,224 H 440.89301 C 424.96434,224 416,223.63989 416,223 c 0,-0.55 0.825,-1 1.83333,-1 3.03477,0 3.0455,-0.91821 0.0482,-4.12683 -1.57043,-1.68115 -6.01122,-7.78392 -9.86842,-13.56171 L 401,193.80638 V 178.6257 C 401,161.98021 401.8438,159 406.5567,159 c 1.34382,0 2.4433,-0.45 2.4433,-1 0,-1.41409 -7.35303,-1.24697 -8.8,0.2 -0.87954,0.87954 -1.2,9.14295 -1.2,30.9433 v 29.74329 l 2.22251,1.55671 c 1.22237,0.85618 3.02237,1.5567 4,1.5567 0.97762,0 1.77749,0.45 1.77749,1 0,0.62366 -5.83333,1 -15.5,1 -9.66667,0 -15.5,-0.37634 -15.5,-1 0,-0.55 0.85015,-1 1.88922,-1 1.03906,0 2.85642,-0.7875 4.03857,-1.75 l 2.14935,-1.75 -0.28857,-12 -0.28857,-12 -8.25,8.47908 -8.25,8.47907 V 202.22908 193 h 8.5 8.5 v -1.5 -1.5 h -9.5 -9.5 v 14.4433 14.44329 l 2.22251,1.55671 c 1.22237,0.85618 3.02237,1.5567 4,1.5567 0.97762,0 1.77749,0.45 1.77749,1 0,0.59754 -3.924,1.00443 -9.75,1.01101 -13.6371,0.0154 -22.13137,1.78147 -15.5,3.22267 2.64183,0.57415 -9.33819,6.3909 -17.95082,8.71581 C 278.80961,249.71368 244.03586,224.70531 244.00701,174.25 L 244,162 l 4.75,-0.0354 4.75,-0.0354 L 251,160.5 c -1.375,-0.78602 -3.9625,-1.44508 -5.75,-1.46456 L 242,159 v 29.9433 29.94329 l 2.22251,1.55671 c 1.22237,0.85618 3.02237,1.5567 4,1.5567 0.97762,0 1.77749,0.45 1.77749,1 0,0.62366 -5.83333,1 -15.5,1 -9.66667,0 -15.5,-0.37634 -15.5,-1 0,-0.55 1.09286,-1 2.42857,-1 1.33572,0 3.13572,-0.70714 4,-1.57143 L 227,218.85714 V 194.92857 171 h -1.41941 c -2.45587,0 -12.1379,9.67381 -23.81629,23.79606 l -11.2643,13.62153 -0.32049,-4.9588 C 188.49571,177.4057 190.77348,159 195.68146,159 c 1.34012,0 2.20067,-0.38171 1.91234,-0.84823 -0.28833,-0.46653 -2.22739,-0.57156 -4.30902,-0.23339 l -3.78478,0.61485 -0.27523,29.98339 -0.27522,29.98338 2.13601,1.75 c 1.1748,0.9625 2.98616,1.75 4.02522,1.75 1.03907,0 1.88922,0.45 1.88922,1 0,0.59544 -3.78681,1 -9.36043,1 C 176.81301,224 169,224.8953 169,226.13592 c 0,0.47525 1.00446,0.86408 2.23213,0.86408 1.79041,0 0.15778,2.09673 -8.25,10.59518 -14.67194,14.83017 -21.17504,19.5075 -39.48213,28.39733 -31.669638,15.37862 -44.221079,18.11867 -66.134255,14.43744 z M 311.929,227.8605 c 8.0053,-2.55448 9.75262,-3.46562 13.821,-7.20691 2.8684,-2.63778 4.25,-4.73777 4.25,-6.45985 v -2.55154 l -4.41788,4.61075 c -8.14904,8.50481 -23.75013,11.50062 -33.58212,6.44864 -2.39488,-1.23056 -2.89587,-1.31592 -1.58668,-0.27033 1.05232,0.84044 3.75232,2.15738 6,2.92654 12.23466,4.18675 10.90852,3.97284 15.51568,2.5027 z M 99,226.06127 C 99,224.67 90.6628,223.67352 85.5,224.44773 77.961546,225.57819 80.46839,227 90,227 c 4.95,0 9,-0.42243 9,-0.93873 z m 59,0.0746 c 0,-1.81306 -17.17261,-2.82918 -25.25,-1.49407 -7.92953,1.31067 -3.15443,2.35815 10.75,2.35815 7.975,0 14.5,-0.38883 14.5,-0.86408 z M 124.26975,197.24595 C 129.64312,181.43568 134.01204,167.15 133.97847,165.5 133.91511,162.38568 113,220.89919 113,224.19078 c 0,4.94543 2.30161,-0.55749 11.26975,-26.94483 z M 151.5,160.12538 c 0.55,-0.53432 2.35,-1.17831 4,-1.4311 1.65,-0.25279 0.75,-0.39991 -2,-0.32695 l -5,0.13267 -0.26548,29.48846 c -0.14602,16.21865 0.079,30.16865 0.5,31 0.42101,0.83135 0.99048,-11.85417 1.26548,-28.19003 0.29959,-17.79679 0.90081,-30.09095 1.5,-30.67305 z m -59.04832,17.3079 1.42927,-1.06671 -2.388371,-6.43329 -2.388371,-6.43328 -0.0521,26.16821 c -0.02866,14.39252 0.285396,26.99252 0.697896,28 0.4125,1.00749 0.867543,-7.39321 1.011206,-18.66821 0.208724,-16.38112 0.548375,-20.71433 1.690474,-21.56672 z m 349.50023,28.81672 -0.14883,-12.75 2.09846,0.0794 c 3.11275,0.11778 2.54251,-1.22895 -1.05076,-2.48157 -1.73208,-0.60381 -3.30708,-1.09783 -3.5,-1.09783 -0.66038,0 -0.35193,27.66551 0.31589,28.33333 1.95584,1.95585 2.42045,-0.50082 2.28524,-12.08333 z m -148.00742,2.13869 c -8.3021,-21.57695 4.63841,-51.81025 20.25847,-47.33048 4.8936,1.40346 4.45246,0.35751 -0.67512,-1.60073 l -4.59366,-1.75433 -3.97681,1.19148 c -9.98186,2.99063 -14.47099,12.35481 -14.43232,30.10537 0.0229,10.50299 2.49006,24.31822 4.06211,22.74617 0.25784,-0.25783 -0.0314,-1.7687 -0.64267,-3.35748 z M 454.98469,191.25 C 454.97448,179.42032 454.64605,174.00031 454,175 c -0.53316,0.825 -0.97627,8.5125 -0.98469,17.08333 -0.0134,13.69351 0.30118,16.91667 1.65136,16.91667 0.18333,0 0.32644,-7.9875 0.31802,-17.75 z m -340.60374,-1.63095 c -1.43004,-4.25329 -2.77151,-7.56183 -2.98103,-7.3523 -0.20952,0.20952 0.78908,3.86091 2.21913,8.1142 1.43004,4.25329 2.77151,7.56183 2.98103,7.3523 0.20952,-0.20952 -0.78908,-3.86091 -2.21913,-8.1142 z M 442,174 v -12 h 3.93191 c 3.15032,0 4.32211,0.54799 5.89492,2.7568 1.07966,1.51624 3.78269,3.77952 6.00675,5.02951 l 4.04373,2.27271 -0.91477,-3.18964 c -1.9082,-6.6535 -7.49033,-9.85239 -17.21254,-9.8638 L 439,159 v 13.5 13.5 h 1.5 1.5 z m -75,0.22251 C 367,162.27063 368.19388,159 372.5567,159 c 1.34382,0 2.4433,-0.45 2.4433,-1 0,-1.41409 -7.35303,-1.24697 -8.8,0.2 -1.51498,1.51498 -1.70367,26.8 -0.2,26.8 0.60481,0 1,-4.25916 1,-10.77749 z m -36,-6.28153 c 0,-7.7847 -0.35445,-11.83995 -1,-11.44098 -0.57238,0.35375 -1,5.51038 -1,12.05902 0,6.96065 0.3916,11.44098 1,11.44098 0.61138,0 1,-4.68634 1,-12.05902 z M 218.49623,164.25 c 1.43841,-1.2375 3.9402,-2.25 5.55953,-2.25 1.95044,0 2.94424,-0.50631 2.94424,-1.5 0,-1.78832 -3.36649,-1.96541 -7.82388,-0.41155 -4.3741,1.52482 -7.19268,6.49466 -7.10599,12.52958 l 0.0701,4.88197 1.87033,-5.5 c 1.02869,-3.025 3.04722,-6.5125 4.48564,-7.75 z m 43.83539,2.83473 c 0.0926,-4.99695 -0.16912,-9.08522 -0.58162,-9.08505 -0.4125,1.8e-4 -0.75,4.35032 -0.75,9.66699 0,12.15106 1.10459,11.66834 1.33162,-0.58194 z M 172.25,158.33772 c -0.6875,-0.27741 -1.8125,-0.27741 -2.5,0 -0.6875,0.27741 -0.125,0.50439 1.25,0.50439 1.375,0 1.9375,-0.22698 1.25,-0.50439 z M 348.5,158 c -0.33992,-0.55 -1.04148,-1 -1.55902,-1 -0.51754,0 -0.94098,0.45 -0.94098,1 0,0.55 0.70156,1 1.55902,1 0.85746,0 1.2809,-0.45 0.94098,-1 z m 34,0 c -0.33992,-0.55 -1.04148,-1 -1.55902,-1 -0.51754,0 -0.94098,0.45 -0.94098,1 0,0.55 0.70156,1 1.55902,1 0.85746,0 1.2809,-0.45 0.94098,-1 z m 40,0 c -0.33992,-0.55 -1.04148,-1 -1.55902,-1 -0.51754,0 -0.94098,0.45 -0.94098,1 0,0.55 0.70156,1 1.55902,1 0.85746,0 1.2809,-0.45 0.94098,-1 z"
         id="path2"
         sodipodi:nodetypes="sscssscccsssscsssssssssscccssscccssscccssscssccssscssscccssssscsscsssscssscsscsscccsssssscssssscssssscssssssscccccccccccccccsssssssccccscccssssssscccsscsssscccsssssssssssscsssssssssssssssssssscssssccccsssscscssssscsscssscssssssssssccssscssccccccsssssssssssssssscssssssssssssssssssssssssss" />
      <path
         style="fill:#306230"
         d="m 177.80214,269.80964 c -15.67843,-4.17057 -10.93666,-20.90804 6.32072,-22.31085 l 5.37714,-0.43709 -3.83341,0.82529 c -13.65689,2.94018 -12.21342,20.59392 1.83341,22.42276 1.95784,0.2549 1.43677,0.40673 -1.5,0.43707 -2.475,0.0256 -6.16404,-0.39617 -8.19786,-0.93718 z m 35.96852,0.0514 c -7.29841,-2.05479 -11.35472,-9.29031 -8.59895,-15.33856 3.84022,-8.42836 22.50846,-9.99617 29.98631,-2.51832 9.74691,9.74691 -5.36817,22.3669 -21.38736,17.85688 z m 13.03964,-2.15912 C 233.04575,261.06459 229.54694,248 221.53394,248 c -8.62519,0 -12.43387,12.92816 -5.9269,20.11828 2.47083,2.73023 8.45616,2.5078 11.20326,-0.41635 z m 15.6897,2.56639 c 3.0616,-0.76492 3.46937,-2.08933 3.46937,-11.26832 0,-9.17899 -0.40777,-10.5034 -3.46937,-11.26832 -1.1,-0.27482 2.725,-0.54937 8.5,-0.6101 12.71259,-0.1337 17.65922,1.03637 19.26308,4.55646 l 1.16503,2.55697 -2.76982,2.38249 c -1.5234,1.31038 -3.51685,2.3825 -4.42989,2.3825 -1.08895,0 0.22037,1.90661 3.80576,5.54186 l 5.46584,5.54186 3.5,-0.29186 3.5,-0.29186 v -10.45492 -10.45491 l -2.5,-0.75652 c -1.39362,-0.42171 2.39383,-0.65882 8.5582,-0.53576 19.06671,0.38061 24.3171,10.27145 6.56828,12.37354 L 288,260.27858 v 4.39294 4.39293 l 2.25,0.90439 c 1.51553,0.60917 -2.17617,0.92508 -11.30927,0.96777 L 265.38145,271 260.6331,265.5 C 254.70108,258.62897 253,258.4133 253,264.53222 v 4.53223 l 2.25,0.90439 c 1.59258,0.64014 -0.23359,0.88901 -6.25,0.85177 -4.675,-0.0289 -7.6,-0.27747 -6.5,-0.55229 z M 261.17126,257.345 C 265.11451,253.77642 262.13127,248 256.34501,248 H 253 v 5.5 5.5 h 3.17126 c 1.74419,0 3.99419,-0.74474 5,-1.65499 z m 33.4962,-0.96024 1.71356,-2.61523 -1.47205,-2.63477 c -0.91616,-1.6398 -2.49863,-2.75426 -4.19051,-2.95119 L 288,247.86716 V 253.43358 259 h 2.47695 c 1.56769,0 3.10597,-0.96001 4.19051,-2.61523 z m 22.1032,13.47628 c -7.29841,-2.05479 -11.35472,-9.29031 -8.59895,-15.33856 3.84022,-8.42836 22.50846,-9.99617 29.98631,-2.51832 9.74691,9.74691 -5.36817,22.3669 -21.38736,17.85688 z m 13.03964,-2.15912 C 336.04575,261.06459 332.54694,248 324.53394,248 c -8.62519,0 -12.43387,12.92816 -5.9269,20.11828 2.47083,2.73023 8.45616,2.5078 11.20326,-0.41635 z m 16.6897,2.56639 c 3.0616,-0.76492 3.46937,-2.08933 3.46937,-11.26832 0,-9.17899 -0.40777,-10.5034 -3.46937,-11.26832 -1.1,-0.27482 2.725,-0.54937 8.5,-0.6101 12.71259,-0.1337 17.65922,1.03637 19.26308,4.55646 l 1.16503,2.55697 -2.76982,2.38249 c -1.5234,1.31038 -3.51685,2.3825 -4.42989,2.3825 -1.08961,0 0.20647,1.89003 3.7716,5.5 8.31506,8.41964 8.92801,8.16421 18.58486,-7.74481 7.12414,-11.73655 5.61687,-11.87144 13.26648,1.18723 3.49323,5.96331 7.31823,11.31035 8.5,11.8823 1.65811,0.8025 0.20805,1.02428 -6.35134,0.97142 -4.675,-0.0377 -7.4875,-0.26352 -6.25,-0.50187 6.23987,-1.20185 0.97837,-6.29427 -6.50325,-6.29427 -7.24187,0 -10.41533,3.79084 -4.99675,5.96884 1.56427,0.62876 -0.96815,0.92371 -8.30927,0.96777 L 369.38145,271 364.6331,265.5 C 358.70108,258.62897 357,258.4133 357,264.53222 v 4.53223 l 2.25,0.90439 c 1.59258,0.64014 -0.23359,0.88901 -6.25,0.85177 -4.675,-0.0289 -7.6,-0.27747 -6.5,-0.55229 z m 50.16692,-11.26007 c -2.65089,-4.88329 -2.9393,-4.90665 -5.56814,-0.45109 -2.7351,4.63564 -2.85739,4.44284 2.81814,4.44284 h 4.91692 z M 365.17126,257.345 C 369.11451,253.77642 366.13127,248 360.34501,248 H 357 v 5.5 5.5 h 3.17126 c 1.74419,0 3.99419,-0.74474 5,-1.65499 z M 420.5,270.26832 c 3.1062,-0.77606 3.46829,-2.07681 3.48469,-12.51832 L 424,248 l -3.25,0.0153 c -3.72321,0.0175 -4.96257,0.6764 -6.55505,3.48469 l -1.13413,2 -0.0304,-3.25 L 413,247 h 14.5 14.5 v 3.13486 3.13486 l -2.07258,-2.63486 C 438.40158,248.69507 436.94176,248 434.39359,248 h -3.46125 l 0.28383,10.70679 0.28383,10.70679 2.5,0.69353 c 1.40427,0.38956 -1.44462,0.68638 -6.5,0.67721 -4.95,-0.009 -8.1,-0.24118 -7,-0.516 z m 26.5,-0.16308 2.5,-0.69541 V 259 248.59017 l -2.5,-0.69541 c -1.41721,-0.39421 1.39805,-0.6954 6.5,-0.6954 5.10195,0 7.91721,0.30119 6.5,0.6954 l -2.5,0.69541 V 259 269.40983 l 2.5,0.69541 c 1.41721,0.39421 -1.39805,0.6954 -6.5,0.6954 -5.10195,0 -7.91721,-0.30119 -6.5,-0.6954 z m 27.77066,-0.24419 c -7.29841,-2.05479 -11.35472,-9.29031 -8.59895,-15.33856 3.84022,-8.42836 22.50846,-9.99617 29.98631,-2.51832 9.74691,9.74691 -5.36817,22.3669 -21.38736,17.85688 z m 13.03964,-2.15912 C 494.04575,261.06459 490.54694,248 482.53394,248 c -8.62519,0 -12.43387,12.92816 -5.9269,20.11828 2.47083,2.73023 8.45616,2.5078 11.20326,-0.41635 z m 16.1897,2.0038 2.5,-1.2648 V 259 249.55907 l -2.5,-1.2648 -2.5,-1.26479 6.04705,-0.0147 6.04705,-0.0147 3.95295,4.08485 c 2.17412,2.24667 5.64045,5.43448 7.70295,7.08403 l 3.75,2.99918 v -6.11625 -6.11626 l -2.25,-0.90439 c -1.74537,-0.70155 -1.01646,-0.90284 3.25,-0.89749 3.67158,0.005 4.83512,0.26538 3.5,0.78442 l -2,0.77753 -0.5,11.22432 -0.5,11.22433 -10.69234,-9.57214 C 506.9115,250.02715 507.85901,250.0978 508.21107,260.70749 l 0.28893,8.70741 2.5,0.69291 c 1.70174,0.47166 0.58418,0.72003 -3.5,0.77785 l -6,0.0849 z m -311.91667,-0.008 c 2.85055,-2.07098 5.91667,-3.56392 5.91667,-2.8813 0,0.4744 -1.14617,1.38477 -2.54705,2.02305 -2.33584,1.06429 -4.36498,1.58087 -3.36962,0.85786 z m 4.23266,-17.48382 -2.06013,-2.78647 2.37207,-1.11944 L 199,247.18817 v 3.90592 c 0,4.65698 -0.0524,4.67885 -2.68401,1.11943 z m 100.47634,-28.55639 c -27.53733,-7.75905 -29.82785,-53.77865 -3.35579,-67.42217 l 5.06346,-2.60967 7,0.0341 c 4.94457,0.0241 8.4191,0.66636 11.83291,2.18735 6.25191,2.78549 7.29744,2.71689 9.09512,-0.59674 l 1.49189,-2.75 -0.0276,12.5 c -0.0218,9.85688 -0.25645,11.97138 -1.10974,10 -3.84889,-8.89222 -5.37594,-11.35083 -8.55707,-13.77719 L 314.65568,158.5 H 308.57784 302.5 l -3.27892,2.45944 c -9.06327,6.79814 -12.58169,27.32076 -7.66753,44.72406 4.44588,15.74493 19.72721,19.27265 31.3025,7.22623 L 327,208.59711 v 2.29707 c 0,8.95919 -17.48646,16.34734 -30.20767,12.76295 z M 77,223.20089 c 0,-0.43951 1.573611,-1.36814 3.496914,-2.06361 4.458912,-1.61237 4.264043,-0.29719 4.967786,-33.52796 l 0.590653,-27.89067 -1.682664,-1.85933 C 83.447224,156.8367 81.634769,156 80.345012,156 79.055256,156 78,155.55 78,155 c 0,-0.60806 4.409355,-0.9957 11.25,-0.98903 l 11.25,0.011 7.9091,22.98904 c 7.19665,20.91819 9.56272,26.14934 9.60651,21.23903 0.009,-0.9625 3.27108,-11.2 7.25,-22.75 l 7.23439,-21 11.75,-0.28174 c 7.58966,-0.18198 11.75,0.0836 11.75,0.75 0,0.56746 -1.03899,1.03174 -2.30887,1.03174 -1.26988,0 -3.18238,0.63822 -4.25,1.41826 l -1.94113,1.41826 -0.25865,28.83174 c -0.28872,32.18452 -0.0591,33.60226 5.53145,34.1451 C 161.60153,222.67062 154.44421,224 141,224 c -9.33333,0 -15,-0.37778 -15,-1 0,-0.55 0.9,-1 2,-1 1.1,0 2.9,-0.9 4,-2 l 2,-2 -0.0744,-28.75 -0.0744,-28.75 -2.40603,7 c -12.87139,37.44745 -19.86102,56.47701 -20.49734,55.80488 C 110.07643,222.38453 98.548549,190.15691 92.953601,173 l -3.750203,-11.5 -0.101699,27.81574 c -0.109043,29.82445 0.08902,31.12796 4.889984,32.18243 C 100.03576,222.82568 96.753956,224 87,224 c -5.5,0 -10,-0.3596 -10,-0.79911 z m 90,-0.0759 c 0,-0.48125 1.35743,-1.14649 3.0165,-1.4783 4.6524,-0.93048 4.9835,-3.19972 4.9835,-34.1551 V 159.1134 l -2.22251,-1.55671 C 171.55512,156.70052 169.75512,156 168.77749,156 167.79987,156 167,155.55 167,155 c 0,-0.62069 5.5,-1 14.5,-1 9,0 14.5,0.37931 14.5,1 0,0.55 -0.9,1 -2,1 -1.1,0 -2.9,0.9 -4,2 l -2,2 v 28.77749 28.7775 l 1.5567,2.2225 c 0.88639,1.2655 2.60879,2.22251 4,2.22251 1.34382,0 2.4433,0.45 2.4433,1 0,0.62069 -5.5,1 -14.5,1 -7.975,0 -14.5,-0.39375 -14.5,-0.875 z M 220,223 c 0,-0.55 1.09948,-1 2.4433,-1 1.39121,0 3.11361,-0.95701 4,-2.22251 L 228,217.55499 V 188.27749 159 h -3.95295 C 216.79815,159 211,164.50445 211,171.38615 211,172.82377 210.55,174 210,174 c -0.6,0 -1,-4 -1,-10 v -10 h 25.5 25.5 v 10 c 0,11.72831 -0.0677,11.82195 -2.91039,4.02562 C 254.47998,160.86845 252.13818,159 245.77749,159 H 241 v 29.27749 29.2775 l 1.5567,2.2225 c 0.88639,1.2655 2.60879,2.22251 4,2.22251 1.34382,0 2.4433,0.45 2.4433,1 0,0.62069 -5.5,1 -14.5,1 -9,0 -14.5,-0.37931 -14.5,-1 z m 123,0 c 0,-0.55 1.05526,-1 2.34501,-1 1.28976,0 3.08976,-0.82293 4,-1.82874 L 351,218.34252 v -29.51627 -29.51627 l -1.82874,-1.65499 C 348.16545,156.74474 346.36545,156 345.17126,156 343.97707,156 343,155.55 343,155 c 0,-0.62069 5.5,-1 14.5,-1 9,0 14.5,0.37931 14.5,1 0,0.55 -1.09948,1 -2.4433,1 C 365.05592,156 364,159.17772 364,172.72251 V 185 H 374.5 385 V 172.72251 C 385,159.17772 383.94408,156 379.4433,156 378.09948,156 377,155.55 377,155 c 0,-0.62069 5.5,-1 14.5,-1 9,0 14.5,0.37931 14.5,1 0,0.55 -1.09948,1 -2.4433,1 -1.39121,0 -3.11361,0.95701 -4,2.22251 L 398,160.44501 v 29.12251 29.1225 l 1.82874,1.65499 c 1.00581,0.91025 2.80581,1.65499 4,1.65499 1.19419,0 2.17126,0.45 2.17126,1 0,0.62069 -5.5,1 -14.5,1 -9,0 -14.5,-0.37931 -14.5,-1 0,-0.55 1.09948,-1 2.4433,-1 4.61804,0 5.5567,-3.07821 5.5567,-18.22251 V 190 H 374.5 364 v 13.77749 c 0,15.1443 0.93866,18.22251 5.5567,18.22251 1.34382,0 2.4433,0.45 2.4433,1 0,0.62069 -5.5,1 -14.5,1 -9,0 -14.5,-0.37931 -14.5,-1 z m 74,0 c 0,-0.55 1.05526,-1 2.34501,-1 1.28976,0 3.08976,-0.82293 4,-1.82874 L 425,218.34252 v -29.51627 -29.51627 l -1.82874,-1.65499 C 422.16545,156.74474 420.36545,156 419.17126,156 417.97707,156 417,155.55 417,155 c 0,-0.6383 8.5,-1 23.5,-1 H 464 l -0.0594,10.75 -0.0595,10.75 -2.19055,-5.96411 c -1.59624,-4.346 -3.11244,-6.5843 -5.58844,-8.25 L 452.70423,159 H 445.35212 438 v 13.5 13.5 h 3.04775 c 4.25298,0 7.5903,-3.93952 8.97085,-10.58959 1.74363,-8.39904 1.98722,-6.75509 1.90245,12.83959 -0.0735,16.99784 -0.49905,18.92679 -2.33329,10.57707 C 448.62859,194.46077 444.24383,190 440.91111,190 H 438 v 13.06574 c 0,7.18616 0.46583,13.93616 1.03518,15 L 440.07037,220 h 5.89971 c 10.24736,0 16.64715,-4.3208 19.60937,-13.23921 2.35482,-7.0897 2.68939,-5.3767 1.29416,6.62618 L 465.63994,224 H 441.31997 C 425.77332,224 417,223.63925 417,223 Z m 65,0 c 0,-0.55 1.09948,-1 2.4433,-1 1.39121,0 3.11361,-0.95701 4,-2.22251 L 490,217.55499 V 189 160.44501 l -1.5567,-2.2225 C 487.55691,156.95701 485.83451,156 484.4433,156 483.09948,156 482,155.55 482,155 c 0,-0.62222 5.66667,-1 15,-1 9.33333,0 15,0.37778 15,1 0,0.55 -1.32448,1 -2.9433,1 -1.9079,0 -3.49091,0.78184 -4.5,2.22251 L 503,160.44501 v 27.58637 c 0,21.27078 0.3022,27.99964 1.31999,29.39155 l 1.31998,1.80519 8.30572,-0.37718 8.30571,-0.37719 3.40519,-3.93921 c 1.94677,-2.25208 4.08181,-6.31525 4.98501,-9.48688 3.47061,-12.18727 3.94826,-8.47182 1.69725,13.20234 L 531.74167,224 H 506.87083 C 490.95694,224 482,223.63986 482,223 Z m 66,0 c 0,-0.55 1.09948,-1 2.4433,-1 1.39121,0 3.11361,-0.95701 4,-2.22251 L 556,217.55499 V 189 160.44501 l -1.5567,-2.2225 C 553.55691,156.95701 551.83451,156 550.4433,156 549.09948,156 548,155.55 548,155 c 0,-0.62222 5.66667,-1 15,-1 9.33333,0 15,0.37778 15,1 0,0.55 -1.32448,1 -2.9433,1 -1.9079,0 -3.49091,0.78184 -4.5,2.22251 L 569,160.44501 v 27.58637 c 0,21.27078 0.3022,27.99964 1.31999,29.39155 l 1.31998,1.80519 8.30572,-0.37718 8.30571,-0.37719 3.40519,-3.93921 c 1.94677,-2.25208 4.08181,-6.31525 4.98501,-9.48688 3.47061,-12.18727 3.94826,-8.47182 1.69725,13.20234 L 597.74167,224 H 572.87083 C 556.95694,224 548,223.63986 548,223 Z"
         id="path1" />
    </g>
  </g>
</svg>
