<?xml version="1.0" encoding="UTF-8" standalone="no"?>
<!-- Created with Inkscape (http://www.inkscape.org/) -->

<svg
   width="91.204498mm"
   height="8mm"
   viewBox="0 0 91.204494 8"
   version="1.1"
   id="svg1"
   inkscape:version="1.3.2 (091e20ef0f, 2023-11-25)"
   sodipodi:docname="auto-actionbattleroyale.svg"
   xmlns:inkscape="http://www.inkscape.org/namespaces/inkscape"
   xmlns:sodipodi="http://sodipodi.sourceforge.net/DTD/sodipodi-0.dtd"
   xmlns="http://www.w3.org/2000/svg"
   xmlns:svg="http://www.w3.org/2000/svg">
  <sodipodi:namedview
     id="namedview1"
     pagecolor="#505050"
     bordercolor="#eeeeee"
     borderopacity="1"
     inkscape:showpageshadow="0"
     inkscape:pageopacity="0"
     inkscape:pagecheckerboard="0"
     inkscape:deskcolor="#505050"
     inkscape:document-units="mm"
     inkscape:zoom="2.6370593"
     inkscape:cx="179.74567"
     inkscape:cy="-76.410872"
     inkscape:window-width="2560"
     inkscape:window-height="1440"
     inkscape:window-x="1920"
     inkscape:window-y="0"
     inkscape:window-maximized="1"
     inkscape:current-layer="layer1"
     showgrid="true">
    <inkscape:grid
       id="grid1"
       units="mm"
       originx="2.3479794"
       originy="4.0075668"
       spacingx="1"
       spacingy="0.99999997"
       empcolor="#0099e5"
       empopacity="0.30196078"
       color="#0099e5"
       opacity="0.14901961"
       empspacing="5"
       dotted="false"
       gridanglex="30"
       gridanglez="30"
       visible="true" />
  </sodipodi:namedview>
  <defs
     id="defs1" />
  <g
     inkscape:label="Calque 1"
     inkscape:groupmode="layer"
     id="layer1"
     transform="translate(-37.277962,-56.794518)">
    <path
       d="m 51.337521,60.776197 q 0.492491,0.122137 0.715899,0.610685 0.226677,0.476335 0.06646,1.074806 -0.277928,1.038165 -1.075662,1.599995 -0.78225,0.549616 -1.979193,0.549616 h -3.89617 l 2.043585,-7.633562 h 3.468691 q 1.331293,0 1.802245,0.476334 0.470952,0.476334 0.186485,1.538926 -0.143868,0.537403 -0.515662,1.013737 -0.359581,0.476335 -0.79706,0.696181 z m -1.195413,-1.465644 q 0.09155,-0.341983 0.01106,-0.451907 -0.06828,-0.109923 -0.373624,-0.109923 h -0.598471 l -0.304086,1.135874 h 0.598471 q 0.305343,0 0.43248,-0.109923 0.142621,-0.122137 0.234174,-0.464121 z m -1.177015,3.52976 q 0.305343,0 0.451233,-0.134351 0.158104,-0.134351 0.252927,-0.488548 0.09482,-0.354197 0.02087,-0.488548 -0.07396,-0.134351 -0.379299,-0.134351 h -0.8916 l -0.333513,1.245798 z m 8.167134,0.56183 h -2.21068 L 54.2925,64.611299 h -2.44274 l 3.997777,-7.633562 h 3.798461 l -0.08939,7.633562 h -2.44274 z m 0.01,-1.770987 0.03172,-2.308389 h -0.109923 l -1.204237,2.308389 z m 6.261715,2.980143 h -2.442741 l 1.504079,-5.618302 h -1.709918 l 0.539506,-2.01526 h 5.862577 l -0.539506,2.01526 h -1.709918 z m 5.984708,0 h -2.44274 l 1.504079,-5.618302 h -1.709918 l 0.539506,-2.01526 h 5.862576 l -0.539506,2.01526 H 70.89272 Z m 4.425254,-7.633562 h 2.44274 l -1.504078,5.618302 h 2.320604 l -0.539507,2.01526 H 71.77031 Z m 6.373755,5.618302 h 2.870218 l -0.539507,2.01526 h -5.312958 l 2.043585,-7.633562 h 5.374028 l -0.844848,2.01526 h -2.625946 l -0.24523,0.916028 h 2.44274 l -0.474112,1.770986 h -2.44274 z m 9.939861,2.01526 -0.446337,-2.21068 h -0.64733 l -0.591823,2.21068 h -2.44274 l 2.043585,-7.633562 h 3.54198 q 1.56335,0 2.070755,0.659539 0.507394,0.65954 0.105217,2.161825 -0.421797,1.575568 -1.522464,2.174039 l 0.539537,2.638159 z m -0.619556,-3.981666 h 0.98931 q 0.2687,0 0.395838,-0.109923 0.139358,-0.109924 0.217831,-0.403052 l 0.163487,-0.610685 q 0.07847,-0.293129 -0.002,-0.403053 -0.06827,-0.109923 -0.336983,-0.109923 H 89.9461 Z m 4.900774,0.170992 q 0.411987,-1.538926 0.982849,-2.393886 0.574141,-0.867172 1.453903,-1.233583 0.895252,-0.378625 2.299832,-0.378625 1.404568,0 2.084888,0.378625 0.6958,0.366411 0.80564,1.233583 0.1131,0.85496 -0.29889,2.393886 -0.41199,1.538926 -0.98285,2.393885 -0.57087,0.854959 -1.466124,1.233584 -0.879772,0.366411 -2.284342,0.366411 -1.40458,0 -2.100378,-0.366411 -0.680308,-0.378625 -0.793416,-1.233584 -0.113099,-0.854959 0.298888,-2.393885 z m 3.227311,1.905337 q 0.54962,0 0.793217,-0.134351 0.246867,-0.146564 0.344959,-0.512975 l 0.850132,-3.175562 h -1.12366 q -0.5374,0 -0.784267,0.146564 -0.243607,0.134351 -0.341699,0.500762 l -0.850132,3.175562 z m 12.269351,-5.728225 -3.64918,5.190822 -0.65395,2.44274 h -2.44274 l 0.65395,-2.44274 -0.86989,-5.190822 h 2.56487 l 0.23592,2.540449 1.59614,-2.540449 z m 2.6282,6.424406 h -2.21068 l -0.62905,1.209156 h -2.44274 l 3.99778,-7.633562 h 3.79846 l -0.0894,7.633562 h -2.44274 z m 0.01,-1.770987 0.0317,-2.308389 h -0.10992 l -1.20424,2.308389 z m 5.12973,-4.653419 h 2.44274 l -1.50408,5.618302 h 2.32061 l -0.53951,2.01526 h -4.76335 z m 6.37376,5.618302 h 2.87022 l -0.53951,2.01526 h -5.31296 l 2.04359,-7.633562 h 5.37403 l -0.84486,2.01526 h -2.62594 l -0.24523,0.916028 h 2.44274 l -0.47411,1.770986 h -2.44274 z"
       id="text1"
       style="font-weight:800;font-size:12.2137px;font-family:Changa;-inkscape-font-specification:'Changa, Ultra-Bold';fill:#306230;stroke-width:0.381679"
       aria-label="BATTLE ROYALE" />
    <!--!Font Awesome Free 6.5.1 by @fontawesome - https://fontawesome.com License - https://fontawesome.com/license/free Copyright 2024 Fonticons, Inc.-->
    <path
       d="m 43.882584,56.794518 c -0.196844,0 -0.384165,0.07778 -0.523861,0.217481 l -2.500249,2.500248 c -0.166682,0.166684 -0.314316,0.35083 -0.439726,0.549262 l -1.160432,1.838278 c -0.115884,0.182557 -0.250818,0.352415 -0.404802,0.506399 l -0.592122,0.590535 0.814366,0.814366 0.592122,-0.592122 c 0.152396,-0.152397 0.322255,-0.288918 0.5064,-0.404802 l 1.838278,-1.160432 c 0.198432,-0.12541 0.382577,-0.273044 0.54926,-0.439727 l 2.500248,-2.498661 c 0.138109,-0.138108 0.217482,-0.327016 0.217482,-0.523861 0,-0.196845 -0.07779,-0.384165 -0.217482,-0.523862 l -0.65562,-0.655621 c -0.139697,-0.139696 -0.327017,-0.217481 -0.523862,-0.217481 z m -6.492708,6.333961 c -0.149219,0.149222 -0.149219,0.390516 0,0.538149 l 1.015974,1.015975 c 0.149222,0.14922 0.390515,0.14922 0.538149,0 0.147633,-0.149222 0.149221,-0.390516 0,-0.53815 l -1.014386,-1.015974 c -0.149221,-0.14922 -0.390515,-0.14922 -0.538149,0 z"
       id="path1"
       style="fill:#306230;stroke-width:0.0158745"
       sodipodi:nodetypes="ssccccccsccccssssccsscccc" />
  </g>
</svg>
