<?xml version="1.0" encoding="UTF-8" standalone="no"?>
<!-- Created with Inkscape (http://www.inkscape.org/) -->

<svg
   version="1.1"
   id="svg1"
   width="451.89084"
   height="300.16187"
   viewBox="0 0 451.89084 300.16187"
   sodipodi:docname="logo.png"
   xmlns:inkscape="http://www.inkscape.org/namespaces/inkscape"
   xmlns:sodipodi="http://sodipodi.sourceforge.net/DTD/sodipodi-0.dtd"
   xmlns="http://www.w3.org/2000/svg"
   xmlns:svg="http://www.w3.org/2000/svg">
  <defs
     id="defs1" />
  <sodipodi:namedview
     id="namedview1"
     pagecolor="#306230"
     bordercolor="#000000"
     borderopacity="0.25"
     inkscape:showpageshadow="2"
     inkscape:pageopacity="0.0"
     inkscape:pagecheckerboard="0"
     inkscape:deskcolor="#d1d1d1" />
  <g
     inkscape:groupmode="layer"
     inkscape:label="Image"
     id="g1"
     transform="translate(-74.109108,0.223342)">
    <path
       style="fill:#306230"
       d="m 132,298.84665 c -1.375,-0.56462 -5.56225,-1.46292 -9.305,-1.99623 -26.002391,-3.70514 -43.497478,-17.57471 -46.64616,-36.97965 -1.371328,-8.45134 -1.340645,-50.92493 0.04219,-58.40539 1.827098,-9.88368 7.286719,-18.68316 14.839346,-23.91713 l 4.035382,-2.79652 7.093662,4.21426 c 3.90151,2.31785 7.28448,4.02345 7.5177,3.79023 0.23322,-0.23323 -5.53872,-3.81561 -12.826543,-7.96085 C 81.938716,166.37052 78.075989,162.50909 75.460626,153.51255 74.154279,149.01888 73.95192,142.47784 74.202004,112.82899 74.487191,79.018583 74.596647,77.243778 76.748427,71.539134 81.640468,58.569713 91.741608,47.192026 103.45457,41.457966 107.3906,39.53109 118.88539,35.767595 129.5,32.930465 c 10.45,-2.793132 30.7,-8.221755 45,-12.063608 14.3,-3.841852 31.175,-8.356718 37.5,-10.033034 6.325,-1.676317 14.65,-3.90498 18.5,-4.952585 3.85,-1.047606 10.825,-2.849702 15.5,-4.004659 l 8.5,-2.099921 11.30398,6.611671 C 272.02117,10.024748 277.53367,13 278.05398,13 278.62765,13 279,24.807896 279,43 c 0,16.5 -0.16441,30 -0.36535,30 -0.34983,0 -50.13297,13.23827 -90.13465,23.96849 -25.60839,6.86931 -24.80635,6.55532 -29.35754,11.49279 -4.14843,4.50051 -6.30714,10.77404 -4.37289,12.70829 0.99162,0.99162 12.16085,-1.69741 50.73043,-12.21352 C 235.05135,100.89879 294.78917,85 295.51201,85 c 0.41674,0 -0.54048,-1.00193 -2.12715,-2.22651 -6.34004,-4.893196 -9.33224,-10.982988 -9.3629,-19.055609 -0.0474,-12.486242 8.04627,-22.691841 20.47881,-25.822391 3.60224,-0.907055 5.57918,-0.89165 8.821,0.06873 4.19071,1.241495 32.74069,16.928459 35.81909,19.68103 1.22722,1.097322 5.69071,8.79264 6.43908,11.101348 0.044,0.135632 2.45741,-0.459431 5.36321,-1.322362 l 5.28328,-1.568965 12.45527,7.170544 c 6.8504,3.9438 12.66433,6.961486 12.91984,6.705969 0.44527,-0.445264 -7.20485,-5.168648 -18.35052,-11.330095 L 368.00203,65.5 l -10e-4,-21.25 c -5.6e-4,-11.6875 0.20806,-21.25 0.4636,-21.25 0.62941,0 19.70844,10.97983 21.30955,12.263473 0.70079,0.561841 1.56329,0.732403 1.91666,0.379028 0.82621,-0.826212 1.58581,-0.31591 -11.43827,-7.68434 -6.18609,-3.49981 -10.91109,-6.64417 -10.5,-6.987467 0.87236,-0.728498 43.16369,-12.000135 44.95871,-11.982556 0.6662,0.0065 6.7412,3.178505 13.5,7.048847 L 440.5,23.073971 441,34.40089 l 0.5,11.326919 29.43008,-7.824601 29.43008,-7.824601 12.7783,7.210697 12.7783,7.210696 0.0416,48.17245 0.0416,48.17245 -3.25,1.01362 c -1.7875,0.55749 -12.025,3.31984 -22.75,6.13855 l -19.5,5.12493 -8.5,-5.01447 c -4.675,-2.75796 -10.4125,-6.14933 -12.75,-7.53638 l -4.25,-2.52191 v -8.09201 c 0,-7.23804 -0.18468,-8.03715 -1.75,-7.57217 -3.64219,1.0819 -46.61688,12.67138 -67.25,18.13608 -11.825,3.13186 -26.9,7.16404 -33.5,8.96041 -6.6,1.79636 -17.4,4.70854 -24,6.47149 -6.6,1.76296 -18.525,4.97536 -26.5,7.13867 -12.84191,3.48351 -40.18408,10.80161 -115.23338,30.84208 -24.24436,6.47399 -27.0675,7.92007 -30.74787,15.74971 -4.27663,9.09814 -0.98645,19.73129 7.32593,23.67577 5.25695,2.49459 6.21704,2.37106 28.65532,-3.68685 3.025,-0.81669 23.48839,-6.28788 45.47421,-12.15821 21.98581,-5.87032 40.32331,-10.88907 40.75,-11.15278 0.42668,-0.2637 0.77579,12.98861 0.77579,29.44959 v 29.92906 l -4.25,1.14887 c -2.3375,0.63188 -16.175,4.32131 -30.75,8.19874 -14.575,3.87743 -28.75,7.65901 -31.5,8.40351 -55.6997,15.07952 -61.77075,16.50852 -69.86747,16.44541 -4.47289,-0.0349 -9.25753,-0.52534 -10.63253,-1.08996 z m 45,-7.34853 c 13.475,-3.63792 41.375,-11.11605 62,-16.61807 20.625,-5.50203 37.84476,-10.34313 38.26614,-10.75801 0.42138,-0.41488 0.64638,-13.13623 0.5,-28.26967 L 277.5,208.33703 l -27,7.21649 c -14.85,3.96906 -38.0806,10.19323 -51.62356,13.83148 -13.54296,3.63825 -26.45116,6.615 -28.6849,6.615 -10.66809,0 -17.50957,-7.07893 -17.51971,-18.12775 -0.006,-6.88278 3.57023,-13.68111 9.13345,-17.36093 2.55455,-1.68973 18.04439,-6.28885 50.19472,-14.90344 25.575,-6.85274 81.15,-21.75601 123.5,-33.11837 100.76387,-27.0346 143.82799,-38.48488 144.75,-38.48743 0.4125,-0.001 0.75,8.32292 0.75,18.49792 0,10.84006 0.38804,18.5 0.93719,18.5 0.8077,0 35.41876,-9.09968 40.31281,-10.59874 C 523.88419,139.9007 524,136.75947 524,92.93261 524,67.119676 523.75789,46 523.46199,46 c -0.29591,0 -18.99433,4.95 -41.55206,11 -22.55772,6.05 -41.43201,11 -41.94285,11 -0.53517,0 -1.04288,-9.251245 -1.19795,-21.828215 L 438.5,24.34357 415.75,30.391255 393,36.438939 V 58.680926 80.92291 l -4.25,1.09345 C 386.4125,82.61775 376.26248,85.3351 366.19441,88.0549 356.12634,90.77471 347.61909,93 347.28942,93 c -0.32967,0 0.0929,-0.7875 0.93908,-1.75 3.60817,-4.10426 5.9715,-10.58847 5.9715,-16.383881 0,-19.957009 -21.76277,-28.915927 -36.57648,-15.057168 -6.98985,6.53926 -9.62127,19.196849 -5.75854,27.699629 1.7289,3.8057 7.38122,9.70568 10.28812,10.73888 0.74079,0.2633 1.1219,0.71593 0.8469,1.00584 -0.275,0.28991 -8.15,2.56548 -17.5,5.05683 -9.35,2.49135 -43.14458,11.54075 -75.09907,20.1098 C 198.44644,132.98897 171.09449,140 169.61881,140 c -3.23539,0 -9.32259,-2.43425 -11.97344,-4.78814 -2.89139,-2.56747 -5.59864,-9.19456 -5.62341,-13.76552 -0.0309,-5.71134 4.15537,-13.60423 8.99406,-16.95745 3.05957,-2.12028 15.16673,-5.75505 53.7169,-16.12671 C 242.10481,80.99795 267.5375,74.216823 271.25,73.293004 L 278,71.613333 V 43.338051 C 278,21.149132 277.73093,15.157761 276.75,15.50407 276.0625,15.746786 262.675,19.360938 247,23.53552 153.88384,48.334308 136.0161,53.244261 131.54099,55.262986 118.64857,61.078768 107.45429,73.375212 102.80577,86.82742 100.56434,93.3138 100.5,94.5046 100.5,129.5 c 0,35.49974 0.0322,36.07112 2.31647,41.11826 1.27406,2.81504 3.83804,6.59302 5.69772,8.3955 l 3.38126,3.27724 -3.31553,4.1045 c -7.86855,9.74096 -8.55365,13.40353 -8.56805,45.80528 -0.007,16.00901 0.43836,28.82274 1.11251,32 3.31081,15.60392 15.08594,28.47702 30.12498,32.93396 9.86295,2.92297 17.55657,1.97509 45.75064,-5.63662 z m -44.51306,0.76791 c -17.32367,-6.21431 -27.29798,-18.96355 -29.61037,-37.84822 -0.63428,-5.17998 -0.89337,-17.51024 -0.61815,-29.41781 0.54779,-23.70035 1.42063,-27.62719 8.18246,-36.81249 l 4.42052,-6.00486 -3.91457,-4.24024 c -7.62357,-8.25782 -8.3114,-11.66633 -8.73801,-43.3009 -0.22183,-16.44978 0.0635,-31.19263 0.69668,-36 2.14937,-16.31839 12.80331,-31.99485 26.78439,-39.411189 4.64739,-2.465235 22.7275,-7.702931 73.48701,-21.288738 37.0277,-9.910482 68.1106,-18.256951 69.0731,-18.547709 1.5951,-0.481857 1.75,0.478421 1.75,10.849033 v 11.377682 l -62.74704,16.798046 c -34.51088,9.238926 -64.93347,17.905992 -67.60577,19.260147 -6.38278,3.234398 -12.85653,10.010898 -16.3395,17.103638 L 124.5,100.5 v 24.5 24.5 l 2.66012,5 c 5.29207,9.94704 12.66659,15.14452 23.19041,16.3443 l 6.14947,0.70108 -5.35802,1.78295 c -10.53463,3.50554 -19.18095,11.25591 -23.98157,21.49652 C 124.52684,200.44274 124.5,200.72703 124.5,223 c 0,25.89784 0.53895,28.09158 8.97368,36.52632 6.65931,6.6593 12.19039,8.88156 22.02632,8.84965 7.12968,-0.0231 13.89902,-1.62245 62.22379,-14.70096 C 247.54687,245.60375 272.42411,239 273.00654,239 c 0.69881,0 0.9628,3.78674 0.77621,11.1341 l -0.28275,11.13411 -59,15.90928 c -65.39336,17.63323 -71.68987,18.79165 -82.01306,15.08854 z m 12.91089,-30.6613 c -6.6292,-3.08677 -12.01236,-8.55458 -15.27801,-15.51825 C 127.58134,240.67344 127.5,239.91012 127.5,221.5 c 0,-18.56811 0.0616,-19.13141 2.70897,-24.78122 3.4227,-7.3044 12.38099,-16.7608 19.11152,-20.1742 C 153.58135,174.38368 211.64814,158 215.04591,158 c 0.64879,0 0.91676,4.06022 0.73684,11.16428 l -0.28275,11.16428 -25.25693,6.74476 c -27.07845,7.23119 -32.26611,9.44984 -36.50737,15.61345 -3.73514,5.4281 -4.7357,8.64401 -4.7357,15.22105 0,7.32615 3.099,13.4972 8.79172,17.507 7.73765,5.4502 8.9085,5.27755 63.70828,-9.39423 26.95,-7.21544 49.7875,-13.35217 50.75,-13.63717 1.59431,-0.47209 1.75,0.49152 1.75,10.8313 v 11.3495 l -55.25,14.74955 c -61.38318,16.38687 -63.71617,16.77779 -73.35217,12.29096 z M 226.25,175.85082 c -0.6875,-0.68795 -1.25,-1.6294 -1.25,-2.09211 0,-0.46271 5.175,-6.26171 11.5,-12.88667 6.325,-6.62496 11.49769,-12.34388 11.49487,-12.70871 -0.003,-0.36483 -5.20169,-3.98249 -11.55305,-8.03924 -15.56017,-9.93861 -15.48787,-10.37219 2.55818,-15.34175 7.425,-2.04472 14.4,-3.72205 15.5,-3.72742 1.1,-0.005 4.475,1.53675 7.5,3.42692 l 5.5,3.43667 7.5,-7.38699 c 7.39394,-7.28253 7.63791,-7.42418 17.25253,-10.01671 15.75258,-4.24761 15.79978,-1.81568 0.27729,14.2845 l -11.47019,11.89706 11.36088,7.16764 c 13.10072,8.26533 14.56632,9.62109 12.49359,11.55737 C 303.63595,156.61539 278.08078,164 275.22696,164 c -0.65347,0 -3.65025,-1.575 -6.65951,-3.5 -3.00926,-1.925 -5.71928,-3.5 -6.02228,-3.5 -0.30299,0 -3.66152,3.27468 -7.4634,7.27706 -6.7831,7.14085 -7.07788,7.32105 -15.74713,9.6266 -4.85905,1.29224 -9.50964,2.54043 -10.33464,2.77375 -0.825,0.23332 -2.0625,-0.13864 -2.75,-0.82659 z m 17.25,-9.26408 c 1.1,-0.31458 5.29232,-4.17528 9.31627,-8.57935 4.02396,-4.40406 7.93547,-8.00739 8.69225,-8.00739 0.75679,0 4.26106,1.80895 7.78728,4.01988 l 6.41132,4.01988 9.27552,-2.4823 c 5.10154,-1.36526 9.43985,-2.64662 9.6407,-2.84747 0.20085,-0.20084 -4.24325,-3.27952 -9.87577,-6.8415 -5.80755,-3.67266 -10.39336,-7.26774 -10.59301,-8.30445 -0.23626,-1.22678 2.72315,-4.94094 8.99669,-11.29117 9.07988,-9.19088 9.24809,-9.44416 5.84875,-8.80645 -2.66203,0.49939 -5.45613,2.67693 -11.67028,9.09508 -4.49366,4.64118 -8.49503,8.4385 -8.89194,8.4385 -0.39691,0 -3.63537,-1.84018 -7.19658,-4.08929 -7.17277,-4.53001 -6.27022,-4.51676 -21.1052,-0.30973 l -5.364,1.52117 10.60938,6.68893 c 7.04088,4.43908 10.61094,7.29263 10.614,8.4838 0.003,0.98719 -4.15788,6.10943 -9.24538,11.38276 -5.18933,5.37889 -8.37202,9.34494 -7.25,9.03447 1.1,-0.30438 2.9,-0.8108 4,-1.12537 z m -95.69679,1.06955 c -10.15741,-2.85487 -17.56657,-10.66278 -19.74145,-20.8039 -1.66545,-7.76573 -1.35047,-36.31517 0.47873,-43.39229 2.77578,-10.7394 10.02302,-19.31801 20.05158,-23.735216 C 150.74143,78.778171 177.025,71.454932 207,63.451019 236.975,55.447107 263.71918,48.2463 266.4315,47.449226 c 8.01449,-2.355227 7.66852,-2.812694 7.35125,9.720286 L 273.5,68.339024 220,82.64124 c -29.425,7.86621 -55.19723,15.06266 -57.27162,15.99211 -2.07439,0.92944 -5.53926,3.60756 -7.69971,5.95137 -9.57075,10.38304 -8.58594,26.65267 2.08103,34.37979 7.10765,5.14875 10.25138,5.01361 34.69899,-1.49167 11.93022,-3.17452 22.25381,-5.97772 22.94131,-6.22933 0.95374,-0.34906 1.25,2.24951 1.25,10.96411 v 11.4216 l -27.05827,7.23941 c -29.88573,7.99589 -34.26749,8.71886 -41.13852,6.78766 z M 313.66667,152.33333 C 313.3,151.96667 313,141.44677 313,128.95578 c 0,-16.97733 0.31557,-22.95927 1.25,-23.69473 1.93686,-1.52446 32.76863,-9.46788 34.36746,-8.85435 1.18057,0.45303 1.37382,4.52709 1.1507,24.2587 l -0.26816,23.71423 -16,4.30094 c -16.34337,4.39325 -18.66523,4.82087 -19.83333,3.65276 z M 332,143 c 6.06835,-1.65 11.25085,-3 11.51668,-3 C 343.7825,140 344,131.62252 344,121.38337 v -18.61663 l -2.25,0.62044 c -1.2375,0.34124 -6.8625,1.83021 -12.5,3.30882 L 319,109.38438 v 18.30781 C 319,139.02372 319.3747,146 319.98332,146 c 0.54083,0 5.94833,-1.35 12.01668,-3 z m 152.03518,2.06574 C 483.43377,143.94199 483,135.73602 483,125.48241 c 0,-9.70699 -0.3375,-17.48142 -0.75,-17.2765 -12.67112,6.29458 -14.05468,6.79256 -18.87427,6.7933 -9.94397,0.002 -17.34037,-4.26747 -21.65593,-12.49921 -1.72621,-3.29267 -2.16072,-6.21042 -2.45716,-16.5 -0.19806,-6.875 0.0641,-13.124319 0.58254,-13.887376 1.26796,-1.866145 32.31947,-10.135734 33.7577,-8.990295 0.633,0.504143 1.3399,6.023007 1.65923,12.953916 0.306,6.641555 0.83099,12.350185 1.16664,12.685835 0.33565,0.33565 1.83899,0.17945 3.34076,-0.34712 L 482.5,87.45756 483,73.808054 c 0.275,-7.507229 0.73627,-13.883948 1.02504,-14.170486 0.28877,-0.286538 8.10847,-2.579837 17.37712,-5.096219 12.91957,-3.50759 17.17244,-4.30936 18.22496,-3.43585 1.92832,1.600368 2.04684,85.132801 0.12288,86.608141 C 518.54947,138.63423 488.24366,147 486.10925,147 c -0.57139,0 -1.50472,-0.87042 -2.07407,-1.93426 z M 502.62016,136.77167 515,133.54334 V 95.20428 c 0,-36.041299 -0.10488,-38.308443 -1.75,-37.828282 -0.9625,0.280925 -4.225,1.178545 -7.25,1.99471 -3.025,0.816166 -8.0875,2.204213 -11.25,3.08455 L 489,64.05587 v 11.749559 c 0,12.877491 -0.70622,14.957051 -6.01104,17.700281 -4.18437,2.16382 -7.73389,1.84027 -10.53441,-0.96025 -2.19053,-2.19053 -2.46527,-3.34684 -2.55423,-10.75 C 469.73748,68.24378 470.52711,68.816291 457,72.442224 l -11.5,3.082569 -0.27623,9.987607 c -0.24204,8.7514 0.006,10.53733 2,14.42906 3.23413,6.31054 6.5369,8.38484 14.11941,8.86766 7.02391,0.44725 11.06715,-1.08151 19.92634,-7.53419 C 488.93691,95.69031 489,95.8388 489,119.46862 489,130.76088 489.27907,140 489.62016,140 c 0.34108,0 6.19108,-1.45275 13,-3.22833 z M 364.97526,133.75 c -13.10586,-6.62877 -14.69979,-25.0544 -3.26734,-37.77003 5.91057,-6.57398 11.06476,-9.15565 19.48573,-9.76014 5.49276,-0.3943 7.4214,-0.10118 10.75,1.63378 L 396,89.9679 V 64.462511 c 0,-25.504073 1.2e-4,-25.505437 2.25,-26.448001 5.06325,-2.121189 33.864,-9.184743 35.26211,-8.648238 1.31904,0.506166 1.47549,6.317457 1.248,46.356221 L 434.5,121.5 l -17,4.67829 c -9.35,2.57305 -17.82963,4.71055 -18.84362,4.75 -1.03871,0.0404 -2.0711,-0.79816 -2.36465,-1.92071 -0.49835,-1.9057 -0.65751,-1.8772 -3.65638,0.65462 -7.87987,6.65264 -19.26303,8.33492 -27.66009,4.0878 z m 20.01551,-6.14774 c 3.9606,-1.95038 8.02123,-6.20322 11.65605,-12.20777 1.87329,-3.09459 4.78744,-0.57759 5.16068,4.45735 0.16912,2.28149 0.49912,4.14816 0.73332,4.14816 0.42878,0 21.45015,-5.61956 24.70918,-6.60541 1.62908,-0.49279 1.75,-3.32306 1.75,-40.961978 0,-22.237936 -0.3375,-40.425643 -0.75,-40.417126 -0.4125,0.0085 -6.375,1.515383 -13.25,3.348591 l -12.5,3.333104 -0.5,28.29336 c -0.45378,25.677719 -0.66385,28.395799 -2.27241,29.401409 -1.47412,0.92157 -2.20418,0.55776 -4.33799,-2.16177 -8.73168,-11.12848 -26.26131,-7.29109 -33.02273,7.22895 -5.30104,11.38392 -1.28452,22.21492 9.11221,24.57208 4.11019,0.93186 8.16843,0.20233 13.51169,-2.42895 z m -62.8225,-33.69099 c -10.86243,-5.51969 -13.30158,-20.255902 -5.01369,-30.290419 8.86745,-10.736214 25.63453,-9.671784 31.4142,1.994277 8.28426,16.721482 -10.19707,36.529822 -26.40051,28.296142 z m 13.76227,-5.37535 c 6.29244,-3.25395 10.17495,-10.995162 8.62057,-17.188291 -0.36795,-1.466035 -2.17247,-4.168993 -4.01005,-6.006574 C 337.75357,62.553571 336.46234,62 332.74788,62 c -8.76135,0 -15.2331,7.368152 -14.43815,16.437975 0.80103,9.139095 9.65884,14.215235 17.62081,10.097945 z"
       id="path1" />
  </g>
</svg>
