<?xml version="1.0" encoding="UTF-8" standalone="no"?>
<!-- Created with Inkscape (http://www.inkscape.org/) -->

<svg
   version="1.1"
   id="svg1"
   width="598.64197"
   height="244.72043"
   viewBox="0 0 598.64197 244.72043"
   sodipodi:docname="logo.png"
   xmlns:inkscape="http://www.inkscape.org/namespaces/inkscape"
   xmlns:sodipodi="http://sodipodi.sourceforge.net/DTD/sodipodi-0.dtd"
   xmlns="http://www.w3.org/2000/svg"
   xmlns:svg="http://www.w3.org/2000/svg">
  <defs
     id="defs1" />
  <sodipodi:namedview
     id="namedview1"
     pagecolor="#306230"
     bordercolor="#000000"
     borderopacity="0.25"
     inkscape:showpageshadow="2"
     inkscape:pageopacity="0.0"
     inkscape:pagecheckerboard="0"
     inkscape:deskcolor="#d1d1d1" />
  <g
     inkscape:groupmode="layer"
     inkscape:label="Image"
     id="g1"
     transform="translate(-0.32933536,-26.947048)">
    <path
       style="fill:#306230"
       d="M 31.5,271.05169 C 21.78856,268.61471 13.597247,262.00138 9.3179989,253.14286 7.0475635,248.44281 6.5921266,246.16337 6.5921266,239.5 c 0,-10.14815 3.1374779,-17.27338 10.5345254,-23.92396 2.905536,-2.61233 4.732825,-4.99439 4.330535,-5.64531 -0.394327,-0.63804 1.446123,-3.35908 4.246564,-6.2784 C 38.758315,190.04359 54.674784,166.39937 65.92928,143.89655 73.996528,127.76647 76.650104,120.8463 70.970388,130.75 l -3.010844,5.25 -7.229772,0.004 -7.229772,0.004 -1.931811,4.74625 c -4.088216,10.04431 -19.18572,21.89206 -30.205566,23.70378 -13.3355272,2.19244 -23.0010249,-8.40722 -20.69132922,-22.69113 0.50991482,-3.15348 0.61828582,-5.85348 0.24082443,-6 C 0.53465677,135.61988 6.6985857,113.45 14.609738,86.5 22.52089,59.55 29.682651,35.1375 30.524761,32.25 L 32.05587,27 h 19.618189 19.618189 l -0.625204,12.25 c -0.343862,6.7375 -0.92611,19.373806 -1.293884,28.080681 L 68.70448,83.16136 71.589987,82.83068 C 74.248275,82.52604 75.686889,80.31483 89.859278,54.75 L 105.24306,27 h 19.44586 c 18.06019,0 19.40714,0.124701 18.90251,1.75 -0.29885,0.9625 -6.33618,21.55 -13.4163,45.75 -7.08013,24.2 -13.21175,45.125 -13.62584,46.5 -0.41409,1.375 4.14376,-4.03298 10.12855,-12.01774 L 137.55927,94.46451 147.4394,60.732256 157.31954,27 h 15.84023 c 12.01542,0 15.83575,0.301827 15.82166,1.25 -0.0102,0.6875 -5.78566,20.825 -12.83432,44.75 -7.04866,23.925 -12.66061,43.69219 -12.471,43.9271 0.18962,0.2349 1.57756,-0.7052 3.08432,-2.08912 4.14974,-3.81141 9.27997,-7.13092 9.96381,-6.44707 0.335,0.335 0.42159,0.7396 0.19243,0.89912 -0.22917,0.15951 -3.63889,2.84636 -7.57717,5.97078 -6.92909,5.49718 -7.23273,5.92409 -9.39567,13.20998 L 157.70865,136 h -4.32278 c -4.10284,0 -4.53913,0.29256 -8.575,5.75 -7.60829,10.28819 -14.4313,21.88364 -24.17441,41.08353 -5.26123,10.36784 -10.02062,20.04668 -10.57642,21.50854 L 109.0495,207 h 18.78906 18.78906 l -0.43561,-6.02218 c -0.48824,-6.74987 2.26021,-15.94402 8.43827,-28.22782 1.86717,-3.7125 2.97958,-6.75 2.47201,-6.75 -0.86711,0 -10.82913,11.94383 -14.21392,17.0416 -0.97371,1.46649 -1.79435,1.91955 -2.22239,1.22696 -0.55153,-0.8924 7.00666,-11.06224 23.4889,-31.60521 1.41499,-1.76361 3.05778,-2.12395 11.33302,-2.48588 l 9.67816,-0.42329 -2.21337,4.37291 C 181.73535,156.53219 177.80707,163.45 174.2232,169.5 166.3074,182.86282 157,201.6035 157,204.17935 c 0,2.7392 2.60771,3.30771 5.74456,1.25237 6.77764,-4.44089 22.14812,-22.43315 43.91921,-51.41064 L 219.82754,136.5 l -24.0269,-0.26804 -24.0269,-0.26803 0.44889,-2.23197 C 172.46952,132.50438 179.5733,107.9875 188.00881,79.25 L 203.34609,27 l 22.07695,0.01736 c 24.56483,0.01932 32.34711,1.099909 40.71276,5.653065 18.31958,9.970766 21.91976,32.128107 9.93728,61.159115 -6.31046,15.28891 -16.16251,26.8032 -29.262,34.19907 L 240.5,131.5918 230.17056,150.0459 c -12.44874,22.24035 -25.91266,49.2349 -26.78569,53.7041 -0.58974,3.01897 -0.44353,3.25 2.05685,3.25 4.46751,0 9.146,-4.57731 25.02106,-24.47992 26.44547,-33.15476 35.97195,-46.47626 48.38371,-67.65812 L 290.9396,94.22391 292.9698,61.497694 C 294.08641,43.498274 295,28.372894 295,27.885738 295,27.398582 302.2,27 311,27 c 14.07457,0 16,0.194721 16,1.618099 0,1.918153 -6.73725,56.565981 -7.49683,60.808981 -0.2882,1.6099 -0.21681,2.6199 0.15864,2.24445 0.37545,-0.37546 6.84868,-14.967644 14.38495,-32.427087 L 347.74908,27.5 362.37454,27.223267 c 8.044,-0.152203 14.62644,0.0728 14.62763,0.5 0.001,0.427203 -1.82168,14.43313 -4.05082,31.124281 -2.22914,16.691151 -3.90013,30.806122 -3.7133,31.366602 0.18682,0.56047 6.89473,-13.320924 14.90646,-30.847552 L 398.71128,27.5 413.93542,27.223524 429.15955,26.947048 401.64522,81.22352 374.13089,135.5 358.56545,135.77539 343,136.05079 v -2.81099 c 0,-1.54605 1.33315,-15.14932 2.96256,-30.2295 1.6294,-15.08019 2.80721,-27.573866 2.61734,-27.763736 -0.33066,-0.330653 -1.69528,2.450316 -10.79422,21.997516 l -4.07025,8.74408 2.64229,2.64228 c 3.06268,3.06269 3.49696,7.81611 1.13193,12.38958 -1.90807,3.68979 -4.31766,4.97998 -9.30076,4.97998 -3.77766,0 -4.03259,0.20918 -6.09354,5 l -2.15095,5 H 304.173 288.4016 l 0.40861,-3.5 c 0.22473,-1.925 0.17327,-3.5 -0.11436,-3.5 -0.28763,0 -5.4968,8.94295 -11.57594,19.87322 -20.76307,37.33198 -29.30678,55.33991 -27.23737,57.40932 3.51657,3.51657 12.76266,-5.24354 35.89616,-34.00943 8.94654,-11.1248 17.1267,-20.6873 18.17813,-21.25 2.03425,-1.0887 18.04317,-1.4486 18.04317,-0.40563 0,0.33962 -4.74553,8.88296 -10.54562,18.98521 -16.17439,28.17159 -19.52203,36.53003 -14.8957,37.19179 2.96933,0.42474 9.52784,-5.72713 25.2859,-23.71816 7.50368,-8.56698 16.34591,-18.27632 19.64939,-21.57632 7.6064,-7.59838 16.69847,-12.52575 24.40158,-13.22425 6.56626,-0.5954 9.89446,0.70655 14.90378,5.83021 1.74777,1.78765 3.32864,3.05763 3.51305,2.82216 0.18441,-0.23547 1.34521,-1.89062 2.57955,-3.67812 2.23577,-3.23771 2.27656,-3.25 10.78315,-3.25 7.71759,0 8.47528,0.16832 7.87746,1.75 -0.36379,0.9625 -5.1206,9.65208 -10.57069,19.31017 -11.05335,19.5876 -15.78967,29.2158 -16.20382,32.93983 -0.23169,2.08334 0.19411,2.55407 2.55488,2.82442 2.40796,0.27576 4.06159,-0.92427 11.02392,-8 4.50506,-4.57843 13.4896,-15.3793 19.96566,-24.00193 6.47605,-8.62263 13.60248,-17.32886 15.83651,-19.34717 7.42499,-6.70803 14.21447,-8.19276 18.38645,-4.02077 3.46119,3.46118 3.32414,11.34978 -0.38775,22.31912 -1.53984,4.55051 -2.32245,8.11458 -1.73914,7.92014 0.58331,-0.19443 5.2238,-5.71758 10.31221,-12.27366 14.29769,-18.42167 21.14679,-23.37036 28.2646,-20.42207 6.34991,2.63022 7.54443,11.45752 3.45433,25.52696 -1.58639,5.45698 -1.22843,8.61786 0.60494,5.34181 1.72157,-3.07628 13.74587,-17.38368 18.08679,-21.521 10.53887,-10.04459 17.0662,-11.87209 22.42148,-6.27751 2.72958,2.85155 2.93672,3.61107 2.93179,10.75 -0.006,8.85217 -2.45105,15.00543 -11.94806,30.06997 -2.98595,4.73643 -5.72925,9.84919 -6.09623,11.36169 -0.63302,2.60902 -0.48517,2.75 2.88418,2.75 5.6797,0 12.86121,-7.67902 39.73503,-42.48771 C 568.45049,147.18053 579.75882,133 580.19924,133 c 1.50462,0 0.80269,2.30869 -1.69924,5.58889 -3.50737,4.59839 -3.16327,8.03195 1.92408,19.19953 6.17586,13.55704 7.86802,20.0364 7.39926,28.33222 -0.21379,3.78365 -0.14901,6.85407 0.14397,6.82317 0.29298,-0.0309 2.7818,-2.73357 5.53072,-6.00592 6.25666,-7.44803 7.21671,-6.01441 1.20459,1.79879 C 589.88321,194.99987 576.57396,208 574.98126,208 c -1.97139,0 -0.91415,1.80003 1.3981,2.38037 4.10739,1.03089 12.33926,9.3397 15.27449,15.41727 3.60725,7.46901 3.85492,19.09261 0.56299,26.42206 -2.96683,6.60562 -9.43223,13.24574 -16.07398,16.50836 L 570.5,271.5 l -268,0.15226 c -147.4,0.0837 -269.35,-0.18652 -271,-0.60057 z m 51.396938,-8.85607 c 5.791335,-2.23335 8.206319,-5.61012 8.42726,-11.78348 L 91.5,245.5 84.25,245.20619 77,244.91238 v 3.85268 c 0,5.64637 -1.945568,7.73946 -7.169389,7.71302 C 61.761996,256.43723 62,256.93806 62,240 62,223.06194 61.761996,223.56277 69.830611,223.52192 74.599027,223.49778 77,225.5638 77,229.69113 77,231.90116 77.326529,232 84.627808,232 h 7.627808 l -0.643999,-4.25 c -1.246946,-8.22907 -7.938805,-11.7347 -22.418797,-11.74442 -10.447722,-0.007 -16.428735,1.47824 -20.222021,5.0217 L 46,223.80242 V 240 256.19758 l 2.999213,2.80168 c 3.942812,3.68314 8.487762,4.78366 20.000787,4.843 6.635994,0.0342 10.825564,-0.46221 13.896938,-1.64664 z m 208.524262,0.70453 c 9.46903,-2.62902 12.66676,-11.53841 6.3288,-17.63304 -1.7875,-1.71888 -7.58204,-5.19794 -12.87675,-7.73124 -10.65494,-5.09796 -13.19458,-7.2375 -12.70361,-10.70228 0.25814,-1.8217 1.20476,-2.51307 4.33036,-3.16272 5.49275,-1.14165 9.5,0.4631 9.5,3.80438 0,2.47524 0.14706,2.52475 7.5,2.52475 h 7.5 v -2.86514 c 0,-7.69641 -8.628,-11.57737 -24.33953,-10.94818 -11.97452,0.47954 -17.01648,2.395 -19.3865,7.36499 -3.36494,7.05635 0.39312,11.5444 16.1934,19.3389 11.18386,5.51716 14.14047,8.46718 11.57917,11.55335 -1.62836,1.96205 -6.76507,2.82085 -10.54654,1.76327 -2.42045,-0.67694 -3.06054,-1.45413 -3.31336,-4.02311 L 270.87328,249 H 263.43664 256 v 3.59879 c 0,4.39695 4.11554,8.70208 9.74921,10.19833 5.14619,1.36678 20.89269,1.42997 25.67199,0.10303 z m 69,0 c 9.46903,-2.62902 12.66676,-11.53841 6.3288,-17.63304 -1.7875,-1.71888 -7.58204,-5.19794 -12.87675,-7.73124 -10.65494,-5.09796 -13.19458,-7.2375 -12.70361,-10.70228 0.25814,-1.8217 1.20476,-2.51307 4.33036,-3.16272 5.49275,-1.14165 9.5,0.4631 9.5,3.80438 0,2.47524 0.14706,2.52475 7.5,2.52475 h 7.5 v -2.86514 c 0,-7.69641 -8.628,-11.57737 -24.33953,-10.94818 -11.97452,0.47954 -17.01648,2.395 -19.3865,7.36499 -3.36494,7.05635 0.39312,11.5444 16.1934,19.3389 11.18386,5.51716 14.14047,8.46718 11.57917,11.55335 -1.62836,1.96205 -6.76507,2.82085 -10.54654,1.76327 -2.42045,-0.67694 -3.06054,-1.45413 -3.31336,-4.02311 L 339.87328,249 H 332.43664 325 v 3.59879 c 0,4.39695 4.11554,8.70208 9.74921,10.19833 5.14619,1.36678 20.89269,1.42997 25.67199,0.10303 z m 115.47574,-0.70453 c 5.79133,-2.23335 8.20632,-5.61012 8.42726,-11.78348 L 484.5,245.5 477.25,245.20619 470,244.91238 v 3.85268 c 0,5.64637 -1.94557,7.73946 -7.16939,7.71302 C 454.762,256.43723 455,256.93806 455,240 c 0,-16.93806 -0.238,-16.43723 7.83061,-16.47808 4.76842,-0.0241 7.16939,2.04188 7.16939,6.16921 0,2.21003 0.32653,2.30887 7.62781,2.30887 h 7.62781 l -0.644,-4.25 c -1.24695,-8.22907 -7.93881,-11.7347 -22.4188,-11.74442 -10.44772,-0.007 -16.42873,1.47824 -20.22202,5.0217 L 439,223.80242 V 240 256.19758 l 2.99921,2.80168 c 3.94281,3.68314 8.48777,4.78366 20.00079,4.843 6.63599,0.0342 10.82556,-0.46221 13.89694,-1.64664 z m 70.52426,0.70453 c 9.46903,-2.62902 12.66676,-11.53841 6.3288,-17.63304 -1.7875,-1.71888 -7.58204,-5.19794 -12.87675,-7.73124 -10.65494,-5.09796 -13.19458,-7.2375 -12.70361,-10.70228 0.25814,-1.8217 1.20476,-2.51307 4.33036,-3.16272 5.49275,-1.14165 9.5,0.4631 9.5,3.80438 0,2.47524 0.14706,2.52475 7.5,2.52475 h 7.5 v -2.86514 c 0,-7.69641 -8.628,-11.57737 -24.33953,-10.94818 -11.97452,0.47954 -17.01648,2.395 -19.3865,7.36499 -3.36494,7.05635 0.39312,11.5444 16.1934,19.3389 11.18386,5.51716 14.14047,8.46718 11.57917,11.55335 -1.62836,1.96205 -6.76507,2.82085 -10.54654,1.76327 -2.42045,-0.67694 -3.06054,-1.45413 -3.31336,-4.02311 L 525.87328,249 H 518.43664 511 v 3.59879 c 0,4.39695 4.11554,8.70208 9.74921,10.19833 5.14619,1.36678 20.89269,1.42997 25.67199,0.10303 z M 161,259.5 V 256 H 148.5 136 v -20 -20 h -8 -8 v 23.5 23.5 h 20.5 20.5 z m 36.00999,-1.03567 1.26991,-4.53568 9.02218,0.28568 9.02217,0.28567 1.11694,4 1.11695,4 7.72093,0.29206 c 5.81506,0.21997 7.70796,-0.0269 7.66837,-1 C 233.91853,261.08143 230.63965,250.6 226.66103,238.5 l -7.23385,-22 -11.71359,-0.28174 c -6.44247,-0.15495 -11.72184,0.0701 -11.73193,0.5 -0.0101,0.42996 -3.33624,11.01924 -7.39145,23.53174 l -7.3731,22.75 h 7.26148 7.26149 z M 202.60057,240.25 c 1.34516,-4.2625 2.71657,-8.9875 3.04759,-10.5 0.33101,-1.5125 0.92599,-2.75 1.32217,-2.75 0.39618,0 1.95991,4.1304 3.47495,9.17868 1.51504,5.04827 2.98279,9.77327 3.26166,10.5 0.39059,1.01787 -1.10735,1.32132 -6.52253,1.32132 h -7.02957 z M 412,239.5 V 216 h -8 -8 v 23.5 23.5 h 8 8 z M 98.742073,206.59126 c 0.168654,-0.16865 -0.379318,-2.94023 -1.217715,-6.15905 -4.880052,-18.73579 2.892342,-43.39167 23.710142,-75.21427 4.4191,-6.75513 7.8052,-12.51157 7.52468,-12.7921 -0.9228,-0.92279 -13.86925,15.58969 -15.17104,19.34982 -0.76809,2.21856 -2.08631,3.88549 -3.32227,4.20111 C 109.13895,136.26455 103.30293,142.125 97.296938,149 80.676807,168.02491 52.131275,193.85441 35.953773,204.50653 L 31.407545,207.5 64.921488,207.19895 c 18.432668,-0.16557 33.651932,-0.43904 33.820585,-0.60769 z m 93.233177,-2.15636 c -2.52624,-6.64451 -0.058,-17.91695 6.97902,-31.87312 2.20144,-4.36602 3.78732,-8.15352 3.52418,-8.41667 -0.26315,-0.26314 -0.63005,-0.29094 -0.81534,-0.0618 -0.1853,0.22917 -3.87247,5.14167 -8.19372,10.91667 -10.29147,13.7537 -20.52438,26.02704 -24.46377,29.34182 L 165.84655,207 h 13.55197 13.55198 z m 46.45437,0.8151 c -2.91732,-6.50887 -0.36878,-18.47781 7.08689,-33.28278 1.92975,-3.83197 3.0882,-6.96722 2.57433,-6.96722 -0.51386,0 -5.78602,6.1875 -11.7159,13.75 -5.92989,7.5625 -13.91616,17.0125 -17.74728,21 L 211.662,207 h 13.77599 c 12.75213,0 13.71769,-0.13006 12.99163,-1.75 z m 44.92848,-2.65401 c -0.77761,-5.67327 1.0102,-13.195 5.37074,-22.59599 8.57953,-18.49678 7.83281,-18.4682 -6.531,0.25 -6.01428,7.8375 -13.88023,17.0625 -17.47989,20.5 l -6.54484,6.25 h 12.89431 12.89432 z m 44.6815,1.15401 c -2.67241,-4.58826 -3.33949,-9.46969 -2.06797,-15.13269 0.60297,-2.68549 0.8034,-5.16049 0.44539,-5.5 -0.35801,-0.33952 -2.7358,1.84299 -5.28397,4.85003 -2.54818,3.00704 -7.51938,8.51954 -11.04711,12.25 L 303.67188,207 h 13.13033 13.13034 z m 24.6206,-0.57864 c 5.62486,-4.44968 11.07589,-11.30037 18.34068,-23.05006 C 380.17766,165.27929 382.10104,158.10104 378,154 c -3.26351,-3.26351 -7.42454,-2.57163 -12.46252,2.07222 -7.54088,6.95094 -22.89653,30.82831 -26.59729,41.35762 -2.78136,7.91349 -2.08246,9.57016 4.0374,9.57016 4.10442,0 5.58075,-0.58376 9.68261,-3.82864 z M 366.26983,200.75 c -0.29728,-3.4375 -0.6195,-6.3524 -0.71605,-6.47754 -0.0965,-0.12515 -3.16298,2.68735 -6.81431,6.25 L 352.1007,207 h 7.35482 7.35482 z m 53.42975,-10.02114 C 430.12939,172.32978 437,158.45943 437,155.8029 c 0,-6.09602 -9.65142,2.84298 -25.04587,23.1971 -5.19977,6.875 -12.87461,15.9875 -17.05521,20.25 l -7.60107,7.75 11.60107,-0.0211 11.60108,-0.0212 z m 36.13458,10.01306 C 475.35495,164.19677 479.72087,153 474.45001,153 c -4.04124,0 -20.5791,19.33798 -37.84263,44.25 l -6.75655,9.75 11.32458,-0.008 11.32459,-0.008 z m 47.20102,4.32382 c -1.65535,-3.09305 -1.20062,-12.32443 0.94628,-19.2104 1.0898,-3.49544 5.3648,-11.95376 9.5,-18.79628 4.1352,-6.84251 7.51854,-12.74991 7.51854,-13.12755 0,-0.37764 -0.64267,-1.21999 -1.42817,-1.87189 -4.38219,-3.6369 -19.51254,12.80828 -39.19696,42.60321 -4.05618,6.13955 -7.37487,11.42705 -7.37487,11.75 0,0.32294 6.99083,0.58717 15.53518,0.58717 15.04931,0 15.50281,-0.0605 14.5,-1.93426 z m 46.25268,1.2846 c -4.15593,-1.68606 -6.90042,-12.46872 -4.3748,-17.18789 1.54353,-2.88412 5.79056,-3.83918 9.01765,-2.02787 2.15688,1.21063 2.56929,2.15496 2.56929,5.8831 0,3.91328 -0.38161,4.68109 -3.21148,6.46165 -3.69742,2.32642 -3.86291,2.80342 -1.71709,4.94924 4.26907,4.26907 10.19348,-0.51452 16.1368,-13.02947 4.51483,-9.50695 6.18531,-16.00348 6.91667,-26.8991 0.61077,-9.09911 -0.30862,-15.56124 -2.30882,-16.22797 -0.95628,-0.31876 -8.76514,9.35722 -34.50027,42.7494 -3.61207,4.68678 -8.42459,10.19928 -10.69449,12.25 L 522.99424,207 l 13.75288,-0.0789 c 7.56408,-0.0434 13.20741,-0.30024 12.54074,-0.57071 z M 47.955349,192.15018 C 60.920018,182.88274 74.193315,170.75263 90.179108,153.563 98.330599,144.79765 105,137.26015 105,136.813 c 0,-0.44715 -3.2625,-0.81193 -7.25,-0.81062 l -7.25,0.002 -2.98873,5.74763 C 80.99095,154.2916 63.704984,174.47872 45.5,190.81453 c -4.4,3.94824 -7.488855,7.18015 -6.864122,7.18204 0.624732,0.002 4.818495,-2.62899 9.319471,-5.84639 z M 114.91299,187.25 c 2.76269,-6.15663 15.92184,-28.48568 23.27848,-39.5 L 146.03949,136 h -8.32887 -8.32887 l -1.60253,4.75 c -0.88139,2.6125 -4.51699,13.3 -8.0791,23.75 -7.02754,20.61632 -8.35669,25.5 -6.94009,25.5 0.50542,0 1.47425,-1.2375 2.15296,-2.75 z M 21.616223,158.94374 c 5.626794,-2.72389 16.071324,-13.94508 20.172634,-21.6727 3.271851,-6.16476 3.294257,-6.30343 4.332895,-26.81769 0.57422,-11.34149 0.846142,-20.81879 0.60427,-21.06066 -1.85084,-1.85084 -3.951025,3.13898 -9.839334,23.37722 L 30.273376,135.5 17.194992,135.77862 c -14.9552702,0.3186 -14.3652877,-0.0932 -14.4580712,10.09273 -0.1146761,12.58941 8.1111832,18.28514 18.8793022,13.07239 z M 228.21754,107.22797 c 9.5125,-4.20783 17.26208,-15.7766 20.4697,-30.557708 1.88105,-8.668101 1.2649,-13.385261 -2.30208,-17.624372 C 243.70796,55.864217 236.18443,53 230.50422,53 h -3.13277 l -8.18572,27.36171 C 214.68358,95.41064 211,108.29725 211,108.99862 c 0,1.91075 11.58953,0.71889 17.21754,-1.77065 z M 98.391469,85.07189 c 2.522101,-6.285465 4.441351,-11.572405 4.264991,-11.748759 -0.17635,-0.176353 -2.80912,4.284306 -5.850599,9.912579 -4.422965,8.18472 -5.314927,10.57754 -4.455766,11.95327 0.590807,0.94604 1.160042,1.62803 1.264965,1.51554 0.104924,-0.11248 2.254308,-5.34717 4.776409,-11.63263 z M 70.523918,89.92464 C 71.273267,87.56365 70.637489,86.48798 69.066531,87.45888 67.75494,88.26949 67.644926,92 68.932612,92 c 0.512937,0 1.229025,-0.93391 1.591306,-2.07536 z M 47.372009,81.30255 c 0.345395,-2.519929 0.587753,-5.981385 0.538574,-7.692121 -0.07993,-2.780509 -0.224968,-2.61867 -1.367363,1.525783 -2.446291,8.874818 -2.770203,11.888118 -1.213695,11.290828 0.785253,-0.30133 1.693855,-2.58096 2.042484,-5.12449 z M 387.90953,134.25 c 0.53894,-0.9625 15.55192,-25.375 33.36217,-54.25 l 32.38228,-52.5 16.67301,-0.274179 c 12.97604,-0.213384 16.67734,0.0083 16.69256,1 0.0108,0.700798 0.67812,22.874179 1.48305,49.274179 0.80493,26.4 1.47113,50.3625 1.48045,53.25 L 490,136 h -16.08206 -16.08206 l 0.33206,-7.00225 0.33206,-7.00226 -16.05681,0.002 L 426.38638,122 423,129 l -3.38638,7 h -16.342 c -15.27042,0 -16.27773,-0.11475 -15.36209,-1.75 z m 71.09646,-44 c 0.003,-4.8125 0.30049,-12.533671 0.66042,-17.158158 0.44757,-5.750567 0.32388,-8.203877 -0.39133,-7.761848 -0.57517,0.35547 -4.08306,6.164141 -7.79532,12.908158 C 447.76749,84.98217 443.62313,92.4125 442.27007,94.75 L 439.80996,99 H 449.40498 459 Z m 41.01296,44.5 c 0.0104,-0.6875 2.47527,-9.51876 5.47745,-19.62502 l 5.45851,-18.37501 -7.51542,-33.124986 C 499.306,45.406243 495.68582,29.7125 495.39464,28.75 494.90416,27.128693 496.18446,27 512.80461,27 H 530.744 l 2.72879,17.25 c 1.50084,9.4875 2.87873,17.407795 3.06199,17.600655 0.18326,0.19286 6.209,-7.56964 13.39055,-17.25 L 562.98268,27 h 18.00866 c 9.90476,0 17.99574,0.3375 17.97995,0.75 -0.0158,0.4125 -12.76053,16.101684 -28.32164,34.864853 L 542.35672,96.72971 536.52741,116.36485 530.6981,136 h -15.34905 c -11.62268,0 -15.34445,-0.30347 -15.3301,-1.25 z"
       id="path1" />
  </g>
</svg>
