<?xml version="1.0" encoding="UTF-8" standalone="no"?>
<!-- Created with Inkscape (http://www.inkscape.org/) -->

<svg
   version="1.1"
   id="svg1"
   width="597.15948"
   height="200.10329"
   viewBox="0 0 597.15948 200.10329"
   sodipodi:docname="logo.png"
   xmlns:inkscape="http://www.inkscape.org/namespaces/inkscape"
   xmlns:sodipodi="http://sodipodi.sourceforge.net/DTD/sodipodi-0.dtd"
   xmlns="http://www.w3.org/2000/svg"
   xmlns:svg="http://www.w3.org/2000/svg">
  <defs
     id="defs1" />
  <sodipodi:namedview
     id="namedview1"
     pagecolor="#306230"
     bordercolor="#000000"
     borderopacity="0.25"
     inkscape:showpageshadow="2"
     inkscape:pageopacity="0.0"
     inkscape:pagecheckerboard="0"
     inkscape:deskcolor="#d1d1d1" />
  <g
     inkscape:groupmode="layer"
     inkscape:label="Image"
     id="g1"
     transform="translate(-1,-49.703682)">
    <path
       style="fill:#306230"
       d="M 28.204958,248.10959 C 4.7313995,239.98477 -1.3086341,210.15094 17.158518,193.54739 L 22.216307,189 H 12.108154 2 v -19 -19 h 69.889216 c 65.959854,0 70.014914,-0.10179 72.125004,-1.81043 2.66912,-2.16133 2.95538,-6.64812 0.57604,-9.02886 C 143.09567,138.66526 137.38633,138.45025 87.215255,138 31.934754,137.5039 31.455509,137.48202 25.798368,135.19625 10.385107,128.9685 1,113.37751 1,94 1,74.968565 9.5431892,60.324178 24.824854,53.160407 L 30.5,50.5 112.75,50.227487 195,49.954973 V 68.977487 88 h -70.5 c -69.166667,0 -70.537825,0.0378 -72.5,2 -2.550103,2.5501 -2.537658,5.04577 0.03896,7.81144 L 54.07791,100 h 51.91182 c 55.02373,0 58.40032,0.23843 67.77592,4.78587 5.97565,2.89835 13.9909,10.85644 17.12818,17.00602 10.5972,20.77222 4.14521,48.91937 -13.83961,60.37606 L 172.60844,185 H 188.30422 204 V 117.5 50 h 26.02734 26.02735 L 302.77734,91.63529 349.5,133.27057 349.76097,91.63529 350.02194,50 H 375.51097 401 v 67.5 67.5 h 3.5 3.5 V 117.5 50 h 25.5 25.5 v 30.5 c 0,16.775 0.36375,30.5 0.80832,30.5 0.44458,0 17.74825,-13.71221 38.45261,-30.47158 l 37.64428,-30.471577 30.51277,-0.278422 c 22.99734,-0.209845 30.21342,0.0044 29.2974,0.869786 -1.26803,1.197948 -73.85073,60.739893 -78.52702,64.418263 -2.34118,1.84158 -2.48112,2.24977 -1.12073,3.26894 0.85497,0.64052 19.6754,16.68959 41.82317,35.66459 l 40.26868,34.5 -9.64672,0.28702 -9.64672,0.28702 5.01662,4.51037 c 7.45998,6.70717 10.62122,13.83791 10.60239,23.91559 -0.0113,6.03862 -0.54108,9.14635 -2.16089,12.67567 -3.03326,6.609 -9.59028,13.31644 -16.18265,16.55386 L 570.5,249.5 302,249.72117 c -258.058373,0.21257 -268.705918,0.1499 -273.795042,-1.61158 z m 52.381423,-7.23566 c 2.459611,-0.61934 5.80888,-2.37488 7.44282,-3.90121 C 90.572318,234.5971 91,233.46355 91,229.09879 V 224 h -7 -7 v 3.87756 c 0,2.13265 -0.634847,4.40443 -1.41077,5.04839 -2.121184,1.76042 -7.73575,2.37146 -10.83923,1.17963 L 62,233.0495 V 218 202.9505 l 2.75,-1.05608 c 3.10348,-1.19183 8.718046,-0.58079 10.83923,1.17963 C 76.365153,203.71801 77,205.53979 77,207.12244 V 210 h 7 7 v -4.41111 c 0,-3.6698 -0.502217,-4.83369 -2.988414,-6.92569 -4.104078,-3.45335 -11.980756,-5.00986 -22.626054,-4.47112 -10.115321,0.51192 -16.219521,2.95339 -18.188471,7.27476 -1.790729,3.93023 -1.60923,29.83543 0.234008,33.39986 1.236711,2.39154 4.89624,4.63751 10.568931,6.48649 2.925875,0.95367 18.181236,0.62997 22.586381,-0.47926 z M 291.76356,240.47758 C 297.76584,238.69509 301,235.18106 301,230.44187 c 0,-5.12418 -3.97762,-8.84705 -15.45767,-14.46769 -11.31812,-5.54136 -13.86823,-7.65967 -13.37269,-11.10834 0.42284,-2.94271 5.44304,-4.55065 10.08036,-3.22867 2.50402,0.71382 3.32263,1.55039 3.56642,3.64466 0.31261,2.68541 0.40602,2.71817 7.75,2.71817 H 301 v -2.92308 c 0,-3.99462 -4.72537,-8.51853 -10.38696,-9.94414 -5.65004,-1.42269 -18.89823,-1.45897 -23.91634,-0.0655 -4.92594,1.36789 -9.55939,5.63689 -10.23799,9.4327 -0.98539,5.51185 2.14438,8.62904 15.50084,15.43857 12.91759,6.58578 15.9626,9.56785 12.89854,12.63191 -2.03222,2.03222 -7.75442,2.82301 -11.10809,1.5351 -2.16113,-0.82993 -2.75,-1.70379 -2.75,-4.08083 V 227 h -7.5 c -7.37229,0 -7.5,0.0434 -7.5,2.54966 0,5.58094 4.33727,10.0071 11.5,11.73568 4.65509,1.12341 19.41525,0.63203 24.26356,-0.80776 z m 69,0 C 366.76584,238.69509 370,235.18106 370,230.44187 c 0,-5.12418 -3.97762,-8.84705 -15.45767,-14.46769 -11.31812,-5.54136 -13.86823,-7.65967 -13.37269,-11.10834 0.42284,-2.94271 5.44304,-4.55065 10.08036,-3.22867 2.50402,0.71382 3.32263,1.55039 3.56642,3.64466 0.31261,2.68541 0.40602,2.71817 7.75,2.71817 H 370 v -2.92308 c 0,-3.99462 -4.72537,-8.51853 -10.38696,-9.94414 -5.65004,-1.42269 -18.89823,-1.45897 -23.91634,-0.0655 -4.92594,1.36789 -9.55939,5.63689 -10.23799,9.4327 -0.98539,5.51185 2.14438,8.62904 15.50084,15.43857 12.91759,6.58578 15.9626,9.56785 12.89854,12.63191 -2.03222,2.03222 -7.75442,2.82301 -11.10809,1.5351 -2.16113,-0.82993 -2.75,-1.70379 -2.75,-4.08083 V 227 h -7.5 c -7.37229,0 -7.5,0.0434 -7.5,2.54966 0,5.58094 4.33727,10.0071 11.5,11.73568 4.65509,1.12341 19.41525,0.63203 24.26356,-0.80776 z m 112.82282,0.39635 c 2.45961,-0.61934 5.80888,-2.37488 7.44282,-3.90121 C 483.57232,234.5971 484,233.46355 484,229.09879 V 224 h -7 -7 v 3.87756 c 0,2.13265 -0.63485,4.40443 -1.41077,5.04839 -2.12118,1.76042 -7.73575,2.37146 -10.83923,1.17963 L 455,233.0495 V 218 202.9505 l 2.75,-1.05608 c 3.10348,-1.19183 8.71805,-0.58079 10.83923,1.17963 0.77592,0.64396 1.41077,2.46574 1.41077,4.04839 V 210 h 7 7 v -4.41111 c 0,-3.6698 -0.50222,-4.83369 -2.98841,-6.92569 -4.10408,-3.45335 -11.98076,-5.00986 -22.62606,-4.47112 -10.11532,0.51192 -16.21952,2.95339 -18.18847,7.27476 -1.79073,3.93023 -1.60923,29.83543 0.23401,33.39986 1.23671,2.39154 4.89624,4.63751 10.56893,6.48649 2.92587,0.95367 18.18124,0.62997 22.58638,-0.47926 z m 73.17718,-0.39635 C 552.76584,238.69509 556,235.18106 556,230.44187 c 0,-5.12418 -3.97762,-8.84705 -15.45767,-14.46769 -11.31812,-5.54136 -13.86823,-7.65967 -13.37269,-11.10834 0.42284,-2.94271 5.44304,-4.55065 10.08036,-3.22867 2.50402,0.71382 3.32263,1.55039 3.56642,3.64466 0.31261,2.68541 0.40602,2.71817 7.75,2.71817 H 556 v -2.92308 c 0,-3.99462 -4.72537,-8.51853 -10.38696,-9.94414 -5.65004,-1.42269 -18.89823,-1.45897 -23.91634,-0.0655 -4.92594,1.36789 -9.55939,5.63689 -10.23799,9.4327 -0.98539,5.51185 2.14438,8.62904 15.50084,15.43857 12.91759,6.58578 15.9626,9.56785 12.89854,12.63191 -2.03222,2.03222 -7.75442,2.82301 -11.10809,1.5351 -2.16113,-0.82993 -2.75,-1.70379 -2.75,-4.08083 V 227 h -7.5 c -7.37229,0 -7.5,0.0434 -7.5,2.54966 0,5.58094 4.33727,10.0071 11.5,11.73568 4.65509,1.12341 19.41525,0.63203 24.26356,-0.80776 z M 161,237.5 V 234 H 148.5 136 v -20 -20 h -8 -8 v 23.5 23.5 h 20.5 20.5 z m 35.90505,-1.03721 1.14249,-4.53721 9.19655,0.28721 9.19656,0.28721 1.11693,4 1.11693,4 7.66275,0.29206 c 4.2145,0.16064 7.6537,-0.0644 7.64265,-0.5 C 233.96886,239.85643 230.6831,229.375 226.67822,217 L 219.39663,194.5 207.94831,194.22993 196.5,193.95986 188.88438,217.47993 181.26877,241 h 7.2469 7.2469 z M 201.55898,221.25 c 0.80483,-2.6125 2.18841,-7.225 3.07464,-10.25 0.88622,-3.025 1.84971,-5.90538 2.14109,-6.40085 0.38348,-0.65206 7.18768,19.27836 7.22086,21.15085 0.002,0.1375 -3.12405,0.25 -6.94774,0.25 h -6.95217 z M 412,217.5 V 194 h -8 -8 v 23.5 23.5 h 8 8 z M 342,181.71198 C 331.01492,171.56207 255.99768,105 255.54353,105 255.24459,105 255,123 255,145 v 40 l 45.25,-0.0271 45.25,-0.0271 z m 190.45,2.38547 C 527.96071,179.83237 460.34804,123 459.76322,123 459.34345,123 459,136.95 459,154 v 31 h 37.2 c 22.15745,0 36.81585,-0.36497 36.25,-0.90255 z"
       id="path1" />
  </g>
</svg>
