<?xml version="1.0" encoding="UTF-8" standalone="no"?>
<!-- Created with Inkscape (http://www.inkscape.org/) -->

<svg
   version="1.1"
   id="svg1"
   width="595.98615"
   height="173.27966"
   viewBox="0 0 595.98615 173.27966"
   sodipodi:docname="logo.png"
   xmlns:inkscape="http://www.inkscape.org/namespaces/inkscape"
   xmlns:sodipodi="http://sodipodi.sourceforge.net/DTD/sodipodi-0.dtd"
   xmlns="http://www.w3.org/2000/svg"
   xmlns:svg="http://www.w3.org/2000/svg">
  <defs
     id="defs1" />
  <sodipodi:namedview
     id="namedview1"
     pagecolor="#306230"
     bordercolor="#000000"
     borderopacity="0.25"
     inkscape:showpageshadow="2"
     inkscape:pageopacity="0.0"
     inkscape:pagecheckerboard="0"
     inkscape:deskcolor="#d1d1d1" />
  <g
     inkscape:groupmode="layer"
     inkscape:label="Image"
     id="g1"
     transform="translate(-3.0138698,-57.448097)">
    <path
       style="fill:#306230"
       d="m 29.950561,229.64268 c -8.964638,-2.42697 -17.244023,-9.63567 -21.2710504,-18.52028 -2.939988,-6.48633 -2.9285351,-18.78323 0.023562,-25.29807 2.9685834,-6.55122 9.5380774,-13.30596 16.0302714,-16.4823 4.697723,-2.29838 7.315743,-2.79731 17.641506,-3.36203 6.668833,-0.36472 11.13588,-0.73442 9.926772,-0.82156 C 46.474745,164.73849 33.518095,159.56562 26.446757,154.83602 3.627443,139.57353 -3.2477078,112.97362 9.0196479,87.41067 13.691718,77.67492 22.944605,68.360047 32.372534,63.901342 c 18.847744,-8.913574 43.626147,-7.549107 59.387821,3.270295 5.599894,3.843976 13.933715,12.289101 14.790245,14.987773 0.46437,1.46311 -2.55477,5.23859 -13.063914,16.33662 l -13.667856,14.43374 -8.925137,-6.00125 c -7.816651,-5.25591 -8.798986,-6.23696 -7.909415,-7.89914 1.793601,-3.35138 1.185315,-6.87215 -1.490179,-8.6252 -3.199296,-2.09626 -7.196502,-0.64609 -11.392842,4.13328 -4.047465,4.6098 -5.477742,9.59727 -4.687872,16.34689 1.259261,10.76067 8.0938,19.82877 16.689168,22.14326 6.049293,1.62891 10.668759,0.43699 14.962116,-3.86055 L 80.728156,125.5 91.364078,125.78383 102,126.06766 v 9.13284 c 0,5.02306 0.28429,8.84854 0.63176,8.50108 0.54129,-0.54129 21.2174,-54.67667 29.19941,-76.45158 L 134.4888,60 152.4944,60.01035 170.5,60.0207 185.30906,98.26035 C 198.49755,132.31538 202.37888,141 204.41029,141 204.73463,141 205,128.65766 205,113.57258 V 86.14516 l -2.5,-1.9665 C 200.10144,82.29196 200,81.7615 200,71.10608 V 60 l 28.75,0.0076 c 15.8125,0.0042 31.67229,0.481663 35.24398,1.061129 11.94126,1.937336 19.34898,6.64389 24.68918,15.686484 l 2.51294,4.255167 6.69027,-6.755167 C 309.10595,62.926757 321.10984,57.945998 337.5,57.81834 c 17.34818,-0.135119 29.85028,4.372605 39.84423,14.366131 l 5.84422,5.84398 5.48909,-5.016719 c 13.0661,-11.941676 35.49966,-18.00545 54.17224,-14.642714 11.34701,2.043476 21.71956,7.124909 29.29834,14.35303 3.33204,3.177874 6.69838,7.015452 7.48075,8.527952 0.78237,1.5125 1.74843,2.75085 2.14681,2.75189 0.39838,10e-4 0.58536,-5.398957 0.41552,-11.999998 L 481.8824,60 h 24.44266 24.44265 l 2.27207,5.75 c 1.24964,3.1625 2.58849,6.114084 2.97522,6.559075 0.38673,0.444992 1.54845,-2.142508 2.58159,-5.75 L 540.47502,60 H 565.73751 591 v 10.964816 c 0,9.919654 -0.18951,11.066244 -1.98819,12.028864 -1.09351,0.58523 -2.24173,2.0742 -2.5516,3.30883 -0.59053,2.35284 6.12537,47.47728 7.67118,51.54308 0.49098,1.29137 1.78727,2.58188 2.88065,2.86781 1.84894,0.48351 1.98796,1.38587 1.98796,12.90323 V 166 l -15.25,0.0521 -15.25,0.0521 5.198,1.99839 c 7.03323,2.70393 14.56175,9.68771 17.99702,16.69479 3.65185,7.44885 3.91686,19.06267 0.60191,26.37828 -2.98389,6.58498 -9.54436,13.30726 -16.15542,16.55386 L 570.5,230.5 l -268,0.18717 c -209.624649,0.1464 -268.990952,-0.0811 -272.549439,-1.04449 z m 52.946377,-8.44706 c 5.791335,-2.23335 8.206319,-5.61012 8.42726,-11.78348 L 91.5,204.5 84.25,204.20619 77,203.91238 v 3.85268 c 0,2.11897 -0.563976,4.62396 -1.25328,5.56664 -1.604442,2.19421 -7.447745,3.13679 -10.99672,1.77388 L 62,214.0495 V 199 183.9505 l 2.75,-1.05608 c 3.10348,-1.19183 8.718046,-0.58079 10.83923,1.17963 C 76.365153,184.71801 77,186.53979 77,188.12244 V 191 h 7.587898 7.587898 l -0.657802,-4.25 c -1.36255,-8.80332 -8.735539,-12.21018 -25.012453,-11.55758 -11.393273,0.4568 -16.717678,2.38334 -19.049592,6.89277 -2.064527,3.99235 -2.064527,29.83727 0,33.82962 1.369281,2.6479 5.515442,5.27764 10.044051,6.37053 5.11972,1.23554 21.150961,0.54768 25.396938,-1.08972 z m 208.524262,0.70453 c 9.46903,-2.62902 12.66676,-11.53841 6.3288,-17.63304 -1.7875,-1.71888 -7.58204,-5.19794 -12.87675,-7.73124 -10.63376,-5.08782 -13.19643,-7.24027 -12.70361,-10.67003 0.42284,-2.94271 5.44304,-4.55065 10.08036,-3.22867 2.50402,0.71382 3.32263,1.55039 3.56642,3.64466 0.31261,2.68541 0.40602,2.71817 7.75,2.71817 H 301 v -3.09879 c 0,-3.86733 -4.20388,-8.0465 -9.77225,-9.71483 -4.96463,-1.48744 -19.43901,-1.53302 -24.68083,-0.0777 -4.66103,1.29405 -10.54692,6.786 -10.54692,9.84101 0,5.92432 4.00369,9.42953 19.3062,16.90244 9.55449,4.6659 12.40536,7.86491 9.55189,10.71838 -2.03222,2.03222 -7.75442,2.82301 -11.10809,1.5351 -2.16113,-0.82993 -2.75,-1.70379 -2.75,-4.08083 V 208 h -7.5 -7.5 v 3.59879 c 0,4.39695 4.11554,8.70208 9.74921,10.19833 5.14619,1.36678 20.89269,1.42997 25.67199,0.10303 z m 69,0 c 9.46903,-2.62902 12.66676,-11.53841 6.3288,-17.63304 -1.7875,-1.71888 -7.58204,-5.19794 -12.87675,-7.73124 -10.63376,-5.08782 -13.19643,-7.24027 -12.70361,-10.67003 0.42284,-2.94271 5.44304,-4.55065 10.08036,-3.22867 2.50402,0.71382 3.32263,1.55039 3.56642,3.64466 0.31261,2.68541 0.40602,2.71817 7.75,2.71817 H 370 v -3.09879 c 0,-3.86733 -4.20388,-8.0465 -9.77225,-9.71483 -4.96463,-1.48744 -19.43901,-1.53302 -24.68083,-0.0777 -4.66103,1.29405 -10.54692,6.786 -10.54692,9.84101 0,5.92432 4.00369,9.42953 19.3062,16.90244 9.55449,4.6659 12.40536,7.86491 9.55189,10.71838 -2.03222,2.03222 -7.75442,2.82301 -11.10809,1.5351 -2.16113,-0.82993 -2.75,-1.70379 -2.75,-4.08083 V 208 h -7.5 -7.5 v 3.59879 c 0,4.39695 4.11554,8.70208 9.74921,10.19833 5.14619,1.36678 20.89269,1.42997 25.67199,0.10303 z m 115.47574,-0.70453 c 5.79133,-2.23335 8.20632,-5.61012 8.42726,-11.78348 L 484.5,204.5 477.25,204.20619 470,203.91238 v 3.85268 c 0,2.11897 -0.56398,4.62396 -1.25328,5.56664 -1.60444,2.19421 -7.44775,3.13679 -10.99672,1.77388 L 455,214.0495 V 199 183.9505 l 2.75,-1.05608 c 3.10348,-1.19183 8.71805,-0.58079 10.83923,1.17963 0.77592,0.64396 1.41077,2.46574 1.41077,4.04839 V 191 h 7.5879 7.5879 l -0.65781,-4.25 c -0.81109,-5.24041 -4.73294,-9.19225 -10.72328,-10.80528 -6.3227,-1.70253 -23.36773,-0.80023 -28.08876,1.48691 C 439.78837,180.29845 439,182.8341 439,199 c 0,15.90725 0.83268,18.76066 6.20595,21.26649 4.85627,2.26473 6.36833,2.4955 16.79405,2.56313 6.66136,0.0432 10.81382,-0.44504 13.89694,-1.634 z m 70.52426,0.70453 c 9.46903,-2.62902 12.66676,-11.53841 6.3288,-17.63304 -1.7875,-1.71888 -7.58204,-5.19794 -12.87675,-7.73124 -10.63376,-5.08782 -13.19643,-7.24027 -12.70361,-10.67003 0.42284,-2.94271 5.44304,-4.55065 10.08036,-3.22867 2.50402,0.71382 3.32263,1.55039 3.56642,3.64466 0.31261,2.68541 0.40602,2.71817 7.75,2.71817 H 556 v -3.09879 c 0,-3.86733 -4.20388,-8.0465 -9.77225,-9.71483 -4.96463,-1.48744 -19.43901,-1.53302 -24.68083,-0.0777 -4.66103,1.29405 -10.54692,6.786 -10.54692,9.84101 0,5.92432 4.00369,9.42953 19.3062,16.90244 9.55449,4.6659 12.40536,7.86491 9.55189,10.71838 -2.03222,2.03222 -7.75442,2.82301 -11.10809,1.5351 -2.16113,-0.82993 -2.75,-1.70379 -2.75,-4.08083 V 208 h -7.5 -7.5 v 3.59879 c 0,4.39695 4.11554,8.70208 9.74921,10.19833 5.14619,1.36678 20.89269,1.42997 25.67199,0.10303 z M 161,218.5 V 215 H 148.5 136 v -20 -20 h -8 -8 v 23.5 23.5 h 20.5 20.5 z m 36.00999,-1.03567 1.26991,-4.53568 9.02218,0.28568 9.02217,0.28567 1.11694,4 1.11695,4 7.72093,0.29206 c 5.82045,0.22018 7.70455,-0.026 7.6544,-1 C 233.89687,220.08143 230.62104,209.6 226.65385,197.5 l -7.21309,-22 -11.49942,-0.27982 -11.49942,-0.27983 -7.58596,23.52983 L 181.27,222 h 7.23504 7.23504 z M 202.60057,199.25 c 1.34516,-4.2625 2.71657,-8.9875 3.04759,-10.5 0.33101,-1.5125 0.92599,-2.75 1.32217,-2.75 0.39618,0 1.95991,4.1304 3.47495,9.17868 1.51504,5.04827 2.98279,9.77327 3.26166,10.5 0.39059,1.01787 -1.10735,1.32132 -6.52253,1.32132 h -7.02957 z M 412,198.5 V 175 h -8 -8 v 23.5 23.5 h 8 8 z M 330.22288,164.06505 C 311.87474,159.55761 297.66843,148.52178 290.13913,132.92697 287.86261,128.2118 286,123.62586 286,122.73598 c 0,-2.99467 -1.8826,-2.81692 -6.7046,0.63303 -6.78957,4.85768 -16.26723,9.48045 -25.67812,12.52462 -9.15395,2.96106 -10.67574,4.99054 -5.67947,7.57421 L 251,145.05136 V 155.52568 166 l 43.25,-0.0736 43.25,-0.0736 z m 72.73316,-1.87071 C 395.63217,158.54884 384,150.30695 384,148.76317 384,148.34343 383.55,148 383,148 c -0.59259,0 -1,3.66667 -1,9 v 9 l 14.25,-0.0253 14.25,-0.0253 z M 471,160 c 0,-3.3 -0.22396,-6 -0.49769,-6 -0.27372,0 -2.6883,1.5738 -5.36572,3.49734 -2.67742,1.92353 -7.29096,4.59761 -10.25231,5.94239 l -5.38428,2.44506 10.75,0.0576 L 471,166 Z m 78,-3.5 V 147 H 533.5 518 v 8.83333 c 0,4.85834 0.3,9.13334 0.66667,9.5 0.36666,0.36667 7.34166,0.66667 15.5,0.66667 H 549 Z m -103.9315,0.88848 c 25.07945,-7.44106 39.67459,-31.75834 33.43626,-55.70888 -2.23153,-8.56743 -5.115,-13.4759 -11.89269,-20.24466 -23.87422,-23.842788 -67.31608,-17.331129 -81.7842,12.25893 -3.20749,6.55994 -3.32787,7.2402 -3.32787,18.80613 0,11.37366 0.16257,12.33927 3.11474,18.5 1.7131,3.575 4.55234,8.28302 6.30941,10.46227 6.02314,7.47033 16.81786,14.30614 26.05749,16.50103 6.25239,1.48527 22.24676,1.15793 28.08686,-0.57482 z m -20.88426,-13.42021 c -11.60111,-2.38279 -17.51333,-10.7297 -18.85673,-26.62202 -1.54491,-18.27626 5.14907,-31.10326 18.2138,-34.90128 20.82904,-6.055169 36.7842,15.01506 31.01301,40.95547 -1.16718,5.24626 -2.69461,8.9391 -4.88543,11.81146 -5.52585,7.24488 -15.7463,10.75656 -25.48465,8.75637 z M 91.5,145.5 c 0,-10.5989 -0.08088,-11.0115 -2.217979,-11.31535 -1.471255,-0.20919 -3.391138,0.8578 -5.702594,3.16926 -7.603929,7.60393 -24.744413,6.95427 -35.285546,-1.33738 -7.469434,-5.87546 -12.319869,-17.1297 -12.249988,-28.42308 0.04896,-7.91251 1.49079,-12.8715 5.369894,-18.46904 6.583984,-9.500697 21.954874,-11.87173 30.320268,-4.67705 2.386828,2.0528 2.776895,3.15069 2.845836,8.00993 0.0548,3.86269 0.608856,6.16003 1.764286,7.31546 1.579193,1.57919 2.221065,1.14772 10.277072,-6.90828 l 8.592677,-8.59268 -4.356963,-4.10308 C 82.595882,72.389017 69.786978,67.020658 59.5,67.02665 c -11.324749,0.0066 -25.083793,5.309284 -33.794341,13.02422 -5.37819,4.76347 -10.436304,13.1907 -12.376626,20.62048 -5.1217649,19.61198 5.577013,40.29513 26.040412,50.34198 C 49.618517,156.04528 54.54651,156.82415 75,156.64474 L 91.5,156.5 Z m 42.5,8.24055 c 0,-2.17645 -0.66453,-3.67446 -2,-4.50848 -2.74853,-1.71648 -2.51679,-4.70787 1.09807,-14.17421 l 3.09807,-8.11302 13.50151,0.27758 13.50152,0.27758 3.39313,9 c 3.9757,10.54521 4.03601,11.09067 1.4077,12.73207 -1.33547,0.83402 -2,2.33203 -2,4.50848 V 157 h 17 17 v -3.43261 c 0,-2.5393 -0.51373,-3.59567 -1.97402,-4.05914 C 194.64397,148.43484 192.60615,144.27279 182.59891,118 177.25682,103.975 170.83404,87.2125 168.32607,80.75 L 163.76612,69 H 152.45491 141.1437 l -2.16981,5.75 c -1.1934,3.1625 -7.53002,20.375 -14.08137,38.25 -9.91835,27.06166 -12.41196,32.93052 -14.90204,35.07283 -2.15329,1.85256 -2.99048,3.46227 -2.99048,5.75 V 157 H 120.5 134 Z M 141.25565,111.75 c 0.25829,-0.6875 1.97713,-5.8625 3.81963,-11.5 1.84251,-5.6375 3.59183,-10.24758 3.88737,-10.24462 0.52968,0.005 8.03919,20.78742 8.03798,22.24462 -3.5e-4,0.4125 -3.64877,0.75 -8.10762,0.75 -6.06939,0 -7.98895,-0.31417 -7.63736,-1.25 z M 241,153.65499 c 0,-2.07502 -0.75933,-4.0322 -2,-5.15499 -1.64814,-1.49155 -2,-3.07997 -2,-9.0287 v -7.21873 l 9.75,-3.20636 c 27.5783,-9.06932 37.37956,-18.21454 37.48448,-34.97551 0.0493,-7.87553 -2.34374,-13.36658 -7.77707,-17.845194 C 269.53807,70.522002 265.19895,69.768405 236.25,69.242489 L 210,68.765604 v 3.96221 c 0,2.692219 0.64105,4.542355 2,5.772186 1.9247,1.74183 2,3.07997 2,35.53998 v 33.73 l -2.28809,1.49921 c -1.94164,1.27222 -2.73507,4.5823 -1.79315,7.48081 0.0447,0.1375 7.05624,0.25 15.58124,0.25 H 241 Z M 237,101.125 V 83.25 l 3.125,-0.625 c 7.36067,-1.47213 14.87646,0.19451 18.49771,4.10191 1.83111,1.9758 2.37729,3.69174 2.37729,7.46877 0,5.8433 -1.52525,9.04399 -6.66758,13.9917 C 250.68429,111.69744 239.52469,119 237.80883,119 237.36397,119 237,110.95625 237,101.125 Z M 373,146 v -11 h -2.60608 c -1.58628,0 -3.37287,0.97482 -4.56561,2.49114 -4.69696,5.97121 -20.25593,6.97105 -30.50991,1.9606 -18.18817,-8.88736 -23.68004,-38.81737 -9.68972,-52.8077 4.50557,-4.50557 8.21393,-5.93816 15.37132,-5.93816 11.17519,0 16.86136,4.99314 15.66082,13.75207 -0.47293,3.45041 -0.22531,4.33293 1.52189,5.42408 1.91996,1.19904 2.71533,0.67828 9.95201,-6.51596 C 372.46062,89.06554 376,85.01211 376,84.35845 c 0,-1.95333 -8.82306,-9.113934 -15.08629,-12.243705 -3.21484,-1.606473 -8.99278,-3.483372 -12.83988,-4.170886 -19.62131,-3.506523 -41.88436,7.876232 -50.34593,25.741101 -3.00083,6.33562 -3.2279,7.55516 -3.2279,17.33607 0,9.93899 0.18762,10.90213 3.39138,17.4099 4.38446,8.9061 13.57523,18.19701 22.19872,22.44059 9.53959,4.69439 17.09626,5.9585 36.1599,6.04898 L 373,157 Z m 136,7.96862 c 0,-1.79658 -0.62233,-3.2702 -1.52778,-3.61765 -3.31987,-1.27396 -3.36502,-3.83235 -0.43088,-24.41542 1.6022,-11.23955 3.18828,-22.0022 3.52461,-23.91699 0.54567,-3.10659 1.29782,-1.46082 6.9857,15.2855 3.50581,10.32181 6.64244,19.20096 6.97029,19.73144 0.32785,0.53047 4.1925,0.9645 8.5881,0.9645 h 7.99201 l 1.31036,-3.25 c 0.72069,-1.7875 3.73523,-11.00551 6.69897,-20.48446 C 554.22419,97.91322 556,94.06463 556,99.33632 c 0,1.28498 1.61373,12.63646 3.58607,25.22551 l 3.58607,22.88918 -2.58607,2.06206 C 558.94707,150.81996 558,152.56847 558,154.28756 V 157 h 16 16 v -2.67126 c 0,-1.46919 -0.6713,-3.41304 -1.49178,-4.31966 -1.00577,-1.11136 -3.15556,-13.01567 -6.59867,-36.53963 l -5.10689,-34.891238 2.09867,-1.699399 C 580.21974,75.811228 581,74.021714 581,72.065528 V 68.951642 L 564.36904,69.225821 547.73809,69.5 l -6.02718,17.33892 -6.02718,17.33892 -5.529,-17.08892 L 524.62572,70 H 508.31286 492 v 3.024751 c 0,2.306268 0.59384,3.250527 2.5,3.975249 1.375,0.522774 2.50275,1.299136 2.5061,1.725249 0.022,2.787941 -10.32569,65.303691 -11.17123,67.491501 -0.57748,1.49421 -1.90157,2.98703 -2.94242,3.31738 C 481.52005,149.96972 481,151.07806 481,153.56739 V 157 h 14 14 z"
       id="path1" />
  </g>
</svg>
