<?xml version="1.0" encoding="UTF-8" standalone="no"?>
<!-- Created with Inkscape (http://www.inkscape.org/) -->

<svg
   version="1.1"
   id="svg1"
   width="597.89398"
   height="174.92725"
   viewBox="0 0 597.89398 174.92725"
   sodipodi:docname="logo.png"
   xmlns:inkscape="http://www.inkscape.org/namespaces/inkscape"
   xmlns:sodipodi="http://sodipodi.sourceforge.net/DTD/sodipodi-0.dtd"
   xmlns="http://www.w3.org/2000/svg"
   xmlns:svg="http://www.w3.org/2000/svg">
  <defs
     id="defs1" />
  <sodipodi:namedview
     id="namedview1"
     pagecolor="#306230"
     bordercolor="#000000"
     borderopacity="0.25"
     inkscape:showpageshadow="2"
     inkscape:pageopacity="0.0"
     inkscape:pagecheckerboard="0"
     inkscape:deskcolor="#d1d1d1" />
  <g
     inkscape:groupmode="layer"
     inkscape:label="Image"
     id="g1"
     transform="translate(-1,-62.879723)">
    <path
       style="fill:#306230"
       d="M 28.204958,236.10959 C 9.8574449,229.75903 1.0246317,208.7335 9.4606605,191.49088 12.432254,185.41716 20.341919,177.72903 25.560488,175.84197 L 29,174.59822 V 133.29911 92 H 15 1 V 78.5 65 l 46.25,-9.8e-4 46.25,-9.8e-4 V 78.24902 91.5 l -15,0.5 -15,0.5 -0.288305,40.25 -0.288306,40.25 28.788306,-0.009 28.788305,-0.009 -5.11781,-2.93534 c -5.90524,-3.38699 -10.70001,-7.90511 -13.16139,-12.40201 -1.50826,-2.75558 -1.75815,-7.15405 -2.02319,-35.61245 -0.263101,-28.25084 -0.088,-33.02986 1.34779,-36.78949 3.15828,-8.269822 10.50811,-14.554335 21.25598,-18.175029 5.60638,-1.888653 8.48839,-2.067 33.41707,-2.067939 L 183.5,64.997945 V 77.748972 90.5 L 160.29776,91 c -17.14833,0.36954 -23.54085,0.83909 -24.5,1.79958 C 134.99251,93.60597 134.5,96.642 134.5,100.79959 V 107.5 l 24.25,0.26778 24.25,0.26778 V 121.01778 134 H 158.5 134 v 5.92742 c 0,5.21242 0.31783,6.17743 2.63486,8 2.48315,1.95324 3.89382,2.07258 24.5,2.07258 H 183 v 11.5 11.5 l 26.25,-0.0344 26.25,-0.0344 -7.09995,-2.80203 C 218.02029,166.03272 210.2241,160.94463 203.33602,153.77141 192.83894,142.83979 188.30764,130.93178 189.27491,116.81958 191.31297,87.08502 224.30107,65.022475 266.75,65.004021 L 276,65 v 12.8524 12.8524 l -9.25,0.66085 c -26.39764,1.88591 -42.2804,13.261 -42.23291,30.2468 0.0149,5.34458 0.47429,6.80104 3.65655,11.59386 6.56721,9.89095 17.49819,15.21754 35.05873,17.08389 L 274,151.4346 V 162.2173 173 h 6 6 v -41.32186 c 0,-46.83159 0.0901,-47.50047 7.4083,-55.030393 13.18958,-13.571082 44.98248,-18.092105 64.00987,-9.102348 l 4.91817,2.323659 3.93785,-2.00894 c 9.15442,-4.670234 26.93971,-6.151035 40.22581,-3.349196 9.93625,2.095404 18.51919,6.604325 23.84279,12.52545 C 437.95938,85.50785 438,85.80035 438,132.17814 V 173 l 25.75,-4.1e-4 25.75,-4.1e-4 -8.09616,-4.03709 c -14.98683,-7.47308 -26.66175,-19.21776 -31.44996,-31.63786 -3.09171,-8.01958 -3.76107,-21.01006 -1.49028,-28.92251 5.66066,-19.72424 24.20106,-35.493348 50.0364,-42.557297 6.72303,-1.838223 10.63376,-2.187376 24.5,-2.187376 19.34963,0 26.82311,1.576826 41.5,8.756058 15.5941,7.627885 26.66997,18.622165 31.5765,31.343875 3.31488,8.59487 3.7549,21.14716 1.05312,30.04218 -4.68411,15.4214 -18.61976,29.65634 -35.92554,36.6971 l -5.46623,2.2239 7.55383,0.48478 c 12.96882,0.83229 23.75549,8.12164 29.03248,19.61939 3.0093,6.55683 3.0093,18.79451 0,25.35134 -3.03326,6.609 -9.59028,13.31644 -16.18265,16.55386 L 570.5,237.5 302,237.72117 c -258.058373,0.21257 -268.705918,0.1499 -273.795042,-1.61158 z m 52.381423,-7.23566 c 2.459611,-0.61934 5.80888,-2.37488 7.44282,-3.90121 C 90.572318,222.5971 91,221.46355 91,217.09879 V 212 h -7 -7 v 3.87756 c 0,2.13265 -0.634847,4.40443 -1.41077,5.04839 -2.121184,1.76042 -7.73575,2.37146 -10.83923,1.17963 L 62,221.0495 V 206 190.9505 l 2.75,-1.05608 c 3.10348,-1.19183 8.718046,-0.58079 10.83923,1.17963 C 76.365153,191.71801 77,193.53979 77,195.12244 V 198 h 7 7 v -4.41111 c 0,-3.6698 -0.502217,-4.83369 -2.988414,-6.92569 -4.104078,-3.45335 -11.980756,-5.00986 -22.626054,-4.47112 -10.115321,0.51192 -16.219521,2.95339 -18.188471,7.27476 -1.790729,3.93023 -1.60923,29.83543 0.234008,33.39986 1.236711,2.39154 4.89624,4.63751 10.568931,6.48649 2.925875,0.95367 18.181236,0.62997 22.586381,-0.47926 z M 291.76356,228.47758 C 297.76584,226.69509 301,223.18106 301,218.44187 c 0,-5.12418 -3.97762,-8.84705 -15.45767,-14.46769 -11.31812,-5.54136 -13.86823,-7.65967 -13.37269,-11.10834 0.42284,-2.94271 5.44304,-4.55065 10.08036,-3.22867 2.50402,0.71382 3.32263,1.55039 3.56642,3.64466 0.31261,2.68541 0.40602,2.71817 7.75,2.71817 H 301 v -2.92308 c 0,-3.99462 -4.72537,-8.51853 -10.38696,-9.94414 -5.65004,-1.42269 -18.89823,-1.45897 -23.91634,-0.0655 -4.92594,1.36789 -9.55939,5.63689 -10.23799,9.4327 -0.97526,5.45519 2.1125,8.53719 15.51552,15.48664 12.91761,6.69776 15.87825,9.58945 12.88386,12.58384 -2.03222,2.03222 -7.75442,2.82301 -11.10809,1.5351 -2.16113,-0.82993 -2.75,-1.70379 -2.75,-4.08083 V 215 h -7.5 c -7.37229,0 -7.5,0.0434 -7.5,2.54966 0,5.58094 4.33727,10.0071 11.5,11.73568 4.65509,1.12341 19.41525,0.63203 24.26356,-0.80776 z m 69,0 C 366.76584,226.69509 370,223.18106 370,218.44187 c 0,-5.12418 -3.97762,-8.84705 -15.45767,-14.46769 -11.31812,-5.54136 -13.86823,-7.65967 -13.37269,-11.10834 0.42284,-2.94271 5.44304,-4.55065 10.08036,-3.22867 2.50402,0.71382 3.32263,1.55039 3.56642,3.64466 0.31261,2.68541 0.40602,2.71817 7.75,2.71817 H 370 v -2.92308 c 0,-3.99462 -4.72537,-8.51853 -10.38696,-9.94414 -5.65004,-1.42269 -18.89823,-1.45897 -23.91634,-0.0655 -4.92594,1.36789 -9.55939,5.63689 -10.23799,9.4327 -0.97526,5.45519 2.1125,8.53719 15.51552,15.48664 12.91761,6.69776 15.87825,9.58945 12.88386,12.58384 -2.03222,2.03222 -7.75442,2.82301 -11.10809,1.5351 -2.16113,-0.82993 -2.75,-1.70379 -2.75,-4.08083 V 215 h -7.5 c -7.37229,0 -7.5,0.0434 -7.5,2.54966 0,5.58094 4.33727,10.0071 11.5,11.73568 4.65509,1.12341 19.41525,0.63203 24.26356,-0.80776 z m 112.82282,0.39635 c 2.45961,-0.61934 5.80888,-2.37488 7.44282,-3.90121 C 483.57232,222.5971 484,221.46355 484,217.09879 V 212 h -7 -7 v 3.87756 c 0,2.13265 -0.63485,4.40443 -1.41077,5.04839 -2.12118,1.76042 -7.73575,2.37146 -10.83923,1.17963 L 455,221.0495 V 206 190.9505 l 2.75,-1.05608 c 3.10348,-1.19183 8.71805,-0.58079 10.83923,1.17963 0.77592,0.64396 1.41077,2.46574 1.41077,4.04839 V 198 h 7 7 v -4.41111 c 0,-3.6698 -0.50222,-4.83369 -2.98841,-6.92569 -4.10408,-3.45335 -11.98076,-5.00986 -22.62606,-4.47112 -10.11532,0.51192 -16.21952,2.95339 -18.18847,7.27476 -1.79073,3.93023 -1.60923,29.83543 0.23401,33.39986 1.23671,2.39154 4.89624,4.63751 10.56893,6.48649 2.92587,0.95367 18.18124,0.62997 22.58638,-0.47926 z m 73.17718,-0.39635 C 552.76584,226.69509 556,223.18106 556,218.44187 c 0,-5.12418 -3.97762,-8.84705 -15.45767,-14.46769 -11.31812,-5.54136 -13.86823,-7.65967 -13.37269,-11.10834 0.42284,-2.94271 5.44304,-4.55065 10.08036,-3.22867 2.50402,0.71382 3.32263,1.55039 3.56642,3.64466 0.31261,2.68541 0.40602,2.71817 7.75,2.71817 H 556 v -2.92308 c 0,-3.99462 -4.72537,-8.51853 -10.38696,-9.94414 -5.65004,-1.42269 -18.89823,-1.45897 -23.91634,-0.0655 -4.92594,1.36789 -9.55939,5.63689 -10.23799,9.4327 -0.97526,5.45519 2.1125,8.53719 15.51552,15.48664 12.91761,6.69776 15.87825,9.58945 12.88386,12.58384 -2.03222,2.03222 -7.75442,2.82301 -11.10809,1.5351 -2.16113,-0.82993 -2.75,-1.70379 -2.75,-4.08083 V 215 h -7.5 c -7.37229,0 -7.5,0.0434 -7.5,2.54966 0,5.58094 4.33727,10.0071 11.5,11.73568 4.65509,1.12341 19.41525,0.63203 24.26356,-0.80776 z M 161,225.5 V 222 H 148.5 136 v -20 -20 h -8 -8 v 23.5 23.5 h 20.5 20.5 z m 35.90505,-1.03721 1.14249,-4.53721 9.13835,0.28721 9.13836,0.28721 1.11694,4 1.11695,4 7.72093,0.29206 c 4.24651,0.16064 7.71413,-0.0644 7.70582,-0.5 C 233.97658,227.85643 230.69602,217.375 226.69476,205 L 219.41975,182.5 207.95988,182.22993 196.5,181.95986 188.88438,205.47993 181.26877,229 h 7.2469 7.2469 z M 201.55898,209.25 c 0.80483,-2.6125 2.18841,-7.225 3.07464,-10.25 0.88622,-3.025 1.84971,-5.90538 2.14109,-6.40085 0.38348,-0.65206 7.18768,19.27836 7.22086,21.15085 0.002,0.1375 -3.12405,0.25 -6.94774,0.25 h -6.95217 z M 412,205.5 V 182 h -8 -8 v 23.5 23.5 h 8 8 z M 343.92687,134.57828 C 343.95143,88.54604 344.75602,91.5 332.19334,91.5 319.04205,91.5 320,88.14886 320,134.15499 V 173 h 11.95318 11.95319 z M 404,135.5651 c 0,-21.41618 -0.40953,-38.51203 -0.95704,-39.9521 -0.52637,-1.38447 -2.30402,-3.21376 -3.95034,-4.0651 -5.61383,-2.90303 -17.02255,-1.41586 -19.11373,2.49154 C 379.38891,95.14183 379,111.19053 379,134.43426 V 173 h 12.5 12.5 z m 128,14.38324 c 18.89749,-3.01358 34.26341,-17.63297 32.67044,-31.08317 C 562.75109,102.6593 545.04771,90.68876 523,90.68876 c -13.44374,0 -24.28124,3.84222 -32.6837,11.58733 -6.30596,5.81264 -8.72593,10.86668 -8.72593,18.22391 0,7.36005 2.42011,12.4114 8.73513,18.23239 5.81329,5.3585 12.65948,8.77826 21.2688,10.62403 8.47903,1.81784 12.06579,1.92188 20.4057,0.59192 z"
       id="path1" />
  </g>
</svg>
