<?xml version="1.0" encoding="UTF-8" standalone="no"?>
<!-- Created with Inkscape (http://www.inkscape.org/) -->

<svg
   version="1.1"
   id="svg1"
   width="582.84161"
   height="163.81094"
   viewBox="0 0 582.84161 163.81094"
   sodipodi:docname="logo.png"
   xmlns:inkscape="http://www.inkscape.org/namespaces/inkscape"
   xmlns:sodipodi="http://sodipodi.sourceforge.net/DTD/sodipodi-0.dtd"
   xmlns="http://www.w3.org/2000/svg"
   xmlns:svg="http://www.w3.org/2000/svg">
  <defs
     id="defs1" />
  <sodipodi:namedview
     id="namedview1"
     pagecolor="#306230"
     bordercolor="#000000"
     borderopacity="0.25"
     inkscape:showpageshadow="2"
     inkscape:pageopacity="0.0"
     inkscape:pagecheckerboard="0"
     inkscape:deskcolor="#d1d1d1" />
  <g
     inkscape:groupmode="layer"
     inkscape:label="Image"
     id="g1"
     transform="translate(-5.1583848,-73.165916)">
    <path
       style="fill:#306230"
       d="M 57.775467,233.04233 C 46.806659,227.48843 41.56364,223.69827 32.912081,215.06867 15.027258,197.22922 6.2821853,177.31243 5.2682967,152.1103 4.5330401,133.8341 7.4677231,119.00878 14.643304,104.75 c 3.518207,-6.991119 3.697926,-5.779198 0.265553,1.79074 -7.5514745,16.65442 -9.6124124,40.51681 -5.0815467,58.83625 6.9032077,27.91143 27.2972617,52.37581 52.6406657,63.1469 6.249342,2.65601 6.278551,2.68738 5.189133,5.57358 -0.602571,1.59639 -1.334427,2.89207 -1.626347,2.8793 -0.291919,-0.0128 -4.006802,-1.78328 -8.255295,-3.93444 z M 133,235.05902 c 0,-1.06754 -0.46224,-2.22667 -1.02721,-2.57583 -0.56496,-0.34917 3.82254,-3.06748 9.75,-6.0407 18.76722,-9.41364 32.6546,-23.34715 41.80364,-41.94249 6.95229,-14.13047 8.75687,-22.26446 8.87428,-40 0.10352,-15.63832 -1.30447,-24.33688 -5.55728,-34.33291 -2.00859,-4.72111 -2.37379,-6.53228 -0.84022,-4.16709 1.79918,2.77485 5.92992,14.44257 7.61168,21.5 2.52002,10.57514 2.28622,30.52939 -0.4914,41.93994 -2.55808,10.50869 -9.29733,25.2563 -15.49665,33.91158 -8.76074,12.23143 -23.84372,24.6983 -37.21768,30.76234 C 132.85401,237.53953 133,237.5209 133,235.05902 Z m 7.75,-21.13912 C 137.49954,212.02668 139.48779,206 143.36283,206 c 1.04474,0 3.63717,3.20742 3.63717,4.5 0,1.42059 -2.65166,4.52201 -3.82143,4.46959 -0.37321,-0.0167 -1.46607,-0.48908 -2.42857,-1.04969 z m 3.25,-0.86088 c 0,-0.51754 -0.45,-1.2191 -1,-1.55902 -0.55,-0.33992 -1,0.0835 -1,0.94098 0,0.85746 0.45,1.55902 1,1.55902 0.55,0 1,-0.42344 1,-0.94098 z m -3.30701,-3.78999 c -0.25354,-0.97297 -0.47766,-0.41903 -0.49804,1.23097 -0.0204,1.65 0.18706,2.44606 0.46099,1.76903 0.27392,-0.67703 0.29059,-2.02703 0.0371,-3 z M 146,210.55902 c 0,-2.22691 -1.56602,-2.67016 -1.73027,-0.48974 -0.08,1.0619 0.2766,1.93072 0.79242,1.93072 0.51582,0 0.93785,-0.64844 0.93785,-1.44098 z m -90,1.47659 C 56,210.3274 56.643343,210 60,210 h 4 v -37.61663 -37.61663 l 2.25,0.69338 c 4.164476,1.28336 22.180888,1.79514 26,0.73855 L 96,135.16121 v 7.4194 C 96,149.82796 96.05797,150 98.5,150 c 2.46479,0 2.5,-0.11628 2.5,-8.25585 v -8.25585 l 5.25,-2.40178 C 113.97716,127.55148 123.84148,117.23531 128.32532,108 l 3.64133,-7.5 0.0167,24.75 L 132,150 h 6.5 c 6.26667,0 6.5,0.0897 6.5,2.5 0,2.41101 -0.23206,2.5 -6.51913,2.5 h -6.51913 l 0.26913,22.16729 c 0.2835,23.35052 0.81178,25.74964 4.44803,20.20002 0.99351,-1.51628 2.71862,-5.57229 3.83358,-9.01336 1.57624,-4.86467 2.34068,-6.06274 3.43635,-5.38557 3.53265,2.18329 -4.73302,22.31279 -11.29031,27.49545 L 128.81703,213.5 92.408517,213.78561 C 56.360838,214.06838 56,214.05104 56,212.03561 Z m 47.08156,-5.40364 C 101.12336,203.46354 101,201.83375 101,179.13197 V 155 H 98.5 96 v 27.5 27.5 h 4.58156 4.58156 z M 300,194 v -12 h -4.58333 c -3.22223,0 -4.4596,-0.37121 -4.16667,-1.25 0.29749,-0.89247 3.37222,-1.25 10.75,-1.25 7.37778,0 10.45251,0.35753 10.75,1.25 0.29293,0.87879 -0.94444,1.25 -4.16667,1.25 H 304 v 12 c 0,11.33333 -0.11111,12 -2,12 -1.88889,0 -2,-0.66667 -2,-12 z m 17,-1.50131 v -13.57374 l 9.16911,0.28752 c 6.23207,0.19543 9.30179,0.68793 9.58333,1.53753 0.30854,0.93107 -1.64819,1.25 -7.66911,1.25 H 320 v 4.5 4.5 h 7.5 c 6,0 7.5,0.3 7.5,1.5 0,1.2 -1.5,1.5 -7.5,1.5 H 320 v 4.45956 4.45956 l 8.00664,0.29044 c 11.21771,0.40692 10.15789,2.22557 -1.50156,2.57665 L 317,206.07242 Z m 28.95411,12.21951 c -5.01592,-3.95266 -6.65157,-13.535 -3.38769,-19.84664 3.80592,-7.35985 16.93542,-7.64985 20.21746,-0.44656 1.58711,3.48333 -0.74297,3.52501 -4.19297,0.075 -3.22512,-3.22511 -7.59739,-3.25866 -11.28515,-0.0866 -2.49265,2.14409 -2.80576,3.08092 -2.80576,8.39501 0,4.3854 0.48663,6.51931 1.8236,7.99665 3.88862,4.29687 11.30357,3.50337 13.56103,-1.45122 0.62924,-1.38103 1.67199,-2.33499 2.31722,-2.11991 2.28995,0.76332 1.92185,2.7962 -1.0432,5.76124 -2.60001,2.60002 -3.72242,3.00053 -8.33173,2.97301 -2.9298,-0.0175 -6.02257,-0.58 -6.87281,-1.25 z M 369,192.5 c 0,-11.33333 0.24074,-13.5 1.5,-13.5 1.15152,0 1.5,1.27778 1.5,5.5 v 5.5 h 7.5 7.5 v -5.5 c 0,-4.22222 0.34848,-5.5 1.5,-5.5 1.25926,0 1.5,2.16667 1.5,13.5 0,11.13619 -0.25429,13.5 -1.45228,13.5 -1.08305,0 -1.52798,-1.58905 -1.75,-6.25 L 386.5,193.5 h -7 -7 l -0.29772,6.25 c -0.22202,4.66095 -0.66695,6.25 -1.75,6.25 C 369.25429,206 369,203.63619 369,192.5 Z m 27,-0.0733 c 0,-16.97138 0.65665,-17.13172 10.5,-2.56388 l 7,10.35977 0.28383,-10.61128 c 0.2281,-8.52771 0.57172,-10.61129 1.75,-10.61129 1.21582,0 1.46617,2.30512 1.46617,13.5 0,17.25099 -0.84033,17.5451 -10,3.5 -3.575,-5.48177 -6.8375,-9.97432 -7.25,-9.98343 C 399.3375,186.00746 399,190.5 399,196 c 0,8.22222 -0.26667,10 -1.5,10 -1.25966,0 -1.5,-2.17481 -1.5,-13.57332 z m 30.47887,10.25219 c -8.51871,-8.51871 -3.12473,-23.68711 8.41901,-23.67513 9.7587,0.0101 15.83239,10.52604 11.73855,20.32398 -1.91749,4.58921 -5.5706,6.67228 -11.70125,6.67228 -4.48276,0 -5.55712,-0.42194 -8.45631,-3.32113 z M 441.75,200.44531 c 3.40403,-3.86824 3.19985,-12.22273 -0.38636,-15.80895 -3.69774,-3.69774 -8.56836,-3.58548 -12.44056,0.28672 -2.42791,2.4279 -2.92308,3.74542 -2.92308,7.77749 0,7.62539 4.05954,11.79124 10.5,10.77496 1.65,-0.26037 4.0125,-1.62397 5.25,-3.03022 z M 453,192.5 c 0,-11.33333 0.24074,-13.5 1.5,-13.5 1.25,0 1.5,2 1.5,12 v 12 h 6.5 c 5.11111,0 6.5,0.32051 6.5,1.5 0,1.20833 -1.55556,1.5 -8,1.5 h -8 z m 25.21679,11.9393 c -5.10618,-3.57652 -6.93193,-13.72722 -3.51073,-19.51885 4.12025,-6.97503 14.32458,-7.73709 20.04334,-1.49684 2.77263,3.02547 3.2506,4.29168 3.2506,8.61136 C 498,201.36154 493.84814,206 485.5,206 c -2.96224,0 -5.97746,-0.64613 -7.28321,-1.5607 z m 11.74958,-1.92191 c 3.48611,-1.80274 5.50465,-7.19311 4.56642,-12.1943 -2.12626,-11.33392 -16.69254,-11.00653 -18.22376,0.4096 -0.70413,5.24968 1.09542,9.87437 4.57902,11.76767 3.38135,1.83773 5.54962,1.84179 9.07832,0.017 z m 16.5125,0.16148 c -4.32451,-4.32451 -5.29378,-9.25653 -2.99968,-15.26354 0.94487,-2.47412 2.751,-5.17527 4.01361,-6.00257 2.8916,-1.89465 8.61204,-2.85425 11.97835,-2.00936 3.07298,0.77127 6.52885,3.99834 6.52885,6.0966 0,2.19431 -1.57111,1.83798 -4.40909,-1 -3.5934,-3.59339 -8.82612,-3.41863 -12.66783,0.42308 -2.42791,2.4279 -2.92308,3.74542 -2.92308,7.77749 0,5.9927 1.91189,8.89314 6.83426,10.36792 C 518.10904,204.64885 524,202.26547 524,198.55103 524,196.2415 523.62134,196 520,196 c -2.88889,0 -4,-0.41667 -4,-1.5 0,-1.15152 1.27778,-1.5 5.5,-1.5 h 5.5 v 4.97432 c 0,4.497 -0.2831,5.12072 -2.95034,6.5 -1.62322,0.8394 -5.49167,1.52568 -8.6,1.52568 -5.06546,0 -5.99308,-0.34342 -8.97079,-3.32113 z m 26.74155,-9.84985 C 533.45235,181.77192 533.75567,179.5 535,179.5 c 1.25633,0 1.5,2.10959 1.5,12.9863 0,11.65508 -0.18243,13.02144 -1.77958,13.32902 -1.64527,0.31686 -1.75847,-0.66316 -1.5,-12.9863 z M 543.22097,192.75 543.5,179.5 h 9.41667 c 6.64444,0 9.53933,0.36799 9.83333,1.25 0.31042,0.93127 -1.64444,1.25 -7.66667,1.25 H 547 v 4.5 4.5 h 7.58333 c 5.62044,0 7.47635,0.32355 7.17001,1.25 -0.26663,0.80637 -2.95799,1.35427 -7.58333,1.54381 L 547,194.08762 V 198.54381 203 h 8 c 6.44444,0 8,0.29167 8,1.5 0,1.23362 -1.781,1.5 -10.02903,1.5 h -10.02902 z m 28.00799,12.58071 c -0.69907,-0.28127 -1.97901,-1.88046 -2.8443,-3.55376 -1.2668,-2.44972 -1.32088,-3.19834 -0.27761,-3.84311 0.86231,-0.53294 1.8627,0.13166 2.99103,1.98704 2.78452,4.57877 11.88768,4.88577 13.58669,0.45821 1.06085,-2.76454 -1.08206,-4.72955 -7.10884,-6.51866 -9.31556,-2.76542 -11.88464,-6.78772 -7.66428,-11.99965 1.58841,-1.9616 2.83881,-2.36078 7.39501,-2.36078 3.98888,0 6.05708,0.5192 7.58835,1.90499 2.43467,2.20334 2.80141,5.59501 0.60499,5.59501 -0.825,0 -1.5,-0.41786 -1.5,-0.92857 0,-3.85107 -8.40654,-5.48966 -11.36912,-2.21605 -2.42907,2.6841 -1.04069,4.97268 3.72194,6.13518 2.28095,0.55675 5.72218,1.79913 7.64718,2.76086 2.91546,1.45655 3.55094,2.35981 3.80499,5.4084 0.45532,5.46381 -2.55696,7.86325 -9.74355,7.76123 -3.05879,-0.0434 -6.13341,-0.30907 -6.83248,-0.59034 z M 300.14924,163.30353 c -5.28656,-2.60471 -8.48357,-8.30097 -8.47741,-15.10458 0.006,-6.65761 1.80105,-10.65094 6.73489,-14.98291 8.36969,-7.34868 23.59328,-4.24731 23.59328,4.80647 0,3.198 -1.68795,4.97749 -4.72144,4.97749 -3.23425,0 -5.0846,-4.12539 -3.32502,-7.41319 1.71649,-3.20729 0.64639,-4.58681 -3.55801,-4.58681 -5.47802,0 -8.05517,3.30823 -8.92826,11.46102 -0.91294,8.52488 -0.0182,16.27278 2.15685,18.67613 2.37448,2.62377 9.29423,2.50152 12.761,-0.22545 1.46016,-1.14856 3.41071,-3.51106 4.33456,-5.25 1.33354,-2.5101 1.75867,-2.79091 2.06281,-1.36253 0.52129,2.4482 -2.22062,6.38746 -6.08682,8.74483 -3.98008,2.42681 -11.8957,2.55096 -16.54643,0.25953 z m 76.77244,-0.57733 c -1.85575,-1.25058 -4.43623,-3.83808 -5.7344,-5.75 -2.02586,-2.98363 -2.30844,-4.42466 -1.99429,-10.16983 0.30909,-5.65261 0.83906,-7.28562 3.40762,-10.5 4.35435,-5.4492 8.80339,-7.54216 14.68473,-6.90812 C 395.00263,130.23022 401,135.93785 401,142.45034 V 145 h -11 -11 v 7 c 0,8.73939 1.73221,11 8.4288,11 3.65258,0 5.01089,-0.57102 7.75,-3.25806 1.82666,-1.79193 3.85724,-4.15443 4.51239,-5.25 0.86041,-1.43879 1.20649,-1.5754 1.24626,-0.49194 0.10466,2.85055 -3.99334,8.12541 -7.42723,9.56018 -5.30899,2.21823 -12.60355,1.85151 -16.58854,-0.83398 z M 392,138.5 c 0,-6.3089 -5.73796,-9.47312 -10.77749,-5.9433 -1.65775,1.16114 -2.22251,2.55873 -2.22251,5.5 V 142 h 6.5 6.5 z m 26.5,25.54051 c -2.8047,-1.16775 -7.17315,-6.01219 -8.43638,-9.35561 -1.57925,-4.17982 -1.28863,-12.40848 0.57711,-16.34022 2.66373,-5.6134 7.76048,-8.84468 13.95086,-8.84468 4.06532,0 5.78676,0.50682 7.6423,2.25 1.31726,1.2375 2.70351,2.25 3.08056,2.25 C 435.6915,134 436,127.925 436,120.5 V 107 h -2.5 c -1.375,0 -2.5,-0.41307 -2.5,-0.91794 0,-0.89445 13.76712,-1.9943 14.58758,-1.16539 0.22683,0.22916 0.41242,13.16666 0.41242,28.75 V 162 h 2.5 c 1.375,0 2.5,0.45 2.5,1 0,0.55 -1.96875,1 -4.375,1 -2.40625,0 -5.78125,0.28125 -7.5,0.625 -2.85771,0.57154 -3.125,0.40305 -3.125,-1.96986 v -2.59487 l -3.63955,2.46987 c -3.75689,2.54949 -9.78659,3.20655 -13.86045,1.51037 z m 12.33531,-2.34583 C 434.67053,159.84884 436,155.92454 436,146.44966 c 0,-8.50353 -0.0574,-8.7071 -3.4,-12.04966 -4.20573,-4.20573 -9.55585,-4.72882 -12.0433,-1.17749 -1.85686,2.65104 -2.24008,23.63206 -0.49133,26.89964 1.93714,3.61957 5.45076,4.1326 10.76994,1.57253 z M 487.25,164.2596 C 481.02747,163.90613 478.28588,162 484,162 h 3 V 134.5 107 h -3 c -1.65,0 -3,-0.45 -3,-1 0,-0.55402 2.6394,-1 5.91821,-1 3.25502,0 6.63002,-0.27314 7.5,-0.60699 1.39937,-0.53699 1.58179,1.13525 1.58179,14.5 0,8.30885 0.20502,15.10699 0.45559,15.10699 0.25058,0 2.11337,-1.125 4.13955,-2.5 13.94344,-9.46227 29.73934,10.91028 20.38533,26.29171 -4.41962,7.26749 -14.92919,9.64665 -20.7981,4.70829 -1.6341,-1.375 -3.24362,-2.5 -3.57673,-2.5 -0.3331,0 -0.60564,1.125 -0.60564,2.5 0,1.4361 -0.53195,2.418 -1.25,2.30732 -0.6875,-0.10597 -4.0625,-0.35245 -7.5,-0.54772 z m 24.90034,-2.94075 c 1.45962,-1.75874 2.3675,-16.38 1.41251,-22.74833 -0.83021,-5.53621 -2.69713,-7.58061 -6.88428,-7.53872 -3.61636,0.0362 -6.20717,1.70716 -8.84174,5.70258 -2.84455,4.31385 -2.58158,16.86221 0.4478,21.36774 3.51559,5.22867 10.7945,6.91731 13.86571,3.21673 z m 51.77134,1.40735 c -7.40124,-4.98769 -10.13831,-14.60984 -6.54484,-23.00832 1.66505,-3.89148 6.10736,-8.20685 9.93826,-9.65426 8.94922,-3.38125 20.66939,3.52486 20.68116,12.18638 L 588,145 h -11 -11 v 7 c 0,5.66667 0.38095,7.38095 2,9 4.26439,4.26439 14.33836,1.37519 17.12052,-4.91014 1.36266,-3.07847 2.87948,-4.10983 2.87948,-1.95789 0,2.47554 -4.21927,7.7442 -7.41689,9.26157 -5.03451,2.38903 -12.5742,2.08705 -16.66143,-0.66734 z M 578.698,137.78509 C 578.07946,133.17355 575.9779,131 572.13761,131 568.34442,131 566,133.73304 566,138.15499 V 142 h 6.63167 6.63167 z M 215,163 c 0,-0.55 1.575,-1 3.5,-1 h 3.5 v -15 -15 h -3 c -1.65,0 -3,-0.45 -3,-1 0,-0.55 2.3625,-1.00614 5.25,-1.01365 2.8875,-0.008 6.2625,-0.285 7.5,-0.61664 L 231,128.76674 V 145.38337 162 h 2.94098 c 1.61754,0 3.2191,0.45 3.55902,1 0.39841,0.64464 -3.48962,1 -10.94098,1 C 219.51967,164 215,163.60899 215,163 Z m 26,0 c 0,-0.55 1.35,-1 3,-1 h 3 v -15 -15 h -3 c -1.65,0 -3,-0.45 -3,-1 0,-0.55 1.96875,-1 4.375,-1 2.40625,0 5.78125,-0.28125 7.5,-0.625 3.11045,-0.62209 3.125,-0.60507 3.125,3.6534 v 4.2784 l 3.50505,-3.60903 c 5.56575,-5.73087 14.38061,-6.20118 18.48276,-0.98613 1.78828,2.27343 2.01219,4.04529 2.01219,15.92322 V 162 h 2.44098 c 1.34254,0 2.7191,0.45 3.05902,1 0.3972,0.64268 -3.17595,1 -10,1 -6.82405,0 -10.3972,-0.35732 -10,-1 0.33992,-0.55 1.71648,-1 3.05902,-1 H 271 v -13.06574 c 0,-7.18616 -0.46583,-13.93616 -1.03518,-15 -2.25522,-4.21392 -9.88773,-0.75635 -12.586,5.70152 -0.84453,2.02125 -1.37882,6.99366 -1.37882,12.8321 0,9.43947 0.0237,9.53212 2.44098,9.53212 1.34254,0 2.7191,0.45 3.05902,1 0.39712,0.64255 -3.15628,1 -9.94098,1 C 245.18634,164 241,163.60353 241,163 Z m 89,0 c 0,-0.55 1.35,-1 3,-1 h 3 v -15 -15 h -3 c -5.42935,0 -3.12607,-1.99618 2.5,-2.16667 3.025,-0.0917 6.2875,-0.20416 7.25,-0.25 1.31975,-0.0628 1.8264,0.8403 2.06077,3.67344 l 0.31077,3.75677 3.24285,-3.43843 c 3.54855,-3.76255 7.24988,-5.13972 11.16962,-4.15593 5.86792,1.47275 5.31271,9.58082 -0.65606,9.58082 -2.47245,0 -3.26661,-0.56942 -4.18405,-3 -1.35311,-3.58478 -2.64859,-3.76489 -5.39462,-0.75 C 345.62868,139.27998 345,141.7197 345,151.93426 V 162 h 3.44098 c 1.89254,0 3.7191,0.45 4.05902,1 0.39841,0.64464 -3.48962,1 -10.94098,1 C 334.51967,164 330,163.60899 330,163 Z m 125,0 c 0,-0.55 1.575,-1 3.5,-1 h 3.5 v -15 -15 h -3 c -1.65,0 -3,-0.45 -3,-1 0,-0.55 2.3625,-1.00614 5.25,-1.01365 2.8875,-0.008 6.2625,-0.285 7.5,-0.61664 L 471,128.76674 V 145.38337 162 h 2.94098 c 1.61754,0 3.2191,0.45 3.55902,1 0.39841,0.64464 -3.48962,1 -10.94098,1 C 459.51967,164 455,163.60899 455,163 Z m 74,0 c 0,-0.55 1.575,-1 3.5,-1 H 536 V 134.5 107 h -3.5 c -1.925,0 -3.5,-0.45 -3.5,-1 0,-0.5628 2.80607,-1 6.41821,-1 3.53002,0 7.13002,-0.27314 8,-0.60699 1.42006,-0.54493 1.58179,2.36908 1.58179,28.5 V 162 h 3 c 1.65,0 3,0.45 3,1 0,0.60606 -4.33333,1 -11,1 -6.66667,0 -11,-0.39394 -11,-1 z M 78,121.69264 C 73.091777,120.14559 64.72114,111.47782 63.216116,106.38398 58.481236,90.358488 68.33304,74.947948 84.362518,73.306031 94.834287,72.233396 104.23935,77.372806 109.20726,86.882471 117.79453,103.32039 105.56229,123.14637 87,122.87595 c -3.025,-0.0441 -7.075,-0.57656 -9,-1.18331 z m 144.75,-5.77274 c -3.79055,-2.20779 -0.84362,-9.36593 3.59123,-8.72312 1.15056,0.16677 2.76705,1.50997 3.59218,2.98488 1.3697,2.4483 1.33737,2.86165 -0.37156,4.75 -2.04671,2.26159 -4.11138,2.56112 -6.81185,0.98824 z m 239.82143,-0.49133 C 459.5707,112.42784 461.72482,107 465.91644,107 468.02162,107 471,110.03123 471,112.17375 471,114.09847 467.83932,117 465.74269,117 c -0.87991,0 -2.30698,-0.70714 -3.17126,-1.57143 z"
       id="path1"
       sodipodi:nodetypes="ssssssssssssssssssssssssssssssssssssssssssscccsscssscsscccssscssssscsssscccccccsscssssscsssccssscccssscccssccsssssssssssssssscccssssscccssssscssssssssssssssssssssssscssscsssssssssssssssssssssssssscsssssssssccssscccssscccsssccssssssssssssssssssssssssssssssssssssscccsssssssssscccsssssssscsssscssssscsssssssssscccssssssssssssssssssssssscccssssssssscccssscccsscscccsssssscccssssscssscssssscsssssssssscccsssscsssssscsssssscccsscscccsssssscccssssscsssssssscsssssssssss" />
  </g>
</svg>
