<?xml version="1.0" encoding="UTF-8" standalone="no"?>
<!-- Created with Inkscape (http://www.inkscape.org/) -->

<svg
   width="200mm"
   height="40mm"
   viewBox="0 0 200 39.999999"
   version="1.1"
   id="svg1"
   inkscape:version="1.3.2 (091e20ef0f, 2023-11-25)"
   sodipodi:docname="auto-adventurevisualnovel.svg"
   xmlns:inkscape="http://www.inkscape.org/namespaces/inkscape"
   xmlns:sodipodi="http://sodipodi.sourceforge.net/DTD/sodipodi-0.dtd"
   xmlns="http://www.w3.org/2000/svg"
   xmlns:svg="http://www.w3.org/2000/svg">
  <sodipodi:namedview
     id="namedview1"
     pagecolor="#505050"
     bordercolor="#eeeeee"
     borderopacity="1"
     inkscape:showpageshadow="0"
     inkscape:pageopacity="0"
     inkscape:pagecheckerboard="0"
     inkscape:deskcolor="#505050"
     inkscape:document-units="mm"
     showgrid="true"
     inkscape:zoom="3.1017664"
     inkscape:cx="84.3068"
     inkscape:cy="149.43098"
     inkscape:window-width="2560"
     inkscape:window-height="1440"
     inkscape:window-x="1920"
     inkscape:window-y="0"
     inkscape:window-maximized="1"
     inkscape:current-layer="layer1">
    <inkscape:grid
       id="grid2"
       units="mm"
       originx="-42.241821"
       originy="-19.107588"
       spacingx="0.99999998"
       spacingy="1"
       empcolor="#0099e5"
       empopacity="0.30196078"
       color="#0099e5"
       opacity="0.14901961"
       empspacing="5"
       dotted="false"
       gridanglex="30"
       gridanglez="30"
       visible="true" />
  </sodipodi:namedview>
  <defs
     id="defs1" />
  <g
     inkscape:label="Calque 1"
     inkscape:groupmode="layer"
     id="layer1"
     transform="translate(-42.241822,-19.107589)">
    <!--!Font Awesome Free 6.5.1 by @fontawesome - https://fontawesome.com License - https://fontawesome.com/license/free Copyright 2024 Fonticons, Inc.-->
    <g
       id="g1"
       transform="matrix(4.5052887,0,0,4.5052887,-79.607838,-66.477616)">
      <path
         d="m 43.463198,19.199202 0.123065,2.644273 h 0.05496 l 1.110522,-2.644273 h 1.221374 l -1.628687,3.816792 h -1.899236 l -0.203374,-3.816792 z m 4.067176,0 -0.712657,3.816792 H 45.596344 L 46.309,19.199202 Z m 0.128433,2.680915 q 0.574198,0.19542 1.203206,0.19542 0.31145,0 0.500358,-0.03054 l 0.06271,-0.335878 -0.540496,-0.04886 q -0.468354,-0.04275 -0.731431,-0.170992 -0.25583,-0.134351 -0.338465,-0.378626 -0.08263,-0.244274 -0.0097,-0.635114 0.09578,-0.512977 0.297078,-0.806106 0.202437,-0.299237 0.550046,-0.427481 0.354857,-0.134351 0.928902,-0.134351 0.751145,0 1.400906,0.183206 l -0.335111,0.977099 q -0.305015,-0.06718 -0.520301,-0.0916 -0.214145,-0.03054 -0.446207,-0.03054 -0.31145,0 -0.506464,0.03054 l -0.06157,0.329771 0.431712,0.04275 q 0.731355,0.07328 1.005253,0.372519 0.281146,0.293129 0.171682,0.879389 -0.126568,0.677862 -0.5767,0.995419 -0.448993,0.31145 -1.29174,0.31145 -0.867176,0 -1.552844,-0.219847 z m 4.900577,1.22748 q -0.68397,0 -1.014223,-0.128244 -0.329113,-0.134351 -0.416385,-0.451908 -0.08613,-0.323664 0.02904,-0.940458 l 0.445837,-2.387785 h 1.221374 l -0.534777,2.864121 h 0.488549 q 0.274809,0 0.371707,-0.06107 0.104147,-0.06717 0.140634,-0.262595 l 0.474344,-2.540457 h 1.221374 l -0.445838,2.387785 q -0.114025,0.610687 -0.321023,0.934351 -0.206998,0.323664 -0.592389,0.458015 -0.38425,0.128244 -1.068219,0.128244 z m 4.581898,-0.696183 H 56.03594 l -0.265557,0.60458 H 54.54901 l 1.689755,-3.816792 h 1.899236 l 0.264442,3.816792 H 57.18107 Z m -0.06672,-0.885496 -0.07762,-1.154197 h -0.05496 l -0.508637,1.154197 z m 2.376424,-2.326716 h 1.221373 l -0.524515,2.809159 h 1.160305 l -0.188141,1.007633 H 58.73833 Z"
         id="text1"
         style="font-weight:800;font-size:12.2137px;font-family:Changa;-inkscape-font-specification:'Changa, Ultra-Bold';fill:#306230;stroke-width:0.112207"
         aria-label="VISUAL" />
      <path
         d="m 47.090193,23.855685 h 1.20916 l 0.580409,1.337405 q 0.104702,0.256488 0.07158,0.433587 h 0.03664 l 0.331217,-1.770992 h 1.221374 l -0.713829,3.816794 h -1.20916 l -0.580409,-1.337405 q -0.104701,-0.256488 -0.07158,-0.433588 h -0.03664 l -0.331216,1.770993 h -1.221374 z m 3.611975,1.911451 q 0.143908,-0.769466 0.394849,-1.196947 0.252083,-0.433588 0.677187,-0.616794 0.432353,-0.189313 1.134642,-0.189313 0.702291,0 1.057724,0.189313 0.362683,0.183206 0.452585,0.616794 0.09104,0.427481 -0.05286,1.196947 -0.143908,0.769465 -0.394849,1.196946 -0.250941,0.427481 -0.683294,0.616794 -0.425103,0.183206 -1.127393,0.183206 -0.70229,0 -1.064973,-0.183206 -0.355434,-0.189313 -0.446477,-0.616794 -0.09104,-0.427481 0.05286,-1.196946 z m 1.69053,0.952671 q 0.27481,0 0.39119,-0.06718 0.117522,-0.07328 0.151786,-0.256488 l 0.296953,-1.587786 h -0.561832 q -0.268703,0 -0.386225,0.07328 -0.11638,0.06718 -0.150644,0.250382 l -0.296952,1.587786 z m 3.766191,-2.864122 0.122253,2.644275 h 0.05496 l 1.111334,-2.644275 h 1.221374 l -1.629859,3.816794 h -1.899236 l -0.202202,-3.816794 z m 3.541799,2.80916 h 1.435114 l -0.18845,1.007634 h -2.656489 l 0.713829,-3.816794 h 2.687023 l -0.341123,1.007634 h -1.312977 l -0.08566,0.458015 h 1.221373 L 61.00772,26.20683 h -1.221374 z m 2.479579,-2.80916 h 1.221374 l -0.525378,2.80916 h 1.160305 l -0.18845,1.007634 h -2.38168 z"
         id="text2"
         style="font-weight:800;font-size:12.2137px;font-family:Changa;-inkscape-font-specification:'Changa, Ultra-Bold';fill:#306230;stroke-width:0.112207"
         aria-label="NOVEL" />
      <path
         d="m 35.947536,19.113422 c -0.828125,0 -1.5,0.671875 -1.5,1.5 v 5 c 0,0.828125 0.671875,1.5 1.5,1.5 h 4.499999 0.500001 c 0.276562,0 0.5,-0.223438 0.5,-0.5 0,-0.276563 -0.223438,-0.5 -0.5,-0.5 v -1 c 0.276562,0 0.5,-0.223437 0.5,-0.5 v -5 c 0,-0.276562 -0.223438,-0.5 -0.5,-0.5 h -0.500001 z m 0,6 h 4 v 1 h -4 c -0.276563,0 -0.5,-0.223438 -0.5,-0.5 0,-0.276562 0.223437,-0.5 0.5,-0.5 z m 0.5,-3.75 c 0,-0.1375 0.1125,-0.25 0.25,-0.25 h 2.999999 c 0.137501,0 0.250001,0.1125 0.250001,0.25 0,0.1375 -0.1125,0.25 -0.250001,0.25 h -2.999999 c -0.1375,0 -0.25,-0.1125 -0.25,-0.25 z m 0.25,0.75 h 2.999999 c 0.137501,0 0.250001,0.1125 0.250001,0.25 0,0.1375 -0.1125,0.25 -0.250001,0.25 h -2.999999 c -0.1375,0 -0.25,-0.1125 -0.25,-0.25 0,-0.1375 0.1125,-0.25 0.25,-0.25 z"
         id="path1"
         style="fill:#306230;stroke-width:0.015625" />
    </g>
  </g>
</svg>
