<?xml version="1.0" encoding="UTF-8" standalone="no"?>
<!-- Created with Inkscape (http://www.inkscape.org/) -->

<svg
   version="1.1"
   id="svg1"
   width="598"
   height="259.06671"
   viewBox="0 0 598 259.06671"
   sodipodi:docname="logo.png"
   xmlns:inkscape="http://www.inkscape.org/namespaces/inkscape"
   xmlns:sodipodi="http://sodipodi.sourceforge.net/DTD/sodipodi-0.dtd"
   xmlns="http://www.w3.org/2000/svg"
   xmlns:svg="http://www.w3.org/2000/svg">
  <defs
     id="defs1" />
  <sodipodi:namedview
     id="namedview1"
     pagecolor="#306230"
     bordercolor="#000000"
     borderopacity="0.25"
     inkscape:showpageshadow="2"
     inkscape:pageopacity="0.0"
     inkscape:pagecheckerboard="0"
     inkscape:deskcolor="#d1d1d1" />
  <g
     inkscape:groupmode="layer"
     inkscape:label="Image"
     id="g1"
     transform="translate(-1,-20.740261)">
    <path
       style="fill:#306230"
       d="m 28.204958,278.10959 c -2.912273,-1.00801 -6.962273,-3.17474 -9,-4.81495 C 1.468639,259.01833 1.768596,235.07504 19.856602,221.27886 L 24.155479,218 H 12.577739 1 v -12.84733 -12.84734 l 11.75,-0.61793 c 13.5658,-0.71343 23.669335,-3.22224 33.248496,-8.25595 17.544408,-9.21933 29.83618,-24.33582 36.157494,-44.46669 C 85.50595,128.29645 85.50692,110.72474 82.15799,100 75.627625,79.085523 62.236828,63.285818 43.5,54.387541 33.554892,49.664526 26.189559,47.965282 12.75,47.293259 L 1,46.70572 V 33.722991 20.740262 l 16.25,0.523227 c 11.829012,0.380877 18.33029,1.078024 23.896417,2.562465 C 69.209262,31.310091 92.367,49.918008 105.10454,75.218161 109.0608,83.07634 114,98.2867 114,102.61187 c 0,4.66013 1.52804,2.28579 3.16538,-4.91851 4.05604,-17.846569 12.43692,-33.31282 25.22596,-46.552503 9.01135,-9.32888 16.94694,-15.010271 28.75714,-20.588335 14.53458,-6.864813 22.62711,-8.671138 41.60152,-9.285829 L 229,20.740262 v 12.977203 12.977204 l -11.75,0.617934 C 198.3666,48.305684 185.62132,52.811498 172.88017,62.998585 160.74475,72.701368 151.40032,87.01482 147.4184,102 c -2.39322,9.0064 -2.40418,25.32983 -0.0234,34.77761 5.02177,19.92786 19.69546,38.08832 38.10497,47.1595 10.68056,5.26279 17.70658,6.97406 31.75,7.73312 l 11.75,0.6351 v 11.33605 11.33606 l 170.75,0.26128 170.75,0.26128 5.64151,2.77047 c 6.59237,3.23742 13.14939,9.94486 16.18265,16.55386 3.0093,6.55683 3.0093,18.79451 0,25.35134 -3.03326,6.609 -9.59028,13.31644 -16.18265,16.55386 L 570.5,279.5 302,279.72117 c -258.058373,0.21257 -268.705918,0.1499 -273.795042,-1.61158 z m 52.381422,-7.23566 c 2.45961,-0.61934 5.80888,-2.37488 7.44282,-3.90121 C 90.57232,264.5971 91,263.46355 91,259.09879 V 254 h -7 -7 v 3.87756 c 0,2.13265 -0.634847,4.40443 -1.41077,5.04839 -2.121184,1.76042 -7.73575,2.37146 -10.83923,1.17963 L 62,263.0495 V 248 232.9505 l 2.75,-1.05608 c 3.10348,-1.19183 8.718046,-0.58079 10.83923,1.17963 C 76.365153,233.71801 77,235.53979 77,237.12244 V 240 h 7 7 v -3.86514 c 0,-8.73596 -8.19387,-12.6659 -24.887058,-11.93634 -10.874541,0.47527 -16.870491,2.77918 -18.915881,7.26832 -1.790729,3.93023 -1.60923,29.83543 0.234008,33.39986 1.236711,2.39154 4.89624,4.63751 10.568931,6.48649 2.925875,0.95367 18.181236,0.62997 22.58638,-0.47926 z m 211.17718,-0.39635 C 297.76584,268.69509 301,265.18106 301,260.44187 c 0,-5.12418 -3.97762,-8.84705 -15.45767,-14.46769 -11.31812,-5.54136 -13.86823,-7.65967 -13.37269,-11.10834 0.42284,-2.94271 5.44304,-4.55065 10.08036,-3.22867 2.50402,0.71382 3.32263,1.55039 3.56642,3.64466 0.31261,2.68541 0.40602,2.71817 7.75,2.71817 H 301 v -2.92308 c 0,-3.99462 -4.72537,-8.51853 -10.38696,-9.94414 -5.65004,-1.42269 -18.89823,-1.45897 -23.91634,-0.0655 -5.80929,1.61319 -10.0967,5.93439 -10.0967,10.17628 0,5.76254 2.47282,8.12494 15.40733,14.71935 12.86902,6.56102 15.91195,9.54636 12.85076,12.60755 -2.03222,2.03222 -7.75442,2.82301 -11.10809,1.5351 -2.16113,-0.82993 -2.75,-1.70379 -2.75,-4.08083 V 257 h -7.5 c -7.37229,0 -7.5,0.0434 -7.5,2.54966 0,5.58094 4.33727,10.0071 11.5,11.73568 4.65509,1.12341 19.41525,0.63203 24.26356,-0.80776 z m 69,0 C 366.76584,268.69509 370,265.18106 370,260.44187 c 0,-5.12418 -3.97762,-8.84705 -15.45767,-14.46769 -11.31812,-5.54136 -13.86823,-7.65967 -13.37269,-11.10834 0.42284,-2.94271 5.44304,-4.55065 10.08036,-3.22867 2.50402,0.71382 3.32263,1.55039 3.56642,3.64466 0.31261,2.68541 0.40602,2.71817 7.75,2.71817 H 370 v -2.92308 c 0,-3.99462 -4.72537,-8.51853 -10.38696,-9.94414 -5.65004,-1.42269 -18.89823,-1.45897 -23.91634,-0.0655 -5.80929,1.61319 -10.0967,5.93439 -10.0967,10.17628 0,5.76254 2.47282,8.12494 15.40733,14.71935 12.86902,6.56102 15.91195,9.54636 12.85076,12.60755 -2.03222,2.03222 -7.75442,2.82301 -11.10809,1.5351 -2.16113,-0.82993 -2.75,-1.70379 -2.75,-4.08083 V 257 h -7.5 c -7.37229,0 -7.5,0.0434 -7.5,2.54966 0,5.58094 4.33727,10.0071 11.5,11.73568 4.65509,1.12341 19.41525,0.63203 24.26356,-0.80776 z m 112.82282,0.39635 c 2.45961,-0.61934 5.80888,-2.37488 7.44282,-3.90121 C 483.57232,264.5971 484,263.46355 484,259.09879 V 254 h -7 -7 v 3.87756 c 0,2.13265 -0.63485,4.40443 -1.41077,5.04839 -2.12118,1.76042 -7.73575,2.37146 -10.83923,1.17963 L 455,263.0495 V 248 232.9505 l 2.75,-1.05608 c 3.10348,-1.19183 8.71805,-0.58079 10.83923,1.17963 0.77592,0.64396 1.41077,2.46574 1.41077,4.04839 V 240 h 7 7 v -3.86514 c 0,-8.73596 -8.19387,-12.6659 -24.88706,-11.93634 -10.87454,0.47527 -16.87049,2.77918 -18.91588,7.26832 -1.79073,3.93023 -1.60923,29.83543 0.23401,33.39986 1.23671,2.39154 4.89624,4.63751 10.56893,6.48649 2.92587,0.95367 18.18124,0.62997 22.58638,-0.47926 z m 73.17718,-0.39635 C 552.76584,268.69509 556,265.18106 556,260.44187 c 0,-5.12418 -3.97762,-8.84705 -15.45767,-14.46769 -11.31812,-5.54136 -13.86823,-7.65967 -13.37269,-11.10834 0.42284,-2.94271 5.44304,-4.55065 10.08036,-3.22867 2.50402,0.71382 3.32263,1.55039 3.56642,3.64466 0.31261,2.68541 0.40602,2.71817 7.75,2.71817 H 556 v -2.92308 c 0,-3.99462 -4.72537,-8.51853 -10.38696,-9.94414 -5.65004,-1.42269 -18.89823,-1.45897 -23.91634,-0.0655 -5.80929,1.61319 -10.0967,5.93439 -10.0967,10.17628 0,5.76254 2.47282,8.12494 15.40733,14.71935 12.86902,6.56102 15.91195,9.54636 12.85076,12.60755 -2.03222,2.03222 -7.75442,2.82301 -11.10809,1.5351 -2.16113,-0.82993 -2.75,-1.70379 -2.75,-4.08083 V 257 h -7.5 c -7.37229,0 -7.5,0.0434 -7.5,2.54966 0,5.58094 4.33727,10.0071 11.5,11.73568 4.65509,1.12341 19.41525,0.63203 24.26356,-0.80776 z M 161,267.5 V 264 H 148.5 136 v -20 -20 h -8 -8 v 23.5 23.5 h 20.5 20.5 z m 35.90505,-1.03721 1.14249,-4.53721 9.19655,0.28721 9.19656,0.28721 1.11693,4 1.11693,4 7.66275,0.29206 c 4.2145,0.16064 7.6537,-0.0644 7.64265,-0.5 C 233.96886,269.85643 230.6831,259.375 226.67822,247 L 219.39663,224.5 207.94831,224.23795 196.5,223.9759 188.87632,247.48795 181.25265,271 h 7.25496 7.25496 z M 201.55898,251.25 c 0.80483,-2.6125 2.18841,-7.225 3.07464,-10.25 0.88622,-3.025 1.84971,-5.90538 2.14109,-6.40085 0.38348,-0.65206 7.18768,19.27836 7.22086,21.15085 0.002,0.1375 -3.12405,0.25 -6.94774,0.25 h -6.95217 z M 412,247.5 V 224 h -8 -8 v 23.5 23.5 h 8 8 z M 181,212.64138 C 148.22406,200.96088 123.70446,173.23865 116.86611,140.13065 115.59776,133.98992 114,131.90359 114,136.38813 c 0,4.32517 -4.9392,19.53553 -8.89546,27.39371 -11.49947,22.84103 -33.33364,41.75099 -56.912846,49.29064 -5.617198,1.79614 -4.742771,1.82039 66.808306,1.85265 l 72.5,0.0327 z M 466.67735,198.9166 c -9.19131,-1.24413 -16.04836,-4.36384 -20.16658,-9.17505 C 443.44878,186.1643 440,178.58509 440,175.43315 c 0,-1.52554 4.20741,-2.25969 14.9432,-2.60742 l 8.4432,-0.27348 0.78035,3.01144 c 0.42918,1.65629 2.15005,4.3237 3.82414,5.92758 2.55844,2.45115 4.04562,2.97994 9.32642,3.3162 5.66652,0.36082 6.59643,0.13599 9.48265,-2.29261 C 489.00803,180.6569 490,178.94737 490,177 c 0,-4.65046 -4.38802,-7.37113 -16.89138,-10.47305 C 451.20836,161.09378 443,154.67975 443,143 c 0,-5.22179 1.50067,-8.84894 5.31133,-12.83763 6.73236,-7.04687 16.75053,-9.75266 33.03239,-8.92168 12.19686,0.62249 18.90397,3.07731 24.08916,8.81669 3.08853,3.41864 6.55899,11.28408 5.46261,12.38046 -0.23372,0.23372 -5.40176,0.73986 -11.48455,1.12476 l -11.0596,0.69982 -1.2768,-3.08246 c -1.82259,-4.40014 -5.64497,-6.5615 -11.71747,-6.62564 -5.8462,-0.0617 -9.35707,2.21863 -9.35707,6.07761 0,3.33222 3.08575,4.92292 15,7.73247 20.39152,4.80862 28.17549,9.29132 31.57054,18.18112 3.47622,9.10238 -0.50248,20.74214 -9.09281,26.60113 -7.58453,5.17299 -23.16419,7.61573 -36.80038,5.76995 z M 271,160 v -38 h 34 34 v 8 8 H 317.5 296 v 6.5 6.5 h 20 20 v 7.5 7.5 h -20 -20 v 8 8 h 22 22 v 8 8 H 305.5 271 Z m 76.42382,36.25 c 0.30723,-0.9625 7.04261,-17.95 14.96751,-37.75 l 14.40892,-36 13.89812,-0.27623 13.89813,-0.27622 13.87832,34.77622 c 7.63308,19.12693 14.47991,36.23873 15.21517,38.02623 l 1.33685,3.25 h -13.00066 -13.00066 l -1.76276,-5.99861 -1.76276,-5.99862 h -15 -15 l -1.76276,5.99862 L 371.97448,198 h -12.55463 c -11.50292,0 -12.50783,-0.1466 -11.99603,-1.75 z m 52.55761,-26.5 c -0.15534,-2.091 -8.85573,-26.85832 -9.431,-26.84714 -0.58153,0.0113 -9.47613,25.03848 -9.54141,26.84714 -0.005,0.1375 4.26598,0.25 9.49098,0.25 5.225,0 9.49164,-0.1125 9.48143,-0.25 z M 548,169 v -29 h -13 -13 v -9 -9 h 38.5 38.5 v 9 9 h -13 -13 v 29 29 H 560.5 548 Z M 1.5,119.5 V 57.726974 l 10,0.612168 c 5.5,0.336692 12.322595,1.246865 15.161321,2.022607 27.1824,7.428164 45.309117,31.087471 45.309117,59.138251 0,27.94372 -18.230462,51.73844 -45.309117,59.13825 C 23.822595,179.41399 17,180.32417 11.5,180.66086 l -10,0.61217 z M 210,179.92857 C 183.56502,175.9511 163.02347,155.1286 158.52546,127.75 L 157.90937,124 H 193.45469 229 v 28.5 28.5 l -6.75,-0.12194 c -3.7125,-0.0671 -9.225,-0.49434 -12.25,-0.94949 z M 158.52546,111.25 C 160.91461,96.70769 167.05827,85.04862 177.6174,75.018474 189.15564,64.058275 200.5408,59.437655 218.75,58.324984 L 229,57.698659 V 86.34933 115 H 193.45469 157.90937 Z M 272,65.491868 V 26.751243 l 23.75,0.507473 c 26.62436,0.568891 30.845,1.360974 38.53343,7.231529 10.91626,8.335184 15.3,28.638801 10.16897,47.098365 -2.52832,9.09598 -10.38928,16.75791 -20.4524,19.93458 -4.32023,1.36379 -10.48722,1.84058 -28.75,2.22276 L 272,104.23249 Z m 43.37258,19.183572 c 3.74049,-2.45085 5.67902,-6.901857 6.31534,-14.500453 0.69871,-8.343573 -1.09618,-17.318296 -4.20167,-21.008953 C 314.62566,45.766405 309.20534,44 301.63398,44 H 296 V 65.625402 87.2508 l 8.39339,-0.44054 c 5.58174,-0.29296 9.2596,-1.0081 10.97919,-2.13482 z M 348.08769,103.25 c 0.0482,-0.4125 6.91072,-17.625 15.25,-38.25 L 378.5,27.5 392.13248,27.222546 c 10.32737,-0.210188 13.7626,0.03225 14.16923,1 0.29521,0.7026 7.29223,18.0528 15.54893,38.556002 L 436.86282,104.0571 423.81235,103.77855 410.76189,103.5 408.84467,97.25 406.92746,91 h -14.8822 -14.8822 L 375,97.5 372.83694,104 h -12.41847 c -6.83016,0 -12.37901,-0.3375 -12.33078,-0.75 z M 401,74.395843 C 401,72.694736 392.54882,47 391.98931,47 391.41255,47 383,72.561704 383,74.314223 383,74.6914 387.05,75 392,75 c 4.95,0 9,-0.271871 9,-0.604157 z M 458,75 V 46 H 445 432 V 36.5 27 h 38.5 38.5 v 9.5 9.5 h -13 -13 v 29 29 H 470.5 458 Z m 48.68199,24.77991 C 507.61135,97.42596 514.54045,80.2 522.08001,61.5 l 13.70828,-34 h 13.76783 13.76783 l 15.33802,37.995027 C 587.09789,86.39229 594,103.60479 594,103.74503 594,103.88526 588.1661,104 581.03578,104 h -12.96423 l -1.83945,-6.25 -1.83945,-6.25 -14.9958,-0.27497 -14.99579,-0.27496 -2.00568,6.27496 -2.00568,6.27497 -12.69872,0.27991 -12.69872,0.2799 z M 554.34497,61.296339 C 550.0925,48.10896 549.32741,46.174879 548.7226,47.083333 548.45136,47.490747 541.79691,68.296955 540.51363,72.75 539.87377,74.970338 539.9898,75 549.31458,75 h 9.44935 z"
       id="path1"
       inkscape:export-filename="auto-arcade-dataeast.svg"
       inkscape:export-xdpi="96"
       inkscape:export-ydpi="96" />
  </g>
</svg>
