<?xml version="1.0" encoding="UTF-8" standalone="no"?>
<svg
   id="svg2"
   viewBox="0 0 71.884091 8.0000276"
   version="1.1"
   sodipodi:docname="auto-strategywargame.svg"
   width="71.884094"
   height="8.0000277"
   inkscape:version="1.3.2 (091e20ef0f, 2023-11-25)"
   xmlns:inkscape="http://www.inkscape.org/namespaces/inkscape"
   xmlns:sodipodi="http://sodipodi.sourceforge.net/DTD/sodipodi-0.dtd"
   xmlns="http://www.w3.org/2000/svg"
   xmlns:svg="http://www.w3.org/2000/svg"
   xmlns:rdf="http://www.w3.org/1999/02/22-rdf-syntax-ns#"
   xmlns:cc="http://creativecommons.org/ns#"
   xmlns:dc="http://purl.org/dc/elements/1.1/">
  <defs
     id="defs1" />
  <sodipodi:namedview
     id="namedview1"
     pagecolor="#505050"
     bordercolor="#eeeeee"
     borderopacity="1"
     inkscape:showpageshadow="0"
     inkscape:pageopacity="0"
     inkscape:pagecheckerboard="0"
     inkscape:deskcolor="#505050"
     showgrid="false"
     inkscape:zoom="4.3592668"
     inkscape:cx="-31.771398"
     inkscape:cy="21.104466"
     inkscape:window-width="2560"
     inkscape:window-height="1409"
     inkscape:window-x="1920"
     inkscape:window-y="0"
     inkscape:window-maximized="1"
     inkscape:current-layer="layer1" />
  <g
     id="layer1"
     transform="translate(-113.54821,-243.59267)"
     style="fill:#306230">
    <g
       id="g1"
       transform="translate(6.1402453,23.602198)">
      <path
         id="path3686"
         fill="#2e3436"
         d="m 112.4596,219.99049 c -0.47918,0 -0.58487,0.0132 -0.84989,0.10704 -0.41352,0.1464 -0.79514,0.31418 -1.06554,0.62465 -0.53758,0.61716 -0.93934,2.26854 -0.93934,2.26854 l 0.41695,0.0144 c 0.22922,0.008 1.5138,0.0175 2.85482,0.0224 l 2.43788,0.01 -0.0256,-0.38979 c -0.0129,-0.19636 -0.0398,-0.37411 -0.0831,-0.54477 l 4.89014,0.14052 0.35682,0.34254 0.8685,-0.30734 v -1.28442 l -0.81574,-0.33453 -0.46118,0.37103 -5.26199,0.15041 c -0.33833,-0.48447 -0.85108,-0.86298 -1.47296,-1.08314 -0.26501,-0.0938 -0.37072,-0.10703 -0.84988,-0.10703 z"
         style="fill:#306230;stroke-width:0.0441109" />
      <path
         id="path2827"
         fill="#2e3436"
         d="m 109.10717,223.12192 c -0.28252,0.23543 -0.47618,0.33895 -0.97772,1.50172 h 10.03259 c -0.73242,-0.47825 -0.94746,-0.9382 -2.20462,-1.42342 l -2.85641,-0.0288 c -1.57057,-0.0159 -3.11039,-0.0345 -3.42353,-0.0399 l -0.57031,-0.01 z"
         style="fill:#306230;stroke-width:0.0441109" />
      <path
         id="rect3619"
         stroke="#2e3436"
         stroke-width="0.352887"
         fill="none"
         d="m 108.59857,224.91327 h 9.58883 c 0,0 1.15791,-0.0158 1.24322,0.5 0.34827,2.10559 -2.30188,2.40078 -2.30188,2.40078 h -7.8244 c -0.70846,0 -1.71993,-0.57036 -1.71993,-1.27882 v -0.60776 c 0,-0.70847 0.3057,-1.01416 1.01416,-1.01416 z"
         style="fill:#306230;stroke:#306230;stroke-opacity:1" />
    </g>
    <path
       d="m 185.95253,243.94969 -0.96758,7.286 h -3.47396 l -0.67614,-4.39492 -0.6878,4.39492 h -3.47397 l -0.96758,-7.286 h 2.33152 l 0.61786,5.04774 h 0.10491 l 0.80438,-5.04774 h 2.5297 l 0.80437,5.04774 h 0.10492 l 0.61785,-5.04774 z m 4.90787,6.13189 h -2.11003 l -0.29144,1.15411 h -2.33152 l 1.86522,-7.286 h 3.62551 l 1.86522,7.286 h -2.33152 z m -0.44299,-1.69035 -0.55956,-2.20328 h -0.10492 l -0.55957,2.20328 z m 7.6474,2.84446 -0.9909,-2.11003 h -0.61785 v 2.11003 h -2.33152 v -7.286 h 3.3807 q 1.49217,0 2.145,0.62951 0.65282,0.62951 0.65282,2.06339 0,1.50383 -0.89763,2.07506 l 1.18907,2.51804 z m -1.60875,-3.80038 h 0.94426 q 0.25647,0 0.34973,-0.10492 0.10492,-0.10492 0.10492,-0.3847 v -0.58288 q 0,-0.27978 -0.10492,-0.3847 -0.0933,-0.10492 -0.34973,-0.10492 h -0.94426 z m 13.11481,-0.55957 v 4.01022 q -0.59454,0.27978 -1.30566,0.39636 -0.69945,0.12823 -1.67869,0.12823 -1.22405,0 -1.87687,-0.33807 -0.65283,-0.33807 -0.93261,-1.14244 -0.26813,-0.81604 -0.26813,-2.33152 0,-1.51549 0.3031,-2.31987 0.3031,-0.81603 1.03753,-1.1541 0.73443,-0.34973 2.08671,-0.34973 0.59454,0 1.28233,0.0933 0.69946,0.0933 1.00256,0.20984 l -0.29144,1.8419 q -0.41968,-0.0933 -0.94427,-0.15155 -0.51293,-0.0699 -0.87432,-0.0699 -0.62951,0 -0.86266,0.17486 -0.23315,0.17487 -0.23315,0.64117 v 3.01932 h 1.34062 v -0.96758 h -0.59454 v -1.69036 z m 5.08272,3.20584 h -2.11003 l -0.29144,1.15411 h -2.33152 l 1.86522,-7.286 h 3.62551 l 1.86522,7.286 h -2.33152 z m -0.44299,-1.69035 -0.55956,-2.20328 h -0.10492 l -0.55957,2.20328 z m 3.97525,-4.44154 h 2.92606 l 0.90929,3.70711 h 0.0816 l 0.90929,-3.70711 h 2.92606 l 0.44298,7.286 h -2.31986 l -0.18652,-3.53226 h -0.0816 l -0.83935,3.53226 h -1.78361 l -0.85101,-3.53226 h -0.0699 l -0.18653,3.53226 h -2.31986 z m 11.51772,5.36249 h 2.73954 v 1.92351 h -5.07106 v -7.286 h 5.12934 l -0.29144,1.9235 h -2.50638 v 0.87432 h 2.33152 v 1.69035 h -2.33152 z"
       id="text1"
       style="font-weight:800;font-size:11.6576px;font-family:Changa;-inkscape-font-specification:'Changa, Ultra-Bold';stroke:#306230;stroke-width:0.364299;paint-order:fill markers stroke"
       transform="skewX(-10.962024)"
       aria-label="WAR GAME" />
  </g>
  <metadata
     id="metadata1">
    <rdf:RDF>
      <cc:Work>
        <dc:format>image/svg+xml</dc:format>
        <dc:type
           rdf:resource="http://purl.org/dc/dcmitype/StillImage" />
        <cc:license
           rdf:resource="http://creativecommons.org/publicdomain/zero/1.0/" />
        <dc:publisher>
          <cc:Agent
             rdf:about="http://openclipart.org/">
            <dc:title>Openclipart</dc:title>
          </cc:Agent>
        </dc:publisher>
        <dc:date>2010-11-20T11:34:50</dc:date>
        <dc:description>A flat black tank (not realistic)</dc:description>
        <dc:source>http://openclipart.org/detail/97015/comic-black-tank--by-rg1024</dc:source>
        <dc:creator>
          <cc:Agent>
            <dc:title>rg1024</dc:title>
          </cc:Agent>
        </dc:creator>
        <dc:subject>
          <rdf:Bag>
            <rdf:li>clip art</rdf:li>
            <rdf:li>clipart</rdf:li>
            <rdf:li>comic style</rdf:li>
            <rdf:li>peace</rdf:li>
            <rdf:li>tank</rdf:li>
            <rdf:li>war</rdf:li>
          </rdf:Bag>
        </dc:subject>
      </cc:Work>
      <cc:License
         rdf:about="http://creativecommons.org/publicdomain/zero/1.0/">
        <cc:permits
           rdf:resource="http://creativecommons.org/ns#Reproduction" />
        <cc:permits
           rdf:resource="http://creativecommons.org/ns#Distribution" />
        <cc:permits
           rdf:resource="http://creativecommons.org/ns#DerivativeWorks" />
      </cc:License>
    </rdf:RDF>
  </metadata>
</svg>
