<?xml version="1.0" encoding="UTF-8" standalone="no"?>
<!-- Created with Inkscape (http://www.inkscape.org/) -->

<svg
   version="1.1"
   id="svg1"
   width="599.17303"
   height="159.377"
   viewBox="0 0 599.17303 159.377"
   sodipodi:docname="logo.png"
   xmlns:inkscape="http://www.inkscape.org/namespaces/inkscape"
   xmlns:sodipodi="http://sodipodi.sourceforge.net/DTD/sodipodi-0.dtd"
   xmlns="http://www.w3.org/2000/svg"
   xmlns:svg="http://www.w3.org/2000/svg">
  <defs
     id="defs1" />
  <sodipodi:namedview
     id="namedview1"
     pagecolor="#306230"
     bordercolor="#000000"
     borderopacity="0.25"
     inkscape:showpageshadow="2"
     inkscape:pageopacity="0.0"
     inkscape:pagecheckerboard="0"
     inkscape:deskcolor="#d1d1d1" />
  <g
     inkscape:groupmode="layer"
     inkscape:label="Image"
     id="g1"
     transform="translate(-0.87018788,-70.429977)">
    <path
       style="fill:#306230"
       d="m 28.204958,228.10959 c -2.912273,-1.00801 -6.962273,-3.17474 -9,-4.81495 C 1.4686391,209.01833 1.7685961,185.07504 19.856602,171.27886 L 24.155479,168 H 15.077739 6 L 5.984687,123.75 C 5.976267,99.4125 5.638765,79.023916 5.234687,78.442036 4.8306091,77.860155 3.387372,76.622655 2.0274936,75.692036 -0.3551112,74.061523 0.01494371,74 12.204914,74 29.646039,74 29,73.083043 29,97.83815 v 18.56843 L 50.016957,95.45329 71.033914,74.5 83.060117,74 95.086319,73.5 86.79316,81.52511 c -4.561238,4.41381 -14.231126,13.67034 -21.488639,20.57006 l -13.195479,12.54496 13.638712,15.92993 c 17.107273,19.9812 26.571537,29.54135 31.962408,32.28624 3.563808,1.81459 5.935078,2.1437 15.445778,2.1437 h 11.23562 l -4.44578,-2.82598 c -13.73999,-8.7339 -21.964908,-24.47329 -21.933911,-41.97324 0.02419,-13.65949 4.214311,-23.44389 14.466331,-33.78056 8.65463,-8.726087 16.62855,-12.748 29.77626,-15.01864 19.41746,-3.353443 39.1039,2.114671 51.21463,14.2254 9.63865,9.63866 13.96662,20.67844 13.8674,35.37302 -0.11795,17.46979 -7.8316,31.45327 -22.81862,41.3661 L 180.53573,165 H 202.76787 225 V 122.08889 79.177787 L 221.92327,76.588894 218.84655,74 l 13.32672,0.0053 c 10.9591,0.0043 13.81252,0.315234 16.0611,1.75 2.72932,1.741513 42.70375,47.42296 47.65346,54.45678 1.43669,2.04163 2.83717,3.72946 3.11217,3.75074 0.275,0.0213 0.35742,-13.46163 0.18315,-29.96204 L 298.86631,74 h 7.58672 7.58672 l -0.26988,45.50028 -0.26987,45.50028 4.80903,-2.8e-4 4.80904,-2.8e-4 5.31191,-11.25 c 2.92156,-6.1875 6.45019,-13.725 7.8414,-16.75 1.39121,-3.025 7.74928,-16.67171 14.12905,-30.32602 C 356.78019,93.01967 362,80.9051 362,79.752719 362,78.600338 361.25526,76.834548 360.34501,75.828741 358.75113,74.067523 359.09984,74 369.78925,74 c 10.09253,0 11.32915,0.204074 13.63422,2.25 1.60498,1.424541 9.81129,18.02544 22.36841,45.25 l 19.83342,43 4.09624,0.30305 c 3.78194,0.27979 4.14022,0.088 4.66932,-2.5 0.3152,-1.54168 2.82701,-16.75305 5.58181,-33.80305 2.7548,-17.05 5.67452,-34.71843 6.48827,-39.26318 1.58167,-8.83362 1.05953,-12.255364 -2.1555,-14.125696 -1.33206,-0.774919 1.47924,-1.05828 10.72205,-1.080715 9.45666,-0.02296 13.04325,0.33084 14.63152,1.443307 1.71724,1.202802 18.8409,39.161224 24.33281,53.939124 0.62023,1.66895 1.44209,2.52302 1.92455,2 0.46313,-0.50206 3.79065,-7.88784 7.39449,-16.41284 3.60385,-8.525 9.03865,-21.125 12.07734,-28 l 5.52489,-12.5 8.15452,-0.292237 c 9.41413,-0.337378 12.15425,0.854532 13.80922,6.006817 0.58043,1.80698 3.54395,18.58542 6.5856,37.28542 3.04165,18.7 6.04397,36.98147 6.67182,40.6255 l 1.14156,6.6255 6.82338,0.48821 c 12.22144,0.87444 23.10297,8.42506 28.22497,19.58512 3.0093,6.55683 3.0093,18.79451 0,25.35134 -3.03326,6.609 -9.59028,13.31644 -16.18265,16.55386 L 570.5,229.5 302,229.72117 c -258.058373,0.21257 -268.705918,0.1499 -273.795042,-1.61158 z m 52.381423,-7.23566 c 2.459611,-0.61934 5.80888,-2.37488 7.44282,-3.90121 C 90.572318,214.5971 91,213.46355 91,209.09879 V 204 h -7 -7 v 3.87756 c 0,2.13265 -0.634847,4.40443 -1.41077,5.04839 -2.121184,1.76042 -7.73575,2.37146 -10.83923,1.17963 L 62,213.0495 V 198 182.9505 l 2.75,-1.05608 c 3.10348,-1.19183 8.718046,-0.58079 10.83923,1.17963 C 76.365153,183.71801 77,185.53979 77,187.12244 V 190 h 7 7 v -3.86514 c 0,-8.73596 -8.193872,-12.6659 -24.887058,-11.93634 -10.874541,0.47527 -16.870491,2.77918 -18.915881,7.26832 -1.790729,3.93023 -1.60923,29.83543 0.234008,33.39986 1.236711,2.39154 4.89624,4.63751 10.568931,6.48649 2.925875,0.95367 18.181236,0.62997 22.586381,-0.47926 z M 291.76356,220.47758 C 297.76584,218.69509 301,215.18106 301,210.44187 c 0,-5.12418 -3.97762,-8.84705 -15.45767,-14.46769 -11.31812,-5.54136 -13.86823,-7.65967 -13.37269,-11.10834 0.42284,-2.94271 5.44304,-4.55065 10.08036,-3.22867 2.50402,0.71382 3.32263,1.55039 3.56642,3.64466 0.31261,2.68541 0.40602,2.71817 7.75,2.71817 H 301 v -2.92308 c 0,-3.99462 -4.72537,-8.51853 -10.38696,-9.94414 -5.65004,-1.42269 -18.89823,-1.45897 -23.91634,-0.0655 -4.92594,1.36789 -9.55939,5.63689 -10.23799,9.4327 -0.98539,5.51185 2.14438,8.62904 15.50084,15.43857 12.91759,6.58578 15.9626,9.56785 12.89854,12.63191 -2.03222,2.03222 -7.75442,2.82301 -11.10809,1.5351 -2.16113,-0.82993 -2.75,-1.70379 -2.75,-4.08083 V 207 h -7.5 c -7.37229,0 -7.5,0.0434 -7.5,2.54966 0,5.58094 4.33727,10.0071 11.5,11.73568 4.65509,1.12341 19.41525,0.63203 24.26356,-0.80776 z m 69,0 C 366.76584,218.69509 370,215.18106 370,210.44187 c 0,-5.12418 -3.97762,-8.84705 -15.45767,-14.46769 -11.31812,-5.54136 -13.86823,-7.65967 -13.37269,-11.10834 0.42284,-2.94271 5.44304,-4.55065 10.08036,-3.22867 2.50402,0.71382 3.32263,1.55039 3.56642,3.64466 0.31261,2.68541 0.40602,2.71817 7.75,2.71817 H 370 v -2.92308 c 0,-3.99462 -4.72537,-8.51853 -10.38696,-9.94414 -5.65004,-1.42269 -18.89823,-1.45897 -23.91634,-0.0655 -4.92594,1.36789 -9.55939,5.63689 -10.23799,9.4327 -0.98539,5.51185 2.14438,8.62904 15.50084,15.43857 12.91759,6.58578 15.9626,9.56785 12.89854,12.63191 -2.03222,2.03222 -7.75442,2.82301 -11.10809,1.5351 -2.16113,-0.82993 -2.75,-1.70379 -2.75,-4.08083 V 207 h -7.5 c -7.37229,0 -7.5,0.0434 -7.5,2.54966 0,5.58094 4.33727,10.0071 11.5,11.73568 4.65509,1.12341 19.41525,0.63203 24.26356,-0.80776 z m 112.82282,0.39635 c 2.45961,-0.61934 5.80888,-2.37488 7.44282,-3.90121 C 483.57232,214.5971 484,213.46355 484,209.09879 V 204 h -7 -7 v 3.87756 c 0,2.13265 -0.63485,4.40443 -1.41077,5.04839 -2.12118,1.76042 -7.73575,2.37146 -10.83923,1.17963 L 455,213.0495 V 198 182.9505 l 2.75,-1.05608 c 3.10348,-1.19183 8.71805,-0.58079 10.83923,1.17963 0.77592,0.64396 1.41077,2.46574 1.41077,4.04839 V 190 h 7 7 v -3.86514 c 0,-8.73596 -8.19387,-12.6659 -24.88706,-11.93634 -10.87454,0.47527 -16.87049,2.77918 -18.91588,7.26832 -1.79073,3.93023 -1.60923,29.83543 0.23401,33.39986 1.23671,2.39154 4.89624,4.63751 10.56893,6.48649 2.92587,0.95367 18.18124,0.62997 22.58638,-0.47926 z m 73.17718,-0.39635 C 552.76584,218.69509 556,215.18106 556,210.44187 c 0,-5.12418 -3.97762,-8.84705 -15.45767,-14.46769 -11.31812,-5.54136 -13.86823,-7.65967 -13.37269,-11.10834 0.42284,-2.94271 5.44304,-4.55065 10.08036,-3.22867 2.50402,0.71382 3.32263,1.55039 3.56642,3.64466 0.31261,2.68541 0.40602,2.71817 7.75,2.71817 H 556 v -2.92308 c 0,-3.99462 -4.72537,-8.51853 -10.38696,-9.94414 -5.65004,-1.42269 -18.89823,-1.45897 -23.91634,-0.0655 -4.92594,1.36789 -9.55939,5.63689 -10.23799,9.4327 -0.98539,5.51185 2.14438,8.62904 15.50084,15.43857 12.91759,6.58578 15.9626,9.56785 12.89854,12.63191 -2.03222,2.03222 -7.75442,2.82301 -11.10809,1.5351 -2.16113,-0.82993 -2.75,-1.70379 -2.75,-4.08083 V 207 h -7.5 c -7.37229,0 -7.5,0.0434 -7.5,2.54966 0,5.58094 4.33727,10.0071 11.5,11.73568 4.65509,1.12341 19.41525,0.63203 24.26356,-0.80776 z M 161,217.5 V 214 H 148.5 136 v -20 -20 h -8 -8 v 23.5 23.5 h 20.5 20.5 z m 35.90505,-1.03721 1.14249,-4.53721 9.19655,0.28721 9.19656,0.28721 1.11693,4 1.11693,4 7.66275,0.29206 c 4.2145,0.16064 7.6537,-0.0644 7.64265,-0.5 C 233.96886,219.85643 230.6831,209.375 226.67822,197 L 219.39663,174.5 207.94831,174.23795 196.5,173.9759 188.87632,197.48795 181.25265,221 h 7.25496 7.25496 z M 201.55898,201.25 c 0.80483,-2.6125 2.18841,-7.225 3.07464,-10.25 0.88622,-3.025 1.84971,-5.90538 2.14109,-6.40085 0.38348,-0.65206 7.18768,19.27836 7.22086,21.15085 0.002,0.1375 -3.12405,0.25 -6.94774,0.25 h -6.95217 z M 412,197.5 V 174 h -8 -8 v 23.5 23.5 h 8 8 z M 52.779117,165 h 17.529117 l -5.133819,-3.75 C 60.693225,157.97671 51.221209,147.53198 33.84031,126.69808 L 29,120.89617 V 143.57308 166.25 l 3.125,-0.625 C 33.84375,165.28125 43.138103,165 52.779117,165 Z m 242.579653,-1.25 c -0.41759,-0.6875 -11.58165,-13.85178 -24.80901,-29.25396 -13.22737,-15.40217 -25.49717,-29.80217 -27.26623,-32 L 240.06706,98.5 240.03353,131.75 240,165 h 28.05902 c 22.18548,0 27.90008,-0.26166 27.29975,-1.25 z M 400,164.49219 c 0,-0.2793 -1.77671,-4.4418 -3.94825,-9.25 L 392.1035,146.5 l -21.58852,-0.2696 -21.58852,-0.26961 -3.96323,8.61917 C 342.78345,159.32051 341,163.60433 341,164.09957 341,164.61313 353.6747,165 370.5,165 c 16.225,0 29.5,-0.22852 29.5,-0.50781 z m 85.83333,-0.36497 c -3.12104,-8.17195 -27.36481,-64.01196 -27.54016,-63.4325 -0.13403,0.4429 -1.82826,11.15528 -3.76497,23.80528 -3.77442,24.65348 -5.37293,34.66711 -6.10597,38.25 L 447.9619,165 h 19.10238 c 10.50631,0 18.95239,-0.39275 18.76905,-0.87278 z M 533.60078,161.25 c -0.70529,-4.59959 -7.17625,-45.20304 -8.6861,-54.50288 -0.603,-3.71408 -1.50548,-6.50002 -2.00552,-6.19098 -0.50004,0.30904 -0.90916,0.9823 -0.90916,1.49613 0,0.51383 -5.67503,14.32477 -12.61118,30.69098 -6.93614,16.36621 -12.83429,30.31925 -13.10699,31.00675 -0.38626,0.97381 3.7454,1.25 18.69908,1.25 h 19.19489 z m -368.89473,-2.35321 c 20.07198,-9.70017 24.5099,-51.84268 7.39749,-70.24661 C 166.24689,82.35152 160.5275,79.75 152.53664,79.75 134.69848,79.75 123,96.22208 123,121.33912 c 0,20.32957 9.29603,36.06556 23.5,39.77998 4.48165,1.17198 13.4469,0.0776 18.20605,-2.22231 z M 386.68259,133.75 c -0.29227,-0.6875 -3.71541,-8.33313 -7.60699,-16.99029 -3.89158,-8.65716 -7.0756,-16.19466 -7.0756,-16.75 0,-1.92779 -2.05442,-0.99678 -2.93993,1.3323 -0.93774,2.46643 -9.95505,22.38435 -13.17237,29.09582 -1.03823,2.16581 -1.8877,4.07831 -1.8877,4.25 0,0.17169 7.47314,0.31217 16.60699,0.31217 12.90233,0 16.48845,-0.27885 16.0756,-1.25 z m 189.98408,33.58333 C 576.3,166.96667 576,147.02768 576,123.02446 c 0,-45.866188 0.0454,-45.383606 -4.5,-47.869728 -1.53358,-0.838803 1.0731,-1.101006 11.17742,-1.124323 C 601.76897,73.986352 600,68.920774 600,123.63486 V 168 h -11.33333 c -6.23334,0 -11.63334,-0.3 -12,-0.66667 z"
       id="path1" />
  </g>
</svg>
