<?xml version="1.0" encoding="UTF-8" standalone="no"?>
<!-- Created with Inkscape (http://www.inkscape.org/) -->

<svg
   version="1.1"
   id="svg1"
   width="599.6665"
   height="261.92056"
   viewBox="0 0 599.6665 261.92056"
   sodipodi:docname="auto-arcade-banpresto.svg"
   inkscape:version="1.3 (0e150ed6c4, 2023-07-21)"
   inkscape:dataloss="true"
   xmlns:inkscape="http://www.inkscape.org/namespaces/inkscape"
   xmlns:sodipodi="http://sodipodi.sourceforge.net/DTD/sodipodi-0.dtd"
   xmlns="http://www.w3.org/2000/svg"
   xmlns:svg="http://www.w3.org/2000/svg">
  <defs
     id="defs1" />
  <sodipodi:namedview
     id="namedview1"
     pagecolor="#306230"
     bordercolor="#000000"
     borderopacity="0.25"
     inkscape:showpageshadow="2"
     inkscape:pageopacity="0.0"
     inkscape:pagecheckerboard="0"
     inkscape:deskcolor="#d1d1d1"
     inkscape:zoom="1.115019"
     inkscape:cx="421.9659"
     inkscape:cy="117.48679"
     inkscape:window-width="1918"
     inkscape:window-height="1360"
     inkscape:window-x="1433"
     inkscape:window-y="0"
     inkscape:window-maximized="0"
     inkscape:current-layer="g1" />
  <g
     inkscape:groupmode="layer"
     inkscape:label="Image"
     id="g1"
     transform="translate(0.11540801,-0.49957547)">
    <path
       style="fill:#306230"
       d="M 356.42792,247.6834 C 333.00978,217.43684 317.5863,204.8 304.08799,204.8 c -13.21173,0 -23.02902,7.54156 -49.07628,37.7 -8.07542,9.35 -15.31913,17.49693 -16.09714,18.1043 -1.10138,0.8598 -22.22661,-8.8163 -95.41457,-43.70325 l -94,-44.80754 -0.263965,-32.13176 -0.263965,-32.13177 221.26396,0.70827 c 121.69519,0.38955 222.38897,0.8468 223.76397,1.01611 1.375,0.16931 16.56873,0.33885 33.76385,0.37674 l 31.26386,0.0689 -0.26386,32.19993 -0.26385,32.19992 -94,43.78 c -51.7,24.079 -94.52121,43.98406 -95.15823,44.23348 -0.63703,0.24941 -6.44826,-6.37906 -12.91385,-14.72993 z m 67.62248,-55.66967 c 12.08808,-4.01464 22.20843,-12.39356 27.92592,-23.12069 3.23417,-6.06792 5.97617,-16.63318 6.00632,-23.14304 L 458,142 h -52 -52 l 0.0577,4.75 c 0.26779,22.06635 16.97491,41.50313 40.23525,46.809 8.28614,1.89014 21.47575,1.20522 29.7575,-1.54527 z M 211.29681,191.51091 C 232.9892,185.86076 245.66672,170.6237 248.53872,146.75 L 249.23045,141 H 196.61522 144 l 0.0174,3.25 c 0.01,1.7875 0.66292,6.29641 1.45192,10.01981 3.77945,17.83566 17.87322,32.09603 36.7402,37.1745 7.01903,1.88934 21.95805,1.92354 29.08733,0.0666 z M 410.75282,87.87636 c -8.14765,-1.21816 -16.26612,-7.84157 -18.71806,-15.271039 -1.39814,-4.236413 -1.01158,-5.069148 3.00272,-6.468542 2.81619,-0.981728 3.11375,-0.859557 4.02247,1.651534 3.76948,10.416226 12.84169,15.368757 21.51475,11.744923 C 428.16602,76.361381 432,70.9646 432,63.450789 c 0,-9.729911 -5.29937,-15.183881 -17.90373,-18.426026 -10.42997,-2.682842 -15.38195,-5.95031 -18.4996,-12.206607 -6.4713,-12.986212 0.49258,-28.481019 14.28767,-31.790411 8.81969,-2.115809 19.21135,2.319174 23.04595,9.835616 l 1.9698,3.86113 -2.4971,1.137754 c -3.67997,1.676711 -4.91646,1.415358 -6.39764,-1.352251 -0.73294,-1.369504 -3.29877,-3.441809 -5.70186,-4.605123 -5.81393,-2.814476 -10.5794,-1.952393 -14.9758,2.709158 -7.98585,8.467466 -4.03111,20.202959 7.90573,23.459869 14.18211,3.86952 18.12277,5.855001 22.01265,11.090963 1.36275,1.834327 2.98987,4.864789 3.61583,6.734362 1.62726,4.860206 1.40465,15.52692 -0.41495,19.882896 -4.14467,9.922041 -15.82856,15.868271 -27.69413,14.094241 z M 542.48694,86.24539 C 530.36998,81.94871 521.08851,73.629914 515.68498,62.223329 512.70551,55.933822 512.5,54.790227 512.5,44.5 c 0,-10.290227 0.20551,-11.433822 3.18498,-17.723329 C 523.25889,10.788531 538.5621,1 555.98376,1 c 12.91488,0 26.99911,6.701324 34.32822,16.333477 16.98003,22.315713 9.75106,54.116926 -15.09553,66.407343 -7.06693,3.49567 -8.30472,3.77751 -17.65805,4.02069 -7.61531,0.198 -11.27602,-0.17025 -15.07146,-1.51612 z m 28.18895,-9.168666 C 591.33507,67.303246 597.53752,41.08817 583.53087,22.744221 577.55338,14.915742 565.45564,9 555.42383,9 c -2.31724,0 -7.27201,0.944783 -11.0106,2.099517 -5.74074,1.773133 -7.75279,3.055649 -12.94285,8.25 -7.64462,7.650942 -10.65671,14.735893 -10.69246,25.150483 -0.0534,15.552193 9.49495,28.544113 25.06626,34.106324 2.0107,0.71824 7.03082,1.325287 11.15582,1.348994 6.26797,0.03602 8.51451,-0.436844 13.67589,-2.878594 z M 0.19229599,51.25 C 0.52863912,12.172619 0.46387969,12.616993 6.6607236,6.864162 11.248434,2.605166 15.795695,0.8 21.936504,0.8 c 6.906452,0 11.687991,1.891161 16.206851,6.410022 7.348426,7.348426 7.752627,20.74015 0.834797,27.65798 l -2.950664,2.950664 3.432635,2.025305 C 47.614497,44.655169 52.15793,56.105307 50.012804,66.438322 46.964338,81.1227 36.165228,87 12.232197,87 H -0.11540801 Z M 29.277334,77.939872 c 4.614079,-1.28134 10.042975,-5.884739 11.722851,-9.940318 1.730746,-4.17839 0.820149,-13.423841 -1.647685,-16.729237 -4.423444,-5.924721 -6.605648,-6.74427 -18.922054,-7.10637 L 9,43.827894 V 61.413947 79 l 8.25,-0.0056 c 4.5375,-0.0031 9.9498,-0.477615 12.027334,-1.054551 z M 24.989583,35.352083 C 29.053695,34.539261 34.513661,29.181693 35.303724,25.231378 37.447713,14.511436 25.725509,5.470744 16.121491,10.437174 10.697508,13.242025 9.0080175,17.232766 9.0037381,27.25 L 9,36 h 6.375 c 3.50625,0 7.832812,-0.291562 9.614583,-0.647917 z M 206.19934,54.25 c 0.28994,-31.582333 0.3795,-32.89741 2.51204,-36.884453 5.3335,-9.971673 15.23526,-15.831193 26.78862,-15.852586 10.86668,-0.02012 19.85141,4.68447 25.36981,13.284155 11.22757,17.496646 2.27573,39.547856 -18.239,44.928456 -5.57061,1.46106 -7.36481,1.53334 -12.31063,0.495943 -3.18429,-0.667913 -7.9639,-2.565991 -10.62135,-4.217951 C 217.04138,54.351604 214.67201,53 214.43355,53 214.1951,53 214,60.65 214,70 v 17 h -4.05066 -4.05067 z m 38.86516,-4 c 3.5521,-1.801228 6.46028,-4.246004 8.42931,-7.086142 2.70892,-3.907354 3.00619,-5.101218 3.00619,-12.073029 0,-6.750775 -0.34765,-8.262222 -2.72761,-11.858582 -8.73619,-13.201276 -28.55953,-12.983456 -36.40276,0.399996 -5.34823,9.126068 -3.99988,19.417018 3.50414,26.744501 7.13988,6.971903 15.45466,8.303209 24.19073,3.873256 z M 277,52.250872 c 0.48329,-33.589834 0.57486,-34.89093 2.74077,-38.94294 2.46467,-4.610944 6.89722,-8.423075 12.53094,-10.776992 4.21839,-1.762556 14.28795,-2.022346 18.41319,-0.475053 11.69098,4.385054 18.78946,16.970968 16.25001,28.811995 -2.32642,10.847722 -10.87499,18.939509 -21.04058,19.916293 C 303.20245,51.042831 301,51.422223 301,51.627268 c 0,0.205045 5.92213,7.685292 13.16028,16.622771 7.23816,8.937478 13.59326,16.812461 14.12245,17.499961 0.74294,0.9652 -0.29407,1.25 -4.55141,1.25 h -5.51358 L 301.85887,66.258137 285.5,45.516274 285.22971,66.258137 284.95942,87 l -4.22971,8.7e-4 -4.22971,8.8e-4 z m 30.76847,-9.7986 C 315.13768,39.37322 319,33.893554 319,26.517541 319,17.83944 314.19364,11.336729 305.95493,8.868352 c -7.44371,-2.230191 -16.3972,2.493029 -20.07527,10.590278 -2.31875,5.104733 -2.31267,7.991181 0.0277,13.14466 4.29791,9.463881 13.1923,13.471032 21.86108,9.848982 z M 340,44.5 V 2 h 18 18 V 6.5 11 H 362 348 V 23.970975 36.94195 L 361.13712,37.220975 374.27423,37.5 374.38712,41.750759 374.5,46.001517 361.25,46.000759 348,46 V 62 78 H 363.5 379 V 82.5 87 H 359.5 340 Z M 472,49 V 11 H 462 452 V 6.5 2 h 24 24 V 6.5 11 h -10 -10 v 38 38 h -4 -4 z M 61.19803,54.25 61.5,22.5 64.172317,17.436545 C 69.71341,6.937384 79.5692,0.823529 90.953194,0.823529 c 9.253576,0 15.641646,2.858578 22.044976,9.864852 C 120.64833,19.058873 121,21.05822 121,56.181501 V 86 h -4 -4 V 70 54 H 91.5 70 v 16 16 h -4.55197 -4.55197 z m 51.79639,-17.5 C 112.9848,24.23492 109.21586,15.916342 101.5785,11.5534 92.969064,6.635152 83.478473,7.846981 76.781382,14.719679 71.406859,20.23513 70,24.435801 70,34.967881 V 44 H 91.5 113 Z M 134,56.181501 c 0,-35.123281 0.35167,-37.122628 8.00183,-45.49312 6.40333,-7.006274 12.7914,-9.864852 22.04498,-9.864852 11.61751,0 21.02557,5.856495 26.78959,16.676471 l 2.6636,5 0.30197,31.75 0.30197,31.75 -4.30197,-9.8e-4 L 185.5,85.99803 V 55.749017 C 185.5,26.62298 185.4195,25.349538 183.33023,21.447092 177.24659,10.083513 165.09329,5.429258 154.92485,10.56891 151.1073,12.498497 145.43214,19.198512 143.87069,23.619292 142.82946,26.567222 142.5,34.530451 142.5,56.749326 V 85.99865 l -4.25,6.8e-4 L 134,86 Z"
       id="path1" />
  </g>
</svg>
