<?xml version="1.0" encoding="UTF-8" standalone="no"?>
<!-- Created with Inkscape (http://www.inkscape.org/) -->

<svg
   width="90.613457mm"
   height="12.00002mm"
   viewBox="0 0 90.613457 12.00002"
   version="1.1"
   id="svg1"
   inkscape:version="1.3.2 (091e20ef0f, 2023-11-25)"
   sodipodi:docname="auto-adventurerealtime3d.svg"
   xmlns:inkscape="http://www.inkscape.org/namespaces/inkscape"
   xmlns:sodipodi="http://sodipodi.sourceforge.net/DTD/sodipodi-0.dtd"
   xmlns="http://www.w3.org/2000/svg"
   xmlns:svg="http://www.w3.org/2000/svg">
  <sodipodi:namedview
     id="namedview1"
     pagecolor="#505050"
     bordercolor="#eeeeee"
     borderopacity="1"
     inkscape:showpageshadow="0"
     inkscape:pageopacity="0"
     inkscape:pagecheckerboard="0"
     inkscape:deskcolor="#505050"
     inkscape:document-units="mm"
     showgrid="true"
     inkscape:zoom="2.19328"
     inkscape:cx="158.4385"
     inkscape:cy="-159.80632"
     inkscape:window-width="2560"
     inkscape:window-height="1440"
     inkscape:window-x="1920"
     inkscape:window-y="0"
     inkscape:window-maximized="1"
     inkscape:current-layer="layer1">
    <inkscape:grid
       id="grid1"
       units="mm"
       originx="23.044133"
       originy="2.0522695"
       spacingx="0.99999998"
       spacingy="1"
       empcolor="#0099e5"
       empopacity="0.30196078"
       color="#0099e5"
       opacity="0.14901961"
       empspacing="5"
       dotted="false"
       gridanglex="30"
       gridanglez="30"
       visible="true" />
  </sodipodi:namedview>
  <defs
     id="defs1" />
  <g
     inkscape:label="Calque 1"
     inkscape:groupmode="layer"
     id="layer1"
     transform="translate(23.044132,2.0522696)">
    <path
       d="m -18.640467,9.9477504 q -2.091741,0 -4.403665,-0.55046 l 0.422018,-2.55045 q 1.596328,0.34862 3.321097,0.34862 1.266053,0 1.83486,-0.12844 v -1.79816 l -3.155959,-0.47706 v -1.70642 l 3.155959,-0.53211 V 0.82850037 q -0.513761,-0.12844 -1.669723,-0.12844 -0.78899,0 -1.669722,0.0917 -0.880733,0.0917 -1.596329,0.25688003 l -0.440366,-2.53211 q 2.275226,-0.5688 4.385316,-0.5688 2.275226,0 3.357793,0.73394 1.100916,0.71559997 1.100916,2.23852997 0,2.09174003 -1.724768,2.97247003 v 0.0917 q 1.724768,0.73394 1.724768,2.71559 0,1.70642 -1.119264,2.47706 -1.100916,0.77064 -3.522931,0.77064 z m 11.2660255,-11.72475 q 2.1100878,0 3.2110035,0.49541 1.100916,0.49540997 1.541283,1.70641997 0.458715,1.21101003 0.458715,3.54128003 0,2.33027 -0.458715,3.54128 -0.440367,1.21101 -1.541283,1.70642 -1.1009157,0.47706 -3.2110035,0.47706 h -4.8807265 v -11.46787 z m -1.6513731,8.93576 h 1.9449508 q 0.8073374,0 1.1192634,-0.25688 0.3119257,-0.27522 0.3119257,-0.95412 v -3.98165 q 0,-0.6789 -0.3119257,-0.93578 -0.311926,-0.27523003 -1.1192634,-0.27523003 h -1.9449508 z"
       id="text1"
       style="font-weight:bold;font-size:18.3486px;font-family:Changa;-inkscape-font-specification:'Changa, Bold';fill:#306230;stroke-width:0.573394"
       aria-label="3D" />
    <path
       d="m 5.8095759,6.5227406 h -2.2625 l -0.3125,1.2375 H 0.73457587 L 2.7345759,-0.05225945 h 3.8875 l 2,7.81250005 h -2.5 z m -0.475,-1.8125 -0.6,-2.3625 h -0.1125 l -0.6,2.3625 z m 7.4625091,-4.76250005 q 1.475,0 2.2625,0.35 0.7875,0.3375 1.1125,1.17500005 0.325,0.825 0.325,2.3875 0,1.5625 -0.325,2.3875 -0.325,0.825 -1.1125,1.175 -0.7875,0.3375 -2.2625,0.3375 H 9.3095852 v -7.81250005 z m -0.9875,5.86250005 h 1.025 q 0.55,0 0.7625,-0.1625 0.2125,-0.175 0.2125,-0.625 v -2.3375 q 0,-0.45 -0.2125,-0.6125 -0.2125,-0.175 -0.7625,-0.175 h -1.025 z m 7.625009,-5.86250005 1.2625,5.41250005 h 0.1125 l 1.2625,-5.41250005 h 2.5 l -1.875,7.81250005 h -3.8875 l -1.875,-7.81250005 z m 8.325002,5.75000005 h 2.9375 v 2.0625 h -5.4375 v -7.81250005 h 5.5 l -0.3125,2.06250005 h -2.6875 v 0.9375 h 2.5 v 1.8125 h -2.5 z m 4.062508,-5.75000005 h 2.475 l 1.7,2.73750005 q 0.3125,0.525 0.3125,0.8875 h 0.075 v -3.62500005 h 2.5 V 7.7602406 h -2.475 l -1.7,-2.7375 q -0.3125,-0.525 -0.3125,-0.8875 h -0.075 v 3.625 h -2.5 z M 43.884593,7.7602406 h -2.5 v -5.75 h -1.75 v -2.06250005 h 6 V 2.0102406 h -1.75 z m 5.7625,0.1875 q -1.4,0 -2.125,-0.2625 -0.725,-0.275 -1.025,-0.925 -0.3,-0.6625 -0.3,-1.925 v -4.88750005 h 2.5 V 5.8102406 h 1 q 0.5625,0 0.7375,-0.125 0.1875,-0.1375 0.1875,-0.5375 v -5.20000005 h 2.5 V 4.8352406 q 0,1.25 -0.3,1.9125 -0.3,0.6625 -1.0375,0.9375 -0.7375,0.2625 -2.1375,0.2625 z m 8.825007,-0.1875 -1.0625,-2.2625 h -0.6625 v 2.2625 h -2.5 v -7.81250005 h 3.625 q 1.6,0 2.3,0.675 0.7,0.67500005 0.7,2.21250005 0,1.6125 -0.9625,2.225 l 1.275,2.7 z m -1.725,-4.075 h 1.0125 q 0.275,0 0.375,-0.1125 0.1125,-0.1125 0.1125,-0.4125 v -0.625 q 0,-0.3 -0.1125,-0.4125 -0.1,-0.1125 -0.375,-0.1125 h -1.0125 z m 7.8125,2.0125 h 2.9375 v 2.0625 h -5.4375 v -7.81250005 h 5.5 L 67.2471,2.0102406 h -2.6875 v 0.9375 h 2.5 v 1.8125 h -2.5 z"
       id="text2"
       style="font-weight:800;font-size:12.5px;font-family:Changa;-inkscape-font-specification:'Changa, Ultra-Bold';fill:#306230;stroke-width:0.390624"
       transform="skewX(-10.540762)"
       aria-label="ADVENTURE" />
  </g>
</svg>
