<?xml version="1.0" encoding="UTF-8" standalone="no"?>
<!-- Created with Inkscape (http://www.inkscape.org/) -->

<svg
   width="34.683502mm"
   height="8.000001mm"
   viewBox="0 0 34.683502 8.0000011"
   version="1.1"
   id="svg1"
   inkscape:version="1.3.2 (091e20ef0f, 2023-11-25)"
   sodipodi:docname="auto-adventureinteractivemovie.svg"
   xmlns:inkscape="http://www.inkscape.org/namespaces/inkscape"
   xmlns:sodipodi="http://sodipodi.sourceforge.net/DTD/sodipodi-0.dtd"
   xmlns="http://www.w3.org/2000/svg"
   xmlns:svg="http://www.w3.org/2000/svg">
  <sodipodi:namedview
     id="namedview1"
     pagecolor="#505050"
     bordercolor="#eeeeee"
     borderopacity="1"
     inkscape:showpageshadow="0"
     inkscape:pageopacity="0"
     inkscape:pagecheckerboard="0"
     inkscape:deskcolor="#505050"
     inkscape:document-units="mm"
     showgrid="true"
     inkscape:zoom="2.19328"
     inkscape:cx="190.58214"
     inkscape:cy="99.394514"
     inkscape:window-width="1264"
     inkscape:window-height="1389"
     inkscape:window-x="3204"
     inkscape:window-y="8"
     inkscape:window-maximized="1"
     inkscape:current-layer="layer1">
    <inkscape:grid
       id="grid1"
       units="mm"
       originx="10.336859"
       originy="-9.1182563"
       spacingx="0.99999998"
       spacingy="1"
       empcolor="#0099e5"
       empopacity="0.30196078"
       color="#0099e5"
       opacity="0.14901961"
       empspacing="5"
       dotted="false"
       gridanglex="30"
       gridanglez="30"
       visible="true" />
  </sodipodi:namedview>
  <defs
     id="defs1" />
  <g
     inkscape:label="Calque 1"
     inkscape:groupmode="layer"
     id="layer1"
     transform="translate(10.33686,-9.1182555)">
    <text
       xml:space="preserve"
       style="font-weight:800;font-size:12.8px;font-family:Changa;-inkscape-font-specification:'Changa, Ultra-Bold';fill:#306230;stroke-width:0.399999"
       x="1.6722275"
       y="17.118256"
       id="text1"
       transform="skewX(-9.9962936)"><tspan
         sodipodi:role="line"
         id="tspan1"
         style="stroke-width:0.399999"
         x="1.6722275"
         y="17.118256">FMV</tspan></text>
    <!--!Font Awesome Free 6.5.1 by @fontawesome - https://fontawesome.com License - https://fontawesome.com/license/free Copyright 2024 Fonticons, Inc.-->
    <path
       d="m -10.33686,10.261112 c 0,-0.630356 0.5124997,-1.1428558 1.1428574,-1.1428558 h 6.8571368 c 0.6303563,0 1.1428564,0.5124998 1.1428564,1.1428558 v 5.714291 c 0,0.630353 -0.5125001,1.142853 -1.1428564,1.142853 h -6.8571368 c -0.6303577,0 -1.1428574,-0.5125 -1.1428574,-1.142853 z m 0.8571427,4.857145 v 0.571433 c 0,0.15714 0.1285707,0.285713 0.2857147,0.285713 h 0.5714267 c 0.157144,0 0.2857147,-0.128573 0.2857147,-0.285713 v -0.571433 c 0,-0.15714 -0.1285707,-0.285714 -0.2857147,-0.285714 h -0.5714267 c -0.157144,0 -0.2857147,0.128574 -0.2857147,0.285714 z m 6.5714235,-0.285714 c -0.1571438,0 -0.2857144,0.128574 -0.2857144,0.285714 v 0.571433 c 0,0.15714 0.1285706,0.285713 0.2857144,0.285713 h 0.571428 c 0.1571433,0 0.2857139,-0.128573 0.2857139,-0.285713 v -0.571433 c 0,-0.15714 -0.1285706,-0.285714 -0.2857139,-0.285714 z m -6.5714235,-1.999999 v 0.571427 c 0,0.157139 0.1285707,0.285713 0.2857147,0.285713 h 0.5714267 c 0.157144,0 0.2857147,-0.128574 0.2857147,-0.285713 v -0.571427 c 0,-0.15714 -0.1285707,-0.285713 -0.2857147,-0.285713 h -0.5714267 c -0.157144,0 -0.2857147,0.128573 -0.2857147,0.285713 z m 6.5714235,-0.285713 c -0.1571438,0 -0.2857144,0.128573 -0.2857144,0.285713 v 0.571427 c 0,0.157139 0.1285706,0.285713 0.2857144,0.285713 h 0.571428 c 0.1571433,0 0.2857139,-0.128574 0.2857139,-0.285713 v -0.571427 c 0,-0.15714 -0.1285706,-0.285713 -0.2857139,-0.285713 z m -6.5714235,-2.000006 v 0.571433 c 0,0.157147 0.1285707,0.28572 0.2857147,0.28572 h 0.5714267 c 0.157144,0 0.2857147,-0.128573 0.2857147,-0.28572 v -0.571433 c 0,-0.15714 -0.1285707,-0.285713 -0.2857147,-0.285713 h -0.5714267 c -0.157144,0 -0.2857147,0.128573 -0.2857147,0.285713 z m 6.5714235,-0.285713 c -0.1571438,0 -0.2857144,0.128573 -0.2857144,0.285713 v 0.571433 c 0,0.157147 0.1285706,0.28572 0.2857144,0.28572 h 0.571428 c 0.1571433,0 0.2857139,-0.128573 0.2857139,-0.28572 v -0.571433 c 0,-0.15714 -0.1285706,-0.285713 -0.2857139,-0.285713 z m -4.5714247,0.571426 v 1.142866 c 0,0.316074 0.2553567,0.571427 0.5714277,0.571427 h 2.2857115 c 0.316072,0 0.5714285,-0.255353 0.5714285,-0.571427 v -1.142866 c 0,-0.31606 -0.2553565,-0.571426 -0.5714285,-0.571426 h -2.2857115 c -0.316071,0 -0.5714277,0.255366 -0.5714277,0.571426 z m 0.5714277,2.857146 c -0.316071,0 -0.5714277,0.25536 -0.5714277,0.571426 v 1.142866 c 0,0.316067 0.2553567,0.571427 0.5714277,0.571427 h 2.2857115 c 0.316072,0 0.5714285,-0.25536 0.5714285,-0.571427 V 14.26111 c 0,-0.316066 -0.2553565,-0.571426 -0.5714285,-0.571426 z"
       id="path1"
       style="fill:#306230;stroke-width:0.0178571" />
  </g>
</svg>
