<?xml version="1.0" encoding="UTF-8" standalone="no"?>
<!-- Created with Inkscape (http://www.inkscape.org/) -->

<svg
   width="200mm"
   height="40mm"
   viewBox="0 0 199.99999 39.999998"
   version="1.1"
   id="svg1"
   inkscape:version="1.3.2 (091e20ef0f, 2023-11-25)"
   sodipodi:docname="auto-actionplatformshooter.svg"
   xmlns:inkscape="http://www.inkscape.org/namespaces/inkscape"
   xmlns:sodipodi="http://sodipodi.sourceforge.net/DTD/sodipodi-0.dtd"
   xmlns="http://www.w3.org/2000/svg"
   xmlns:svg="http://www.w3.org/2000/svg">
  <sodipodi:namedview
     id="namedview1"
     pagecolor="#505050"
     bordercolor="#eeeeee"
     borderopacity="1"
     inkscape:showpageshadow="0"
     inkscape:pageopacity="0"
     inkscape:pagecheckerboard="0"
     inkscape:deskcolor="#505050"
     inkscape:document-units="mm"
     inkscape:zoom="0.6592648"
     inkscape:cx="55.364703"
     inkscape:cy="-119.07203"
     inkscape:window-width="2560"
     inkscape:window-height="1440"
     inkscape:window-x="1920"
     inkscape:window-y="0"
     inkscape:window-maximized="1"
     inkscape:current-layer="layer1"
     showgrid="true">
    <inkscape:grid
       id="grid1"
       units="mm"
       originx="-51.903671"
       originy="6.1072903"
       spacingx="1"
       spacingy="0.99999998"
       empcolor="#0099e5"
       empopacity="0.30196078"
       color="#0099e5"
       opacity="0.14901961"
       empspacing="5"
       dotted="false"
       gridanglex="30"
       gridanglez="30"
       visible="true" />
  </sodipodi:namedview>
  <defs
     id="defs1" />
  <g
     inkscape:label="Calque 1"
     inkscape:groupmode="layer"
     id="layer1"
     transform="translate(-113.90958,-90.682016)">
    <!--!Font Awesome Free 6.5.1 by @fontawesome - https://fontawesome.com License - https://fontawesome.com/license/free Copyright 2024 Fonticons, Inc.-->
    <g
       id="g2"
       transform="matrix(4.6010821,0,0,4.6010821,-400.62825,-326.05338)">
      <path
         d="m 123.33814,91.348722 c 0,-0.2375 -0.19108,-0.428573 -0.42858,-0.428573 -0.23749,0 -0.42856,0.191073 -0.42856,0.428573 v 0.142858 h -7.99999 c -0.31608,0 -0.57143,0.255359 -0.57143,0.571424 v 2.000006 c 0,0.31606 0.25535,0.571421 0.57143,0.571421 h 0.17856 c 0.37142,0 0.64465,0.350001 0.55357,0.710716 l -0.71428,2.864291 c -0.0429,0.171421 -0.003,0.351772 0.10358,0.491062 0.10714,0.139289 0.2732,0.219649 0.44998,0.219649 h 1.71429 c 0.2625,0 0.49107,-0.178578 0.55357,-0.432146 l 0.4643,-1.853567 h 1.86427 c 0.42321,0 0.80001,-0.266071 0.94107,-0.664284 l 0.47857,-1.335721 h 0.55536 c 0.15179,0 0.29643,-0.06074 0.40357,-0.167855 l 0.40536,-0.403566 h 1.19107 c 0.31607,0 0.57143,-0.255355 0.57143,-0.571434 v -1.428572 c 0,-0.316065 -0.25536,-0.571424 -0.57143,-0.571424 h -0.28571 z m -3.68929,4.428566 h -1.64999 l 0.2857,-1.142857 h 1.87501 l -0.37501,1.04822 c -0.0196,0.05717 -0.075,0.09464 -0.13392,0.09464 z m -4.31071,-3.142853 h 6.85713 c 0.15716,0 0.28573,0.128572 0.28573,0.285713 0,0.15715 -0.12857,0.285712 -0.28573,0.285712 h -6.85713 c -0.15714,0 -0.28572,-0.128562 -0.28572,-0.285712 0,-0.157141 0.12858,-0.285713 0.28572,-0.285713 z"
         id="path1"
         style="fill:#306230;stroke-width:0.017857" />
      <g
         id="g1"
         transform="translate(0,-0.1058075)">
        <path
           d="m 125.96525,94.69622 h -1.22137 l 0.86485,-3.816794 h 1.74046 q 0.78167,0 1.04893,0.329772 0.26726,0.329771 0.0971,1.080915 -0.17158,0.757252 -0.59049,1.123664 -0.41751,0.360306 -1.1198,0.360306 h -0.61069 z m 0.87372,-1.807633 q 0.13436,0 0.19566,-0.05496 0.0674,-0.05496 0.10062,-0.201527 l 0.11071,-0.488549 q 0.0332,-0.146566 -0.009,-0.201527 -0.0363,-0.05496 -0.17076,-0.05496 h -0.46412 l -0.22693,1.001527 z m 2.37281,-2.009161 h 1.22138 l -0.63653,2.809161 h 1.16031 l -0.22832,1.007633 h -2.38169 z m 3.87062,3.212214 h -1.10534 l -0.28967,0.60458 h -1.22137 l 1.84195,-3.816794 h 1.89923 l 0.11226,3.816794 h -1.22138 z m -0.0314,-0.885496 -0.0316,-1.154198 h -0.055 l -0.55466,1.154198 z m 3.19214,1.490076 h -1.22139 l 0.63653,-2.80916 h -0.85495 l 0.22832,-1.007634 h 2.93129 l -0.22832,1.007634 h -0.85496 z m 2.41221,0 h -1.22137 l 0.86484,-3.816794 h 2.50382 l -0.38099,1.007634 h -1.12978 l -0.13149,0.580153 h 1.03818 l -0.20065,0.885496 h -1.03817 z m 1.95844,-1.905344 q 0.17436,-0.769465 0.44221,-1.196946 0.26924,-0.433588 0.70159,-0.616794 0.43984,-0.189313 1.14213,-0.189313 0.70229,0 1.05024,0.189313 0.35543,0.183206 0.42818,0.616794 0.0741,0.427481 -0.10023,1.196946 -0.17435,0.769467 -0.4422,1.196947 -0.26786,0.427481 -0.7077,0.616794 -0.43235,0.183206 -1.13465,0.183206 -0.70228,0 -1.05772,-0.183206 -0.34794,-0.189313 -0.42208,-0.616794 -0.0741,-0.42748 0.10023,-1.196947 z m 1.65284,0.952673 q 0.27481,0 0.39385,-0.06717 0.12042,-0.07328 0.16193,-0.256489 l 0.35978,-1.587786 h -0.56183 q -0.26871,0 -0.38913,0.07328 -0.11904,0.06717 -0.16055,0.250382 l -0.35977,1.587786 z m 4.13222,0.952671 -0.26862,-1.105343 h -0.32367 l -0.25045,1.105343 h -1.22138 l 0.86485,-3.816794 h 1.77099 q 0.78169,0 1.04894,0.329772 0.26726,0.329771 0.0971,1.080915 -0.1785,0.787787 -0.71653,1.087023 l 0.32401,1.319084 z m -0.39164,-1.990839 h 0.49466 q 0.13435,0 0.19566,-0.05496 0.0674,-0.05496 0.10062,-0.201527 l 0.0692,-0.305343 q 0.0332,-0.146566 -0.009,-0.201527 -0.0363,-0.05496 -0.17076,-0.05496 h -0.49466 z m 3.14962,-1.825955 h 1.53282 l 0.0363,1.941984 h 0.0428 l 0.91637,-1.941984 h 1.53282 l -0.63278,3.816794 h -1.21527 l 0.32156,-1.850381 h -0.0428 l -0.85897,1.850381 h -0.9343 l -0.0265,-1.850381 h -0.0367 l -0.51699,1.850381 h -1.21526 z"
           id="text1"
           style="font-weight:800;font-size:8.46667px;font-family:Changa;-inkscape-font-specification:'Changa, Ultra-Bold';fill:#306230;stroke-width:0.190839"
           aria-label="PLATFORM" />
        <path
           d="m 125.17185,98.03662 q 0.56084,0.19542 1.18984,0.19542 0.31145,0 0.50244,-0.0305 l 0.0857,-0.33588 -0.53715,-0.0489 q -0.46543,-0.0427 -0.71974,-0.17099 -0.24665,-0.13435 -0.3126,-0.37862 -0.0659,-0.24428 0.0337,-0.63511 0.13084,-0.51297 0.35216,-0.8061 0.22288,-0.29924 0.57925,-0.427476 0.36403,-0.134353 0.93807,-0.134353 0.75114,0 1.38838,0.183203 l -0.40187,0.977096 q -0.30043,-0.0672 -0.51404,-0.0916 -0.21206,-0.0305 -0.44411,-0.0305 -0.31145,0 -0.50855,0.0305 l -0.0841,0.32976 0.42878,0.0427 q 0.72635,0.0733 0.9798,0.37252 0.26112,0.29313 0.11159,0.87938 -0.17288,0.67786 -0.6447,0.99541 -0.47027,0.31145 -1.31301,0.31145 -0.86718,0 -1.53781,-0.21985 z m 7.5478,-2.680892 -0.97344,3.816752 h -1.22136 l 0.3738,-1.46563 h -0.91602 l -0.3738,1.46563 h -1.22137 l 0.97344,-3.816752 h 1.22136 l -0.3738,1.465632 h 0.91602 l 0.3738,-1.465632 z m 5e-4,1.911432 q 0.19624,-0.76946 0.47626,-1.19693 0.28157,-0.43359 0.71913,-0.616796 0.44522,-0.189308 1.14751,-0.189308 0.70228,0 1.04484,0.189308 0.35022,0.183206 0.41063,0.616796 0.062,0.42747 -0.13429,1.19693 -0.19624,0.76946 -0.47625,1.19694 -0.28002,0.42747 -0.72524,0.61678 -0.43756,0.18321 -1.13985,0.18321 -0.70229,0 -1.0525,-0.18321 -0.34256,-0.18931 -0.40452,-0.61678 -0.062,-0.42748 0.13428,-1.19694 z m 1.62571,0.95266 q 0.2748,0 0.39575,-0.0671 0.12252,-0.0733 0.16924,-0.25649 l 0.40495,-1.58776 h -0.56182 q -0.26871,0 -0.39121,0.0733 -0.12095,0.0671 -0.16768,0.25037 l -0.40495,1.58777 z m 2.40478,-0.95266 q 0.19625,-0.76946 0.47627,-1.19693 0.28157,-0.43359 0.71912,-0.616796 0.44524,-0.189308 1.14751,-0.189308 0.70229,0 1.04484,0.189308 0.35022,0.183206 0.41064,0.616796 0.062,0.42747 -0.1343,1.19693 -0.19624,0.76946 -0.47624,1.19694 -0.28003,0.42747 -0.72525,0.61678 -0.43756,0.18321 -1.13985,0.18321 -0.70228,0 -1.0525,-0.18321 -0.34255,-0.18931 -0.40451,-0.61678 -0.062,-0.42748 0.13427,-1.19694 z m 1.62572,0.95266 q 0.2748,0 0.39575,-0.0671 0.12251,-0.0733 0.16923,-0.25649 l 0.40495,-1.58776 h -0.56182 q -0.26871,0 -0.39121,0.0733 -0.12094,0.0671 -0.16768,0.25037 l -0.40494,1.58777 z m 3.72035,0.95266 h -1.22137 l 0.71645,-2.80912 h -0.85495 l 0.25698,-1.007632 h 2.93127 l -0.25698,1.007632 h -0.85495 z m 2.66918,-1.00762 h 1.4351 l -0.25699,1.00762 h -2.65647 l 0.97343,-3.816752 h 2.68701 l -0.40966,1.007632 h -1.31296 l -0.11682,0.458 h 1.22136 l -0.22584,0.88549 h -1.22135 z m 3.76129,1.00762 -0.23717,-1.10533 h -0.32366 l -0.28191,1.10533 h -1.22136 l 0.97343,-3.816752 h 1.77098 q 0.78167,0 1.03954,0.329772 0.25788,0.32976 0.0663,1.0809 -0.20092,0.78778 -0.74746,1.08701 l 0.28648,1.31907 z m -0.335,-1.99081 h 0.49465 q 0.13435,0 0.19723,-0.055 0.069,-0.055 0.10636,-0.20152 l 0.0779,-0.30534 q 0.0374,-0.14656 -0.004,-0.20152 -0.0349,-0.055 -0.16919,-0.055 h -0.49465 z"
           id="text2"
           style="font-weight:800;font-size:8.46667px;font-family:Changa;-inkscape-font-specification:'Changa, Ultra-Bold';fill:#306230;stroke-width:0.190837"
           aria-label="SHOOTER" />
      </g>
    </g>
  </g>
</svg>
