<?xml version="1.0" encoding="UTF-8" standalone="no"?>
<!-- Created with Inkscape (http://www.inkscape.org/) -->

<svg
   version="1.1"
   id="svg1"
   width="593.55975"
   height="209.68834"
   viewBox="0 0 593.55975 209.68834"
   sodipodi:docname="logo.png"
   xmlns:inkscape="http://www.inkscape.org/namespaces/inkscape"
   xmlns:sodipodi="http://sodipodi.sourceforge.net/DTD/sodipodi-0.dtd"
   xmlns="http://www.w3.org/2000/svg"
   xmlns:svg="http://www.w3.org/2000/svg">
  <defs
     id="defs1" />
  <sodipodi:namedview
     id="namedview1"
     pagecolor="#306230"
     bordercolor="#000000"
     borderopacity="0.25"
     inkscape:showpageshadow="2"
     inkscape:pageopacity="0.0"
     inkscape:pagecheckerboard="0"
     inkscape:deskcolor="#d1d1d1" />
  <g
     inkscape:groupmode="layer"
     inkscape:label="Image"
     id="g1"
     transform="translate(-6.1527715,-46.118637)">
    <path
       style="fill:#306230"
       d="M 28.204958,254.10959 C 14.380895,249.32472 4.9854709,235.12503 6.2700492,220.95847 7.2971378,209.63156 14.428862,199.39232 24.858493,194.27047 L 30.5,191.5 271,191.15614 c 209.47915,-0.29951 239.50206,-0.52379 232.76316,-1.73884 -18.504,-3.33634 -31.87315,-10.30686 -44.91866,-23.42005 -7.26861,-7.30632 -9.37624,-10.20634 -13.15357,-18.09883 C 443.217,142.72929 440.60923,136.025 439.8959,133 c -1.84192,-7.81097 -1.61297,-23.17057 0.4621,-31 6.61308,-24.95184 27.49045,-45.175364 54.76999,-53.054661 10.5808,-3.05611 29.74875,-3.757095 40.94542,-1.497401 47.29613,9.545226 74.73759,53.155062 59.34796,94.315502 -6.3887,17.08694 -22.69686,33.71924 -40.99801,41.81287 -6.05369,2.67723 -19.60804,6.32645 -24.58997,6.62032 -1.83337,0.10814 6.56661,0.44564 18.66661,0.75 21.47979,0.54028 22.1334,0.61888 27.64151,3.32384 6.59237,3.23742 13.14939,9.94486 16.18265,16.55386 3.0093,6.55683 3.0093,18.79451 0,25.35134 -3.03326,6.609 -9.59028,13.31644 -16.18265,16.55386 L 570.5,255.5 302,255.72117 c -258.058373,0.21257 -268.705918,0.1499 -273.795042,-1.61158 z m 52.381423,-7.23566 c 2.459611,-0.61934 5.80888,-2.37488 7.44282,-3.90121 C 90.572318,240.5971 91,239.46355 91,235.09879 V 230 h -7 -7 v 3.87756 c 0,2.13265 -0.634847,4.40443 -1.41077,5.04839 -2.121184,1.76042 -7.73575,2.37146 -10.83923,1.17963 L 62,239.0495 V 224 208.9505 l 2.75,-1.05608 c 3.10348,-1.19183 8.718046,-0.58079 10.83923,1.17963 C 76.365153,209.71801 77,211.53979 77,213.12244 V 216 h 7 7 v -3.86514 c 0,-8.73596 -8.193872,-12.6659 -24.887058,-11.93634 -10.874541,0.47527 -16.870491,2.77918 -18.915881,7.26832 -1.790729,3.93023 -1.60923,29.83543 0.234008,33.39986 1.236711,2.39154 4.89624,4.63751 10.568931,6.48649 2.925875,0.95367 18.181236,0.62997 22.586381,-0.47926 z M 291.76356,246.47758 C 297.76584,244.69509 301,241.18106 301,236.44187 c 0,-5.12418 -3.97762,-8.84705 -15.45767,-14.46769 -11.31812,-5.54136 -13.86823,-7.65967 -13.37269,-11.10834 0.42284,-2.94271 5.44304,-4.55065 10.08036,-3.22867 2.50402,0.71382 3.32263,1.55039 3.56642,3.64466 0.31261,2.68541 0.40602,2.71817 7.75,2.71817 H 301 v -2.92308 c 0,-3.99462 -4.72537,-8.51853 -10.38696,-9.94414 -5.65004,-1.42269 -18.89823,-1.45897 -23.91634,-0.0655 -5.80929,1.61319 -10.0967,5.93439 -10.0967,10.17628 0,5.76254 2.47282,8.12494 15.40733,14.71935 12.86902,6.56102 15.91195,9.54636 12.85076,12.60755 -2.03222,2.03222 -7.75442,2.82301 -11.10809,1.5351 -2.16113,-0.82993 -2.75,-1.70379 -2.75,-4.08083 V 233 h -7.5 c -7.37229,0 -7.5,0.0434 -7.5,2.54966 0,5.58094 4.33727,10.0071 11.5,11.73568 4.65509,1.12341 19.41525,0.63203 24.26356,-0.80776 z m 69,0 C 366.76584,244.69509 370,241.18106 370,236.44187 c 0,-5.12418 -3.97762,-8.84705 -15.45767,-14.46769 -11.31812,-5.54136 -13.86823,-7.65967 -13.37269,-11.10834 0.42284,-2.94271 5.44304,-4.55065 10.08036,-3.22867 2.50402,0.71382 3.32263,1.55039 3.56642,3.64466 0.31261,2.68541 0.40602,2.71817 7.75,2.71817 H 370 v -2.92308 c 0,-3.99462 -4.72537,-8.51853 -10.38696,-9.94414 -5.65004,-1.42269 -18.89823,-1.45897 -23.91634,-0.0655 -5.80929,1.61319 -10.0967,5.93439 -10.0967,10.17628 0,5.76254 2.47282,8.12494 15.40733,14.71935 12.86902,6.56102 15.91195,9.54636 12.85076,12.60755 -2.03222,2.03222 -7.75442,2.82301 -11.10809,1.5351 -2.16113,-0.82993 -2.75,-1.70379 -2.75,-4.08083 V 233 h -7.5 c -7.37229,0 -7.5,0.0434 -7.5,2.54966 0,5.58094 4.33727,10.0071 11.5,11.73568 4.65509,1.12341 19.41525,0.63203 24.26356,-0.80776 z m 112.82282,0.39635 c 2.45961,-0.61934 5.80888,-2.37488 7.44282,-3.90121 C 483.57232,240.5971 484,239.46355 484,235.09879 V 230 h -7 -7 v 3.87756 c 0,2.13265 -0.63485,4.40443 -1.41077,5.04839 -2.12118,1.76042 -7.73575,2.37146 -10.83923,1.17963 L 455,239.0495 V 224 208.9505 l 2.75,-1.05608 c 3.10348,-1.19183 8.71805,-0.58079 10.83923,1.17963 0.77592,0.64396 1.41077,2.46574 1.41077,4.04839 V 216 h 7 7 v -3.86514 c 0,-8.73596 -8.19387,-12.6659 -24.88706,-11.93634 -10.87454,0.47527 -16.87049,2.77918 -18.91588,7.26832 -1.79073,3.93023 -1.60923,29.83543 0.23401,33.39986 1.23671,2.39154 4.89624,4.63751 10.56893,6.48649 2.92587,0.95367 18.18124,0.62997 22.58638,-0.47926 z m 73.17718,-0.39635 C 552.76584,244.69509 556,241.18106 556,236.44187 c 0,-5.12418 -3.97762,-8.84705 -15.45767,-14.46769 -11.31812,-5.54136 -13.86823,-7.65967 -13.37269,-11.10834 0.42284,-2.94271 5.44304,-4.55065 10.08036,-3.22867 2.50402,0.71382 3.32263,1.55039 3.56642,3.64466 0.31261,2.68541 0.40602,2.71817 7.75,2.71817 H 556 v -2.92308 c 0,-3.99462 -4.72537,-8.51853 -10.38696,-9.94414 -5.65004,-1.42269 -18.89823,-1.45897 -23.91634,-0.0655 -5.80929,1.61319 -10.0967,5.93439 -10.0967,10.17628 0,5.76254 2.47282,8.12494 15.40733,14.71935 12.86902,6.56102 15.91195,9.54636 12.85076,12.60755 -2.03222,2.03222 -7.75442,2.82301 -11.10809,1.5351 -2.16113,-0.82993 -2.75,-1.70379 -2.75,-4.08083 V 233 h -7.5 c -7.37229,0 -7.5,0.0434 -7.5,2.54966 0,5.58094 4.33727,10.0071 11.5,11.73568 4.65509,1.12341 19.41525,0.63203 24.26356,-0.80776 z M 161,243.5 V 240 H 148.5 136 v -20 -20 h -8 -8 v 23.5 23.5 h 20.5 20.5 z m 35.90505,-1.03721 1.14249,-4.53721 9.19655,0.28721 9.19656,0.28721 1.11693,4 1.11693,4 7.66275,0.29206 c 4.2145,0.16064 7.6537,-0.0644 7.64265,-0.5 C 233.96886,245.85643 230.6831,235.375 226.67822,223 L 219.39663,200.5 207.94831,200.23795 196.5,199.9759 188.87632,223.48795 181.25265,247 h 7.25496 7.25496 z M 201.55898,227.25 c 0.80483,-2.6125 2.18841,-7.225 3.07464,-10.25 0.88622,-3.025 1.84971,-5.90538 2.14109,-6.40085 0.38348,-0.65206 7.18768,19.27836 7.22086,21.15085 0.002,0.1375 -3.12405,0.25 -6.94774,0.25 h -6.95217 z M 412,223.5 V 200 h -8 -8 v 23.5 23.5 h 8 8 z m 118.88822,-57.56054 c 16.53853,-3.81275 31.11921,-18.35261 35.58059,-35.48101 6.50031,-24.9564 -8.61356,-51.59321 -33.40031,-58.86499 -7.59094,-2.22698 -21.31292,-2.0844 -28.97754,0.3011 -15.96356,4.96842 -28.67322,18.75191 -32.58332,35.33628 -6.01182,25.49865 9.25097,51.38922 34.3793,58.31829 5.63735,1.55448 19.04364,1.76379 25.00128,0.39033 z"
       id="path1" />
    <path
       style="fill:#306230"
       d="M 271.6275,56.53183 C 254.79121,50.530405 249.90439,28.887329 262.65842,16.808951 275.0967,5.02959 296.19936,9.318357 302.75154,24.957215 304.94203,30.18552 304.6026,39.123738 302.01021,44.478914 296.82182,55.1967 283.12509,60.630236 271.6275,56.53183 Z"
       id="path7" />
    <path
       style="fill:#306230"
       d="M 265,137 V 71 h 16 16 v 66 66 h -16 -16 z"
       id="path6" />
    <path
       style="fill:#306230"
       d="m 174.00855,197.25 c 0.0129,-8.68894 1.815,-27.69451 3.53198,-37.25 4.15886,-23.14528 15.76388,-49.72973 25.59808,-58.63939 L 205.5,99.22122 233.64412,151.11061 261.78824,203 H 217.89412 174 Z"
       id="path5" />
    <path
       style="fill:#306230"
       d="M 357,150.5 V 97 H 331.5 306 V 83.5 70 h 66.5 66.5 v 14 14 h -25 -25 v 53 53 h -16 -16 z"
       id="path4" />
    <path
       style="fill:#306230"
       d="m 97,203.48335 c 0,-0.28416 18.29393,-34.24638 40.65319,-75.47161 l 40.65318,-74.954954 9.59682,16.45521 C 193.18143,78.562362 197.95,85.96285 198.5,85.95752 c 0.55,-0.005 5.85973,-3.8144 11.7994,-8.464605 6.3881,-5.001288 14.55762,-10.278265 20,-12.918701 13.09835,-6.354824 15.37105,-6.697696 7.94146,-1.198095 -6.78788,5.024592 -19.59623,17.366411 -28.50961,27.471191 l -5.59894,6.34731 -2.60389,-5.13853 -2.60389,-5.13854 -2.87249,2.0454 c -5.28875,3.76592 -16.16033,16.36964 -23.29266,27.00384 -15.76171,23.50046 -28.44263,56.2807 -32.21783,83.28321 l -0.6641,4.75 H 118.43873 C 106.64743,204 97,203.76751 97,203.48335 Z"
       id="path3" />
    <path
       style="fill:#306230"
       d="M 51,150.5 V 97 H 25.5 0 V 83.5 70 h 67.02822 67.02822 L 133.77822,83.75 133.5,97.5 108.25,97.76717 83,98.03434 V 151.01717 204 H 67 51 Z"
       id="path2" />
  </g>
</svg>
