<?xml version="1.0" encoding="UTF-8" standalone="no"?>
<!-- Created with Inkscape (http://www.inkscape.org/) -->

<svg
   width="51.21505mm"
   height="8.2309999mm"
   viewBox="0 0 51.21505 8.2309998"
   version="1.1"
   id="svg1"
   sodipodi:docname="auto-rpgfirstpersonpartybased.svg"
   inkscape:version="1.3.2 (091e20ef0f, 2023-11-25)"
   xmlns:inkscape="http://www.inkscape.org/namespaces/inkscape"
   xmlns:sodipodi="http://sodipodi.sourceforge.net/DTD/sodipodi-0.dtd"
   xmlns="http://www.w3.org/2000/svg"
   xmlns:svg="http://www.w3.org/2000/svg">
  <sodipodi:namedview
     id="namedview1"
     pagecolor="#505050"
     bordercolor="#eeeeee"
     borderopacity="1"
     inkscape:showpageshadow="0"
     inkscape:pageopacity="0"
     inkscape:pagecheckerboard="0"
     inkscape:deskcolor="#505050"
     inkscape:document-units="mm"
     inkscape:zoom="0.53451178"
     inkscape:cx="243.2126"
     inkscape:cy="59.867717"
     inkscape:window-width="1264"
     inkscape:window-height="1389"
     inkscape:window-x="1928"
     inkscape:window-y="8"
     inkscape:window-maximized="1"
     inkscape:current-layer="layer1" />
  <defs
     id="defs1" />
  <g
     inkscape:label="Calque 1"
     inkscape:groupmode="layer"
     id="layer1"
     transform="translate(-56.663543,-38.697474)">
    <!--!Font Awesome Free 6.5.1 by @fontawesome - https://fontawesome.com License - https://fontawesome.com/license/free Copyright 2024 Fonticons, Inc.-->
    <path
       d="m 60.663543,38.813164 c -2.208333,0 -4,1.791667 -4,4 0,2.208333 1.791667,4 4,4 h 5.333334 c 2.208334,0 4,-1.791667 4,-4 0,-2.208333 -1.791666,-4 -4,-4 z m 6.333334,2.166667 a 0.83333339,0.83333339 0 1 1 0,1.666666 0.83333339,0.83333339 0 1 1 0,-1.666666 z m -2.166666,2.833333 a 0.83333331,0.83333331 0 1 1 1.666666,0 0.83333331,0.83333331 0 1 1 -1.666666,0 z m -4.666668,-2.166667 c 0,-0.277083 0.222917,-0.5 0.5,-0.5 0.277084,0 0.5,0.222917 0.5,0.5 v 0.666667 h 0.666667 c 0.277083,0 0.5,0.222917 0.5,0.5 0,0.277083 -0.222917,0.5 -0.5,0.5 h -0.666667 v 0.666667 c 0,0.277083 -0.222916,0.5 -0.5,0.5 -0.277083,0 -0.5,-0.222917 -0.5,-0.5 v -0.666667 h -0.666666 c -0.277084,0 -0.5,-0.222917 -0.5,-0.5 0,-0.277083 0.222916,-0.5 0.5,-0.5 h 0.666666 z"
       id="path1"
       style="fill:#306230;stroke-width:0.0208333" />
    <g
       id="g2"
       transform="translate(0,-0.2078095)">
      <path
         d="m 72.050704,42.726776 h -1.165756 l 0.72328,-3.642987 h 2.3898 l -0.336665,0.961748 H 72.583038 L 72.4731,40.599271 h 0.990893 l -0.167801,0.845173 h -0.990893 z m 3.462803,-3.642987 -0.72328,3.642987 h -1.165756 l 0.72328,-3.642987 z m 1.829722,3.642987 -0.285985,-1.055009 h -0.308925 l -0.209462,1.055009 h -1.165756 l 0.72328,-3.642987 h 1.690346 q 0.746084,0 1.010004,0.314754 0.26392,0.314754 0.121579,1.031694 -0.149285,0.751912 -0.654806,1.037523 l 0.34457,1.259016 z M 76.91612,40.826594 h 0.472131 q 0.128233,0 0.185279,-0.05246 0.06288,-0.05246 0.09065,-0.19235 l 0.05786,-0.291439 q 0.02777,-0.139891 -0.01427,-0.19235 -0.03621,-0.05246 -0.164449,-0.05246 H 77.07119 Z m 2.332703,0.816029 q 0.545846,0.186521 1.14621,0.186521 0.297268,0 0.477917,-0.02914 l 0.06365,-0.320583 -0.515332,-0.04663 q -0.446544,-0.0408 -0.696195,-0.163206 -0.242664,-0.128233 -0.318778,-0.361384 -0.07612,-0.233151 -0.0021,-0.606193 0.09721,-0.489618 0.292647,-0.769399 0.196596,-0.285611 0.529823,-0.408015 0.340215,-0.128233 0.88812,-0.128233 0.71694,0 1.335045,0.174863 l -0.330878,0.932605 q -0.290367,-0.06412 -0.495575,-0.08743 -0.20405,-0.02914 -0.425544,-0.02914 -0.297267,0 -0.483746,0.02914 l -0.06249,0.314754 0.411572,0.0408 q 0.697225,0.06994 0.955273,0.355556 0.265035,0.279781 0.15394,0.839344 -0.128455,0.646994 -0.561674,0.950091 -0.432061,0.297268 -1.236433,0.297268 -0.827686,0 -1.47965,-0.209836 z m 4.849957,1.084153 h -1.165753 l 0.532334,-2.681239 h -0.816029 l 0.190946,-0.961748 h 2.797812 l -0.190946,0.961748 h -0.81603 z m 3.46813,0 h -1.16576 l 0.72328,-3.642987 h 1.66121 q 0.74608,0 1.009998,0.314754 0.263919,0.314754 0.121578,1.031694 -0.143499,0.722768 -0.533514,1.072495 -0.388857,0.343898 -1.059167,0.343898 h -0.58288 z m 0.785535,-1.725319 q 0.12823,0 0.185276,-0.05246 0.06292,-0.05246 0.09069,-0.19235 l 0.09258,-0.466302 q 0.02777,-0.139891 -0.01431,-0.19235 -0.03619,-0.05246 -0.164445,-0.05246 h -0.44299 l -0.189788,0.95592 z m 2.844391,0.76357 h 1.36976 l -0.190946,0.961749 h -2.53551 l 0.72328,-3.642987 h 2.56466 l -0.336666,0.961748 h -1.25319 l -0.08679,0.437159 h 1.16576 l -0.1678,0.845173 h -1.16576 z m 3.644394,0.961749 -0.285978,-1.055009 h -0.30893 L 94.03686,42.726776 H 92.8711 l 0.72328,-3.642987 h 1.69035 q 0.74608,0 1.010008,0.314754 0.263919,0.314754 0.121578,1.031694 -0.149285,0.751912 -0.65481,1.037523 l 0.344574,1.259016 z m -0.427107,-1.900182 h 0.47213 q 0.12824,0 0.185285,-0.05246 0.06282,-0.05246 0.09059,-0.19235 l 0.05786,-0.291439 q 0.02777,-0.139891 -0.01421,-0.19235 -0.03619,-0.05246 -0.164455,-0.05246 h -0.47213 z m 2.332705,0.816029 q 0.545848,0.186521 1.146208,0.186521 0.29727,0 0.477916,-0.02914 l 0.06365,-0.320583 -0.515332,-0.04663 q -0.446539,-0.0408 -0.696197,-0.163206 -0.24266,-0.128233 -0.31877,-0.361384 -0.07612,-0.233151 -0.0021,-0.606193 0.09721,-0.489618 0.292647,-0.769399 0.196595,-0.285611 0.529827,-0.408015 0.34021,-0.128233 0.88812,-0.128233 0.71694,0 1.335042,0.174863 l -0.330879,0.932605 q -0.29037,-0.06412 -0.495572,-0.08743 -0.204054,-0.02914 -0.425544,-0.02914 -0.29727,0 -0.483746,0.02914 l -0.06249,0.314754 0.411569,0.0408 q 0.697224,0.06994 0.955278,0.355556 0.265032,0.279781 0.153937,0.839344 -0.128455,0.646994 -0.561672,0.950091 -0.432069,0.297268 -1.236439,0.297268 -0.82768,0 -1.479649,-0.209836 z m 3.374952,-0.734426 q 0.14582,-0.734427 0.39003,-1.142441 0.24537,-0.413844 0.65313,-0.588707 0.41474,-0.180692 1.08505,-0.180692 0.67031,0 1.00749,0.180692 0.34415,0.174863 0.42518,0.588707 0.0822,0.408014 -0.0636,1.142441 -0.14581,0.734426 -0.39003,1.142441 -0.2442,0.408014 -0.65895,0.588706 -0.40777,0.174864 -1.07808,0.174864 -0.67031,0 -1.01446,-0.174864 -0.33716,-0.180692 -0.41936,-0.588706 -0.0822,-0.408015 0.0636,-1.142441 z m 1.60308,0.909289 q 0.26229,0 0.37411,-0.06412 0.11299,-0.06995 0.14771,-0.244809 l 0.30088,-1.515483 h -0.53625 q -0.25646,0 -0.36944,0.06995 -0.11183,0.06412 -0.14654,0.23898 l -0.30089,1.515482 z m 2.75185,-2.733697 h 1.1541 l 0.53928,1.276502 q 0.0971,0.244809 0.0636,0.413844 h 0.035 l 0.3356,-1.690346 h 1.16575 l -0.72328,3.642987 h -1.1541 l -0.53927,-1.276503 q -0.0971,-0.244809 -0.0636,-0.413843 h -0.035 l -0.3356,1.690346 h -1.16576 z"
         id="text1"
         style="font-weight:800;font-size:5.82878px;font-family:Changa;-inkscape-font-specification:'Changa, Ultra-Bold';fill:#306230;stroke:#fdfdfd;stroke-width:0.182148"
         aria-label="FIRST PERSON" />
      <path
         d="m 72.050899,46.958156 h -1.165756 l 0.729801,-3.642988 h 1.661202 q 0.746084,0 1.009441,0.314755 0.263356,0.314754 0.119732,1.031694 -0.144793,0.722768 -0.535436,1.072495 -0.389476,0.343898 -1.059786,0.343898 h -0.582878 z m 0.788621,-1.725319 q 0.128233,0 0.185373,-0.05246 0.06297,-0.05246 0.09099,-0.19235 l 0.09341,-0.466302 q 0.02802,-0.139891 -0.01393,-0.19235 -0.03612,-0.05246 -0.164355,-0.05246 h -0.442987 l -0.1915,0.95592 z m 3.529527,1.14827 h -1.055009 l -0.26132,0.577049 h -1.165756 l 1.662405,-3.642988 h 1.812751 l 0.202804,3.642988 h -1.165756 z m -0.05218,-0.845173 -0.05909,-1.10164 h -0.05246 l -0.500473,1.10164 z m 3.53877,1.422222 -0.284096,-1.055009 h -0.308925 l -0.211351,1.055009 h -1.165756 l 0.729801,-3.642988 h 1.690346 q 0.746084,0 1.009441,0.314755 0.263357,0.314754 0.119733,1.031694 -0.150631,0.751912 -0.656665,1.037523 l 0.342317,1.259016 z m -0.423708,-1.900182 h 0.472131 q 0.128233,0 0.185374,-0.05246 0.06297,-0.05246 0.09099,-0.19235 l 0.05838,-0.291439 q 0.02802,-0.139891 -0.01393,-0.19235 -0.03612,-0.05246 -0.164355,-0.05246 h -0.472131 z m 3.816058,1.900182 h -1.165756 l 0.537134,-2.681239 h -0.816029 l 0.192667,-0.961749 h 2.797815 l -0.192667,0.961749 h -0.81603 z m 4.926517,-3.642988 -1.574583,2.477232 -0.233537,1.165756 H 85.200628 L 85.434165,45.7924 84.852104,43.315168 h 1.224044 l 0.194281,1.212387 0.680036,-1.212387 z m 2.726679,3.642988 -0.284099,-1.055009 h -0.30893 l -0.211351,1.055009 h -1.16575 l 0.729801,-3.642988 h 1.69034 q 0.74609,0 1.009445,0.314755 0.263355,0.314754 0.119731,1.031694 -0.150631,0.751912 -0.656658,1.037523 l 0.342311,1.259016 z m -0.423716,-1.900182 h 0.47214 q 0.12823,0 0.18537,-0.05246 0.06301,-0.05246 0.09103,-0.19235 l 0.05838,-0.291439 q 0.02802,-0.139891 -0.01397,-0.19235 -0.03609,-0.05246 -0.164351,-0.05246 h -0.47214 z m 3.262326,1.900182 h -1.16575 l 0.729801,-3.642988 h 1.6612 q 0.74608,0 1.009435,0.314755 0.263365,0.314754 0.119741,1.031694 -0.144793,0.722768 -0.535444,1.072495 -0.389473,0.343898 -1.059783,0.343898 h -0.58288 z m 0.788624,-1.725319 q 0.12823,0 0.185369,-0.05246 0.06301,-0.05246 0.09103,-0.19235 l 0.09341,-0.466302 q 0.02802,-0.139891 -0.01397,-0.19235 -0.03609,-0.05246 -0.164351,-0.05246 h -0.44299 l -0.1915,0.95592 z m 4.835709,-0.454645 -0.401682,2.005101 q -0.325294,0.13989 -0.692531,0.198178 -0.362565,0.06412 -0.852185,0.06412 -0.61202,0 -0.904578,-0.169035 -0.292547,-0.169034 -0.351867,-0.57122 -0.05232,-0.408015 0.09948,-1.165756 0.151799,-0.757742 0.383919,-1.159928 0.233287,-0.408014 0.63436,-0.577049 0.40224,-0.174863 1.07838,-0.174863 0.29727,0 0.631829,0.04663 0.340379,0.04663 0.480252,0.104918 l -0.330214,0.920947 q -0.200488,-0.04663 -0.456951,-0.07577 -0.249454,-0.03497 -0.430154,-0.03497 -0.31475,0 -0.448845,0.08743 -0.134085,0.08743 -0.180792,0.320583 l -0.30243,1.509654 h 0.67031 l 0.09692,-0.483789 h -0.29727 L 97.95939,44.7782 Z"
         id="text2"
         style="font-weight:800;font-size:5.82878px;font-family:Changa;-inkscape-font-specification:'Changa, Ultra-Bold';fill:#306230;stroke:#fdfdfd;stroke-width:0.182148"
         aria-label="PARTY RPG" />
    </g>
  </g>
</svg>
