<?xml version="1.0" encoding="UTF-8" standalone="no"?>
<!-- Created with Inkscape (http://www.inkscape.org/) -->

<svg
   width="200mm"
   height="40mm"
   viewBox="0 0 200 39.999999"
   version="1.1"
   id="svg1"
   inkscape:version="1.3.2 (091e20ef0f, 2023-11-25)"
   sodipodi:docname="auto-adventuresurvivalhorror.svg"
   xmlns:inkscape="http://www.inkscape.org/namespaces/inkscape"
   xmlns:sodipodi="http://sodipodi.sourceforge.net/DTD/sodipodi-0.dtd"
   xmlns="http://www.w3.org/2000/svg"
   xmlns:svg="http://www.w3.org/2000/svg">
  <sodipodi:namedview
     id="namedview1"
     pagecolor="#505050"
     bordercolor="#eeeeee"
     borderopacity="1"
     inkscape:showpageshadow="0"
     inkscape:pageopacity="0"
     inkscape:pagecheckerboard="0"
     inkscape:deskcolor="#505050"
     inkscape:document-units="mm"
     showgrid="true"
     inkscape:zoom="1.5508832"
     inkscape:cx="48.037146"
     inkscape:cy="362.69657"
     inkscape:window-width="2560"
     inkscape:window-height="1440"
     inkscape:window-x="1920"
     inkscape:window-y="0"
     inkscape:window-maximized="1"
     inkscape:current-layer="layer1">
    <inkscape:grid
       id="grid1"
       units="mm"
       originx="-5.0119691"
       originy="-1.4560797"
       spacingx="0.99999999"
       spacingy="0.99999998"
       empcolor="#0099e5"
       empopacity="0.30196078"
       color="#0099e5"
       opacity="0.14901961"
       empspacing="5"
       dotted="false"
       gridanglex="30"
       gridanglez="30"
       visible="true" />
  </sodipodi:namedview>
  <defs
     id="defs1" />
  <g
     inkscape:label="Calque 1"
     inkscape:groupmode="layer"
     id="layer1"
     transform="translate(9.5981068,13.096437)">
    <!--!Font Awesome Free 6.5.1 by @fontawesome - https://fontawesome.com License - https://fontawesome.com/license/free Copyright 2024 Fonticons, Inc.-->
    <g
       id="g1"
       transform="matrix(4.5711731,0,0,4.5711731,52.050265,47.281495)">
      <path
         d="m -6.8918748,-12.833168 c -0.02812,0 -0.05468,0.01093 -0.07499,0.03125 -0.4671467,0.473395 -0.7561837,1.124901 -0.7561837,1.843588 0,0.409339 0.09374,0.795243 0.259352,1.1405247 -0.34372,0.03749 -0.6843147,0.142175 -1.0030364,0.320285 -0.5390147,0.3015363 -0.9233557,0.7639953 -1.1249004,1.2889495 -0.01094,0.02656 -0.0078,0.057813 0.0078,0.081243 0.03437,0.057807 0.1156147,0.067177 0.1656107,0.020307 0.8233637,-0.7530582 2.2888608,-0.8967952 3.0231705,0.3359089 0.7343098,1.2327036 -0.126552,2.3919778 -1.2123924,2.7060127 -0.06562,0.018747 -0.09843,0.092179 -0.06406,0.1499861 0.01563,0.025 0.04062,0.04218 0.07031,0.046867 0.5702617,0.09218 1.1748954,0.0016 1.7139102,-0.2999736 0.318722,-0.1781094 0.584324,-0.4140263 0.788993,-0.6843151 0.2046699,0.2702888 0.4702712,0.5062057 0.7889932,0.6843151 0.5390156,0.3015369 1.1452124,0.3937157 1.7139115,0.2999736 0.029687,-0.00473 0.054687,-0.021873 0.070305,-0.046867 0.034373,-0.0578 0.0016,-0.1312381 -0.06406,-0.1499861 -1.0858422,-0.3140349 -1.9467035,-1.4717464 -1.2123933,-2.7060127 0.7343103,-1.2342671 2.1982447,-1.0905291 3.02317187,-0.3343462 0.049993,0.045313 0.1312381,0.035933 0.1656108,-0.020307 0.01562,-0.024993 0.017187,-0.054687 0.00781,-0.081243 -0.2015449,-0.5249539 -0.58588647,-0.9874139 -1.12646417,-1.2889492 -0.3187216,-0.17811 -0.6593165,-0.282788 -1.0030367,-0.320284 0.1671728,-0.3468447 0.2609142,-0.7327487 0.2609142,-1.1420877 0,-0.718687 -0.2890369,-1.370193 -0.7561833,-1.843588 -0.020307,-0.02031 -0.046873,-0.03125 -0.074993,-0.03125 -0.078119,0 -0.1312388,0.08124 -0.1046787,0.154674 0.3999643,1.103029 -0.1640488,2.595085 -1.6889144,2.595085 -1.5248648,0 -2.0888775,-1.492056 -1.6889128,-2.595085 0.02656,-0.07343 -0.025,-0.154674 -0.1046777,-0.154674 z m 1.0436575,4.249627 a 0.74993422,0.74993422 0 1 1 1.4998672,0 0.74993422,0.74993422 0 1 1 -1.4998672,0 z m -0.9108568,2.2748006 c 0.09843,-0.1843581 0.153111,-0.3921523 0.134363,-0.6218198 -0.3046607,-0.2812262 -0.5312027,-0.6468191 -0.6436937,-1.0592821 -0.1952947,-0.1265521 -0.4093377,-0.1843588 -0.6249444,-0.1937335 -0.140612,-0.0062 -0.282787,0.00937 -0.4234,0.04218 0.121864,0.8921094 0.6046337,1.6686039 1.2951984,2.1779343 0.106241,-0.1046787 0.1968567,-0.2202928 0.2624767,-0.3452816 z m 1.6607908,-5.5245156 c -0.44996,0 -0.87961,0.09218 -1.2686378,0.25779 0.03125,0.129676 0.07812,0.253102 0.1406118,0.367155 0.106241,0.193733 0.260915,0.360906 0.470271,0.473397 0.207795,-0.06406 0.42965,-0.09843 0.659317,-0.09843 0.2296672,0 0.4499605,0.03437 0.6593167,0.09843 0.2093566,-0.112491 0.3640307,-0.279664 0.4702713,-0.473397 0.0625,-0.114053 0.1093654,-0.237479 0.1406127,-0.367155 -0.3921534,-0.165611 -0.8218028,-0.25779 -1.2717627,-0.25779 z m 2.1701211,3.8434137 c -0.1124907,0.412463 -0.3390329,0.7764939 -0.6436931,1.0592821 -0.018747,0.2296675 0.034367,0.4390237 0.1343627,0.6218198 0.067185,0.1249894 0.1562362,0.2406042 0.2624776,0.3452822 0.6921265,-0.5093303 1.1748962,-1.2858249 1.2951983,-2.1779342 -0.1406128,-0.034367 -0.2827876,-0.048433 -0.4233997,-0.04218 -0.2156068,0.00937 -0.4296503,0.068745 -0.6249458,0.1937329 z"
         id="path1"
         style="fill:#306230;stroke-width:0.0156236" />
      <g
         id="g6"
         transform="translate(0,-0.10322823)">
        <path
           d="m -2.1608439,-10.220699 q 0.610687,0.19542 1.23969463,0.19542 0.31145038,0 0.49465648,-0.03053 v -0.335878 l -0.54961831,-0.04885 q -0.4763359,-0.04275 -0.7633588,-0.170992 -0.280916,-0.134351 -0.4091603,-0.378626 -0.1282443,-0.244275 -0.1282443,-0.635115 0,-0.512977 0.1465649,-0.806107 0.1465649,-0.299236 0.470229,-0.427481 0.329771,-0.134351 0.90381682,-0.134351 0.75114503,0 1.43511449,0.183206 l -0.15267175,0.9771 q -0.31755725,-0.06718 -0.53740458,-0.0916 -0.21984732,-0.03054 -0.45190839,-0.03054 -0.31145038,0 -0.50076335,0.03054 v 0.329771 l 0.43969465,0.04275 q 0.74503816,0.07328 1.07480915,0.372519 0.33587786,0.29313 0.33587786,0.879389 0,0.6778627 -0.39083969,0.9954199 -0.39083969,0.3114504 -1.23358778,0.3114504 -0.86717553,0 -1.59389313,-0.2198473 z m 5.1297689,1.2274813 q -0.6839694,0 -1.0381679,-0.1282443 Q 1.5765586,-9.2558131 1.4299937,-9.5733704 1.2834289,-9.8970345 1.2834289,-10.513828 v -2.387787 h 1.221374 v 2.864123 h 0.4885496 q 0.2748092,0 0.3603053,-0.06107 0.091603,-0.06718 0.091603,-0.262596 v -2.540458 h 1.221374 v 2.387787 q 0,0.6106866 -0.1465648,0.9343508 Q 4.3735052,-9.2558131 4.0131998,-9.121462 3.6528945,-8.9932177 2.968925,-8.9932177 Z M 7.28038,-9.0848207 6.7612961,-10.190164 H 6.437632 v 1.1053433 H 5.2162579 v -3.8167943 h 1.7709924 q 0.7816794,0 1.1236641,0.329771 0.3419847,0.329771 0.3419847,1.080916 0,0.787787 -0.470229,1.087023 l 0.6229008,1.3190843 z M 6.437632,-11.07566 h 0.4946564 q 0.1343512,0 0.1832062,-0.05496 0.054962,-0.05496 0.054962,-0.201527 v -0.305343 q 0,-0.146565 -0.054962,-0.201527 -0.048855,-0.05496 -0.1832062,-0.05496 H 6.437632 Z m 3.5419847,-1.825955 0.6167943,2.644275 h 0.05496 l 0.616794,-2.644275 h 1.221374 l -0.91603,3.8167943 H 9.6742732 L 8.7582427,-12.901615 Z m 4.0671773,0 v 3.8167943 H 12.82542 v -3.8167943 z m 1.557248,0 0.616794,2.644275 h 0.05496 l 0.616794,-2.644275 h 1.221374 l -0.91603,3.8167943 h -1.899237 l -0.91603,-3.8167943 z m 4.867172,3.2122141 h -1.105343 l -0.152672,0.6045802 h -1.221374 l 0.977099,-3.8167943 h 1.899237 l 0.977099,3.8167943 h -1.221374 z m -0.232061,-0.8854961 -0.293129,-1.154199 h -0.05496 l -0.29313,1.154199 z m 1.94199,-2.326718 h 1.221374 v 2.809161 h 1.160306 v 1.0076333 h -2.38168 z"
           id="text4"
           style="font-weight:800;font-size:6.10687px;font-family:Changa;-inkscape-font-specification:'Changa, Ultra-Bold';fill:#306230;stroke-width:0.112207"
           transform="skewX(-10.195269)"
           aria-label="SURVIVAL&#10;" />
        <path
           d="M 1.7910435,-8.3750638 V -4.55827 H 0.56966949 V -6.0239188 H -0.34636104 V -4.55827 H -1.5677351 v -3.8167938 h 1.22137406 v 1.4656488 h 0.91603053 v -1.4656488 z m 0.4885474,1.9114503 q 0,-0.7694656 0.1709923,-1.1969465 0.1709924,-0.4335878 0.5618321,-0.6167939 0.3969466,-0.189313 1.0992366,-0.189313 0.7022901,0 1.0931298,0.189313 0.3969465,0.1832061 0.5679389,0.6167939 0.1709924,0.4274809 0.1709924,1.1969465 0,0.7694657 -0.1709924,1.1969466 -0.1709924,0.4274809 -0.5679389,0.6167939 -0.3908397,0.1832061 -1.0931298,0.1832061 -0.70229,0 -1.0992366,-0.1832061 Q 2.6215756,-4.839186 2.4505832,-5.2666669 2.2795909,-5.6941478 2.2795909,-6.4636135 Z m 1.8687022,0.9526718 q 0.2748092,0 0.378626,-0.067176 0.1038168,-0.073282 0.1038168,-0.2564885 V -7.4223921 H 4.0689038 q -0.2687023,0 -0.3725191,0.073282 -0.1038167,0.067176 -0.1038167,0.2503816 v 1.5877863 z M 8.4963837,-4.55827 7.9772997,-5.6636135 H 7.6536356 V -4.55827 h -1.221374 v -3.8167938 h 1.7709923 q 0.7816794,0 1.1236641,0.329771 0.3419848,0.3297709 0.3419848,1.080916 0,0.7877862 -0.470229,1.0870229 L 9.8215745,-4.55827 Z M 7.6536356,-6.5491097 h 0.4946565 q 0.1343511,0 0.1832061,-0.054962 0.054962,-0.054962 0.054962,-0.2015267 v -0.3053435 q 0,-0.1465649 -0.054962,-0.2015267 -0.048855,-0.054962 -0.1832061,-0.054962 H 7.6536356 Z M 12.313178,-4.55827 11.794094,-5.6636135 H 11.47043 V -4.55827 h -1.221374 v -3.8167938 h 1.770992 q 0.781679,0 1.123664,0.329771 0.341985,0.3297709 0.341985,1.080916 0,0.7877862 -0.470229,1.0870229 l 0.6229,1.3190839 z M 11.47043,-6.5491097 h 0.494656 q 0.134351,0 0.183206,-0.054962 0.05496,-0.054962 0.05496,-0.2015267 v -0.3053435 q 0,-0.1465649 -0.05496,-0.2015267 -0.04885,-0.054962 -0.183206,-0.054962 H 11.47043 Z m 2.473282,0.085496 q 0,-0.7694656 0.170993,-1.1969465 0.170992,-0.4335878 0.561832,-0.6167939 0.396946,-0.189313 1.099237,-0.189313 0.70229,0 1.093129,0.189313 0.396947,0.1832061 0.567939,0.6167939 0.170993,0.4274809 0.170993,1.1969465 0,0.7694657 -0.170993,1.1969466 -0.170992,0.4274809 -0.567939,0.6167939 -0.390839,0.1832061 -1.093129,0.1832061 -0.702291,0 -1.099237,-0.1832061 -0.39084,-0.189313 -0.561832,-0.6167939 -0.170993,-0.4274809 -0.170993,-1.1969466 z m 1.868703,0.9526718 q 0.274809,0 0.378626,-0.067176 0.103817,-0.073282 0.103817,-0.2564885 v -1.5877863 h -0.561833 q -0.268702,0 -0.372519,0.073282 -0.103816,0.067176 -0.103816,0.2503816 v 1.5877863 z m 4.34809,0.9526717 -0.519084,-1.1053435 H 19.317757 V -4.55827 h -1.221374 v -3.8167938 h 1.770992 q 0.781679,0 1.123664,0.329771 0.341985,0.3297709 0.341985,1.080916 0,0.7877862 -0.470229,1.0870229 l 0.622901,1.3190839 z m -0.842748,-1.9908397 h 0.494656 q 0.134351,0 0.183206,-0.054962 0.05496,-0.054962 0.05496,-0.2015267 v -0.3053435 q 0,-0.1465649 -0.05496,-0.2015267 -0.04885,-0.054962 -0.183206,-0.054962 h -0.494656 z"
           id="text6"
           style="font-weight:800;font-size:6.10687px;font-family:Changa;-inkscape-font-specification:'Changa, Ultra-Bold';fill:#306230;stroke-width:0.112207"
           transform="skewX(-10.602558)"
           aria-label="HORROR" />
      </g>
    </g>
  </g>
</svg>
