<?xml version="1.0" encoding="UTF-8" standalone="no"?>
<svg
   viewBox="0 0 95.265999 8.0000277"
   version="1.1"
   id="svg1"
   sodipodi:docname="auto-strategytowerdefense.svg"
   inkscape:version="1.3.2 (091e20ef0f, 2023-11-25)"
   width="95.265999"
   height="8.0000277"
   xmlns:inkscape="http://www.inkscape.org/namespaces/inkscape"
   xmlns:sodipodi="http://sodipodi.sourceforge.net/DTD/sodipodi-0.dtd"
   xmlns="http://www.w3.org/2000/svg"
   xmlns:svg="http://www.w3.org/2000/svg">
  <defs
     id="defs1" />
  <sodipodi:namedview
     id="namedview1"
     pagecolor="#505050"
     bordercolor="#eeeeee"
     borderopacity="1"
     inkscape:showpageshadow="0"
     inkscape:pageopacity="0"
     inkscape:pagecheckerboard="0"
     inkscape:deskcolor="#505050"
     showgrid="false"
     inkscape:zoom="4.1944444"
     inkscape:cx="126.47682"
     inkscape:cy="66.635762"
     inkscape:window-width="2560"
     inkscape:window-height="1440"
     inkscape:window-x="1920"
     inkscape:window-y="0"
     inkscape:window-maximized="1"
     inkscape:current-layer="svg1" />
  <!--!Font Awesome Free 6.5.1 by @fontawesome - https://fontawesome.com License - https://fontawesome.com/license/free Copyright 2024 Fonticons, Inc.-->
  <!--!Font Awesome Free 6.5.1 by @fontawesome - https://fontawesome.com License - https://fontawesome.com/license/free Copyright 2024 Fonticons, Inc.-->
  <path
     d="M 7.36015,4.4982045 H 6.932 c -0.0406,0 -0.0719,0.0312 -0.0719,0.0719 v 0.50004 H 6.28818 v -2.78615 c 0,-0.0406 -0.0312,-0.0719 -0.0719,-0.0719 H 5.78812 c -0.0406,0 -0.0719,0.0313 -0.0719,0.0719 v 0.50004 H 5.14431 v -0.50004 c 0,-0.0406 -0.0313,-0.0719 -0.0719,-0.0719 H 4.64425 c -0.0406,0 -0.0719,0.0313 -0.0719,0.0719 v 0.50004 H 4.00043 v -0.50004 c 0,-0.0937 -0.12501,-0.0719 -0.18282,-0.0719 v -0.59379 c 0.12969,-0.0312 0.2672,-0.0531 0.40159,-0.0531 0.17032,0 0.32659,0.0672 0.49066,0.0672 0.0719,0 0.43284,-0.0172 0.43284,-0.12501 V 0.56983447 c 0,-0.0406 -0.0312,-0.0719 -0.0719,-0.0719 -0.0797,0 -0.23595,0.0672 -0.37502,0.0672 -0.15158,0 -0.32659,-0.0672 -0.50942,-0.0672 -0.12501,0 -0.25001,0.0172 -0.37034,0.0453 v -0.0766 c 0.0844,-0.0406 0.1422,-0.12969 0.1422,-0.22345 0,-0.3234602 -0.49066,-0.3250202 -0.49066,0 0,0.0938 0.0578,0.18283 0.1422,0.22345 V 2.2120745 c -0.0578,0 -0.18283,-0.0219 -0.18283,0.0719 v 0.50004 H 2.85502 v -0.50004 c 0,-0.0406 -0.0313,-0.0719 -0.0719,-0.0719 H 2.35496 c -0.0406,0 -0.0719,0.0313 -0.0719,0.0719 v 0.50004 H 1.71583 v -0.50004 c 0,-0.0406 -0.0312,-0.0719 -0.0719,-0.0719 H 1.21577 c -0.0406,0 -0.0719,0.0313 -0.0719,0.0719 v 2.78615 H 0.57196 v -0.50004 c 0,-0.0406 -0.0313,-0.0719 -0.0719,-0.0719 H 0.0719 c -0.0406,0 -0.0719,0.0312 -0.0719,0.0719 v 3.42994 h 2.85802 v -1.50011 c 0,-1.13446 1.71419,-1.13446 1.71419,0 v 1.50011 h 2.85802 v -3.42994 c 0.002,-0.0406 -0.0297,-0.0719 -0.0703,-0.0719 z m -4.50189,-0.0703 c 0,0.0406 -0.0312,0.0719 -0.0719,0.0719 H 2.35821 c -0.0406,0 -0.0719,-0.0312 -0.0719,-0.0719 v -1.00007 c 0,-0.0406 0.0313,-0.0719 0.0719,-0.0719 h 0.42815 c 0.0406,0 0.0719,0.0312 0.0719,0.0719 z m 2.28767,0 c 0,0.0406 -0.0312,0.0719 -0.0719,0.0719 H 4.64587 c -0.0406,0 -0.0719,-0.0312 -0.0719,-0.0719 v -1.00007 c 0,-0.0406 0.0312,-0.0719 0.0719,-0.0719 h 0.42816 c 0.0406,0 0.0719,0.0312 0.0719,0.0719 z"
     id="path1"
     style="fill:#306230;stroke-width:0.0156261" />
  <path
     d="m 13.714105,7.643014 h -2.33152 V 2.2805178 H 9.7505211 V 0.3570137 h 5.5956479 v 1.9235041 h -1.632064 z m 2.040078,-3.6371714 q 0,-1.4688576 0.326413,-2.2848897 0.326412,-0.82768958 1.072499,-1.17741759 0.757744,-0.36138561 2.098368,-0.36138561 1.340624,0 2.08671,0.36138561 0.757744,0.34972801 1.084157,1.17741759 0.326413,0.8160321 0.326413,2.2848897 0,1.4688577 -0.326413,2.2848897 -0.326413,0.816032 -1.084157,1.1774176 -0.746086,0.3497281 -2.08671,0.3497281 -1.340624,0 -2.098368,-0.3497281 Q 16.407008,7.1067643 16.080596,6.2907323 15.754183,5.4747003 15.754183,4.0058426 Z m 3.567225,1.8185857 q 0.524592,0 0.722772,-0.1282336 0.198179,-0.1398912 0.198179,-0.4896192 V 2.1755994 H 19.16986 q -0.512935,0 -0.711114,0.1398912 -0.198179,0.1282336 -0.198179,0.4779616 V 5.8244283 Z M 33.63694,0.3570137 32.66936,7.643014 H 29.195395 L 28.519254,3.2480986 27.831455,7.643014 H 24.357491 L 23.38991,0.3570137 h 2.33152 l 0.617853,5.047741 h 0.104918 l 0.804374,-5.047741 h 2.5297 l 0.804374,5.047741 h 0.104919 l 0.617852,-5.047741 z m 3.20585,5.3624962 h 2.739536 V 7.643014 H 34.51127 V 0.3570137 h 5.129344 l -0.29144,1.9235041 H 36.84279 v 0.87432 h 2.33152 V 4.8451899 H 36.84279 Z M 44.513497,7.643014 43.522601,5.5329883 H 42.904748 V 7.643014 h -2.33152 V 0.3570137 h 3.380704 q 1.492173,0 2.144998,0.62951042 0.652826,0.62951038 0.652826,2.06339528 0,1.5038304 -0.897635,2.0750529 L 47.043196,7.643014 Z M 42.904748,3.8426362 h 0.944266 q 0.256467,0 0.349728,-0.1049184 Q 44.30366,3.6327994 44.30366,3.353017 v -0.58288 q 0,-0.2797824 -0.104918,-0.3847008 -0.09326,-0.1049184 -0.349728,-0.1049184 H 42.904748 Z M 53.443225,0.3570137 q 1.375597,0 2.110026,0.32641281 0.734429,0.31475521 1.037527,1.09581449 0.303097,0.7694016 0.303097,2.2266016 0,1.4572001 -0.303097,2.2266017 Q 56.28768,7.0018459 55.553251,7.3282587 54.818822,7.643014 53.443225,7.643014 h -3.25247 V 0.3570137 Z m -0.92095,5.4674146 h 0.955923 q 0.512935,0 0.711114,-0.1515488 0.198179,-0.1632064 0.198179,-0.58288 V 2.9100282 q 0,-0.4196736 -0.198179,-0.5712224 -0.198179,-0.1632064 -0.711114,-0.1632064 h -0.955923 z m 7.635738,-0.1049184 h 2.739536 V 7.643014 H 57.826493 V 0.3570137 h 5.129344 l -0.29144,1.9235041 h -2.506384 v 0.87432 h 2.33152 v 1.6903521 h -2.33152 z m 6.061959,1.9235041 h -2.33152 V 0.3570137 h 4.779616 l -0.29144,1.9235041 h -2.156656 v 1.107472 h 1.981792 v 1.6903521 h -1.981792 z m 5.479061,-1.9235041 h 2.739536 V 7.643014 H 69.367513 V 0.3570137 h 5.129344 l -0.29144,1.9235041 h -2.506384 v 0.87432 h 2.33152 v 1.6903521 h -2.33152 z m 3.788726,-5.3624962 h 2.308205 l 1.585434,2.5530145 q 0.29144,0.4896192 0.29144,0.8276896 h 0.06995 V 0.3570137 h 2.33152 V 7.643014 H 79.766098 L 78.180665,5.0899995 q -0.29144,-0.4896193 -0.29144,-0.8276897 h -0.06995 V 7.643014 h -2.33152 z m 7.845558,5.1176866 q 1.16576,0.3730432 2.366493,0.3730432 0.594538,0 0.944266,-0.058288 v -0.641168 l -1.049184,-0.093261 q -0.909293,-0.081603 -1.4572,-0.3264128 -0.53625,-0.2564673 -0.781059,-0.7227713 -0.24481,-0.466304 -0.24481,-1.2123904 0,-0.9792384 0.279782,-1.5388033 0.279783,-0.57122239 0.897636,-0.81603199 0.62951,-0.25646721 1.725325,-0.25646721 1.433884,0 2.739536,0.34972801 l -0.29144,1.86521609 q -0.606196,-0.1282336 -1.025869,-0.174864 -0.419674,-0.058288 -0.862663,-0.058288 -0.594537,0 -0.955923,0.058288 v 0.6295104 l 0.839347,0.081603 q 1.422228,0.1398912 2.051738,0.7111136 0.641168,0.5595648 0.641168,1.6786945 0,1.2939936 -0.746086,1.9001888 -0.746087,0.5945377 -2.354836,0.5945377 -1.655379,0 -3.042633,-0.4196737 z m 9.02298,0.2448096 h 2.739537 V 7.643014 H 90.024777 V 0.3570137 h 5.129345 l -0.29144,1.9235041 h -2.506385 v 0.87432 h 2.331521 v 1.6903521 h -2.331521 z"
     id="text1"
     style="font-weight:800;font-size:11.6576px;font-family:Changa;-inkscape-font-specification:'Changa, Ultra-Bold';fill:#306230;stroke:#fdfdfd;stroke-width:0.364299"
     transform="skewX(-11.135543)"
     aria-label="TOWER DEFENSE" />
</svg>
