<?xml version="1.0" encoding="UTF-8" standalone="no"?>
<svg
   class="svg-icon"
   style="overflow:hidden;fill:currentColor"
   viewBox="0 0 29.793617 8.0000238"
   version="1.1"
   id="svg5"
   sodipodi:docname="auto-strategyrts.svg"
   inkscape:version="1.3.2 (091e20ef0f, 2023-11-25)"
   width="29.793617"
   height="8.0000238"
   xmlns:inkscape="http://www.inkscape.org/namespaces/inkscape"
   xmlns:sodipodi="http://sodipodi.sourceforge.net/DTD/sodipodi-0.dtd"
   xmlns="http://www.w3.org/2000/svg"
   xmlns:svg="http://www.w3.org/2000/svg">
  <path
     d="m 13.646987,7.6430145 -0.575083,-2.110025 h -0.617853 l -0.415813,2.110025 H 9.7067178 l 1.4358182,-7.286 h 3.380704 q 1.492173,0 2.020943,0.62951 0.528771,0.629511 0.246202,2.063396 -0.296352,1.50383 -1.306556,2.075053 l 0.692857,2.518041 z M 12.78716,3.8426375 h 0.944266 q 0.256467,0 0.370404,-0.104919 0.125594,-0.104918 0.180729,-0.384701 l 0.114866,-0.58288 q 0.05513,-0.279782 -0.02911,-0.3847 -0.07258,-0.104919 -0.329052,-0.104919 H 13.095 Z m 7.64455,3.800377 h -2.33152 l 1.056762,-5.362496 h -1.632064 l 0.379056,-1.923504 h 5.595648 l -0.379056,1.923504 h -1.632064 z m 2.735502,-2.168313 q 1.092246,0.373043 2.292979,0.373043 0.594537,0 0.955752,-0.05829 l 0.126352,-0.641168 -1.030806,-0.09326 q -0.893211,-0.0816 -1.392875,-0.326413 -0.485708,-0.256467 -0.638626,-0.722771 -0.152916,-0.466304 -0.0059,-1.21239 0.192974,-0.979239 0.583027,-1.538804 0.39235,-0.571222 1.058447,-0.816032 0.680052,-0.256467 1.775866,-0.256467 1.433885,0 2.670616,0.349728 l -0.659009,1.865216 q -0.580925,-0.128233 -0.991409,-0.174864 -0.408186,-0.05829 -0.851175,-0.05829 -0.594538,0 -0.96741,0.05829 l -0.124055,0.629511 0.823266,0.0816 q 1.39466,0.139891 1.911603,0.711113 0.530897,0.559565 0.310355,1.678695 -0.255001,1.293993 -1.120548,1.900189 -0.863249,0.594537 -2.471998,0.594537 -1.655379,0 -2.959931,-0.419673 z"
     id="text5"
     style="font-weight:800;font-size:11.6576px;font-family:Changa;-inkscape-font-specification:'Changa, Ultra-Bold';fill:#306230;stroke:#fdfdfd;stroke-width:0.364299"
     aria-label="RTS" />
  <defs
     id="defs5" />
  <sodipodi:namedview
     id="namedview5"
     pagecolor="#505050"
     bordercolor="#eeeeee"
     borderopacity="1"
     inkscape:showpageshadow="0"
     inkscape:pageopacity="0"
     inkscape:pagecheckerboard="0"
     inkscape:deskcolor="#505050"
     inkscape:zoom="9.40625"
     inkscape:cx="-31.30897"
     inkscape:cy="-10.631229"
     inkscape:window-width="1264"
     inkscape:window-height="1389"
     inkscape:window-x="3204"
     inkscape:window-y="8"
     inkscape:window-maximized="1"
     inkscape:current-layer="svg5" />
  <!--!Font Awesome Free 6.5.1 by @fontawesome - https://fontawesome.com License - https://fontawesome.com/license/free Copyright 2024 Fonticons, Inc.-->
  <g
     id="g5"
     transform="matrix(0.00900684,0,0,0.00900684,-0.29549219,-0.7949095)">
    <path
       id="path3"
       style="fill:#306230;stroke-width:1.05478"
       d="m 588.60998,88.37953 c -7.48236,-0.179837 -14.99176,-0.161024 -22.52167,0.06169 -19.26899,-0.186551 -33.86234,13.86235 -34.05238,32.78026 -0.19003,18.91791 14.11958,33.24694 33.3886,33.43353 105.97951,1.0261 201.94424,39.79429 273.49036,111.43612 147.8621,148.05977 150.25568,389.31038 -5.41654,539.16126 C 677.82611,955.10327 436.96314,952.77201 284.33133,799.93612 173.73043,689.18733 142.65498,518.22223 205.22755,377.65695 l 34.06688,109.66614 c 4.67472,14.23508 23.84907,23.88141 43.11807,24.06797 14.49925,-4.58957 24.32459,-23.41456 24.51462,-42.33248 l -60.7726,-185.05726 -9.53937,-9.55221 c -8.42804,-8.43932 -16.88894,-13.5534 -25.40233,-13.4971 -2.92858,-0.64779 -5.711,-0.99319 -8.17637,-1.01707 -7.7968,3.7335 -14.00807,9.03189 -18.07663,15.25127 L 47.744988,371.94999 c -14.59427,14.04852 -19.554128,28.18994 -10.109702,47.2011 14.309242,14.32837 28.713088,19.19794 48.077067,9.92551 L 131.67081,396.28527 C 83.557214,549.92822 124.3173,725.69435 240.54948,842.08195 417.03001,1018.7984 706.06472,1021.5965 886.06074,848.33145 1061.192,679.74921 1064.0429,395.97981 887.56228,219.26331 807.07288,138.66625 700.84539,91.07711 588.60998,88.37953 Z" />
    <path
       d="m 365.73926,452.3648 v -144 c 0,-8.8 7.2,-16 16,-16 h 64.00002 c 8.8,0 16,7.2 16,16 v 40 c 0,4.4 3.6,8 8,8 h 32 c 4.4,0 8,-3.6 8,-8 v -40 c 0,-8.8 7.2,-16 16,-16 h 64 c 8.8,0 16,7.2 16,16 v 40 c 0,4.4 3.6,8 8,8 h 32 c 4.4,0 8,-3.6 8,-8 v -40 c 0,-8.8 7.2,-16 16,-16 h 64 c 8.8,0 16,7.2 16,16 v 144 c 0,10.1 -4.7,19.6 -12.8,25.6 l -51.2,38.4 16,144 h -288 l 16,-144 -51.20002,-38.4 c -8.1,-6 -12.8,-15.5 -12.8,-25.6 z m 176.00002,96 h 32 c 8.8,0 16,-7.2 16,-16 v -48 c 0,-17.7 -14.3,-32 -32,-32 -17.7,0 -32,14.3 -32,32 v 48 c 0,8.8 7.2,16 16,16 z m -185.40002,185.39999 41.40002,-41.4 h 320 l 41.4,41.4 c 4.2,4.2 6.6,10 6.6,16 0,12.5 -10.1,22.6 -22.6,22.6 H 372.33926 c -12.5,0 -22.6,-10.1 -22.6,-22.6 0,-6 2.4,-11.8 6.6,-16 z"
       id="path1"
       style="fill:#306230" />
  </g>
</svg>
