<?xml version="1.0" encoding="UTF-8" standalone="no"?>
<!-- Created with Inkscape (http://www.inkscape.org/) -->

<svg
   version="1.1"
   id="svg1"
   width="599.49957"
   height="222.97775"
   viewBox="0 0 599.49957 222.97775"
   sodipodi:docname="logo.png"
   xmlns:inkscape="http://www.inkscape.org/namespaces/inkscape"
   xmlns:sodipodi="http://sodipodi.sourceforge.net/DTD/sodipodi-0.dtd"
   xmlns="http://www.w3.org/2000/svg"
   xmlns:svg="http://www.w3.org/2000/svg">
  <defs
     id="defs1" />
  <sodipodi:namedview
     id="namedview1"
     pagecolor="#306230"
     bordercolor="#000000"
     borderopacity="0.25"
     inkscape:showpageshadow="2"
     inkscape:pageopacity="0.0"
     inkscape:pagecheckerboard="0"
     inkscape:deskcolor="#d1d1d1" />
  <g
     inkscape:groupmode="layer"
     inkscape:label="Image"
     id="g1"
     transform="translate(-0.53591198,-0.08677965)">
    <path
       style="fill:#306230"
       d="M 31.23207,221.96802 C 19.765281,219.63097 5.9165323,208.04257 2.3458053,197.79648 1.0372042,194.04149 0.51072035,189.73511 0.53683456,183 0.56961583,174.54539 0.90893625,172.784 3.6204272,166.99333 7.1698521,159.41316 11.391062,154.849 17.905123,151.54808 c 8.092437,-4.10075 14.381647,-4.67893 47.345423,-4.35255 16.9128,0.16746 30.7503,0.0224 30.75,-0.32239 -3e-4,-0.34477 -2.363046,-1.62597 -5.250546,-2.84711 C 81.50139,140.11474 70.690457,132.75736 63.718143,125.62948 56.169337,117.91226 49.345816,105.54271 46.270098,94 43.876349,85.01662 43.881286,63.951912 46.279238,55 51.597459,35.146288 66.401827,17.390607 85.5,7.960412 101.01388,0.300052 98.749178,0.5 170,0.5 h 63.5 l 6.72333,3.18498 c 8.52475,4.038351 15.97504,10.983153 19.5145,18.190482 2.45828,5.005744 2.76217,6.727021 2.76217,15.645565 0,9.291023 -0.23746,10.503376 -3.25968,16.642388 -3.7937,7.706097 -9.21491,12.994657 -17.12031,16.70142 L 236.5,73.5 201,74 c -22.62532,0.318666 -34.77467,0.831431 -33.5,1.41387 1.1,0.502628 4.32874,1.925435 7.17498,3.161793 28.08523,12.199747 48.22789,46.865007 44.33933,76.307417 -2.23495,16.922 -7.69878,28.24891 -19.93575,41.32823 -11.28979,12.06695 -24.11199,20.37537 -37.64151,24.39062 -5.33829,1.58428 -11.98818,1.78588 -65.93705,1.99895 -33,0.13034 -61.920568,-0.15445 -64.26793,-0.63286 z m 225.06427,-0.41573 c -8.64527,-2.70222 -17.2096,-10.97947 -20.12614,-19.45151 -1.65829,-4.81703 -1.64175,-87.79484 0.0186,-93.3366 1.61122,-5.37777 8.73412,-13.04856 15.02973,-16.18579 L 256.39269,90 h 47.10787 47.10788 l 4.56467,2.89483 c 8.7184,5.52904 13.09632,14.67716 10.90982,22.79719 -1.52865,5.67699 -6.24414,11.73211 -11.56472,14.85018 -3.92128,2.29802 -5.6219,2.66005 -12.04216,2.56354 -4.11183,-0.0618 -7.45897,0.22662 -7.4381,0.64094 0.0209,0.41433 1.78402,1.96031 3.91811,3.43551 2.13409,1.47521 5.06476,4.70357 6.51261,7.17413 5.68343,9.69805 4.3011,17.98408 -4.46824,26.78378 l -5.62064,5.64011 4.44968,0.60989 c 2.44732,0.33545 6.07437,0.61158 8.0601,0.61364 3.97478,0.004 8.07821,2.17102 12.50043,6.60111 3.9299,3.93691 5.7874,8.74538 5.93984,15.37636 0.20734,9.01925 -5.98061,17.46796 -15.79811,21.56998 -4.82768,2.01713 -87.78235,2.0181 -94.23539,0.001 z m 155.63301,0.12865 c -7.03537,-1.97129 -13.0146,-5.9482 -19.71973,-13.11601 -4.95553,-5.29748 -6.51305,-7.80751 -8.1665,-13.16076 C 382.08798,189.07417 382,186.36095 382,132.39466 V 76 L 363.75,75.9942 C 343.29803,75.987717 335.90047,75.097037 329.13554,71.826563 322.44945,68.594205 315.4066,61.084265 311.70568,53.240752 308.87156,47.23429 308.52373,45.519603 308.51255,37.5 c -0.0107,-7.706807 0.37584,-9.828828 2.69048,-14.768248 3.06368,-6.537864 11.49416,-15.5163 17.39694,-18.52767 C 336.74397,0.049319 340.91299,-0.129754 422,0.192245 L 499.5,0.5 l 5.78458,2.334787 c 7.73991,3.124003 16.74688,11.513095 19.7603,18.404749 3.1324,7.163739 3.83066,20.236889 1.5077,28.227602 -4.062,13.97277 -14.58938,23.035488 -29.58436,25.468327 -3.55752,0.577185 -14.21372,1.052826 -23.68045,1.056981 L 456.07554,76 455.7719,134.75 c -0.34807,67.3457 0.0829,63.97233 -9.49525,74.3179 -9.57993,10.34746 -23.79844,15.56879 -34.3473,12.61304 z M 491.5,222.10665 c -7.84753,-2.0196 -17.49675,-10.83053 -19.41095,-17.72457 -1.77407,-6.38939 -1.41016,-53.89293 0.48396,-63.17424 4.89714,-23.99625 24.42237,-44.24817 47.9916,-49.77774 9.32435,-2.18759 26.36947,-1.50449 35.43539,1.4201 23.23817,7.49644 39.44893,26.98487 42.96306,51.6498 1.64985,11.57994 1.31896,55.18734 -0.46432,61.1923 -1.69415,5.70481 -8.01753,12.34922 -14.30913,15.0356 -4.55838,1.94633 -14.39931,2.1363 -19.52538,0.37691 -7.72054,-2.64987 -15.62809,-12.93172 -15.65446,-20.35481 L 549,198 h -12.53138 c -9.16063,0 -12.63116,0.33623 -12.90229,1.25 -0.20399,0.6875 -0.91808,3.36866 -1.58686,5.95814 -1.51638,5.87137 -6.59352,11.92013 -12.22878,14.56902 -4.93772,2.321 -13.85904,3.45971 -18.25069,2.32949 z m 54.73823,-55.15598 c 4.35258,-1.2088 5.77027,-3.34156 5.73981,-8.63493 -0.0303,-5.2612 -3.10155,-11.54542 -7.1527,-14.63539 C 533.96892,135.39976 519,143.49497 519,157.64673 c 0,5.78436 1.34,8.04659 5.50116,9.28725 4.19439,1.25057 17.25804,1.2606 21.73707,0.0167 z"
       id="path1" />
  </g>
</svg>
