<?xml version="1.0" encoding="UTF-8" standalone="no"?>
<svg
   width="45.819889"
   height="8.3544226"
   viewBox="0 0 45.819888 8.3544226"
   version="1.1"
   id="svg1"
   sodipodi:docname="auto-sportcompetitive.svg"
   inkscape:version="1.3.2 (091e20ef0f, 2023-11-25)"
   xmlns:inkscape="http://www.inkscape.org/namespaces/inkscape"
   xmlns:sodipodi="http://sodipodi.sourceforge.net/DTD/sodipodi-0.dtd"
   xmlns="http://www.w3.org/2000/svg"
   xmlns:svg="http://www.w3.org/2000/svg">
  <defs
     id="defs1" />
  <sodipodi:namedview
     id="namedview1"
     pagecolor="#505050"
     bordercolor="#eeeeee"
     borderopacity="1"
     inkscape:showpageshadow="0"
     inkscape:pageopacity="0"
     inkscape:pagecheckerboard="0"
     inkscape:deskcolor="#505050"
     showgrid="true"
     inkscape:zoom="10.423956"
     inkscape:cx="61.972634"
     inkscape:cy="13.04687"
     inkscape:window-width="1264"
     inkscape:window-height="1389"
     inkscape:window-x="3204"
     inkscape:window-y="8"
     inkscape:window-maximized="1"
     inkscape:current-layer="svg1">
    <inkscape:grid
       id="grid1"
       units="px"
       originx="-8.1764078"
       originy="-13.582874"
       spacingx="0.99999999"
       spacingy="1"
       empcolor="#0099e5"
       empopacity="0.30196078"
       color="#0099e5"
       opacity="0.14901961"
       empspacing="5"
       dotted="false"
       gridanglex="30"
       gridanglez="30"
       visible="true" />
  </sodipodi:namedview>
  <!--!Font Awesome Free 6.5.1 by @fontawesome - https://fontawesome.com License - https://fontawesome.com/license/free Copyright 2024 Fonticons, Inc.-->
  <!--!Font Awesome Free 6.5.1 by @fontawesome - https://fontawesome.com License - https://fontawesome.com/license/free Copyright 2024 Fonticons, Inc.-->
  <!--!Font Awesome Free 6.5.1 by @fontawesome - https://fontawesome.com License - https://fontawesome.com/license/free Copyright 2024 Fonticons, Inc.-->
  <!--!Font Awesome Free 6.5.1 by @fontawesome - https://fontawesome.com License - https://fontawesome.com/license/free Copyright 2024 Fonticons, Inc.-->
  <!--!Font Awesome Free 6.5.1 by @fontawesome - https://fontawesome.com License - https://fontawesome.com/license/free Copyright 2024 Fonticons, Inc.-->
  <path
     d="m 6.25004,0.17721135 h -3.5 c -0.41406,0 -0.75156,0.34063 -0.73594,0.75313 0.003,0.0828001 0.006,0.16561995 0.0109,0.24687005 h -1.65 c -0.20781,0 -0.375,0.1671899 -0.375,0.375 0,1.44687 0.52344,2.4531299 1.22656,3.1359399 0.69219,0.6734401 1.53594,1.0125 2.15781,1.1843701 C 3.75,5.9740913 4,6.2787713 4,6.5850213 c 0,0.32657 -0.26562,0.59219 -0.59219,0.59219 H 3.00004 c -0.27656,0 -0.5,0.22344 -0.5,0.5 0,0.27656 0.22344,0.5000001 0.5,0.5000001 h 3 c 0.27656,0 0.5,-0.2234401 0.5,-0.5000001 0,-0.27656 -0.22344,-0.5 -0.5,-0.5 H 5.59223 c -0.32656,0 -0.59219,-0.26562 -0.59219,-0.59219 0,-0.30625 0.24844,-0.6125 0.61563,-0.7125 0.62343,-0.17187 1.46718,-0.51093 2.15937,-1.18437 0.70156,-0.68281 1.225,-1.68907 1.225,-3.13594 0,-0.20781 -0.16719,-0.375 -0.375,-0.375 h -1.65 c 0.005,-0.0813 0.008,-0.1625 0.0109,-0.24686995 0.0156,-0.4125 -0.32188,-0.75313 -0.73594,-0.75313 z M 0.7641,1.9272114 h 1.31875 c 0.14219,1.40781 0.45625,2.34844 0.81094,2.9781199 -0.38906,-0.17187 -0.79375,-0.41406 -1.14375,-0.7546799 -0.5,-0.48594 -0.90625,-1.1875 -0.98437,-2.22344 z m 6.4875,2.22344 C 6.9016,4.4912713 6.49692,4.7334613 6.10785,4.9053313 6.46254,4.2756514 6.7766,3.3350214 6.91879,1.9272114 h 1.31875 c -0.0797,1.03594 -0.48594,1.7375 -0.98437,2.22344 z"
     id="path1"
     style="fill:#306230;stroke-width:0.015625" />
  <text
     xml:space="preserve"
     style="font-weight:800;font-size:32px;font-family:Changa;-inkscape-font-specification:'Changa, Ultra-Bold';fill:#306230"
     x="15.120763"
     y="-14.826013"
     id="text5"><tspan
       sodipodi:role="line"
       id="tspan5"
       x="15.120763"
       y="-14.826013"></tspan></text>
  <g
     id="g7"
     transform="translate(-2,1.4995708)">
    <path
       d="m 15.154379,2.3416505 q -0.238167,0.085496 -0.50687,0.1221374 -0.262595,0.036641 -0.629007,0.036641 -0.647329,0 -1.007634,-0.1832061 Q 12.65667,2.134017 12.497891,1.706536 12.345219,1.2729483 12.345219,0.50348262 q 0,-0.77557251 0.164886,-1.20305343 0.164885,-0.42748089 0.549618,-0.61068699 0.384733,-0.189313 1.080916,-0.189313 0.262595,0 0.567939,0.048855 0.31145,0.048855 0.445801,0.1099236 l -0.152671,0.96488551 q -0.1771,-0.048855 -0.403054,-0.0793893 -0.219847,-0.0366412 -0.366412,-0.0366412 -0.329771,0 -0.451908,0.0916031 -0.122138,0.0916031 -0.122138,0.33587786 V 1.4134063 q 0.274809,0.048855 0.482443,0.048855 0.250382,0 0.494656,-0.036641 0.250382,-0.042748 0.427481,-0.1099236 z m 0.305345,-1.83816788 q 0,-0.76946564 0.170993,-1.19694656 0.170992,-0.43358776 0.561832,-0.61679386 0.396946,-0.189313 1.099237,-0.189313 0.70229,0 1.093129,0.189313 0.396947,0.1832061 0.567939,0.61679386 0.170993,0.42748092 0.170993,1.19694656 0,0.76946568 -0.170993,1.19694658 -0.170992,0.4274809 -0.567939,0.6167939 -0.390839,0.1832061 -1.093129,0.1832061 -0.702291,0 -1.099237,-0.1832061 -0.39084,-0.189313 -0.561832,-0.6167939 -0.170993,-0.4274809 -0.170993,-1.19694658 z m 1.868703,0.95267178 q 0.274809,0 0.378626,-0.067176 0.103816,-0.073282 0.103816,-0.2564886 V -0.455296 h -0.561832 q -0.268702,0 -0.372519,0.0732824 -0.103816,0.0671756 -0.103816,0.25038168 V 1.4561544 Z m 2.424426,-2.8641221 h 1.532825 l 0.476335,1.94198467 h 0.04275 l 0.476335,-1.94198467 h 1.532825 l 0.232061,3.8167938 h -1.215267 l -0.09771,-1.85038165 h -0.04275 L 22.250563,2.4088261 H 21.316212 L 20.87041,0.55844445 H 20.83377 L 20.73606,2.4088261 h -1.215267 z m 6.033593,3.8167938 h -1.221374 v -3.8167938 h 1.740458 q 0.781679,0 1.123664,0.3297709 0.341985,0.32977103 0.341985,1.08091606 0,0.75725191 -0.335878,1.12366414 -0.335878,0.3603053 -1.038168,0.3603053 h -0.610687 z m 0.464122,-1.80763356 q 0.134351,0 0.183206,-0.0549618 0.05496,-0.0549618 0.05496,-0.20152672 v -0.48854961 q 0,-0.14656488 -0.05496,-0.20152672 -0.04885,-0.0549618 -0.183206,-0.0549618 H 25.786446 V 0.60119254 Z M 29.3895,1.4011925 h 1.435115 v 1.0076336 h -2.656489 v -3.8167938 h 2.687023 l -0.152672,1.00763353 H 29.3895 V 0.0576811 h 1.221374 V 0.94317727 H 29.3895 Z m 3.755728,1.0076336 H 31.923854 V -0.40033417 H 31.068892 V -1.4079677 h 2.931298 v 1.00763353 h -0.854962 z m 2.412212,-3.8167938 v 3.8167938 h -1.221374 v -3.8167938 z m 2.412209,3.8167938 H 36.748275 V -0.40033417 H 35.893313 V -1.4079677 h 2.931298 v 1.00763353 h -0.854962 z m 2.412212,-3.8167938 v 3.8167938 h -1.221374 v -3.8167938 z m 1.557249,0 0.616794,2.6442747 h 0.05496 l 0.616793,-2.6442747 h 1.221375 l -0.916031,3.8167938 h -1.899237 l -0.91603,-3.8167938 z m 4.067175,2.8091602 H 47.4414 v 1.0076336 h -2.656489 v -3.8167938 h 2.687023 l -0.152672,1.00763353 H 46.006285 V 0.0576811 h 1.221374 v 0.88549617 h -1.221374 z"
       id="text6"
       style="font-weight:800;font-size:6.10687px;font-family:Changa;-inkscape-font-specification:'Changa, Ultra-Bold';fill:#306230;stroke-width:0.19084"
       transform="skewX(-10.567051)"
       aria-label="COMPETITIVE" />
    <path
       d="m 30.740914,5.6273711 q 0.610687,0.1954198 1.239694,0.1954198 0.311451,0 0.494657,-0.030534 V 5.4563787 L 31.925647,5.4075237 Q 31.449311,5.3647757 31.162288,5.2365314 30.881372,5.1021802 30.753128,4.8579054 30.624883,4.6136306 30.624883,4.2227909 q 0,-0.5129771 0.146565,-0.8061068 0.146565,-0.2992367 0.470229,-0.4274809 0.329771,-0.1343512 0.903817,-0.1343512 0.751145,0 1.435114,0.1832061 l -0.152671,0.9770992 q -0.317558,-0.067176 -0.537405,-0.091603 -0.219847,-0.030534 -0.451908,-0.030534 -0.311451,0 -0.500764,0.030534 v 0.329771 l 0.439695,0.042748 q 0.745038,0.073282 1.074809,0.3725191 0.335878,0.2931297 0.335878,0.8793893 0,0.6778625 -0.39084,0.9954198 -0.390839,0.3114504 -1.233587,0.3114504 -0.867176,0 -1.593894,-0.2198474 z m 4.726715,1.1358778 H 34.246255 V 2.9464551 h 1.740458 q 0.78168,0 1.123664,0.329771 0.341985,0.3297709 0.341985,1.080916 0,0.7572519 -0.335878,1.1236641 -0.335878,0.3603053 -1.038168,0.3603053 h -0.610687 z m 0.464122,-1.8076336 q 0.134352,0 0.183207,-0.054962 0.05496,-0.054962 0.05496,-0.2015267 V 4.2105772 q 0,-0.1465649 -0.05496,-0.2015267 -0.04886,-0.054962 -0.183207,-0.054962 h -0.464122 v 1.0015267 z m 1.795421,-0.09771 q 0,-0.7694656 0.170993,-1.1969465 0.170992,-0.4335878 0.561832,-0.6167939 0.396946,-0.189313 1.099236,-0.189313 0.702291,0 1.09313,0.189313 0.396947,0.1832061 0.567939,0.6167939 0.170993,0.4274809 0.170993,1.1969465 0,0.7694657 -0.170993,1.1969466 -0.170992,0.4274809 -0.567939,0.6167939 -0.390839,0.1832061 -1.09313,0.1832061 -0.70229,0 -1.099236,-0.1832061 Q 38.069157,6.4823329 37.898165,6.054852 37.727172,5.6273711 37.727172,4.8579053 Z m 1.868703,0.9526718 q 0.274809,0 0.378626,-0.067176 0.103816,-0.073282 0.103816,-0.2564885 V 3.8991268 h -0.561832 q -0.268702,0 -0.372519,0.073282 -0.103817,0.067176 -0.103817,0.2503816 v 1.5877863 z m 4.34809,0.9526717 -0.519084,-1.1053435 H 43.101217 V 6.7632489 H 41.879843 V 2.9464551 h 1.770992 q 0.781679,0 1.123664,0.329771 0.341985,0.3297709 0.341985,1.080916 0,0.7877862 -0.470229,1.0870229 l 0.622901,1.3190839 z M 43.101217,4.7724092 h 0.494656 q 0.134351,0 0.183206,-0.054962 0.05496,-0.054962 0.05496,-0.2015267 V 4.2105772 q 0,-0.1465649 -0.05496,-0.2015267 -0.04886,-0.054962 -0.183206,-0.054962 h -0.494656 z m 4.396947,1.9908397 H 46.27679 V 3.9540886 H 45.421828 V 2.9464551 h 2.931298 v 1.0076335 h -0.854962 z"
       id="text7"
       style="font-weight:800;font-size:6.10687px;font-family:Changa;-inkscape-font-specification:'Changa, Ultra-Bold';fill:#306230;stroke-width:0.19084"
       transform="skewX(-10.258103)"
       aria-label="SPORT" />
  </g>
</svg>
