<?xml version="1.0" encoding="UTF-8" standalone="no"?>
<svg
   width="80.783119"
   height="12.000001"
   viewBox="0 0 80.783117 12.000001"
   version="1.1"
   id="svg1"
   sodipodi:docname="auto-strategy4x.svg"
   inkscape:version="1.3.2 (091e20ef0f, 2023-11-25)"
   xmlns:inkscape="http://www.inkscape.org/namespaces/inkscape"
   xmlns:sodipodi="http://sodipodi.sourceforge.net/DTD/sodipodi-0.dtd"
   xmlns="http://www.w3.org/2000/svg"
   xmlns:svg="http://www.w3.org/2000/svg">
  <defs
     id="defs1" />
  <sodipodi:namedview
     id="namedview1"
     pagecolor="#505050"
     bordercolor="#eeeeee"
     borderopacity="1"
     inkscape:showpageshadow="0"
     inkscape:pageopacity="0"
     inkscape:pagecheckerboard="0"
     inkscape:deskcolor="#505050"
     showgrid="true"
     inkscape:zoom="7.3708499"
     inkscape:cx="49.722896"
     inkscape:cy="55.081844"
     inkscape:window-width="1264"
     inkscape:window-height="1389"
     inkscape:window-x="3204"
     inkscape:window-y="8"
     inkscape:window-maximized="1"
     inkscape:current-layer="svg1">
    <inkscape:grid
       id="grid1"
       units="px"
       originx="-35.660072"
       originy="-40.623012"
       spacingx="0.99999999"
       spacingy="1"
       empcolor="#0099e5"
       empopacity="0.30196078"
       color="#0099e5"
       opacity="0.14901961"
       empspacing="5"
       dotted="false"
       gridanglex="30"
       gridanglez="30"
       visible="true" />
  </sodipodi:namedview>
  <!--!Font Awesome Free 6.5.1 by @fontawesome - https://fontawesome.com License - https://fontawesome.com/license/free Copyright 2024 Fonticons, Inc.-->
  <!--!Font Awesome Free 6.5.1 by @fontawesome - https://fontawesome.com License - https://fontawesome.com/license/free Copyright 2024 Fonticons, Inc.-->
  <!--!Font Awesome Free 6.5.1 by @fontawesome - https://fontawesome.com License - https://fontawesome.com/license/free Copyright 2024 Fonticons, Inc.-->
  <!--!Font Awesome Free 6.5.1 by @fontawesome - https://fontawesome.com License - https://fontawesome.com/license/free Copyright 2024 Fonticons, Inc.-->
  <!--!Font Awesome Free 6.5.1 by @fontawesome - https://fontawesome.com License - https://fontawesome.com/license/free Copyright 2024 Fonticons, Inc.-->
  <path
     d="M 0,9.9456004 V 7.6608003 L 3.1488001,0 H 9.9648004 V 6.7776003 H 11.2704 V 9.9456004 H 9.9648004 V 12 H 6.1248002 V 9.9456004 Z M 6.1248002,6.7776003 V 2.8800001 h -0.5376 l -1.5936,3.8976002 z M 19.584016,12 17.798416,9.1392004 16.108816,12 h -4.1664 L 15.628816,5.6832002 12.076816,0 h 4.2624 l 1.6512,2.6496001 L 19.545616,0 h 4.1664 l -3.552,6.1056003 L 23.846416,12 Z"
     id="text7"
     style="font-weight:800;font-size:19.2px;font-family:Changa;-inkscape-font-specification:'Changa, Ultra-Bold';fill:#306230;stroke-width:0.6"
     aria-label="4X" />
  <path
     d="m 25.991183,7.5450323 q 1.149164,0.3908384 2.407175,0.3908384 0.622899,0 1.000592,-0.061069 l 0.124104,-0.671753 -1.081181,-0.09771 Q 27.504999,7.0198432 26.97834,6.7633555 26.466152,6.4946541 26.299921,6.0061061 q -0.166229,-0.488548 -0.02182,-1.2702248 0.189541,-1.0259509 0.590979,-1.6122085 0.403693,-0.5984713 1.098405,-0.854959 0.709181,-0.2687014 1.857269,-0.2687014 1.502285,0 2.802527,0.366411 L 31.96091,4.3206155 Q 31.350619,4.1862648 30.919952,4.13741 30.49154,4.0763415 30.02742,4.0763415 q -0.622899,0 -1.012806,0.061069 l -0.121848,0.6595398 0.863592,0.085496 q 1.462994,0.1465644 2.011968,0.7450357 0.563445,0.5862576 0.346827,1.7587728 -0.250465,1.3557208 -1.149475,1.9908332 -0.896756,0.6228987 -2.582247,0.6228987 -1.734345,0 -3.106544,-0.4396932 z m 10.194004,2.2717483 h -2.44274 L 34.780408,4.1984785 H 33.07049 l 0.372312,-2.0152606 h 5.862576 l -0.372312,2.0152606 h -1.709918 z m 6.5099,0 -0.62975,-2.2106798 h -0.647326 l -0.408415,2.2106798 h -2.44274 l 1.410273,-7.6335627 h 3.541973 q 1.563354,0 2.125473,0.6595398 0.562119,0.6595398 0.284578,2.161825 -0.29108,1.5755673 -1.342101,2.1740386 L 45.34546,9.8167806 Z M 41.745194,5.8351143 h 0.98931 q 0.268701,0 0.386719,-0.1099233 0.130231,-0.1099233 0.184385,-0.4030521 l 0.112822,-0.610685 q 0.05416,-0.2931288 -0.03546,-0.4030521 -0.0774,-0.1099233 -0.346103,-0.1099233 h -0.98931 z m 9.087757,2.77251 h -2.21068 l -0.528729,1.2091563 h -2.44274 l 3.364465,-7.6335627 h 3.79846 l 0.543919,7.6335627 h -2.44274 z M 50.696013,6.8366377 50.536223,4.5282484 h -0.109924 l -1.012724,2.3083893 z m 6.508961,2.9801429 h -2.44274 l 1.037961,-5.6183021 h -1.709918 l 0.372312,-2.0152606 h 5.862576 L 59.952853,4.1984785 H 58.242935 Z M 62.401693,7.80152 h 2.870219 L 64.8996,9.8167806 h -5.312959 l 1.410273,-7.6335627 h 5.374028 L 65.693287,4.1984785 H 63.067342 L 62.898109,5.114506 h 2.44274 l -0.327183,1.7709865 h -2.44274 z M 72.888529,5.2488567 72.112315,9.4503696 q -0.677052,0.2931288 -1.444653,0.4152658 -0.757643,0.1343507 -1.783594,0.1343507 -1.282438,0 -1.900969,-0.3541973 -0.61853,-0.3541973 -0.755965,-1.1969426 -0.122965,-0.8549591 0.170372,-2.4427401 0.293337,-1.587781 0.766588,-2.4305264 0.475506,-0.854959 1.310406,-1.2091563 0.837156,-0.366411 2.253945,-0.366411 0.622899,0 1.325456,0.09771 0.71477,0.09771 1.009762,0.2198466 l -0.661859,1.9297647 q -0.421642,-0.09771 -0.959977,-0.1587781 -0.523864,-0.073282 -0.902488,-0.073282 -0.65954,0 -0.93766,0.1832055 -0.278121,0.1832055 -0.368378,0.6717535 l -0.584417,3.1633483 h 1.404575 l 0.187284,-1.0137377 h -0.622898 l 0.327183,-1.7709865 z m 7.894593,-3.0656388 -3.21852,5.1908226 -0.451287,2.4427401 h -2.44274 L 75.121862,7.3740405 73.821313,2.1832179 h 2.564877 l 0.446689,2.5404497 1.385366,-2.5404497 z"
     id="text8"
     style="font-weight:800;font-size:12.2137px;font-family:Changa;-inkscape-font-specification:'Changa, Ultra-Bold';fill:#306230;stroke-width:0.381679"
     aria-label="STRATEGY" />
</svg>
