<?xml version="1.0" encoding="UTF-8" standalone="no"?>
<svg
   viewBox="0 0 200 40"
   version="1.1"
   id="svg1"
   sodipodi:docname="auto-trivia.svg"
   inkscape:version="1.3.2 (091e20ef0f, 2023-11-25)"
   width="200"
   height="40"
   xmlns:inkscape="http://www.inkscape.org/namespaces/inkscape"
   xmlns:sodipodi="http://sodipodi.sourceforge.net/DTD/sodipodi-0.dtd"
   xmlns="http://www.w3.org/2000/svg"
   xmlns:svg="http://www.w3.org/2000/svg">
  <defs
     id="defs1" />
  <sodipodi:namedview
     id="namedview1"
     pagecolor="#505050"
     bordercolor="#eeeeee"
     borderopacity="1"
     inkscape:showpageshadow="0"
     inkscape:pageopacity="0"
     inkscape:pagecheckerboard="0"
     inkscape:deskcolor="#505050"
     showgrid="false"
     inkscape:zoom="4.1944444"
     inkscape:cx="48.516557"
     inkscape:cy="50.900663"
     inkscape:window-width="2560"
     inkscape:window-height="1440"
     inkscape:window-x="1920"
     inkscape:window-y="0"
     inkscape:window-maximized="1"
     inkscape:current-layer="svg1" />
  <!--!Font Awesome Free 6.5.1 by @fontawesome - https://fontawesome.com License - https://fontawesome.com/license/free Copyright 2024 Fonticons, Inc.-->
  <g
     id="g1"
     transform="matrix(2.4999954,0,0,2.4999954,43.792684,9.9999997)">
    <path
       d="m 2.8749958,6.4794502e-6 c 0.48281,0 0.874999,0.3921900005498 0.874999,0.8750000005498 V 7.1249955 c 0,0.48281 -0.392189,0.875 -0.874999,0.875 -0.451559,0 -0.823439,-0.34219 -0.870309,-0.78281 -0.0813,0.0219 -0.167189,0.0328 -0.254689,0.0328 -0.55156,0 -0.999999,-0.44844 -0.999999,-1 0,-0.11563 0.0203,-0.22812 0.0563,-0.33125 C 0.3343788,5.7406255 0,5.2843655 0,4.7499955 c 0,-0.49844 0.29219,-0.929679 0.7156288,-1.129679 -0.13594,-0.17031 -0.21563,-0.38593 -0.21563,-0.62031 0,-0.47969 0.3375,-0.87969 0.787499,-0.97812 -0.025,-0.0859 -0.0375,-0.17813 -0.0375,-0.27188 0,-0.46719 0.32188,-0.86094002 0.754689,-0.97031002 0.0469,-0.4375 0.41875,-0.7796900005498 0.870309,-0.7796900005498 z m 2.249998,0 c 0.451559,0 0.821879,0.3421900005498 0.870308,0.7796900005498 0.43438,0.10937 0.75469,0.50156002 0.75469,0.97031002 0,0.0937 -0.0125,0.18594 -0.0375,0.27188 0.449999,0.0969 0.787499,0.49843 0.787499,0.97812 0,0.23438 -0.0797,0.45 -0.21562,0.62031 0.42343,0.2 0.715619,0.631239 0.715619,1.129679 0,0.53437 -0.33437,0.99063 -0.806249,1.16875 0.0359,0.10313 0.0563,0.21562 0.0563,0.33125 0,0.55156 -0.448439,1 -0.999999,1 -0.0875,0 -0.173439,-0.0109 -0.254689,-0.0328 -0.0469,0.44062 -0.41875,0.78281 -0.870309,0.78281 -0.48281,0 -0.874999,-0.39219 -0.874999,-0.875 V 0.87501648 c 0,-0.48281 0.392189,-0.87500000055 0.874999,-0.87500000055 z"
       id="path1"
       style="fill:#306230;stroke-width:0.015625" />
    <path
       d="m 12.738053,7.8095388 h -2.4381 L 11.365552,2.2019087 H 9.6588825 L 10.041108,0.19047618 h 5.85144 L 15.510322,2.2019087 h -1.70667 z m 6.497534,0 -0.616902,-2.2064805 h -0.646097 l -0.41929,2.2064805 h -2.4381 l 1.447825,-7.61906262 h 3.535245 q 1.560384,0 2.11796,0.65828701 0.557576,0.65828701 0.272644,2.15771851 -0.298831,1.5725746 -1.351009,2.1699091 l 0.743063,2.633148 z m -0.927103,-3.974103 h 0.987431 q 0.268191,0 0.386563,-0.1097145 0.130563,-0.1097145 0.18616,-0.4022866 l 0.115826,-0.609525 q 0.0556,-0.292572 -0.03327,-0.4022865 -0.07668,-0.1097145 -0.344867,-0.1097145 h -0.98743 z M 26.620186,0.19047618 25.172361,7.8095388 h -2.4381 l 1.447825,-7.61906262 z m 3.108568,0 0.228188,5.27848662 h 0.109714 L 32.30095,0.19047618 h 2.4381 l -3.2764,7.61906262 h -3.791246 l -0.38075,-7.61906262 z m 8.118878,0 -1.447825,7.61906262 h -2.4381 l 1.447825,-7.61906262 z m 4.401319,6.41220312 h -2.20648 l -0.534098,1.2068595 h -2.4381 l 3.398305,-7.61906262 h 3.791246 l 0.502655,7.61906262 h -2.4381 z M 42.121608,4.8350568 41.974286,2.5310522 h -0.109714 l -1.022966,2.3040046 z"
       id="text1"
       style="font-weight:800;font-size:12.1905px;font-family:Changa;-inkscape-font-specification:'Changa, Ultra-Bold';fill:#306230;stroke:#fdfdfd;stroke-width:0.380952"
       aria-label="TRIVIA" />
  </g>
</svg>
