<?xml version="1.0" encoding="UTF-8" standalone="no"?>
<svg
   width="32.585377"
   height="8.2034101"
   viewBox="0 0 32.585376 8.2034101"
   version="1.1"
   id="svg1"
   sodipodi:docname="auto-sportfight.svg"
   inkscape:version="1.3.2 (091e20ef0f, 2023-11-25)"
   xmlns:inkscape="http://www.inkscape.org/namespaces/inkscape"
   xmlns:sodipodi="http://sodipodi.sourceforge.net/DTD/sodipodi-0.dtd"
   xmlns="http://www.w3.org/2000/svg"
   xmlns:svg="http://www.w3.org/2000/svg">
  <defs
     id="defs1" />
  <sodipodi:namedview
     id="namedview1"
     pagecolor="#505050"
     bordercolor="#eeeeee"
     borderopacity="1"
     inkscape:showpageshadow="0"
     inkscape:pageopacity="0"
     inkscape:pagecheckerboard="0"
     inkscape:deskcolor="#505050"
     showgrid="true"
     inkscape:zoom="20.847912"
     inkscape:cx="29.931055"
     inkscape:cy="8.2502268"
     inkscape:window-width="1264"
     inkscape:window-height="1389"
     inkscape:window-x="3204"
     inkscape:window-y="8"
     inkscape:window-maximized="1"
     inkscape:current-layer="svg1">
    <inkscape:grid
       id="grid1"
       units="px"
       originx="1.0830119"
       originy="-0.30497657"
       spacingx="0.99999999"
       spacingy="1"
       empcolor="#0099e5"
       empopacity="0.30196078"
       color="#0099e5"
       opacity="0.14901961"
       empspacing="5"
       dotted="false"
       gridanglex="30"
       gridanglez="30"
       visible="true" />
  </sodipodi:namedview>
  <!--!Font Awesome Free 6.5.1 by @fontawesome - https://fontawesome.com License - https://fontawesome.com/license/free Copyright 2024 Fonticons, Inc.-->
  <path
     d="m 5.7697983,0.26697873 c -0.2909301,-0.30034769 -0.7706525,-0.30798845 -1.071,-0.0170583 L 4.1547684,0.77689061 3.8317506,1.0897756 3.2480495,1.6551719 c -0.099735,0.096616 -0.2603845,0.094057 -0.3569958,-0.00568 -0.096611,-0.099739 -0.094053,-0.2603887 0.00569,-0.357 L 3.1993564,0.99935929 3.0155465,0.97969829 C 2.7169797,0.94816259 2.4207489,1.0505716 2.2054075,1.2591607 L 1.7747178,1.676346 C 1.344028,2.0935313 1.121542,2.6803012 1.1666994,3.2780331 l 0.075208,1.0233697 -1.08805836,1.0539419 c -0.200611,0.1943166 -0.2056911,0.5133911 -0.011372,0.714 L 1.8990469,7.8827755 c 0.1943187,0.2006087 0.5133912,0.2056908 0.714,0.011372 L 3.8065092,6.7381069 C 4.5367504,7.0610708 5.4215038,6.9312123 6.0301346,6.3416654 L 6.9368464,5.4633769 7.1181873,5.2877178 7.2995283,5.1120586 C 7.5998757,4.8211284 7.6075166,4.3414062 7.3165865,4.0410585 7.1804603,3.9005257 7.004258,3.8251583 6.8247751,3.8122868 7.0849888,3.518475 7.0787516,3.0697842 6.8009957,2.7830373 6.6648615,2.6424964 6.4886593,2.5671291 6.3091764,2.5542575 6.5693901,2.2604457 6.5631528,1.8117549 6.2853969,1.525008 6.1492628,1.3844672 5.9730606,1.3090999 5.7935777,1.2962283 6.0537914,1.0024165 6.0475541,0.55372563 5.7697983,0.26697873 Z"
     id="path1"
     style="fill:#306230;stroke-width:0.0157793" />
  <g
     id="g2"
     transform="translate(0.67640967,-0.42503908)">
    <path
       d="M 9.2388643,4.3334365 H 8.0174903 V 0.51664263 H 10.521307 L 10.368635,1.5242762 H 9.2388643 V 2.1044289 H 10.277032 V 2.9899251 H 9.2388643 Z M 12.109089,0.51664263 V 4.3334365 H 10.887715 V 0.51664263 Z M 15.773206,2.049467 v 2.1007634 q -0.31145,0.1465649 -0.683969,0.2076336 -0.366412,0.067175 -0.879389,0.067175 -0.641222,0 -0.983207,-0.1770992 Q 12.884657,4.0708411 12.738092,3.649467 12.597634,3.2219861 12.597634,2.428093 q 0,-0.7938931 0.158778,-1.2152672 0.158779,-0.42748088 0.543512,-0.60458012 0.384733,-0.1832061 1.09313,-0.1832061 0.31145,0 0.671755,0.048855 0.366413,0.048855 0.525191,0.10992366 L 15.437328,1.5487037 q -0.219847,-0.048855 -0.494656,-0.079389 -0.268702,-0.036641 -0.458015,-0.036641 -0.329771,0 -0.451909,0.091603 -0.122137,0.091603 -0.122137,0.3358779 v 1.5816793 h 0.70229 V 2.9349632 h -0.31145 V 2.049467 Z M 19.590005,0.51664263 V 4.3334365 H 18.368631 V 2.8677876 h -0.91603 V 4.3334365 H 16.231227 V 0.51664263 h 1.221374 V 1.9822915 h 0.91603 V 0.51664263 Z M 22.002217,4.3334365 H 20.780843 V 1.5242762 H 19.925881 V 0.51664263 h 2.931298 V 1.5242762 H 22.002217 Z M 24.414429,0.51664263 V 4.3334365 H 23.193055 V 0.51664263 Z m 0.641217,0 h 1.209161 l 0.830534,1.33740457 q 0.152672,0.2564885 0.152672,0.4335878 h 0.03664 V 0.51664263 h 1.221374 V 4.3334365 h -1.20916 L 26.466333,2.9960319 Q 26.313662,2.7395434 26.313662,2.5624441 H 26.27702 V 4.3334365 H 25.055646 Z M 32.200678,2.049467 v 2.1007634 q -0.31145,0.1465649 -0.683969,0.2076336 -0.366412,0.067175 -0.879389,0.067175 -0.641222,0 -0.983206,-0.1770992 -0.341985,-0.1770992 -0.48855,-0.5984733 -0.140458,-0.4274809 -0.140458,-1.221374 0,-0.7938931 0.158779,-1.2152672 0.158778,-0.42748088 0.543511,-0.60458012 0.384733,-0.1832061 1.09313,-0.1832061 0.31145,0 0.671756,0.048855 0.366412,0.048855 0.52519,0.10992366 L 31.864801,1.5487032 q -0.219848,-0.048855 -0.494657,-0.079389 -0.268702,-0.036641 -0.458015,-0.036641 -0.329771,0 -0.451909,0.091603 -0.122137,0.091603 -0.122137,0.3358779 v 1.5816793 h 0.70229 V 2.9349632 h -0.31145 V 2.049467 Z"
       id="text1"
       style="font-weight:800;font-size:6.10687px;font-family:Changa;-inkscape-font-specification:'Changa, Ultra-Bold';fill:#306230;stroke-width:0.19084"
       transform="skewX(-10.528568)"
       aria-label="FIGHTING" />
    <path
       d="m 10.694833,7.4009683 q 0.576797,0.1954199 1.205804,0.1954199 0.311451,0 0.499952,-0.030534 L 12.458838,7.2299759 11.917691,7.181121 Q 11.448769,7.1383729 11.183987,7.0101286 10.92637,6.8757775 10.840488,6.6315027 q -0.08588,-0.2442748 -0.0181,-0.6351145 0.08896,-0.5129771 0.286361,-0.8061069 0.198459,-0.2992366 0.544364,-0.4274809 0.35307,-0.1343512 0.927116,-0.1343512 0.751145,0 1.403342,0.1832062 l -0.322122,0.9770992 q -0.305907,-0.067176 -0.521518,-0.091603 -0.214551,-0.030534 -0.446613,-0.030534 -0.31145,0 -0.506059,0.030534 l -0.05719,0.329771 0.432281,0.042748 q 0.73233,0.073282 1.010207,0.3725191 0.285043,0.2931298 0.183373,0.8793893 -0.117556,0.6778626 -0.563467,0.9954198 -0.444853,0.3114504 -1.287601,0.3114504 -0.867175,0 -1.555766,-0.2198473 z m 4.529729,1.1358779 h -1.221374 l 0.661914,-3.8167939 h 1.740458 q 0.781679,0 1.066475,0.329771 0.284796,0.329771 0.154531,1.080916 -0.131324,0.7572519 -0.530746,1.1236641 -0.398362,0.3603054 -1.100652,0.3603054 h -0.610687 z m 0.777605,-1.8076336 q 0.134351,0 0.192737,-0.054962 0.06449,-0.054962 0.08991,-0.2015268 l 0.08472,-0.4885494 q 0.02542,-0.1465649 -0.02001,-0.2015267 -0.03932,-0.054962 -0.173674,-0.054962 h -0.464122 l -0.173686,1.0015267 z m 1.812366,-0.09771 q 0.133442,-0.7694657 0.378569,-1.1969466 0.246185,-0.4335878 0.668797,-0.6167939 0.429777,-0.189313 1.132067,-0.189313 0.70229,0 1.060299,0.189313 0.365175,0.1832061 0.460974,0.6167939 0.09686,0.4274809 -0.03658,1.1969466 Q 21.345213,7.4009682 21.100087,7.8284491 20.85496,8.25593 20.425182,8.445243 20.00257,8.6284491 19.30028,8.6284491 q -0.70229,0 -1.067464,-0.1832061 Q 17.874807,8.25593 17.77795,7.8284491 17.681091,7.4009682 17.814533,6.6315026 Z m 1.703488,0.9526717 q 0.27481,0 0.390276,-0.067176 0.116525,-0.073282 0.148297,-0.2564885 L 20.331951,5.672724 h -0.561832 q -0.268702,0 -0.385228,0.073283 -0.115467,0.067176 -0.147239,0.2503817 L 18.962296,7.5841744 Z M 23.700898,8.5368462 23.373505,7.4315027 H 23.04984 l -0.191691,1.1053435 h -1.221374 l 0.661914,-3.8167939 h 1.770993 q 0.781679,0 1.066475,0.329771 0.284796,0.329771 0.154531,1.080916 -0.136619,0.7877863 -0.658742,1.0870229 l 0.394142,1.319084 z M 23.203404,6.5460065 h 0.494657 q 0.134351,0 0.192737,-0.054962 0.06449,-0.054962 0.08991,-0.2015268 l 0.05295,-0.3053433 q 0.02542,-0.1465649 -0.02001,-0.2015267 -0.03932,-0.054962 -0.173674,-0.054962 h -0.494657 z m 4.051692,1.9908397 H 26.033722 L 26.520891,5.7276859 H 25.66593 l 0.174745,-1.0076336 h 2.931297 l -0.174745,1.0076336 h -0.854962 z"
       id="text2"
       style="font-weight:800;font-size:6.10687px;font-family:Changa;-inkscape-font-specification:'Changa, Ultra-Bold';fill:#306230;stroke-width:0.19084"
       aria-label="SPORT" />
  </g>
</svg>
