<?xml version="1.0" encoding="UTF-8" standalone="no"?>
<!-- Created with Inkscape (http://www.inkscape.org/) -->

<svg
   width="63.815853mm"
   height="8mm"
   viewBox="0 0 63.815852 8"
   version="1.1"
   id="svg1"
   inkscape:version="1.3.2 (091e20ef0f, 2023-11-25)"
   sodipodi:docname="auto-rpgmmo.svg"
   xmlns:inkscape="http://www.inkscape.org/namespaces/inkscape"
   xmlns:sodipodi="http://sodipodi.sourceforge.net/DTD/sodipodi-0.dtd"
   xmlns="http://www.w3.org/2000/svg"
   xmlns:svg="http://www.w3.org/2000/svg">
  <sodipodi:namedview
     id="namedview1"
     pagecolor="#505050"
     bordercolor="#eeeeee"
     borderopacity="1"
     inkscape:showpageshadow="0"
     inkscape:pageopacity="0"
     inkscape:pagecheckerboard="0"
     inkscape:deskcolor="#505050"
     inkscape:document-units="mm"
     showgrid="true"
     inkscape:zoom="2.2829762"
     inkscape:cx="90.452104"
     inkscape:cy="177.40001"
     inkscape:window-width="1264"
     inkscape:window-height="1389"
     inkscape:window-x="3204"
     inkscape:window-y="8"
     inkscape:window-maximized="1"
     inkscape:current-layer="layer1">
    <inkscape:grid
       id="grid1"
       units="mm"
       originx="23.040539"
       originy="-1.2610425"
       spacingx="0.99999998"
       spacingy="1"
       empcolor="#0099e5"
       empopacity="0.30196078"
       color="#0099e5"
       opacity="0.14901961"
       empspacing="5"
       dotted="false"
       gridanglex="30"
       gridanglez="30"
       visible="true" />
  </sodipodi:namedview>
  <defs
     id="defs1" />
  <g
     inkscape:label="Calque 1"
     inkscape:groupmode="layer"
     id="layer1"
     transform="translate(23.040538,-1.2610425)">
    <!--!Font Awesome Free 6.5.1 by @fontawesome - https://fontawesome.com License - https://fontawesome.com/license/free Copyright 2024 Fonticons, Inc.-->
    <!--!Font Awesome Free 6.5.1 by @fontawesome - https://fontawesome.com License - https://fontawesome.com/license/free Copyright 2024 Fonticons, Inc.-->
    <path
       d="m -9.9634338,1.444261 h 3.0656388 l 0.9526686,3.8839566 h 0.085496 L -4.9069618,1.444261 h 3.0656387 l 0.4641207,7.6335626 H -3.8077288 L -4.003148,5.3770724 h -0.085496 L -4.9680303,9.0778236 H -6.8367265 L -7.7283266,5.3770724 h -0.073282 L -7.997028,9.0778236 h -2.430526 z m 9.90532117,0 H 3.0075261 l 0.9526687,3.8839566 h 0.085496 L 4.9983593,1.444261 H 8.0639981 L 8.5281187,9.0778236 H 6.0975923 L 5.9021731,5.3770724 H 5.8166772 L 4.9372908,9.0778236 H 3.0685946 L 2.1769945,5.3770724 H 2.1037123 L 1.9082931,9.0778236 H -0.52223324 Z M 9.3220194,5.2671491 q 0,-1.5389262 0.3419836,-2.3938852 0.341984,-0.8671727 1.12366,-1.2335837 0.793891,-0.3786247 2.198466,-0.3786247 1.404576,0 2.186253,0.3786247 0.79389,0.366411 1.135874,1.2335837 0.341984,0.854959 0.341984,2.3938852 0,1.5389263 -0.341984,2.3938853 -0.341984,0.854959 -1.135874,1.2335837 -0.781677,0.366411 -2.186253,0.366411 -1.404575,0 -2.198466,-0.366411 Q 10.005987,8.5159934 9.664003,7.6610344 9.3220194,6.8060754 9.3220194,5.2671491 Z m 3.7373926,1.9053373 q 0.549616,0 0.757249,-0.1343507 0.207633,-0.1465644 0.207633,-0.5129754 V 3.3495982 h -1.12366 q -0.537403,0 -0.745036,0.1465644 -0.207633,0.1343507 -0.207633,0.5007617 V 7.1724864 Z M 24.198314,9.0778236 23.160149,6.8671439 h -0.647326 v 2.2106797 h -2.44274 V 1.444261 h 3.541973 q 1.563354,0 2.247321,0.6595398 0.683967,0.6595398 0.683967,2.1618249 0,1.5755674 -0.940454,2.1740387 l 1.245797,2.6381592 z M 22.512823,5.0961573 h 0.98931 q 0.268701,0 0.366411,-0.1099233 0.109923,-0.1099233 0.109923,-0.4030521 v -0.610685 q 0,-0.2931288 -0.109923,-0.4030521 -0.09771,-0.1099233 -0.366411,-0.1099233 h -0.98931 z m 7.633562,3.9816663 h -2.44274 V 1.444261 h 3.480905 q 1.563354,0 2.247321,0.6595398 0.683967,0.6595398 0.683967,2.1618249 0,1.5144989 -0.671753,2.2473209 -0.671754,0.7206083 -2.07633,0.7206083 h -1.22137 z m 0.928242,-3.6152552 q 0.268701,0 0.366411,-0.1099234 0.109923,-0.1099233 0.109923,-0.4030521 v -0.977096 q 0,-0.2931288 -0.109923,-0.4030521 -0.09771,-0.1099233 -0.366411,-0.1099233 h -0.928242 v 2.0030469 z m 9.941954,-0.9526687 v 4.2015129 q -0.622899,0.2931288 -1.367935,0.4152658 -0.732822,0.1343507 -1.758773,0.1343507 -1.282438,0 -1.966405,-0.3541973 Q 35.2395,8.5526345 34.946372,7.7098892 34.665457,6.8549302 34.665457,5.2671491 q 0,-1.587781 0.317556,-2.4305263 0.317556,-0.854959 1.087019,-1.2091563 0.769463,-0.366411 2.186252,-0.366411 0.622899,0 1.343507,0.09771 0.732823,0.09771 1.050379,0.2198466 l -0.305343,1.9297646 q -0.439693,-0.09771 -0.98931,-0.1587781 -0.537402,-0.073282 -0.916027,-0.073282 -0.65954,0 -0.903814,0.1832055 -0.244274,0.1832055 -0.244274,0.6717535 v 3.1633484 h 1.404576 V 6.2808863 H 38.073079 V 4.5098997 Z"
       id="text2"
       style="font-weight:800;font-size:12.2137px;font-family:Changa;-inkscape-font-specification:'Changa, Ultra-Bold';fill:#306230;stroke-width:0.381679"
       transform="skewX(-10.830977)"
       aria-label="MMO RPG" />
    <!--!Font Awesome Free 6.5.1 by @fontawesome - https://fontawesome.com License - https://fontawesome.com/license/free Copyright 2024 Fonticons, Inc.-->
    <path
       d="m -17.539868,3.2063555 -0.810937,-0.203125 c -0.101563,-0.025 -0.176563,-0.110938 -0.1875,-0.215625 -0.01094,-0.104688 0.04375,-0.204688 0.135937,-0.251563 l 0.6375,-0.31875 -0.675,-0.50625 c -0.08594,-0.06406 -0.121875,-0.176562 -0.0875,-0.279687 0.03438,-0.103125 0.129688,-0.170313 0.2375,-0.170313 h 1.75 0.5 0.25 c 0.471875,0 0.917188,0.221875 1.2,0.6 l 0.9,1.2 c 0.09687,0.129688 0.15,0.2875 0.15,0.45 0,0.414063 -0.335937,0.75 -0.75,0.75 h -0.335937 c -0.265625,0 -0.520312,-0.104687 -0.707812,-0.292187 l -0.20625,-0.207813 h -0.500001 v 0.335938 c 0,0.3875 0.200001,0.748437 0.528126,0.954687 l 1.665624,1.040625 c 0.501563,0.314063 0.80625,0.8625 0.80625,1.4546876 0,0.946875 -0.767187,1.7140624 -1.715625,1.7140624 h -0.534375 -1 -6.245312 c -0.05156,0 -0.103125,-0.00625 -0.15,-0.021875 -0.14375,-0.04375 -0.260938,-0.15 -0.317188,-0.2890624 -0.02187,-0.053125 -0.03437,-0.1078122 -0.0375,-0.1671874 -0.0031,-0.057813 0.0047,-0.1140626 0.02031,-0.1671874 0.04375,-0.1437502 0.15,-0.2609374 0.290625,-0.31875 0.04687,-0.01875 0.09687,-0.03125 0.148437,-0.034375 l 6.310938,-0.5640626 c 0.129687,-0.010938 0.229687,-0.1203124 0.229687,-0.2515624 0,-0.067188 -0.02656,-0.13125 -0.07344,-0.178125 l -0.69375,-0.6937498 c -0.46875,-0.46875 -0.732813,-1.104688 -0.732813,-1.767188 v -0.710937 z m 2.5,-0.815625 c 0,-0.0016 0,-0.0031 0,-0.0047 0,-0.0016 0,-0.0031 0,-0.0047 z m -0.02031,0.115625 -0.725,-0.18125 c -0.0031,0.02031 -0.0047,0.04062 -0.0047,0.06094 0,0.207813 0.167188,0.375 0.375,0.375 0.165625,0 0.304688,-0.10625 0.354688,-0.254687 z m -5.934375,0.575 c 0.254687,-0.226563 0.63125,-0.253125 0.914062,-0.06406 l 2.040625,1.359375 v 0.43125 c 0,0.5125 0.13125,1.0125 0.375,1.453125 h -3.625 c -0.104687,0 -0.198437,-0.06563 -0.234375,-0.1625 -0.03594,-0.09688 -0.0078,-0.207812 0.07187,-0.276562 l 1.084375,-0.93125 -2.384375,0.367187 c -0.109375,0.01719 -0.217187,-0.04062 -0.264062,-0.140625 -0.04687,-0.1 -0.02344,-0.220312 0.05938,-0.29375 z"
       id="path1-1"
       style="fill:#306230;stroke-width:0.015625" />
  </g>
</svg>
