<?xml version="1.0" encoding="UTF-8" standalone="no"?>
<!-- Created with Inkscape (http://www.inkscape.org/) -->

<svg
   width="87.229408mm"
   height="8mm"
   viewBox="0 0 87.229406 8"
   version="1.1"
   id="svg1"
   inkscape:version="1.3.2 (091e20ef0f, 2023-11-25)"
   sodipodi:docname="auto-party.svg"
   xmlns:inkscape="http://www.inkscape.org/namespaces/inkscape"
   xmlns:sodipodi="http://sodipodi.sourceforge.net/DTD/sodipodi-0.dtd"
   xmlns="http://www.w3.org/2000/svg"
   xmlns:svg="http://www.w3.org/2000/svg">
  <sodipodi:namedview
     id="namedview1"
     pagecolor="#505050"
     bordercolor="#eeeeee"
     borderopacity="1"
     inkscape:showpageshadow="0"
     inkscape:pageopacity="0"
     inkscape:pagecheckerboard="0"
     inkscape:deskcolor="#505050"
     inkscape:document-units="mm"
     showgrid="true"
     inkscape:zoom="1.1848949"
     inkscape:cx="158.66386"
     inkscape:cy="-86.083584"
     inkscape:window-width="1264"
     inkscape:window-height="1389"
     inkscape:window-x="3204"
     inkscape:window-y="8"
     inkscape:window-maximized="1"
     inkscape:current-layer="layer1">
    <inkscape:grid
       id="grid1"
       units="mm"
       originx="-22.489584"
       originy="-81.097908"
       spacingx="0.99999998"
       spacingy="1"
       empcolor="#0099e5"
       empopacity="0.30196078"
       color="#0099e5"
       opacity="0.14901961"
       empspacing="5"
       dotted="false"
       gridanglex="30"
       gridanglez="30"
       visible="true" />
  </sodipodi:namedview>
  <defs
     id="defs1" />
  <g
     inkscape:label="Calque 1"
     inkscape:groupmode="layer"
     id="layer1"
     transform="translate(-22.489585,-81.097912)">
    <!--!Font Awesome Free 6.5.1 by @fontawesome - https://fontawesome.com License - https://fontawesome.com/license/free Copyright 2024 Fonticons, Inc.-->
    <path
       d="m 24.739585,81.097912 a 1.25,1.25 0 1 1 0,2.5 1.25,1.25 0 1 1 0,-2.5 z m 5.75,0 a 1.25,1.25 0 1 1 0,2.5 1.25,1.25 0 1 1 0,-2.5 z m -8,4.667187 c 0,-0.920312 0.746875,-1.667187 1.667188,-1.667187 h 0.667187 c 0.248438,0 0.484375,0.05468 0.696875,0.151562 -0.02031,0.1125 -0.02968,0.229688 -0.02968,0.348437 0,0.596876 0.2625,1.132813 0.676562,1.5 -0.0032,0 -0.0063,0 -0.01094,0 h -3.334375 c -0.182813,0 -0.332813,-0.15 -0.332813,-0.332812 z m 6.332813,0.332812 c -0.0031,0 -0.0063,0 -0.01093,0 0.415625,-0.367187 0.676563,-0.903124 0.676563,-1.5 0,-0.118749 -0.01094,-0.234375 -0.02968,-0.348437 0.2125,-0.09844 0.448438,-0.151562 0.696875,-0.151562 h 0.667188 c 0.920312,0 1.667187,0.746875 1.667187,1.667187 0,0.184375 -0.15,0.332812 -0.332812,0.332812 z m -2.832813,-1.5 a 1.5000002,1.5000002 0 1 1 3,0 1.5000002,1.5000002 0 1 1 -3,0 z m -1.5,4.082814 c 0,-1.150001 0.932813,-2.082813 2.082813,-2.082813 h 1.834375 c 1.15,0 2.082812,0.932812 2.082812,2.082813 0,0.229687 -0.185937,0.417187 -0.417187,0.417187 h -5.165625 c -0.229688,0 -0.417188,-0.185938 -0.417188,-0.417187 z"
       id="path1"
       style="fill:#306230;stroke-width:0.015625" />
    <path
       d="m 36.130049,88.914692 h -2.44274 l 1.428024,-7.633562 h 3.480904 q 1.563354,0 2.12394,0.65954 0.560586,0.65954 0.279551,2.161825 -0.28332,1.514499 -1.092164,2.247321 -0.806559,0.720608 -2.211134,0.720608 h -1.22137 z m 1.604553,-3.615255 q 0.268702,0 0.386975,-0.109922 0.130487,-0.109925 0.185323,-0.403053 l 0.182787,-0.977097 q 0.05484,-0.293127 -0.03452,-0.403052 -0.07715,-0.109923 -0.345847,-0.109923 h -0.928241 l -0.374714,2.003047 z m 7.427718,2.406099 h -2.21068 l -0.531542,1.209156 h -2.44274 l 3.382216,-7.633563 h 3.79846 l 0.526169,7.633563 h -2.44274 z M 45.0295,85.934549 44.875077,83.62616 h -0.109923 l -1.018092,2.30839 z m 7.454696,2.980143 -0.624609,-2.21068 h -0.647326 l -0.413555,2.21068 h -2.44274 l 1.428023,-7.633563 h 3.541973 q 1.563354,0 2.12394,0.65954 0.560586,0.659541 0.279551,2.161825 -0.294744,1.575568 -1.347156,2.174039 l 0.752272,2.638159 z m -0.940633,-3.981666 h 0.98931 q 0.268701,0 0.386974,-0.109923 0.130487,-0.109924 0.185323,-0.403053 l 0.114242,-0.610685 q 0.05484,-0.293128 -0.03452,-0.403052 -0.07715,-0.109923 -0.345848,-0.109923 h -0.98931 z m 8.049007,3.981666 h -2.44274 l 1.051025,-5.618302 h -1.709918 l 0.376998,-2.015261 h 5.862576 l -0.376998,2.015261 h -1.709918 z m 10.221885,-7.633563 -3.23059,5.190823 -0.456967,2.44274 h -2.44274 l 0.456967,-2.44274 -1.288479,-5.190823 h 2.564877 l 0.440782,2.54045 1.391273,-2.540449 z m 8.647859,3.065639 -0.785984,4.201514 q -0.677735,0.293128 -1.44562,0.415266 -0.757955,0.13435 -1.783905,0.13435 -1.282439,0 -1.900146,-0.354197 -0.617706,-0.354197 -0.753181,-1.196943 -0.120977,-0.854958 0.176052,-2.44274 0.297029,-1.587781 0.772239,-2.430527 0.477495,-0.854958 1.313218,-1.209155 0.838008,-0.366411 2.254798,-0.366411 0.622898,0 1.325228,0.09771 0.714544,0.09771 1.009251,0.219846 l -0.666347,1.929765 q -0.421414,-0.09771 -0.959606,-0.158778 -0.523694,-0.07328 -0.902319,-0.07328 -0.65954,0 -0.938087,0.183205 -0.278546,0.183206 -0.36994,0.671754 l -0.591773,3.163347 h 1.404576 l 0.189642,-1.013737 h -0.622899 l 0.331301,-1.770987 z m 4.69685,3.358768 h -2.21068 l -0.531541,1.209156 h -2.44274 l 3.382215,-7.633563 h 3.79846 l 0.52617,7.633563 h -2.442741 z m -0.13282,-1.770987 -0.154422,-2.308389 h -0.109924 l -1.018092,2.308389 z m 5.035404,-4.65342 h 3.065639 l 0.226091,3.883957 h 0.08549 l 1.679247,-3.883957 h 3.065639 l -0.963903,7.633563 H 92.78943 l 0.496887,-3.700751 h -0.0855 l -1.571692,3.700751 h -1.868697 l -0.199294,-3.700751 h -0.07328 l -0.887723,3.700751 h -2.430526 z m 11.016123,5.618303 h 2.870219 l -0.377,2.01526 h -5.312957 l 1.428023,-7.633563 h 5.374024 l -0.68234,2.015261 h -2.625942 l -0.171363,0.916028 h 2.442745 l -0.33131,1.770986 h -2.442736 z m 3.993009,-0.256488 q 1.14826,0.390838 2.40627,0.390838 0.6229,0 1.00073,-0.06107 l 0.12567,-0.671754 -1.08096,-0.09771 q -0.93667,-0.08549 -1.46273,-0.341983 -0.51157,-0.268701 -0.67666,-0.757249 -0.1651,-0.488548 -0.0189,-1.270225 0.19193,-1.025951 0.59473,-1.612209 0.40509,-0.598471 1.10039,-0.854958 0.70981,-0.268701 1.8579,-0.268701 1.50228,0 2.80167,0.366411 l -0.67091,1.954193 q -0.60998,-0.134351 -1.04054,-0.183206 -0.42827,-0.06107 -0.89239,-0.06107 -0.62289,0 -1.01294,0.06107 l -0.12338,0.65954 0.86339,0.0855 q 1.46265,0.146564 2.01023,0.745035 0.56208,0.586258 0.34274,1.758773 -0.25362,1.355721 -1.15411,1.990833 -0.8982,0.622899 -2.58369,0.622899 -1.73434,0 -3.10552,-0.439693 z"
       id="text1"
       style="font-weight:800;font-size:12.2137px;font-family:Changa;-inkscape-font-specification:'Changa, Ultra-Bold';fill:#306230;stroke-width:0.224413"
       aria-label="PARTY GAMES" />
  </g>
</svg>
