<?xml version="1.0" encoding="UTF-8" standalone="no"?>
<svg
   id="Calque_2"
   data-name="Calque 2"
   viewBox="0 0 288.05 154.75"
   version="1.1"
   sodipodi:docname="auto-arcade-sega-system32.svg"
   width="288.04999"
   height="154.75"
   inkscape:version="1.3.2 (091e20ef0f, 2023-11-25)"
   xmlns:inkscape="http://www.inkscape.org/namespaces/inkscape"
   xmlns:sodipodi="http://sodipodi.sourceforge.net/DTD/sodipodi-0.dtd"
   xmlns="http://www.w3.org/2000/svg"
   xmlns:svg="http://www.w3.org/2000/svg">
  <defs
     id="defs20" />
  <sodipodi:namedview
     id="namedview20"
     pagecolor="#505050"
     bordercolor="#eeeeee"
     borderopacity="1"
     inkscape:showpageshadow="0"
     inkscape:pageopacity="0"
     inkscape:pagecheckerboard="true"
     inkscape:deskcolor="#505050"
     inkscape:zoom="0.81930224"
     inkscape:cx="143.41472"
     inkscape:cy="76.284425"
     inkscape:window-width="1920"
     inkscape:window-height="1080"
     inkscape:window-x="0"
     inkscape:window-y="0"
     inkscape:window-maximized="1"
     inkscape:current-layer="Calque_2" />
  <g
     id="Calque_1-2"
     data-name="Calque 1"
     style="fill:#306230;fill-opacity:1"
     transform="translate(0,-0.01)">
    <g
       id="g20"
       style="fill:#306230;fill-opacity:1">
      <g
         id="g18"
         style="fill:#306230;fill-opacity:1">
        <g
           id="g9"
           style="fill:#306230;fill-opacity:1">
          <path
             d="m 0.85,85.75 37.48,-0.04 c 15.33,0 27.76,-12.39 27.76,-27.65 0,-15.26 -12.43,-27.68 -27.76,-27.68 l -9.73,0.05 c -0.77,0 -1.39,-0.63 -1.39,-1.4 0,-0.77 0.62,-1.4 1.39,-1.4 h 37.41 c 0,0 0.01,-11.73 0.01,-11.73 H 28.59 c -7.24,0 -13.12,5.88 -13.12,13.1 0,7.22 5.89,13.09 13.12,13.09 l 9.78,0.13 c 8.78,0 15.89,7.08 15.89,15.83 0,8.75 -7.11,15.85 -15.89,15.85 H 0.87 v 11.86"
             style="fill:#306230;stroke-width:0px;fill-opacity:1"
             id="path1" />
          <path
             d="m 0.87,71.13 h 37.5 c 7.26,0 13.13,-5.86 13.13,-13.09 0,-7.23 -5.87,-13.08 -13.13,-13.08 l -9.78,-0.11 c -8.77,0 -15.89,-7.09 -15.89,-15.86 0,-8.77 7.12,-15.83 15.89,-15.83 h 37.43 c 0,0 -0.01,-11.79 -0.01,-11.79 H 28.6 c -15.32,0 -27.76,12.38 -27.76,27.66 0,15.28 12.44,27.66 27.76,27.66 h 9.68 c 0.74,0.01 1.36,0.61 1.36,1.37 0,0.76 -0.62,1.34 -1.36,1.34 L 0.86,59.43 v 11.7"
             style="fill:#306230;stroke-width:0px;fill-opacity:1"
             id="path2" />
          <path
             d="m 95.14,73.96 c -6.5,0 -11.83,-5.18 -11.83,-11.8 V 24.72 c 0,-6.36 5.33,-11.6 11.83,-11.6 h 40 c 0,0 0,-11.75 0,-11.75 h -40 c -13.02,0 -23.56,10.51 -23.56,23.48 v 37.31 c 0,12.97 10.54,23.5 23.56,23.5 l 39.84,0.02 V 73.95 c 0,0 -39.84,0.01 -39.84,0.01"
             style="fill:#306230;stroke-width:0px;fill-opacity:1"
             id="path3" />
          <path
             d="m 86.18,24.85 c 0,-4.96 3.99,-8.98 8.96,-8.98 h 40 v 11.77 h -34.46 c -2.76,0 -2.8,2.74 -2.8,2.74 h 28.75 V 42.1 H 86.16 V 24.85"
             style="fill:#306230;stroke-width:0px;fill-opacity:1"
             id="path4" />
          <path
             d="m 95.14,71.11 c -4.95,0 -8.97,-4 -8.97,-8.94 V 44.9 h 40.47 V 56.64 H 97.89 c 0.04,2.76 2.8,2.77 2.8,2.77 h 34.3 v 11.68 c 0,0 -39.83,0.02 -39.83,0.02"
             style="fill:#306230;stroke-width:0px;fill-opacity:1"
             id="path5" />
          <path
             d="m 163.18,73.93 c -6.48,0 -11.77,-5.28 -11.77,-11.77 V 24.85 c 0,-6.49 5.26,-11.73 11.74,-11.73 h 38.74 V 1.37 h -38.83 c -13.01,0 -23.56,10.51 -23.56,23.48 v 37.31 c 0,12.97 10.64,23.5 23.65,23.5 l 38.74,0.02 v -55.3 h -33.3 V 42.1 h 21.53 v 31.82 h -26.95"
             style="fill:#306230;stroke-width:0px;fill-opacity:1"
             id="path6" />
          <path
             d="m 154.17,62.16 c 0,4.97 4.02,9.01 8.98,9.01 h 24.2 V 44.88 h -18.72 v 11.76 h 6.95 l 0.02,2.76 h -6.92 c -1.51,0 -2.75,-1.25 -2.75,-2.76 l -0.06,-26.26 c 0,0 0,-2.73 2.78,-2.8 h 33.26 V 15.87 c 0,0 -38.76,0 -38.76,0 -4.96,0 -8.98,4.02 -8.98,8.98 v 37.31"
             style="fill:#306230;stroke-width:0px;fill-opacity:1"
             id="path7" />
          <path
             d="m 238.3,15.7 c 0.52,-1.49 1.94,-2.57 3.62,-2.57 1.68,0 3.11,1.08 3.62,2.57 l 18.81,55.56 h -27.54 l 0.03,-13.07 h 9.2 L 241.9,45.88 228.4,85.67 H 214.52 L 238.3,15.7"
             style="fill:#306230;stroke-width:0px;fill-opacity:1"
             id="path8" />
          <path
             d="m 268.14,73.93 h -31.29 v 11.74 h 47.61 L 259.7,12.41 c -2.17,-7.15 -9.32,-12.4 -17.79,-12.4 -8.47,0 -15.61,5.23 -17.8,12.37 l -24.99,73.29 h 12.46 l 24.26,-71.24 c 0.99,-2.36 3.31,-4.02 6.04,-4.02 2.73,0 5.05,1.66 6.05,4.01 l 20.2,59.52"
             style="fill:#306230;stroke-width:0px;fill-opacity:1"
             id="path9" />
        </g>
        <g
           id="g15"
           style="fill:#306230;fill-opacity:1">
          <path
             d="m 29.86,119.84 c 1.01,1.06 1.76,2.23 2.24,3.49 0.48,1.27 0.72,2.74 0.72,4.42 0,4 -1.56,7.29 -4.68,9.89 -3.12,2.6 -6.99,3.89 -11.61,3.89 -2.13,0 -4.26,-0.31 -6.4,-0.94 C 8,139.96 6.16,139.2 4.61,138.31 l -1.45,2.33 H 0.47 L 0,125.14 h 2.73 c 0.56,1.91 1.22,3.64 1.97,5.18 0.75,1.54 1.74,2.98 2.98,4.32 1.17,1.26 2.53,2.25 4.09,3 1.56,0.75 3.37,1.12 5.44,1.12 1.55,0 2.9,-0.19 4.06,-0.57 1.16,-0.38 2.09,-0.93 2.81,-1.63 0.72,-0.7 1.25,-1.53 1.6,-2.48 0.35,-0.95 0.52,-2.04 0.52,-3.27 0,-1.81 -0.54,-3.5 -1.62,-5.06 -1.08,-1.56 -2.68,-2.75 -4.81,-3.56 -1.46,-0.55 -3.13,-1.16 -5.02,-1.83 -1.89,-0.67 -3.51,-1.3 -4.88,-1.89 -2.69,-1.15 -4.79,-2.65 -6.28,-4.51 -1.49,-1.86 -2.24,-4.29 -2.24,-7.29 0,-1.72 0.37,-3.33 1.11,-4.82 0.74,-1.49 1.79,-2.82 3.16,-3.99 1.3,-1.11 2.84,-1.97 4.61,-2.6 1.77,-0.63 3.62,-0.94 5.55,-0.94 2.2,0 4.17,0.32 5.91,0.96 1.74,0.64 3.33,1.38 4.76,2.23 l 1.38,-2.17 h 2.69 l 0.27,15.03 h -2.73 c -0.49,-1.72 -1.05,-3.37 -1.67,-4.94 -0.62,-1.57 -1.42,-3 -2.41,-4.28 -0.97,-1.23 -2.14,-2.22 -3.53,-2.95 -1.39,-0.73 -3.1,-1.1 -5.12,-1.1 -2.13,0 -3.95,0.65 -5.45,1.95 -1.5,1.3 -2.26,2.88 -2.26,4.75 0,1.87 0.48,3.58 1.45,4.87 0.96,1.29 2.37,2.34 4.21,3.17 1.64,0.75 3.25,1.39 4.83,1.93 1.58,0.54 3.11,1.12 4.59,1.74 1.35,0.55 2.64,1.18 3.89,1.88 1.25,0.7 2.33,1.52 3.25,2.46 z"
             style="fill:#306230;stroke-width:0px;fill-opacity:1"
             id="path10" />
          <path
             d="m 29.35,150.88 c 0,-1.06 0.31,-1.93 0.93,-2.6 0.62,-0.67 1.39,-1 2.31,-1 0.72,0 1.33,0.13 1.85,0.38 0.52,0.25 0.98,0.58 1.38,0.98 0.34,0.32 0.69,0.75 1.08,1.3 0.38,0.55 0.68,1 0.91,1.36 1.12,-0.57 2.46,-2.07 4.02,-4.49 1.56,-2.42 2.69,-4.54 3.38,-6.37 -2.13,-5.04 -4.06,-9.55 -5.79,-13.52 -1.73,-3.98 -3.53,-8.09 -5.42,-12.34 -0.43,-0.98 -1.14,-1.74 -2.15,-2.28 -1.01,-0.54 -2.02,-0.89 -3.03,-1.04 v -2.11 h 15.15 v 2.23 c -0.67,0.02 -1.48,0.15 -2.42,0.4 -0.94,0.25 -1.41,0.53 -1.41,0.84 0,0.13 0.05,0.34 0.15,0.64 0.1,0.3 0.22,0.61 0.35,0.92 0.85,2.1 2.15,5.14 3.89,9.1 1.75,3.96 3.1,7.13 4.06,9.51 1.01,-2.27 2.06,-4.63 3.15,-7.06 1.09,-2.43 2.31,-5.31 3.66,-8.62 0.16,-0.4 0.38,-0.96 0.67,-1.67 0.29,-0.71 0.44,-1.32 0.44,-1.83 0,-0.55 -0.51,-1.07 -1.53,-1.55 -1.02,-0.48 -1.99,-0.77 -2.91,-0.88 v -2.04 H 64.4 v 1.98 c -0.67,0.11 -1.56,0.47 -2.66,1.1 -1.1,0.63 -1.92,1.51 -2.46,2.66 -2.67,5.87 -5.04,11.22 -7.12,16.05 -2.08,4.83 -3.65,8.38 -4.73,10.66 -1.41,2.98 -2.68,5.3 -3.79,6.97 -1.11,1.67 -2.19,2.98 -3.25,3.94 -1.03,0.89 -1.97,1.49 -2.81,1.8 -0.84,0.31 -1.71,0.46 -2.61,0.46 -1.75,0 -3.13,-0.39 -4.12,-1.18 -1,-0.79 -1.5,-1.69 -1.5,-2.71 z"
             style="fill:#306230;stroke-width:0px;fill-opacity:1"
             id="path11" />
          <path
             d="m 81.65,125.2 c 0.92,0.77 1.63,1.65 2.12,2.65 0.49,1 0.74,2.22 0.74,3.67 0,2.91 -1.15,5.3 -3.45,7.15 -2.3,1.85 -5.28,2.78 -8.94,2.78 -1.93,0 -3.71,-0.33 -5.34,-0.99 -1.63,-0.66 -2.79,-1.27 -3.48,-1.82 l -0.67,2.07 h -2.52 l -0.34,-10.94 h 2.32 c 0.18,0.83 0.56,1.8 1.14,2.91 0.58,1.11 1.29,2.11 2.12,3.01 0.88,0.94 1.92,1.73 3.15,2.37 1.22,0.64 2.6,0.96 4.12,0.96 2.15,0 3.81,-0.46 4.98,-1.4 1.17,-0.93 1.75,-2.26 1.75,-4 0,-0.89 -0.19,-1.66 -0.56,-2.31 -0.37,-0.65 -0.92,-1.22 -1.63,-1.71 -0.74,-0.49 -1.65,-0.93 -2.73,-1.32 -1.08,-0.39 -2.28,-0.78 -3.6,-1.17 -1.06,-0.3 -2.23,-0.71 -3.52,-1.23 -1.29,-0.52 -2.4,-1.13 -3.32,-1.83 -0.99,-0.74 -1.8,-1.66 -2.42,-2.74 -0.63,-1.08 -0.94,-2.36 -0.94,-3.83 0,-2.57 1.01,-4.75 3.03,-6.54 2.02,-1.79 4.72,-2.68 8.11,-2.68 1.3,0 2.63,0.16 3.99,0.48 1.36,0.32 2.46,0.7 3.32,1.15 l 0.77,-1.66 h 2.42 l 0.5,10.11 h -2.32 c -0.47,-2.26 -1.49,-4.11 -3.05,-5.53 -1.56,-1.42 -3.46,-2.13 -5.71,-2.13 -1.84,0 -3.29,0.44 -4.34,1.32 -1.06,0.88 -1.58,1.94 -1.58,3.18 0,0.96 0.17,1.75 0.52,2.39 0.35,0.64 0.87,1.18 1.57,1.63 0.67,0.43 1.52,0.82 2.54,1.2 1.02,0.37 2.28,0.79 3.79,1.26 1.48,0.45 2.88,0.97 4.19,1.56 1.31,0.6 2.4,1.25 3.25,1.98 z"
             style="fill:#306230;stroke-width:0px;fill-opacity:1"
             id="path12" />
          <path
             d="m 103.96,139.23 c -1.46,0.57 -2.84,1.06 -4.14,1.45 -1.3,0.39 -2.9,0.59 -4.78,0.59 -2.78,0 -4.74,-0.67 -5.87,-1.99 -1.13,-1.33 -1.7,-3.21 -1.7,-5.63 v -21.31 h -5.99 v -3.06 h 6.13 v -9.79 h 6.13 v 9.79 h 9.53 v 3.06 h -9.46 v 17.58 c 0,1.32 0.05,2.42 0.15,3.3 0.1,0.88 0.34,1.65 0.72,2.31 0.36,0.62 0.9,1.08 1.62,1.4 0.72,0.32 1.68,0.48 2.9,0.48 0.56,0 1.39,-0.05 2.47,-0.14 1.09,-0.1 1.86,-0.22 2.31,-0.37 v 2.33 z"
             style="fill:#306230;stroke-width:0px;fill-opacity:1"
             id="path13" />
          <path
             d="m 130.68,133.2 c -1.39,2.51 -3.25,4.51 -5.59,6 -2.34,1.49 -5.02,2.23 -8.04,2.23 -2.67,0 -5.01,-0.45 -7.02,-1.34 -2.01,-0.89 -3.66,-2.11 -4.96,-3.64 -1.3,-1.53 -2.27,-3.32 -2.91,-5.36 -0.64,-2.04 -0.96,-4.2 -0.96,-6.48 0,-2.04 0.34,-4.05 1.03,-6.01 0.68,-1.97 1.69,-3.74 3.01,-5.31 1.28,-1.51 2.87,-2.73 4.76,-3.65 1.9,-0.92 4.02,-1.39 6.38,-1.39 2.36,0 4.5,0.36 6.23,1.08 1.73,0.72 3.13,1.71 4.21,2.97 1.03,1.19 1.8,2.6 2.31,4.21 0.5,1.62 0.76,3.37 0.76,5.26 v 2.11 h -21.98 c 0,2.07 0.21,3.94 0.62,5.63 0.42,1.68 1.07,3.17 1.97,4.44 0.88,1.24 2.02,2.21 3.43,2.93 1.41,0.71 3.1,1.07 5.05,1.07 1.95,0 3.72,-0.44 5.17,-1.33 1.45,-0.89 2.84,-2.49 4.19,-4.79 l 2.36,1.37 z m -7.44,-12 c 0,-1.19 -0.11,-2.46 -0.32,-3.82 -0.21,-1.36 -0.56,-2.49 -1.03,-3.4 -0.52,-0.97 -1.22,-1.77 -2.12,-2.38 -0.9,-0.62 -2.05,-0.92 -3.47,-0.92 -2.36,0 -4.31,0.93 -5.87,2.78 -1.56,1.85 -2.41,4.44 -2.54,7.75 h 15.35 z"
             style="fill:#306230;stroke-width:0px;fill-opacity:1"
             id="path14" />
          <path
             d="m 185.24,140.6 h -16.16 v -2.11 c 0.52,-0.04 1.04,-0.08 1.56,-0.13 0.53,-0.04 0.99,-0.13 1.4,-0.25 0.63,-0.19 1.09,-0.53 1.4,-1 0.31,-0.47 0.46,-1.1 0.46,-1.87 V 119 c 0,-2.21 -0.53,-3.92 -1.6,-5.12 -1.07,-1.2 -2.4,-1.8 -3.99,-1.8 -1.1,0 -2.13,0.16 -3.1,0.48 -0.96,0.32 -1.85,0.77 -2.66,1.34 -0.65,0.47 -1.19,0.97 -1.63,1.51 -0.44,0.54 -0.77,1 -0.99,1.36 v 18.15 c 0,0.75 0.13,1.36 0.4,1.83 0.27,0.47 0.73,0.84 1.38,1.1 0.52,0.19 0.98,0.33 1.4,0.43 0.41,0.1 0.96,0.17 1.63,0.21 v 2.11 h -15.82 v -2.11 c 0.52,-0.04 1.02,-0.08 1.5,-0.13 0.48,-0.04 0.93,-0.13 1.33,-0.25 0.63,-0.19 1.09,-0.53 1.4,-1 0.3,-0.48 0.45,-1.1 0.45,-1.87 V 119 c 0,-2.21 -0.53,-3.92 -1.6,-5.12 -1.07,-1.2 -2.4,-1.8 -4,-1.8 -1.1,0 -2.14,0.17 -3.1,0.49 -0.97,0.33 -1.86,0.78 -2.67,1.36 -0.65,0.47 -1.2,1 -1.65,1.58 -0.45,0.59 -0.79,1.03 -1.01,1.32 v 18.03 c 0,0.72 0.16,1.33 0.47,1.82 0.31,0.49 0.79,0.86 1.41,1.12 0.47,0.21 0.95,0.37 1.45,0.48 0.49,0.11 1.04,0.18 1.65,0.22 v 2.11 h -16.12 v -2.11 c 0.52,-0.04 1.05,-0.08 1.6,-0.13 0.55,-0.04 1.03,-0.13 1.43,-0.25 0.63,-0.19 1.09,-0.53 1.4,-1 0.3,-0.48 0.45,-1.1 0.45,-1.86 v -19.53 c 0,-0.68 -0.16,-1.29 -0.49,-1.83 -0.33,-0.54 -0.78,-1 -1.36,-1.39 -0.43,-0.25 -0.95,-0.46 -1.58,-0.62 -0.63,-0.16 -1.28,-0.26 -1.95,-0.3 v -2.11 l 11.11,-0.7 0.47,0.45 v 4.5 h 0.24 c 0.56,-0.53 1.25,-1.16 2.05,-1.88 0.81,-0.72 1.56,-1.31 2.25,-1.75 0.79,-0.51 1.77,-0.94 2.95,-1.28 1.18,-0.34 2.45,-0.51 3.82,-0.51 2.15,0 4.01,0.55 5.55,1.64 1.55,1.1 2.66,2.42 3.33,3.97 0.81,-0.74 1.52,-1.4 2.13,-1.96 0.62,-0.56 1.43,-1.17 2.44,-1.8 0.85,-0.55 1.85,-1 3.01,-1.34 1.15,-0.34 2.44,-0.51 3.85,-0.51 2.8,0 5.02,0.87 6.65,2.62 1.63,1.74 2.45,4.42 2.45,8.04 v 15.98 c 0,0.75 0.13,1.36 0.4,1.83 0.27,0.48 0.73,0.84 1.38,1.1 0.52,0.19 1.03,0.33 1.53,0.43 0.51,0.1 1.07,0.17 1.7,0.21 v 2.11 z"
             style="fill:#306230;stroke-width:0px;fill-opacity:1"
             id="path15" />
        </g>
        <g
           id="g17"
           style="fill:#306230;fill-opacity:1">
          <path
             d="m 277.99,121.63 h -0.38 c -0.03,-0.1 -0.09,-0.23 -0.18,-0.37 -0.09,-0.14 -0.18,-0.28 -0.29,-0.4 -0.11,-0.13 -0.23,-0.25 -0.36,-0.35 -0.13,-0.1 -0.26,-0.16 -0.38,-0.17 -0.11,-0.01 -0.26,-0.02 -0.43,-0.03 -0.17,0 -0.33,0 -0.48,0 h -0.32 v 4.9 c 0,0.09 0.03,0.18 0.08,0.26 0.05,0.08 0.14,0.14 0.27,0.18 0.07,0.02 0.2,0.05 0.41,0.08 0.21,0.03 0.38,0.05 0.49,0.06 v 0.31 h -3.68 v -0.31 c 0.1,0 0.26,-0.02 0.47,-0.03 0.21,-0.01 0.36,-0.04 0.44,-0.06 0.12,-0.04 0.21,-0.09 0.27,-0.16 0.06,-0.07 0.08,-0.16 0.08,-0.28 v -4.94 h -0.32 c -0.11,0 -0.25,0 -0.42,0 -0.17,0 -0.33,0.01 -0.48,0.03 -0.12,0.01 -0.25,0.07 -0.38,0.17 -0.13,0.1 -0.25,0.22 -0.36,0.35 -0.11,0.13 -0.21,0.27 -0.29,0.41 -0.08,0.14 -0.14,0.27 -0.18,0.36 h -0.38 v -1.66 h 6.79 v 1.66 z"
             style="fill:#306230;stroke-width:0px;fill-opacity:1"
             id="path16" />
          <path
             d="m 288.05,126.09 h -3.44 v -0.31 c 0.12,0 0.29,-0.01 0.48,-0.03 0.2,-0.02 0.33,-0.04 0.4,-0.07 0.11,-0.05 0.2,-0.12 0.25,-0.19 0.05,-0.07 0.08,-0.16 0.08,-0.27 v -4.45 h -0.08 l -2.66,5.22 h -0.27 l -2.53,-5.32 h -0.07 v 3.65 c 0,0.35 0.03,0.62 0.09,0.81 0.06,0.18 0.14,0.32 0.26,0.4 0.08,0.06 0.25,0.12 0.5,0.17 0.25,0.05 0.42,0.08 0.49,0.09 v 0.31 h -3.15 v -0.31 c 0.17,-0.01 0.34,-0.03 0.52,-0.06 0.18,-0.03 0.32,-0.08 0.42,-0.14 0.13,-0.08 0.22,-0.2 0.26,-0.37 0.05,-0.17 0.07,-0.45 0.07,-0.84 v -3.13 c 0,-0.18 -0.03,-0.33 -0.08,-0.44 -0.06,-0.12 -0.13,-0.21 -0.24,-0.28 -0.11,-0.08 -0.25,-0.13 -0.42,-0.17 -0.17,-0.04 -0.33,-0.06 -0.49,-0.06 v -0.31 h 2.66 l 2.23,4.59 1.91,-3.84 c 0.07,-0.14 0.13,-0.29 0.18,-0.44 0.05,-0.15 0.08,-0.26 0.08,-0.31 h 2.54 v 0.31 c -0.1,0 -0.23,0.02 -0.39,0.04 -0.16,0.02 -0.28,0.04 -0.35,0.06 -0.12,0.03 -0.21,0.09 -0.25,0.17 -0.04,0.08 -0.07,0.17 -0.07,0.26 v 4.41 c 0,0.1 0.02,0.19 0.07,0.25 0.04,0.07 0.13,0.13 0.25,0.18 0.07,0.03 0.18,0.06 0.35,0.08 0.17,0.02 0.3,0.04 0.4,0.04 v 0.31 z"
             style="fill:#306230;stroke-width:0px;fill-opacity:1"
             id="path17" />
        </g>
      </g>
      <g
         id="g19"
         style="fill:#306230;fill-opacity:1">
        <path
           d="m 228.55,114.13 c 1.54,0.6 2.49,1.57 2.85,2.92 0.36,1.35 -0.36,4.52 -2.18,9.51 -1.35,3.7 -2.81,6.58 -4.4,8.62 -1.59,2.04 -3.6,3.6 -6.04,4.66 -2.45,1.06 -5.28,1.6 -8.5,1.6 -3.66,0 -6.31,-0.62 -7.94,-1.86 -1.64,-1.24 -2.46,-2.75 -2.46,-4.55 0,-1.79 0.8,-4.9 2.41,-9.34 l 1.34,-3.68 h 11.55 l -2.75,7.57 c -0.73,2.01 -1.08,3.29 -1.04,3.84 0.04,0.55 0.47,0.82 1.29,0.82 0.9,0 1.61,-0.35 2.15,-1.04 0.54,-0.69 1.34,-2.49 2.4,-5.41 l 1.17,-3.22 c 0.65,-1.78 0.92,-3.09 0.82,-3.91 -0.1,-0.82 -0.49,-1.37 -1.18,-1.63 -0.69,-0.26 -2.15,-0.41 -4.38,-0.45 l 2.46,-6.76 c 2.74,0 4.48,-0.1 5.2,-0.32 0.72,-0.21 1.36,-0.67 1.9,-1.38 0.54,-0.71 1.09,-1.82 1.64,-3.34 l 0.94,-2.59 c 0.59,-1.63 0.82,-2.7 0.67,-3.22 -0.15,-0.52 -0.57,-0.78 -1.27,-0.78 -0.8,0 -1.45,0.27 -1.94,0.82 -0.49,0.55 -1.07,1.71 -1.71,3.5 l -1.39,3.83 h -11.55 l 1.44,-3.97 c 1.62,-4.45 3.72,-7.46 6.31,-9.02 2.59,-1.56 6.08,-2.34 10.49,-2.34 5.51,0 8.85,1.08 10.02,3.25 1.17,2.17 1.06,5.17 -0.34,9.03 -0.95,2.61 -1.99,4.49 -3.11,5.65 -1.12,1.16 -2.75,2.22 -4.87,3.18 z"
           style="fill:#306230;stroke-width:0px;fill-opacity:1"
           id="path18" />
        <path
           d="m 253.77,132.55 -2.89,7.94 h -25.41 l 2.43,-6.65 c 12.04,-12.39 19.3,-20.06 21.79,-23 2.49,-2.94 4.04,-5.24 4.64,-6.89 0.46,-1.27 0.59,-2.21 0.39,-2.83 -0.2,-0.62 -0.74,-0.94 -1.62,-0.94 -0.88,0 -1.66,0.35 -2.34,1.04 -0.68,0.69 -1.39,2.06 -2.14,4.11 l -1.61,4.43 h -10.35 l 0.62,-1.7 c 0.95,-2.61 1.83,-4.67 2.65,-6.17 0.81,-1.51 2.01,-2.99 3.59,-4.44 1.58,-1.46 3.34,-2.56 5.29,-3.31 1.95,-0.75 4.1,-1.12 6.44,-1.12 4.59,0 7.65,1.15 9.17,3.44 1.52,2.29 1.64,5.19 0.36,8.7 -0.97,2.67 -2.66,5.49 -5.07,8.46 -2.41,2.97 -8.61,9.28 -18.6,18.93 h 12.67 z"
           style="fill:#306230;stroke-width:0px;fill-opacity:1"
           id="path19" />
      </g>
    </g>
  </g>
</svg>
