<?xml version="1.0" encoding="UTF-8" standalone="no"?>
<!-- Created with Inkscape (http://www.inkscape.org/) -->

<svg
   version="1.1"
   id="svg1"
   width="599.17303"
   height="159.377"
   viewBox="0 0 599.17303 159.377"
   sodipodi:docname="auto-arcade-konami.svg"
   inkscape:export-filename="auto-arcade-namco.svg"
   inkscape:export-xdpi="96"
   inkscape:export-ydpi="96"
   xmlns:inkscape="http://www.inkscape.org/namespaces/inkscape"
   xmlns:sodipodi="http://sodipodi.sourceforge.net/DTD/sodipodi-0.dtd"
   xmlns="http://www.w3.org/2000/svg"
   xmlns:svg="http://www.w3.org/2000/svg">
  <defs
     id="defs1" />
  <sodipodi:namedview
     id="namedview1"
     pagecolor="#306230"
     bordercolor="#000000"
     borderopacity="0.25"
     inkscape:showpageshadow="2"
     inkscape:pageopacity="0.0"
     inkscape:pagecheckerboard="0"
     inkscape:deskcolor="#d1d1d1" />
  <g
     inkscape:groupmode="layer"
     inkscape:label="Image"
     id="g1"
     transform="translate(-0.87018788,-70.429977)">
    <path
       style="fill:#306230;stroke-width:0.975907"
       d="m 33.585608,220.19133 c -8.8311,-2.61854 -16.202621,-8.57915 -20.588753,-16.64812 -2.380581,-4.37943 -2.720597,-6.08411 -2.720597,-13.63984 0,-7.55572 0.340016,-9.2604 2.720597,-13.63984 3.452197,-6.35084 8.331766,-11.06994 14.914103,-14.42364 5.13343,-2.61549 5.36975,-2.64101 27.26511,-2.94417 l 22.08679,-0.30581 v -26.79816 -26.79816 h -23.82396 -23.82395 v 27.34383 27.34383 H 16.7103 3.8056561 V 121.78366 83.88608 l 41.4437619,0.0211 c 38.82823,0.0198 41.69435,0.13752 45.41442,1.86624 4.65322,2.16234 6.21068,3.36643 9.20547,7.11683 2.182212,2.73279 2.210182,3.16691 2.210182,34.29971 v 31.53189 h 12.05877 12.05879 l -3.37297,-2.15873 c -2.0508,-1.31253 -4.50137,-4.34075 -6.25168,-7.72535 -2.47667,-4.78915 -2.87873,-6.66923 -2.87873,-13.4613 0,-12.89634 3.64648,-20.26515 11.44821,-23.13457 3.63549,-1.33712 8.481,-1.51925 34.1855,-1.28495 l 29.94961,0.27299 0.32667,-4.63773 c 0.17968,-2.55076 0.14055,-4.81741 -0.087,-5.03701 -0.22746,-0.21962 -15.52691,-0.3993 -33.99876,-0.3993 h -33.58516 v -8.15518 -8.15517 h 40.58708 40.58707 l 4.74382,3.11815 c 8.40545,5.52499 8.3852,5.42772 8.3852,40.2812 v 30.47695 h 6.94865 6.94866 V 121.78369 84.84554 h 63.99234 63.99236 l 3.56735,3.02732 c 7.34136,6.23001 7.42104,6.66584 7.42104,40.58864 v 30.26035 h 11.53244 11.53242 l -4.07811,-3.94159 c -2.3956,-2.3154 -4.51176,-5.49809 -5.12917,-7.71425 -0.64637,-2.32004 -0.93662,-12.74417 -0.75383,-27.07308 l 0.29723,-23.30042 2.66433,-3.88839 c 1.60328,-2.33985 4.39652,-4.69885 7.0139,-5.92348 4.21387,-1.97161 5.60952,-2.0351 44.73541,-2.0351 h 40.38586 v 9.59433 9.59432 H 442.56357 407.8203 v 18.70894 18.70893 h 34.74327 34.74327 v 8.63489 8.6349 h 9.94074 9.94073 l -2.74391,-4.00496 -2.74391,-4.00495 -0.31223,-25.97732 c -0.33478,-27.85343 0.0541,-31.01898 4.42758,-36.04257 5.46658,-6.27917 5.00197,-6.21292 46.01423,-6.56122 42.80965,-0.36357 45.45628,-0.0759 51.50614,5.59877 5.83964,5.47745 6.2329,7.94181 5.87979,36.84581 l -0.3077,25.18574 -2.75849,3.49322 c -4.05356,5.13324 -9.04136,8.44949 -13.5966,9.04002 l -4.0211,0.52129 3.23944,2.29777 c 4.06335,2.88219 6.07753,5.29796 9.46977,11.3579 2.35215,4.20189 2.68537,5.86866 2.68537,13.43205 0,7.55573 -0.34001,9.26041 -2.7206,13.63984 -3.45219,6.35085 -8.33176,11.06995 -14.9141,14.42365 l -5.17831,2.63836 -267.5232,0.16097 c -147.13777,0.0885 -268.639962,-0.17016 -270.004872,-0.57486 z m 54.31521,-9.50681 c 5.06037,-2.51285 6.23735,-4.43083 6.23735,-10.16431 v -4.38052 h -6.94866 -6.94865 v 3.78333 c 0,2.82195 -0.56062,4.16284 -2.20621,5.27687 -3.16215,2.14071 -9.26594,1.91866 -11.6911,-0.42531 -1.78171,-1.72206 -1.98533,-3.19811 -1.98533,-14.39149 0,-11.19338 0.20362,-12.66943 1.98533,-14.39149 2.42516,-2.34397 8.52895,-2.56602 11.6911,-0.42531 1.43011,0.96815 2.20621,2.48694 2.20621,4.31744 v 2.8239 h 6.94865 6.94866 v -3.70834 c 0,-8.40283 -8.24313,-12.21137 -24.75225,-11.43621 -10.30975,0.48408 -14.38185,1.88525 -17.8447,6.14016 -1.8891,2.3212 -2.07298,3.80073 -2.07298,16.67985 0,12.85579 0.18634,14.36167 2.06232,16.66674 4.14214,5.0896 8.92325,6.37773 22.25798,5.99677 7.8296,-0.22368 10.81088,-0.72268 14.11228,-2.36208 z m 204.359762,1.64456 c 6.16341,-1.5 10.33723,-5.45073 10.33723,-9.78468 0,-5.20659 -3.78854,-8.68121 -15.24336,-13.98024 -11.012,-5.09418 -13.87461,-7.40867 -13.37553,-10.81443 0.24453,-1.66862 1.24015,-2.45573 3.91423,-3.09447 5.21831,-1.24645 8.818,-0.0749 10.13546,3.29851 1.07647,2.75644 1.29368,2.83499 7.83818,2.83499 6.12361,0 6.73102,-0.17745 6.73102,-1.96651 0,-3.67079 -2.78479,-7.2522 -7.1002,-9.13128 -5.74138,-2.49999 -25.54293,-2.6711 -30.12708,-0.26032 -7.8198,4.11238 -9.17218,10.76281 -3.28463,16.15241 1.26187,1.15515 7.11094,4.44539 12.99794,7.31163 12.28679,5.98219 14.81463,8.80453 10.74117,11.99259 -2.52265,1.97433 -8.05731,2.38017 -11.08708,0.81298 -1.23551,-0.63909 -1.92007,-2.00736 -1.92007,-3.83773 v -2.84455 h -7.44498 c -7.31822,0 -7.44499,0.0416 -7.44499,2.44623 0,5.4649 4.63533,9.68958 12.40831,11.30903 4.15225,0.8651 17.66997,0.59125 21.92438,-0.44416 z m 68.49388,0 c 6.16341,-1.5 10.33723,-5.45073 10.33723,-9.78468 0,-5.20659 -3.78854,-8.68121 -15.24336,-13.98024 -11.012,-5.09418 -13.87461,-7.40867 -13.37552,-10.81443 0.24452,-1.66862 1.24014,-2.45573 3.91422,-3.09447 5.21831,-1.24645 8.818,-0.0749 10.13546,3.29851 1.07647,2.75644 1.29368,2.83499 7.83818,2.83499 6.12361,0 6.73102,-0.17745 6.73102,-1.96651 0,-3.67079 -2.78479,-7.2522 -7.1002,-9.13128 -5.74138,-2.49999 -25.54293,-2.6711 -30.12708,-0.26032 -7.8198,4.11238 -9.17218,10.76281 -3.28462,16.15241 1.26186,1.15515 7.11093,4.44539 12.99793,7.31163 12.28679,5.98219 14.81463,8.80453 10.74117,11.99259 -2.52265,1.97433 -8.05731,2.38017 -11.08707,0.81298 -1.23551,-0.63909 -1.92008,-2.00736 -1.92008,-3.83773 v -2.84455 h -7.44498 c -7.31822,0 -7.44499,0.0416 -7.44499,2.44623 0,5.4649 4.63533,9.68958 12.40831,11.30903 4.15225,0.8651 17.66997,0.59125 21.92438,-0.44416 z m 117.26369,-1.64456 c 5.06038,-2.51285 6.23735,-4.43083 6.23735,-10.16431 v -4.38052 h -6.94866 -6.94865 v 3.78333 c 0,2.82195 -0.56062,4.16284 -2.20621,5.27687 -3.16215,2.14071 -9.26594,1.91866 -11.6911,-0.42531 -1.7817,-1.72206 -1.98533,-3.19811 -1.98533,-14.39149 0,-11.19338 0.20363,-12.66943 1.98533,-14.39149 2.42516,-2.34397 8.52895,-2.56602 11.6911,-0.42531 1.4301,0.96815 2.20621,2.48694 2.20621,4.31744 v 2.8239 h 6.94865 6.94866 v -3.70834 c 0,-8.40283 -8.24313,-12.21137 -24.75224,-11.43621 -10.30976,0.48408 -14.38186,1.88525 -17.8447,6.14016 -1.88911,2.3212 -2.07298,3.80073 -2.07298,16.67985 0,12.85579 0.18633,14.36167 2.06231,16.66674 4.14214,5.0896 8.92325,6.37773 22.25798,5.99677 7.8296,-0.22368 10.81088,-0.72268 14.11228,-2.36208 z m 67.37199,1.64456 c 6.16342,-1.5 10.33724,-5.45073 10.33724,-9.78468 0,-5.20659 -3.78855,-8.68121 -15.24337,-13.98024 -11.012,-5.09418 -13.8746,-7.40867 -13.37552,-10.81443 0.24452,-1.66862 1.24014,-2.45573 3.91422,-3.09447 5.21831,-1.24645 8.81801,-0.0749 10.13546,3.29851 1.07648,2.75644 1.29368,2.83499 7.83818,2.83499 6.12361,0 6.73103,-0.17745 6.73103,-1.96651 0,-3.67079 -2.7848,-7.2522 -7.10021,-9.13128 -5.74138,-2.49999 -25.54293,-2.6711 -30.12707,-0.26032 -7.81981,4.11238 -9.17219,10.76281 -3.28463,16.15241 1.26186,1.15515 7.11093,4.44539 12.99793,7.31163 12.28679,5.98219 14.81463,8.80453 10.74117,11.99259 -2.52265,1.97433 -8.05731,2.38017 -11.08707,0.81298 -1.23551,-0.63909 -1.92007,-2.00736 -1.92007,-3.83773 v -2.84455 h -7.44499 c -7.31821,0 -7.44499,0.0416 -7.44499,2.44623 0,5.4649 4.63533,9.68958 12.40831,11.30903 4.15225,0.8651 17.66998,0.59125 21.92438,-0.44416 z m -382.75809,-3.23706 v -3.35801 h -11.91198 -11.91198 v -19.18865 -19.18865 h -7.94132 -7.94132 v 22.54666 22.54667 h 19.8533 19.8533 z m 36.52885,-0.99535 1.20468,-4.35338 9.14656,0.27579 9.14657,0.27578 1.10874,3.83773 1.10873,3.83773 7.60655,0.28021 c 4.18358,0.15413 7.60047,-0.0618 7.59307,-0.47971 -0.007,-0.41796 -3.32509,-10.47418 -7.37264,-22.34716 l -7.3592,-21.58723 h -11.15403 -11.15404 l -6.70324,19.4102 c -3.68678,10.6756 -6.99944,20.71367 -7.36148,22.30681 l -0.65823,2.8966 h 6.82164 6.82164 z m 3.53305,-11.46801 c 0.31224,-0.78644 1.74752,-5.21182 3.18953,-9.83418 1.44199,-4.62237 2.93925,-8.73533 3.32723,-9.13992 0.38797,-0.40459 1.92704,3.26523 3.42014,8.15517 1.4931,4.88994 2.94517,9.64636 3.22682,10.56981 0.45413,1.48903 -0.29375,1.67901 -6.60967,1.67901 -5.90212,0 -7.02454,-0.24488 -6.55405,-1.42989 z m 210.08967,-6.72529 v -22.54666 h -7.94132 -7.94132 v 22.54666 22.54667 h 7.94132 7.94132 z M 287.70784,131.85771 v -26.86412 h -16.37897 -16.37898 v 26.86412 26.86411 h 16.37898 16.37897 z m 56.34944,-0.23986 0.26387,-26.62426 H 328.4228 312.52446 v 26.88848 26.88848 l 15.63447,-0.26423 15.63448,-0.26422 z m 229.53806,-8.87475 v -21.58723 h -28.78728 -28.78728 v 21.58723 21.58723 h 28.78728 28.78728 z M 190.42667,134.736 v -6.71602 h -24.32029 -24.32029 v 6.71602 6.71603 h 24.32029 24.32029 z"
       id="path1-3" />
  </g>
</svg>
