<?xml version="1.0" encoding="UTF-8" standalone="no"?>
<!-- Created with Inkscape (http://www.inkscape.org/) -->

<svg
   width="82.048531mm"
   height="8.0000019mm"
   viewBox="0 0 82.048531 8.0000019"
   version="1.1"
   id="svg1"
   inkscape:version="1.3.2 (091e20ef0f, 2023-11-25)"
   sodipodi:docname="auto-simulationbuildandmanagement.svg"
   xmlns:inkscape="http://www.inkscape.org/namespaces/inkscape"
   xmlns:sodipodi="http://sodipodi.sourceforge.net/DTD/sodipodi-0.dtd"
   xmlns="http://www.w3.org/2000/svg"
   xmlns:svg="http://www.w3.org/2000/svg">
  <sodipodi:namedview
     id="namedview1"
     pagecolor="#505050"
     bordercolor="#eeeeee"
     borderopacity="1"
     inkscape:showpageshadow="0"
     inkscape:pageopacity="0"
     inkscape:pagecheckerboard="0"
     inkscape:deskcolor="#505050"
     inkscape:document-units="mm"
     showgrid="true"
     inkscape:zoom="3.5137034"
     inkscape:cx="95.056402"
     inkscape:cy="61.758201"
     inkscape:window-width="1264"
     inkscape:window-height="1389"
     inkscape:window-x="3204"
     inkscape:window-y="8"
     inkscape:window-maximized="1"
     inkscape:current-layer="layer1">
    <inkscape:grid
       id="grid1"
       units="mm"
       originx="10.986503"
       originy="-0.11678125"
       spacingx="0.99999998"
       spacingy="1"
       empcolor="#0099e5"
       empopacity="0.30196078"
       color="#0099e5"
       opacity="0.14901961"
       empspacing="5"
       dotted="false"
       gridanglex="30"
       gridanglez="30"
       visible="true" />
  </sodipodi:namedview>
  <defs
     id="defs1" />
  <g
     inkscape:label="Calque 1"
     inkscape:groupmode="layer"
     id="layer1"
     transform="translate(10.986503,-0.11678125)">
    <!--!Font Awesome Free 6.5.1 by @fontawesome - https://fontawesome.com License - https://fontawesome.com/license/free Copyright 2024 Fonticons, Inc.-->
    <path
       d="m -3.4865034,0.86678125 c 0,-0.41406 -0.335938,-0.75 -0.75,-0.75 h -1.5 c -0.414063,0 -0.75,0.33594 -0.75,0.75 V 1.6167813 h -1 V 0.49178125 c 0,-0.20781 -0.167188,-0.375 -0.375,-0.375 -0.207813,0 -0.375,0.16719 -0.375,0.375 V 1.6167813 h -1 V 0.49178125 c 0,-0.20781 -0.167188,-0.375 -0.375,-0.375 -0.207813,0 -0.375,0.16719 -0.375,0.375 V 1.6167813 h -0.2499996 c -0.414062,0 -0.75,0.33594 -0.75,0.75 v 1.5 3.500002 c 0,0.41406 0.335938,0.75 0.75,0.75 h 3.9999996 0.5 1.5 2.499999 c 0.414063,0 0.75000004,-0.33594 0.75000004,-0.75 v -3.500002 c 0,-0.41406 -0.33593704,-0.75 -0.75000004,-0.75 h -1.749999 z m 1.5,5.00000005 v 0.5 c 0,0.1375 -0.1125,0.25 -0.25,0.25 h -0.5 c -0.1375,0 -0.25,-0.1125 -0.25,-0.25 v -0.5 c 0,-0.1375 0.1125,-0.25 0.25,-0.25 h 0.5 c 0.1375,0 0.25,0.1125 0.25,0.25 z m -5.25,0.75 h -0.5 c -0.1375,0 -0.25,-0.1125 -0.25,-0.25 v -0.5 c 0,-0.1375 0.1125,-0.25 0.25,-0.25 h 0.5 c 0.1375,0 0.25,0.1125 0.25,0.25 v 0.5 c 0,0.1375 -0.1125,0.25 -0.25,0.25 z m -1.75,-0.25 c 0,0.1375 -0.1125,0.25 -0.25,0.25 h -0.5 c -0.1375,0 -0.25,-0.1125 -0.25,-0.25 v -0.5 c 0,-0.1375 0.1125,-0.25 0.25,-0.25 h 0.5 c 0.1375,0 0.25,0.1125 0.25,0.25 z m 6.75,-2.25 c 0.1375,0 0.25,0.1125 0.25,0.25 v 0.5 c 0,0.1375 -0.1125,0.25 -0.25,0.25 h -0.5 c -0.1375,0 -0.25,-0.1125 -0.25,-0.25 v -0.5 c 0,-0.1375 0.1125,-0.25 0.25,-0.25 z m -4.75,-1.25 v 0.5 c 0,0.1375 -0.1125,0.25 -0.25,0.25 h -0.5 c -0.1375,0 -0.25,-0.1125 -0.25,-0.25 v -0.5 c 0,-0.1375 0.1125,-0.25 0.25,-0.25 h 0.5 c 0.1375,0 0.25,0.1125 0.25,0.25 z m -2.25,-0.25 c 0.1375,0 0.25,0.1125 0.25,0.25 v 0.5 c 0,0.1375 -0.1125,0.25 -0.25,0.25 h -0.5 c -0.1375,0 -0.25,-0.1125 -0.25,-0.25 v -0.5 c 0,-0.1375 0.1125,-0.25 0.25,-0.25 z m 2.25,2.25 c 0,0.1375 -0.1125,0.25 -0.25,0.25 h -0.5 c -0.1375,0 -0.25,-0.1125 -0.25,-0.25 v -0.5 c 0,-0.1375 0.1125,-0.25 0.25,-0.25 h 0.5 c 0.1375,0 0.25,0.1125 0.25,0.25 z m -2.25,0.25 h -0.5 c -0.1375,0 -0.25,-0.1125 -0.25,-0.25 v -0.5 c 0,-0.1375 0.1125,-0.25 0.25,-0.25 h 0.5 c 0.1375,0 0.25,0.1125 0.25,0.25 v 0.5 c 0,0.1375 -0.1125,0.25 -0.25,0.25 z m 4.75,-0.75 v 0.5 c 0,0.1375 -0.1125,0.25 -0.25,0.25 h -0.5 c -0.1375,0 -0.25,-0.1125 -0.25,-0.25 v -0.5 c 0,-0.1375 0.1125,-0.25 0.25,-0.25 h 0.5 c 0.1375,0 0.25,0.1125 0.25,0.25 z m -0.25,-3.25 c 0.1375,0 0.25,0.1125 0.25,0.25 v 0.5 c 0,0.1375 -0.1125,0.25 -0.25,0.25 h -0.5 c -0.1375,0 -0.25,-0.1125 -0.25,-0.25 v -0.5 c 0,-0.1375 0.1125,-0.25 0.25,-0.25 z m 0.25,1.75 v 0.5 c 0,0.1375 -0.1125,0.25 -0.25,0.25 h -0.5 c -0.1375,0 -0.25,-0.1125 -0.25,-0.25 v -0.5 c 0,-0.1375 0.1125,-0.25 0.25,-0.25 h 0.5 c 0.1375,0 0.25,0.1125 0.25,0.25 z"
       id="path1"
       style="fill:#306230;stroke-width:0.015625" />
    <path
       d="m 4.7802804,7.799225 q -0.5198612,0.1709924 -1.0759195,0.2442749 -0.5438446,0.073282 -1.276669,0.073282 -1.2946565,0 -1.92199849,-0.3664123 Q -0.10943498,7.3839578 -0.20936549,6.528996 -0.29397329,5.6618204 0.09775485,4.1228891 0.49259195,2.5717441 1.0399897,1.7167822 1.5873874,0.86182045 2.4501217,0.49540822 3.3159648,0.11678227 4.7083313,0.11678227 q 0.5251908,0 1.1110062,0.0977099 0.5980292,0.0977099 0.8356419,0.21984733 L 5.8584213,2.3641106 Q 5.5290944,2.2664007 5.0927308,2.2053319 4.6716898,2.1320494 4.3785601,2.1320494 q -0.659542,0 -0.9504511,0.1832061 Q 3.1371999,2.4984617 3.0128417,2.9870114 L 2.260475,5.9427364 q 0.5247468,0.097709 0.940014,0.097709 0.5007634,0 1.0079667,-0.073282 0.5225262,-0.085497 0.910923,-0.2198474 z M 9.9868906,0.29998837 8.0437947,7.933576 H 5.6010466 L 7.5441426,0.29998837 Z M 12.868213,7.933576 h -2.442749 l 1.430119,-5.6183205 h -1.709924 l 0.512978,-2.01526713 h 5.862594 L 16.008254,2.3152555 H 14.298331 Z M 23.605198,0.29998837 20.024351,5.490828 19.40256,7.933576 H 16.959812 L 17.581603,5.490828 16.643366,0.29998837 h 2.564886 L 19.47762,2.8404463 21.040313,0.29998837 Z M 30.89481,4.0984617 q 0.494101,0.1221378 0.723941,0.610687 0.23295,0.4763358 0.08061,1.0748091 -0.264261,1.038168 -1.054601,1.6 Q 29.869743,7.933576 28.672796,7.933576 H 24.776614 L 26.71971,0.29998837 h 3.468702 q 1.331297,0 1.808522,0.47633589 0.477224,0.47633584 0.206745,1.53893124 -0.136794,0.5374046 -0.502317,1.0137405 -0.353311,0.4763359 -0.787899,0.6961831 z M 29.680098,2.6328128 q 0.08705,-0.3419848 0.0051,-0.4519084 -0.06973,-0.1099236 -0.375073,-0.1099236 H 28.711659 L 28.422527,3.2068587 H 29.021 q 0.305344,0 0.431034,-0.1099236 0.141013,-0.1221378 0.228064,-0.4641223 z m -1.130549,3.529771 q 0.305344,0 0.449466,-0.1343507 0.15634,-0.1343506 0.2465,-0.4885496 0.09016,-0.3541984 0.01443,-0.4885496 -0.07572,-0.1343506 -0.381064,-0.1343506 h -0.891604 l -0.317113,1.2458016 z m 6.659833,1.9541985 q -1.367939,0 -2.011048,-0.2564887 -0.64,-0.2687022 -0.771464,-0.9038168 -0.128355,-0.6473282 0.185649,-1.8809159 L 33.82812,0.29998837 h 2.442748 L 34.812769,6.0282326 h 0.977099 q 0.549618,0 0.7517,-0.1221379 0.217404,-0.1343506 0.316891,-0.5251908 l 1.293324,-5.08091553 h 2.442749 L 39.378931,5.0755609 q -0.310896,1.221374 -0.7688,1.8687023 -0.457904,0.6473282 -1.246911,0.9160304 -0.785899,0.2564887 -2.153838,0.2564887 z M 44.136527,0.29998837 42.193431,7.933576 h -2.442748 l 1.943096,-7.63358763 z m 1.221363,0 h 2.442748 L 46.370519,5.918309 h 2.320611 l -0.512978,2.015267 h -4.763358 z m 8.842745,0 q 1.441221,0 2.123636,0.34198475 0.685523,0.32977099 0.794782,1.14809148 0.112365,0.8061069 -0.276254,2.3328245 Q 56.45418,5.6496067 55.931432,6.4557136 55.408683,7.2618204 54.552167,7.6038052 53.69876,7.933576 52.257539,7.933576 H 48.849905 L 50.793001,0.29998837 Z M 51.77765,6.0282326 h 1.001527 q 0.537404,0 0.785455,-0.1587786 0.251158,-0.1709924 0.36308,-0.6106871 L 54.509087,2.9747976 Q 54.621009,2.5351029 54.453792,2.3763242 54.289683,2.2053319 53.752279,2.2053319 H 52.750753 Z M 59.805637,5.918309 h 2.870229 l -0.512977,2.015267 h -5.312978 l 1.943096,-7.63358763 h 5.374046 L 63.348732,2.3152555 h -2.625954 l -0.233172,0.9160306 h 2.442749 L 62.481556,5.0022783 H 60.038808 Z M 67.329311,7.933576 66.853863,5.7228891 H 66.206536 L 65.643815,7.933576 h -2.442748 l 1.943096,-7.63358763 h 3.541984 q 1.56336,0 2.079446,0.659542 0.516085,0.65954183 0.133684,2.16183213 -0.401055,1.5755724 -1.493852,2.1740456 L 69.979693,7.933576 Z M 66.657334,3.9518968 h 0.989313 q 0.268702,0 0.394392,-0.1099237 0.137905,-0.1099236 0.212519,-0.4030534 l 0.155448,-0.610687 q 0.07461,-0.2931298 -0.0073,-0.4030535 -0.06973,-0.1099236 -0.338432,-0.1099236 h -0.989312 z"
       id="text1"
       style="font-weight:800;font-size:8.46667px;font-family:Changa;-inkscape-font-specification:'Changa, Ultra-Bold';fill:#306230;stroke-width:0.381679"
       aria-label="CITY BUILDER&#10;" />
  </g>
</svg>
