<?xml version="1.0" encoding="UTF-8" standalone="no"?>
<svg
   width="40.895912"
   height="8.4514627"
   viewBox="0 0 40.895912 8.4514627"
   version="1.1"
   id="svg1"
   sodipodi:docname="auto-simulationscifi.svg"
   inkscape:version="1.3.2 (091e20ef0f, 2023-11-25)"
   xmlns:inkscape="http://www.inkscape.org/namespaces/inkscape"
   xmlns:sodipodi="http://sodipodi.sourceforge.net/DTD/sodipodi-0.dtd"
   xmlns="http://www.w3.org/2000/svg"
   xmlns:svg="http://www.w3.org/2000/svg">
  <defs
     id="defs1" />
  <sodipodi:namedview
     id="namedview1"
     pagecolor="#505050"
     bordercolor="#eeeeee"
     borderopacity="1"
     inkscape:showpageshadow="0"
     inkscape:pageopacity="0"
     inkscape:pagecheckerboard="0"
     inkscape:deskcolor="#505050"
     showgrid="true"
     inkscape:zoom="10.423956"
     inkscape:cx="21.680829"
     inkscape:cy="-4.7007106"
     inkscape:window-width="1264"
     inkscape:window-height="1389"
     inkscape:window-x="3204"
     inkscape:window-y="8"
     inkscape:window-maximized="1"
     inkscape:current-layer="svg1">
    <inkscape:grid
       id="grid1"
       units="px"
       originx="-8.5813308"
       originy="-13.599182"
       spacingx="0.99999999"
       spacingy="1"
       empcolor="#0099e5"
       empopacity="0.30196078"
       color="#0099e5"
       opacity="0.14901961"
       empspacing="5"
       dotted="false"
       gridanglex="30"
       gridanglez="30"
       visible="true" />
  </sodipodi:namedview>
  <!--!Font Awesome Free 6.5.1 by @fontawesome - https://fontawesome.com License - https://fontawesome.com/license/free Copyright 2024 Fonticons, Inc.-->
  <!--!Font Awesome Free 6.5.1 by @fontawesome - https://fontawesome.com License - https://fontawesome.com/license/free Copyright 2024 Fonticons, Inc.-->
  <!--!Font Awesome Free 6.5.1 by @fontawesome - https://fontawesome.com License - https://fontawesome.com/license/free Copyright 2024 Fonticons, Inc.-->
  <path
     d="M 5.79219,1.727291 C 5.40781,0.842921 4.52656,0.225731 3.5,0.225731 c -1.02656,0 -1.90781,0.61719 -2.29219,1.50156 C 0.95156,1.749191 0.75,1.963231 0.75,2.225731 v 1 c 0,0.2625 0.20156,0.47656 0.45781,0.49844 0.38438,0.88437 1.26563,1.50156 2.29219,1.50156 1.02656,0 1.90781,-0.61719 2.29219,-1.50156 C 6.04844,3.702271 6.25,3.488231 6.25,3.225731 v -1 c 0,-0.2625 -0.20156,-0.47656 -0.45781,-0.49844 z M 5.25,2.475731 v 0.25 c 0,0.82813 -0.67187,1.5 -1.5,1.5 h -0.5 c -0.82812,0 -1.5,-0.67187 -1.5,-1.5 v -0.25 c 0,-0.41406 0.33594,-0.75 0.75,-0.75 h 2 c 0.41406,0 0.75,0.33594 0.75,0.75 z m -2.29219,0.29219 -0.0937,-0.33125 c -0.0141,-0.0516 -0.0609,-0.0859 -0.11406,-0.0859 -0.0531,0 -0.1,0.0344 -0.11406,0.0859 l -0.0937,0.33125 -0.33125,0.0937 c -0.0516,0.0141 -0.0859,0.0609 -0.0859,0.11406 0,0.0531 0.0344,0.1 0.0859,0.11406 l 0.33125,0.0937 0.0937,0.33125 c 0.0141,0.0516 0.0609,0.0859 0.11406,0.0859 0.0531,0 0.1,-0.0344 0.11406,-0.0859 l 0.0937,-0.33125 0.33125,-0.0937 c 0.0516,-0.0141 0.0859,-0.0609 0.0859,-0.11406 0,-0.0531 -0.0344,-0.1 -0.0859,-0.11406 z M 1.76094,5.171041 C 0.72969,5.578852 0,6.585111 0,7.761672 c 0,0.25625 0.20781,0.46406 0.46406,0.46406 H 2 v -1 c 0,-0.27656 0.22344,-0.5 0.5,-0.5 h 2 c 0.27656,0 0.5,0.22344 0.5,0.5 v 1 H 6.53594 C 6.79219,8.225732 7,8.017922 7,7.761672 7,6.585112 6.27031,5.578852 5.23906,5.171041 4.74844,5.519482 4.14844,5.725732 3.5,5.725732 c -0.64844,0 -1.24844,-0.20625 -1.73906,-0.554691 z M 2.75,7.225732 c -0.1375,0 -0.25,0.1125 -0.25,0.25 v 0.75 H 3 v -0.75 c 0,-0.1375 -0.1125,-0.25 -0.25,-0.25 z m 1.5,0.5 a 0.25,0.25 0 1 0 0,-0.5 0.25,0.25 0 1 0 0,0.5 z"
     id="path1"
     style="fill:#306230;stroke-width:0.015625" />
  <g
     id="g4"
     transform="translate(-21.639608,-21.471978)">
    <path
       d="m 29.466975,24.244496 q 0.576107,0.19542 1.205115,0.19542 0.31145,0 0.500059,-0.03054 l 0.05943,-0.335877 -0.540973,-0.04885 q -0.468771,-0.04275 -0.733101,-0.170992 -0.257143,-0.134352 -0.342164,-0.378626 -0.08502,-0.244275 -0.01586,-0.635114 0.09077,-0.512977 0.289203,-0.806107 0.199514,-0.299236 0.54587,-0.42748 0.353544,-0.134351 0.927589,-0.134351 0.751145,0 1.402696,0.183206 l -0.325566,0.977099 q -0.305671,-0.06718 -0.521196,-0.0916 -0.214444,-0.03053 -0.446505,-0.03053 -0.31145,0 -0.506166,0.03053 l -0.05835,0.329771 0.43213,0.04275 q 0.732071,0.07328 1.008892,0.372519 0.284009,0.29313 0.180273,0.879389 -0.119946,0.677862 -0.566977,0.995419 -0.445949,0.31145 -1.288696,0.31145 -0.867176,0 -1.554991,-0.219847 z m 6.003256,1.068702 q -0.253296,0.0855 -0.528481,0.122137 -0.269079,0.03664 -0.635491,0.03664 -0.647328,0 -0.975215,-0.183206 -0.32178,-0.183206 -0.404917,-0.610687 -0.07595,-0.433587 0.0602,-1.203052 0.137236,-0.775572 0.377762,-1.203053 0.240527,-0.427481 0.657678,-0.610687 0.41823,-0.189312 1.114413,-0.189312 0.262595,0 0.559294,0.04885 0.302806,0.04885 0.42635,0.109924 l -0.323405,0.964885 q -0.168454,-0.04886 -0.389005,-0.07939 -0.213364,-0.03664 -0.359929,-0.03664 -0.32977,0 -0.468117,0.0916 -0.138346,0.0916 -0.181569,0.335877 l -0.261504,1.477862 q 0.266164,0.04885 0.473798,0.04885 0.250381,0 0.501139,-0.03664 0.257946,-0.04275 0.446932,-0.109924 z m 2.312339,-3.749616 -0.67537,3.816791 h -1.221373 l 0.67537,-3.816791 z m 0.115463,1.935876 q 0.02918,-0.164885 0.13445,-0.207633 0.112461,-0.04885 0.332309,-0.04885 h 1.410685 l -0.116703,0.659541 q -0.02918,0.164885 -0.141637,0.21374 -0.105275,0.04275 -0.325122,0.04275 h -1.410687 z m 3.178628,1.880915 h -1.221374 l 0.67537,-3.816791 h 2.503816 l -0.33097,1.007633 h -1.12977 l -0.102656,0.580152 h 1.038167 l -0.156686,0.885496 h -1.038167 z m 3.545593,-3.816791 -0.67537,3.816791 H 42.72551 l 0.67537,-3.816791 z"
       id="text3"
       style="font-weight:800;font-size:12.2137px;font-family:Changa;-inkscape-font-specification:'Changa, Ultra-Bold';fill:#306230;stroke-width:0.190841"
       aria-label="SCI-FI" />
    <path
       d="m 29.467611,28.695956 q 0.576022,0.19542 1.205029,0.19542 0.311451,0 0.500073,-0.03054 l 0.05958,-0.335877 -0.540952,-0.04885 q -0.468752,-0.04275 -0.733027,-0.170992 -0.257083,-0.134352 -0.341997,-0.378626 -0.08491,-0.244275 -0.01558,-0.635115 0.09099,-0.512976 0.289557,-0.806106 0.199645,-0.299236 0.546058,-0.427481 0.353602,-0.134351 0.927648,-0.134351 0.751145,0 1.402616,0.183206 l -0.325996,0.977099 q -0.305641,-0.06717 -0.521155,-0.0916 -0.214431,-0.03054 -0.446492,-0.03054 -0.31145,0 -0.506179,0.03054 l -0.0585,0.329771 0.432111,0.04275 q 0.732038,0.07328 1.008729,0.372518 0.28388,0.29313 0.179886,0.879389 -0.120244,0.677863 -0.567413,0.99542 -0.446086,0.31145 -1.288834,0.31145 -0.867175,0 -1.554895,-0.219847 z m 5.20227,-2.680914 -0.677046,3.816792 h -1.221373 l 0.677046,-3.816792 z m 0.751141,0 h 1.532823 l 0.131854,1.941984 h 0.04275 l 0.820816,-1.941984 h 1.532824 l -0.444985,3.816792 h -1.215269 l 0.230523,-1.850381 h -0.04275 l -0.767926,1.850381 h -0.934351 l -0.117569,-1.850381 h -0.03664 l -0.425942,1.850381 h -1.215267 z m 5.743346,3.908394 q -0.683969,0 -1.015418,-0.128244 -0.330366,-0.134351 -0.420601,-0.451908 -0.08915,-0.323663 0.02026,-0.940457 l 0.423561,-2.387785 h 1.221373 l -0.508056,2.86412 h 0.48855 q 0.274809,0 0.371138,-0.06107 0.103519,-0.06717 0.138184,-0.262595 L 42.334,26.015042 h 1.221373 l -0.42356,2.387785 q -0.108328,0.610686 -0.312306,0.93435 -0.203978,0.323664 -0.588115,0.458015 -0.383054,0.128244 -1.067024,0.128244 z m 2.940628,-3.908394 h 1.221373 L 44.828063,28.8242 h 1.160305 l -0.17874,1.007634 H 43.42795 Z m 4.02867,3.212212 h -1.105343 l -0.259916,0.60458 h -1.221374 l 1.654146,-3.816792 h 1.899235 l 0.300053,3.816792 h -1.221374 z m -0.07499,-0.885496 -0.08839,-1.154198 h -0.05496 l -0.497868,1.154198 z m 3.265455,1.490076 h -1.221374 l 0.498307,-2.809159 h -0.854962 l 0.17874,-1.007633 h 2.931296 l -0.17874,1.007633 h -0.854961 z m 3.089257,-3.816792 -0.677046,3.816792 h -1.221373 l 0.677046,-3.816792 z m 0.14948,1.911449 q 0.136492,-0.769465 0.383314,-1.196946 0.247905,-0.433587 0.671242,-0.616793 0.430528,-0.189313 1.132818,-0.189313 0.70229,0 1.059548,0.189313 0.364448,0.183206 0.458528,0.616793 0.09516,0.427481 -0.04133,1.196946 -0.136492,0.769465 -0.383314,1.196946 -0.246821,0.42748 -0.677349,0.616793 -0.423338,0.183206 -1.125627,0.183206 -0.70229,0 -1.066739,-0.183206 -0.357257,-0.189313 -0.45242,-0.616793 -0.09516,-0.427481 0.04133,-1.196946 z m 1.699711,0.952671 q 0.274809,0 0.390541,-0.06717 0.116816,-0.07328 0.149315,-0.256489 l 0.281651,-1.587785 h -0.561832 q -0.268702,0 -0.385518,0.07328 -0.115733,0.06717 -0.148231,0.250381 l -0.281651,1.587785 z m 2.822558,-2.86412 H 60.2943 l 0.593298,1.337403 q 0.107174,0.256489 0.07576,0.433588 h 0.03664 l 0.314149,-1.770991 h 1.221372 l -0.677046,3.816792 H 60.649314 L 60.056017,28.49443 q -0.107174,-0.256489 -0.07576,-0.433588 h -0.03664 l -0.31415,1.770992 h -1.221373 z"
       id="text4"
       style="font-weight:800;font-size:12.2137px;font-family:Changa;-inkscape-font-specification:'Changa, Ultra-Bold';fill:#306230;stroke-width:0.19084"
       aria-label="SIMULATION" />
  </g>
</svg>
