<?xml version="1.0" encoding="UTF-8" standalone="no"?>
<svg
   width="41.300835"
   height="8.0677309"
   viewBox="0 0 41.300834 8.0677309"
   version="1.1"
   id="svg1"
   sodipodi:docname="auto-simulationvehicle.svg"
   inkscape:version="1.3.2 (091e20ef0f, 2023-11-25)"
   xmlns:inkscape="http://www.inkscape.org/namespaces/inkscape"
   xmlns:sodipodi="http://sodipodi.sourceforge.net/DTD/sodipodi-0.dtd"
   xmlns="http://www.w3.org/2000/svg"
   xmlns:svg="http://www.w3.org/2000/svg">
  <defs
     id="defs1" />
  <sodipodi:namedview
     id="namedview1"
     pagecolor="#505050"
     bordercolor="#eeeeee"
     borderopacity="1"
     inkscape:showpageshadow="0"
     inkscape:pageopacity="0"
     inkscape:pagecheckerboard="0"
     inkscape:deskcolor="#505050"
     showgrid="true"
     inkscape:zoom="10.423956"
     inkscape:cx="17.555715"
     inkscape:cy="30.506653"
     inkscape:window-width="1264"
     inkscape:window-height="1389"
     inkscape:window-x="3204"
     inkscape:window-y="8"
     inkscape:window-maximized="1"
     inkscape:current-layer="svg1">
    <inkscape:grid
       id="grid1"
       units="px"
       originx="-8.1764079"
       originy="-14.509871"
       spacingx="0.99999999"
       spacingy="1"
       empcolor="#0099e5"
       empopacity="0.30196078"
       color="#0099e5"
       opacity="0.14901961"
       empspacing="5"
       dotted="false"
       gridanglex="30"
       gridanglez="30"
       visible="true" />
  </sodipodi:namedview>
  <!--!Font Awesome Free 6.5.1 by @fontawesome - https://fontawesome.com License - https://fontawesome.com/license/free Copyright 2024 Fonticons, Inc.-->
  <!--!Font Awesome Free 6.5.1 by @fontawesome - https://fontawesome.com License - https://fontawesome.com/license/free Copyright 2024 Fonticons, Inc.-->
  <!--!Font Awesome Free 6.5.1 by @fontawesome - https://fontawesome.com License - https://fontawesome.com/license/free Copyright 2024 Fonticons, Inc.-->
  <g
     id="g5"
     transform="translate(0.40492335,-0.38373165)">
    <path
       d="m 7.828003,7.223978 q 0.576022,0.19542 1.205029,0.19542 0.311451,0 0.500073,-0.03054 L 9.592685,7.052981 9.051733,7.004131 Q 8.582981,6.961381 8.318706,6.833139 8.061623,6.698787 7.976709,6.454513 7.891799,6.210238 7.961129,5.819398 8.052119,5.306422 8.250686,5.013292 8.450331,4.714056 8.796744,4.585811 9.150346,4.45146 9.724392,4.45146 q 0.751145,0 1.402616,0.183206 l -0.325996,0.977099 q -0.305641,-0.06717 -0.521155,-0.0916 -0.214431,-0.03054 -0.446492,-0.03054 -0.31145,0 -0.506179,0.03054 l -0.0585,0.329771 0.432111,0.04275 q 0.732038,0.07328 1.008729,0.372518 0.28388,0.29313 0.179886,0.879389 -0.120244,0.677863 -0.567413,0.99542 -0.446086,0.31145 -1.288834,0.31145 -0.867175,0 -1.554895,-0.219847 z m 5.20227,-2.680914 -0.677046,3.816792 H 11.131854 L 11.8089,4.543064 Z m 0.751141,0 h 1.532823 l 0.131854,1.941984 h 0.04275 l 0.820816,-1.941984 h 1.532824 L 17.397496,8.359856 H 16.182227 L 16.41275,6.509475 H 16.37 L 15.602074,8.359856 H 14.667723 L 14.550154,6.509475 h -0.03664 l -0.425942,1.850381 h -1.215267 z m 5.743346,3.908394 q -0.683969,0 -1.015418,-0.128244 -0.330366,-0.134351 -0.420601,-0.451908 -0.08915,-0.323663 0.02026,-0.940457 l 0.423561,-2.387785 h 1.221373 l -0.508056,2.86412 h 0.48855 q 0.274809,0 0.371138,-0.06107 0.103519,-0.06717 0.138184,-0.262595 l 0.450641,-2.540455 h 1.221373 l -0.42356,2.387785 Q 21.383877,7.541535 21.179899,7.865199 20.975921,8.188863 20.591784,8.323214 20.20873,8.451458 19.52476,8.451458 Z m 2.940628,-3.908394 h 1.221373 l -0.498306,2.809158 h 1.160305 l -0.17874,1.007634 h -2.381678 z m 4.02867,3.212212 h -1.105343 l -0.259916,0.60458 h -1.221374 l 1.654146,-3.816792 h 1.899235 l 0.300053,3.816792 H 26.539485 Z M 26.419068,6.86978 26.330678,5.715582 h -0.05496 L 25.77785,6.86978 Z m 3.265455,1.490076 h -1.221374 l 0.498307,-2.809159 h -0.854962 l 0.17874,-1.007633 H 31.21653 L 31.03779,5.550697 H 30.182829 Z M 32.77378,4.543064 32.096734,8.359856 h -1.221373 l 0.677046,-3.816792 z m 0.14948,1.911449 q 0.136492,-0.769465 0.383314,-1.196946 0.247905,-0.433587 0.671242,-0.616793 0.430528,-0.189313 1.132818,-0.189313 0.70229,0 1.059548,0.189313 0.364448,0.183206 0.458528,0.616793 0.09516,0.427481 -0.04133,1.196946 -0.136492,0.769465 -0.383314,1.196946 -0.246821,0.42748 -0.677349,0.616793 -0.423338,0.183206 -1.125627,0.183206 -0.70229,0 -1.066739,-0.183206 -0.357257,-0.189313 -0.45242,-0.616793 -0.09516,-0.427481 0.04133,-1.196946 z m 1.699711,0.952671 q 0.274809,0 0.390541,-0.06717 0.116816,-0.07328 0.149315,-0.256489 L 35.444478,5.49574 h -0.561832 q -0.268702,0 -0.385518,0.07328 -0.115733,0.06717 -0.148231,0.250381 l -0.281651,1.587785 z m 2.822558,-2.86412 h 1.209163 l 0.593298,1.337403 q 0.107174,0.256489 0.07576,0.433588 h 0.03664 l 0.314149,-1.770991 h 1.221372 L 40.218865,8.359856 H 39.009706 L 38.416409,7.022452 Q 38.309235,6.765963 38.340649,6.588864 h -0.03664 l -0.31415,1.770992 h -1.221373 z"
       id="text4"
       style="font-weight:800;font-size:12.2137px;font-family:Changa;-inkscape-font-specification:'Changa, Ultra-Bold';fill:#306230;stroke-width:0.19084"
       aria-label="SIMULATION" />
    <path
       d="m 9.5135842,0.4753347 0.6167938,2.6442748 h 0.05496 l 0.616794,-2.6442748 h 1.221374 L 11.107477,4.2921286 H 9.2082407 L 8.2922102,0.4753347 Z M 13.580762,3.284495 h 1.435114 V 4.2921286 H 12.359388 V 0.4753347 h 2.687022 l -0.152671,1.0076336 h -1.312977 v 0.4580152 h 1.221374 V 2.8264797 H 13.580762 Z M 18.893741,0.4753347 V 4.2921286 H 17.672367 V 2.8264797 h -0.91603 V 4.2921286 H 15.534963 V 0.4753347 h 1.221374 v 1.4656488 h 0.91603 V 0.4753347 Z m 1.832059,0 V 4.2921286 H 19.504426 V 0.4753347 Z m 3.297706,3.7496183 q -0.238168,0.085496 -0.50687,0.1221374 -0.262596,0.036641 -0.629008,0.036641 -0.647328,0 -1.007634,-0.1832061 -0.354198,-0.1832061 -0.512977,-0.610687 -0.152672,-0.4335878 -0.152672,-1.2030534 0,-0.7755725 0.164886,-1.2030535 0.164885,-0.42748087 0.549618,-0.61068697 0.384733,-0.18931298 1.080916,-0.18931298 0.262596,0 0.567939,0.048855 0.311451,0.048855 0.445802,0.10992367 L 23.870834,1.5073958 q -0.177099,-0.048855 -0.403053,-0.079389 -0.219848,-0.036641 -0.366413,-0.036641 -0.329771,0 -0.451908,0.091603 -0.122137,0.091603 -0.122137,0.3358778 v 1.4778626 q 0.274809,0.048855 0.482442,0.048855 0.250382,0 0.494657,-0.036641 0.250381,-0.042748 0.427481,-0.1099237 z m 2.051909,0.1587786 q -0.683969,0 -1.038168,-0.1282443 Q 24.683049,4.1211362 24.536484,3.8035789 24.389919,3.4799148 24.389919,2.8631209 V 0.4753347 h 1.221374 v 2.8641221 h 0.48855 q 0.274809,0 0.360305,-0.061069 0.0916,-0.067176 0.0916,-0.2625954 v -2.540458 h 1.221374 v 2.3877862 q 0,0.6106871 -0.146565,0.9343512 -0.146565,0.3236641 -0.50687,0.4580152 -0.360305,0.1282443 -1.044275,0.1282443 z m 2.247334,-3.9083969 h 1.221374 V 3.284495 h 1.160305 v 1.0076336 h -2.381679 z m 3.938928,2.8091603 h 1.435115 V 4.2921286 H 31.040303 V 0.4753347 h 2.687023 l -0.152672,1.0076336 h -1.312977 v 0.4580152 h 1.221374 v 0.8854962 h -1.221374 z"
       id="text5"
       style="font-weight:800;font-size:6.10687px;font-family:Changa;-inkscape-font-specification:'Changa, Ultra-Bold';fill:#306230;stroke-width:0.19084"
       transform="skewX(-10.737809)"
       aria-label="VEHICULE" />
  </g>
  <!--!Font Awesome Free 6.5.1 by @fontawesome - https://fontawesome.com License - https://fontawesome.com/license/free Copyright 2024 Fonticons, Inc.-->
  <path
     d="M 5.2622799,0.73307232 C 5.6069354,0.28677912 6.5850059,-0.1974184 7.0417389,0.15529932 7.5115256,0.51809792 7.2772881,1.5767297 6.9326326,2.023023 L 6.2644769,2.8882155 7.390495,6.2264201 C 7.447168,6.3931137 7.415558,6.577012 7.307725,6.7166451 L 6.736315,7.4565613 C 6.6264692,7.5988002 6.4092391,7.5914468 6.3077905,7.4422654 L 4.6520386,4.9761566 3.8458194,6.020127 4.1621198,7.1643489 c 0.021949,0.079481 0.00492,0.1662805 -0.045477,0.2315328 L 3.6933773,7.9439662 C 3.6147679,8.045758 3.4701076,8.0631954 3.3695941,7.9855729 3.3526397,7.9724796 3.3376206,7.9568812 3.323892,7.9396123 L 2.2044238,6.4191222 0.45021112,5.7206301 C 0.42938722,5.7125501 0.41114322,5.7011251 0.39418912,5.6880331 0.29240622,5.6094301 0.27495992,5.4647634 0.35258262,5.36425 l 0.4232651,-0.5480845 c 0.0503726,-0.065227 0.1300842,-0.1037039 0.2125127,-0.1025379 L 2.1753775,4.7303608 2.9817192,3.6862317 0.17711142,2.7077724 C 0.00714712,2.6473114 -0.05489548,2.4390066 0.05493732,2.2967844 L 0.62634682,1.5568683 C 0.73418022,1.4172351 0.90411022,1.3401428 1.0797268,1.352851 l 3.5143973,0.2454139 z"
     id="path1"
     style="fill:#306230;stroke-width:0.016488" />
</svg>
