<?xml version="1.0" encoding="UTF-8" standalone="no"?>
<!-- Created with Inkscape (http://www.inkscape.org/) -->

<svg
   width="81.610359mm"
   height="7.999999mm"
   viewBox="0 0 81.610359 7.9999991"
   version="1.1"
   id="svg1"
   xml:space="preserve"
   sodipodi:docname="auto-multiplayer.svg"
   inkscape:version="1.3.2 (091e20ef0f, 2023-11-25)"
   xmlns:inkscape="http://www.inkscape.org/namespaces/inkscape"
   xmlns:sodipodi="http://sodipodi.sourceforge.net/DTD/sodipodi-0.dtd"
   xmlns="http://www.w3.org/2000/svg"
   xmlns:svg="http://www.w3.org/2000/svg"><sodipodi:namedview
     id="namedview1"
     pagecolor="#505050"
     bordercolor="#eeeeee"
     borderopacity="1"
     inkscape:showpageshadow="0"
     inkscape:pageopacity="0"
     inkscape:pagecheckerboard="0"
     inkscape:deskcolor="#505050"
     inkscape:document-units="mm"
     inkscape:zoom="1.09664"
     inkscape:cx="139.51707"
     inkscape:cy="-64.743214"
     inkscape:window-width="1264"
     inkscape:window-height="1389"
     inkscape:window-x="3204"
     inkscape:window-y="8"
     inkscape:window-maximized="1"
     inkscape:current-layer="layer2"
     showgrid="true"><inkscape:grid
       id="grid1"
       units="mm"
       originx="-16.40417"
       originy="2.3812497"
       spacingx="1"
       spacingy="0.99999994"
       empcolor="#0099e5"
       empopacity="0.30196078"
       color="#0099e5"
       opacity="0.14901961"
       empspacing="5"
       dotted="false"
       gridanglex="30"
       gridanglez="30"
       visible="true" /></sodipodi:namedview><defs
     id="defs1" /><g
     inkscape:groupmode="layer"
     id="layer2"
     inkscape:label="Calque 2"
     transform="translate(-97.795067,-72.807442)"><path
       d="m 100.75148,72.807442 c -0.4314,0 -0.782647,0.351082 -0.782647,0.782647 v 1.391448 h -1.391446 c -0.431567,0 -0.78232,0.350753 -0.78232,0.782319 v 2.087169 c 0,0.431567 0.350753,0.78232 0.78232,0.78232 h 1.391446 v 1.391448 c 0,0.431565 0.351087,0.782648 0.782647,0.782648 h 2.08686 c 0.43156,0 0.78282,-0.351083 0.78265,-0.782648 v -1.391448 h 1.39112 c 0.43141,0 0.78266,-0.350753 0.78266,-0.78232 v -2.087169 c 0,-0.431566 -0.35109,-0.782319 -0.78266,-0.782319 h -1.39112 v -1.391448 c 0,-0.431565 -0.35109,-0.782647 -0.78265,-0.782647 z m 1.04343,1.04342 c 0.0668,0 0.13348,0.02548 0.18439,0.07639 l 0.52187,0.521874 c 0.10182,0.101822 0.10182,0.266948 0,0.36877 -0.0509,0.05091 -0.11795,0.07639 -0.18471,0.07639 -0.0668,0 -0.13347,-0.02548 -0.18438,-0.07639 l -0.33717,-0.33749 -0.33749,0.33749 c -0.10182,0.101822 -0.26695,0.101822 -0.36877,0 -0.10183,-0.101822 -0.10183,-0.266948 0,-0.36877 l 0.52188,-0.521874 c 0.0509,-0.05091 0.11762,-0.07639 0.18438,-0.07639 z m 0,2.173766 c 0.0944,0 0.18481,0.01695 0.26868,0.04774 0.0359,0.0132 0.0708,0.02898 0.10404,0.04708 0.0222,0.01207 0.0437,0.02509 0.0645,0.03918 0.0208,0.01409 0.0409,0.02914 0.0603,0.04511 0.01,0.008 0.019,0.01626 0.0283,0.02469 0.009,0.0085 0.0184,0.01709 0.0273,0.02601 0.009,0.0088 0.0176,0.01778 0.026,0.027 v 3.44e-4 c 0.008,0.0092 0.0168,0.01838 0.0247,0.02799 v 3.44e-4 c 0.008,0.0096 0.0156,0.01932 0.023,0.0293 v 3.44e-4 c 0.0375,0.0502 0.0694,0.104874 0.0942,0.163311 v 3.97e-4 c 0.005,0.01162 0.01,0.02334 0.0142,0.03523 v 3.96e-4 c 0.0307,0.08381 0.0474,0.174381 0.0474,0.268675 0,0.418076 -0.32953,0.760351 -0.74248,0.781332 -0.0133,6.62e-4 -0.0267,0.001 -0.0402,0.001 -0.43156,0 -0.78265,-0.350757 -0.78265,-0.782318 0,-0.431562 0.35109,-0.782648 0.78265,-0.782648 z m -2.173776,3.44e-4 c 0.06676,0 0.133477,0.02548 0.184388,0.07639 0.101822,0.101822 0.101822,0.266947 0,0.368769 l -0.337492,0.33749 0.337492,0.337161 c 0.101822,0.101822 0.101822,0.266947 0,0.368772 -0.05091,0.05091 -0.117629,0.07639 -0.184388,0.07639 -0.06676,0 -0.1338,-0.02548 -0.184711,-0.07639 l -0.521547,-0.521548 c -0.101822,-0.101822 -0.101822,-0.267276 0,-0.369099 l 0.521547,-0.521545 c 0.05091,-0.05091 0.117956,-0.07639 0.184711,-0.07639 z m 4.347886,0 c 0.0668,0 0.13347,0.02548 0.18438,0.07639 l 0.52155,0.521545 c 0.10183,0.101823 0.10183,0.267277 0,0.369099 l -0.52155,0.521548 c -0.0509,0.05091 -0.11763,0.07639 -0.18438,0.07639 -0.0668,0 -0.1338,-0.02548 -0.18472,-0.07639 -0.10182,-0.101825 -0.10182,-0.26695 0,-0.368772 l 0.33749,-0.337161 -0.33749,-0.33749 c -0.10182,-0.101822 -0.10182,-0.266947 0,-0.368769 0.0509,-0.05091 0.11796,-0.07639 0.18472,-0.07639 z m -2.69599,2.695643 c 0.0668,0 0.13348,0.02548 0.18439,0.07639 l 0.33749,0.337162 0.33717,-0.337162 c 0.0127,-0.01273 0.0263,-0.02371 0.0408,-0.03326 0.0145,-0.0095 0.0297,-0.01767 0.0454,-0.02404 0.0157,-0.0064 0.0319,-0.01097 0.0484,-0.01416 0.0162,-0.0031 0.0329,-0.0049 0.0494,-0.0049 h 2.6e-4 2.6e-4 c 0.0166,0 0.033,0.0018 0.0494,0.0049 h 2.7e-4 c 0.0165,0.0032 0.0327,0.0078 0.0484,0.01416 0.0157,0.0064 0.031,0.01448 0.0454,0.02404 0.0145,0.0095 0.0281,0.02053 0.0408,0.03326 0.0116,0.01162 0.0216,0.0241 0.0306,0.03721 0.002,0.0028 0.004,0.0057 0.006,0.0086 0.008,0.013 0.0154,0.02654 0.0211,0.0405 0.006,0.01379 0.01,0.02808 0.0128,0.04247 7.9e-4,0.0041 0.002,0.0081 0.002,0.01219 0.002,0.01439 0.004,0.02889 0.004,0.04346 0,0.01457 -0.002,0.02906 -0.004,0.04346 -7.9e-4,0.0041 -10e-4,0.0081 -0.002,0.01219 -0.003,0.01439 -0.007,0.02868 -0.0128,0.04247 -0.006,0.01395 -0.0129,0.0275 -0.0211,0.0405 -0.002,0.0029 -0.004,0.0057 -0.006,0.0086 -0.009,0.0131 -0.019,0.02557 -0.0306,0.03721 l -0.52188,0.521877 c -0.0127,0.01273 -0.0264,0.02373 -0.0408,0.03325 -0.013,0.0086 -0.0268,0.01574 -0.0408,0.02172 -0.003,0.0013 -0.006,0.0024 -0.01,0.0036 -0.0142,0.0054 -0.0287,0.01003 -0.0435,0.01283 -0.0142,0.0027 -0.0284,0.0039 -0.0428,0.0043 -0.002,6e-5 -0.005,7.93e-4 -0.007,7.93e-4 v -2.64e-4 c -0.0668,0 -0.13347,-0.02516 -0.18438,-0.07606 l -0.52188,-0.521877 c -0.10182,-0.101821 -0.10182,-0.266946 0,-0.36877 0.0509,-0.05091 0.11762,-0.07639 0.18438,-0.07639 z"
       style="fill:#306230;stroke-width:0.168581"
       id="path36" /><path
       style="font-weight:800;font-size:32px;font-family:Changa;-inkscape-font-specification:'Changa, Ultra-Bold';fill:#306230;stroke-width:0.388784"
       d="m 108.08084,72.807443 h 3.10783 l -0.0106,3.974999 h 0.0867 l 1.94218,-3.974999 h 3.10784 l -1.44861,7.812499 h -2.46399 l 0.7323,-3.787498 h -0.0867 l -1.82189,3.787498 h -1.89439 l 0.0265,-3.787498 h -0.0743 l -1.12849,3.787498 h -2.46404 z m 11.08522,7.999998 q -1.38675,0 -2.04041,-0.262495 -0.65059,-0.275003 -0.78807,-0.925021 -0.13443,-0.662487 0.17569,-1.924996 l 1.20062,-4.887486 h 2.47636 l -1.44013,5.862501 h 0.99053 q 0.55722,0 0.76125,-0.125013 0.21952,-0.137485 0.31775,-0.53749 l 1.27738,-5.199998 h 2.47638 l -1.20062,4.887486 q -0.30704,1.250005 -0.76697,1.9125 -0.4599,0.662514 -1.25798,0.937517 -0.79501,0.262495 -2.18178,0.262495 z m 6.5217,-7.999998 h 2.47638 l -1.41249,5.749998 h 2.35256 l -0.50666,2.062501 h -4.82892 z m 6.68623,7.812499 h -2.47635 l 1.41247,-5.749998 h -1.73346 l 0.50667,-2.062501 h 5.94324 l -0.50665,2.062501 h -1.73344 z m 6.80992,-7.812499 -1.91912,7.812499 h -2.47637 l 1.91913,-7.812499 z m 1.79542,7.812499 h -2.47635 l 1.91911,-7.812499 h 3.5288 q 1.58489,0 2.11245,0.674999 0.52758,0.674999 0.14988,2.212499 -0.38075,1.550004 -1.24598,2.299995 -0.86217,0.737494 -2.28608,0.737494 h -1.23818 z m 1.8499,-3.700003 q 0.27241,0 0.39911,-0.112494 0.13905,-0.112501 0.21276,-0.412501 l 0.24565,-1.000004 q 0.0737,-0.299997 -0.0101,-0.412497 -0.0714,-0.112498 -0.34382,-0.112498 h -0.94101 l -0.50357,2.049994 z m 4.89814,-4.112496 h 2.47633 l -1.41248,5.749998 h 2.35255 l -0.50665,2.062501 h -4.82887 z m 7.70834,6.574998 h -2.2411 l -0.61354,1.2375 h -2.47636 l 3.90021,-7.812499 h 3.85074 l 0.062,7.812499 h -2.47635 z m -0.0253,-1.812507 -0.0139,-2.362489 h -0.11144 l -1.17469,2.362489 z m 10.86487,-4.762491 -3.59565,5.312496 -0.61413,2.500003 h -2.47636 l 0.61413,-2.500003 -0.98561,-5.312496 h 2.60015 l 0.28997,2.599997 1.5673,-2.599997 z m 1.74488,5.749998 h 2.9097 l -0.50663,2.062501 h -5.38607 l 1.91911,-7.812499 h 5.44798 l -0.81619,2.062501 h -2.66208 l -0.2303,0.937496 h 2.47636 l -0.44525,1.812505 h -2.47635 z m 7.64058,2.062501 -0.49668,-2.262513 h -0.65624 l -0.55578,2.262513 h -2.47634 l 1.91912,-7.812499 h 3.59069 q 1.58489,0 2.11245,0.674999 0.52757,0.674999 0.14991,2.212499 -0.39612,1.6125 -1.49998,2.224997 l 0.59969,2.700004 z m -0.70769,-4.075 h 1.00293 q 0.2724,0 0.3991,-0.112497 0.13907,-0.112504 0.21277,-0.412503 l 0.15353,-0.625003 q 0.0737,-0.299997 -0.0102,-0.412497 -0.0714,-0.112498 -0.34383,-0.112498 h -1.0029 z"
       id="text1"
       aria-label="MULTIPLAYER" /></g></svg>
