<?xml version="1.0" encoding="UTF-8" standalone="no"?>
<svg
   width="45.154522"
   height="8.4484701"
   viewBox="0 0 45.154521 8.4484701"
   version="1.1"
   id="svg1"
   sodipodi:docname="auto-strategyartillery.svg"
   inkscape:version="1.3.2 (091e20ef0f, 2023-11-25)"
   xmlns:inkscape="http://www.inkscape.org/namespaces/inkscape"
   xmlns:sodipodi="http://sodipodi.sourceforge.net/DTD/sodipodi-0.dtd"
   xmlns="http://www.w3.org/2000/svg"
   xmlns:svg="http://www.w3.org/2000/svg">
  <defs
     id="defs1" />
  <sodipodi:namedview
     id="namedview1"
     pagecolor="#505050"
     bordercolor="#eeeeee"
     borderopacity="1"
     inkscape:showpageshadow="0"
     inkscape:pageopacity="0"
     inkscape:pagecheckerboard="0"
     inkscape:deskcolor="#505050"
     showgrid="true"
     inkscape:zoom="4.623319"
     inkscape:cx="33.309404"
     inkscape:cy="57.101835"
     inkscape:window-width="1264"
     inkscape:window-height="1389"
     inkscape:window-x="3204"
     inkscape:window-y="8"
     inkscape:window-maximized="1"
     inkscape:current-layer="svg1">
    <inkscape:grid
       id="grid1"
       units="px"
       originx="-70.031097"
       originy="-40.944626"
       spacingx="0.99999999"
       spacingy="1"
       empcolor="#0099e5"
       empopacity="0.30196078"
       color="#0099e5"
       opacity="0.14901961"
       empspacing="5"
       dotted="false"
       gridanglex="30"
       gridanglez="30"
       visible="true" />
  </sodipodi:namedview>
  <!--!Font Awesome Free 6.5.1 by @fontawesome - https://fontawesome.com License - https://fontawesome.com/license/free Copyright 2024 Fonticons, Inc.-->
  <!--!Font Awesome Free 6.5.1 by @fontawesome - https://fontawesome.com License - https://fontawesome.com/license/free Copyright 2024 Fonticons, Inc.-->
  <!--!Font Awesome Free 6.5.1 by @fontawesome - https://fontawesome.com License - https://fontawesome.com/license/free Copyright 2024 Fonticons, Inc.-->
  <!--!Font Awesome Free 6.5.1 by @fontawesome - https://fontawesome.com License - https://fontawesome.com/license/free Copyright 2024 Fonticons, Inc.-->
  <!--!Font Awesome Free 6.5.1 by @fontawesome - https://fontawesome.com License - https://fontawesome.com/license/free Copyright 2024 Fonticons, Inc.-->
  <!--!Font Awesome Free 6.5.1 by @fontawesome - https://fontawesome.com License - https://fontawesome.com/license/free Copyright 2024 Fonticons, Inc.-->
  <path
     d="m 0.10853311,3.0244751 c -0.145203,-0.145892 -0.144649,-0.380087 0.0013,-0.52529 L 1.3384121,1.2764081 c 0.145892,-0.145202 0.380086,-0.144648 0.52529,0.0013 0.145203,0.145892 0.144648,0.380086 -0.0013,0.52529 l -0.175511,0.174682 2.712964,0.444166 1.276844,-1.270814 c 0.08446,-0.08406 0.183134,-0.15166397 0.291599,-0.20064397 l 1.538135,-0.69456498 c 0.135824,-0.06097 0.29555,-0.03213 0.40036,0.07318 0.104808,0.105306 0.132923,0.26511799 0.07129,0.40070098 L 7.2762401,2.2645191 c -0.0495,0.108233 -0.117559,0.206583 -0.202022,0.290646 l -1.276844,1.270815 0.431318,2.715036 0.17551,-0.174683 c 0.145893,-0.145202 0.380088,-0.144648 0.525291,0.0013 0.145204,0.145893 0.144649,0.380087 -0.0013,0.525291 l -1.22858,1.222776 c -0.145891,0.145203 -0.380087,0.144648 -0.52529,-0.0013 -0.145203,-0.145892 -0.144648,-0.380087 0.0013,-0.52529 l 0.08776,-0.08734 -1.572196,-1.579658 -0.351022,0.349365 -0.0028,1.195035 c -3.11e-4,0.131253 -0.05205,0.257054 -0.14529,0.349853 l -0.206226,0.205251 c -0.194158,0.193241 -0.507147,0.1925 -0.700388,-0.0017 l -0.698704,-0.70203 c -0.194158,0.19324 -0.507147,0.192499 -0.70038699,-0.0017 -0.193241,-0.194158 -0.1925,-0.507147 0.0017,-0.700388 l -0.698729,-0.702044 c -0.19324,-0.194158 -0.1925,-0.507147 0.0017,-0.700387 l 0.205131,-0.204162 c 0.09323,-0.0928 0.219191,-0.143951 0.350534,-0.143619 l 1.19613099,0.0017 0.351023,-0.349365 -1.57214099,-1.579601 -0.08776,0.08734 c -0.145892,0.145202 -0.380088,0.144647 -0.52529,-0.0013 z m 1.48065599,3.242814 c -0.09653,0.09608 -0.0969,0.253662 -8.29e-4,0.350193 0.09608,0.09653 0.253662,0.0969 0.350193,8.29e-4 l 0.702045,-0.698729 c 0.09653,-0.09608 0.0969,-0.253663 8.28e-4,-0.350194 -0.09608,-0.09653 -0.253662,-0.0969 -0.350193,-8.29e-4 z"
     id="path1"
     style="fill:#306230;stroke-width:0.0154766" />
  <g
     id="g10"
     transform="translate(-34.371027,-0.32161427)">
    <path
       d="m 43.527196,0.32161427 h 1.56875 l 0.4875,1.98750003 h 0.04375 l 0.4875,-1.98750003 h 1.56875 l 0.2375,3.90625003 h -1.24375 l -0.1,-1.89375 h -0.04375 l -0.45,1.89375 h -0.95625 l -0.45625,-1.89375 h -0.0375 l -0.1,1.89375 h -1.24375 z m 6.587505,4.00000003 q -0.7,0 -1.0625,-0.13125 -0.3625,-0.1375 -0.5125,-0.4625 -0.15,-0.33125 -0.15,-0.9625 V 0.32161427 h 1.25 V 3.2528643 h 0.5 q 0.28125,0 0.36875,-0.0625 0.09375,-0.06875 0.09375,-0.26875 V 0.32161427 h 1.25 V 2.7653643 q 0,0.625 -0.15,0.95625 -0.15,0.33125 -0.51875,0.46875 -0.36875,0.13125 -1.06875,0.13125 z m 2.300004,-4.00000003 h 1.25 V 3.1966143 h 1.1875 v 1.03125 h -2.4375 z m 4.343748,3.90625003 h -1.25 v -2.875 h -0.875 V 0.32161427 h 3 V 1.3528643 h -0.875 z M 59.227201,0.32161427 V 4.2278643 h -1.25 V 0.32161427 Z m 1.874997,3.90625003 h -1.25 V 0.32161427 h 1.78125 q 0.8,0 1.15,0.3375 0.35,0.3375 0.35,1.10625003 0,0.775 -0.34375,1.15 -0.34375,0.36875 -1.0625,0.36875 h -0.625 z m 0.475,-1.85 q 0.1375,0 0.1875,-0.05625 0.05625,-0.05625 0.05625,-0.20625 v -0.5 q 0,-0.15 -0.05625,-0.20625 -0.05,-0.05625 -0.1875,-0.05625 h -0.475 v 1.025 z m 1.9625,-2.05625003 h 1.25 V 3.1966143 h 1.1875 v 1.03125 h -2.4375 z M 68.24595,3.6091143 H 67.1147 l -0.15625,0.61875 h -1.25 l 1,-3.90625003 h 1.94375 l 1,3.90625003 h -1.25 z m -0.2375,-0.90625 -0.3,-1.18125 H 67.6522 l -0.3,1.18125 z m 4.893756,-2.38125003 -1.15625,2.65625003 v 1.25 h -1.25 v -1.25 l -1.15625,-2.65625003 h 1.3125 l 0.46875,1.30000003 0.46875,-1.30000003 z m 1.59375,2.87500003 h 1.46875 v 1.03125 h -2.71875 V 0.32161427 h 2.75 l -0.15625,1.03125003 h -1.34375 v 0.46875 h 1.25 v 0.90625 h -1.25 z m 4.112504,1.03125 -0.53125,-1.13125 h -0.33125 v 1.13125 h -1.25 V 0.32161427 h 1.8125 q 0.8,0 1.15,0.3375 0.35,0.3375 0.35,1.10625003 0,0.80625 -0.48125,1.1125 l 0.6375,1.35 z m -0.8625,-2.0375 h 0.50625 q 0.1375,0 0.1875,-0.05625 0.05625,-0.05625 0.05625,-0.20625 v -0.3125 q 0,-0.15 -0.05625,-0.20625 -0.05,-0.05625 -0.1875,-0.05625 h -0.50625 z"
       id="text9"
       style="font-weight:800;font-size:6.25px;font-family:Changa;-inkscape-font-specification:'Changa, Ultra-Bold';fill:#306230;stroke-width:0.195312"
       transform="skewX(-10.62504)"
       aria-label="MULTIPLAYER" />
    <path
       d="m 46.620669,8.1364844 h -1.1584 l -0.16,0.6336 h -1.28 l 1.024,-4.0000001 h 1.9904 l 1.024,4.0000001 h -1.28 z m -0.2432,-0.928 -0.3072,-1.2096001 h -0.0576 l -0.3072,1.2096001 z m 4.198405,1.5616 -0.544,-1.1584 h -0.3392 v 1.1584 h -1.28 V 4.7700843 h 1.856 q 0.8192,0 1.1776,0.3456 0.3584,0.3456 0.3584,1.1328 0,0.8256001 -0.4928,1.1392001 l 0.6528,1.3824 z m -0.8832,-2.0864 h 0.5184 q 0.1408,0 0.192,-0.0576 0.0576,-0.0576 0.0576,-0.2112 v -0.32 q 0,-0.1536 -0.0576,-0.2112 -0.0512,-0.0576 -0.192,-0.0576 h -0.5184 z m 4.608,2.0864 h -1.28 V 5.8260843 h -0.896 v -1.056 h 3.072 v 1.056 h -0.896 z m 2.527998,-4.0000001 v 4.0000001 h -1.28 V 4.7700843 Z m 0.639995,0 h 1.28 v 2.9440001 h 1.216 v 1.056 h -2.496 z m 2.847999,0 h 1.28 v 2.9440001 h 1.216 v 1.056 h -2.496 z m 4.127998,2.9440001 h 1.504 v 1.056 h -2.784 V 4.7700843 h 2.816 l -0.16,1.056 h -1.376 v 0.48 h 1.28 v 0.9280001 h -1.28 z m 4.211203,1.056 -0.544,-1.1584 h -0.3392 v 1.1584 h -1.28 V 4.7700843 h 1.856 q 0.8192,0 1.1776,0.3456 0.3584,0.3456 0.3584,1.1328 0,0.8256001 -0.4928,1.1392001 l 0.6528,1.3824 z m -0.8832,-2.0864 h 0.5184 q 0.1408,0 0.192,-0.0576 0.0576,-0.0576 0.0576,-0.2112 v -0.32 q 0,-0.1536 -0.0576,-0.2112 -0.0512,-0.0576 -0.192,-0.0576 h -0.5184 z m 6.08,-1.9136001 -1.184,2.7200001 v 1.28 h -1.28 v -1.28 l -1.184,-2.7200001 h 1.344 l 0.48,1.3312 0.48,-1.3312 z"
       id="text10"
       style="font-weight:800;font-size:6.4px;font-family:Changa;-inkscape-font-specification:'Changa, Ultra-Bold';fill:#306230;stroke-width:0.2"
       transform="skewX(-9.8688298)"
       aria-label="ARTILLERY" />
  </g>
</svg>
