<?xml version="1.0" encoding="UTF-8" standalone="no"?>
<!-- Created with Inkscape (http://www.inkscape.org/) -->

<svg
   version="1.1"
   id="svg1"
   width="598.97638"
   height="278.96786"
   viewBox="0 0 598.97638 278.96786"
   sodipodi:docname="logo.png"
   xmlns:inkscape="http://www.inkscape.org/namespaces/inkscape"
   xmlns:sodipodi="http://sodipodi.sourceforge.net/DTD/sodipodi-0.dtd"
   xmlns="http://www.w3.org/2000/svg"
   xmlns:svg="http://www.w3.org/2000/svg">
  <defs
     id="defs1" />
  <sodipodi:namedview
     id="namedview1"
     pagecolor="#306230"
     bordercolor="#000000"
     borderopacity="0.25"
     inkscape:showpageshadow="2"
     inkscape:pageopacity="0.0"
     inkscape:pagecheckerboard="0"
     inkscape:deskcolor="#d1d1d1" />
  <g
     inkscape:groupmode="layer"
     inkscape:label="Image"
     id="g1"
     transform="translate(-0.64500666,-13.605258)">
    <path
       style="fill:#306230"
       d="m 163.2697,291.99308 c -6.34942,-1.32392 -13.23741,-4.65886 -18.2697,-8.84561 -2.86417,-2.38292 -6.86286,-4.4254 -11,-5.61865 -7.0439,-2.03165 -9.48661,-3.63536 -11.51665,-7.56101 -2.47536,-4.78683 -2.81716,-9.60785 -0.93319,-13.16238 0.96358,-1.81799 2.07603,-6.23043 2.47213,-9.80543 0.3961,-3.575 0.89062,-7.13518 1.09895,-7.9115 0.4701,-1.75189 -9.39269,-4.51374 -19.87124,-5.56448 l -7.25,-0.727 v 3.66051 c 0,2.01328 0.402847,3.41153 0.895215,3.10723 0.492369,-0.3043 1.139855,0.0842 1.438855,0.86342 0.299,0.77918 1.35865,1.61373 2.35478,1.85456 0.99613,0.24083 0.29714,0.24568 -1.55331,0.0108 -2.503704,-0.31783 -3.974768,0.14627 -5.749999,1.81401 C 94.073494,245.34013 93,246.70267 93,247.13538 c 0,0.43272 3.7125,0.95171 8.25,1.15333 l -1.03032,0.34287 c -9.981997,-0.0255 -11.720525,0.74858 -16.548725,7.36843 -1.807712,2.47852 -1.808699,2.47422 -0.11482,-0.5 0.939708,-1.65 2.627444,-4.0125 3.750526,-5.25 1.706537,-1.8804 1.778837,-2.25 0.440131,-2.25 -0.88101,0 -2.795963,1.4625 -4.255451,3.25 -1.513465,1.85361 -2.186784,2.3072 -1.567101,1.05569 0.597583,-1.20687 1.534095,-2.47092 2.081137,-2.80901 1.74304,-1.07726 1.080629,-2.21841 -2.037442,-3.50996 -4.374363,-1.81192 -3.014449,-2.26723 1.750466,-0.58607 3.61415,1.27514 4.203843,1.25043 5.710028,-0.23933 1.566105,-1.54902 1.634963,-1.54302 1.01862,0.0887 -1.023871,2.71059 0.87596,2.07286 4.11586,-1.3816 1.853493,-1.97624 2.494436,-3.29209 1.737275,-3.56661 -4.705529,-1.70603 -9.662656,-9.25792 -9.513791,-14.4937 0.28667,-10.08255 -8.16107,2.50934 -18.242712,27.19191 -5.681514,13.90988 -10.167352,22 -12.198631,22 -1.213588,0 -1.076824,-0.69793 0.70019,-3.5732 1.239581,-2.00568 1.823719,-3.93282 1.33156,-4.39297 C 56.754246,265.5168 43.161762,263 36.591335,263 h -6.513854 l -1.53874,-5.1815 C 27.692433,254.96867 27,251.86781 27,250.9277 c 0,-0.94011 -0.890117,-3.67093 -1.978038,-6.0685 -3.859833,-8.5063 -2.317758,-18.29668 4.248341,-26.97199 2.465119,-3.25699 5.131594,-8.6444 6.924688,-13.99081 l 2.915922,-8.69431 5.998269,3.09355 c 5.057176,2.60819 7.402092,3.16066 14.945838,3.52133 l 8.947569,0.42779 -6.428672,5.06957 -6.428672,5.06957 2.427378,2.88478 C 59.969404,216.92866 61,219.43523 61,221.17243 61,224.33265 63.781977,230 65.333255,230 c 0.496121,0 2.674535,-1.7725 4.840919,-3.93888 2.166384,-2.16638 5.938443,-4.70252 8.382353,-5.63586 C 81.000437,219.49192 83,218.43719 83,218.08142 c 0,-0.35578 -1.587454,-3.63641 -3.527675,-7.2903 -1.940221,-3.65388 -3.586059,-8.19642 -3.657416,-10.09453 -0.148796,-3.95801 2.866586,-9.40935 7.240554,-13.08981 C 84.674959,186.24407 86,184.92226 86,184.66942 c 0,-0.25283 -2.8125,0.42644 -6.25,1.50949 -8.30467,2.61655 -19.45915,3.44243 -25.11322,1.85939 -2.498092,-0.69943 -5.802923,-2.64624 -7.547288,-4.44597 l -3.103209,-3.2017 2.505547,-7.36661 2.505547,-7.36661 -6.334751,-6.57871 c -3.484114,-3.61828 -8.062374,-9.189 -10.173911,-12.37937 -3.277213,-4.95161 -3.701039,-6.19578 -2.895532,-8.5 0.653528,-1.86947 1.759639,-2.79431 3.59792,-3.00829 2.27394,-0.26469 3.264567,0.59509 6.913095,6 C 48.151707,153.11257 68.819191,171 74.546045,171 c 2.587798,0 6.261162,-2.81881 6.515804,-5 0.449538,-3.85062 -0.574568,-5.19278 -7.854588,-10.29403 C 64.255299,149.43317 54.021613,138.76916 49.122818,130.60878 42.061225,118.84564 38.428027,103.29315 40.953799,95.63999 42.013851,92.428 42.544473,92 45.466528,92 c 3.133129,0 3.500314,-0.39775 6.819666,-7.38736 7.475474,-15.741228 13.502337,-22.86655 17.521836,-20.715379 3.511415,1.879252 3.248232,4.698587 -0.991276,10.618991 C 63.238806,82.30576 57.211141,95.625 54.747302,105.6053 l -2.088655,8.46053 2.019548,2.71708 c 2.492453,3.35333 7.222727,4.10679 9.515203,1.51561 0.87516,-0.98918 2.543041,-5.30335 3.706403,-9.58702 4.138059,-15.23697 11.43309,-28.04141 21.256577,-37.310133 9.957485,-9.395152 19.762942,-14.07121 26.984892,-12.86864 3.38757,0.564084 3.74154,0.966784 5.08049,5.779847 l 1.43922,5.173519 7.91951,1.152043 c 17.05397,2.480824 21.85033,4.926132 19.55286,9.968544 -1.33507,2.93014 -1.87066,2.93122 -16.63335,0.0334 -14.37173,-2.821047 -31.41317,-1.620657 -34.75,2.44777 -2.297174,2.80084 -2.22044,6.17641 0.189991,8.35782 1.666469,1.50814 4.310019,1.78482 18.749999,1.96245 15.20287,0.18702 17.57486,0.46082 24.81001,2.86387 9.50176,3.15587 18.36959,8.27279 24.33021,14.039 3.86505,3.73901 7.85423,9.50047 6.99353,10.10055 -0.17806,0.12414 -2.46044,1.54484 -5.07195,3.15708 -2.61152,1.61225 -4.74902,3.26029 -4.75,3.66231 -9.9e-4,0.40202 1.23571,1.03138 2.74821,1.39857 10.58452,2.56961 20.5091,9.60949 26.40311,18.72867 12.49578,19.33339 9.67412,42.16907 -7.42171,60.06404 -4.7534,4.97559 -5.7606,6.62181 -5.55403,9.07777 0.13878,1.65 -0.0957,4.4198 -0.52113,6.1551 -0.71169,2.90311 -0.36751,3.53482 4.30933,7.90947 14.13595,13.22252 17.14573,35.89785 6.76439,50.96219 -5.82983,8.45964 -16.88179,12.67203 -27.46026,10.46632 z m 15.87285,-4.07842 c 10.84365,-5.49445 17.23572,-22.56217 13.86821,-37.03005 -4.29946,-18.47177 -18.16883,-30.0425 -36.01076,-30.0425 -18.44816,0 -29.37543,10.32866 -29.46375,27.84968 -0.0346,6.86399 0.12083,7.35399 3.40992,10.75 1.89539,1.95702 3.92039,3.55536 4.5,3.55189 0.57961,-0.003 1.85538,-1.41443 2.83505,-3.13545 0.97968,-1.72101 1.95138,-2.95567 2.15935,-2.74367 0.20797,0.21199 -0.0953,2.77126 -0.67398,5.68727 -1.96899,9.92224 3.13729,18.64208 13.89762,23.73253 9.98873,4.72542 18.01804,5.16041 25.47834,1.3803 z m -41.98964,-16.45994 c -0.28836,-3.62571 -0.89677,-4.87603 -3.00721,-6.1801 -1.45513,-0.89915 -4.08699,-2.97149 -5.84857,-4.6052 l -3.20287,-2.9704 -1.17405,2.57675 c -2.74857,6.03246 4.20266,15.42765 11.587,15.66084 1.77526,0.0561 1.96543,-0.46184 1.6457,-4.48189 z M 64.556811,256.88719 c 1.970076,-3.91205 5.383449,-11.22455 7.585275,-16.25 C 74.343912,235.61173 78.167547,228.9125 80.639054,225.75 85.393742,219.66598 84.979907,218.91449 78.5,221.86566 74.56456,223.658 67,231.01169 67,233.04509 67,235.33774 58.705988,244 56.510804,244 c -0.929058,0 -3.589147,1.9549 -5.911308,4.34423 -2.322161,2.38933 -5.500555,4.66511 -7.063097,5.05728 C 41.187457,253.99106 35,259.21293 35,260.60576 c 0,0.21683 1.9125,0.40107 4.25,0.40942 2.3375,0.008 6.275,0.65325 8.75,1.4331 2.475,0.77986 6.406843,1.44803 8.737428,1.48482 L 60.974857,264 Z M 36,254.82569 C 36,254.37156 35.126558,254 34.059017,254 32.991476,254 31.839919,253.55 31.5,253 c -0.339919,-0.55 -1.077231,-1 -1.638472,-1 -0.95479,0 -0.330328,5.3093 0.861566,7.32521 C 31.253411,260.22215 36,256.17483 36,254.82569 Z m 6.79966,-4.23068 c 5.435949,-2.82832 9.644151,-9.2646 10.805354,-16.52636 0.380143,-2.37729 1.398797,-4.53551 2.391453,-5.06676 0.951078,-0.509 2.308909,-2.32492 3.017403,-4.03537 3.265432,-7.88345 -6.2938,-15.0968 -17.733166,-13.38136 -5.746709,0.86177 -10.434956,4.90432 -13.607018,11.73297 -5.611846,12.08088 -3.21847,23.28689 5.826314,27.27936 3.894802,1.7192 5.99172,1.71864 9.29966,-0.002 z m 17.611446,-11.67174 c 2.585278,-3.07242 3.412023,-8.07863 1.763038,-10.67574 -1.509272,-2.37707 -5.876793,3.73812 -6.429639,9.00247 -0.600906,5.72199 0.828548,6.23454 4.666601,1.67327 z M 97,236.27188 c 0,-1.9229 -1.224125,-3.84707 -4.147428,-6.51924 -2.281085,-2.08511 -4.358114,-3.58043 -4.61562,-3.32293 -0.932955,0.93296 1.87594,7.07869 4.475379,9.79192 C 96.053679,239.70924 97,239.72033 97,236.27188 Z m 32.51248,-5.54317 c 3.71804,-5.12082 9.55756,-9.19994 15.48752,-10.81859 5.56133,-1.51803 5.56661,-1.52247 4.02006,-3.38595 C 148.32335,215.68469 148.20433,215 148.75511,215 c 0.55,0 1.5602,0.675 2.24489,1.5 0.68469,0.825 1.71823,1.5 2.29676,1.5 0.57853,0 0.0258,-1.09216 -1.22821,-2.42703 l -2.28008,-2.42703 3.16203,-3.93471 C 156.26154,205.09108 159,197.67704 159,192.83297 c 0,-2.39061 0.64377,-3.10675 4,-4.44965 2.2,-0.88026 4,-1.8062 4,-2.05764 0,-1.04575 -2.39053,-4.98005 -4.29928,-7.07568 -1.78046,-1.95478 -1.82966,-2.25 -0.37503,-2.25 2.32484,0 2.10575,-0.7162 -1.07569,-3.51636 -1.5125,-1.33124 -2.16094,-2.43466 -1.44098,-2.45204 0.71996,-0.0174 1.0309,-0.4816 0.69098,-1.0316 -0.35705,-0.57772 -5.73909,-1 -12.74513,-1 -7.78836,0 -14.40816,-0.57207 -18.50287,-1.59898 -5.96607,-1.49624 -6.49905,-1.48742 -8.29433,0.13729 -1.0552,0.95494 -2.21006,3.36199 -2.56634,5.34898 -1.13609,6.33598 -2.08386,7.05235 -3.82992,2.89483 C 113.70264,173.73728 113,171.61391 113,171.0635 c 0,-0.5504 -0.675,-0.74171 -1.5,-0.42513 -0.93828,0.36005 -1.5,-0.009 -1.5,-0.98433 0,-1.87686 2.08206,-6.64783 2.91052,-6.66935 0.32421,-0.008 1.19453,-0.39878 1.93404,-0.86746 1.05018,-0.66558 0.60043,-1.82702 -2.0541,-5.30465 -1.86927,-2.44887 -4.01449,-5.99602 -4.76715,-7.88254 -0.75267,-1.88652 -1.52619,-3.62791 -1.71894,-3.86975 C 105.80254,144.43066 96,154.2358 96,155.3674 c 0,0.51841 0.822933,0.19783 1.828741,-0.71241 C 98.834548,153.74474 100.65751,153 101.87977,153 104.67459,153 107,158.12146 107,164.27675 c 0,2.38755 0.6149,5.18191 1.36644,6.2097 1.18378,1.61892 1.05011,2.58397 -1,7.21965 -1.30154,2.94301 -2.36644,6.7331 -2.36644,8.42241 0,2.18767 -1.02594,4.09743 -3.56538,6.63687 l -3.565389,3.56539 -2.895918,-2.91539 c -2.607797,-2.62532 -2.810246,-3.29072 -2.034835,-6.68795 1.100709,-4.82243 3.725402,-8.82677 6.211792,-9.47698 2.46011,-0.64333 1.99944,-3.75045 -0.556045,-3.75045 -2.584971,0 -5.25742,3.95738 -7.090724,10.5 -1.422164,5.07536 -1.499991,5.17067 -1.008032,1.23451 0.872808,-6.98333 3.473499,-12.31801 6.657843,-13.65693 2.544974,-1.07008 2.702561,-1.39243 1.490843,-3.04955 -1.741556,-2.38172 -3.7378,-1.58288 -7.117597,2.84826 -1.736369,2.2765 -2.946522,5.44719 -3.425137,8.97412 -0.620745,4.5743 -1.49497,6.29345 -5.420763,10.65988 -4.7764,5.3125 -6.986695,5.43126 -4.855758,5.43126 -3.730299,8.39843 5.831362,20.44228 12.282616,27.42585 5.101874,5.14957 6.688195,6.14243 11.169444,6.99079 6.00892,1.13757 22.73768,3.87276 24.22304,3.96052 0.55,0.0325 2.35562,-1.808 4.01248,-4.09 z M 99.172205,215.06414 C 98.170787,212.19147 93.632864,209 90.54966,209 89.697347,209 89,208.58141 89,208.06981 c 0,-1.3646 5.902288,0.53179 8.240171,2.64754 2.433315,2.20212 5.142409,7.28265 3.883339,7.28265 -0.51032,0 -1.38841,-1.32114 -1.951305,-2.93586 z M 133,205 c -1.925,-1.05389 -4.22708,-1.93503 -5.11573,-1.95808 -1.36056,-0.0353 -1.48588,-0.7131 -0.79355,-4.29192 1.39993,-7.23653 1.33466,-7.39578 -2.84072,-6.93069 -2.0625,0.22973 -4.21607,0.78944 -4.78571,1.2438 -0.62528,0.49873 -1.10448,0.15455 -1.20924,-0.86851 -0.0954,-0.93203 -0.46297,-3.12317 -0.81672,-4.86921 -0.35376,-1.74603 -0.10251,-4.81292 0.55834,-6.8153 1.13589,-3.44178 1.30113,-3.55056 3.02431,-1.9911 1.69739,1.53611 2.42038,1.49988 10.5098,-0.5267 C 150.07685,173.34608 155,175.64332 155,188.9435 c 0,3.36163 -2.40457,13.22968 -3.7724,15.48141 -0.30901,0.50871 -1.2155,-1.29129 -2.01442,-4 -1.30719,-4.43198 -1.56571,-4.72473 -2.58288,-2.92491 -1.37128,2.4264 -8.4347,9.51657 -9.42241,9.45808 C 136.81855,206.93503 134.925,206.05389 133,205 Z m 9.98943,-7.48727 C 144.60892,195.56137 143.56705,193 141.15383,193 c -2.42603,0 -4.55401,2.51477 -3.79709,4.48727 0.74373,1.93813 4.03298,1.953 5.63269,0.0255 z m -28.32276,-9.1794 c -0.91249,-0.91249 -0.84529,-7.1049 0.0833,-7.67882 0.4125,-0.25494 0.75,1.5185 0.75,3.94098 0,2.42248 -0.0375,4.40451 -0.0833,4.40451 -0.0458,0 -0.38334,-0.3 -0.75,-0.66667 z M 107.0856,183.5 c -0.0302,-1.1 0.38124,-2.675 0.9144,-3.5 0.86167,-1.33333 0.96327,-1.33333 0.9144,0 -0.0302,0.825 -0.44171,2.4 -0.9144,3.5 l -0.85943,2 z m 69.1644,35.04186 c 0,-3.13462 -2.50655,-6.13845 -5.81518,-6.96886 -2.64253,-0.66324 -8.78381,1.52787 -11.71346,4.17917 -1.78275,1.61336 -1.78411,1.70259 -0.0366,2.39157 0.99838,0.39363 3.19739,0.74732 4.88668,0.78597 1.68929,0.0387 4.83929,0.93691 7,1.99612 4.33032,2.12277 5.67856,1.55676 5.67856,-2.38397 z M 102.82332,184.66713 C 103.00664,183.72192 102.51168,183 101.68031,183 c -1.58186,0 -2.9366,2.41038 -1.923909,3.42307 1.011619,1.01162 2.719869,0.0336 3.066919,-1.75594 z m 20.5449,-29.48273 C 125.2022,148.64814 125.41722,146 124.11394,146 122.52845,146 120,152.6999 120,156.90113 c 0,5.81996 1.46272,5.07443 3.36822,-1.71673 z m 3.48129,1.81744 C 127.42506,155.35083 127.5416,154 127.1085,154 126.26089,154 124,158.4411 124,160.10607 c 0,1.87638 1.7949,-0.079 2.84951,-3.10423 z m -9.55645,-7.2861 c -0.55496,-2.77526 -0.5616,-2.77736 -2.05187,-0.6497 -1.28742,1.83806 -1.30775,2.70226 -0.1463,6.22147 l 1.3488,4.08692 0.70307,-3.43722 c 0.38669,-1.89046 0.45253,-4.69013 0.1463,-6.22147 z m 34.71989,-27.18168 c -1.66874,-4.38912 -4.90641,-10.28466 -6.55148,-11.92973 C 141.79002,106.93288 135,109.85595 135,115.10793 c 0,4.98548 1.96603,7.80228 5.90294,8.45734 1.97838,0.32919 4.04706,0.75114 4.59706,0.93768 0.55,0.18653 2.45136,0.37468 4.22525,0.4181 3.02466,0.074 3.16694,-0.0744 2.2877,-2.38699 z m 91.98058,162.5316 c -6.79966,-2.06836 -13.90091,-8.1183 -17.34379,-14.7761 -2.58018,-4.98951 -3.68576,-13.71675 -2.53864,-20.03956 4.0845,-22.51345 28.80635,-31.8353 44.5139,-16.78482 l 4.375,4.19199 v -4.25716 c 0,-4.74223 1.92139,-7.4086 5.32143,-7.3847 5.12124,0.036 5.15729,0.20671 5.47909,25.94692 L 284.10103,276 302.30052,275.9744 320.5,275.9488 330.87537,252.72443 c 5.70645,-12.7734 11.0637,-24.01186 11.90499,-24.97436 1.60129,-1.832 4.85306,-2.26982 6.95273,-0.93612 2.26136,1.43641 25.44485,54.05014 24.76301,56.1984 -0.74148,2.33619 -5.13598,3.70465 -7.37046,2.29517 -0.86065,-0.54288 -4.31057,-7.02164 -7.6665,-14.39725 L 353.35745,257.5 h -6.81587 -6.81587 l -5.79559,12.81649 c -3.18758,7.04907 -6.30957,13.43579 -6.93777,14.19272 -0.91011,1.09662 -6.18728,1.39231 -25.974,1.45534 -28.62704,0.0912 -28.01405,0.27243 -28.02494,-8.28598 l -0.007,-5.17857 -1.92082,2.91375 c -5.1353,7.78991 -18.05326,12.39543 -27.07247,9.65191 z m 11.65282,-10.56236 c 1.97016,-0.82319 5.12136,-2.84819 7.00267,-4.5 4.01581,-3.52592 5.63395,-3.72033 8.35098,-1.0033 l 2,2 v -14.03518 c 0,-13.5663 -0.0646,-14.0006 -1.93426,-13 -3.25625,1.74269 -5.07748,1.19482 -9.77579,-2.9408 -6.84286,-6.02332 -13.32782,-6.50255 -19.93758,-1.47335 -7.83542,5.96177 -9.7871,19.88551 -3.96496,28.28686 2.75186,3.97093 9.37039,8.16012 12.89471,8.16168 0.98016,4.4e-4 3.39407,-0.67273 5.36423,-1.49591 z M 348,245.55902 c 0,-0.79254 -0.45,-1.7191 -1,-2.05902 -0.55,-0.33992 -1,-0.40328 -1,-0.1408 0,0.26247 -0.27314,1.18903 -0.60699,2.05901 -0.39831,1.03799 -0.0545,1.58179 1,1.58179 0.88385,0 1.60699,-0.64844 1.60699,-1.44098 z m 30.25,39.31218 c -1.6166,-1.64402 -1.61122,-6.32652 0.009,-7.67103 0.70667,-0.58649 7.76157,-1.18846 16.08452,-1.37244 l 14.82572,-0.32773 2.91547,-3.26578 c 4.54112,-5.08674 3.54415,-11.661 -2.30959,-15.23002 -2.65174,-1.61676 -5.04458,-1.99744 -12.57459,-2.00046 -9.98087,-0.004 -12.95101,-0.94118 -17.11743,-5.40104 -3.61783,-3.87263 -4.05529,-11.92431 -0.90205,-16.6027 3.90729,-5.79715 7.56991,-6.99667 21.36914,-6.99845 12.96243,-0.002 14.45,0.5129 14.45,4.99845 0,4.43692 -1.53478,5 -13.62857,5 C 389.47932,236 387,236.86884 387,241.03624 c 0,2.90067 3.12778,3.96323 11.68426,3.96934 10.07694,0.007 14.5517,1.30936 19.32809,5.62454 5.09309,4.6013 7.45316,10.79154 6.66181,17.47326 -0.77389,6.53431 -3.20343,10.61874 -8.55531,14.38278 -4.2784,3.00904 -4.31098,3.01435 -20.45204,3.33504 -12.10803,0.24056 -16.48063,0.002 -17.41681,-0.95 z m 51.29096,-1.16834 c -1.21924,-1.86081 -1.35852,-3.05252 -0.59228,-5.06788 L 429.9505,276 l 14.27475,-0.0147 c 16.20119,-0.0167 18.37246,-0.65843 21.10427,-6.2372 1.53259,-3.12981 1.64399,-4.2983 0.68639,-7.19986 C 464.12984,256.83336 459.96443,255 448.86636,255 c -10.83374,0 -15.147,-1.64926 -18.28303,-6.99085 -2.54795,-4.33995 -2.51886,-11.27915 0.0618,-14.73565 4.54665,-6.08974 6.44005,-6.74668 20.47476,-7.10397 C 465.27777,225.8091 467,226.32456 467,230.92244 467,235.42046 465.48587,236 453.73426,236 441.9219,236 439,236.8597 439,240.33518 c 0,3.87463 1.85181,4.66446 10.95,4.6704 11.35503,0.007 15.6493,1.33057 20.69547,6.37673 5.37844,5.37844 7.05185,10.99033 5.51259,18.48685 -1.3274,6.4647 -4.71417,11.18826 -9.85161,13.74011 -3.13933,1.55936 -6.55495,1.94644 -19.48892,2.20861 -15.6659,0.31755 -15.68415,0.31532 -17.27657,-2.11502 z m 55.01574,0.0746 C 483.24636,281.90671 483,277.51079 483,256 c 0,-27.74979 0.41143,-30 5.48528,-30 5.35219,0 5.51472,0.88414 5.51472,30 0,23.08225 -0.22087,27.07801 -1.57143,28.42857 -2.2554,2.2554 -6.05628,1.94103 -7.87187,-0.65108 z m 37.43683,1.28817 c -8.1284,-2.47255 -15.83224,-10.05327 -18.55882,-18.26222 -2.53946,-7.64561 -1.6528,-20.04922 1.86193,-26.04665 9.53958,-16.27806 28.54387,-19.54131 41.50101,-7.12618 2.50121,2.39658 4.58246,4.24761 4.625,4.1134 0.0425,-0.1342 0.97735,-2.00215 2.07735,-4.15099 3.25504,-6.35871 6.79166,-7.59302 21.75584,-7.59302 12.66909,0 12.79754,0.0231 13.92611,2.5 0.85211,1.87016 0.85211,3.12984 0,5 -1.1215,2.46144 -1.3214,2.5 -12.96051,2.5 C 563.80852,236 562,236.57226 562,240.5 c 0,3.69956 1.94461,4.4997 10.95,4.50558 11.34115,0.007 15.36939,1.26118 20.48376,6.37555 9.9052,9.9052 7.59431,25.93774 -4.6156,32.0222 -4.90097,2.44225 -6.08693,2.59667 -19.94308,2.59667 -12.0596,0 -15.0173,-0.28508 -16.30365,-1.57143 -1.82683,-1.82683 -1.98822,-3.78128 -0.53625,-6.49431 C 552.98304,276.16317 554.2526,276 567.08484,276 585.60617,276 589,274.33567 589,265.25283 c 0,-3.01668 -0.67647,-4.52675 -3.04395,-6.79494 -2.89851,-2.77694 -3.57942,-2.94273 -14.25,-3.4696 -8.40344,-0.41492 -11.87644,-1.00022 -13.88657,-2.34028 C 554.68658,250.55945 552,246.76474 552,244.42819 c 0,-1.17753 -0.49515,-1.43404 -1.75,-0.90658 -4.83639,2.0329 -6.26475,1.71951 -10.66992,-2.34103 -2.64583,-2.43884 -5.82932,-4.32431 -7.98373,-4.72848 -16.86692,-3.16426 -26.60476,21.38565 -13.62945,34.36096 6.49242,6.49242 14.02293,6.37925 22.05511,-0.33145 4.80172,-4.01172 5.88006,-4.19592 9.11721,-1.55738 l 2.36078,1.92423 -1.88438,3.5329 c -4.41547,8.27826 -18.11349,13.57669 -27.62209,10.6843 z M 238.70885,206.37552 C 238.31898,205.98565 238,200.56667 238,194.33333 V 183 h -5.5 c -5.44444,0 -5.5,-0.0303 -5.5,-3 v -3 h 8.52673 8.52674 l -0.27674,14.75 c -0.26231,13.98137 -0.3831,14.76523 -2.31788,15.04218 -1.12263,0.1607 -2.36013,-0.0268 -2.75,-0.41666 z m 9.79336,-1.78241 C 246.09853,202.18944 246,201.59689 246,189.54545 V 177 h 9 9 v 2.95228 c 0,2.92305 -0.0619,2.95523 -6.25,3.25 -5.92061,0.28203 -6.25,0.42948 -6.25,2.79772 0,2.34204 0.36331,2.51895 5.75,2.7999 5.63283,0.2938 5.75,0.36002 5.75,3.25 0,2.93901 -0.0226,2.9501 -6,2.9501 -3.3,0 -6,0.19571 -6,0.4349 0,0.2392 0.43886,1.5892 0.97525,3 0.88637,2.33133 1.4848,2.5651 6.56642,2.5651 5.5095,0 5.58655,0.0402 5.27475,2.75 -0.30323,2.63538 -0.57682,2.76241 -6.56421,3.04766 -5.54449,0.26415 -6.52947,0.016 -8.75,-2.20455 z m 23.76748,0.94835 c -4.90516,-2.16892 -7.26151,-6.8418 -7.26595,-14.40911 -0.004,-6.06549 0.18048,-6.55187 3.87861,-10.25 3.66365,-3.66365 4.22698,-3.88235 10,-3.88235 H 285 v 3 c 0,2.95779 -0.0749,3 -5.32569,3 -6.84942,0 -9.67431,2.58708 -9.67431,8.85991 0,6.18244 3.2427,9.14009 10.02097,9.14009 4.98663,0 5.10412,0.0674 4.79545,2.75 -0.28811,2.50393 -0.71908,2.77102 -4.81642,2.98491 -2.475,0.12919 -5.95364,-0.40786 -7.73031,-1.19345 z M 287,192 v -15 h 2.4501 c 2.28128,0 2.47076,0.39617 2.75,5.75 l 0.2999,5.75 5.75,0.2999 5.75,0.29991 V 183.0499 177 h 3.02673 3.02674 L 309.77673,191.75 309.5,206.5 H 307 c -2.34204,0 -2.51895,-0.36331 -2.7999,-5.75 L 303.90019,195 H 297.9501 292 v 6 c 0,5.73333 -0.11111,6 -2.5,6 H 287 Z m 25,0 v -15 h 6.04966 c 3.41134,0 7.30986,0.65167 8.9393,1.49429 5.2645,2.72238 6.01104,4.86203 6.01104,17.22822 V 207 h -2.5 -2.5 v -10.4433 c 0,-9.65818 -0.16708,-10.56032 -2.22251,-12 -1.22237,-0.85618 -3.69737,-1.5567 -5.5,-1.5567 H 317 v 12 12 h -2.5 -2.5 z m 31.41844,14.03115 c -1.14486,-0.46315 -3.28236,-2.26915 -4.75,-4.01334 C 336.33667,199.24666 336,197.96862 336,191.88809 336,181.51101 339.95953,177 349.06799,177 c 3.50747,0 4.78202,0.61471 8.04966,3.88235 3.69813,3.69813 3.88217,4.18451 3.87861,10.25 -0.003,4.62166 -0.55711,7.27529 -2.02189,9.67783 -3.06075,5.02021 -10.16128,7.40333 -15.55593,5.22097 z m 9.60411,-6.84833 c 1.80549,-1.46199 2.24412,-2.83487 2.24412,-7.02392 0,-6.28314 -2.10344,-9.1589 -6.69915,-9.1589 -5.43073,0 -7.56976,2.35273 -7.55221,8.3067 0.0167,5.66901 0.47768,6.79319 3.48469,8.49835 2.92983,1.6614 5.97714,1.43892 8.52255,-0.62223 z m 10.72745,7.24533 c -0.4125,-0.41882 -0.75,-1.81148 -0.75,-3.09482 0,-2.07603 0.46866,-2.33502 4.25,-2.34864 7.49386,-0.027 7.80766,-1.17313 2.00193,-7.31183 -5.71335,-6.04103 -7.03807,-9.31746 -5.18726,-12.82972 1.80437,-3.42412 2.78307,-3.81092 9.68533,-3.82783 L 380,177 v 3 c 0,2.89197 -0.16318,3 -4.53138,3 -6.69484,0 -6.84311,2.04534 -0.60607,8.36082 3.90641,3.95555 5.13745,5.9275 5.13745,8.2295 0,5.18417 -1.98689,6.75108 -9.12911,7.1994 -3.50399,0.21995 -6.70839,0.0572 -7.12089,-0.36157 z M 392,204 c 0,-2.66667 0.33333,-3 3,-3 5.64713,0 7,-2.70573 7,-14 v -10 h 2.5 2.5 v 11.35398 c 0,10.67778 -0.14661,11.51217 -2.46169,14.01018 C 401.80609,205.31227 398.12784,207 394.4349,207 392.39612,207 392,206.51194 392,204 Z m 22.26243,1.47126 c -2.38261,-1.66885 -3.8385,-7.08086 -2.7919,-10.3784 C 412.62591,191.45256 414.93641,190 419.57143,190 423.96599,190 424,189.97312 424,186.5 V 183 h -6.5 -6.5 v -3 -3 h 6.77749 C 428.73113,177 429,177.39667 429,193.5567 V 207 h -6.27749 c -4.01399,0 -7.06448,-0.55123 -8.46008,-1.52874 z M 424,198.5 c 0,-2.19048 -0.43333,-2.5 -3.5,-2.5 -2.72727,0 -3.5,0.40476 -3.5,1.83333 0,2.51446 0.85817,3.16667 4.16667,3.16667 2.35555,0 2.83333,-0.42157 2.83333,-2.5 z m 9,-6.43358 V 177 l 6.75,0.0153 c 7.34771,0.0167 8.37414,0.38952 10.1003,3.66895 1.7571,3.33823 1.37509,7.75949 -0.92288,10.68088 -1.69024,2.1488 -2.90238,2.63486 -6.57074,2.63486 h -4.49815 l 0.26052,6.25 c 0.25488,6.11462 0.20227,6.25685 -2.42926,6.56642 L 433,207.13284 Z M 445,185.5 c 0,-2.09996 -0.4706,-2.5 -2.94098,-2.5 -1.61754,0 -3.23242,0.47155 -3.58862,1.04789 C 437.22293,186.06634 438.93451,188 441.96862,188 444.53543,188 445,187.61686 445,185.5 Z m 13,20.80602 c -2.64374,-0.94485 -4,-3.58096 -4,-7.77464 C 454,192.2126 456.10593,190 462.12006,190 h 5.00666 l -0.31336,-3.25 c -0.31334,-3.24984 -0.31366,-3.25001 -6.56336,-3.54772 -6.1881,-0.29477 -6.25,-0.32695 -6.25,-3.25 V 177 h 7 c 10.54524,0 11,0.70281 11,17 v 13 l -6.25,-0.0789 c -3.4375,-0.0434 -6.925,-0.32018 -7.75,-0.61503 z m 8.81955,-8.05602 c 0.27932,-1.96673 -0.12241,-2.25 -3.19098,-2.25 -3.76911,0 -5.15522,1.18519 -4.22406,3.61176 0.39383,1.0263 1.63376,1.4146 3.83861,1.20211 2.49791,-0.24073 3.33135,-0.8382 3.57643,-2.56387 z M 476,192 v -15 l 6.25,0.004 c 12.1951,0.007 16.01417,4.99773 15.53679,20.30218 C 497.50406,206.3698 497.4646,206.5 495,206.5 c -2.48008,0 -2.5023,-0.0794 -2.78879,-9.96413 C 491.87347,184.88304 490.84872,183 484.84501,183 H 481 v 12 12 h -2.5 -2.5 z m 35.36671,13.10712 C 506.3325,201.99695 505,199.29178 505,192.18179 c 0,-10.68873 4.78762,-15.64439 14.5,-15.00893 4.61643,0.30204 5.02427,0.5381 5.31642,3.07714 0.31165,2.70854 0.2325,2.75 -5.25,2.75 -7.36227,0 -9.56642,2.05692 -9.56642,8.92742 0,6.45324 2.94521,9.07258 10.20128,9.07258 4.78993,0 4.92248,0.079 4.61514,2.75 -0.29317,2.54796 -0.68376,2.76994 -5.31642,3.02144 -3.56498,0.19354 -5.89927,-0.28413 -8.13329,-1.66432 z m 21.69495,0.0656 C 528.7737,202.87308 526,197.79076 526,192.23348 c 0,-9.21164 5.37339,-15.22226 13.61514,-15.22974 7.49905,-0.007 12.38761,5.99341 12.38112,15.1966 -0.005,6.56081 -2.69198,11.35675 -7.48604,13.35984 -4.56968,1.90933 -7.34084,1.81555 -11.44856,-0.38745 z m 10.71583,-5.72943 C 545.62543,198.14895 546,196.94034 546,192.27204 c 0,-3.82108 -0.52866,-6.19872 -1.65499,-7.4433 -2.03132,-2.24459 -7.11138,-2.38111 -10.1225,-0.27204 C 532.35383,185.86557 532,187.05058 532,192 c 0,4.94942 0.35383,6.13443 2.22251,7.4433 1.22237,0.85618 3.37225,1.5567 4.77749,1.5567 1.40524,0 3.55512,-0.70052 4.77749,-1.5567 z M 555,192 v -15 h 6.84501 c 9.83688,0 10.36051,0.77832 10.81493,16.07516 0.19746,6.64684 0.14049,12.43873 -0.1266,12.87089 -0.26708,0.43215 -1.62135,0.56862 -3.00947,0.30326 C 567.16603,205.79859 567,205.3798 567,199.88342 V 194 h -3.5 -3.5 v 6.5 c 0,6.26667 -0.0897,6.5 -2.5,6.5 H 555 Z m 12,-6.5 c 0,-2.19048 -0.43333,-2.5 -3.5,-2.5 -3.06667,0 -3.5,0.30952 -3.5,2.5 0,2.19048 0.43333,2.5 3.5,2.5 3.06667,0 3.5,-0.30952 3.5,-2.5 z m 9,6.5 v -15 h 6.84501 C 591.38968,177 593,178.39102 593,185.77204 593,191.82504 590.82648,194 584.77749,194 H 581 v 6.5 c 0,6.26667 -0.0897,6.5 -2.5,6.5 H 576 Z m 12,-6.5 c 0,-2.19048 -0.43333,-2.5 -3.5,-2.5 -3.06667,0 -3.5,0.30952 -3.5,2.5 0,2.19048 0.43333,2.5 3.5,2.5 3.06667,0 3.5,-0.30952 3.5,-2.5 z m 1,18 c 0,-2 0.5,-2.5 2.5,-2.5 2,0 2.5,0.5 2.5,2.5 0,2 -0.5,2.5 -2.5,2.5 -2,0 -2.5,-0.5 -2.5,-2.5 z M 342,173.58882 c 0,-1.02322 1.67328,-1.50432 6.08655,-1.75 6.69327,-0.37259 7.02014,-0.28042 6.23756,1.75895 C 353.55621,175.59888 342,175.59049 342,173.58882 Z M 239,133.5 V 104 H 225.5 212 V 96.5 89 h 20.5 20.5 v 37 37 h -7 -7 z m 27.92168,27.2262 c -1.85575,-1.25058 -4.3973,-3.79213 -5.64788,-5.64788 C 259.02883,151.74701 259,151.30671 259,120.35212 V 89 h 22 22 v 7.47395 7.47396 L 287.75,104.22395 272.5,104.5 v 7 7 l 14.25,0.27746 14.25,0.27745 V 126.52746 134 H 286.5 272 v 5.42857 C 272,147.71396 272.5697,148 289.07143,148 H 303 v 7.5 7.5 h -16.35212 c -15.35252,0 -16.55837,-0.139 -19.7262,-2.2738 z m 56.2858,-0.3101 c -5.59559,-2.7884 -11.88806,-9.22299 -14.85522,-15.19072 -1.48176,-2.9802 -1.91702,-6.57556 -2.17602,-17.9744 -0.30285,-13.32877 -0.16715,-14.59108 2.10112,-19.54563 3.22661,-7.04784 7.45448,-11.68693 13.90379,-15.2561 5.03866,-2.7885 6.04319,-2.96193 19.06885,-3.2923 L 355,88.80821 V 96.4041 104 h -11.53984 c -12.9375,0 -17.52806,1.47788 -21.37595,6.88173 -1.84542,2.59166 -2.08421,4.36131 -2.08421,15.44592 0,12.04637 0.0989,12.63639 2.61912,15.63154 4.43451,5.27013 7.02836,6.04081 20.33122,6.04081 H 355 v 7.5 7.5 h -13.30366 c -12.30126,0 -13.69434,-0.19469 -18.48886,-2.5839 z M 361,125.95431 V 88.90862 l 6.75,0.29569 6.75,0.29569 0.27673,14.75 0.27674,14.75 H 389.52673 404 V 104 89 h 7 7 v 37 37 h -7 -7 V 148.5 134 H 389.5 375 v 14.5 14.5 h -7 -7 z m 62,0.0241 V 88.8654 l 16.25,0.3173 c 18.73361,0.36579 21.07145,1.09336 29.04992,9.04071 8.41328,8.38046 8.6529,9.45805 8.67812,39.02659 L 477,163 h -7.02804 -7.02804 l 0.0912,-24.44774 c 0.0586,-15.71964 -0.29316,-25.16591 -0.98539,-26.45935 -0.59212,-1.10639 -2.72152,-3.26741 -4.73201,-4.80226 C 453.97304,104.73725 452.93275,104.5 445.08114,104.5 H 436.5 l -0.20203,29 -0.20203,29 -6.54797,0.29569 L 423,163.09138 Z m 77.5,34.65889 C 494.86839,157.99811 486.61098,149.70653 484.44013,144.51095 483.40287,142.02845 483,136.84973 483,125.99887 c 0,-13.93829 0.18033,-15.42123 2.4105,-19.82226 2.59715,-5.12522 9.30415,-11.88535 14.72514,-14.84179 C 502.79375,89.88517 505.70417,89.5 514,89.5 c 9.03002,0 11.1008,0.3208 14.79149,2.29149 6.00098,3.20429 11.95228,9.46143 14.78446,15.54423 2.16796,4.65623 2.40547,6.50839 2.41428,18.82691 0.01,13.46846 -0.0364,13.75183 -3.24023,19.94004 -3.70375,7.15384 -11.43216,14.15975 -17.46945,15.83631 -2.0793,0.57743 -7.38055,1.04798 -11.78055,1.04567 -6.29524,-0.003 -9.06547,-0.50351 -13,-2.34737 z m 22.82881,-14.00131 c 1.79552,-0.75021 4.48106,-2.80974 5.96788,-4.57672 2.61432,-3.10695 2.70319,-3.61342 2.69957,-15.38598 -0.003,-10.44303 -0.29041,-12.64347 -2.02066,-15.48141 -2.59825,-4.26163 -8.9275,-7.1415 -15.75772,-7.1699 -6.43685,-0.0268 -10.7555,1.70967 -14.71788,5.91773 -2.92756,3.10907 -3.00827,3.46821 -3.34245,14.87316 -0.40052,13.66894 0.6933,16.78423 7.27945,20.73252 4.73679,2.83963 14.43341,3.37127 19.89181,1.0906 z M 551,155.5 V 148 h 11.27749 C 574.10559,148 578,146.8211 578,143.24056 c 0,-0.90531 -5.58868,-7.29426 -12.4193,-14.19767 -7.39307,-7.47185 -12.7008,-13.67323 -13.11486,-15.32297 -1.2997,-5.17841 -0.0629,-15.07266 2.29865,-18.38918 C 558.63783,89.89114 562.03539,89 578.90113,89 H 594 v 7.5 7.5 h -10.77749 c -8.13601,0 -11.32222,0.38154 -13,1.5567 -4.22886,2.96201 -2.89456,5.4397 9.42519,17.50186 6.40623,6.27229 12.25623,12.8606 13,14.64069 2.10915,5.04791 1.69044,13.15356 -0.91415,17.69665 C 587.9014,162.08018 584.88119,163 566.7656,163 H 551 Z M 15.856073,112.08802 C 5.1533809,105.12911 2.0602659,102.61164 1.2076129,100.16571 0.30730487,97.58309 0.43514825,96.68373 1.9728318,94.78254 3.676633,92.67595 4.7385504,92.47456 15.748733,92.16992 l 11.929793,-0.33008 -0.435591,7.83008 c -0.276864,4.97684 0.117873,10.19651 1.083266,14.32422 0.835372,3.57177 1.42404,6.58895 1.30815,6.70484 -0.11589,0.11589 -6.316115,-3.75904 -13.778278,-8.61096 z m 166.837987,-3.32126 c -2.75731,-4.67668 -5.69113,-7.63786 -13.02066,-13.14212 L 164.84681,92 h 15.52954 c 16.72623,0 20.27988,0.78214 21.25786,4.67873 0.99378,3.95952 -2.90085,8.28055 -12.77937,14.17847 l -3.64515,2.17632 z M 498,80 v -5 h 16 16 v 5 5 H 514 498 Z M 83.214543,57.856156 C 83.495038,57.11027 86.093794,48.4 88.989555,38.5 94.917147,18.234807 96.178321,15.246795 99.30236,14.066573 c 5.06944,-1.91517 7.6035,1.751811 12.59754,18.229612 l 3.77558,12.457502 -5.28114,0.545062 c -6.10366,0.629954 -16.280333,5.204528 -23.016247,10.346167 -2.570448,1.962067 -4.444046,2.957125 -4.16355,2.21124 z"
       id="path1"
       sodipodi:nodetypes="sssssssscsssssssccssssssssssssssssssscssssscsscccssssssssssssscccssssssssssssssscsssssscssssssssssssssssssssssssscsscssssscsssssssssssscsscssssssscssssssccsssssssssssssssscssssssssssssssssscsssssssssssscsssssssssssssssssssssssssssssssssssssssssssssssscsssccsssssssssssssssssssssscssssssssscssscssscccsssssscccsssccsccssscsssssssssssssssscssssscssscssssssscsssssssssscssssssssssssssssssssssscssssssssssssssssscssssscsscccssssscccssssssssssssscsscsssssssccsscccccccccsscccssccccssscccsssccccccssssscsssssssssssssscssssssssscccsssssssscccccsscsssssssccsssscssccsssssssscssscsscsssssssscccssssccccccssssssssssssccssssssssssssccssssscccssccsssssccssscssccsssssssssssssscccccccccccccssscccccccccccccccsscccsssssssscccssssscccsscccccccccccccccccccccccccccssscccssssccccccsssssssscsscsssscssssssccsssssscccssssssccsssscsssssscssscscccccccccsssscsss" />
  </g>
</svg>
