<?xml version="1.0" encoding="UTF-8" standalone="no"?>
<!-- Created with Inkscape (http://www.inkscape.org/) -->

<svg
   version="1.1"
   id="svg1"
   width="583.12476"
   height="124.1117"
   viewBox="0 0 583.12476 124.1117"
   sodipodi:docname="logo.png"
   inkscape:version="0.0"
   xmlns:inkscape="http://www.inkscape.org/namespaces/inkscape"
   xmlns:sodipodi="http://sodipodi.sourceforge.net/DTD/sodipodi-0.dtd"
   xmlns="http://www.w3.org/2000/svg"
   xmlns:svg="http://www.w3.org/2000/svg">
  <defs
     id="defs1" />
  <sodipodi:namedview
     id="namedview1"
     pagecolor="#306230"
     bordercolor="#000000"
     borderopacity="0.25"
     inkscape:showpageshadow="2"
     inkscape:pageopacity="0.0"
     inkscape:pagecheckerboard="0"
     inkscape:deskcolor="#d1d1d1"
     inkscape:zoom="1.7729167"
     inkscape:cx="303.73678"
     inkscape:cy="107.73208"
     inkscape:window-width="1918"
     inkscape:window-height="1360"
     inkscape:window-x="1433"
     inkscape:window-y="0"
     inkscape:window-maximized="0"
     inkscape:current-layer="g1" />
  <g
     inkscape:groupmode="layer"
     inkscape:label="Image"
     id="g1"
     transform="translate(-10,0.056439)">
    <g
       id="g22">
      <path
         style="fill:#306230"
         d="M 107.22178,14.25 107.5,0.5 110.41877,0.167292 C 121.86224,-1.137139 134.96193,11.435416 134.99023,23.75 L 135,28 h -14.02822 -14.02822 z m 22.59072,7.8125 c 0.25,-0.75 -0.125,-1.125 -0.875,-0.875 -0.72188,0.24062 -1.50938,1.02813 -1.75,1.75 -0.25,0.75 0.125,1.125 0.875,0.875 0.72187,-0.24062 1.50937,-1.02813 1.75,-1.75 z"
         id="path21" />
      <path
         style="fill:#306230"
         d="M 43.22178,14.25 43.5,0.5 h 14 14 L 71.77822,14.25 72.056439,28 H 57.5 42.943561 Z m 23.59072,7.8125 c 0.25,-0.75 -0.125,-1.125 -0.875,-0.875 -0.721875,0.24062 -1.509375,1.02813 -1.75,1.75 -0.25,0.75 0.125,1.125 0.875,0.875 0.721875,-0.24062 1.509375,-1.02813 1.75,-1.75 z"
         id="path20" />
      <path
         style="fill:#306230"
         d="m 10,25.2 c 0,-1.54 0.395639,-3.2275 0.879198,-3.75 0.483558,-0.5225 1.396849,-2.572028 2.029534,-4.554506 C 15.66651,8.254177 26.79084,0.030362 35.75,0.009769 L 40,0 V 14 28 H 25 10 Z m 24.8125,-3.1375 c 0.25,-0.75 -0.125,-1.125 -0.875,-0.875 -0.721875,0.24062 -1.509375,1.02813 -1.75,1.75 -0.25,0.75 0.125,1.125 0.875,0.875 0.721875,-0.24062 1.509375,-1.02813 1.75,-1.75 z M 20.302802,10.127888 C 22.061261,8.273227 25.3,5.880092 27.5,4.80981 30.9484,3.132193 31.0863,2.952931 28.5,3.509872 21.661397,4.982518 15.95043,10.701083 14.528463,17.5 l -0.627439,3 1.602291,-3.5 c 0.881259,-1.925 3.041029,-5.01745 4.799487,-6.872112 z"
         id="path19" />
      <path
         style="fill:#306230"
         d="M 75.437266,27.69711 C 75.162286,26.98053 75.063909,20.56803 75.218651,13.447115 L 75.5,0.5 89.25,0.22178 103,-0.056439 V 14.47178 29 H 89.468615 C 79.273065,29 75.813976,28.6788 75.437266,27.69711 Z M 98.8125,22.0625 c 0.25,-0.75 -0.125,-1.125 -0.875,-0.875 -0.721875,0.24062 -1.509375,1.02813 -1.75,1.75 -0.25,0.75 0.125,1.125 0.875,0.875 0.721875,-0.24062 1.509375,-1.02813 1.75,-1.75 z"
         id="path18" />
      <path
         style="fill:#306230"
         d="M 107.22178,46.25 107.5,32.5 121.25,32.22178 135,31.94356 v 3.6622 c 0,5.95002 -2.0884,11.21309 -6.38731,16.09691 -4.84794,5.50754 -10.43681,8.2457 -16.89091,8.27537 L 106.94356,60 Z m 15.45909,5.86621 c 3.27479,-2.37224 8.38191,-9.82988 7.15458,-10.44742 -0.1845,-0.0928 -3.30075,2.86871 -6.92502,6.58121 -6.89707,7.065 -6.99828,8.76945 -0.22956,3.86621 z"
         id="path17" />
      <path
         style="fill:#306230"
         d="M 75.22178,46.25 75.5,32.5 89.25,32.22178 103,31.94356 V 45.97178 60 H 88.97178 74.943561 Z m 23.59072,7.8125 c 0.25,-0.75 -0.125,-1.125 -0.875,-0.875 -0.721875,0.24062 -1.509375,1.02813 -1.75,1.75 -0.25,0.75 0.125,1.125 0.875,0.875 0.721875,-0.24062 1.509375,-1.02813 1.75,-1.75 z"
         id="path16" />
      <path
         style="fill:#306230"
         d="m 10,47.2 c 0,-8.62222 0.391667,-13.19167 1.2,-14 0.817391,-0.81739 5.6,-1.2 15,-1.2 H 40 V 46 60 H 25 10 Z m 24.8125,6.8625 c 0.25,-0.75 -0.125,-1.125 -0.875,-0.875 -0.721875,0.24062 -1.509375,1.02813 -1.75,1.75 -0.25,0.75 0.125,1.125 0.875,0.875 0.721875,-0.24062 1.509375,-1.02813 1.75,-1.75 z"
         id="path15" />
      <path
         style="fill:#306230"
         d="m 43.339496,59.44711 c -0.221206,-0.57908 -0.275587,-6.87908 -0.120845,-14 L 43.5,32.5 h 14 14 l 0.277874,13.69696 0.277874,13.69695 -14.157029,0.30305 C 48.637466,60.3952 43.602604,60.13586 43.339496,59.44711 Z M 66.8125,54.0625 c 0.25,-0.75 -0.125,-1.125 -0.875,-0.875 -0.721875,0.24062 -1.509375,1.02813 -1.75,1.75 -0.25,0.75 0.125,1.125 0.875,0.875 0.721875,-0.24062 1.509375,-1.02813 1.75,-1.75 z"
         id="path14" />
      <path
         style="fill:#306230"
         d="m 532.45,91.05153 c -0.58054,-0.5796 -0.75555,-12.73304 -0.45,-31.25 L 532.5,29.5 h 9.5 9.5 L 564,48 576.5,66.5 577,48 l 0.5,-18.5 6.33731,-0.29998 c 3.8114,-0.18042 6.90038,0.16732 7.75,0.87244 1.90864,1.58403 2.10914,58.83109 0.21269,60.72754 -0.72814,0.72813 -4.26607,1.2 -8.99734,1.2 h -7.79733 L 561.25266,71.3621 547.5,50.7242 547.2278,70.03639 c -0.17171,12.1825 -0.67839,19.80162 -1.37245,20.6379 -1.27972,1.54197 -11.93831,1.84192 -13.40535,0.37724 z"
         id="path13" />
      <path
         style="fill:#306230"
         d="m 411.59595,91.15526 c -0.94531,-1.52955 -0.75511,-60.3961 0.19823,-61.34944 0.49993,-0.49993 3.78825,-0.77325 7.30739,-0.60739 L 425.5,29.5 l 0.26752,24.77354 0.26752,24.77354 17.15313,-0.27354 L 460.34129,78.5 470.96977,55.34451 c 5.84565,-12.73552 11.22396,-23.87302 11.95179,-24.75 C 483.92718,29.38282 486.13065,29 492.09939,29 c 7.05684,0 7.99911,0.2285 9.27845,2.25 3.69865,5.84433 25.71518,56.08025 25.43653,58.0395 C 526.52194,91.34573 525.97659,91.5 519,91.5 h -7.5 L 507.78223,83.75 504.06445,76 H 491.54603 479.0276 l -3.7638,7.75 -3.7638,7.75 -29.68185,0.26478 c -16.32502,0.14562 -29.92501,-0.12866 -30.2222,-0.60952 z M 498,62.5088 c 0,-0.27016 -1.44681,-3.72693 -3.21514,-7.68172 l -3.21514,-7.19052 -3.21697,6.93172 c -1.76933,3.81245 -3.24751,7.26922 -3.28486,7.68172 -0.0373,0.4125 2.85711,0.75 6.43211,0.75 3.575,0 6.5,-0.22104 6.5,-0.4912 z"
         id="path12" />
      <path
         style="fill:#306230"
         d="m 352.45337,90.73907 c -0.26613,-0.69351 -0.36451,-14.75601 -0.21862,-31.25 L 352.5,29.5 l 16,0.004 c 18.4999,0.004 21.74324,0.51871 27.45741,4.35639 6.25345,4.19987 8.02822,7.49934 8.036,14.93971 0.007,7.0818 -1.29627,10.23608 -6.15809,14.89965 -5.03566,4.83033 -10.09276,6.52389 -21.14117,7.07994 l -9.80586,0.49352 0.18653,9.24767 c 0.10259,5.08622 -0.12384,9.74985 -0.50316,10.36362 -0.98634,1.59592 -13.49955,1.46742 -14.11829,-0.14499 z m 30.26134,-34.69634 c 2.87905,-1.307 4.41853,-2.7254 4.85785,-4.4758 1.44246,-5.74723 -2.67768,-8.68152 -13.13208,-9.35244 L 367,41.73699 V 49.86849 58 l 5.75,-0.022 c 3.48517,-0.0133 7.41011,-0.7756 9.96471,-1.93531 z"
         id="path11" />
      <path
         style="fill:#306230"
         d="M 277.70762,91.37398 C 277.31843,90.9851 277,89.66687 277,88.4449 c 0,-2.12802 22.54642,-52.54059 25.57973,-57.1949 1.31511,-2.0179 2.27662,-2.25 9.32088,-2.25 5.2023,0 8.21679,0.43653 8.92742,1.29279 2.73279,3.2928 26.22371,56.41654 25.95989,58.70721 l -0.28792,2.5 -7.09381,0.29066 c -8.11618,0.33254 -7.78209,0.58409 -11.97155,-9.01378 L 324.5,76.05377 311.82054,76.02688 299.14107,76 295.32054,83.75 291.5,91.5 l -6.54238,0.29096 c -3.5983,0.16002 -6.8608,-0.0275 -7.25,-0.41667 z M 318,62.32976 c 0,-0.36864 -1.42723,-3.76667 -3.17163,-7.55119 l -3.17163,-6.88094 -3.32837,7.18574 C 306.49777,59.03552 305,62.43355 305,62.63455 305,62.83555 307.925,63 311.5,63 c 3.575,0 6.5,-0.30161 6.5,-0.67024 z"
         id="path10" />
      <path
         style="fill:#306230"
         d="M 166.70631,91.37298 C 166.31784,90.98451 166,79.73052 166,66.36411 V 42.06156 L 153.75,41.78078 141.5,41.5 v -6 -6 h 32.5 32.5 v 6 6 L 194.2674,41.78064 182.03481,42.06128 181.7674,66.78064 181.5,91.5 l -7.04369,0.28964 c -3.87403,0.15931 -7.36153,-0.0282 -7.75,-0.41666 z"
         id="path9" />
      <path
         style="fill:#306230"
         d="M 43.22178,78.25 43.5,64.5 h 14 14 L 71.77822,78.25 72.056439,92 H 57.5 42.943561 Z m 23.59072,7.8125 c 0.25,-0.75 -0.125,-1.125 -0.875,-0.875 -0.721875,0.24062 -1.509375,1.02813 -1.75,1.75 -0.25,0.75 0.125,1.125 0.875,0.875 0.721875,-0.24062 1.509375,-1.02813 1.75,-1.75 z"
         id="path8" />
      <path
         style="fill:#306230"
         d="m 10,79.2 c 0,-8.62222 0.391667,-13.19167 1.2,-14 0.817391,-0.81739 5.6,-1.2 15,-1.2 H 40 V 78 92 H 25 10 Z m 24.865339,6.24897 c 0.31608,-1.6311 0.147537,-1.70455 -1.25,-0.54469 -1.911254,1.5862 -2.149229,3.44015 -0.365339,2.84619 0.6875,-0.22891 1.414403,-1.26459 1.615339,-2.3015 z"
         id="path7" />
      <path
         style="fill:#306230"
         d="M 227.73447,91.91195 C 218.6967,89.78268 210.59763,83.27412 206.68967,75 c -2.59809,-5.50083 -3.04605,-21.07191 -0.79021,-27.4679 1.95125,-5.53236 10.13153,-13.8476 16.39875,-16.6693 4.58581,-2.06468 6.682,-2.33662 17.70179,-2.29644 14.2334,0.0519 18.63421,1.25413 25.65748,7.00917 2.38221,1.95204 5.55937,5.64473 7.06036,8.20598 2.34844,4.00731 2.78332,6.0075 3.11805,14.34111 0.52012,12.94968 -1.27708,18.449 -8.33616,25.50808 -4.1808,4.1808 -6.51376,5.60214 -11.95257,7.28202 -7.21817,2.22946 -20.55685,2.70868 -27.81269,0.99923 z M 249.5786,78.10367 c 7.34988,-3.33815 11.17566,-11.04074 10.08271,-20.29991 -1.18379,-10.0287 -7.07859,-15.57787 -17.55753,-16.52807 -5.17445,-0.4692 -6.80477,-0.16743 -11.4964,2.12797 -5.71423,2.79572 -8.55849,6.83273 -10.09591,14.32969 -1.58902,7.74861 4.50838,18.46229 11.98853,21.06493 4.76201,1.6569 12.60327,1.33798 17.0786,-0.69461 z"
         id="path6" />
      <path
         style="fill:#306230"
         d="M 107,110 V 96 h 14 14 v 3.63398 C 135,112.25735 123.67996,124 111.5109,124 H 107 Z m 14.42289,6.59806 c 3.40539,-1.99569 9.70954,-10.17716 8.42804,-10.93784 -0.19301,-0.11457 -3.34517,2.84001 -7.00479,6.56574 -3.65962,3.72572 -6.39916,6.77404 -6.08786,6.77404 0.3113,0 2.41038,-1.08087 4.66461,-2.40194 z"
         id="path5" />
      <path
         style="fill:#306230"
         d="M 75.22178,110.25 75.5,96.5 89.25,96.22178 103,95.94356 V 109.97178 124 H 88.97178 74.943561 Z m 23.433143,8.20687 c 0.809814,-2.11034 -0.541849,-3.2497 -1.693983,-1.42791 C 95.736732,118.96471 95.76128,120 97.03139,120 c 0.567261,0 1.297854,-0.69441 1.623538,-1.54313 z"
         id="path4" />
      <path
         style="fill:#306230"
         d="M 43.221601,110.27763 43.5,96.5 l 14.278399,-0.27763 14.2784,-0.27763 -0.2784,13.77763 L 71.5,123.5 l -14.278399,0.27763 -14.2784,0.27763 z m 23.643738,7.17134 c 0.31608,-1.6311 0.147537,-1.70455 -1.25,-0.54469 -1.911254,1.5862 -2.149229,3.44015 -0.365339,2.84619 0.6875,-0.22891 1.414403,-1.26459 1.615339,-2.3015 z"
         id="path3" />
      <path
         style="fill:#306230"
         d="m 25.429137,121.61923 c -5.689012,-2.64907 -10.883989,-8.30032 -12.494878,-13.59231 -0.590482,-1.9398 -1.58397,-4.56872 -2.207752,-5.84202 -0.8071127,-1.64753 -0.8281543,-2.80095 -0.07297,-4 0.898884,-1.42722 3.224104,-1.72733 15.20382,-1.96236 L 40,95.94509 V 109.97254 124 l -4.75,-0.01 c -2.875829,-0.006 -6.750772,-0.94142 -9.820863,-2.371 z M 35,117.5 c 0,-0.825 -0.401855,-1.5 -0.893011,-1.5 -0.491156,0 -1.152033,0.675 -1.468615,1.5 -0.350624,0.91371 -0.0016,1.5 0.893011,1.5 C 34.339123,119 35,118.325 35,117.5 Z"
         id="path2" />
    </g>
  </g>
</svg>
