<?xml version="1.0" encoding="UTF-8" standalone="no"?>
<!-- Created with Inkscape (http://www.inkscape.org/) -->

<svg
   version="1.1"
   id="svg1"
   width="358.44714"
   height="93.184921"
   viewBox="0 0 358.44714 93.184921"
   sodipodi:docname="logo.png"
   xmlns:inkscape="http://www.inkscape.org/namespaces/inkscape"
   xmlns:sodipodi="http://sodipodi.sourceforge.net/DTD/sodipodi-0.dtd"
   xmlns="http://www.w3.org/2000/svg"
   xmlns:svg="http://www.w3.org/2000/svg">
  <defs
     id="defs1" />
  <sodipodi:namedview
     id="namedview1"
     pagecolor="#306230"
     bordercolor="#000000"
     borderopacity="0.25"
     inkscape:showpageshadow="2"
     inkscape:pageopacity="0.0"
     inkscape:pagecheckerboard="0"
     inkscape:deskcolor="#d1d1d1" />
  <g
     inkscape:groupmode="layer"
     inkscape:label="Image"
     id="g1"
     transform="translate(-5.9728212,-4.9134583)">
    <path
       style="fill:#306230"
       d="m 6.0625898,96.663996 c 0.418368,-0.6875 7.1218302,-10.925 14.8965812,-22.75 7.774752,-11.825 20.778931,-31.625 28.898175,-44 8.119244,-12.375 15.16734,-22.9275008 15.662435,-23.4500008 0.534763,-0.564364 0.900173,10.2943458 0.900173,26.7500008 v 27.7 h -7.848818 -7.848819 l -12.11552,18.5 L 26.491276,97.914 H 15.896598 c -8.2147662,0 -10.4238072,-0.28079 -9.8340082,-1.250004 z m 64.3573642,-45.25 V 4.9139952 h 8.5 8.5 V 51.413996 97.914 h -8.5 -8.5 z m 51.009556,11.25 0.01,-35.25 11.15623,-11.25 11.15665,-11.2500008 h 10.83378 10.83378 v 8.9692218 8.969221 l -12.25,0.280779 -12.25,0.280779 -0.26217,37.25 -0.26217,37.250004 h -9.48783 -9.48783 z m 49.99044,-11.25 V 4.9139952 h 9.5 9.5 v 36.5000008 36.5 h 13 13 v 10 V 97.914 h -22.5 -22.5 z m 75.5,45.62016 c -9.23643,-2.4386 -17.62007,-9.59222 -22.22065,-18.9605 l -2.77935,-5.65966 -0.28785,-33.75 -0.28784,-33.7500008 h 9.03784 9.03785 V 36.266113 c 0,30.867103 0.0348,31.403259 2.25,34.658052 3.79971,5.582941 7.22507,7.496421 13.31343,7.437171 3.96865,-0.0386 6.21467,-0.6465 8.42402,-2.27994 l 3.01255,-2.22727 v 10.92153 c 0,10.78575 -0.0308,10.92925 -2.4746,11.54261 -4.47685,1.123624 -13.96931,1.522764 -17.0254,0.71589 z m 23.5,-45.62016 V 4.9139952 l 9.25,-2.68e-4 9.25,-2.69e-4 -0.26949,46.5002698 -0.26948,46.500272 h -8.98052 -8.98051 z m 24,36.59219 v -10.09219 h 22.06574 c 22.34306,0 24.92885,-0.36594 27.65246,-3.91334 1.77762,-2.315295 1.50587,-8.255143 -0.49044,-10.71962 -2.8721,-3.545675 -5.68968,-4.36704 -14.98052,-4.36704 -11.31417,0 -17.7134,-1.897714 -23.46184,-6.957692 -6.53368,-5.751183 -9.08665,-12.264324 -8.60631,-21.956494 0.35203,-7.103221 0.71369,-8.14247 5.68489,-16.335814 l 5.30894,-8.7500008 h 10.94872 c 10.12525,0 10.87675,0.131621 9.99175,1.75 -0.52633,0.9625004 -3.69216,6.4677978 -7.03518,12.2339938 -6.08885,10.50235 -6.96986,13.481424 -5.04857,17.071398 1.82976,3.418926 6.06917,4.67996 17.47036,5.196646 12.3342,0.55897 16.44162,1.893545 22.40273,7.279047 5.93517,5.362076 8.42919,12.174156 7.8869,21.542007 -0.34204,5.908479 -1.03535,8.662979 -3.03143,12.043709 -3.52659,5.97293 -8.29196,10.33939 -14.2582,13.06466 -4.67136,2.133804 -6.56105,2.307544 -28.75,2.643414 l -23.75,0.35951 z M 93.419954,13.913996 V 4.9139952 h 22.229146 22.22915 l -8.9583,9.0000008 -8.9583,9 H 106.6908 93.419954 Z m 230.999996,8.388877 c 0,-0.336118 2.2802,-4.386118 5.06712,-9 l 5.06712,-8.3888778 h 14.93288 c 8.21308,0 14.93288,0.190685 14.93288,0.423745 0,0.23306 -2.30652,4.2830604 -5.1256,9.0000008 l -5.12561,8.576255 h -14.87439 c -8.18092,0 -14.8744,-0.275005 -14.8744,-0.611123 z"
       id="path1" />
  </g>
</svg>
