<?xml version="1.0" encoding="UTF-8" standalone="no"?>
<svg
   viewBox="0 0 95.265999 8.0000277"
   version="1.1"
   id="svg1"
   sodipodi:docname="auto-strategytbs.svg"
   inkscape:version="1.3.2 (091e20ef0f, 2023-11-25)"
   width="95.265999"
   height="8.0000277"
   xmlns:inkscape="http://www.inkscape.org/namespaces/inkscape"
   xmlns:sodipodi="http://sodipodi.sourceforge.net/DTD/sodipodi-0.dtd"
   xmlns="http://www.w3.org/2000/svg"
   xmlns:svg="http://www.w3.org/2000/svg">
  <defs
     id="defs1" />
  <sodipodi:namedview
     id="namedview1"
     pagecolor="#505050"
     bordercolor="#eeeeee"
     borderopacity="1"
     inkscape:showpageshadow="0"
     inkscape:pageopacity="0"
     inkscape:pagecheckerboard="0"
     inkscape:deskcolor="#505050"
     showgrid="false"
     inkscape:zoom="26.516504"
     inkscape:cx="6.1659711"
     inkscape:cy="-3.4695373"
     inkscape:window-width="2560"
     inkscape:window-height="1409"
     inkscape:window-x="1920"
     inkscape:window-y="0"
     inkscape:window-maximized="1"
     inkscape:current-layer="svg1" />
  <!--!Font Awesome Free 6.5.1 by @fontawesome - https://fontawesome.com License - https://fontawesome.com/license/free Copyright 2024 Fonticons, Inc.-->
  <!--!Font Awesome Free 6.5.1 by @fontawesome - https://fontawesome.com License - https://fontawesome.com/license/free Copyright 2024 Fonticons, Inc.-->
  <!--!Font Awesome Free 6.5.1 by @fontawesome - https://fontawesome.com License - https://fontawesome.com/license/free Copyright 2024 Fonticons, Inc.-->
  <path
     d="m 6.8298987,7.9727056 c 0.27656,0 0.5,-0.22344 0.5,-0.5 0,-0.27656 -0.22344,-0.5 -0.5,-0.5 v -0.17188 c 0,-0.6625 -0.26406,-1.29843 -0.73281,-1.76718 l -1.05938,-1.06094 1.05938,-1.06094 c 0.46875,-0.46875 0.73281,-1.10469 0.73281,-1.76719 V 0.97270562 c 0.27656,0 0.5,-0.22344 0.5,-0.5 0,-0.27656 -0.22344,-0.5 -0.5,-0.5 h -0.5 -4 -0.4999999 c -0.27656,0 -0.5,0.22344 -0.5,0.5 0,0.27656 0.22344,0.5 0.5,0.5 V 1.1445756 c 0,0.6625 0.26406,1.29844 0.7328099,1.76719 l 1.05938,1.06094 -1.06094,1.06094 c -0.4687499,0.46875 -0.7328099,1.10468 -0.7328099,1.76718 v 0.17188 c -0.27657,0 -0.5,0.22344 -0.5,0.5 0,0.27656 0.22343,0.5 0.5,0.5 h 0.5015599 4 z m -4,-6.82813 V 0.97270562 h 3 V 1.1445756 c 0,0.39844 -0.15781,0.77969 -0.43906,1.06094 l -1.06094,1.05938 -1.06094,-1.06094 c -0.28125,-0.28125 -0.43906,-0.6625 -0.43906,-1.06094 z"
     id="path1-0"
     style="fill:#306230;stroke-width:0.015625" />
  <path
     d="m 12.560077,7.615706 h -2.33152 V 2.2532098 H 8.5964931 V 0.32970572 H 14.192141 V 2.2532098 h -1.632064 z m 7.18108,-3.6604866 q 0.501276,0.116576 0.839347,0.5828801 0.33807,0.4546464 0.33807,1.0258688 0,0.990896 -0.617853,1.5271456 -0.606195,0.5245921 -1.74864,0.5245921 H 14.833307 V 0.32970572 h 3.310758 q 1.270679,0 1.841901,0.45464641 0.571223,0.45464637 0.571223,1.46885767 0,0.5129344 -0.233152,0.9675808 -0.221495,0.4546464 -0.58288,0.6644832 z m -1.515488,-1.398912 q 0,-0.3264128 -0.104919,-0.4313312 -0.09326,-0.1049184 -0.384701,-0.1049184 h -0.571222 v 1.0841568 h 0.571222 q 0.29144,0 0.384701,-0.1049184 0.104919,-0.116576 0.104919,-0.4429888 z m -0.221495,3.3690465 q 0.29144,0 0.396359,-0.1282336 0.116576,-0.1282336 0.116576,-0.466304 0,-0.3380704 -0.104919,-0.466304 Q 18.307272,4.7362787 18.015832,4.7362787 H 17.164827 V 5.9253539 Z M 21.76959,5.4473923 q 1.16576,0.3730432 2.366493,0.3730432 0.594538,0 0.944266,-0.058288 V 5.1209795 L 24.031165,5.0277187 Q 23.121872,4.9461155 22.573964,4.7013059 22.037715,4.4448387 21.792905,3.9785346 21.548096,3.5122306 21.548096,2.7661442 q 0,-0.9792384 0.279782,-1.5388033 0.279782,-0.57122237 0.897635,-0.81603198 0.629511,-0.25646721 1.725325,-0.25646721 1.433885,0 2.739536,0.34972801 l -0.29144,1.86521608 q -0.606195,-0.1282336 -1.025869,-0.174864 -0.419673,-0.058288 -0.862662,-0.058288 -0.594538,0 -0.955923,0.058288 v 0.6295104 l 0.839347,0.081603 q 1.422227,0.1398912 2.051738,0.7111136 0.641168,0.5595648 0.641168,1.6786945 0,1.2939936 -0.746087,1.9001889 Q 26.09456,7.79057 24.485811,7.79057 q -1.655379,0 -3.042634,-0.4196736 z"
     id="text1"
     style="font-weight:800;font-size:11.6576px;font-family:Changa;-inkscape-font-specification:'Changa, Ultra-Bold';fill:#306230;stroke:#fdfdfd;stroke-width:0.364299"
     transform="skewX(-10.780228)"
     aria-label="TBS" />
</svg>
