<?xml version="1.0" encoding="UTF-8" standalone="no"?>
<!-- Created with Inkscape (http://www.inkscape.org/) -->

<svg
   version="1.1"
   id="svg1"
   width="598.4256"
   height="160.06126"
   viewBox="0 0 598.4256 160.06126"
   sodipodi:docname="logo.png"
   xmlns:inkscape="http://www.inkscape.org/namespaces/inkscape"
   xmlns:sodipodi="http://sodipodi.sourceforge.net/DTD/sodipodi-0.dtd"
   xmlns="http://www.w3.org/2000/svg"
   xmlns:svg="http://www.w3.org/2000/svg">
  <defs
     id="defs1" />
  <sodipodi:namedview
     id="namedview1"
     pagecolor="#306230"
     bordercolor="#000000"
     borderopacity="0.25"
     inkscape:showpageshadow="2"
     inkscape:pageopacity="0.0"
     inkscape:pagecheckerboard="0"
     inkscape:deskcolor="#d1d1d1" />
  <g
     inkscape:groupmode="layer"
     inkscape:label="Image"
     id="g1"
     transform="translate(-1.0508882,-79.544159)">
    <path
       style="fill:#306230"
       d="M 75.919393,239.0532 C 59.453106,236.03739 41.971746,228.34518 30.25399,218.95935 17.536749,208.77294 6.2699504,191.25666 2.5806376,175.93611 c -2.03966588,-8.47009 -2.03966588,-24.40213 0,-32.87222 C 4.8845279,133.49656 12.148404,119.38281 18.891207,111.37236 28.431064,100.03901 42.254555,90.55067 57.247245,85.04508 70.173221,80.29842 74.918166,79.558064 92.5,79.544542 c 15.4207,-0.01186 17.90039,0.237302 26.69202,2.682038 26.08292,7.25302 46.49488,23.36717 57.2862,45.22438 5.62369,11.39048 7.49222,19.38336 7.49222,32.04904 0,12.66568 -1.86853,20.65856 -7.49222,32.04904 -8.19157,16.59157 -19.86114,28.19802 -37.62825,37.42469 -14.55962,7.561 -25.05979,10.11832 -43.34997,10.5579 -8.25,0.19828 -17.061273,-0.017 -19.580607,-0.47843 z m 16.670833,-22.38378 6.26862,-6.33057 6.059874,6.05987 6.05986,6.05986 6.01193,-5.94919 6.01193,-5.9492 6.49878,6.44102 L 136,223.44222 142.5,217 c 3.575,-3.54322 6.5,-6.91172 6.5,-7.48554 0,-0.57382 -5.84673,-6.87707 -12.99273,-14.00721 l -12.99273,-12.96388 -6.2864,6.23051 -6.28639,6.23052 L 104.5,189 98.558251,182.9956 92.5,189 l -6.058251,6.0044 -5.939571,-6.0022 C 77.235414,185.70099 74.22178,183 73.805213,183 c -0.416567,0 -3.389357,2.68144 -6.606201,5.95875 l -5.848806,5.95875 -5.390943,-5.45875 C 52.994245,186.45644 50.090879,184 49.507341,184 c -0.583539,0 -4.063257,3.0375 -7.732706,6.75 l -6.671726,6.75 11.949879,12.25 c 6.572434,6.7375 12.190984,12.25 12.485666,12.25 0.294683,0 3.139159,-2.74428 6.32106,-6.0984 l 5.785273,-6.09841 6.336114,6.59841 c 3.484863,3.62912 6.787147,6.5984 7.338409,6.5984 0.551262,0 3.823174,-2.84876 7.270916,-6.33058 z m -24.868351,-42.88932 6.275686,-6.21991 6.00122,5.9386 6.001219,5.9386 6.001219,-5.9386 6.00122,-5.9386 6.468091,6.4106 6.46809,6.41059 6.19069,-6.19069 C 120.53419,170.78581 123.57245,168 123.881,168 c 0.30855,0 3.10946,2.52186 6.22423,5.60413 6.63801,6.56875 7.65074,6.55401 13.87816,-0.20194 4.55554,-4.94217 4.66525,-4.93562 10.01661,0.59781 5.70387,5.89793 5.52638,5.90607 12.0529,-0.55235 C 169.32381,170.21088 172,166.88028 172,166.04632 172,164.08371 149.00011,141 147.04463,141 c -0.81765,0 -3.99065,2.47789 -7.05112,5.50642 l -5.56449,5.50643 -4.42272,-4.50643 C 127.57381,145.02789 124.87286,143 124.0042,143 c -0.86866,0 -3.79793,2.25241 -6.50948,5.00536 l -4.93009,5.00536 -6.05922,-6.00536 C 103.17284,143.70241 100.02135,141 99.502092,141 c -0.519253,0 -3.544646,2.57341 -6.723095,5.7187 L 87,152.43739 81.221003,146.7187 C 78.042554,143.57341 74.990967,141 74.439699,141 c -0.551268,0 -3.675517,2.7014 -6.942774,6.00311 l -5.940469,6.00311 -6.775966,-6.72405 -6.775965,-6.72404 -6.01466,5.9519 -6.01466,5.9519 -5.551061,-5.73097 C 27.37106,142.57893 24.351246,140 23.713446,140 22.182485,140 10,152.10292 10,153.62388 c 0,0.64992 4.3875,5.16292 9.75,10.02889 5.3625,4.86598 9.982158,9.07223 10.265907,9.34723 0.28375,0.275 1.978552,1.82869 3.766228,3.45264 l 3.25032,2.95264 5.763935,-5.70379 5.763935,-5.7038 5.938534,6.00116 C 57.765053,177.29948 60.664372,180 60.941791,180 c 0.277419,0 3.328457,-2.79896 6.780084,-6.2199 z m 37.034935,-43.54329 6.22177,6.22177 6.01193,-5.94919 6.01193,-5.9492 6.49878,6.44102 L 136,137.44222 142.5,131 c 3.575,-3.54322 6.5,-6.91172 6.5,-7.48554 0,-0.57382 -5.84618,-6.87652 -12.99151,-14.00599 l -12.99151,-12.96267 -5.78749,5.7271 c -3.18311,3.14991 -6.06407,5.7271 -6.40211,5.7271 -0.33805,0 -3.12266,-2.5875 -6.18804,-5.75 l -5.57341,-5.75 -6.312091,6.2522 -6.31209,6.2522 -5.939571,-6.0022 c -3.266764,-3.30121 -6.403658,-5.99603 -6.970875,-5.98848 -0.567216,0.007 -3.593609,2.62474 -6.725315,5.81599 l -5.694012,5.80227 -5.932397,-5.9324 -5.932396,-5.9324 -7.244815,7.23046 -7.244814,7.23045 12.350301,12.38002 12.350301,12.38003 6.28078,-6.22495 6.280781,-6.22495 6.722994,6.72299 6.722994,6.72299 6.534667,-6.48459 6.534666,-6.48459 z m 109.88764,77.77299 c -10.22581,-3.99434 -15.5654,-9.76947 -18.12752,-19.60613 C 194.6983,181.42148 194.52426,170.87574 196.2,169.2 c 0.67104,-0.67104 3.88889,-1.2 7.3,-1.2 3.41111,0 6.62896,0.52896 7.3,1.2 0.72065,0.72065 1.20149,4.21593 1.20374,8.75 0.006,11.97148 3.93534,16.69466 13.1522,15.80904 5.18586,-0.4983 8.35059,-2.60267 10.16482,-6.75904 0.68654,-1.57286 1.29298,-16.03622 1.63524,-39 l 0.544,-36.5 h 7.5 7.5 v 38.5 38.5 l -3.00351,5.9518 c -6.44445,12.77041 -21.68758,18.70023 -34.85204,13.558 z m 278.67973,0.55071 c -5.72367,-1.78969 -10.46946,-4.87204 -14.68423,-9.53729 -7.98849,-8.84229 -10.8106,-19.03849 -10.579,-38.22154 0.17502,-14.49659 1.64686,-22.37515 5.87589,-31.45293 14.12252,-30.31453 53.99706,-23.38118 56.78503,9.87374 0.70045,8.35498 -0.38763,9.77751 -7.47874,9.77751 -6.55732,0 -8.24209,-1.28373 -8.24871,-6.28518 -0.008,-6.09299 -1.72913,-11.39133 -4.80614,-14.79576 -2.28423,-2.52728 -3.46199,-2.98947 -7.836,-3.07504 -7.52045,-0.14713 -11.60403,3.33568 -14.83908,12.65598 -2.29136,6.60147 -3.22935,29.56654 -1.59172,38.97048 2.13917,12.28407 7.21742,18.52204 15.07852,18.52204 8.10216,0 12.73313,-6.17784 13.69635,-18.27135 0.31634,-3.97164 1.01917,-7.78367 1.56185,-8.47117 1.42436,-1.80446 13.15515,-1.6618 14.68251,0.17856 1.58788,1.91328 -0.12441,14.31465 -3.05966,22.1598 -2.87647,7.68808 -9.57932,14.40675 -17.22767,17.26837 -6.45946,2.41679 -11.23099,2.61057 -17.3292,0.70378 z m 65.76594,-0.19986 C 548.18831,204.54398 541.5376,196.75485 537.86299,183.5 c -1.86989,-6.74493 -2.21499,-10.51013 -2.19971,-24 0.0259,-22.9027 3.38798,-33.97397 12.84486,-42.29825 16.35554,-14.39672 41.55753,-6.55652 47.93289,14.91164 4.93946,16.63296 3.66091,48.14337 -2.45773,60.5721 -6.71014,13.63023 -21.61226,20.32475 -34.89318,15.67516 z m 15.72308,-15.85693 c 4.19288,-3.52806 6.11624,-9.15204 7.43131,-21.72937 0.85037,-8.13303 0.85589,-13.80382 0.0216,-22.15187 C 580.45016,130.45303 577.13387,125 567.89994,125 c -3.96974,0 -5.4558,0.54916 -8.34085,3.08227 -4.22793,3.71216 -5.31466,7.17243 -6.56753,20.91166 -1.26404,13.86173 0.237,31.78103 3.16965,37.83908 3.86124,7.97626 12.71354,10.6676 18.65199,5.67071 z m -319.66697,15.60782 c -1.10142,-0.69794 -0.39277,-4.93563 3.80185,-22.73469 12.49712,-53.0292 17.42538,-72.96065 18.32864,-74.12685 0.69501,-0.89732 5.03165,-1.25 15.37048,-1.25 h 14.4023 l 1.04671,2.75 c 1.13254,2.97552 6.28723,23.9889 16.47874,67.17643 5.0375,21.34693 6.18985,27.60559 5.1986,28.23468 -2.13273,1.35354 -13.49176,0.97894 -14.95212,-0.4931 -0.72679,-0.73259 -3.0521,-9.39509 -5.16735,-19.25 -2.11526,-9.85491 -4.01882,-18.49402 -4.23014,-19.19804 -0.29188,-0.97241 -3.44439,-1.21273 -13.11802,-1 L 279.57211,168.5 278.79996,172 c -0.42468,1.925 -2.32482,10.65577 -4.22253,19.40172 -1.8977,8.74595 -4.04146,16.27656 -4.7639,16.73469 -1.72581,1.09441 -12.93092,1.07541 -14.6673,-0.0249 z M 301,149.45552 c 0,-0.84947 -0.65884,-4.33697 -1.46408,-7.75 C 298.73067,138.29248 297.11558,131 295.94683,125.5 c -1.16876,-5.5 -2.32467,-10.63775 -2.5687,-11.41722 -0.81627,-2.60727 -2.19724,0.29333 -3.76938,7.91722 -0.85063,4.125 -2.61854,12.3375 -3.9287,18.25 L 283.29794,151 h 8.85103 C 299.46319,151 301,150.73183 301,149.45552 Z m 37.11257,58.18012 c -0.81621,-0.98348 -1.05977,-14.5931 -0.87245,-48.75 L 337.5,111.5 h 7.5 7.5 l 0.26109,41.25 0.2611,41.25 h 21.45372 C 398.65418,194 398,193.78134 398,201.86283 398,209.07479 398.32433,209 367.05102,209 c -22.26804,0 -28.03165,-0.27174 -28.93845,-1.36436 z M 405.75,207.9199 c -1.62749,-0.94792 -1.74893,-4.28864 -1.73469,-47.71959 0.008,-25.68517 0.37704,-47.27019 0.81916,-47.96671 0.62356,-0.98238 6.95584,-1.20666 28.23468,-1 L 460.5,111.5 l 0.29616,6.19011 c 0.25938,5.42132 0.0368,6.32894 -1.79253,7.30795 -1.35573,0.72556 -8.30257,1.05109 -19.79616,0.92766 L 421.5,125.73555 421.21922,137.86777 420.93844,150 h 17.33078 c 12.14616,0 17.68977,0.35899 18.53078,1.2 1.55702,1.55702 1.55702,11.04298 0,12.6 -0.84085,0.84085 -6.37778,1.2 -18.5,1.2 H 421 v 14.5 14.5 h 20.3 c 14.45556,0 20.64548,0.34548 21.5,1.2 0.66,0.66 1.2,3.56917 1.2,6.46482 0,4.18171 -0.39792,5.47778 -1.93426,6.3 -2.58484,1.38336 -53.93385,1.34241 -56.31574,-0.0449 z"
       id="path1" />
  </g>
</svg>
