<?xml version="1.0" encoding="UTF-8" standalone="no"?>
<svg
   enable-background="new 0 0 285.778 113.697"
   viewBox="0 0 285.778 113.697"
   version="1.1"
   id="svg22"
   sodipodi:docname="bk.svg"
   inkscape:version="1.3.2 (091e20ef0f, 2023-11-25)"
   xmlns:inkscape="http://www.inkscape.org/namespaces/inkscape"
   xmlns:sodipodi="http://sodipodi.sourceforge.net/DTD/sodipodi-0.dtd"
   xmlns="http://www.w3.org/2000/svg"
   xmlns:svg="http://www.w3.org/2000/svg">
  <defs
     id="defs22" />
  <sodipodi:namedview
     id="namedview22"
     pagecolor="#505050"
     bordercolor="#eeeeee"
     borderopacity="1"
     inkscape:showpageshadow="0"
     inkscape:pageopacity="0"
     inkscape:pagecheckerboard="0"
     inkscape:deskcolor="#505050"
     showgrid="false"
     inkscape:zoom="2.4057134"
     inkscape:cx="198.9015"
     inkscape:cy="69.833755"
     inkscape:window-width="2560"
     inkscape:window-height="1409"
     inkscape:window-x="1920"
     inkscape:window-y="0"
     inkscape:window-maximized="1"
     inkscape:current-layer="svg22" />
  <text
     fill="#a11d21"
     font-family="ArialMT"
     font-size="1"
     id="text1"
     transform="translate(268.3336 82.8335)">I hate bugs!</text>
  <path
     d="m285.778 57.156h-285.778"
     fill="none"
     stroke="#306230"
     stroke-miterlimit="10"
     stroke-width="2.7656"
     id="path2" />
  <g
     fill="#306230"
     id="g22"
     style="fill:#306230">
    <path
       d="m18.178 29.177h9.292c-.326-3.848-2.722-6.896-6.837-6.896-1.597 0-2.989.443-4.262 1.006l-.621-1.984c1.421-.621 3.136-1.154 5.031-1.154 6.275 0 9.471 4.528 9.471 10.33 0 6.541-4.321 10.27-9.618 10.27-1.982 0-3.788-.385-5.209-1.037l.562-2.042c1.156.533 2.812.918 4.292.918 4.409 0 7.044-3.196 7.222-7.341h-9.323z"
       id="path3"
       style="fill:#306230" />
    <path
       d="m51.642 21.332v19.091h-3.432v-16.368h-6.547v4.969c0 5.364-.513 8.954-2.998 10.571-.947.749-2.011 1.183-3.786 1.183l-.355-2.721c.67-.119 1.419-.394 1.892-.79 1.775-1.3 1.973-3.983 1.973-8.243v-7.692z"
       id="path4"
       style="fill:#306230" />
    <path
       d="m63.398 31.509c.077 4.694 3.075 6.626 6.547 6.626 2.485 0 3.985-.434 5.285-.985l.592 2.485c-1.223.553-3.313 1.183-6.35 1.183-5.877 0-9.388-3.866-9.388-9.624s3.392-10.295 8.954-10.295c6.232 0 7.888 5.483 7.888 8.994 0 .709-.077 1.262-.117 1.617h-13.411zm10.175-2.485c.04-2.209-.906-5.639-4.811-5.639-3.511 0-5.049 3.234-5.326 5.639z"
       id="path5"
       style="fill:#306230" />
    <path
       d="m88.798 21.332v8.284h.828l7.179-8.284h4.22l-8.322 8.639c3.075.315 4.93 2.366 6.428 5.798.513 1.262 1.185 3.117 2.053 4.654h-3.63c-.513-.828-1.183-2.326-1.775-3.905-1.3-3.075-3.075-4.496-6.311-4.496h-.67v8.401h-3.432v-19.091z"
       id="path6"
       style="fill:#306230" />
    <path
       d="m121.969 21.332v2.762h-5.956v16.329h-3.432v-16.329h-5.956v-2.762z"
       id="path7"
       style="fill:#306230" />
    <path
       d="m129.147 27.566c0-2.447-.079-4.418-.157-6.233h3.115l.158 3.275h.079c1.419-2.328 3.668-3.709 6.783-3.709 4.615 0 8.086 3.905 8.086 9.703 0 6.864-4.181 10.256-8.677 10.256-2.524 0-4.734-1.104-5.877-2.998h-.079v10.373h-3.432v-20.667zm3.432 5.086c0 .513.079.987.158 1.421.63 2.405 2.721 4.062 5.205 4.062 3.669 0 5.798-2.996 5.798-7.375 0-3.826-2.011-7.099-5.679-7.099-2.366 0-4.575 1.696-5.247 4.3-.117.434-.236.945-.236 1.419v3.272z"
       id="path8"
       style="fill:#306230" />
    <path
       d="m173.008 30.72c0 7.06-4.89 10.137-9.505 10.137-5.167 0-9.152-3.786-9.152-9.822 0-6.39 4.183-10.137 9.467-10.137 5.483 0 9.19 3.985 9.19 9.822zm-15.146.198c0 4.181 2.405 7.335 5.798 7.335 3.313 0 5.799-3.115 5.799-7.415 0-3.236-1.619-7.337-5.72-7.337-4.102.001-5.877 3.787-5.877 7.417z"
       id="path9"
       style="fill:#306230" />
    <path
       d="m184.879 21.332v7.692h9.073v-7.692h3.43v19.091h-3.43v-8.637h-9.073v8.637h-3.432v-19.091z"
       id="path10"
       style="fill:#306230" />
    <path
       d="m210.399 21.332v8.047c0 3.037-.04 4.932-.198 7.652l.119.04c1.143-2.328 1.813-3.668 3.075-5.877l5.956-9.861h4.064v19.091h-3.315v-8.086c0-3.115.079-4.734.238-7.809h-.119c-1.223 2.445-2.051 3.983-3.155 5.916-1.815 2.958-3.905 6.626-5.956 9.978h-3.985v-19.091z"
       id="path11"
       style="fill:#306230" />
    <path
       d="m236.629 21.332v8.284h.828l7.179-8.284h4.22l-8.322 8.639c3.075.315 4.93 2.366 6.428 5.798.513 1.262 1.185 3.117 2.053 4.654h-3.63c-.513-.828-1.183-2.326-1.775-3.905-1.302-3.075-3.075-4.496-6.311-4.496h-.67v8.401h-3.432v-19.091z"
       id="path12"
       style="fill:#306230" />
    <path
       d="m267.196 40.423-.275-2.405h-.119c-1.066 1.498-3.117 2.839-5.837 2.839-3.866 0-5.837-2.722-5.837-5.483 0-4.615 4.102-7.139 11.476-7.099v-.394c0-1.577-.434-4.418-4.337-4.418-1.775 0-3.63.553-4.969 1.421l-.79-2.288c1.579-1.024 3.866-1.696 6.273-1.696 5.837 0 7.256 3.985 7.256 7.811v7.139c0 1.656.079 3.273.317 4.575h-3.158zm-.513-9.743c-3.786-.079-8.086.592-8.086 4.3 0 2.249 1.5 3.313 3.275 3.313 2.485 0 4.062-1.577 4.615-3.194.117-.357.196-.751.196-1.106z"
       id="path13"
       style="fill:#306230" />
    <path
       d="m37.103 67.609v2.764h-11.019v6.855c.796-.113 2.31-.189 3.144-.189 2.423 0 4.809.529 6.588 1.703 1.932 1.25 3.257 3.257 3.257 6.248 0 2.386-.796 4.204-2.121 5.529-2.083 2.045-5.528 2.839-9.012 2.839-2.31 0-4.053-.151-5.151-.302v-25.447zm-11.019 22.985c.758.151 1.628.189 2.764.189 2.045 0 4.129-.643 5.378-1.97.871-.907 1.401-2.157 1.401-3.749 0-1.968-.834-3.293-2.083-4.165-1.325-.909-3.028-1.287-4.847-1.287-.756 0-1.779.076-2.613.151z"
       id="path14"
       style="fill:#306230" />
    <path
       d="m51.466 67.609v11.322h1.023l8.747-11.322h3.976l-9.656 11.702c4.204.567 5.832 3.142 7.157 6.588.947 2.613 1.667 4.96 2.803 7.233h-3.56c-.909-1.741-1.629-4.013-2.31-6.021-1.174-3.371-2.802-5.681-7.119-5.681h-1.061v11.702h-3.257v-25.523z"
       id="path15"
       style="fill:#306230" />
    <path
       d="m127.415 80.56c0 8.369-3.106 12.987-8.558 12.987-4.809 0-8.066-4.505-8.142-12.647 0-8.255 3.56-12.8 8.558-12.8 5.188.001 8.142 4.621 8.142 12.46zm-13.367.378c0 6.399 1.968 10.034 4.998 10.034 3.408 0 5.036-3.976 5.036-10.261 0-6.059-1.552-10.036-4.998-10.036-2.915 0-5.036 3.56-5.036 10.263z"
       id="path16"
       style="fill:#306230" />
    <path
       d="m151.697 80.56c0 8.369-3.106 12.987-8.558 12.987-4.809 0-8.066-4.505-8.142-12.647 0-8.255 3.56-12.8 8.558-12.8 5.187.001 8.142 4.621 8.142 12.46zm-13.367.378c0 6.399 1.968 10.034 4.998 10.034 3.408 0 5.036-3.976 5.036-10.261 0-6.059-1.552-10.036-4.998-10.036-2.915 0-5.036 3.56-5.036 10.263z"
       id="path17"
       style="fill:#306230" />
    <path
       d="m166.854 71.622h-.076l-4.278 2.31-.645-2.537 5.378-2.877h2.839v24.613h-3.219v-21.509z"
       id="path18"
       style="fill:#306230" />
    <path
       d="m200.262 80.56c0 8.369-3.106 12.987-8.558 12.987-4.809 0-8.066-4.505-8.142-12.647 0-8.255 3.56-12.8 8.558-12.8 5.188.001 8.142 4.621 8.142 12.46zm-13.367.378c0 6.399 1.97 10.034 4.998 10.034 3.408 0 5.036-3.976 5.036-10.261 0-6.059-1.552-10.036-4.998-10.036-2.915 0-5.036 3.56-5.036 10.263z"
       id="path19"
       style="fill:#306230" />
    <path
       d="m216.971 81.658v2.461h-9.354v-2.461z"
       id="path20"
       style="fill:#306230" />
    <path
       d="m241.024 80.56c0 8.369-3.106 12.987-8.558 12.987-4.809 0-8.066-4.505-8.142-12.647 0-8.255 3.56-12.8 8.558-12.8 5.188.001 8.142 4.621 8.142 12.46zm-13.367.378c0 6.399 1.968 10.034 4.998 10.034 3.408 0 5.036-3.976 5.036-10.261 0-6.059-1.552-10.036-4.998-10.036-2.915 0-5.036 3.56-5.036 10.263z"
       id="path21"
       style="fill:#306230" />
    <path
       d="m256.179 71.622h-.076l-4.278 2.31-.645-2.537 5.378-2.877h2.839v24.613h-3.219v-21.509z"
       id="path22"
       style="fill:#306230" />
  </g>
</svg>
