<?xml version="1.0" encoding="UTF-8" standalone="no"?>
<!-- Created with Inkscape (http://www.inkscape.org/) -->

<svg
   width="12.286951mm"
   height="9.6725683mm"
   viewBox="0 0 12.286951 9.6725683"
   version="1.1"
   id="svg1"
   inkscape:version="1.3.2 (091e20ef0f, 2023-11-25)"
   sodipodi:docname="gw.svg"
   xmlns:inkscape="http://www.inkscape.org/namespaces/inkscape"
   xmlns:sodipodi="http://sodipodi.sourceforge.net/DTD/sodipodi-0.dtd"
   xmlns="http://www.w3.org/2000/svg"
   xmlns:svg="http://www.w3.org/2000/svg">
  <sodipodi:namedview
     id="namedview1"
     pagecolor="#505050"
     bordercolor="#eeeeee"
     borderopacity="1"
     inkscape:showpageshadow="0"
     inkscape:pageopacity="0"
     inkscape:pagecheckerboard="0"
     inkscape:deskcolor="#505050"
     inkscape:document-units="mm"
     inkscape:zoom="29.431746"
     inkscape:cx="-1.444019"
     inkscape:cy="11.891921"
     inkscape:window-width="2560"
     inkscape:window-height="1409"
     inkscape:window-x="1920"
     inkscape:window-y="0"
     inkscape:window-maximized="1"
     inkscape:current-layer="g824" />
  <defs
     id="defs1" />
  <g
     inkscape:label="Calque 1"
     inkscape:groupmode="layer"
     id="layer1"
     transform="translate(-141.17137,-102.67088)">
    <g
       id="g824"
       transform="matrix(0.27952977,0,0,0.27952977,140.22902,101.86444)">
      <path
         id="path2"
         d="m 11.287,5.902 a 3.515,3.515 0 1 0 0.314,3.513 H 8.498 V 7.816 h 4.956 a 5.039,5.039 0 0 1 -0.219,1.599 5.046,5.046 0 0 1 -4.82,3.558 5.044,5.044 0 1 1 4.619,-7.071 z m 7.521,-2.918 -6.373,9.597 h 1.973 l 1.361,-2.05 h 3.039 v 2.054 h 1.644 V 2.984 Z M 16.86,8.887 18.807,5.955 V 8.887 Z M 33.323,2.984 28.928,9.6 V 2.984 h -1.644 l -6.373,9.597 h 1.975 l 4.398,-6.625 v 6.629 h 1.644 v -0.011 l 4.395,-6.618 v 6.63 h 1.643 V 2.983 Z m 7.965,1.644 V 2.984 h -4.993 v 9.604 l 1.643,-0.006 h 3.349 V 10.938 H 37.938 V 8.699 h 3.349 V 7.055 H 37.938 V 4.627 Z m -16.049,15.857 1.318,-2.969 h -1.612 l -0.849,1.913 -1.264,-1.167 c 0.579,-0.465 1.087,-1.053 1.087,-2.034 0,-0.526 -0.208,-1.024 -0.583,-1.401 a 2.359,2.359 0 0 0 -1.659,-0.674 c -1.085,0 -2.208,0.776 -2.208,2.074 0,0.905 0.498,1.489 0.993,1.922 -0.916,0.649 -1.714,1.34 -1.714,2.764 0,0.808 0.293,1.544 0.824,2.074 0.535,0.536 1.282,0.831 2.106,0.831 1.558,0 2.331,-0.754 2.923,-1.92 l 1.911,1.767 1.001,-1.082 z m -4.142,-4.632 a 0.845,0.845 0 0 1 0.58,-0.225 0.9,0.9 0 0 1 0.617,0.242 c 0.103,0.103 0.154,0.22 0.154,0.359 0,0.414 -0.198,0.639 -0.741,1.04 -0.474,-0.38 -0.764,-0.644 -0.764,-1.04 a 0.506,0.506 0 0 1 0.154,-0.376 m 2.338,5.066 c -0.509,1.133 -0.87,1.427 -1.759,1.427 -0.437,0 -0.803,-0.138 -1.064,-0.397 -0.256,-0.257 -0.391,-0.614 -0.391,-1.034 0,-0.775 0.398,-1.082 1.378,-1.761 a 0.085,0.085 0 0 0 0.014,-0.011 l 1.85,1.709 z m -4.871,4.083 -6.372,9.597 h 1.973 l 1.361,-2.049 h 3.038 v 2.054 h 1.644 v -9.602 z m -1.948,5.905 1.947,-2.931 v 2.931 z M 5.117,34.604 9.51,27.986 v 6.618 h 1.644 l 6.373,-9.597 h -1.974 l -4.4,6.625 V 25.003 H 9.51 v 0.013 L 5.117,31.632 V 25.003 H 3.473 v 9.602 z m 35.226,-9.602 v 3.866 h -2.968 v -3.866 h -1.643 v 9.6 h 1.643 v -4.09 h 2.968 v 4.09 h 1.644 v -9.6 z m -14.127,0 h -5.365 v 1.643 h 1.861 v 7.957 h 1.644 v -7.957 h 1.86 z"
         inkscape:connector-curvature="0"
         style="fill:#306230" />
      <path
         id="path4"
         d="m 33.409,32.015 a 3.448,3.448 0 1 1 -2.562,-5.753 c 1.002,0 1.904,0.45 2.533,1.142 h 1.926 c -0.842,-1.601 -2.523,-2.732 -4.459,-2.732 a 5.038,5.038 0 0 0 0,10.076 5.04,5.04 0 0 0 4.478,-2.733 z m 12.603,4.264 v 0.214 h -0.364 v 0.995 h -0.251 v -0.995 h -0.363 v -0.214 z m 0.953,0 h 0.362 v 1.209 H 47.093 V 36.67 l 10e-4,-0.099 10e-4,-0.098 -0.229,1.015 h -0.247 l -0.228,-1.015 0.001,0.098 v 0.917 h -0.234 v -1.209 h 0.367 l 0.221,0.951 z"
         inkscape:connector-curvature="0"
         style="fill:#306230" />
    </g>
  </g>
</svg>
