<?xml version="1.0" encoding="UTF-8" standalone="no"?>
<svg
   viewBox="0 0 308.63869 126.66921"
   version="1.1"
   id="svg859"
   sodipodi:docname="palm.svg"
   width="308.6387"
   height="126.66921"
   inkscape:version="1.3.2 (091e20ef0f, 2023-11-25)"
   xmlns:inkscape="http://www.inkscape.org/namespaces/inkscape"
   xmlns:sodipodi="http://sodipodi.sourceforge.net/DTD/sodipodi-0.dtd"
   xmlns:xlink="http://www.w3.org/1999/xlink"
   xmlns="http://www.w3.org/2000/svg"
   xmlns:svg="http://www.w3.org/2000/svg">
  <sodipodi:namedview
     id="namedview859"
     pagecolor="#505050"
     bordercolor="#eeeeee"
     borderopacity="1"
     inkscape:showpageshadow="0"
     inkscape:pageopacity="0"
     inkscape:pagecheckerboard="0"
     inkscape:deskcolor="#505050"
     showgrid="false"
     inkscape:zoom="1.3452878"
     inkscape:cx="273.17575"
     inkscape:cy="241.584"
     inkscape:window-width="2560"
     inkscape:window-height="1409"
     inkscape:window-x="1920"
     inkscape:window-y="0"
     inkscape:window-maximized="1"
     inkscape:current-layer="g858" />
  <text
     fill="#c23435"
     font-family="ArialMT"
     font-size="1.482px"
     id="text1"
     style="fill:#306230"
     x="210.61534"
     y="63.695999">I don’t like bugs!</text>
  <path
     id="path1"
     d="M 63.281264,0.07350259 C 33.789298,0.07350259 9.0160543,20.239233 1.9980613,47.544203 A 63.525,63.525 0 0 0 1.4286455e-5,63.393813 c 0,17.47199 7.075308013545,33.2923 18.529296713545,44.738277 11.454989,11.45499 27.270975,18.54611 44.751953,18.53711 0.728999,0 1.450876,-0.0101 2.171875,-0.0352 H 245.37111 c 34.95097,0 63.26758,-28.322957 63.26758,-63.294917 0,-34.94497 -28.31661,-63.26563041 -63.26758,-63.26563041 z M 82.97267,3.2414726 h 162.13086 c 33.17497,0 60.09961,26.9196404 60.09961,60.0996104 -0.001,33.21197 -26.92464,60.101557 -60.09961,60.101557 H 83.292983 a 63.31,63.31 0 0 0 24.726567,-15.30859 c 11.45498,-11.446987 18.53711,-27.268297 18.53711,-44.738277 0,-17.48099 -7.08213,-33.29697 -18.53711,-44.75196 A 63.335,63.335 0 0 0 82.97267,3.2414726 Z M 63.281264,12.856703 c 27.895975,0 50.513676,22.61966 50.513676,50.51563 0,27.89597 -22.617701,50.513667 -50.513676,50.513667 -27.904968,0 -50.517578,-22.617697 -50.517578,-50.513667 0,-27.89597 22.61261,-50.51563 50.517578,-50.51563 z"
     style="fill:#306230" />
  <path
     fill="#070308"
     d="m 294.19735,114.169 h -4.241 v 0.686 h 1.692 v 4.701 h 0.838 v -4.701 h 1.709 v -0.686 z m 1.709,0.846 h 0.05 l 1.744,4.541 h 0.561 l 1.81,-4.541 h 0.017 v 4.541 h 0.846 v -5.389 h -1.357 l -1.593,4.081 -1.584,-4.081 h -1.323 v 5.389 h 0.829 v -4.541 m -129.984,-71.637 c -3.889,0 -7.561,1.639 -7.561,7.738 v 25.605 c 0,6.101 3.674,7.735 7.561,7.735 3.93,0 7.601,-1.634 7.601,-7.735 V 51.116 c -0.001,-6.099 -3.671,-7.738 -7.601,-7.738 z m 3.034,33.343 c 0,2.95 -1.174,4.055 -3.034,4.055 -1.811,0 -3.003,-1.107 -3.003,-4.055 V 51.116 c 0,-2.95 1.193,-4.04 3.003,-4.04 1.86,0 3.034,1.09 3.034,4.04 z"
     id="path2"
     style="fill:#306230" />
  <g
     fill="#070308"
     id="g3"
     style="fill:#306230"
     transform="translate(1.0653473,-0.002)">
    <path
       d="m 146.116,43.38 z m 0,0 c -2.593,0 -4.145,1.119 -4.894,2.953 h -0.142 v -2.506 h -4.265 V 91.98 h 4.555 V 81.482 h 0.154 c 0.964,1.86 2.892,2.974 5.224,2.974 3.183,0 5.255,-2.674 5.255,-6.276 V 51.19 c 0,-6.025 -2.962,-7.81 -5.887,-7.81 z m 1.294,32.303 c 0,2.933 -0.875,4.659 -2.703,4.659 -1.999,0 -3.34,-1.936 -3.34,-4.441 V 51.487 c 0,-3.252 1.563,-4.407 3.415,-4.407 1.823,0 2.627,1.459 2.627,4.256 v 24.347 z"
       id="path3"
       style="fill:#306230" />
  </g>
  <path
     fill="#070308"
     d="m 197.31235,77.809 h -0.16 l -2.965,-33.983 h -6.194 l -2.916,33.983 h -0.151 l -3.384,-33.983 h -4.072 l 4.29,40.185 h 6.233 l 3.051,-34.876 h 0.151 l 2.992,34.876 h 6.258 l 4.291,-40.185 h -4.064 z m 36.259,-31.179 h -0.142 v -2.802 h -4.29 v 40.185 h 4.575 V 53.848 c 0,-4.198 1.55,-5.878 5.967,-5.878 v -4.592 c -2.86,0 -4.719,1.119 -6.11,3.252 z"
     id="path4"
     style="fill:#306230" />
  <g
     fill="#070308"
     id="g5"
     style="fill:#306230"
     transform="translate(1.0653473,-0.002)">
    <path
       d="m 249.365,43.38 z m 3.008,27.645 v 5.698 c 0,2.95 -1.174,4.055 -3.008,4.055 -1.835,0 -3.026,-1.107 -3.026,-4.055 V 65.072 h 10.592 V 51.118 c 0,-6.099 -3.661,-7.738 -7.566,-7.738 -3.913,0 -7.584,1.639 -7.584,7.738 v 25.605 c 0,6.101 3.671,7.735 7.584,7.735 3.904,0 7.566,-1.634 7.566,-7.735 v -5.698 z m -6.034,-19.907 c 0,-2.95 1.189,-4.04 3.026,-4.04 1.837,0 3.008,1.09 3.008,4.04 v 9.81 h -6.034 z"
       id="path5"
       style="fill:#306230" />
  </g>
  <path
     d="m 273.90235,30.791 v 15.461 h -0.151 c -1.165,-2.049 -2.941,-2.875 -5.229,-2.875 -3.151,0 -5.238,2.651 -5.238,6.273 v 26.995 c 0,6.025 2.974,7.81 5.892,7.81 2.749,0 3.779,-1.407 4.877,-2.974 h 0.134 v 2.531 h 4.29 V 30.791 Z m 0,45.561 c 0,3.235 -1.526,4.424 -3.386,4.424 -1.852,0 -2.648,-1.491 -2.648,-4.29 v -24.33 c 0,-2.95 0.872,-4.634 2.715,-4.634 2.003,0 3.319,1.907 3.319,4.412 z"
     fill="#070308"
     id="path6"
     style="fill:#306230" />
  <g
     fill="#070308"
     id="g7"
     style="fill:#306230"
     transform="translate(1.0653473,-0.002)">
    <path
       d="m 215.219,43.38 z m 7.575,21.692 V 51.118 c 0,-6.099 -3.671,-7.738 -7.575,-7.738 -3.921,0 -7.575,1.639 -7.575,7.738 v 25.605 c 0,6.101 3.654,7.735 7.575,7.735 3.904,0 7.575,-1.634 7.575,-7.735 v -5.698 h -4.558 v 5.698 c 0,2.95 -1.181,4.055 -3.017,4.055 -1.826,0 -3.017,-1.107 -3.017,-4.055 V 65.072 Z M 212.202,51.118 c 0,-2.95 1.189,-4.04 3.017,-4.04 1.835,0 3.017,1.09 3.017,4.04 v 9.81 h -6.034 z"
       id="path7"
       style="fill:#306230" />
  </g>
  <defs
     id="defs7">
    <path
       id="a"
       d="m 63.175,34.078 h 8.133 V 83.676 H 65.526 V 39.391 c 0,-0.343 -0.378,-0.573 -0.738,-0.573 H 63.175 Z M 60.17,51.885 v 31.792 h -3.122 c -0.378,0 -0.884,0.034 -1.496,-0.712 -0.369,-0.444 -0.566,-1.316 -0.566,-1.316 -1.303,1.593 -2.607,2.145 -4.383,2.145 -4.541,0 -6.096,-2.631 -6.096,-7.944 v -7.156 c 0,-6.575 4.491,-8.795 10.24,-10.947 v -5.509 c 0,-2.765 -0.934,-3.691 -2.291,-3.691 -1.639,0 -2.703,0.532 -2.703,3.34 v 2.802 c 0,1.11 -0.424,1.692 -2.291,1.668 h -2.727 v -3.889 c 0,-5.313 2.555,-8.296 7.609,-8.296 5.346,-10e-4 7.826,2.46 7.826,7.713 z m -5.421,10.287 c -3.252,1.587 -4.814,2.686 -4.814,7.06 v 5.555 c 0,2.674 0.215,4.634 2.18,4.634 1.709,0 2.636,-1.047 2.636,-5.741 V 62.172 Z m 71.863,1.134 c 0,17.472 -7.089,33.309 -18.545,44.764 -11.456,11.455 -27.28,18.545 -44.755,18.536 C 45.831,126.615 29.998,119.525 18.545,108.07 7.092,96.615 0,80.778 0,63.306 0,45.825 7.089,30.001 18.545,18.545 30.001,7.089 45.833,0.002 63.312,0.002 c 17.476,0 33.3,7.089 44.755,18.545 11.455,11.456 18.545,27.28 18.545,44.759 z m -12.787,0.009 C 113.825,35.41 91.208,12.79 63.312,12.79 35.407,12.79 12.787,35.411 12.787,63.315 A 50.326,50.326 0 0 0 23.249,94.094 V 44.403 h 2.657 c 0.784,0 1.596,-0.041 2.137,0.994 a 4.83,4.83 0 0 1 0.39,1.047 c 1.311,-2.154 3.302,-2.288 5.087,-2.288 4.61,0 6.599,3.209 6.599,9.238 V 75.5 c 0,4.985 -2.421,8.413 -6.599,8.413 -1.529,0 -3.063,-0.209 -4.496,-1.962 v 18.452 a 50.284,50.284 0 0 0 34.289,13.424 c 27.895,0.001 50.512,-22.617 50.512,-50.512 z M 31.701,79.319 c 1.5,0.017 2.712,-0.453 2.712,-4.642 V 52.932 c 0,-4.119 -1.014,-4.616 -2.48,-4.616 -1.852,0 -2.907,1.433 -2.907,4.848 v 22.571 c -0.002,2.244 1.43,3.569 2.675,3.584 z M 96.957,44.171 a 6.041,6.041 0 0 0 -5.233,3.154 c -1.145,-2.531 -3.046,-3.154 -5.238,-3.154 -1.811,0 -3.473,0.738 -4.683,2.401 0,0 -0.076,-1.337 -0.753,-1.835 -0.474,-0.343 -0.704,-0.335 -1.399,-0.335 h -3.183 v 39.276 h 5.756 V 53.515 c 0,-3.997 1.102,-4.894 2.875,-4.894 1.316,0 2.526,0.596 2.526,3.372 v 31.684 h 5.651 V 53.515 c 0,-3.997 1.098,-4.894 2.875,-4.894 1.308,0 2.523,0.596 2.523,3.372 v 31.684 h 5.656 V 53.623 c -0.004,-6.046 -2.271,-9.452 -7.373,-9.452" />
  </defs>
  <clipPath
     id="b">
    <use
       xlink:href="#a"
       overflow="visible"
       id="use7" />
  </clipPath>
  <defs
     id="defs8">
    <path
       id="c"
       d="m 63.175,34.078 h 8.133 V 83.676 H 65.526 V 39.391 c 0,-0.343 -0.378,-0.573 -0.738,-0.573 H 63.175 Z M 60.17,51.885 v 31.792 h -3.122 c -0.378,0 -0.884,0.034 -1.496,-0.712 -0.369,-0.444 -0.566,-1.316 -0.566,-1.316 -1.303,1.593 -2.607,2.145 -4.383,2.145 -4.541,0 -6.096,-2.631 -6.096,-7.944 v -7.156 c 0,-6.575 4.491,-8.795 10.24,-10.947 v -5.509 c 0,-2.765 -0.934,-3.691 -2.291,-3.691 -1.639,0 -2.703,0.532 -2.703,3.34 v 2.802 c 0,1.11 -0.424,1.692 -2.291,1.668 h -2.727 v -3.889 c 0,-5.313 2.555,-8.296 7.609,-8.296 5.346,-10e-4 7.826,2.46 7.826,7.713 z m -5.421,10.287 c -3.252,1.587 -4.814,2.686 -4.814,7.06 v 5.555 c 0,2.674 0.215,4.634 2.18,4.634 1.709,0 2.636,-1.047 2.636,-5.741 V 62.172 Z m 71.863,1.134 c 0,17.472 -7.089,33.309 -18.545,44.764 -11.456,11.455 -27.28,18.545 -44.755,18.536 C 45.831,126.615 29.998,119.525 18.545,108.07 7.092,96.615 0,80.778 0,63.306 0,45.825 7.089,30.001 18.545,18.545 30.001,7.089 45.833,0.002 63.312,0.002 c 17.476,0 33.3,7.089 44.755,18.545 11.455,11.456 18.545,27.28 18.545,44.759 z m -12.787,0.009 C 113.825,35.41 91.208,12.79 63.312,12.79 35.407,12.79 12.787,35.411 12.787,63.315 A 50.326,50.326 0 0 0 23.249,94.094 V 44.403 h 2.657 c 0.784,0 1.596,-0.041 2.137,0.994 a 4.83,4.83 0 0 1 0.39,1.047 c 1.311,-2.154 3.302,-2.288 5.087,-2.288 4.61,0 6.599,3.209 6.599,9.238 V 75.5 c 0,4.985 -2.421,8.413 -6.599,8.413 -1.529,0 -3.063,-0.209 -4.496,-1.962 v 18.452 a 50.284,50.284 0 0 0 34.289,13.424 c 27.895,0.001 50.512,-22.617 50.512,-50.512 z M 31.701,79.319 c 1.5,0.017 2.712,-0.453 2.712,-4.642 V 52.932 c 0,-4.119 -1.014,-4.616 -2.48,-4.616 -1.852,0 -2.907,1.433 -2.907,4.848 v 22.571 c -0.002,2.244 1.43,3.569 2.675,3.584 z M 96.957,44.171 a 6.041,6.041 0 0 0 -5.233,3.154 c -1.145,-2.531 -3.046,-3.154 -5.238,-3.154 -1.811,0 -3.473,0.738 -4.683,2.401 0,0 -0.076,-1.337 -0.753,-1.835 -0.474,-0.343 -0.704,-0.335 -1.399,-0.335 h -3.183 v 39.276 h 5.756 V 53.515 c 0,-3.997 1.102,-4.894 2.875,-4.894 1.316,0 2.526,0.596 2.526,3.372 v 31.684 h 5.651 V 53.515 c 0,-3.997 1.098,-4.894 2.875,-4.894 1.308,0 2.523,0.596 2.523,3.372 v 31.684 h 5.656 V 53.623 c -0.004,-6.046 -2.271,-9.452 -7.373,-9.452" />
  </defs>
  <clipPath
     id="d">
    <use
       xlink:href="#c"
       overflow="visible"
       id="use8" />
  </clipPath>
  <defs
     id="defs9">
    <path
       id="e"
       d="m 63.175,34.078 h 8.133 V 83.676 H 65.526 V 39.391 c 0,-0.343 -0.378,-0.573 -0.738,-0.573 H 63.175 Z M 60.17,51.885 v 31.792 h -3.122 c -0.378,0 -0.884,0.034 -1.496,-0.712 -0.369,-0.444 -0.566,-1.316 -0.566,-1.316 -1.303,1.593 -2.607,2.145 -4.383,2.145 -4.541,0 -6.096,-2.631 -6.096,-7.944 v -7.156 c 0,-6.575 4.491,-8.795 10.24,-10.947 v -5.509 c 0,-2.765 -0.934,-3.691 -2.291,-3.691 -1.639,0 -2.703,0.532 -2.703,3.34 v 2.802 c 0,1.11 -0.424,1.692 -2.291,1.668 h -2.727 v -3.889 c 0,-5.313 2.555,-8.296 7.609,-8.296 5.346,-10e-4 7.826,2.46 7.826,7.713 z m -5.421,10.287 c -3.252,1.587 -4.814,2.686 -4.814,7.06 v 5.555 c 0,2.674 0.215,4.634 2.18,4.634 1.709,0 2.636,-1.047 2.636,-5.741 V 62.172 Z m 71.863,1.134 c 0,17.472 -7.089,33.309 -18.545,44.764 -11.456,11.455 -27.28,18.545 -44.755,18.536 C 45.831,126.615 29.998,119.525 18.545,108.07 7.092,96.615 0,80.778 0,63.306 0,45.825 7.089,30.001 18.545,18.545 30.001,7.089 45.833,0.002 63.312,0.002 c 17.476,0 33.3,7.089 44.755,18.545 11.455,11.456 18.545,27.28 18.545,44.759 z m -12.787,0.009 C 113.825,35.41 91.208,12.79 63.312,12.79 35.407,12.79 12.787,35.411 12.787,63.315 A 50.326,50.326 0 0 0 23.249,94.094 V 44.403 h 2.657 c 0.784,0 1.596,-0.041 2.137,0.994 a 4.83,4.83 0 0 1 0.39,1.047 c 1.311,-2.154 3.302,-2.288 5.087,-2.288 4.61,0 6.599,3.209 6.599,9.238 V 75.5 c 0,4.985 -2.421,8.413 -6.599,8.413 -1.529,0 -3.063,-0.209 -4.496,-1.962 v 18.452 a 50.284,50.284 0 0 0 34.289,13.424 c 27.895,0.001 50.512,-22.617 50.512,-50.512 z M 31.701,79.319 c 1.5,0.017 2.712,-0.453 2.712,-4.642 V 52.932 c 0,-4.119 -1.014,-4.616 -2.48,-4.616 -1.852,0 -2.907,1.433 -2.907,4.848 v 22.571 c -0.002,2.244 1.43,3.569 2.675,3.584 z M 96.957,44.171 a 6.041,6.041 0 0 0 -5.233,3.154 c -1.145,-2.531 -3.046,-3.154 -5.238,-3.154 -1.811,0 -3.473,0.738 -4.683,2.401 0,0 -0.076,-1.337 -0.753,-1.835 -0.474,-0.343 -0.704,-0.335 -1.399,-0.335 h -3.183 v 39.276 h 5.756 V 53.515 c 0,-3.997 1.102,-4.894 2.875,-4.894 1.316,0 2.526,0.596 2.526,3.372 v 31.684 h 5.651 V 53.515 c 0,-3.997 1.098,-4.894 2.875,-4.894 1.308,0 2.523,0.596 2.523,3.372 v 31.684 h 5.656 V 53.623 c -0.004,-6.046 -2.271,-9.452 -7.373,-9.452" />
  </defs>
  <clipPath
     id="f">
    <use
       xlink:href="#e"
       overflow="visible"
       id="use9" />
  </clipPath>
  <defs
     id="defs10">
    <path
       id="g"
       d="m 63.175,34.078 h 8.133 V 83.676 H 65.526 V 39.391 c 0,-0.343 -0.378,-0.573 -0.738,-0.573 H 63.175 Z M 60.17,51.885 v 31.792 h -3.122 c -0.378,0 -0.884,0.034 -1.496,-0.712 -0.369,-0.444 -0.566,-1.316 -0.566,-1.316 -1.303,1.593 -2.607,2.145 -4.383,2.145 -4.541,0 -6.096,-2.631 -6.096,-7.944 v -7.156 c 0,-6.575 4.491,-8.795 10.24,-10.947 v -5.509 c 0,-2.765 -0.934,-3.691 -2.291,-3.691 -1.639,0 -2.703,0.532 -2.703,3.34 v 2.802 c 0,1.11 -0.424,1.692 -2.291,1.668 h -2.727 v -3.889 c 0,-5.313 2.555,-8.296 7.609,-8.296 5.346,-10e-4 7.826,2.46 7.826,7.713 z m -5.421,10.287 c -3.252,1.587 -4.814,2.686 -4.814,7.06 v 5.555 c 0,2.674 0.215,4.634 2.18,4.634 1.709,0 2.636,-1.047 2.636,-5.741 V 62.172 Z m 71.863,1.134 c 0,17.472 -7.089,33.309 -18.545,44.764 -11.456,11.455 -27.28,18.545 -44.755,18.536 C 45.831,126.615 29.998,119.525 18.545,108.07 7.092,96.615 0,80.778 0,63.306 0,45.825 7.089,30.001 18.545,18.545 30.001,7.089 45.833,0.002 63.312,0.002 c 17.476,0 33.3,7.089 44.755,18.545 11.455,11.456 18.545,27.28 18.545,44.759 z m -12.787,0.009 C 113.825,35.41 91.208,12.79 63.312,12.79 35.407,12.79 12.787,35.411 12.787,63.315 A 50.326,50.326 0 0 0 23.249,94.094 V 44.403 h 2.657 c 0.784,0 1.596,-0.041 2.137,0.994 a 4.83,4.83 0 0 1 0.39,1.047 c 1.311,-2.154 3.302,-2.288 5.087,-2.288 4.61,0 6.599,3.209 6.599,9.238 V 75.5 c 0,4.985 -2.421,8.413 -6.599,8.413 -1.529,0 -3.063,-0.209 -4.496,-1.962 v 18.452 a 50.284,50.284 0 0 0 34.289,13.424 c 27.895,0.001 50.512,-22.617 50.512,-50.512 z M 31.701,79.319 c 1.5,0.017 2.712,-0.453 2.712,-4.642 V 52.932 c 0,-4.119 -1.014,-4.616 -2.48,-4.616 -1.852,0 -2.907,1.433 -2.907,4.848 v 22.571 c -0.002,2.244 1.43,3.569 2.675,3.584 z M 96.957,44.171 a 6.041,6.041 0 0 0 -5.233,3.154 c -1.145,-2.531 -3.046,-3.154 -5.238,-3.154 -1.811,0 -3.473,0.738 -4.683,2.401 0,0 -0.076,-1.337 -0.753,-1.835 -0.474,-0.343 -0.704,-0.335 -1.399,-0.335 h -3.183 v 39.276 h 5.756 V 53.515 c 0,-3.997 1.102,-4.894 2.875,-4.894 1.316,0 2.526,0.596 2.526,3.372 v 31.684 h 5.651 V 53.515 c 0,-3.997 1.098,-4.894 2.875,-4.894 1.308,0 2.523,0.596 2.523,3.372 v 31.684 h 5.656 V 53.623 c -0.004,-6.046 -2.271,-9.452 -7.373,-9.452" />
  </defs>
  <clipPath
     id="h">
    <use
       xlink:href="#g"
       overflow="visible"
       id="use10" />
  </clipPath>
  <defs
     id="defs11">
    <path
       id="i"
       d="m 63.175,34.078 h 8.133 V 83.676 H 65.526 V 39.391 c 0,-0.343 -0.378,-0.573 -0.738,-0.573 H 63.175 Z M 60.17,51.885 v 31.792 h -3.122 c -0.378,0 -0.884,0.034 -1.496,-0.712 -0.369,-0.444 -0.566,-1.316 -0.566,-1.316 -1.303,1.593 -2.607,2.145 -4.383,2.145 -4.541,0 -6.096,-2.631 -6.096,-7.944 v -7.156 c 0,-6.575 4.491,-8.795 10.24,-10.947 v -5.509 c 0,-2.765 -0.934,-3.691 -2.291,-3.691 -1.639,0 -2.703,0.532 -2.703,3.34 v 2.802 c 0,1.11 -0.424,1.692 -2.291,1.668 h -2.727 v -3.889 c 0,-5.313 2.555,-8.296 7.609,-8.296 5.346,-10e-4 7.826,2.46 7.826,7.713 z m -5.421,10.287 c -3.252,1.587 -4.814,2.686 -4.814,7.06 v 5.555 c 0,2.674 0.215,4.634 2.18,4.634 1.709,0 2.636,-1.047 2.636,-5.741 V 62.172 Z m 71.863,1.134 c 0,17.472 -7.089,33.309 -18.545,44.764 -11.456,11.455 -27.28,18.545 -44.755,18.536 C 45.831,126.615 29.998,119.525 18.545,108.07 7.092,96.615 0,80.778 0,63.306 0,45.825 7.089,30.001 18.545,18.545 30.001,7.089 45.833,0.002 63.312,0.002 c 17.476,0 33.3,7.089 44.755,18.545 11.455,11.456 18.545,27.28 18.545,44.759 z m -12.787,0.009 C 113.825,35.41 91.208,12.79 63.312,12.79 35.407,12.79 12.787,35.411 12.787,63.315 A 50.326,50.326 0 0 0 23.249,94.094 V 44.403 h 2.657 c 0.784,0 1.596,-0.041 2.137,0.994 a 4.83,4.83 0 0 1 0.39,1.047 c 1.311,-2.154 3.302,-2.288 5.087,-2.288 4.61,0 6.599,3.209 6.599,9.238 V 75.5 c 0,4.985 -2.421,8.413 -6.599,8.413 -1.529,0 -3.063,-0.209 -4.496,-1.962 v 18.452 a 50.284,50.284 0 0 0 34.289,13.424 c 27.895,0.001 50.512,-22.617 50.512,-50.512 z M 31.701,79.319 c 1.5,0.017 2.712,-0.453 2.712,-4.642 V 52.932 c 0,-4.119 -1.014,-4.616 -2.48,-4.616 -1.852,0 -2.907,1.433 -2.907,4.848 v 22.571 c -0.002,2.244 1.43,3.569 2.675,3.584 z M 96.957,44.171 a 6.041,6.041 0 0 0 -5.233,3.154 c -1.145,-2.531 -3.046,-3.154 -5.238,-3.154 -1.811,0 -3.473,0.738 -4.683,2.401 0,0 -0.076,-1.337 -0.753,-1.835 -0.474,-0.343 -0.704,-0.335 -1.399,-0.335 h -3.183 v 39.276 h 5.756 V 53.515 c 0,-3.997 1.102,-4.894 2.875,-4.894 1.316,0 2.526,0.596 2.526,3.372 v 31.684 h 5.651 V 53.515 c 0,-3.997 1.098,-4.894 2.875,-4.894 1.308,0 2.523,0.596 2.523,3.372 v 31.684 h 5.656 V 53.623 c -0.004,-6.046 -2.271,-9.452 -7.373,-9.452" />
  </defs>
  <clipPath
     id="j">
    <use
       xlink:href="#i"
       overflow="visible"
       id="use11" />
  </clipPath>
  <defs
     id="defs12">
    <path
       id="k"
       d="m 63.175,34.078 h 8.133 V 83.676 H 65.526 V 39.391 c 0,-0.343 -0.378,-0.573 -0.738,-0.573 H 63.175 Z M 60.17,51.885 v 31.792 h -3.122 c -0.378,0 -0.884,0.034 -1.496,-0.712 -0.369,-0.444 -0.566,-1.316 -0.566,-1.316 -1.303,1.593 -2.607,2.145 -4.383,2.145 -4.541,0 -6.096,-2.631 -6.096,-7.944 v -7.156 c 0,-6.575 4.491,-8.795 10.24,-10.947 v -5.509 c 0,-2.765 -0.934,-3.691 -2.291,-3.691 -1.639,0 -2.703,0.532 -2.703,3.34 v 2.802 c 0,1.11 -0.424,1.692 -2.291,1.668 h -2.727 v -3.889 c 0,-5.313 2.555,-8.296 7.609,-8.296 5.346,-10e-4 7.826,2.46 7.826,7.713 z m -5.421,10.287 c -3.252,1.587 -4.814,2.686 -4.814,7.06 v 5.555 c 0,2.674 0.215,4.634 2.18,4.634 1.709,0 2.636,-1.047 2.636,-5.741 V 62.172 Z m 71.863,1.134 c 0,17.472 -7.089,33.309 -18.545,44.764 -11.456,11.455 -27.28,18.545 -44.755,18.536 C 45.831,126.615 29.998,119.525 18.545,108.07 7.092,96.615 0,80.778 0,63.306 0,45.825 7.089,30.001 18.545,18.545 30.001,7.089 45.833,0.002 63.312,0.002 c 17.476,0 33.3,7.089 44.755,18.545 11.455,11.456 18.545,27.28 18.545,44.759 z m -12.787,0.009 C 113.825,35.41 91.208,12.79 63.312,12.79 35.407,12.79 12.787,35.411 12.787,63.315 A 50.326,50.326 0 0 0 23.249,94.094 V 44.403 h 2.657 c 0.784,0 1.596,-0.041 2.137,0.994 a 4.83,4.83 0 0 1 0.39,1.047 c 1.311,-2.154 3.302,-2.288 5.087,-2.288 4.61,0 6.599,3.209 6.599,9.238 V 75.5 c 0,4.985 -2.421,8.413 -6.599,8.413 -1.529,0 -3.063,-0.209 -4.496,-1.962 v 18.452 a 50.284,50.284 0 0 0 34.289,13.424 c 27.895,0.001 50.512,-22.617 50.512,-50.512 z M 31.701,79.319 c 1.5,0.017 2.712,-0.453 2.712,-4.642 V 52.932 c 0,-4.119 -1.014,-4.616 -2.48,-4.616 -1.852,0 -2.907,1.433 -2.907,4.848 v 22.571 c -0.002,2.244 1.43,3.569 2.675,3.584 z M 96.957,44.171 a 6.041,6.041 0 0 0 -5.233,3.154 c -1.145,-2.531 -3.046,-3.154 -5.238,-3.154 -1.811,0 -3.473,0.738 -4.683,2.401 0,0 -0.076,-1.337 -0.753,-1.835 -0.474,-0.343 -0.704,-0.335 -1.399,-0.335 h -3.183 v 39.276 h 5.756 V 53.515 c 0,-3.997 1.102,-4.894 2.875,-4.894 1.316,0 2.526,0.596 2.526,3.372 v 31.684 h 5.651 V 53.515 c 0,-3.997 1.098,-4.894 2.875,-4.894 1.308,0 2.523,0.596 2.523,3.372 v 31.684 h 5.656 V 53.623 c -0.004,-6.046 -2.271,-9.452 -7.373,-9.452" />
  </defs>
  <clipPath
     id="l">
    <use
       xlink:href="#k"
       overflow="visible"
       id="use12" />
  </clipPath>
  <defs
     id="defs13">
    <path
       id="m"
       d="m 63.175,34.078 h 8.133 V 83.676 H 65.526 V 39.391 c 0,-0.343 -0.378,-0.573 -0.738,-0.573 H 63.175 Z M 60.17,51.885 v 31.792 h -3.122 c -0.378,0 -0.884,0.034 -1.496,-0.712 -0.369,-0.444 -0.566,-1.316 -0.566,-1.316 -1.303,1.593 -2.607,2.145 -4.383,2.145 -4.541,0 -6.096,-2.631 -6.096,-7.944 v -7.156 c 0,-6.575 4.491,-8.795 10.24,-10.947 v -5.509 c 0,-2.765 -0.934,-3.691 -2.291,-3.691 -1.639,0 -2.703,0.532 -2.703,3.34 v 2.802 c 0,1.11 -0.424,1.692 -2.291,1.668 h -2.727 v -3.889 c 0,-5.313 2.555,-8.296 7.609,-8.296 5.346,-10e-4 7.826,2.46 7.826,7.713 z m -5.421,10.287 c -3.252,1.587 -4.814,2.686 -4.814,7.06 v 5.555 c 0,2.674 0.215,4.634 2.18,4.634 1.709,0 2.636,-1.047 2.636,-5.741 V 62.172 Z m 71.863,1.134 c 0,17.472 -7.089,33.309 -18.545,44.764 -11.456,11.455 -27.28,18.545 -44.755,18.536 C 45.831,126.615 29.998,119.525 18.545,108.07 7.092,96.615 0,80.778 0,63.306 0,45.825 7.089,30.001 18.545,18.545 30.001,7.089 45.833,0.002 63.312,0.002 c 17.476,0 33.3,7.089 44.755,18.545 11.455,11.456 18.545,27.28 18.545,44.759 z m -12.787,0.009 C 113.825,35.41 91.208,12.79 63.312,12.79 35.407,12.79 12.787,35.411 12.787,63.315 A 50.326,50.326 0 0 0 23.249,94.094 V 44.403 h 2.657 c 0.784,0 1.596,-0.041 2.137,0.994 a 4.83,4.83 0 0 1 0.39,1.047 c 1.311,-2.154 3.302,-2.288 5.087,-2.288 4.61,0 6.599,3.209 6.599,9.238 V 75.5 c 0,4.985 -2.421,8.413 -6.599,8.413 -1.529,0 -3.063,-0.209 -4.496,-1.962 v 18.452 a 50.284,50.284 0 0 0 34.289,13.424 c 27.895,0.001 50.512,-22.617 50.512,-50.512 z M 31.701,79.319 c 1.5,0.017 2.712,-0.453 2.712,-4.642 V 52.932 c 0,-4.119 -1.014,-4.616 -2.48,-4.616 -1.852,0 -2.907,1.433 -2.907,4.848 v 22.571 c -0.002,2.244 1.43,3.569 2.675,3.584 z M 96.957,44.171 a 6.041,6.041 0 0 0 -5.233,3.154 c -1.145,-2.531 -3.046,-3.154 -5.238,-3.154 -1.811,0 -3.473,0.738 -4.683,2.401 0,0 -0.076,-1.337 -0.753,-1.835 -0.474,-0.343 -0.704,-0.335 -1.399,-0.335 h -3.183 v 39.276 h 5.756 V 53.515 c 0,-3.997 1.102,-4.894 2.875,-4.894 1.316,0 2.526,0.596 2.526,3.372 v 31.684 h 5.651 V 53.515 c 0,-3.997 1.098,-4.894 2.875,-4.894 1.308,0 2.523,0.596 2.523,3.372 v 31.684 h 5.656 V 53.623 c -0.004,-6.046 -2.271,-9.452 -7.373,-9.452" />
  </defs>
  <clipPath
     id="n">
    <use
       xlink:href="#m"
       overflow="visible"
       id="use13" />
  </clipPath>
  <defs
     id="defs14">
    <path
       id="o"
       d="m 63.175,34.078 h 8.133 V 83.676 H 65.526 V 39.391 c 0,-0.343 -0.378,-0.573 -0.738,-0.573 H 63.175 Z M 60.17,51.885 v 31.792 h -3.122 c -0.378,0 -0.884,0.034 -1.496,-0.712 -0.369,-0.444 -0.566,-1.316 -0.566,-1.316 -1.303,1.593 -2.607,2.145 -4.383,2.145 -4.541,0 -6.096,-2.631 -6.096,-7.944 v -7.156 c 0,-6.575 4.491,-8.795 10.24,-10.947 v -5.509 c 0,-2.765 -0.934,-3.691 -2.291,-3.691 -1.639,0 -2.703,0.532 -2.703,3.34 v 2.802 c 0,1.11 -0.424,1.692 -2.291,1.668 h -2.727 v -3.889 c 0,-5.313 2.555,-8.296 7.609,-8.296 5.346,-10e-4 7.826,2.46 7.826,7.713 z m -5.421,10.287 c -3.252,1.587 -4.814,2.686 -4.814,7.06 v 5.555 c 0,2.674 0.215,4.634 2.18,4.634 1.709,0 2.636,-1.047 2.636,-5.741 V 62.172 Z m 71.863,1.134 c 0,17.472 -7.089,33.309 -18.545,44.764 -11.456,11.455 -27.28,18.545 -44.755,18.536 C 45.831,126.615 29.998,119.525 18.545,108.07 7.092,96.615 0,80.778 0,63.306 0,45.825 7.089,30.001 18.545,18.545 30.001,7.089 45.833,0.002 63.312,0.002 c 17.476,0 33.3,7.089 44.755,18.545 11.455,11.456 18.545,27.28 18.545,44.759 z m -12.787,0.009 C 113.825,35.41 91.208,12.79 63.312,12.79 35.407,12.79 12.787,35.411 12.787,63.315 A 50.326,50.326 0 0 0 23.249,94.094 V 44.403 h 2.657 c 0.784,0 1.596,-0.041 2.137,0.994 a 4.83,4.83 0 0 1 0.39,1.047 c 1.311,-2.154 3.302,-2.288 5.087,-2.288 4.61,0 6.599,3.209 6.599,9.238 V 75.5 c 0,4.985 -2.421,8.413 -6.599,8.413 -1.529,0 -3.063,-0.209 -4.496,-1.962 v 18.452 a 50.284,50.284 0 0 0 34.289,13.424 c 27.895,0.001 50.512,-22.617 50.512,-50.512 z M 31.701,79.319 c 1.5,0.017 2.712,-0.453 2.712,-4.642 V 52.932 c 0,-4.119 -1.014,-4.616 -2.48,-4.616 -1.852,0 -2.907,1.433 -2.907,4.848 v 22.571 c -0.002,2.244 1.43,3.569 2.675,3.584 z M 96.957,44.171 a 6.041,6.041 0 0 0 -5.233,3.154 c -1.145,-2.531 -3.046,-3.154 -5.238,-3.154 -1.811,0 -3.473,0.738 -4.683,2.401 0,0 -0.076,-1.337 -0.753,-1.835 -0.474,-0.343 -0.704,-0.335 -1.399,-0.335 h -3.183 v 39.276 h 5.756 V 53.515 c 0,-3.997 1.102,-4.894 2.875,-4.894 1.316,0 2.526,0.596 2.526,3.372 v 31.684 h 5.651 V 53.515 c 0,-3.997 1.098,-4.894 2.875,-4.894 1.308,0 2.523,0.596 2.523,3.372 v 31.684 h 5.656 V 53.623 c -0.004,-6.046 -2.271,-9.452 -7.373,-9.452" />
  </defs>
  <clipPath
     id="p">
    <use
       xlink:href="#o"
       overflow="visible"
       id="use14" />
  </clipPath>
  <defs
     id="defs15">
    <path
       id="q"
       d="m 63.175,34.078 h 8.133 V 83.676 H 65.526 V 39.391 c 0,-0.343 -0.378,-0.573 -0.738,-0.573 H 63.175 Z M 60.17,51.885 v 31.792 h -3.122 c -0.378,0 -0.884,0.034 -1.496,-0.712 -0.369,-0.444 -0.566,-1.316 -0.566,-1.316 -1.303,1.593 -2.607,2.145 -4.383,2.145 -4.541,0 -6.096,-2.631 -6.096,-7.944 v -7.156 c 0,-6.575 4.491,-8.795 10.24,-10.947 v -5.509 c 0,-2.765 -0.934,-3.691 -2.291,-3.691 -1.639,0 -2.703,0.532 -2.703,3.34 v 2.802 c 0,1.11 -0.424,1.692 -2.291,1.668 h -2.727 v -3.889 c 0,-5.313 2.555,-8.296 7.609,-8.296 5.346,-10e-4 7.826,2.46 7.826,7.713 z m -5.421,10.287 c -3.252,1.587 -4.814,2.686 -4.814,7.06 v 5.555 c 0,2.674 0.215,4.634 2.18,4.634 1.709,0 2.636,-1.047 2.636,-5.741 V 62.172 Z m 71.863,1.134 c 0,17.472 -7.089,33.309 -18.545,44.764 -11.456,11.455 -27.28,18.545 -44.755,18.536 C 45.831,126.615 29.998,119.525 18.545,108.07 7.092,96.615 0,80.778 0,63.306 0,45.825 7.089,30.001 18.545,18.545 30.001,7.089 45.833,0.002 63.312,0.002 c 17.476,0 33.3,7.089 44.755,18.545 11.455,11.456 18.545,27.28 18.545,44.759 z m -12.787,0.009 C 113.825,35.41 91.208,12.79 63.312,12.79 35.407,12.79 12.787,35.411 12.787,63.315 A 50.326,50.326 0 0 0 23.249,94.094 V 44.403 h 2.657 c 0.784,0 1.596,-0.041 2.137,0.994 a 4.83,4.83 0 0 1 0.39,1.047 c 1.311,-2.154 3.302,-2.288 5.087,-2.288 4.61,0 6.599,3.209 6.599,9.238 V 75.5 c 0,4.985 -2.421,8.413 -6.599,8.413 -1.529,0 -3.063,-0.209 -4.496,-1.962 v 18.452 a 50.284,50.284 0 0 0 34.289,13.424 c 27.895,0.001 50.512,-22.617 50.512,-50.512 z M 31.701,79.319 c 1.5,0.017 2.712,-0.453 2.712,-4.642 V 52.932 c 0,-4.119 -1.014,-4.616 -2.48,-4.616 -1.852,0 -2.907,1.433 -2.907,4.848 v 22.571 c -0.002,2.244 1.43,3.569 2.675,3.584 z M 96.957,44.171 a 6.041,6.041 0 0 0 -5.233,3.154 c -1.145,-2.531 -3.046,-3.154 -5.238,-3.154 -1.811,0 -3.473,0.738 -4.683,2.401 0,0 -0.076,-1.337 -0.753,-1.835 -0.474,-0.343 -0.704,-0.335 -1.399,-0.335 h -3.183 v 39.276 h 5.756 V 53.515 c 0,-3.997 1.102,-4.894 2.875,-4.894 1.316,0 2.526,0.596 2.526,3.372 v 31.684 h 5.651 V 53.515 c 0,-3.997 1.098,-4.894 2.875,-4.894 1.308,0 2.523,0.596 2.523,3.372 v 31.684 h 5.656 V 53.623 c -0.004,-6.046 -2.271,-9.452 -7.373,-9.452" />
  </defs>
  <clipPath
     id="r">
    <use
       xlink:href="#q"
       overflow="visible"
       id="use15" />
  </clipPath>
  <defs
     id="defs16">
    <path
       id="s"
       d="m 63.175,34.078 h 8.133 V 83.676 H 65.526 V 39.391 c 0,-0.343 -0.378,-0.573 -0.738,-0.573 H 63.175 Z M 60.17,51.885 v 31.792 h -3.122 c -0.378,0 -0.884,0.034 -1.496,-0.712 -0.369,-0.444 -0.566,-1.316 -0.566,-1.316 -1.303,1.593 -2.607,2.145 -4.383,2.145 -4.541,0 -6.096,-2.631 -6.096,-7.944 v -7.156 c 0,-6.575 4.491,-8.795 10.24,-10.947 v -5.509 c 0,-2.765 -0.934,-3.691 -2.291,-3.691 -1.639,0 -2.703,0.532 -2.703,3.34 v 2.802 c 0,1.11 -0.424,1.692 -2.291,1.668 h -2.727 v -3.889 c 0,-5.313 2.555,-8.296 7.609,-8.296 5.346,-10e-4 7.826,2.46 7.826,7.713 z m -5.421,10.287 c -3.252,1.587 -4.814,2.686 -4.814,7.06 v 5.555 c 0,2.674 0.215,4.634 2.18,4.634 1.709,0 2.636,-1.047 2.636,-5.741 V 62.172 Z m 71.863,1.134 c 0,17.472 -7.089,33.309 -18.545,44.764 -11.456,11.455 -27.28,18.545 -44.755,18.536 C 45.831,126.615 29.998,119.525 18.545,108.07 7.092,96.615 0,80.778 0,63.306 0,45.825 7.089,30.001 18.545,18.545 30.001,7.089 45.833,0.002 63.312,0.002 c 17.476,0 33.3,7.089 44.755,18.545 11.455,11.456 18.545,27.28 18.545,44.759 z m -12.787,0.009 C 113.825,35.41 91.208,12.79 63.312,12.79 35.407,12.79 12.787,35.411 12.787,63.315 A 50.326,50.326 0 0 0 23.249,94.094 V 44.403 h 2.657 c 0.784,0 1.596,-0.041 2.137,0.994 a 4.83,4.83 0 0 1 0.39,1.047 c 1.311,-2.154 3.302,-2.288 5.087,-2.288 4.61,0 6.599,3.209 6.599,9.238 V 75.5 c 0,4.985 -2.421,8.413 -6.599,8.413 -1.529,0 -3.063,-0.209 -4.496,-1.962 v 18.452 a 50.284,50.284 0 0 0 34.289,13.424 c 27.895,0.001 50.512,-22.617 50.512,-50.512 z M 31.701,79.319 c 1.5,0.017 2.712,-0.453 2.712,-4.642 V 52.932 c 0,-4.119 -1.014,-4.616 -2.48,-4.616 -1.852,0 -2.907,1.433 -2.907,4.848 v 22.571 c -0.002,2.244 1.43,3.569 2.675,3.584 z M 96.957,44.171 a 6.041,6.041 0 0 0 -5.233,3.154 c -1.145,-2.531 -3.046,-3.154 -5.238,-3.154 -1.811,0 -3.473,0.738 -4.683,2.401 0,0 -0.076,-1.337 -0.753,-1.835 -0.474,-0.343 -0.704,-0.335 -1.399,-0.335 h -3.183 v 39.276 h 5.756 V 53.515 c 0,-3.997 1.102,-4.894 2.875,-4.894 1.316,0 2.526,0.596 2.526,3.372 v 31.684 h 5.651 V 53.515 c 0,-3.997 1.098,-4.894 2.875,-4.894 1.308,0 2.523,0.596 2.523,3.372 v 31.684 h 5.656 V 53.623 c -0.004,-6.046 -2.271,-9.452 -7.373,-9.452" />
  </defs>
  <clipPath
     id="t">
    <use
       xlink:href="#s"
       overflow="visible"
       id="use16" />
  </clipPath>
  <defs
     id="defs17">
    <path
       id="u"
       d="m 63.175,34.078 h 8.133 V 83.676 H 65.526 V 39.391 c 0,-0.343 -0.378,-0.573 -0.738,-0.573 H 63.175 Z M 60.17,51.885 v 31.792 h -3.122 c -0.378,0 -0.884,0.034 -1.496,-0.712 -0.369,-0.444 -0.566,-1.316 -0.566,-1.316 -1.303,1.593 -2.607,2.145 -4.383,2.145 -4.541,0 -6.096,-2.631 -6.096,-7.944 v -7.156 c 0,-6.575 4.491,-8.795 10.24,-10.947 v -5.509 c 0,-2.765 -0.934,-3.691 -2.291,-3.691 -1.639,0 -2.703,0.532 -2.703,3.34 v 2.802 c 0,1.11 -0.424,1.692 -2.291,1.668 h -2.727 v -3.889 c 0,-5.313 2.555,-8.296 7.609,-8.296 5.346,-10e-4 7.826,2.46 7.826,7.713 z m -5.421,10.287 c -3.252,1.587 -4.814,2.686 -4.814,7.06 v 5.555 c 0,2.674 0.215,4.634 2.18,4.634 1.709,0 2.636,-1.047 2.636,-5.741 V 62.172 Z m 71.863,1.134 c 0,17.472 -7.089,33.309 -18.545,44.764 -11.456,11.455 -27.28,18.545 -44.755,18.536 C 45.831,126.615 29.998,119.525 18.545,108.07 7.092,96.615 0,80.778 0,63.306 0,45.825 7.089,30.001 18.545,18.545 30.001,7.089 45.833,0.002 63.312,0.002 c 17.476,0 33.3,7.089 44.755,18.545 11.455,11.456 18.545,27.28 18.545,44.759 z m -12.787,0.009 C 113.825,35.41 91.208,12.79 63.312,12.79 35.407,12.79 12.787,35.411 12.787,63.315 A 50.326,50.326 0 0 0 23.249,94.094 V 44.403 h 2.657 c 0.784,0 1.596,-0.041 2.137,0.994 a 4.83,4.83 0 0 1 0.39,1.047 c 1.311,-2.154 3.302,-2.288 5.087,-2.288 4.61,0 6.599,3.209 6.599,9.238 V 75.5 c 0,4.985 -2.421,8.413 -6.599,8.413 -1.529,0 -3.063,-0.209 -4.496,-1.962 v 18.452 a 50.284,50.284 0 0 0 34.289,13.424 c 27.895,0.001 50.512,-22.617 50.512,-50.512 z M 31.701,79.319 c 1.5,0.017 2.712,-0.453 2.712,-4.642 V 52.932 c 0,-4.119 -1.014,-4.616 -2.48,-4.616 -1.852,0 -2.907,1.433 -2.907,4.848 v 22.571 c -0.002,2.244 1.43,3.569 2.675,3.584 z M 96.957,44.171 a 6.041,6.041 0 0 0 -5.233,3.154 c -1.145,-2.531 -3.046,-3.154 -5.238,-3.154 -1.811,0 -3.473,0.738 -4.683,2.401 0,0 -0.076,-1.337 -0.753,-1.835 -0.474,-0.343 -0.704,-0.335 -1.399,-0.335 h -3.183 v 39.276 h 5.756 V 53.515 c 0,-3.997 1.102,-4.894 2.875,-4.894 1.316,0 2.526,0.596 2.526,3.372 v 31.684 h 5.651 V 53.515 c 0,-3.997 1.098,-4.894 2.875,-4.894 1.308,0 2.523,0.596 2.523,3.372 v 31.684 h 5.656 V 53.623 c -0.004,-6.046 -2.271,-9.452 -7.373,-9.452" />
  </defs>
  <clipPath
     id="v">
    <use
       xlink:href="#u"
       overflow="visible"
       id="use17" />
  </clipPath>
  <defs
     id="defs18">
    <path
       id="w"
       d="m 63.175,34.078 h 8.133 V 83.676 H 65.526 V 39.391 c 0,-0.343 -0.378,-0.573 -0.738,-0.573 H 63.175 Z M 60.17,51.885 v 31.792 h -3.122 c -0.378,0 -0.884,0.034 -1.496,-0.712 -0.369,-0.444 -0.566,-1.316 -0.566,-1.316 -1.303,1.593 -2.607,2.145 -4.383,2.145 -4.541,0 -6.096,-2.631 -6.096,-7.944 v -7.156 c 0,-6.575 4.491,-8.795 10.24,-10.947 v -5.509 c 0,-2.765 -0.934,-3.691 -2.291,-3.691 -1.639,0 -2.703,0.532 -2.703,3.34 v 2.802 c 0,1.11 -0.424,1.692 -2.291,1.668 h -2.727 v -3.889 c 0,-5.313 2.555,-8.296 7.609,-8.296 5.346,-10e-4 7.826,2.46 7.826,7.713 z m -5.421,10.287 c -3.252,1.587 -4.814,2.686 -4.814,7.06 v 5.555 c 0,2.674 0.215,4.634 2.18,4.634 1.709,0 2.636,-1.047 2.636,-5.741 V 62.172 Z m 71.863,1.134 c 0,17.472 -7.089,33.309 -18.545,44.764 -11.456,11.455 -27.28,18.545 -44.755,18.536 C 45.831,126.615 29.998,119.525 18.545,108.07 7.092,96.615 0,80.778 0,63.306 0,45.825 7.089,30.001 18.545,18.545 30.001,7.089 45.833,0.002 63.312,0.002 c 17.476,0 33.3,7.089 44.755,18.545 11.455,11.456 18.545,27.28 18.545,44.759 z m -12.787,0.009 C 113.825,35.41 91.208,12.79 63.312,12.79 35.407,12.79 12.787,35.411 12.787,63.315 A 50.326,50.326 0 0 0 23.249,94.094 V 44.403 h 2.657 c 0.784,0 1.596,-0.041 2.137,0.994 a 4.83,4.83 0 0 1 0.39,1.047 c 1.311,-2.154 3.302,-2.288 5.087,-2.288 4.61,0 6.599,3.209 6.599,9.238 V 75.5 c 0,4.985 -2.421,8.413 -6.599,8.413 -1.529,0 -3.063,-0.209 -4.496,-1.962 v 18.452 a 50.284,50.284 0 0 0 34.289,13.424 c 27.895,0.001 50.512,-22.617 50.512,-50.512 z M 31.701,79.319 c 1.5,0.017 2.712,-0.453 2.712,-4.642 V 52.932 c 0,-4.119 -1.014,-4.616 -2.48,-4.616 -1.852,0 -2.907,1.433 -2.907,4.848 v 22.571 c -0.002,2.244 1.43,3.569 2.675,3.584 z M 96.957,44.171 a 6.041,6.041 0 0 0 -5.233,3.154 c -1.145,-2.531 -3.046,-3.154 -5.238,-3.154 -1.811,0 -3.473,0.738 -4.683,2.401 0,0 -0.076,-1.337 -0.753,-1.835 -0.474,-0.343 -0.704,-0.335 -1.399,-0.335 h -3.183 v 39.276 h 5.756 V 53.515 c 0,-3.997 1.102,-4.894 2.875,-4.894 1.316,0 2.526,0.596 2.526,3.372 v 31.684 h 5.651 V 53.515 c 0,-3.997 1.098,-4.894 2.875,-4.894 1.308,0 2.523,0.596 2.523,3.372 v 31.684 h 5.656 V 53.623 c -0.004,-6.046 -2.271,-9.452 -7.373,-9.452" />
  </defs>
  <clipPath
     id="x">
    <use
       xlink:href="#w"
       overflow="visible"
       id="use18" />
  </clipPath>
  <defs
     id="defs19">
    <path
       id="y"
       d="m 63.175,34.078 h 8.133 V 83.676 H 65.526 V 39.391 c 0,-0.343 -0.378,-0.573 -0.738,-0.573 H 63.175 Z M 60.17,51.885 v 31.792 h -3.122 c -0.378,0 -0.884,0.034 -1.496,-0.712 -0.369,-0.444 -0.566,-1.316 -0.566,-1.316 -1.303,1.593 -2.607,2.145 -4.383,2.145 -4.541,0 -6.096,-2.631 -6.096,-7.944 v -7.156 c 0,-6.575 4.491,-8.795 10.24,-10.947 v -5.509 c 0,-2.765 -0.934,-3.691 -2.291,-3.691 -1.639,0 -2.703,0.532 -2.703,3.34 v 2.802 c 0,1.11 -0.424,1.692 -2.291,1.668 h -2.727 v -3.889 c 0,-5.313 2.555,-8.296 7.609,-8.296 5.346,-10e-4 7.826,2.46 7.826,7.713 z m -5.421,10.287 c -3.252,1.587 -4.814,2.686 -4.814,7.06 v 5.555 c 0,2.674 0.215,4.634 2.18,4.634 1.709,0 2.636,-1.047 2.636,-5.741 V 62.172 Z m 71.863,1.134 c 0,17.472 -7.089,33.309 -18.545,44.764 -11.456,11.455 -27.28,18.545 -44.755,18.536 C 45.831,126.615 29.998,119.525 18.545,108.07 7.092,96.615 0,80.778 0,63.306 0,45.825 7.089,30.001 18.545,18.545 30.001,7.089 45.833,0.002 63.312,0.002 c 17.476,0 33.3,7.089 44.755,18.545 11.455,11.456 18.545,27.28 18.545,44.759 z m -12.787,0.009 C 113.825,35.41 91.208,12.79 63.312,12.79 35.407,12.79 12.787,35.411 12.787,63.315 A 50.326,50.326 0 0 0 23.249,94.094 V 44.403 h 2.657 c 0.784,0 1.596,-0.041 2.137,0.994 a 4.83,4.83 0 0 1 0.39,1.047 c 1.311,-2.154 3.302,-2.288 5.087,-2.288 4.61,0 6.599,3.209 6.599,9.238 V 75.5 c 0,4.985 -2.421,8.413 -6.599,8.413 -1.529,0 -3.063,-0.209 -4.496,-1.962 v 18.452 a 50.284,50.284 0 0 0 34.289,13.424 c 27.895,0.001 50.512,-22.617 50.512,-50.512 z M 31.701,79.319 c 1.5,0.017 2.712,-0.453 2.712,-4.642 V 52.932 c 0,-4.119 -1.014,-4.616 -2.48,-4.616 -1.852,0 -2.907,1.433 -2.907,4.848 v 22.571 c -0.002,2.244 1.43,3.569 2.675,3.584 z M 96.957,44.171 a 6.041,6.041 0 0 0 -5.233,3.154 c -1.145,-2.531 -3.046,-3.154 -5.238,-3.154 -1.811,0 -3.473,0.738 -4.683,2.401 0,0 -0.076,-1.337 -0.753,-1.835 -0.474,-0.343 -0.704,-0.335 -1.399,-0.335 h -3.183 v 39.276 h 5.756 V 53.515 c 0,-3.997 1.102,-4.894 2.875,-4.894 1.316,0 2.526,0.596 2.526,3.372 v 31.684 h 5.651 V 53.515 c 0,-3.997 1.098,-4.894 2.875,-4.894 1.308,0 2.523,0.596 2.523,3.372 v 31.684 h 5.656 V 53.623 c -0.004,-6.046 -2.271,-9.452 -7.373,-9.452" />
  </defs>
  <clipPath
     id="z">
    <use
       xlink:href="#y"
       overflow="visible"
       id="use19" />
  </clipPath>
  <defs
     id="defs20">
    <path
       id="A"
       d="m 63.175,34.078 h 8.133 V 83.676 H 65.526 V 39.391 c 0,-0.343 -0.378,-0.573 -0.738,-0.573 H 63.175 Z M 60.17,51.885 v 31.792 h -3.122 c -0.378,0 -0.884,0.034 -1.496,-0.712 -0.369,-0.444 -0.566,-1.316 -0.566,-1.316 -1.303,1.593 -2.607,2.145 -4.383,2.145 -4.541,0 -6.096,-2.631 -6.096,-7.944 v -7.156 c 0,-6.575 4.491,-8.795 10.24,-10.947 v -5.509 c 0,-2.765 -0.934,-3.691 -2.291,-3.691 -1.639,0 -2.703,0.532 -2.703,3.34 v 2.802 c 0,1.11 -0.424,1.692 -2.291,1.668 h -2.727 v -3.889 c 0,-5.313 2.555,-8.296 7.609,-8.296 5.346,-10e-4 7.826,2.46 7.826,7.713 z m -5.421,10.287 c -3.252,1.587 -4.814,2.686 -4.814,7.06 v 5.555 c 0,2.674 0.215,4.634 2.18,4.634 1.709,0 2.636,-1.047 2.636,-5.741 V 62.172 Z m 71.863,1.134 c 0,17.472 -7.089,33.309 -18.545,44.764 -11.456,11.455 -27.28,18.545 -44.755,18.536 C 45.831,126.615 29.998,119.525 18.545,108.07 7.092,96.615 0,80.778 0,63.306 0,45.825 7.089,30.001 18.545,18.545 30.001,7.089 45.833,0.002 63.312,0.002 c 17.476,0 33.3,7.089 44.755,18.545 11.455,11.456 18.545,27.28 18.545,44.759 z m -12.787,0.009 C 113.825,35.41 91.208,12.79 63.312,12.79 35.407,12.79 12.787,35.411 12.787,63.315 A 50.326,50.326 0 0 0 23.249,94.094 V 44.403 h 2.657 c 0.784,0 1.596,-0.041 2.137,0.994 a 4.83,4.83 0 0 1 0.39,1.047 c 1.311,-2.154 3.302,-2.288 5.087,-2.288 4.61,0 6.599,3.209 6.599,9.238 V 75.5 c 0,4.985 -2.421,8.413 -6.599,8.413 -1.529,0 -3.063,-0.209 -4.496,-1.962 v 18.452 a 50.284,50.284 0 0 0 34.289,13.424 c 27.895,0.001 50.512,-22.617 50.512,-50.512 z M 31.701,79.319 c 1.5,0.017 2.712,-0.453 2.712,-4.642 V 52.932 c 0,-4.119 -1.014,-4.616 -2.48,-4.616 -1.852,0 -2.907,1.433 -2.907,4.848 v 22.571 c -0.002,2.244 1.43,3.569 2.675,3.584 z M 96.957,44.171 a 6.041,6.041 0 0 0 -5.233,3.154 c -1.145,-2.531 -3.046,-3.154 -5.238,-3.154 -1.811,0 -3.473,0.738 -4.683,2.401 0,0 -0.076,-1.337 -0.753,-1.835 -0.474,-0.343 -0.704,-0.335 -1.399,-0.335 h -3.183 v 39.276 h 5.756 V 53.515 c 0,-3.997 1.102,-4.894 2.875,-4.894 1.316,0 2.526,0.596 2.526,3.372 v 31.684 h 5.651 V 53.515 c 0,-3.997 1.098,-4.894 2.875,-4.894 1.308,0 2.523,0.596 2.523,3.372 v 31.684 h 5.656 V 53.623 c -0.004,-6.046 -2.271,-9.452 -7.373,-9.452" />
  </defs>
  <clipPath
     id="B">
    <use
       xlink:href="#A"
       overflow="visible"
       id="use20" />
  </clipPath>
  <defs
     id="defs21">
    <path
       id="C"
       d="m 63.175,34.078 h 8.133 V 83.676 H 65.526 V 39.391 c 0,-0.343 -0.378,-0.573 -0.738,-0.573 H 63.175 Z M 60.17,51.885 v 31.792 h -3.122 c -0.378,0 -0.884,0.034 -1.496,-0.712 -0.369,-0.444 -0.566,-1.316 -0.566,-1.316 -1.303,1.593 -2.607,2.145 -4.383,2.145 -4.541,0 -6.096,-2.631 -6.096,-7.944 v -7.156 c 0,-6.575 4.491,-8.795 10.24,-10.947 v -5.509 c 0,-2.765 -0.934,-3.691 -2.291,-3.691 -1.639,0 -2.703,0.532 -2.703,3.34 v 2.802 c 0,1.11 -0.424,1.692 -2.291,1.668 h -2.727 v -3.889 c 0,-5.313 2.555,-8.296 7.609,-8.296 5.346,-10e-4 7.826,2.46 7.826,7.713 z m -5.421,10.287 c -3.252,1.587 -4.814,2.686 -4.814,7.06 v 5.555 c 0,2.674 0.215,4.634 2.18,4.634 1.709,0 2.636,-1.047 2.636,-5.741 V 62.172 Z m 71.863,1.134 c 0,17.472 -7.089,33.309 -18.545,44.764 -11.456,11.455 -27.28,18.545 -44.755,18.536 C 45.831,126.615 29.998,119.525 18.545,108.07 7.092,96.615 0,80.778 0,63.306 0,45.825 7.089,30.001 18.545,18.545 30.001,7.089 45.833,0.002 63.312,0.002 c 17.476,0 33.3,7.089 44.755,18.545 11.455,11.456 18.545,27.28 18.545,44.759 z m -12.787,0.009 C 113.825,35.41 91.208,12.79 63.312,12.79 35.407,12.79 12.787,35.411 12.787,63.315 A 50.326,50.326 0 0 0 23.249,94.094 V 44.403 h 2.657 c 0.784,0 1.596,-0.041 2.137,0.994 a 4.83,4.83 0 0 1 0.39,1.047 c 1.311,-2.154 3.302,-2.288 5.087,-2.288 4.61,0 6.599,3.209 6.599,9.238 V 75.5 c 0,4.985 -2.421,8.413 -6.599,8.413 -1.529,0 -3.063,-0.209 -4.496,-1.962 v 18.452 a 50.284,50.284 0 0 0 34.289,13.424 c 27.895,0.001 50.512,-22.617 50.512,-50.512 z M 31.701,79.319 c 1.5,0.017 2.712,-0.453 2.712,-4.642 V 52.932 c 0,-4.119 -1.014,-4.616 -2.48,-4.616 -1.852,0 -2.907,1.433 -2.907,4.848 v 22.571 c -0.002,2.244 1.43,3.569 2.675,3.584 z M 96.957,44.171 a 6.041,6.041 0 0 0 -5.233,3.154 c -1.145,-2.531 -3.046,-3.154 -5.238,-3.154 -1.811,0 -3.473,0.738 -4.683,2.401 0,0 -0.076,-1.337 -0.753,-1.835 -0.474,-0.343 -0.704,-0.335 -1.399,-0.335 h -3.183 v 39.276 h 5.756 V 53.515 c 0,-3.997 1.102,-4.894 2.875,-4.894 1.316,0 2.526,0.596 2.526,3.372 v 31.684 h 5.651 V 53.515 c 0,-3.997 1.098,-4.894 2.875,-4.894 1.308,0 2.523,0.596 2.523,3.372 v 31.684 h 5.656 V 53.623 c -0.004,-6.046 -2.271,-9.452 -7.373,-9.452" />
  </defs>
  <clipPath
     id="D">
    <use
       xlink:href="#C"
       overflow="visible"
       id="use21" />
  </clipPath>
  <defs
     id="defs22">
    <path
       id="E"
       d="m 63.175,34.078 h 8.133 V 83.676 H 65.526 V 39.391 c 0,-0.343 -0.378,-0.573 -0.738,-0.573 H 63.175 Z M 60.17,51.885 v 31.792 h -3.122 c -0.378,0 -0.884,0.034 -1.496,-0.712 -0.369,-0.444 -0.566,-1.316 -0.566,-1.316 -1.303,1.593 -2.607,2.145 -4.383,2.145 -4.541,0 -6.096,-2.631 -6.096,-7.944 v -7.156 c 0,-6.575 4.491,-8.795 10.24,-10.947 v -5.509 c 0,-2.765 -0.934,-3.691 -2.291,-3.691 -1.639,0 -2.703,0.532 -2.703,3.34 v 2.802 c 0,1.11 -0.424,1.692 -2.291,1.668 h -2.727 v -3.889 c 0,-5.313 2.555,-8.296 7.609,-8.296 5.346,-10e-4 7.826,2.46 7.826,7.713 z m -5.421,10.287 c -3.252,1.587 -4.814,2.686 -4.814,7.06 v 5.555 c 0,2.674 0.215,4.634 2.18,4.634 1.709,0 2.636,-1.047 2.636,-5.741 V 62.172 Z m 71.863,1.134 c 0,17.472 -7.089,33.309 -18.545,44.764 -11.456,11.455 -27.28,18.545 -44.755,18.536 C 45.831,126.615 29.998,119.525 18.545,108.07 7.092,96.615 0,80.778 0,63.306 0,45.825 7.089,30.001 18.545,18.545 30.001,7.089 45.833,0.002 63.312,0.002 c 17.476,0 33.3,7.089 44.755,18.545 11.455,11.456 18.545,27.28 18.545,44.759 z m -12.787,0.009 C 113.825,35.41 91.208,12.79 63.312,12.79 35.407,12.79 12.787,35.411 12.787,63.315 A 50.326,50.326 0 0 0 23.249,94.094 V 44.403 h 2.657 c 0.784,0 1.596,-0.041 2.137,0.994 a 4.83,4.83 0 0 1 0.39,1.047 c 1.311,-2.154 3.302,-2.288 5.087,-2.288 4.61,0 6.599,3.209 6.599,9.238 V 75.5 c 0,4.985 -2.421,8.413 -6.599,8.413 -1.529,0 -3.063,-0.209 -4.496,-1.962 v 18.452 a 50.284,50.284 0 0 0 34.289,13.424 c 27.895,0.001 50.512,-22.617 50.512,-50.512 z M 31.701,79.319 c 1.5,0.017 2.712,-0.453 2.712,-4.642 V 52.932 c 0,-4.119 -1.014,-4.616 -2.48,-4.616 -1.852,0 -2.907,1.433 -2.907,4.848 v 22.571 c -0.002,2.244 1.43,3.569 2.675,3.584 z M 96.957,44.171 a 6.041,6.041 0 0 0 -5.233,3.154 c -1.145,-2.531 -3.046,-3.154 -5.238,-3.154 -1.811,0 -3.473,0.738 -4.683,2.401 0,0 -0.076,-1.337 -0.753,-1.835 -0.474,-0.343 -0.704,-0.335 -1.399,-0.335 h -3.183 v 39.276 h 5.756 V 53.515 c 0,-3.997 1.102,-4.894 2.875,-4.894 1.316,0 2.526,0.596 2.526,3.372 v 31.684 h 5.651 V 53.515 c 0,-3.997 1.098,-4.894 2.875,-4.894 1.308,0 2.523,0.596 2.523,3.372 v 31.684 h 5.656 V 53.623 c -0.004,-6.046 -2.271,-9.452 -7.373,-9.452" />
  </defs>
  <clipPath
     id="F">
    <use
       xlink:href="#E"
       overflow="visible"
       id="use22" />
  </clipPath>
  <defs
     id="defs23">
    <path
       id="G"
       d="m 63.175,34.078 h 8.133 V 83.676 H 65.526 V 39.391 c 0,-0.343 -0.378,-0.573 -0.738,-0.573 H 63.175 Z M 60.17,51.885 v 31.792 h -3.122 c -0.378,0 -0.884,0.034 -1.496,-0.712 -0.369,-0.444 -0.566,-1.316 -0.566,-1.316 -1.303,1.593 -2.607,2.145 -4.383,2.145 -4.541,0 -6.096,-2.631 -6.096,-7.944 v -7.156 c 0,-6.575 4.491,-8.795 10.24,-10.947 v -5.509 c 0,-2.765 -0.934,-3.691 -2.291,-3.691 -1.639,0 -2.703,0.532 -2.703,3.34 v 2.802 c 0,1.11 -0.424,1.692 -2.291,1.668 h -2.727 v -3.889 c 0,-5.313 2.555,-8.296 7.609,-8.296 5.346,-10e-4 7.826,2.46 7.826,7.713 z m -5.421,10.287 c -3.252,1.587 -4.814,2.686 -4.814,7.06 v 5.555 c 0,2.674 0.215,4.634 2.18,4.634 1.709,0 2.636,-1.047 2.636,-5.741 V 62.172 Z m 71.863,1.134 c 0,17.472 -7.089,33.309 -18.545,44.764 -11.456,11.455 -27.28,18.545 -44.755,18.536 C 45.831,126.615 29.998,119.525 18.545,108.07 7.092,96.615 0,80.778 0,63.306 0,45.825 7.089,30.001 18.545,18.545 30.001,7.089 45.833,0.002 63.312,0.002 c 17.476,0 33.3,7.089 44.755,18.545 11.455,11.456 18.545,27.28 18.545,44.759 z m -12.787,0.009 C 113.825,35.41 91.208,12.79 63.312,12.79 35.407,12.79 12.787,35.411 12.787,63.315 A 50.326,50.326 0 0 0 23.249,94.094 V 44.403 h 2.657 c 0.784,0 1.596,-0.041 2.137,0.994 a 4.83,4.83 0 0 1 0.39,1.047 c 1.311,-2.154 3.302,-2.288 5.087,-2.288 4.61,0 6.599,3.209 6.599,9.238 V 75.5 c 0,4.985 -2.421,8.413 -6.599,8.413 -1.529,0 -3.063,-0.209 -4.496,-1.962 v 18.452 a 50.284,50.284 0 0 0 34.289,13.424 c 27.895,0.001 50.512,-22.617 50.512,-50.512 z M 31.701,79.319 c 1.5,0.017 2.712,-0.453 2.712,-4.642 V 52.932 c 0,-4.119 -1.014,-4.616 -2.48,-4.616 -1.852,0 -2.907,1.433 -2.907,4.848 v 22.571 c -0.002,2.244 1.43,3.569 2.675,3.584 z M 96.957,44.171 a 6.041,6.041 0 0 0 -5.233,3.154 c -1.145,-2.531 -3.046,-3.154 -5.238,-3.154 -1.811,0 -3.473,0.738 -4.683,2.401 0,0 -0.076,-1.337 -0.753,-1.835 -0.474,-0.343 -0.704,-0.335 -1.399,-0.335 h -3.183 v 39.276 h 5.756 V 53.515 c 0,-3.997 1.102,-4.894 2.875,-4.894 1.316,0 2.526,0.596 2.526,3.372 v 31.684 h 5.651 V 53.515 c 0,-3.997 1.098,-4.894 2.875,-4.894 1.308,0 2.523,0.596 2.523,3.372 v 31.684 h 5.656 V 53.623 c -0.004,-6.046 -2.271,-9.452 -7.373,-9.452" />
  </defs>
  <clipPath
     id="H">
    <use
       xlink:href="#G"
       overflow="visible"
       id="use23" />
  </clipPath>
  <defs
     id="defs24">
    <path
       id="I"
       d="m 63.175,34.078 h 8.133 V 83.676 H 65.526 V 39.391 c 0,-0.343 -0.378,-0.573 -0.738,-0.573 H 63.175 Z M 60.17,51.885 v 31.792 h -3.122 c -0.378,0 -0.884,0.034 -1.496,-0.712 -0.369,-0.444 -0.566,-1.316 -0.566,-1.316 -1.303,1.593 -2.607,2.145 -4.383,2.145 -4.541,0 -6.096,-2.631 -6.096,-7.944 v -7.156 c 0,-6.575 4.491,-8.795 10.24,-10.947 v -5.509 c 0,-2.765 -0.934,-3.691 -2.291,-3.691 -1.639,0 -2.703,0.532 -2.703,3.34 v 2.802 c 0,1.11 -0.424,1.692 -2.291,1.668 h -2.727 v -3.889 c 0,-5.313 2.555,-8.296 7.609,-8.296 5.346,-10e-4 7.826,2.46 7.826,7.713 z m -5.421,10.287 c -3.252,1.587 -4.814,2.686 -4.814,7.06 v 5.555 c 0,2.674 0.215,4.634 2.18,4.634 1.709,0 2.636,-1.047 2.636,-5.741 V 62.172 Z m 71.863,1.134 c 0,17.472 -7.089,33.309 -18.545,44.764 -11.456,11.455 -27.28,18.545 -44.755,18.536 C 45.831,126.615 29.998,119.525 18.545,108.07 7.092,96.615 0,80.778 0,63.306 0,45.825 7.089,30.001 18.545,18.545 30.001,7.089 45.833,0.002 63.312,0.002 c 17.476,0 33.3,7.089 44.755,18.545 11.455,11.456 18.545,27.28 18.545,44.759 z m -12.787,0.009 C 113.825,35.41 91.208,12.79 63.312,12.79 35.407,12.79 12.787,35.411 12.787,63.315 A 50.326,50.326 0 0 0 23.249,94.094 V 44.403 h 2.657 c 0.784,0 1.596,-0.041 2.137,0.994 a 4.83,4.83 0 0 1 0.39,1.047 c 1.311,-2.154 3.302,-2.288 5.087,-2.288 4.61,0 6.599,3.209 6.599,9.238 V 75.5 c 0,4.985 -2.421,8.413 -6.599,8.413 -1.529,0 -3.063,-0.209 -4.496,-1.962 v 18.452 a 50.284,50.284 0 0 0 34.289,13.424 c 27.895,0.001 50.512,-22.617 50.512,-50.512 z M 31.701,79.319 c 1.5,0.017 2.712,-0.453 2.712,-4.642 V 52.932 c 0,-4.119 -1.014,-4.616 -2.48,-4.616 -1.852,0 -2.907,1.433 -2.907,4.848 v 22.571 c -0.002,2.244 1.43,3.569 2.675,3.584 z M 96.957,44.171 a 6.041,6.041 0 0 0 -5.233,3.154 c -1.145,-2.531 -3.046,-3.154 -5.238,-3.154 -1.811,0 -3.473,0.738 -4.683,2.401 0,0 -0.076,-1.337 -0.753,-1.835 -0.474,-0.343 -0.704,-0.335 -1.399,-0.335 h -3.183 v 39.276 h 5.756 V 53.515 c 0,-3.997 1.102,-4.894 2.875,-4.894 1.316,0 2.526,0.596 2.526,3.372 v 31.684 h 5.651 V 53.515 c 0,-3.997 1.098,-4.894 2.875,-4.894 1.308,0 2.523,0.596 2.523,3.372 v 31.684 h 5.656 V 53.623 c -0.004,-6.046 -2.271,-9.452 -7.373,-9.452" />
  </defs>
  <clipPath
     id="J">
    <use
       xlink:href="#I"
       overflow="visible"
       id="use24" />
  </clipPath>
  <defs
     id="defs25">
    <path
       id="K"
       d="m 63.175,34.078 h 8.133 V 83.676 H 65.526 V 39.391 c 0,-0.343 -0.378,-0.573 -0.738,-0.573 H 63.175 Z M 60.17,51.885 v 31.792 h -3.122 c -0.378,0 -0.884,0.034 -1.496,-0.712 -0.369,-0.444 -0.566,-1.316 -0.566,-1.316 -1.303,1.593 -2.607,2.145 -4.383,2.145 -4.541,0 -6.096,-2.631 -6.096,-7.944 v -7.156 c 0,-6.575 4.491,-8.795 10.24,-10.947 v -5.509 c 0,-2.765 -0.934,-3.691 -2.291,-3.691 -1.639,0 -2.703,0.532 -2.703,3.34 v 2.802 c 0,1.11 -0.424,1.692 -2.291,1.668 h -2.727 v -3.889 c 0,-5.313 2.555,-8.296 7.609,-8.296 5.346,-10e-4 7.826,2.46 7.826,7.713 z m -5.421,10.287 c -3.252,1.587 -4.814,2.686 -4.814,7.06 v 5.555 c 0,2.674 0.215,4.634 2.18,4.634 1.709,0 2.636,-1.047 2.636,-5.741 V 62.172 Z m 71.863,1.134 c 0,17.472 -7.089,33.309 -18.545,44.764 -11.456,11.455 -27.28,18.545 -44.755,18.536 C 45.831,126.615 29.998,119.525 18.545,108.07 7.092,96.615 0,80.778 0,63.306 0,45.825 7.089,30.001 18.545,18.545 30.001,7.089 45.833,0.002 63.312,0.002 c 17.476,0 33.3,7.089 44.755,18.545 11.455,11.456 18.545,27.28 18.545,44.759 z m -12.787,0.009 C 113.825,35.41 91.208,12.79 63.312,12.79 35.407,12.79 12.787,35.411 12.787,63.315 A 50.326,50.326 0 0 0 23.249,94.094 V 44.403 h 2.657 c 0.784,0 1.596,-0.041 2.137,0.994 a 4.83,4.83 0 0 1 0.39,1.047 c 1.311,-2.154 3.302,-2.288 5.087,-2.288 4.61,0 6.599,3.209 6.599,9.238 V 75.5 c 0,4.985 -2.421,8.413 -6.599,8.413 -1.529,0 -3.063,-0.209 -4.496,-1.962 v 18.452 a 50.284,50.284 0 0 0 34.289,13.424 c 27.895,0.001 50.512,-22.617 50.512,-50.512 z M 31.701,79.319 c 1.5,0.017 2.712,-0.453 2.712,-4.642 V 52.932 c 0,-4.119 -1.014,-4.616 -2.48,-4.616 -1.852,0 -2.907,1.433 -2.907,4.848 v 22.571 c -0.002,2.244 1.43,3.569 2.675,3.584 z M 96.957,44.171 a 6.041,6.041 0 0 0 -5.233,3.154 c -1.145,-2.531 -3.046,-3.154 -5.238,-3.154 -1.811,0 -3.473,0.738 -4.683,2.401 0,0 -0.076,-1.337 -0.753,-1.835 -0.474,-0.343 -0.704,-0.335 -1.399,-0.335 h -3.183 v 39.276 h 5.756 V 53.515 c 0,-3.997 1.102,-4.894 2.875,-4.894 1.316,0 2.526,0.596 2.526,3.372 v 31.684 h 5.651 V 53.515 c 0,-3.997 1.098,-4.894 2.875,-4.894 1.308,0 2.523,0.596 2.523,3.372 v 31.684 h 5.656 V 53.623 c -0.004,-6.046 -2.271,-9.452 -7.373,-9.452" />
  </defs>
  <clipPath
     id="L">
    <use
       xlink:href="#K"
       overflow="visible"
       id="use25" />
  </clipPath>
  <defs
     id="defs26">
    <path
       id="M"
       d="m 63.175,34.078 h 8.133 V 83.676 H 65.526 V 39.391 c 0,-0.343 -0.378,-0.573 -0.738,-0.573 H 63.175 Z M 60.17,51.885 v 31.792 h -3.122 c -0.378,0 -0.884,0.034 -1.496,-0.712 -0.369,-0.444 -0.566,-1.316 -0.566,-1.316 -1.303,1.593 -2.607,2.145 -4.383,2.145 -4.541,0 -6.096,-2.631 -6.096,-7.944 v -7.156 c 0,-6.575 4.491,-8.795 10.24,-10.947 v -5.509 c 0,-2.765 -0.934,-3.691 -2.291,-3.691 -1.639,0 -2.703,0.532 -2.703,3.34 v 2.802 c 0,1.11 -0.424,1.692 -2.291,1.668 h -2.727 v -3.889 c 0,-5.313 2.555,-8.296 7.609,-8.296 5.346,-10e-4 7.826,2.46 7.826,7.713 z m -5.421,10.287 c -3.252,1.587 -4.814,2.686 -4.814,7.06 v 5.555 c 0,2.674 0.215,4.634 2.18,4.634 1.709,0 2.636,-1.047 2.636,-5.741 V 62.172 Z m 71.863,1.134 c 0,17.472 -7.089,33.309 -18.545,44.764 -11.456,11.455 -27.28,18.545 -44.755,18.536 C 45.831,126.615 29.998,119.525 18.545,108.07 7.092,96.615 0,80.778 0,63.306 0,45.825 7.089,30.001 18.545,18.545 30.001,7.089 45.833,0.002 63.312,0.002 c 17.476,0 33.3,7.089 44.755,18.545 11.455,11.456 18.545,27.28 18.545,44.759 z m -12.787,0.009 C 113.825,35.41 91.208,12.79 63.312,12.79 35.407,12.79 12.787,35.411 12.787,63.315 A 50.326,50.326 0 0 0 23.249,94.094 V 44.403 h 2.657 c 0.784,0 1.596,-0.041 2.137,0.994 a 4.83,4.83 0 0 1 0.39,1.047 c 1.311,-2.154 3.302,-2.288 5.087,-2.288 4.61,0 6.599,3.209 6.599,9.238 V 75.5 c 0,4.985 -2.421,8.413 -6.599,8.413 -1.529,0 -3.063,-0.209 -4.496,-1.962 v 18.452 a 50.284,50.284 0 0 0 34.289,13.424 c 27.895,0.001 50.512,-22.617 50.512,-50.512 z M 31.701,79.319 c 1.5,0.017 2.712,-0.453 2.712,-4.642 V 52.932 c 0,-4.119 -1.014,-4.616 -2.48,-4.616 -1.852,0 -2.907,1.433 -2.907,4.848 v 22.571 c -0.002,2.244 1.43,3.569 2.675,3.584 z M 96.957,44.171 a 6.041,6.041 0 0 0 -5.233,3.154 c -1.145,-2.531 -3.046,-3.154 -5.238,-3.154 -1.811,0 -3.473,0.738 -4.683,2.401 0,0 -0.076,-1.337 -0.753,-1.835 -0.474,-0.343 -0.704,-0.335 -1.399,-0.335 h -3.183 v 39.276 h 5.756 V 53.515 c 0,-3.997 1.102,-4.894 2.875,-4.894 1.316,0 2.526,0.596 2.526,3.372 v 31.684 h 5.651 V 53.515 c 0,-3.997 1.098,-4.894 2.875,-4.894 1.308,0 2.523,0.596 2.523,3.372 v 31.684 h 5.656 V 53.623 c -0.004,-6.046 -2.271,-9.452 -7.373,-9.452" />
  </defs>
  <clipPath
     id="N">
    <use
       xlink:href="#M"
       overflow="visible"
       id="use26" />
  </clipPath>
  <defs
     id="defs27">
    <path
       id="O"
       d="m 63.175,34.078 h 8.133 V 83.676 H 65.526 V 39.391 c 0,-0.343 -0.378,-0.573 -0.738,-0.573 H 63.175 Z M 60.17,51.885 v 31.792 h -3.122 c -0.378,0 -0.884,0.034 -1.496,-0.712 -0.369,-0.444 -0.566,-1.316 -0.566,-1.316 -1.303,1.593 -2.607,2.145 -4.383,2.145 -4.541,0 -6.096,-2.631 -6.096,-7.944 v -7.156 c 0,-6.575 4.491,-8.795 10.24,-10.947 v -5.509 c 0,-2.765 -0.934,-3.691 -2.291,-3.691 -1.639,0 -2.703,0.532 -2.703,3.34 v 2.802 c 0,1.11 -0.424,1.692 -2.291,1.668 h -2.727 v -3.889 c 0,-5.313 2.555,-8.296 7.609,-8.296 5.346,-10e-4 7.826,2.46 7.826,7.713 z m -5.421,10.287 c -3.252,1.587 -4.814,2.686 -4.814,7.06 v 5.555 c 0,2.674 0.215,4.634 2.18,4.634 1.709,0 2.636,-1.047 2.636,-5.741 V 62.172 Z m 71.863,1.134 c 0,17.472 -7.089,33.309 -18.545,44.764 -11.456,11.455 -27.28,18.545 -44.755,18.536 C 45.831,126.615 29.998,119.525 18.545,108.07 7.092,96.615 0,80.778 0,63.306 0,45.825 7.089,30.001 18.545,18.545 30.001,7.089 45.833,0.002 63.312,0.002 c 17.476,0 33.3,7.089 44.755,18.545 11.455,11.456 18.545,27.28 18.545,44.759 z m -12.787,0.009 C 113.825,35.41 91.208,12.79 63.312,12.79 35.407,12.79 12.787,35.411 12.787,63.315 A 50.326,50.326 0 0 0 23.249,94.094 V 44.403 h 2.657 c 0.784,0 1.596,-0.041 2.137,0.994 a 4.83,4.83 0 0 1 0.39,1.047 c 1.311,-2.154 3.302,-2.288 5.087,-2.288 4.61,0 6.599,3.209 6.599,9.238 V 75.5 c 0,4.985 -2.421,8.413 -6.599,8.413 -1.529,0 -3.063,-0.209 -4.496,-1.962 v 18.452 a 50.284,50.284 0 0 0 34.289,13.424 c 27.895,0.001 50.512,-22.617 50.512,-50.512 z M 31.701,79.319 c 1.5,0.017 2.712,-0.453 2.712,-4.642 V 52.932 c 0,-4.119 -1.014,-4.616 -2.48,-4.616 -1.852,0 -2.907,1.433 -2.907,4.848 v 22.571 c -0.002,2.244 1.43,3.569 2.675,3.584 z M 96.957,44.171 a 6.041,6.041 0 0 0 -5.233,3.154 c -1.145,-2.531 -3.046,-3.154 -5.238,-3.154 -1.811,0 -3.473,0.738 -4.683,2.401 0,0 -0.076,-1.337 -0.753,-1.835 -0.474,-0.343 -0.704,-0.335 -1.399,-0.335 h -3.183 v 39.276 h 5.756 V 53.515 c 0,-3.997 1.102,-4.894 2.875,-4.894 1.316,0 2.526,0.596 2.526,3.372 v 31.684 h 5.651 V 53.515 c 0,-3.997 1.098,-4.894 2.875,-4.894 1.308,0 2.523,0.596 2.523,3.372 v 31.684 h 5.656 V 53.623 c -0.004,-6.046 -2.271,-9.452 -7.373,-9.452" />
  </defs>
  <clipPath
     id="P">
    <use
       xlink:href="#O"
       overflow="visible"
       id="use27" />
  </clipPath>
  <defs
     id="defs28">
    <path
       id="Q"
       d="m 63.175,34.078 h 8.133 V 83.676 H 65.526 V 39.391 c 0,-0.343 -0.378,-0.573 -0.738,-0.573 H 63.175 Z M 60.17,51.885 v 31.792 h -3.122 c -0.378,0 -0.884,0.034 -1.496,-0.712 -0.369,-0.444 -0.566,-1.316 -0.566,-1.316 -1.303,1.593 -2.607,2.145 -4.383,2.145 -4.541,0 -6.096,-2.631 -6.096,-7.944 v -7.156 c 0,-6.575 4.491,-8.795 10.24,-10.947 v -5.509 c 0,-2.765 -0.934,-3.691 -2.291,-3.691 -1.639,0 -2.703,0.532 -2.703,3.34 v 2.802 c 0,1.11 -0.424,1.692 -2.291,1.668 h -2.727 v -3.889 c 0,-5.313 2.555,-8.296 7.609,-8.296 5.346,-10e-4 7.826,2.46 7.826,7.713 z m -5.421,10.287 c -3.252,1.587 -4.814,2.686 -4.814,7.06 v 5.555 c 0,2.674 0.215,4.634 2.18,4.634 1.709,0 2.636,-1.047 2.636,-5.741 V 62.172 Z m 71.863,1.134 c 0,17.472 -7.089,33.309 -18.545,44.764 -11.456,11.455 -27.28,18.545 -44.755,18.536 C 45.831,126.615 29.998,119.525 18.545,108.07 7.092,96.615 0,80.778 0,63.306 0,45.825 7.089,30.001 18.545,18.545 30.001,7.089 45.833,0.002 63.312,0.002 c 17.476,0 33.3,7.089 44.755,18.545 11.455,11.456 18.545,27.28 18.545,44.759 z m -12.787,0.009 C 113.825,35.41 91.208,12.79 63.312,12.79 35.407,12.79 12.787,35.411 12.787,63.315 A 50.326,50.326 0 0 0 23.249,94.094 V 44.403 h 2.657 c 0.784,0 1.596,-0.041 2.137,0.994 a 4.83,4.83 0 0 1 0.39,1.047 c 1.311,-2.154 3.302,-2.288 5.087,-2.288 4.61,0 6.599,3.209 6.599,9.238 V 75.5 c 0,4.985 -2.421,8.413 -6.599,8.413 -1.529,0 -3.063,-0.209 -4.496,-1.962 v 18.452 a 50.284,50.284 0 0 0 34.289,13.424 c 27.895,0.001 50.512,-22.617 50.512,-50.512 z M 31.701,79.319 c 1.5,0.017 2.712,-0.453 2.712,-4.642 V 52.932 c 0,-4.119 -1.014,-4.616 -2.48,-4.616 -1.852,0 -2.907,1.433 -2.907,4.848 v 22.571 c -0.002,2.244 1.43,3.569 2.675,3.584 z M 96.957,44.171 a 6.041,6.041 0 0 0 -5.233,3.154 c -1.145,-2.531 -3.046,-3.154 -5.238,-3.154 -1.811,0 -3.473,0.738 -4.683,2.401 0,0 -0.076,-1.337 -0.753,-1.835 -0.474,-0.343 -0.704,-0.335 -1.399,-0.335 h -3.183 v 39.276 h 5.756 V 53.515 c 0,-3.997 1.102,-4.894 2.875,-4.894 1.316,0 2.526,0.596 2.526,3.372 v 31.684 h 5.651 V 53.515 c 0,-3.997 1.098,-4.894 2.875,-4.894 1.308,0 2.523,0.596 2.523,3.372 v 31.684 h 5.656 V 53.623 c -0.004,-6.046 -2.271,-9.452 -7.373,-9.452" />
  </defs>
  <clipPath
     id="R">
    <use
       xlink:href="#Q"
       overflow="visible"
       id="use28" />
  </clipPath>
  <defs
     id="defs29">
    <path
       id="S"
       d="m 63.175,34.078 h 8.133 V 83.676 H 65.526 V 39.391 c 0,-0.343 -0.378,-0.573 -0.738,-0.573 H 63.175 Z M 60.17,51.885 v 31.792 h -3.122 c -0.378,0 -0.884,0.034 -1.496,-0.712 -0.369,-0.444 -0.566,-1.316 -0.566,-1.316 -1.303,1.593 -2.607,2.145 -4.383,2.145 -4.541,0 -6.096,-2.631 -6.096,-7.944 v -7.156 c 0,-6.575 4.491,-8.795 10.24,-10.947 v -5.509 c 0,-2.765 -0.934,-3.691 -2.291,-3.691 -1.639,0 -2.703,0.532 -2.703,3.34 v 2.802 c 0,1.11 -0.424,1.692 -2.291,1.668 h -2.727 v -3.889 c 0,-5.313 2.555,-8.296 7.609,-8.296 5.346,-10e-4 7.826,2.46 7.826,7.713 z m -5.421,10.287 c -3.252,1.587 -4.814,2.686 -4.814,7.06 v 5.555 c 0,2.674 0.215,4.634 2.18,4.634 1.709,0 2.636,-1.047 2.636,-5.741 V 62.172 Z m 71.863,1.134 c 0,17.472 -7.089,33.309 -18.545,44.764 -11.456,11.455 -27.28,18.545 -44.755,18.536 C 45.831,126.615 29.998,119.525 18.545,108.07 7.092,96.615 0,80.778 0,63.306 0,45.825 7.089,30.001 18.545,18.545 30.001,7.089 45.833,0.002 63.312,0.002 c 17.476,0 33.3,7.089 44.755,18.545 11.455,11.456 18.545,27.28 18.545,44.759 z m -12.787,0.009 C 113.825,35.41 91.208,12.79 63.312,12.79 35.407,12.79 12.787,35.411 12.787,63.315 A 50.326,50.326 0 0 0 23.249,94.094 V 44.403 h 2.657 c 0.784,0 1.596,-0.041 2.137,0.994 a 4.83,4.83 0 0 1 0.39,1.047 c 1.311,-2.154 3.302,-2.288 5.087,-2.288 4.61,0 6.599,3.209 6.599,9.238 V 75.5 c 0,4.985 -2.421,8.413 -6.599,8.413 -1.529,0 -3.063,-0.209 -4.496,-1.962 v 18.452 a 50.284,50.284 0 0 0 34.289,13.424 c 27.895,0.001 50.512,-22.617 50.512,-50.512 z M 31.701,79.319 c 1.5,0.017 2.712,-0.453 2.712,-4.642 V 52.932 c 0,-4.119 -1.014,-4.616 -2.48,-4.616 -1.852,0 -2.907,1.433 -2.907,4.848 v 22.571 c -0.002,2.244 1.43,3.569 2.675,3.584 z M 96.957,44.171 a 6.041,6.041 0 0 0 -5.233,3.154 c -1.145,-2.531 -3.046,-3.154 -5.238,-3.154 -1.811,0 -3.473,0.738 -4.683,2.401 0,0 -0.076,-1.337 -0.753,-1.835 -0.474,-0.343 -0.704,-0.335 -1.399,-0.335 h -3.183 v 39.276 h 5.756 V 53.515 c 0,-3.997 1.102,-4.894 2.875,-4.894 1.316,0 2.526,0.596 2.526,3.372 v 31.684 h 5.651 V 53.515 c 0,-3.997 1.098,-4.894 2.875,-4.894 1.308,0 2.523,0.596 2.523,3.372 v 31.684 h 5.656 V 53.623 c -0.004,-6.046 -2.271,-9.452 -7.373,-9.452" />
  </defs>
  <clipPath
     id="T">
    <use
       xlink:href="#S"
       overflow="visible"
       id="use29" />
  </clipPath>
  <defs
     id="defs30">
    <path
       id="U"
       d="m 63.175,34.078 h 8.133 V 83.676 H 65.526 V 39.391 c 0,-0.343 -0.378,-0.573 -0.738,-0.573 H 63.175 Z M 60.17,51.885 v 31.792 h -3.122 c -0.378,0 -0.884,0.034 -1.496,-0.712 -0.369,-0.444 -0.566,-1.316 -0.566,-1.316 -1.303,1.593 -2.607,2.145 -4.383,2.145 -4.541,0 -6.096,-2.631 -6.096,-7.944 v -7.156 c 0,-6.575 4.491,-8.795 10.24,-10.947 v -5.509 c 0,-2.765 -0.934,-3.691 -2.291,-3.691 -1.639,0 -2.703,0.532 -2.703,3.34 v 2.802 c 0,1.11 -0.424,1.692 -2.291,1.668 h -2.727 v -3.889 c 0,-5.313 2.555,-8.296 7.609,-8.296 5.346,-10e-4 7.826,2.46 7.826,7.713 z m -5.421,10.287 c -3.252,1.587 -4.814,2.686 -4.814,7.06 v 5.555 c 0,2.674 0.215,4.634 2.18,4.634 1.709,0 2.636,-1.047 2.636,-5.741 V 62.172 Z m 71.863,1.134 c 0,17.472 -7.089,33.309 -18.545,44.764 -11.456,11.455 -27.28,18.545 -44.755,18.536 C 45.831,126.615 29.998,119.525 18.545,108.07 7.092,96.615 0,80.778 0,63.306 0,45.825 7.089,30.001 18.545,18.545 30.001,7.089 45.833,0.002 63.312,0.002 c 17.476,0 33.3,7.089 44.755,18.545 11.455,11.456 18.545,27.28 18.545,44.759 z m -12.787,0.009 C 113.825,35.41 91.208,12.79 63.312,12.79 35.407,12.79 12.787,35.411 12.787,63.315 A 50.326,50.326 0 0 0 23.249,94.094 V 44.403 h 2.657 c 0.784,0 1.596,-0.041 2.137,0.994 a 4.83,4.83 0 0 1 0.39,1.047 c 1.311,-2.154 3.302,-2.288 5.087,-2.288 4.61,0 6.599,3.209 6.599,9.238 V 75.5 c 0,4.985 -2.421,8.413 -6.599,8.413 -1.529,0 -3.063,-0.209 -4.496,-1.962 v 18.452 a 50.284,50.284 0 0 0 34.289,13.424 c 27.895,0.001 50.512,-22.617 50.512,-50.512 z M 31.701,79.319 c 1.5,0.017 2.712,-0.453 2.712,-4.642 V 52.932 c 0,-4.119 -1.014,-4.616 -2.48,-4.616 -1.852,0 -2.907,1.433 -2.907,4.848 v 22.571 c -0.002,2.244 1.43,3.569 2.675,3.584 z M 96.957,44.171 a 6.041,6.041 0 0 0 -5.233,3.154 c -1.145,-2.531 -3.046,-3.154 -5.238,-3.154 -1.811,0 -3.473,0.738 -4.683,2.401 0,0 -0.076,-1.337 -0.753,-1.835 -0.474,-0.343 -0.704,-0.335 -1.399,-0.335 h -3.183 v 39.276 h 5.756 V 53.515 c 0,-3.997 1.102,-4.894 2.875,-4.894 1.316,0 2.526,0.596 2.526,3.372 v 31.684 h 5.651 V 53.515 c 0,-3.997 1.098,-4.894 2.875,-4.894 1.308,0 2.523,0.596 2.523,3.372 v 31.684 h 5.656 V 53.623 c -0.004,-6.046 -2.271,-9.452 -7.373,-9.452" />
  </defs>
  <clipPath
     id="V">
    <use
       xlink:href="#U"
       overflow="visible"
       id="use30" />
  </clipPath>
  <defs
     id="defs31">
    <path
       id="W"
       d="m 63.175,34.078 h 8.133 V 83.676 H 65.526 V 39.391 c 0,-0.343 -0.378,-0.573 -0.738,-0.573 H 63.175 Z M 60.17,51.885 v 31.792 h -3.122 c -0.378,0 -0.884,0.034 -1.496,-0.712 -0.369,-0.444 -0.566,-1.316 -0.566,-1.316 -1.303,1.593 -2.607,2.145 -4.383,2.145 -4.541,0 -6.096,-2.631 -6.096,-7.944 v -7.156 c 0,-6.575 4.491,-8.795 10.24,-10.947 v -5.509 c 0,-2.765 -0.934,-3.691 -2.291,-3.691 -1.639,0 -2.703,0.532 -2.703,3.34 v 2.802 c 0,1.11 -0.424,1.692 -2.291,1.668 h -2.727 v -3.889 c 0,-5.313 2.555,-8.296 7.609,-8.296 5.346,-10e-4 7.826,2.46 7.826,7.713 z m -5.421,10.287 c -3.252,1.587 -4.814,2.686 -4.814,7.06 v 5.555 c 0,2.674 0.215,4.634 2.18,4.634 1.709,0 2.636,-1.047 2.636,-5.741 V 62.172 Z m 71.863,1.134 c 0,17.472 -7.089,33.309 -18.545,44.764 -11.456,11.455 -27.28,18.545 -44.755,18.536 C 45.831,126.615 29.998,119.525 18.545,108.07 7.092,96.615 0,80.778 0,63.306 0,45.825 7.089,30.001 18.545,18.545 30.001,7.089 45.833,0.002 63.312,0.002 c 17.476,0 33.3,7.089 44.755,18.545 11.455,11.456 18.545,27.28 18.545,44.759 z m -12.787,0.009 C 113.825,35.41 91.208,12.79 63.312,12.79 35.407,12.79 12.787,35.411 12.787,63.315 A 50.326,50.326 0 0 0 23.249,94.094 V 44.403 h 2.657 c 0.784,0 1.596,-0.041 2.137,0.994 a 4.83,4.83 0 0 1 0.39,1.047 c 1.311,-2.154 3.302,-2.288 5.087,-2.288 4.61,0 6.599,3.209 6.599,9.238 V 75.5 c 0,4.985 -2.421,8.413 -6.599,8.413 -1.529,0 -3.063,-0.209 -4.496,-1.962 v 18.452 a 50.284,50.284 0 0 0 34.289,13.424 c 27.895,0.001 50.512,-22.617 50.512,-50.512 z M 31.701,79.319 c 1.5,0.017 2.712,-0.453 2.712,-4.642 V 52.932 c 0,-4.119 -1.014,-4.616 -2.48,-4.616 -1.852,0 -2.907,1.433 -2.907,4.848 v 22.571 c -0.002,2.244 1.43,3.569 2.675,3.584 z M 96.957,44.171 a 6.041,6.041 0 0 0 -5.233,3.154 c -1.145,-2.531 -3.046,-3.154 -5.238,-3.154 -1.811,0 -3.473,0.738 -4.683,2.401 0,0 -0.076,-1.337 -0.753,-1.835 -0.474,-0.343 -0.704,-0.335 -1.399,-0.335 h -3.183 v 39.276 h 5.756 V 53.515 c 0,-3.997 1.102,-4.894 2.875,-4.894 1.316,0 2.526,0.596 2.526,3.372 v 31.684 h 5.651 V 53.515 c 0,-3.997 1.098,-4.894 2.875,-4.894 1.308,0 2.523,0.596 2.523,3.372 v 31.684 h 5.656 V 53.623 c -0.004,-6.046 -2.271,-9.452 -7.373,-9.452" />
  </defs>
  <clipPath
     id="X">
    <use
       xlink:href="#W"
       overflow="visible"
       id="use31" />
  </clipPath>
  <defs
     id="defs32">
    <path
       id="Y"
       d="m 63.175,34.078 h 8.133 V 83.676 H 65.526 V 39.391 c 0,-0.343 -0.378,-0.573 -0.738,-0.573 H 63.175 Z M 60.17,51.885 v 31.792 h -3.122 c -0.378,0 -0.884,0.034 -1.496,-0.712 -0.369,-0.444 -0.566,-1.316 -0.566,-1.316 -1.303,1.593 -2.607,2.145 -4.383,2.145 -4.541,0 -6.096,-2.631 -6.096,-7.944 v -7.156 c 0,-6.575 4.491,-8.795 10.24,-10.947 v -5.509 c 0,-2.765 -0.934,-3.691 -2.291,-3.691 -1.639,0 -2.703,0.532 -2.703,3.34 v 2.802 c 0,1.11 -0.424,1.692 -2.291,1.668 h -2.727 v -3.889 c 0,-5.313 2.555,-8.296 7.609,-8.296 5.346,-10e-4 7.826,2.46 7.826,7.713 z m -5.421,10.287 c -3.252,1.587 -4.814,2.686 -4.814,7.06 v 5.555 c 0,2.674 0.215,4.634 2.18,4.634 1.709,0 2.636,-1.047 2.636,-5.741 V 62.172 Z m 71.863,1.134 c 0,17.472 -7.089,33.309 -18.545,44.764 -11.456,11.455 -27.28,18.545 -44.755,18.536 C 45.831,126.615 29.998,119.525 18.545,108.07 7.092,96.615 0,80.778 0,63.306 0,45.825 7.089,30.001 18.545,18.545 30.001,7.089 45.833,0.002 63.312,0.002 c 17.476,0 33.3,7.089 44.755,18.545 11.455,11.456 18.545,27.28 18.545,44.759 z m -12.787,0.009 C 113.825,35.41 91.208,12.79 63.312,12.79 35.407,12.79 12.787,35.411 12.787,63.315 A 50.326,50.326 0 0 0 23.249,94.094 V 44.403 h 2.657 c 0.784,0 1.596,-0.041 2.137,0.994 a 4.83,4.83 0 0 1 0.39,1.047 c 1.311,-2.154 3.302,-2.288 5.087,-2.288 4.61,0 6.599,3.209 6.599,9.238 V 75.5 c 0,4.985 -2.421,8.413 -6.599,8.413 -1.529,0 -3.063,-0.209 -4.496,-1.962 v 18.452 a 50.284,50.284 0 0 0 34.289,13.424 c 27.895,0.001 50.512,-22.617 50.512,-50.512 z M 31.701,79.319 c 1.5,0.017 2.712,-0.453 2.712,-4.642 V 52.932 c 0,-4.119 -1.014,-4.616 -2.48,-4.616 -1.852,0 -2.907,1.433 -2.907,4.848 v 22.571 c -0.002,2.244 1.43,3.569 2.675,3.584 z M 96.957,44.171 a 6.041,6.041 0 0 0 -5.233,3.154 c -1.145,-2.531 -3.046,-3.154 -5.238,-3.154 -1.811,0 -3.473,0.738 -4.683,2.401 0,0 -0.076,-1.337 -0.753,-1.835 -0.474,-0.343 -0.704,-0.335 -1.399,-0.335 h -3.183 v 39.276 h 5.756 V 53.515 c 0,-3.997 1.102,-4.894 2.875,-4.894 1.316,0 2.526,0.596 2.526,3.372 v 31.684 h 5.651 V 53.515 c 0,-3.997 1.098,-4.894 2.875,-4.894 1.308,0 2.523,0.596 2.523,3.372 v 31.684 h 5.656 V 53.623 c -0.004,-6.046 -2.271,-9.452 -7.373,-9.452" />
  </defs>
  <clipPath
     id="Z">
    <use
       xlink:href="#Y"
       overflow="visible"
       id="use32" />
  </clipPath>
  <defs
     id="defs33">
    <path
       id="aa"
       d="m 63.175,34.078 h 8.133 V 83.676 H 65.526 V 39.391 c 0,-0.343 -0.378,-0.573 -0.738,-0.573 H 63.175 Z M 60.17,51.885 v 31.792 h -3.122 c -0.378,0 -0.884,0.034 -1.496,-0.712 -0.369,-0.444 -0.566,-1.316 -0.566,-1.316 -1.303,1.593 -2.607,2.145 -4.383,2.145 -4.541,0 -6.096,-2.631 -6.096,-7.944 v -7.156 c 0,-6.575 4.491,-8.795 10.24,-10.947 v -5.509 c 0,-2.765 -0.934,-3.691 -2.291,-3.691 -1.639,0 -2.703,0.532 -2.703,3.34 v 2.802 c 0,1.11 -0.424,1.692 -2.291,1.668 h -2.727 v -3.889 c 0,-5.313 2.555,-8.296 7.609,-8.296 5.346,-10e-4 7.826,2.46 7.826,7.713 z m -5.421,10.287 c -3.252,1.587 -4.814,2.686 -4.814,7.06 v 5.555 c 0,2.674 0.215,4.634 2.18,4.634 1.709,0 2.636,-1.047 2.636,-5.741 V 62.172 Z m 71.863,1.134 c 0,17.472 -7.089,33.309 -18.545,44.764 -11.456,11.455 -27.28,18.545 -44.755,18.536 C 45.831,126.615 29.998,119.525 18.545,108.07 7.092,96.615 0,80.778 0,63.306 0,45.825 7.089,30.001 18.545,18.545 30.001,7.089 45.833,0.002 63.312,0.002 c 17.476,0 33.3,7.089 44.755,18.545 11.455,11.456 18.545,27.28 18.545,44.759 z m -12.787,0.009 C 113.825,35.41 91.208,12.79 63.312,12.79 35.407,12.79 12.787,35.411 12.787,63.315 A 50.326,50.326 0 0 0 23.249,94.094 V 44.403 h 2.657 c 0.784,0 1.596,-0.041 2.137,0.994 a 4.83,4.83 0 0 1 0.39,1.047 c 1.311,-2.154 3.302,-2.288 5.087,-2.288 4.61,0 6.599,3.209 6.599,9.238 V 75.5 c 0,4.985 -2.421,8.413 -6.599,8.413 -1.529,0 -3.063,-0.209 -4.496,-1.962 v 18.452 a 50.284,50.284 0 0 0 34.289,13.424 c 27.895,0.001 50.512,-22.617 50.512,-50.512 z M 31.701,79.319 c 1.5,0.017 2.712,-0.453 2.712,-4.642 V 52.932 c 0,-4.119 -1.014,-4.616 -2.48,-4.616 -1.852,0 -2.907,1.433 -2.907,4.848 v 22.571 c -0.002,2.244 1.43,3.569 2.675,3.584 z M 96.957,44.171 a 6.041,6.041 0 0 0 -5.233,3.154 c -1.145,-2.531 -3.046,-3.154 -5.238,-3.154 -1.811,0 -3.473,0.738 -4.683,2.401 0,0 -0.076,-1.337 -0.753,-1.835 -0.474,-0.343 -0.704,-0.335 -1.399,-0.335 h -3.183 v 39.276 h 5.756 V 53.515 c 0,-3.997 1.102,-4.894 2.875,-4.894 1.316,0 2.526,0.596 2.526,3.372 v 31.684 h 5.651 V 53.515 c 0,-3.997 1.098,-4.894 2.875,-4.894 1.308,0 2.523,0.596 2.523,3.372 v 31.684 h 5.656 V 53.623 c -0.004,-6.046 -2.271,-9.452 -7.373,-9.452" />
  </defs>
  <clipPath
     id="ab">
    <use
       xlink:href="#aa"
       overflow="visible"
       id="use33" />
  </clipPath>
  <defs
     id="defs34">
    <path
       id="ac"
       d="m 63.175,34.078 h 8.133 V 83.676 H 65.526 V 39.391 c 0,-0.343 -0.378,-0.573 -0.738,-0.573 H 63.175 Z M 60.17,51.885 v 31.792 h -3.122 c -0.378,0 -0.884,0.034 -1.496,-0.712 -0.369,-0.444 -0.566,-1.316 -0.566,-1.316 -1.303,1.593 -2.607,2.145 -4.383,2.145 -4.541,0 -6.096,-2.631 -6.096,-7.944 v -7.156 c 0,-6.575 4.491,-8.795 10.24,-10.947 v -5.509 c 0,-2.765 -0.934,-3.691 -2.291,-3.691 -1.639,0 -2.703,0.532 -2.703,3.34 v 2.802 c 0,1.11 -0.424,1.692 -2.291,1.668 h -2.727 v -3.889 c 0,-5.313 2.555,-8.296 7.609,-8.296 5.346,-10e-4 7.826,2.46 7.826,7.713 z m -5.421,10.287 c -3.252,1.587 -4.814,2.686 -4.814,7.06 v 5.555 c 0,2.674 0.215,4.634 2.18,4.634 1.709,0 2.636,-1.047 2.636,-5.741 V 62.172 Z m 71.863,1.134 c 0,17.472 -7.089,33.309 -18.545,44.764 -11.456,11.455 -27.28,18.545 -44.755,18.536 C 45.831,126.615 29.998,119.525 18.545,108.07 7.092,96.615 0,80.778 0,63.306 0,45.825 7.089,30.001 18.545,18.545 30.001,7.089 45.833,0.002 63.312,0.002 c 17.476,0 33.3,7.089 44.755,18.545 11.455,11.456 18.545,27.28 18.545,44.759 z m -12.787,0.009 C 113.825,35.41 91.208,12.79 63.312,12.79 35.407,12.79 12.787,35.411 12.787,63.315 A 50.326,50.326 0 0 0 23.249,94.094 V 44.403 h 2.657 c 0.784,0 1.596,-0.041 2.137,0.994 a 4.83,4.83 0 0 1 0.39,1.047 c 1.311,-2.154 3.302,-2.288 5.087,-2.288 4.61,0 6.599,3.209 6.599,9.238 V 75.5 c 0,4.985 -2.421,8.413 -6.599,8.413 -1.529,0 -3.063,-0.209 -4.496,-1.962 v 18.452 a 50.284,50.284 0 0 0 34.289,13.424 c 27.895,0.001 50.512,-22.617 50.512,-50.512 z M 31.701,79.319 c 1.5,0.017 2.712,-0.453 2.712,-4.642 V 52.932 c 0,-4.119 -1.014,-4.616 -2.48,-4.616 -1.852,0 -2.907,1.433 -2.907,4.848 v 22.571 c -0.002,2.244 1.43,3.569 2.675,3.584 z M 96.957,44.171 a 6.041,6.041 0 0 0 -5.233,3.154 c -1.145,-2.531 -3.046,-3.154 -5.238,-3.154 -1.811,0 -3.473,0.738 -4.683,2.401 0,0 -0.076,-1.337 -0.753,-1.835 -0.474,-0.343 -0.704,-0.335 -1.399,-0.335 h -3.183 v 39.276 h 5.756 V 53.515 c 0,-3.997 1.102,-4.894 2.875,-4.894 1.316,0 2.526,0.596 2.526,3.372 v 31.684 h 5.651 V 53.515 c 0,-3.997 1.098,-4.894 2.875,-4.894 1.308,0 2.523,0.596 2.523,3.372 v 31.684 h 5.656 V 53.623 c -0.004,-6.046 -2.271,-9.452 -7.373,-9.452" />
  </defs>
  <clipPath
     id="ad">
    <use
       xlink:href="#ac"
       overflow="visible"
       id="use34" />
  </clipPath>
  <defs
     id="defs35">
    <path
       id="ae"
       d="m 63.175,34.078 h 8.133 V 83.676 H 65.526 V 39.391 c 0,-0.343 -0.378,-0.573 -0.738,-0.573 H 63.175 Z M 60.17,51.885 v 31.792 h -3.122 c -0.378,0 -0.884,0.034 -1.496,-0.712 -0.369,-0.444 -0.566,-1.316 -0.566,-1.316 -1.303,1.593 -2.607,2.145 -4.383,2.145 -4.541,0 -6.096,-2.631 -6.096,-7.944 v -7.156 c 0,-6.575 4.491,-8.795 10.24,-10.947 v -5.509 c 0,-2.765 -0.934,-3.691 -2.291,-3.691 -1.639,0 -2.703,0.532 -2.703,3.34 v 2.802 c 0,1.11 -0.424,1.692 -2.291,1.668 h -2.727 v -3.889 c 0,-5.313 2.555,-8.296 7.609,-8.296 5.346,-10e-4 7.826,2.46 7.826,7.713 z m -5.421,10.287 c -3.252,1.587 -4.814,2.686 -4.814,7.06 v 5.555 c 0,2.674 0.215,4.634 2.18,4.634 1.709,0 2.636,-1.047 2.636,-5.741 V 62.172 Z m 71.863,1.134 c 0,17.472 -7.089,33.309 -18.545,44.764 -11.456,11.455 -27.28,18.545 -44.755,18.536 C 45.831,126.615 29.998,119.525 18.545,108.07 7.092,96.615 0,80.778 0,63.306 0,45.825 7.089,30.001 18.545,18.545 30.001,7.089 45.833,0.002 63.312,0.002 c 17.476,0 33.3,7.089 44.755,18.545 11.455,11.456 18.545,27.28 18.545,44.759 z m -12.787,0.009 C 113.825,35.41 91.208,12.79 63.312,12.79 35.407,12.79 12.787,35.411 12.787,63.315 A 50.326,50.326 0 0 0 23.249,94.094 V 44.403 h 2.657 c 0.784,0 1.596,-0.041 2.137,0.994 a 4.83,4.83 0 0 1 0.39,1.047 c 1.311,-2.154 3.302,-2.288 5.087,-2.288 4.61,0 6.599,3.209 6.599,9.238 V 75.5 c 0,4.985 -2.421,8.413 -6.599,8.413 -1.529,0 -3.063,-0.209 -4.496,-1.962 v 18.452 a 50.284,50.284 0 0 0 34.289,13.424 c 27.895,0.001 50.512,-22.617 50.512,-50.512 z M 31.701,79.319 c 1.5,0.017 2.712,-0.453 2.712,-4.642 V 52.932 c 0,-4.119 -1.014,-4.616 -2.48,-4.616 -1.852,0 -2.907,1.433 -2.907,4.848 v 22.571 c -0.002,2.244 1.43,3.569 2.675,3.584 z M 96.957,44.171 a 6.041,6.041 0 0 0 -5.233,3.154 c -1.145,-2.531 -3.046,-3.154 -5.238,-3.154 -1.811,0 -3.473,0.738 -4.683,2.401 0,0 -0.076,-1.337 -0.753,-1.835 -0.474,-0.343 -0.704,-0.335 -1.399,-0.335 h -3.183 v 39.276 h 5.756 V 53.515 c 0,-3.997 1.102,-4.894 2.875,-4.894 1.316,0 2.526,0.596 2.526,3.372 v 31.684 h 5.651 V 53.515 c 0,-3.997 1.098,-4.894 2.875,-4.894 1.308,0 2.523,0.596 2.523,3.372 v 31.684 h 5.656 V 53.623 c -0.004,-6.046 -2.271,-9.452 -7.373,-9.452" />
  </defs>
  <clipPath
     id="af">
    <use
       xlink:href="#ae"
       overflow="visible"
       id="use35" />
  </clipPath>
  <defs
     id="defs36">
    <path
       id="ag"
       d="m 63.175,34.078 h 8.133 V 83.676 H 65.526 V 39.391 c 0,-0.343 -0.378,-0.573 -0.738,-0.573 H 63.175 Z M 60.17,51.885 v 31.792 h -3.122 c -0.378,0 -0.884,0.034 -1.496,-0.712 -0.369,-0.444 -0.566,-1.316 -0.566,-1.316 -1.303,1.593 -2.607,2.145 -4.383,2.145 -4.541,0 -6.096,-2.631 -6.096,-7.944 v -7.156 c 0,-6.575 4.491,-8.795 10.24,-10.947 v -5.509 c 0,-2.765 -0.934,-3.691 -2.291,-3.691 -1.639,0 -2.703,0.532 -2.703,3.34 v 2.802 c 0,1.11 -0.424,1.692 -2.291,1.668 h -2.727 v -3.889 c 0,-5.313 2.555,-8.296 7.609,-8.296 5.346,-10e-4 7.826,2.46 7.826,7.713 z m -5.421,10.287 c -3.252,1.587 -4.814,2.686 -4.814,7.06 v 5.555 c 0,2.674 0.215,4.634 2.18,4.634 1.709,0 2.636,-1.047 2.636,-5.741 V 62.172 Z m 71.863,1.134 c 0,17.472 -7.089,33.309 -18.545,44.764 -11.456,11.455 -27.28,18.545 -44.755,18.536 C 45.831,126.615 29.998,119.525 18.545,108.07 7.092,96.615 0,80.778 0,63.306 0,45.825 7.089,30.001 18.545,18.545 30.001,7.089 45.833,0.002 63.312,0.002 c 17.476,0 33.3,7.089 44.755,18.545 11.455,11.456 18.545,27.28 18.545,44.759 z m -12.787,0.009 C 113.825,35.41 91.208,12.79 63.312,12.79 35.407,12.79 12.787,35.411 12.787,63.315 A 50.326,50.326 0 0 0 23.249,94.094 V 44.403 h 2.657 c 0.784,0 1.596,-0.041 2.137,0.994 a 4.83,4.83 0 0 1 0.39,1.047 c 1.311,-2.154 3.302,-2.288 5.087,-2.288 4.61,0 6.599,3.209 6.599,9.238 V 75.5 c 0,4.985 -2.421,8.413 -6.599,8.413 -1.529,0 -3.063,-0.209 -4.496,-1.962 v 18.452 a 50.284,50.284 0 0 0 34.289,13.424 c 27.895,0.001 50.512,-22.617 50.512,-50.512 z M 31.701,79.319 c 1.5,0.017 2.712,-0.453 2.712,-4.642 V 52.932 c 0,-4.119 -1.014,-4.616 -2.48,-4.616 -1.852,0 -2.907,1.433 -2.907,4.848 v 22.571 c -0.002,2.244 1.43,3.569 2.675,3.584 z M 96.957,44.171 a 6.041,6.041 0 0 0 -5.233,3.154 c -1.145,-2.531 -3.046,-3.154 -5.238,-3.154 -1.811,0 -3.473,0.738 -4.683,2.401 0,0 -0.076,-1.337 -0.753,-1.835 -0.474,-0.343 -0.704,-0.335 -1.399,-0.335 h -3.183 v 39.276 h 5.756 V 53.515 c 0,-3.997 1.102,-4.894 2.875,-4.894 1.316,0 2.526,0.596 2.526,3.372 v 31.684 h 5.651 V 53.515 c 0,-3.997 1.098,-4.894 2.875,-4.894 1.308,0 2.523,0.596 2.523,3.372 v 31.684 h 5.656 V 53.623 c -0.004,-6.046 -2.271,-9.452 -7.373,-9.452" />
  </defs>
  <clipPath
     id="ah">
    <use
       xlink:href="#ag"
       overflow="visible"
       id="use36" />
  </clipPath>
  <path
     d="m 127.67735,63.304 c 0,17.472 -7.089,33.309 -18.545,44.764 -11.456003,11.455 -27.280003,18.545 -44.755003,18.536 -17.481,0.009 -33.314,-7.081 -44.767,-18.536 C 8.1573473,96.613 1.0653473,80.776 1.0653473,63.304 c 0,-17.481 7.089,-33.305 18.5449997,-44.761 C 31.066347,7.087 46.898347,0 64.377347,0 c 17.476,0 33.3,7.089 44.755003,18.545 11.455,11.456 18.545,27.28 18.545,44.759 z"
     fill="none"
     id="path87" />
  <path
     d="m 127.67735,63.304 c 0,17.472 -7.089,33.309 -18.545,44.764 -11.456003,11.455 -27.280003,18.545 -44.755003,18.536 -17.481,0.009 -33.314,-7.081 -44.767,-18.536 C 8.1573473,96.613 1.0653473,80.776 1.0653473,63.304 c 0,-17.481 7.089,-33.305 18.5449997,-44.761 C 31.066347,7.087 46.898347,0 64.377347,0 c 17.476,0 33.3,7.089 44.755003,18.545 11.455,11.456 18.545,27.28 18.545,44.759 z"
     fill="none"
     id="path88" />
  <path
     d="m 127.67735,63.304 c 0,17.472 -7.089,33.309 -18.545,44.764 -11.456003,11.455 -27.280003,18.545 -44.755003,18.536 -17.481,0.009 -33.314,-7.081 -44.767,-18.536 C 8.1573473,96.613 1.0653473,80.776 1.0653473,63.304 c 0,-17.481 7.089,-33.305 18.5449997,-44.761 C 31.066347,7.087 46.898347,0 64.377347,0 c 17.476,0 33.3,7.089 44.755003,18.545 11.455,11.456 18.545,27.28 18.545,44.759 z"
     fill="none"
     id="path89" />
  <path
     d="m 127.67735,63.304 c 0,17.472 -7.089,33.309 -18.545,44.764 -11.456003,11.455 -27.280003,18.545 -44.755003,18.536 -17.481,0.009 -33.314,-7.081 -44.767,-18.536 C 8.1573473,96.613 1.0653473,80.776 1.0653473,63.304 c 0,-17.481 7.089,-33.305 18.5449997,-44.761 C 31.066347,7.087 46.898347,0 64.377347,0 c 17.476,0 33.3,7.089 44.755003,18.545 11.455,11.456 18.545,27.28 18.545,44.759 z"
     fill="none"
     id="path90" />
  <path
     d="m 127.67735,63.304 c 0,17.472 -7.089,33.309 -18.545,44.764 -11.456003,11.455 -27.280003,18.545 -44.755003,18.536 -17.481,0.009 -33.314,-7.081 -44.767,-18.536 C 8.1573473,96.613 1.0653473,80.776 1.0653473,63.304 c 0,-17.481 7.089,-33.305 18.5449997,-44.761 C 31.066347,7.087 46.898347,0 64.377347,0 c 17.476,0 33.3,7.089 44.755003,18.545 11.455,11.456 18.545,27.28 18.545,44.759 z"
     fill="none"
     id="path91" />
  <g
     fill="#a6a6aa"
     id="g858"
     transform="translate(1.0653473,-0.002)">
    <path
       d="M 70.671596,34.226015 V 84.263311 H 65.095657 V 39.468046 c 0,-0.437428 -0.4628,-0.731753 -0.897184,-0.731753 H 62.710609 V 34.225 h 7.960987 M 51.569897,44.463454 c -4.953796,0 -7.573289,2.857998 -7.573289,8.274594 l -0.002,3.78969 c 0.566322,0 2.619493,0.0091 2.619493,0.0091 0.940826,0.0091 1.530491,-0.130924 1.846129,-0.437428 0.224296,-0.23546 0.330862,-0.574441 0.330862,-1.106256 v -2.84379 c 0,-2.938176 1.157002,-3.536976 2.891491,-3.536976 1.663444,0 2.475375,1.271688 2.475375,3.894226 v 5.693668 l -0.09743,0.03451 C 48.233906,60.420917 43.76524,62.613132 43.76524,69.209058 v 7.262726 c 0,5.629728 1.751741,7.909226 6.038739,7.909226 1.838009,0 3.091428,-0.613009 4.333683,-2.118126 l 0.191819,-0.230386 0.07307,0.289251 c 0,0.0071 0.191819,0.849483 0.539935,1.274732 0.557188,0.663754 0.982437,0.663754 1.403626,0.663754 h 3.018354 V 52.148383 c -10e-4,-5.244061 -2.4703,-7.684929 -7.79454,-7.684929 z m 2.589046,29.802953 c 0,4.353981 -0.761186,5.979873 -2.823491,5.979873 -2.176991,0 -2.359675,-2.194244 -2.359675,-4.856364 v -5.637847 c 0,-4.408787 1.513237,-5.61349 4.971049,-7.293173 l 0.212117,-0.107581 z M 91.666109,47.593449 a 5.9829187,5.9829187 0 0 1 5.183166,-3.129995 c 4.861435,0 7.330725,3.18074 7.330725,9.44885 V 84.260266 H 98.737016 V 52.257994 c 0,-2.402302 -0.88805,-3.567423 -2.708806,-3.567423 -1.846129,0 -3.065041,0.867751 -3.065041,5.112122 V 84.262296 H 87.520185 V 52.260024 c 0,-2.402302 -0.885005,-3.567423 -2.708806,-3.567423 -1.838009,0 -3.061996,0.867751 -3.061996,5.112122 v 30.459602 h -5.54955 V 44.706018 h 3.083309 c 0.696231,0 0.897184,0 1.330552,0.315638 0.620113,0.450622 0.705366,1.731444 0.705366,1.746668 l 0.02639,0.407995 0.247639,-0.327817 c 1.130615,-1.560938 2.734179,-2.380989 4.631054,-2.380989 1.760875,0 3.937866,0.35725 5.175047,3.120861 l 0.118745,0.267937 0.148177,-0.262862 m -59.18472,-3.395903 c -1.853233,0 -3.764316,0.191819 -5.102988,2.135379 A 4.5072336,4.5072336 0 0 0 27.047542,45.537233 C 26.490354,44.44823 25.619558,44.44823 24.853298,44.44823 h -2.950355 v 50.322486 h -0.01522 a 51.547488,51.547488 0 0 0 6.152409,6.745124 l 0.01928,-18.42577 c 1.480759,1.59849 3.044742,1.760876 4.42198,1.760876 4.212909,0 6.838492,-3.324859 6.838492,-8.68259 V 53.726575 c 0,-6.413243 -2.241946,-9.529029 -6.838492,-9.529029 z m 0.740888,31.08479 c 0,2.108991 -0.306504,3.427365 -0.940826,4.047477 -0.4628,0.457726 -1.070734,0.525726 -1.661414,0.510502 -1.236165,-0.0091 -2.568748,-1.342732 -2.568748,-3.487245 V 53.445443 c 0,-3.215247 0.914438,-4.771111 2.802178,-4.771111 1.339687,0 2.36881,0.330862 2.36881,4.537681 z"
       id="path858"
       style="fill:#306230;stroke-width:1.01491" />
  </g>
</svg>
