<?xml version="1.0" encoding="UTF-8" standalone="no"?>
<svg
   enable-background="new 0 0 423.169 68.655"
   viewBox="0 0 415.77462 64.559663"
   version="1.1"
   id="svg21"
   sodipodi:docname="pcv2.svg"
   width="415.77463"
   height="64.559662"
   inkscape:version="1.3.2 (091e20ef0f, 2023-11-25)"
   xmlns:inkscape="http://www.inkscape.org/namespaces/inkscape"
   xmlns:sodipodi="http://sodipodi.sourceforge.net/DTD/sodipodi-0.dtd"
   xmlns="http://www.w3.org/2000/svg"
   xmlns:svg="http://www.w3.org/2000/svg">
  <defs
     id="defs21" />
  <sodipodi:namedview
     id="namedview21"
     pagecolor="#505050"
     bordercolor="#eeeeee"
     borderopacity="1"
     inkscape:showpageshadow="0"
     inkscape:pageopacity="0"
     inkscape:pagecheckerboard="0"
     inkscape:deskcolor="#505050"
     showgrid="false"
     inkscape:zoom="2.7754971"
     inkscape:cx="275.08585"
     inkscape:cy="59.088514"
     inkscape:window-width="2560"
     inkscape:window-height="1409"
     inkscape:window-x="1920"
     inkscape:window-y="0"
     inkscape:window-maximized="1"
     inkscape:current-layer="svg21" />
  <ellipse
     cx="21.887281"
     cy="20.793749"
     fill="#40256c"
     rx="7.6183271"
     ry="12.513537"
     transform="rotate(-20.022266)"
     id="ellipse1"
     style="fill:#306230;stroke-width:1.00004" />
  <path
     d="m 47.524625,38.875661 c -0.062,3.996 4.113,8.097 8.563,11.434 3.057,2.292 6.188,3.938 8.688,5.188 -20.188,-5.438 -32.793,-8.318 -50.25,-19.688 -2.357,-1.535 -10.0789999,-6.745 -13.1879999,-15.313 -0.70699996,-1.949 -2.55,-7.028 -0.125,-10.5000003 0.821,-1.176 1.898,-1.917 2.523,-2.24 4.977,-2.572 13.2959999,-0.658 14.5939999,-0.449 -4.384,-0.557 -7.685,0.178 -8.9879999,2.363 -2.838,4.7560003 4.8669999,14.5810003 17.2079999,21.9440003 7.8,4.654 15.585,7.21 20.975,7.261 z"
     fill="#c12a2b"
     id="path1"
     style="fill:#306230" />
  <path
     d="m 37.170625,14.067661 c 10.52,3.094 11.435,8.348 11.153,9.93 -0.424,2.375 -4.736,3.969 -14.736,3.938 13.688,1.75 24.626,1.804 25.5,-1.875 0.874,-3.68 -9.167,-8.243 -21.917,-11.993 z"
     fill="#c12a2b"
     id="path2"
     style="fill:#306230" />
  <text
     fill="#c12e3a"
     font-family="ArialMT"
     font-size="1px"
     id="text2"
     x="366.77472"
     y="34.325359">I hate bugs!</text>
  <g
     fill="#306230"
     id="g21"
     transform="translate(-3.7485705e-4,-0.00233932)">
    <path
       d="m 115.557,4.374 h -26.49 l 3.958,5.875 -0.833,4.958 h -8.667 l -6.167,6 h 13.458 l -2,11 9.125,-4.25 0.958,-6.75 h 14.577 c 1.783,0 3.304,-1.29 3.596,-3.048 l 1.664,-10.034 c 0.326,-1.964 -1.189,-3.751 -3.179,-3.751 z m -2.962,7.191 -0.255,1.801 c -0.156,1.104 -1.102,1.925 -2.217,1.925 H 99.608 l 0.833,-5 h 11.046 c 0.681,0 1.203,0.601 1.108,1.274 z"
       id="path4" />
    <path
       d="m 176.662,10.265 h -20.881 c -1.48,0 -2.742,0.902 -2.985,2.133 l -1.389,7.038 c -0.27,1.366 0.98,2.61 2.622,2.61 h 8.049 l 3.134,5.891 h -17.276 c -2.771,0 -4.878,-2.487 -4.423,-5.22 l 2.343,-14.075 c 0.41,-2.462 2.54,-4.267 5.036,-4.267 h 30.487 z"
       id="path5" />
    <path
       d="m 144.099,9.713 c 0.509,-2.779 -1.625,-5.339 -4.45,-5.339 h -19.853 c 0.154,0.195 0.343,0.481 0.485,0.862 0.252,0.677 0.211,1.278 0.17,1.593 -0.55,4.516 -2.573,15.769 -2.573,15.769 -0.509,2.779 1.625,5.339 4.45,5.339 h 19.853 c -0.154,-0.195 -0.343,-0.481 -0.484,-0.862 -0.252,-0.677 -0.211,-1.278 -0.17,-1.593 0.55,-4.516 2.572,-15.769 2.572,-15.769 z m -6.333,2.845 -1.301,7.836 c -0.157,0.944 -0.974,1.637 -1.931,1.637 h -8.393 c -1.209,0 -2.129,-1.085 -1.931,-2.278 l 1.301,-7.836 c 0.157,-0.944 0.974,-1.637 1.931,-1.637 h 8.393 c 1.209,0 2.129,1.085 1.931,2.278 z"
       id="path6" />
    <path
       d="M 120.308,38.098 H 98.281 c -1.48,0 -2.742,0.902 -2.985,2.133 l -1.389,7.038 c -0.27,1.366 0.98,2.61 2.622,2.61 h 8.049 l 3.134,5.891 H 90.437 c -2.771,0 -4.878,-2.487 -4.423,-5.22 l 2.343,-14.075 c 0.41,-2.462 2.54,-4.267 5.036,-4.267 h 31.633 z"
       id="path7" />
    <path
       d="m 174.496,27.937 h -7.69 l 1.875,-15.594 h 7.689 z"
       id="path8" />
    <path
       d="m 177.15,16.155 7.583,11.782 h 9.875 L 187.025,16.155 197.067,4.374 h -9.875 z"
       id="path9" />
    <path
       d="M 203.901,21.999 H 218.9 l 3.292,5.938 H 196.108 L 198.65,4.374 h 23.042 l -3.646,5.854 h -12.871 l -0.344,3.146 h 12.027 l -2.708,5.042 h -9.863 z"
       id="path10" />
    <path
       d="m 214.859,49.832 h 10.666 l 3.292,5.938 h -21.75 l 2.541,-23.563 h 23.042 l -3.646,5.855 h -12.87 l -0.345,3.145 h 12.027 l -2.708,5.042 h -9.863 z"
       id="path11" />
    <path
       d="m 292.692,49.832 h 14.229 l 3.292,5.938 H 284.9 l 2.542,-23.563 h 26.604 l -3.646,5.855 h -16.433 l -0.344,3.145 h 12.027 l -2.708,5.042 h -9.863 z"
       id="path12" />
    <path
       d="m 219.588,10.249 3.562,-5.875 h 27.75 l -5.062,5.875 h -8.813 l -2.375,13.375 -8.125,4.313 3.188,-17.688 z"
       id="path13" />
    <path
       d="m 119.195,43.058 0.643,-3.059 h -7.563 l -3.312,15.771 h 7.562 l 1.241,-5.908 12.251,-0.007 -1.242,5.915 h 7.563 l 4.949,-23.563 h -7.563 l -2.279,10.851 z"
       id="path14" />
    <path
       d="M 162.9,32.207 H 152.275 L 138.463,55.77 h 9.063 l 3.09,-5.991 h 8.279 l 1.381,5.991 h 9.062 z m -9.895,12.939 3.332,-6.46 1.489,6.46 z"
       id="path15" />
    <path
       d="m 178.463,49.749 6.312,0.063 2.333,5.958 h -16.333 l 3.75,-23.563 h 6.729 z"
       id="path16" />
    <path
       d="m 196.588,49.749 6.312,0.063 2.333,5.958 H 188.9 l 3.75,-23.563 h 6.729 z"
       id="path17" />
    <path
       d="m 234.65,32.207 -6.562,32.355 9.312,-4.625 2.75,-14.688 8.125,10.521 h 8.75 l 4.688,-33.896 -8.063,3.875 -2.75,19.375 -9.625,-12.917 z"
       id="path18" />
    <path
       d="m 277.662,46.621 c 0,1.8 -1.459,3.259 -3.259,3.259 h -4.791 c -1.642,0 -2.892,-1.244 -2.622,-2.61 l 1.389,-7.038 c 0.243,-1.231 1.506,-2.133 2.985,-2.133 h 20.881 l 4.717,-5.891 h -30.487 c -2.496,0 -4.626,1.805 -5.036,4.267 l -2.343,14.075 c -0.455,2.733 1.653,5.22 4.423,5.22 h 14.994 c 3.688,0 5.802,-2.979 6.052,-6.677 l 0.625,-8.427 h -9.5 l -3.542,4.542 h 5.512 v 1.413 z"
       id="path19" />
    <path
       d="m 350.838,36.062 h 14.5 c -0.102,-0.105 -1.314,-1.388 -0.938,-2.938 0.285,-1.175 1.309,-1.782 1.781,-2.063 0.598,-0.354 1.089,-0.456 1.906,-0.625 0.377,-0.078 1.883,-0.37 3.969,-0.109 1.66,0.207 2.091,0.565 2.246,0.707 0.096,0.088 0.737,0.692 0.785,1.559 0.014,0.254 0.018,1.247 -1.484,2.531 -4.163,3.558 -20.512,9.874 -22.536,10.667 0,0 -2,0.783 -4.948,2.458 -2.758,1.567 -3.592,2.395 -4.156,3.125 -1.169,1.511 -1.583,3.358 -1.75,4.396 h 39.563 l 4.5,-9.937 h -1.063 c -0.505,0.637 -2.101,3.042 -4.812,3.042 -1.016,0 -1.719,0 -2.5,0 h -15.688 c 9.581,-5.025 14.993,-7.745 17.75,-9 0.215,-0.098 1.458,-0.662 3,-1.625 2.058,-1.285 3.659,-2.285 4.875,-4.188 0.537,-0.84 1.665,-2.606 1.375,-4.813 -0.24,-1.826 -1.333,-3.043 -1.688,-3.438 -4.919,-5.476 -17.89,-1.891 -19.25,-1.5 -1.58,0.454 -3.617,1.019 -6.063,2.375 -4.525,2.51 -7.985,7.332 -9.374,9.376 z"
       id="path20" />
    <path
       d="m 347.025,38.437 h 8.938 l -3,3.813 c -3.115,1.007 -13.973,4.845 -15.094,12.25 -0.062,0.41 -0.095,0.833 -0.094,1.271 H 314.046 L 308.442,46.667 318.025,4.5 h 16.25 l -16.833,38.719 1.917,3.448 h 7.5 l 16.75,-12.583 18.083,-24.75 12.5,-4.833 h 41.583 l -16,10.833 h -17.667 l -11.583,5.667 c -2.555,0.188 -12.584,1.226 -19.188,9.375 -2.046,2.524 -3.572,5.924 -4.312,8.061 z"
       id="path21" />
  </g>
</svg>
