<?xml version="1.0" encoding="UTF-8" standalone="no"?>
<svg
   enable-background="new 0 0 1894 384"
   height="47.691341"
   viewBox="0 0 225.83311 47.691342"
   width="225.83311"
   version="1.1"
   id="svg36"
   sodipodi:docname="trs80coco.svg"
   inkscape:version="1.3.2 (091e20ef0f, 2023-11-25)"
   xmlns:inkscape="http://www.inkscape.org/namespaces/inkscape"
   xmlns:sodipodi="http://sodipodi.sourceforge.net/DTD/sodipodi-0.dtd"
   xmlns="http://www.w3.org/2000/svg"
   xmlns:svg="http://www.w3.org/2000/svg">
  <defs
     id="defs36" />
  <sodipodi:namedview
     id="namedview36"
     pagecolor="#505050"
     bordercolor="#eeeeee"
     borderopacity="1"
     inkscape:showpageshadow="0"
     inkscape:pageopacity="0"
     inkscape:pagecheckerboard="0"
     inkscape:deskcolor="#505050"
     showgrid="false"
     inkscape:zoom="2.9300473"
     inkscape:cx="91.295456"
     inkscape:cy="142.65982"
     inkscape:window-width="2560"
     inkscape:window-height="1409"
     inkscape:window-x="1920"
     inkscape:window-y="0"
     inkscape:window-maximized="1"
     inkscape:current-layer="svg36" />
  <linearGradient
     id="a"
     gradientUnits="userSpaceOnUse"
     x1="948.80573"
     x2="948.80573"
     y1="43.097698"
     y2="337.08301">
    <stop
       offset=".0045"
       stop-color="#e2e3e4"
       id="stop1" />
    <stop
       offset="1"
       stop-color="#b3b5b8"
       id="stop2" />
  </linearGradient>
  <g
     transform="matrix(2.629907,0,0,2.629907,-287.71148,-23.43124)"
     id="g36">
    <g
       fill="#807f7f"
       id="g14">
      <path
         d="m 109.39987,20.604152 h 26.88691 v 5.974868 h -26.88691 z"
         stroke-width="0.11204"
         id="path5" />
      <path
         d="m 138.67636,20.604152 h 26.88669 v 5.974868 h -26.88669 z"
         stroke-width="0.11204"
         id="path6" />
      <path
         d="m 167.95297,20.604152 h 26.8868 v 5.974868 h -26.8868 z"
         stroke-width="0.11204"
         id="path7" />
      <g
         transform="matrix(0.11203998,0,0,0.11203998,-3.30518,-3.417219)"
         id="g13">
        <path
           d="m 1138.662,110.022 h 78.117 v 15.623 h -31.247 v 54.681 h -15.623 v -54.681 h -31.247 z"
           id="path8" />
        <path
           d="m 1251.73,152.986 v 27.34 h -15.623 v -70.304 h 54.683 c 15.624,0 23.435,7.135 23.435,21.403 0,6.771 -1.119,11.745 -3.357,14.92 2.238,3.698 3.357,8.515 3.357,14.452 v 19.529 h -15.621 v -19.529 c 0,-5.207 -2.605,-7.812 -7.813,-7.812 z m 0,-15.623 h 46.871 v -11.718 h -46.871 z"
           id="path9" />
        <path
           d="m 1429.225,152.986 v -11.718 h 26.99 v 11.718 z"
           id="path10" />
        <path
           d="m 1551.415,125.646 h -62.024 v 11.718 h 39.06 c 15.623,0 23.434,7.161 23.434,21.48 0,14.322 -7.812,21.482 -23.434,21.482 h -31.246 c -13.229,0 -20.857,-5.207 -22.89,-15.623 h 61.946 v -11.718 h -39.058 c -15.625,0 -23.436,-7.056 -23.436,-21.17 0,-14.529 7.811,-21.794 23.436,-21.794 h 31.246 c 13.332,0.001 20.987,5.21 22.966,15.625 z m -77.101,39.058 c -0.366,-1.875 -0.547,-3.932 -0.547,-6.171 0,-5.52 1.196,-9.973 3.592,-13.358 3.75,5.209 10.363,7.812 19.844,7.812 h -7.813 v 11.718 z m 73.899,-19.53 c 2.446,-3.437 3.67,-7.993 3.67,-13.67 0,-2.083 -0.154,-4.036 -0.468,-5.859 h -15.154 v 11.718 h -7.812 c 9.425,0 16.014,2.605 19.764,7.811 z"
           id="path11" />
        <path
           d="m 1564.496,156.892 v -23.435 c 0,-15.623 7.813,-23.435 23.436,-23.435 h 23.436 c 15.624,0 23.436,7.812 23.436,23.435 v 23.435 c 0,15.624 -7.812,23.435 -23.436,23.435 h -23.436 c -15.623,0 -23.436,-7.811 -23.436,-23.435 z m 46.87,7.812 c 5.207,0 7.813,-2.604 7.813,-7.812 v -23.435 c 0,-5.207 -2.604,-7.812 -7.813,-7.812 h -23.436 c -5.209,0 -7.812,2.604 -7.812,7.812 v 23.435 c 0,5.208 2.603,7.812 7.812,7.812 z"
           id="path12" />
        <path
           d="m 1330.756,156.989 h 20.17 c 0,5.042 2.836,8.51 6.776,8.51 h 36.323 c 2.839,0 3.783,-2.049 3.783,-4.886 0,-2.836 1.26,-8.982 -4.412,-8.982 -5.673,0 -38.847,0 -44.362,0 -5.515,0 -18.438,-4.57 -18.438,-20.013 0,-15.443 10.084,-21.116 17.177,-21.116 h 53.576 c 6.461,0 12.449,2.994 12.449,19.541 -4.729,0 -19.066,0 -19.066,0 0,-3.625 -1.892,-6.184 -8.509,-6.184 -6.619,0 -23.721,0 -28.446,0 -4.729,0 -6.462,0.353 -6.462,7.759 0,7.406 4.255,6.814 7.406,6.814 h 44.992 c 7.721,0 14.969,7.841 14.969,19.975 0,12.133 -5.829,22.458 -18.276,22.458 -12.449,0 -47.117,0 -53.421,0 -6.304,0 -16.229,-3.075 -16.229,-23.876 z"
           id="path13" />
      </g>
    </g>
    <path
       d="m 109.83134,21.068895 h 26.88679 v 5.974867 h -26.88679 z"
       fill="#e5e5e5"
       stroke-width="0.11204"
       id="path15" />
    <path
       d="m 139.10794,21.068895 h 26.8868 v 5.974867 h -26.8868 z"
       fill="#e5e5e5"
       stroke-width="0.11204"
       id="path16" />
    <path
       d="m 168.38444,21.068895 h 26.88657 v 5.974867 h -26.88657 z"
       fill="#e5e5e5"
       stroke-width="0.11204"
       id="path17" />
    <g
       fill="#e5e5e5"
       transform="matrix(0.11203998,0,0,0.11203998,-3.30518,-3.417219)"
       id="g23">
      <path
         d="m 1142.514,114.17 h 78.116 v 15.623 h -31.246 v 54.682 h -15.624 v -54.682 h -31.246 z"
         id="path18" />
      <path
         d="m 1255.583,157.134 v 27.341 h -15.622 V 114.17 h 54.68 c 15.625,0 23.437,7.135 23.437,21.403 0,6.771 -1.12,11.744 -3.357,14.92 2.237,3.698 3.357,8.515 3.357,14.451 v 19.529 h -15.623 v -19.529 c 0,-5.207 -2.604,-7.812 -7.813,-7.812 h -39.058 v 0.002 z m 0,-15.623 h 46.87 v -11.718 h -46.87 z"
         id="path19" />
      <path
         d="m 1433.076,157.134 v -11.717 h 26.988 v 11.717 z"
         id="path20" />
      <path
         d="m 1555.266,129.793 h -62.023 v 11.718 h 39.06 c 15.623,0 23.436,7.161 23.436,21.482 0,14.322 -7.813,21.482 -23.436,21.482 h -31.247 c -13.229,0 -20.855,-5.207 -22.888,-15.624 h 61.944 v -11.717 h -39.058 c -15.624,0 -23.435,-7.056 -23.435,-21.169 0,-14.53 7.811,-21.794 23.435,-21.794 h 31.247 c 13.331,-0.001 20.986,5.207 22.965,15.622 z m -77.1,39.058 c -0.366,-1.875 -0.547,-3.931 -0.547,-6.17 0,-5.52 1.195,-9.973 3.593,-13.358 3.75,5.208 10.363,7.812 19.843,7.812 h -7.813 v 11.717 z m 73.898,-19.529 c 2.445,-3.438 3.67,-7.994 3.67,-13.67 0,-2.083 -0.155,-4.035 -0.469,-5.859 h -15.154 v 11.718 h -7.812 c 9.428,0 16.015,2.604 19.765,7.811 z"
         id="path21" />
      <path
         d="m 1568.348,161.04 v -23.435 c 0,-15.624 7.813,-23.435 23.437,-23.435 h 23.437 c 15.623,0 23.434,7.811 23.434,23.435 v 23.435 c 0,15.623 -7.812,23.435 -23.434,23.435 h -23.437 c -15.625,0 -23.437,-7.812 -23.437,-23.435 z m 46.871,7.811 c 5.206,0 7.812,-2.603 7.812,-7.811 v -23.435 c 0,-5.208 -2.604,-7.812 -7.812,-7.812 h -23.436 c -5.209,0 -7.813,2.604 -7.813,7.812 v 23.435 c 0,5.208 2.604,7.811 7.813,7.811 z"
         id="path22" />
      <path
         d="m 1334.605,161.137 h 20.172 c 0,5.042 2.836,8.509 6.774,8.509 h 36.325 c 2.837,0 3.782,-2.049 3.782,-4.886 0,-2.836 1.261,-8.981 -4.412,-8.981 -5.672,0 -38.846,0 -44.362,0 -5.516,0 -18.437,-4.57 -18.437,-20.013 0,-15.443 10.084,-21.116 17.177,-21.116 h 53.576 c 6.461,0 12.447,2.994 12.447,19.54 -4.727,0 -19.065,0 -19.065,0 0,-3.625 -1.892,-6.183 -8.509,-6.183 -6.618,0 -23.721,0 -28.447,0 -4.726,0 -6.46,0.353 -6.46,7.759 0,7.406 4.255,6.813 7.405,6.813 h 44.992 c 7.721,0 14.97,7.841 14.97,19.975 0,12.133 -5.83,22.458 -18.278,22.458 -12.449,0 -47.115,0 -53.42,0 -6.303,0 -16.23,-3.074 -16.23,-23.875 z"
         id="path23" />
    </g>
    <g
       transform="matrix(0.11203998,0,0,0.11203998,-3.30518,-3.417219)"
       id="g33" />
  </g>
</svg>
