<?xml version="1.0" encoding="UTF-8" standalone="no"?>
<svg
   id="Calque_1"
   data-name="Calque 1"
   width="807.46"
   height="298.17"
   viewBox="0 0 807.46 298.17"
   version="1.1"
   sodipodi:docname="vg5000.svg"
   inkscape:version="1.3.2 (091e20ef0f, 2023-11-25)"
   xmlns:inkscape="http://www.inkscape.org/namespaces/inkscape"
   xmlns:sodipodi="http://sodipodi.sourceforge.net/DTD/sodipodi-0.dtd"
   xmlns="http://www.w3.org/2000/svg"
   xmlns:svg="http://www.w3.org/2000/svg">
  <sodipodi:namedview
     id="namedview6"
     pagecolor="#505050"
     bordercolor="#eeeeee"
     borderopacity="1"
     inkscape:showpageshadow="0"
     inkscape:pageopacity="0"
     inkscape:pagecheckerboard="0"
     inkscape:deskcolor="#505050"
     showgrid="false"
     inkscape:zoom="1.4545666"
     inkscape:cx="405.27536"
     inkscape:cy="114.12334"
     inkscape:window-width="2560"
     inkscape:window-height="1409"
     inkscape:window-x="1920"
     inkscape:window-y="0"
     inkscape:window-maximized="1"
     inkscape:current-layer="Calque_1" />
  <defs
     id="defs1">
    <style
       id="style1">.cls-1{stroke:#ffc000;stroke-width:6px;}.cls-1,.cls-3{stroke-miterlimit:10;}.cls-2{fill:#191919;}.cls-3{fill:none;stroke:#191919;stroke-width:4px;}</style>
  </defs>
  <g
     id="logo_vg_5000"
     data-name="logo vg 5000"
     style="fill:#306230">
    <line
       class="cls-1"
       x1="1.28"
       y1="121.01"
       x2="805.04"
       y2="121.01"
       id="line1"
       style="fill:#306230;stroke:#306230;stroke-opacity:1" />
    <path
       class="cls-2"
       d="M633.44,296.13c-26.42,0-43.74-11.63-46.62-22.57l8.7-2.29c1.46,5.53,14.07,15.86,37.92,15.86,14.52,0,28.25-5.51,37.66-15.1a41.11,41.11,0,0,0,12-30.14c-.6-31.18-25.73-45.39-48.83-45.41h-.09c-13.72,0-18,1.91-21.1,3.31l-1.47.64-2.16.89-2-1.26c-.93-.59-3.77-2.4-2.68-5.75l20.15-59h64v9H631.42l-15.33,44.91c3.83-1,9.35-1.71,18.14-1.71h.09c27.34,0,57.1,17,57.81,54.24a50.51,50.51,0,0,1-14.6,36.61C666.43,289.64,650.36,296.13,633.44,296.13Z"
       transform="translate(-257.43 1.84)"
       id="path1"
       style="fill:#306230" />
    <path
       class="cls-3"
       d="M1062.47,152c3-.59-11,3.88-8.16-14.49.24-1.57-.64-4.77-.87-2.72,0,20.53-3.34,22.34-6.67,22.57-5.15.35-8.28-5.14-9-21.74,0-.16-.23-.17-.3,0-2.75,6.3,6.75,15-1.59,28.62,0,0-2.91,3.13-1.56,1.56"
       transform="translate(-257.43 1.84)"
       id="path2"
       style="fill:none;stroke:#fdfdfd;stroke-opacity:1" />
    <g
       id="LOGO_PHILIPS"
       data-name="LOGO PHILIPS"
       style="fill:#306230">
      <path
         id="path7"
         class="cls-2"
         d="M731.76,34.57c16.91,4.55,38,13.62,37.68,33.72-.6,37.27-48.21,33.9-65.06,29.84V73.87c35.35,10.13,58.86-6.58,14.68-17.64C706.67,51.77,701.89,40,702.41,29.52,705.8-3.26,733.09-4.09,759.7-.27v24c-27.14-13.12-37.75,7-27.94,10.77"
         transform="translate(-257.43 1.84)"
         style="fill:#306230" />
      <polyline
         id="polyline9"
         class="cls-2"
         points="116.44 38.41 143.89 38.41 143.88 1.94 169.38 1.94 169.38 99.99 143.89 99.99 143.89 60.63 116.44 60.63 116.43 99.99 90.91 99.99 90.91 1.94 116.43 1.94 116.44 38.41"
         style="fill:#306230" />
      <rect
         id="rect11"
         class="cls-2"
         x="193.4"
         y="1.94"
         width="25.52"
         height="98.06"
         style="fill:#306230" />
      <rect
         id="rect13"
         class="cls-2"
         x="307.41"
         y="1.94"
         width="25.52"
         height="98.06"
         style="fill:#306230" />
      <polyline
         id="polyline15"
         class="cls-2"
         points="268.45 77.73 294.76 77.73 294.76 99.99 242.93 99.99 242.93 1.94 268.45 1.94 268.45 77.73"
         style="fill:#306230" />
      <path
         id="path17"
         class="cls-2"
         d="M261.15,21.68V0c38.39,0,76.59-6.07,76.59,38.6,0,25.23-16.79,40.53-56.64,38.57l5.57-22.24c34.06,5.45,32.53-40.47,0-33.09l-25.51-.16"
         transform="translate(-257.43 1.84)"
         style="fill:#306230" />
      <polyline
         id="polyline19"
         class="cls-2"
         points="29.26 99.98 3.72 99.97 3.72 20.59 29.23 20.75 29.26 99.98"
         style="fill:#306230" />
      <path
         id="path17-2"
         data-name="path17"
         class="cls-2"
         d="M614.62,21.68V0c38.39,0,76.6-6.07,76.6,38.6,0,26.33-16.79,40.53-56.65,38.57l5.57-22.24c34.06,5.45,32.53-40.47,0-33.09l-25.51-.16"
         transform="translate(-257.43 1.84)"
         style="fill:#306230" />
      <polyline
         id="polyline19-2"
         data-name="polyline19"
         class="cls-2"
         points="382.73 99.98 357.19 99.97 357.19 20.59 382.7 20.75 382.73 99.98"
         style="fill:#306230" />
    </g>
    <path
       class="cls-2"
       d="M446.49,296.13a80.43,80.43,0,1,1,66.69-125.4l-7.45,5a71.44,71.44,0,1,0,11.46,50.17H453v-9h74.09l-.37,4.84a80.42,80.42,0,0,1-80.2,74.35Z"
       transform="translate(-257.43 1.84)"
       id="path3"
       style="fill:#306230" />
    <polygon
       class="cls-2"
       points="55.35 298.18 0 135.6 11.85 135.6 59.26 274.65 107.63 135.6 119.61 135.6 63.34 298.18 55.35 298.18"
       id="polygon3"
       style="fill:#306230" />
  </g>
  <path
     class="cls-2"
     d="M749.1,295.93c-13.93,0-26.85-8.67-36.39-24.4-9.11-15-14.13-34.93-14.13-56s5-41,14.13-56c9.54-15.74,22.46-24.41,36.39-24.41s26.85,8.67,36.39,24.41c9.11,15,14.13,34.92,14.13,56s-5,41-14.13,56C776,287.26,763,295.93,749.1,295.93Zm0-151.84c-10.66,0-20.85,7.13-28.69,20.07-8.28,13.65-12.83,31.88-12.83,51.35s4.55,37.7,12.83,51.35c7.84,12.94,18,20.07,28.69,20.07s20.85-7.13,28.69-20.07c8.28-13.65,12.83-31.88,12.83-51.35s-4.55-37.7-12.83-51.35C770,151.22,759.76,144.09,749.1,144.09Z"
     transform="translate(-257.43 1.84)"
     id="path4"
     style="fill:#306230" />
  <path
     class="cls-2"
     d="M858.1,295.93c-13.93,0-26.85-8.67-36.39-24.4-9.12-15-14.14-34.93-14.14-56s5-41,14.14-56c9.54-15.74,22.46-24.41,36.39-24.41s26.85,8.67,36.39,24.41c9.11,15,14.13,34.92,14.13,56s-5,41-14.13,56C885,287.26,872,295.93,858.1,295.93Zm0-151.84c-10.66,0-20.85,7.13-28.7,20.07-8.27,13.65-12.83,31.88-12.83,51.35s4.56,37.7,12.83,51.35c7.85,12.94,18,20.07,28.7,20.07s20.84-7.13,28.69-20.07c8.27-13.65,12.83-31.88,12.83-51.35s-4.56-37.7-12.83-51.35C878.94,151.22,868.75,144.09,858.1,144.09Z"
     transform="translate(-257.43 1.84)"
     id="path5"
     style="fill:#306230" />
  <path
     class="cls-2"
     d="M967.46,295.93c-13.93,0-26.85-8.67-36.39-24.4-9.11-15-14.13-34.93-14.13-56s5-41,14.13-56c9.54-15.74,22.46-24.41,36.39-24.41s26.85,8.67,36.39,24.41c9.11,15,14.13,34.92,14.13,56s-5,41-14.13,56C994.31,287.26,981.39,295.93,967.46,295.93Zm0-151.84c-10.66,0-20.85,7.13-28.69,20.07-8.27,13.65-12.83,31.88-12.83,51.35s4.56,37.7,12.83,51.35c7.84,12.94,18,20.07,28.69,20.07s20.85-7.13,28.69-20.07c8.28-13.65,12.83-31.88,12.83-51.35s-4.55-37.7-12.83-51.35C988.31,151.22,978.12,144.09,967.46,144.09Z"
     transform="translate(-257.43 1.84)"
     id="path6"
     style="fill:#306230" />
</svg>
